<svg xmlns="http://www.w3.org/2000/svg" xmlns:xlink="http://www.w3.org/1999/xlink" viewBox="0 0 1920 1080"><defs><style>.cls-1{fill:none;}.cls-2{isolation:isolate;}.cls-3{fill:url(#radial-gradient);}.cls-4{opacity:0.7;}.cls-5{clip-path:url(#clip-path);}.cls-6{mix-blend-mode:soft-light;}.cls-7{fill:#fff;}.cls-8{fill:#ffdc7e;}.cls-9{fill:#ffb808;}.cls-10{fill:#fd5;}.cls-11{fill:#fef2c0;}.cls-12{fill:#fffbef;}</style><radialGradient id="radial-gradient" cx="960" cy="540" r="937.75" gradientUnits="userSpaceOnUse"><stop offset="0" stop-color="#fff8da"/><stop offset="0.4" stop-color="#ffe264"/><stop offset="1" stop-color="#fc9200"/></radialGradient><clipPath id="clip-path"><rect class="cls-1" width="1920" height="1080"/></clipPath></defs><title>Large bg desktop</title><g class="cls-2"><g id="Layer_1" data-name="Layer 1"><rect class="cls-3" width="1920" height="1080"/><g class="cls-4"><g class="cls-5"><g class="cls-6"><rect class="cls-7" x="-41.05" y="-89.81" width="2002.1" height="1261.89"/><polygon class="cls-8" points="1864.75 -5.47 1887.55 34.02 1864.75 73.5 1819.15 73.5 1796.35 34.02 1819.15 -5.47 1864.75 -5.47"/><polygon class="cls-9" points="1864.75 78.86 1887.55 118.35 1864.75 157.84 1819.15 157.84 1796.35 118.35 1819.15 78.86 1864.75 78.86"/><polygon class="cls-8" points="1938.25 36.36 1961.05 75.85 1938.25 115.34 1892.65 115.34 1869.85 75.85 1892.65 36.36 1938.25 36.36"/><polygon class="cls-8" points="1938.25 -47.97 1961.05 -8.48 1938.25 31 1892.65 31 1869.85 -8.48 1892.65 -47.97 1938.25 -47.97"/><polygon class="cls-8" points="1791.25 36.36 1814.05 75.85 1791.25 115.34 1745.65 115.34 1722.85 75.85 1745.65 36.36 1791.25 36.36"/><polygon class="cls-8" points="1791.25 -47.97 1814.05 -8.48 1791.25 31 1745.65 31 1722.85 -8.48 1745.65 -47.97 1791.25 -47.97"/><polygon class="cls-9" points="1864.75 163.19 1887.55 202.68 1864.75 242.17 1819.15 242.17 1796.35 202.68 1819.15 163.19 1864.75 163.19"/><polygon class="cls-8" points="1864.75 247.53 1887.55 287.02 1864.75 326.5 1819.15 326.5 1796.35 287.02 1819.15 247.53 1864.75 247.53"/><polygon class="cls-9" points="1938.25 205.03 1961.05 244.52 1938.25 284 1892.65 284 1869.85 244.52 1892.65 205.03 1938.25 205.03"/><polygon class="cls-9" points="1938.25 120.69 1961.05 160.18 1938.25 199.67 1892.65 199.67 1869.85 160.18 1892.65 120.69 1938.25 120.69"/><polygon class="cls-8" points="1791.25 205.03 1814.05 244.52 1791.25 284 1745.65 284 1722.85 244.52 1745.65 205.03 1791.25 205.03"/><polygon class="cls-9" points="1791.25 120.69 1814.05 160.18 1791.25 199.67 1745.65 199.67 1722.85 160.18 1745.65 120.69 1791.25 120.69"/><polygon class="cls-8" points="1864.75 331.85 1887.55 371.33 1864.75 410.82 1819.15 410.82 1796.35 371.33 1819.15 331.85 1864.75 331.85"/><polygon class="cls-10" points="1864.75 416.18 1887.55 455.67 1864.75 495.15 1819.15 495.15 1796.35 455.67 1819.15 416.18 1864.75 416.18"/><polygon class="cls-8" points="1938.25 373.68 1961.05 413.17 1938.25 452.65 1892.65 452.65 1869.85 413.17 1892.65 373.68 1938.25 373.68"/><polygon class="cls-8" points="1938.25 289.35 1961.05 328.83 1938.25 368.32 1892.65 368.32 1869.85 328.83 1892.65 289.35 1938.25 289.35"/><polygon class="cls-8" points="1791.25 373.68 1814.05 413.17 1791.25 452.65 1745.65 452.65 1722.85 413.17 1745.65 373.68 1791.25 373.68"/><polygon class="cls-11" points="1791.25 289.35 1814.05 328.83 1791.25 368.32 1745.65 368.32 1722.85 328.83 1745.65 289.35 1791.25 289.35"/><polygon class="cls-11" points="1864.75 669.18 1887.55 708.67 1864.75 748.15 1819.15 748.15 1796.35 708.67 1819.15 669.18 1864.75 669.18"/><polygon class="cls-10" points="1864.75 753.51 1887.55 793 1864.75 832.49 1819.15 832.49 1796.35 793 1819.15 753.51 1864.75 753.51"/><polygon class="cls-9" points="1864.75 584.85 1887.55 624.33 1864.75 663.82 1819.15 663.82 1796.35 624.33 1819.15 584.85 1864.75 584.85"/><polygon class="cls-9" points="1938.25 711.01 1961.05 750.5 1938.25 789.99 1892.65 789.99 1869.85 750.5 1892.65 711.01 1938.25 711.01"/><polygon class="cls-9" points="1938.25 626.68 1961.05 666.17 1938.25 705.65 1892.65 705.65 1869.85 666.17 1892.65 626.68 1938.25 626.68"/><polygon class="cls-11" points="1791.25 711.01 1814.05 750.5 1791.25 789.99 1745.65 789.99 1722.85 750.5 1745.65 711.01 1791.25 711.01"/><polygon class="cls-11" points="1791.25 626.68 1814.05 666.17 1791.25 705.65 1745.65 705.65 1722.85 666.17 1745.65 626.68 1791.25 626.68"/><polygon class="cls-8" points="1864.75 837.85 1887.55 877.33 1864.75 916.82 1819.15 916.82 1796.35 877.33 1819.15 837.85 1864.75 837.85"/><polygon class="cls-8" points="1864.75 922.18 1887.55 961.67 1864.75 1001.15 1819.15 1001.15 1796.35 961.67 1819.15 922.18 1864.75 922.18"/><polygon class="cls-9" points="1938.25 879.68 1961.05 919.17 1938.25 958.65 1892.65 958.65 1869.85 919.17 1892.65 879.68 1938.25 879.68"/><polygon class="cls-9" points="1938.25 795.35 1961.05 834.83 1938.25 874.32 1892.65 874.32 1869.85 834.83 1892.65 795.35 1938.25 795.35"/><polygon class="cls-11" points="1791.25 879.68 1814.05 919.17 1791.25 958.65 1745.65 958.65 1722.85 919.17 1745.65 879.68 1791.25 879.68"/><polygon class="cls-11" points="1791.25 795.35 1814.05 834.83 1791.25 874.32 1745.65 874.32 1722.85 834.83 1745.65 795.35 1791.25 795.35"/><polygon class="cls-9" points="1864.75 1006.5 1887.55 1045.98 1864.75 1085.47 1819.15 1085.47 1796.35 1045.98 1819.15 1006.5 1864.75 1006.5"/><polygon class="cls-9" points="1938.25 1048.33 1961.05 1087.82 1938.25 1127.31 1892.65 1127.31 1869.85 1087.82 1892.65 1048.33 1938.25 1048.33"/><polygon class="cls-8" points="1938.25 964 1961.05 1003.48 1938.25 1042.97 1892.65 1042.97 1869.85 1003.48 1892.65 964 1938.25 964"/><polygon class="cls-9" points="1791.25 1048.33 1814.05 1087.82 1791.25 1127.31 1745.65 1127.31 1722.85 1087.82 1745.65 1048.33 1791.25 1048.33"/><polygon class="cls-8" points="1791.25 964 1814.05 1003.48 1791.25 1042.97 1745.65 1042.97 1722.85 1003.48 1745.65 964 1791.25 964"/><polygon class="cls-8" points="1864.75 500.51 1887.55 540 1864.75 579.49 1819.15 579.49 1796.35 540 1819.15 500.51 1864.75 500.51"/><polygon class="cls-9" points="1938.25 542.35 1961.05 581.83 1938.25 621.32 1892.65 621.32 1869.85 581.83 1892.65 542.35 1938.25 542.35"/><polygon class="cls-8" points="1938.25 458.01 1961.05 497.5 1938.25 536.99 1892.65 536.99 1869.85 497.5 1892.65 458.01 1938.25 458.01"/><polygon class="cls-8" points="1791.25 542.35 1814.05 581.83 1791.25 621.32 1745.65 621.32 1722.85 581.83 1745.65 542.35 1791.25 542.35"/><polygon class="cls-10" points="1791.25 458.01 1814.05 497.5 1791.25 536.99 1745.65 536.99 1722.85 497.5 1745.65 458.01 1791.25 458.01"/><polygon class="cls-8" points="1717.75 -5.47 1740.55 34.02 1717.75 73.5 1672.15 73.5 1649.36 34.02 1672.15 -5.47 1717.75 -5.47"/><polygon class="cls-9" points="1717.75 78.86 1740.55 118.35 1717.75 157.84 1672.15 157.84 1649.36 118.35 1672.15 78.86 1717.75 78.86"/><polygon class="cls-11" points="1644.25 36.36 1667.05 75.85 1644.25 115.34 1598.65 115.34 1575.86 75.85 1598.65 36.36 1644.25 36.36"/><polygon class="cls-8" points="1644.25 -47.97 1667.05 -8.48 1644.25 31 1598.65 31 1575.86 -8.48 1598.65 -47.97 1644.25 -47.97"/><polygon class="cls-9" points="1717.75 163.19 1740.55 202.68 1717.75 242.17 1672.15 242.17 1649.36 202.68 1672.15 163.19 1717.75 163.19"/><polygon class="cls-8" points="1717.75 247.53 1740.55 287.02 1717.75 326.5 1672.15 326.5 1649.36 287.02 1672.15 247.53 1717.75 247.53"/><polygon class="cls-8" points="1644.25 205.03 1667.05 244.52 1644.25 284 1598.65 284 1575.86 244.52 1598.65 205.03 1644.25 205.03"/><polygon class="cls-10" points="1644.25 120.69 1667.05 160.18 1644.25 199.67 1598.65 199.67 1575.86 160.18 1598.65 120.69 1644.25 120.69"/><polygon class="cls-11" points="1717.75 331.85 1740.55 371.33 1717.75 410.82 1672.15 410.82 1649.36 371.33 1672.15 331.85 1717.75 331.85"/><polygon class="cls-8" points="1717.75 416.18 1740.55 455.67 1717.75 495.15 1672.15 495.15 1649.36 455.67 1672.15 416.18 1717.75 416.18"/><polygon class="cls-11" points="1644.25 373.68 1667.05 413.17 1644.25 452.65 1598.65 452.65 1575.86 413.17 1598.65 373.68 1644.25 373.68"/><polygon class="cls-8" points="1644.25 289.35 1667.05 328.83 1644.25 368.32 1598.65 368.32 1575.86 328.83 1598.65 289.35 1644.25 289.35"/><polygon class="cls-11" points="1717.75 669.18 1740.55 708.67 1717.75 748.15 1672.15 748.15 1649.36 708.67 1672.15 669.18 1717.75 669.18"/><polygon class="cls-8" points="1717.75 753.51 1740.55 793 1717.75 832.49 1672.15 832.49 1649.36 793 1672.15 753.51 1717.75 753.51"/><polygon class="cls-11" points="1717.75 584.85 1740.55 624.33 1717.75 663.82 1672.15 663.82 1649.36 624.33 1672.15 584.85 1717.75 584.85"/><polygon class="cls-11" points="1644.25 711.01 1667.05 750.5 1644.25 789.99 1598.65 789.99 1575.86 750.5 1598.65 711.01 1644.25 711.01"/><polygon class="cls-7" points="1644.25 626.68 1667.05 666.17 1644.25 705.65 1598.65 705.65 1575.86 666.17 1598.65 626.68 1644.25 626.68"/><polygon class="cls-8" points="1717.75 837.85 1740.55 877.33 1717.75 916.82 1672.15 916.82 1649.36 877.33 1672.15 837.85 1717.75 837.85"/><polygon class="cls-8" points="1717.75 922.18 1740.55 961.67 1717.75 1001.15 1672.15 1001.15 1649.36 961.67 1672.15 922.18 1717.75 922.18"/><polygon class="cls-8" points="1644.25 879.68 1667.05 919.17 1644.25 958.65 1598.65 958.65 1575.86 919.17 1598.65 879.68 1644.25 879.68"/><polygon class="cls-8" points="1644.25 795.35 1667.05 834.83 1644.25 874.32 1598.65 874.32 1575.86 834.83 1598.65 795.35 1644.25 795.35"/><polygon class="cls-8" points="1717.75 1006.5 1740.55 1045.98 1717.75 1085.47 1672.15 1085.47 1649.36 1045.98 1672.15 1006.5 1717.75 1006.5"/><polygon class="cls-11" points="1644.25 1048.33 1667.05 1087.82 1644.25 1127.31 1598.65 1127.31 1575.86 1087.82 1598.65 1048.33 1644.25 1048.33"/><polygon class="cls-8" points="1644.25 964 1667.05 1003.48 1644.25 1042.97 1598.65 1042.97 1575.86 1003.48 1598.65 964 1644.25 964"/><polygon class="cls-8" points="1717.75 500.51 1740.55 540 1717.75 579.49 1672.15 579.49 1649.36 540 1672.15 500.51 1717.75 500.51"/><polygon class="cls-11" points="1644.25 542.35 1667.05 581.83 1644.25 621.32 1598.65 621.32 1575.86 581.83 1598.65 542.35 1644.25 542.35"/><polygon class="cls-11" points="1644.25 458.01 1667.05 497.5 1644.25 536.99 1598.65 536.99 1575.86 497.5 1598.65 458.01 1644.25 458.01"/><polygon class="cls-8" points="1570.75 -5.47 1593.55 34.02 1570.75 73.5 1525.15 73.5 1502.36 34.02 1525.15 -5.47 1570.75 -5.47"/><polygon class="cls-11" points="1570.75 78.86 1593.55 118.35 1570.75 157.84 1525.15 157.84 1502.36 118.35 1525.15 78.86 1570.75 78.86"/><polygon class="cls-8" points="1497.25 36.36 1520.05 75.85 1497.25 115.34 1451.65 115.34 1428.86 75.85 1451.65 36.36 1497.25 36.36"/><polygon class="cls-8" points="1497.25 -47.97 1520.05 -8.48 1497.25 31 1451.65 31 1428.86 -8.48 1451.65 -47.97 1497.25 -47.97"/><polygon class="cls-10" points="1570.75 163.19 1593.55 202.68 1570.75 242.17 1525.15 242.17 1502.36 202.68 1525.15 163.19 1570.75 163.19"/><polygon class="cls-8" points="1570.75 247.53 1593.55 287.02 1570.75 326.5 1525.15 326.5 1502.36 287.02 1525.15 247.53 1570.75 247.53"/><polygon class="cls-12" points="1497.25 205.03 1520.05 244.52 1497.25 284 1451.65 284 1428.86 244.52 1451.65 205.03 1497.25 205.03"/><polygon class="cls-11" points="1497.25 120.69 1520.05 160.18 1497.25 199.67 1451.65 199.67 1428.86 160.18 1451.65 120.69 1497.25 120.69"/><polygon class="cls-11" points="1570.75 331.85 1593.55 371.33 1570.75 410.82 1525.15 410.82 1502.36 371.33 1525.15 331.85 1570.75 331.85"/><polygon class="cls-12" points="1570.75 416.18 1593.55 455.67 1570.75 495.15 1525.15 495.15 1502.36 455.67 1525.15 416.18 1570.75 416.18"/><polygon class="cls-7" points="1497.25 373.68 1520.05 413.17 1497.25 452.65 1451.65 452.65 1428.86 413.17 1451.65 373.68 1497.25 373.68"/><polygon class="cls-7" points="1497.25 289.35 1520.05 328.83 1497.25 368.32 1451.65 368.32 1428.86 328.83 1451.65 289.35 1497.25 289.35"/><polygon class="cls-11" points="1570.75 669.18 1593.55 708.67 1570.75 748.15 1525.15 748.15 1502.36 708.67 1525.15 669.18 1570.75 669.18"/><polygon class="cls-12" points="1570.75 753.51 1593.55 793 1570.75 832.49 1525.15 832.49 1502.36 793 1525.15 753.51 1570.75 753.51"/><polygon class="cls-7" points="1570.75 584.85 1593.55 624.33 1570.75 663.82 1525.15 663.82 1502.36 624.33 1525.15 584.85 1570.75 584.85"/><polygon class="cls-12" points="1497.25 711.01 1520.05 750.5 1497.25 789.99 1451.65 789.99 1428.86 750.5 1451.65 711.01 1497.25 711.01"/><polygon class="cls-12" points="1497.25 626.68 1520.05 666.17 1497.25 705.65 1451.65 705.65 1428.86 666.17 1451.65 626.68 1497.25 626.68"/><polygon class="cls-12" points="1570.75 837.85 1593.55 877.33 1570.75 916.82 1525.15 916.82 1502.36 877.33 1525.15 837.85 1570.75 837.85"/><polygon class="cls-8" points="1570.75 922.18 1593.55 961.67 1570.75 1001.15 1525.15 1001.15 1502.36 961.67 1525.15 922.18 1570.75 922.18"/><polygon class="cls-11" points="1497.25 879.68 1520.05 919.17 1497.25 958.65 1451.65 958.65 1428.86 919.17 1451.65 879.68 1497.25 879.68"/><polygon class="cls-11" points="1497.25 795.35 1520.05 834.83 1497.25 874.32 1451.65 874.32 1428.86 834.83 1451.65 795.35 1497.25 795.35"/><polygon class="cls-11" points="1570.75 1006.5 1593.55 1045.98 1570.75 1085.47 1525.15 1085.47 1502.36 1045.98 1525.15 1006.5 1570.75 1006.5"/><polygon class="cls-11" points="1497.25 1048.33 1520.05 1087.82 1497.25 1127.31 1451.65 1127.31 1428.86 1087.82 1451.65 1048.33 1497.25 1048.33"/><polygon class="cls-11" points="1497.25 964 1520.05 1003.48 1497.25 1042.97 1451.65 1042.97 1428.86 1003.48 1451.65 964 1497.25 964"/><polygon class="cls-11" points="1570.75 500.51 1593.55 540 1570.75 579.49 1525.15 579.49 1502.36 540 1525.15 500.51 1570.75 500.51"/><polygon class="cls-7" points="1497.25 542.35 1520.05 581.83 1497.25 621.32 1451.65 621.32 1428.86 581.83 1451.65 542.35 1497.25 542.35"/><polygon class="cls-7" points="1497.25 458.01 1520.05 497.5 1497.25 536.99 1451.65 536.99 1428.86 497.5 1451.65 458.01 1497.25 458.01"/><polygon class="cls-8" points="1423.78 -5.47 1446.58 34.02 1423.78 73.5 1378.18 73.5 1355.38 34.02 1378.18 -5.47 1423.78 -5.47"/><polygon class="cls-7" points="1423.78 78.86 1446.58 118.35 1423.78 157.84 1378.18 157.84 1355.38 118.35 1378.18 78.86 1423.78 78.86"/><polygon class="cls-11" points="1350.28 36.36 1373.08 75.85 1350.28 115.34 1304.68 115.34 1281.88 75.85 1304.68 36.36 1350.28 36.36"/><polygon class="cls-7" points="1350.28 -47.97 1373.08 -8.48 1350.28 31 1304.68 31 1281.88 -8.48 1304.68 -47.97 1350.28 -47.97"/><polygon class="cls-12" points="1423.78 163.19 1446.58 202.68 1423.78 242.17 1378.18 242.17 1355.38 202.68 1378.18 163.19 1423.78 163.19"/><polygon class="cls-12" points="1423.78 247.53 1446.58 287.02 1423.78 326.5 1378.18 326.5 1355.38 287.02 1378.18 247.53 1423.78 247.53"/><polygon class="cls-7" points="1350.28 205.03 1373.08 244.52 1350.28 284 1304.68 284 1281.88 244.52 1304.68 205.03 1350.28 205.03"/><polygon class="cls-7" points="1350.28 120.69 1373.08 160.18 1350.28 199.67 1304.68 199.67 1281.88 160.18 1304.68 120.69 1350.28 120.69"/><polygon class="cls-12" points="1423.78 331.85 1446.58 371.33 1423.78 410.82 1378.18 410.82 1355.38 371.33 1378.18 331.85 1423.78 331.85"/><polygon class="cls-12" points="1423.78 416.18 1446.58 455.67 1423.78 495.15 1378.18 495.15 1355.38 455.67 1378.18 416.18 1423.78 416.18"/><polygon class="cls-7" points="1350.28 373.68 1373.08 413.17 1350.28 452.65 1304.68 452.65 1281.88 413.17 1304.68 373.68 1350.28 373.68"/><polygon class="cls-7" points="1350.28 289.35 1373.08 328.83 1350.28 368.32 1304.68 368.32 1281.88 328.83 1304.68 289.35 1350.28 289.35"/><polygon class="cls-7" points="1423.78 669.18 1446.58 708.67 1423.78 748.15 1378.18 748.15 1355.38 708.67 1378.18 669.18 1423.78 669.18"/><polygon class="cls-7" points="1423.78 753.51 1446.58 793 1423.78 832.49 1378.18 832.49 1355.38 793 1378.18 753.51 1423.78 753.51"/><polygon class="cls-7" points="1423.78 584.85 1446.58 624.33 1423.78 663.82 1378.18 663.82 1355.38 624.33 1378.18 584.85 1423.78 584.85"/><polygon class="cls-7" points="1350.28 711.01 1373.08 750.5 1350.28 789.99 1304.68 789.99 1281.88 750.5 1304.68 711.01 1350.28 711.01"/><polygon class="cls-7" points="1350.28 626.68 1373.08 666.17 1350.28 705.65 1304.68 705.65 1281.88 666.17 1304.68 626.68 1350.28 626.68"/><polygon class="cls-11" points="1423.78 837.85 1446.58 877.33 1423.78 916.82 1378.18 916.82 1355.38 877.33 1378.18 837.85 1423.78 837.85"/><polygon class="cls-11" points="1423.78 922.18 1446.58 961.67 1423.78 1001.15 1378.18 1001.15 1355.38 961.67 1378.18 922.18 1423.78 922.18"/><polygon class="cls-7" points="1350.28 879.68 1373.08 919.17 1350.28 958.65 1304.68 958.65 1281.88 919.17 1304.68 879.68 1350.28 879.68"/><polygon class="cls-12" points="1350.28 795.35 1373.08 834.83 1350.28 874.32 1304.68 874.32 1281.88 834.83 1304.68 795.35 1350.28 795.35"/><polygon class="cls-11" points="1423.78 1006.5 1446.58 1045.98 1423.78 1085.47 1378.18 1085.47 1355.38 1045.98 1378.18 1006.5 1423.78 1006.5"/><polygon class="cls-7" points="1350.28 1048.33 1373.08 1087.82 1350.28 1127.31 1304.68 1127.31 1281.88 1087.82 1304.68 1048.33 1350.28 1048.33"/><polygon class="cls-7" points="1350.28 964 1373.08 1003.48 1350.28 1042.97 1304.68 1042.97 1281.88 1003.48 1304.68 964 1350.28 964"/><polygon class="cls-7" points="1423.78 500.51 1446.58 540 1423.78 579.49 1378.18 579.49 1355.38 540 1378.18 500.51 1423.78 500.51"/><polygon class="cls-7" points="1350.28 542.35 1373.08 581.83 1350.28 621.32 1304.68 621.32 1281.88 581.83 1304.68 542.35 1350.28 542.35"/><polygon class="cls-7" points="1350.28 458.01 1373.08 497.5 1350.28 536.99 1304.68 536.99 1281.88 497.5 1304.68 458.01 1350.28 458.01"/><polygon class="cls-7" points="1276.78 -5.47 1299.58 34.02 1276.78 73.5 1231.18 73.5 1208.38 34.02 1231.18 -5.47 1276.78 -5.47"/><polygon class="cls-11" points="1276.78 78.86 1299.58 118.35 1276.78 157.84 1231.18 157.84 1208.38 118.35 1231.18 78.86 1276.78 78.86"/><polygon class="cls-10" points="1203.28 36.36 1226.08 75.85 1203.28 115.34 1157.68 115.34 1134.88 75.85 1157.68 36.36 1203.28 36.36"/><polygon class="cls-7" points="1203.28 -47.97 1226.08 -8.48 1203.28 31 1157.68 31 1134.88 -8.48 1157.68 -47.97 1203.28 -47.97"/><polygon class="cls-7" points="1276.78 163.19 1299.58 202.68 1276.78 242.17 1231.18 242.17 1208.38 202.68 1231.18 163.19 1276.78 163.19"/><polygon class="cls-7" points="1276.78 247.53 1299.58 287.02 1276.78 326.5 1231.18 326.5 1208.38 287.02 1231.18 247.53 1276.78 247.53"/><polygon class="cls-7" points="1203.28 205.03 1226.08 244.52 1203.28 284 1157.68 284 1134.88 244.52 1157.68 205.03 1203.28 205.03"/><polygon class="cls-11" points="1203.28 120.69 1226.08 160.18 1203.28 199.67 1157.68 199.67 1134.88 160.18 1157.68 120.69 1203.28 120.69"/><polygon class="cls-7" points="1276.78 331.85 1299.58 371.33 1276.78 410.82 1231.18 410.82 1208.38 371.33 1231.18 331.85 1276.78 331.85"/><polygon class="cls-7" points="1276.78 416.18 1299.58 455.67 1276.78 495.15 1231.18 495.15 1208.38 455.67 1231.18 416.18 1276.78 416.18"/><polygon class="cls-7" points="1203.28 373.68 1226.08 413.17 1203.28 452.65 1157.68 452.65 1134.88 413.17 1157.68 373.68 1203.28 373.68"/><polygon class="cls-7" points="1203.28 289.35 1226.08 328.83 1203.28 368.32 1157.68 368.32 1134.88 328.83 1157.68 289.35 1203.28 289.35"/><polygon class="cls-7" points="1276.78 669.18 1299.58 708.67 1276.78 748.15 1231.18 748.15 1208.38 708.67 1231.18 669.18 1276.78 669.18"/><polygon class="cls-7" points="1276.78 753.51 1299.58 793 1276.78 832.49 1231.18 832.49 1208.38 793 1231.18 753.51 1276.78 753.51"/><polygon class="cls-7" points="1276.78 584.85 1299.58 624.33 1276.78 663.82 1231.18 663.82 1208.38 624.33 1231.18 584.85 1276.78 584.85"/><polygon class="cls-7" points="1203.28 711.01 1226.08 750.5 1203.28 789.99 1157.68 789.99 1134.88 750.5 1157.68 711.01 1203.28 711.01"/><polygon class="cls-7" points="1203.28 626.68 1226.08 666.17 1203.28 705.65 1157.68 705.65 1134.88 666.17 1157.68 626.68 1203.28 626.68"/><polygon class="cls-12" points="1276.78 837.85 1299.58 877.33 1276.78 916.82 1231.18 916.82 1208.38 877.33 1231.18 837.85 1276.78 837.85"/><polygon class="cls-7" points="1276.78 922.18 1299.58 961.67 1276.78 1001.15 1231.18 1001.15 1208.38 961.67 1231.18 922.18 1276.78 922.18"/><polygon class="cls-7" points="1203.28 879.68 1226.08 919.17 1203.28 958.65 1157.68 958.65 1134.88 919.17 1157.68 879.68 1203.28 879.68"/><polygon class="cls-7" points="1203.28 795.35 1226.08 834.83 1203.28 874.32 1157.68 874.32 1134.88 834.83 1157.68 795.35 1203.28 795.35"/><polygon class="cls-7" points="1276.78 1006.5 1299.58 1045.98 1276.78 1085.47 1231.18 1085.47 1208.38 1045.98 1231.18 1006.5 1276.78 1006.5"/><polygon class="cls-7" points="1203.28 1048.33 1226.08 1087.82 1203.28 1127.31 1157.68 1127.31 1134.88 1087.82 1157.68 1048.33 1203.28 1048.33"/><polygon class="cls-7" points="1203.28 964 1226.08 1003.48 1203.28 1042.97 1157.68 1042.97 1134.88 1003.48 1157.68 964 1203.28 964"/><polygon class="cls-7" points="1276.78 500.51 1299.58 540 1276.78 579.49 1231.18 579.49 1208.38 540 1231.18 500.51 1276.78 500.51"/><polygon class="cls-7" points="1203.28 542.35 1226.08 581.83 1203.28 621.32 1157.68 621.32 1134.88 581.83 1157.68 542.35 1203.28 542.35"/><polygon class="cls-7" points="1203.28 458.01 1226.08 497.5 1203.28 536.99 1157.68 536.99 1134.88 497.5 1157.68 458.01 1203.28 458.01"/><polygon class="cls-11" points="1129.78 -5.47 1152.58 34.02 1129.78 73.5 1084.19 73.5 1061.39 34.02 1084.19 -5.47 1129.78 -5.47"/><polygon class="cls-11" points="1129.78 78.86 1152.58 118.35 1129.78 157.84 1084.19 157.84 1061.39 118.35 1084.19 78.86 1129.78 78.86"/><polygon class="cls-10" points="1056.28 36.36 1079.08 75.85 1056.28 115.34 1010.69 115.34 987.89 75.85 1010.69 36.36 1056.28 36.36"/><polygon class="cls-11" points="1056.28 -47.97 1079.08 -8.48 1056.28 31 1010.69 31 987.89 -8.48 1010.69 -47.97 1056.28 -47.97"/><polygon class="cls-7" points="1129.78 163.19 1152.58 202.68 1129.78 242.17 1084.19 242.17 1061.39 202.68 1084.19 163.19 1129.78 163.19"/><polygon class="cls-7" points="1129.78 247.53 1152.58 287.02 1129.78 326.5 1084.19 326.5 1061.39 287.02 1084.19 247.53 1129.78 247.53"/><polygon class="cls-7" points="1056.28 205.03 1079.08 244.52 1056.28 284 1010.69 284 987.89 244.52 1010.69 205.03 1056.28 205.03"/><polygon class="cls-7" points="1056.28 120.69 1079.08 160.18 1056.28 199.67 1010.69 199.67 987.89 160.18 1010.69 120.69 1056.28 120.69"/><polygon class="cls-7" points="1129.78 331.85 1152.58 371.33 1129.78 410.82 1084.19 410.82 1061.39 371.33 1084.19 331.85 1129.78 331.85"/><polygon class="cls-7" points="1129.78 416.18 1152.58 455.67 1129.78 495.15 1084.19 495.15 1061.39 455.67 1084.19 416.18 1129.78 416.18"/><polygon class="cls-7" points="1056.28 373.68 1079.08 413.17 1056.28 452.65 1010.69 452.65 987.89 413.17 1010.69 373.68 1056.28 373.68"/><polygon class="cls-7" points="1056.28 289.35 1079.08 328.83 1056.28 368.32 1010.69 368.32 987.89 328.83 1010.69 289.35 1056.28 289.35"/><polygon class="cls-7" points="1129.78 669.18 1152.58 708.67 1129.78 748.15 1084.19 748.15 1061.39 708.67 1084.19 669.18 1129.78 669.18"/><polygon class="cls-7" points="1129.78 753.51 1152.58 793 1129.78 832.49 1084.19 832.49 1061.39 793 1084.19 753.51 1129.78 753.51"/><polygon class="cls-7" points="1129.78 584.85 1152.58 624.33 1129.78 663.82 1084.19 663.82 1061.39 624.33 1084.19 584.85 1129.78 584.85"/><polygon class="cls-7" points="1056.28 711.01 1079.08 750.5 1056.28 789.99 1010.69 789.99 987.89 750.5 1010.69 711.01 1056.28 711.01"/><polygon class="cls-7" points="1056.28 626.68 1079.08 666.17 1056.28 705.65 1010.69 705.65 987.89 666.17 1010.69 626.68 1056.28 626.68"/><polygon class="cls-7" points="1129.78 837.85 1152.58 877.33 1129.78 916.82 1084.19 916.82 1061.39 877.33 1084.19 837.85 1129.78 837.85"/><polygon class="cls-7" points="1129.78 922.18 1152.58 961.67 1129.78 1001.15 1084.19 1001.15 1061.39 961.67 1084.19 922.18 1129.78 922.18"/><polygon class="cls-7" points="1056.28 879.68 1079.08 919.17 1056.28 958.65 1010.69 958.65 987.89 919.17 1010.69 879.68 1056.28 879.68"/><polygon class="cls-7" points="1056.28 795.35 1079.08 834.83 1056.28 874.32 1010.69 874.32 987.89 834.83 1010.69 795.35 1056.28 795.35"/><polygon class="cls-7" points="1129.78 1006.5 1152.58 1045.98 1129.78 1085.47 1084.19 1085.47 1061.39 1045.98 1084.19 1006.5 1129.78 1006.5"/><polygon class="cls-7" points="1056.28 1048.33 1079.08 1087.82 1056.28 1127.31 1010.69 1127.31 987.89 1087.82 1010.69 1048.33 1056.28 1048.33"/><polygon class="cls-7" points="1056.28 964 1079.08 1003.48 1056.28 1042.97 1010.69 1042.97 987.89 1003.48 1010.69 964 1056.28 964"/><polygon class="cls-7" points="1129.78 500.51 1152.58 540 1129.78 579.49 1084.19 579.49 1061.39 540 1084.19 500.51 1129.78 500.51"/><polygon class="cls-7" points="1056.28 542.35 1079.08 581.83 1056.28 621.32 1010.69 621.32 987.89 581.83 1010.69 542.35 1056.28 542.35"/><polygon class="cls-7" points="1056.28 458.01 1079.08 497.5 1056.28 536.99 1010.69 536.99 987.89 497.5 1010.69 458.01 1056.28 458.01"/><polygon class="cls-10" points="982.78 -5.47 1005.58 34.02 982.78 73.5 937.19 73.5 914.39 34.02 937.19 -5.47 982.78 -5.47"/><polygon class="cls-7" points="982.78 78.86 1005.58 118.35 982.78 157.84 937.19 157.84 914.39 118.35 937.19 78.86 982.78 78.86"/><polygon class="cls-11" points="909.28 36.36 932.08 75.85 909.28 115.34 863.69 115.34 840.89 75.85 863.69 36.36 909.28 36.36"/><polygon class="cls-7" points="909.28 -47.97 932.08 -8.48 909.28 31 863.69 31 840.89 -8.48 863.69 -47.97 909.28 -47.97"/><polygon class="cls-7" points="982.78 163.19 1005.58 202.68 982.78 242.17 937.19 242.17 914.39 202.68 937.19 163.19 982.78 163.19"/><polygon class="cls-7" points="982.78 247.53 1005.58 287.02 982.78 326.5 937.19 326.5 914.39 287.02 937.19 247.53 982.78 247.53"/><polygon class="cls-7" points="909.28 205.03 932.08 244.52 909.28 284 863.69 284 840.89 244.52 863.69 205.03 909.28 205.03"/><polygon class="cls-7" points="909.28 120.69 932.08 160.18 909.28 199.67 863.69 199.67 840.89 160.18 863.69 120.69 909.28 120.69"/><polygon class="cls-7" points="982.78 331.85 1005.58 371.33 982.78 410.82 937.19 410.82 914.39 371.33 937.19 331.85 982.78 331.85"/><polygon class="cls-7" points="982.78 416.18 1005.58 455.67 982.78 495.15 937.19 495.15 914.39 455.67 937.19 416.18 982.78 416.18"/><polygon class="cls-7" points="909.28 373.68 932.08 413.17 909.28 452.65 863.69 452.65 840.89 413.17 863.69 373.68 909.28 373.68"/><polygon class="cls-7" points="909.28 289.35 932.08 328.83 909.28 368.32 863.69 368.32 840.89 328.83 863.69 289.35 909.28 289.35"/><polygon class="cls-7" points="982.78 669.18 1005.58 708.67 982.78 748.15 937.19 748.15 914.39 708.67 937.19 669.18 982.78 669.18"/><polygon class="cls-7" points="982.78 753.51 1005.58 793 982.78 832.49 937.19 832.49 914.39 793 937.19 753.51 982.78 753.51"/><polygon class="cls-7" points="982.78 584.85 1005.58 624.33 982.78 663.82 937.19 663.82 914.39 624.33 937.19 584.85 982.78 584.85"/><polygon class="cls-7" points="909.28 711.01 932.08 750.5 909.28 789.99 863.69 789.99 840.89 750.5 863.69 711.01 909.28 711.01"/><polygon class="cls-7" points="909.28 626.68 932.08 666.17 909.28 705.65 863.69 705.65 840.89 666.17 863.69 626.68 909.28 626.68"/><polygon class="cls-7" points="982.78 837.85 1005.58 877.33 982.78 916.82 937.19 916.82 914.39 877.33 937.19 837.85 982.78 837.85"/><polygon class="cls-7" points="982.78 922.18 1005.58 961.67 982.78 1001.15 937.19 1001.15 914.39 961.67 937.19 922.18 982.78 922.18"/><polygon class="cls-7" points="909.28 879.68 932.08 919.17 909.28 958.65 863.69 958.65 840.89 919.17 863.69 879.68 909.28 879.68"/><polygon class="cls-7" points="909.28 795.35 932.08 834.83 909.28 874.32 863.69 874.32 840.89 834.83 863.69 795.35 909.28 795.35"/><polygon class="cls-7" points="982.78 1006.5 1005.58 1045.98 982.78 1085.47 937.19 1085.47 914.39 1045.98 937.19 1006.5 982.78 1006.5"/><polygon class="cls-7" points="909.28 1048.33 932.08 1087.82 909.28 1127.31 863.69 1127.31 840.89 1087.82 863.69 1048.33 909.28 1048.33"/><polygon class="cls-7" points="909.28 964 932.08 1003.48 909.28 1042.97 863.69 1042.97 840.89 1003.48 863.69 964 909.28 964"/><polygon class="cls-7" points="982.78 500.51 1005.58 540 982.78 579.49 937.19 579.49 914.39 540 937.19 500.51 982.78 500.51"/><polygon class="cls-7" points="909.28 542.35 932.08 581.83 909.28 621.32 863.69 621.32 840.89 581.83 863.69 542.35 909.28 542.35"/><polygon class="cls-7" points="909.28 458.01 932.08 497.5 909.28 536.99 863.69 536.99 840.89 497.5 863.69 458.01 909.28 458.01"/><polygon class="cls-7" points="835.81 -5.47 858.61 34.02 835.81 73.5 790.22 73.5 767.42 34.02 790.22 -5.47 835.81 -5.47"/><polygon class="cls-7" points="835.81 78.86 858.61 118.35 835.81 157.84 790.22 157.84 767.42 118.35 790.22 78.86 835.81 78.86"/><polygon class="cls-7" points="762.31 36.36 785.11 75.85 762.31 115.34 716.72 115.34 693.92 75.85 716.72 36.36 762.31 36.36"/><polygon class="cls-7" points="762.31 -47.97 785.11 -8.48 762.31 31 716.72 31 693.92 -8.48 716.72 -47.97 762.31 -47.97"/><polygon class="cls-7" points="835.81 163.19 858.61 202.68 835.81 242.17 790.22 242.17 767.42 202.68 790.22 163.19 835.81 163.19"/><polygon class="cls-7" points="835.81 247.53 858.61 287.02 835.81 326.5 790.22 326.5 767.42 287.02 790.22 247.53 835.81 247.53"/><polygon class="cls-7" points="762.31 205.03 785.11 244.52 762.31 284 716.72 284 693.92 244.52 716.72 205.03 762.31 205.03"/><polygon class="cls-12" points="762.31 120.69 785.11 160.18 762.31 199.67 716.72 199.67 693.92 160.18 716.72 120.69 762.31 120.69"/><polygon class="cls-7" points="835.81 331.85 858.61 371.33 835.81 410.82 790.22 410.82 767.42 371.33 790.22 331.85 835.81 331.85"/><polygon class="cls-7" points="835.81 416.18 858.61 455.67 835.81 495.15 790.22 495.15 767.42 455.67 790.22 416.18 835.81 416.18"/><polygon class="cls-7" points="762.31 373.68 785.11 413.17 762.31 452.65 716.72 452.65 693.92 413.17 716.72 373.68 762.31 373.68"/><polygon class="cls-7" points="762.31 289.35 785.11 328.83 762.31 368.32 716.72 368.32 693.92 328.83 716.72 289.35 762.31 289.35"/><polygon class="cls-7" points="835.81 669.18 858.61 708.67 835.81 748.15 790.22 748.15 767.42 708.67 790.22 669.18 835.81 669.18"/><polygon class="cls-7" points="835.81 753.51 858.61 793 835.81 832.49 790.22 832.49 767.42 793 790.22 753.51 835.81 753.51"/><polygon class="cls-7" points="835.81 584.85 858.61 624.33 835.81 663.82 790.22 663.82 767.42 624.33 790.22 584.85 835.81 584.85"/><polygon class="cls-12" points="762.31 711.01 785.11 750.5 762.31 789.99 716.72 789.99 693.92 750.5 716.72 711.01 762.31 711.01"/><polygon class="cls-7" points="762.31 626.68 785.11 666.17 762.31 705.65 716.72 705.65 693.92 666.17 716.72 626.68 762.31 626.68"/><polygon class="cls-7" points="835.81 837.85 858.61 877.33 835.81 916.82 790.22 916.82 767.42 877.33 790.22 837.85 835.81 837.85"/><polygon class="cls-7" points="835.81 922.18 858.61 961.67 835.81 1001.15 790.22 1001.15 767.42 961.67 790.22 922.18 835.81 922.18"/><polygon class="cls-7" points="762.31 879.68 785.11 919.17 762.31 958.65 716.72 958.65 693.92 919.17 716.72 879.68 762.31 879.68"/><polygon class="cls-12" points="762.31 795.35 785.11 834.83 762.31 874.32 716.72 874.32 693.92 834.83 716.72 795.35 762.31 795.35"/><polygon class="cls-7" points="835.81 1006.5 858.61 1045.98 835.81 1085.47 790.22 1085.47 767.42 1045.98 790.22 1006.5 835.81 1006.5"/><polygon class="cls-7" points="762.31 1048.33 785.11 1087.82 762.31 1127.31 716.72 1127.31 693.92 1087.82 716.72 1048.33 762.31 1048.33"/><polygon class="cls-7" points="762.31 964 785.11 1003.48 762.31 1042.97 716.72 1042.97 693.92 1003.48 716.72 964 762.31 964"/><polygon class="cls-7" points="835.81 500.51 858.61 540 835.81 579.49 790.22 579.49 767.42 540 790.22 500.51 835.81 500.51"/><polygon class="cls-7" points="762.31 542.35 785.11 581.83 762.31 621.32 716.72 621.32 693.92 581.83 716.72 542.35 762.31 542.35"/><polygon class="cls-7" points="762.31 458.01 785.11 497.5 762.31 536.99 716.72 536.99 693.92 497.5 716.72 458.01 762.31 458.01"/><polygon class="cls-12" points="688.81 -5.47 711.61 34.02 688.81 73.5 643.22 73.5 620.42 34.02 643.22 -5.47 688.81 -5.47"/><polygon class="cls-12" points="688.81 78.86 711.61 118.35 688.81 157.84 643.22 157.84 620.42 118.35 643.22 78.86 688.81 78.86"/><polygon class="cls-7" points="615.31 36.36 638.11 75.85 615.31 115.34 569.72 115.34 546.92 75.85 569.72 36.36 615.31 36.36"/><polygon class="cls-7" points="615.31 -47.97 638.11 -8.48 615.31 31 569.72 31 546.92 -8.48 569.72 -47.97 615.31 -47.97"/><polygon class="cls-7" points="688.81 163.19 711.61 202.68 688.81 242.17 643.22 242.17 620.42 202.68 643.22 163.19 688.81 163.19"/><polygon class="cls-7" points="688.81 247.53 711.61 287.02 688.81 326.5 643.22 326.5 620.42 287.02 643.22 247.53 688.81 247.53"/><polygon class="cls-7" points="615.31 205.03 638.11 244.52 615.31 284 569.72 284 546.92 244.52 569.72 205.03 615.31 205.03"/><polygon class="cls-7" points="615.31 120.69 638.11 160.18 615.31 199.67 569.72 199.67 546.92 160.18 569.72 120.69 615.31 120.69"/><polygon class="cls-7" points="688.81 331.85 711.61 371.33 688.81 410.82 643.22 410.82 620.42 371.33 643.22 331.85 688.81 331.85"/><polygon class="cls-7" points="688.81 416.18 711.61 455.67 688.81 495.15 643.22 495.15 620.42 455.67 643.22 416.18 688.81 416.18"/><polygon class="cls-7" points="615.31 373.68 638.11 413.17 615.31 452.65 569.72 452.65 546.92 413.17 569.72 373.68 615.31 373.68"/><polygon class="cls-7" points="615.31 289.35 638.11 328.83 615.31 368.32 569.72 368.32 546.92 328.83 569.72 289.35 615.31 289.35"/><polygon class="cls-12" points="688.81 669.18 711.61 708.67 688.81 748.15 643.22 748.15 620.42 708.67 643.22 669.18 688.81 669.18"/><polygon class="cls-12" points="688.81 753.51 711.61 793 688.81 832.49 643.22 832.49 620.42 793 643.22 753.51 688.81 753.51"/><polygon class="cls-12" points="688.81 584.85 711.61 624.33 688.81 663.82 643.22 663.82 620.42 624.33 643.22 584.85 688.81 584.85"/><polygon class="cls-12" points="615.31 711.01 638.11 750.5 615.31 789.99 569.72 789.99 546.92 750.5 569.72 711.01 615.31 711.01"/><polygon class="cls-12" points="615.31 626.68 638.11 666.17 615.31 705.65 569.72 705.65 546.92 666.17 569.72 626.68 615.31 626.68"/><polygon class="cls-12" points="688.81 837.85 711.61 877.33 688.81 916.82 643.22 916.82 620.42 877.33 643.22 837.85 688.81 837.85"/><polygon class="cls-7" points="688.81 922.18 711.61 961.67 688.81 1001.15 643.22 1001.15 620.42 961.67 643.22 922.18 688.81 922.18"/><polygon class="cls-7" points="615.31 879.68 638.11 919.17 615.31 958.65 569.72 958.65 546.92 919.17 569.72 879.68 615.31 879.68"/><polygon class="cls-7" points="615.31 795.35 638.11 834.83 615.31 874.32 569.72 874.32 546.92 834.83 569.72 795.35 615.31 795.35"/><polygon class="cls-7" points="688.81 1006.5 711.61 1045.98 688.81 1085.47 643.22 1085.47 620.42 1045.98 643.22 1006.5 688.81 1006.5"/><polygon class="cls-11" points="615.31 1048.33 638.11 1087.82 615.31 1127.31 569.72 1127.31 546.92 1087.82 569.72 1048.33 615.31 1048.33"/><polygon class="cls-11" points="615.31 964 638.11 1003.48 615.31 1042.97 569.72 1042.97 546.92 1003.48 569.72 964 615.31 964"/><polygon class="cls-7" points="688.81 500.51 711.61 540 688.81 579.49 643.22 579.49 620.42 540 643.22 500.51 688.81 500.51"/><polygon class="cls-12" points="615.31 542.35 638.11 581.83 615.31 621.32 569.72 621.32 546.92 581.83 569.72 542.35 615.31 542.35"/><polygon class="cls-7" points="615.31 458.01 638.11 497.5 615.31 536.99 569.72 536.99 546.92 497.5 569.72 458.01 615.31 458.01"/><polygon class="cls-7" points="541.82 -5.47 564.62 34.02 541.82 73.5 496.22 73.5 473.42 34.02 496.22 -5.47 541.82 -5.47"/><polygon class="cls-10" points="541.82 78.86 564.62 118.35 541.82 157.84 496.22 157.84 473.42 118.35 496.22 78.86 541.82 78.86"/><polygon class="cls-11" points="468.32 36.36 491.12 75.85 468.32 115.34 422.72 115.34 399.92 75.85 422.72 36.36 468.32 36.36"/><polygon class="cls-7" points="468.32 -47.97 491.12 -8.48 468.32 31 422.72 31 399.92 -8.48 422.72 -47.97 468.32 -47.97"/><polygon class="cls-7" points="541.82 163.19 564.62 202.68 541.82 242.17 496.22 242.17 473.42 202.68 496.22 163.19 541.82 163.19"/><polygon class="cls-7" points="541.82 247.53 564.62 287.02 541.82 326.5 496.22 326.5 473.42 287.02 496.22 247.53 541.82 247.53"/><polygon class="cls-11" points="468.32 205.03 491.12 244.52 468.32 284 422.72 284 399.92 244.52 422.72 205.03 468.32 205.03"/><polygon class="cls-10" points="468.32 120.69 491.12 160.18 468.32 199.67 422.72 199.67 399.92 160.18 422.72 120.69 468.32 120.69"/><polygon class="cls-11" points="541.82 331.85 564.62 371.33 541.82 410.82 496.22 410.82 473.42 371.33 496.22 331.85 541.82 331.85"/><polygon class="cls-7" points="541.82 416.18 564.62 455.67 541.82 495.15 496.22 495.15 473.42 455.67 496.22 416.18 541.82 416.18"/><polygon class="cls-11" points="468.32 373.68 491.12 413.17 468.32 452.65 422.72 452.65 399.92 413.17 422.72 373.68 468.32 373.68"/><polygon class="cls-7" points="468.32 289.35 491.12 328.83 468.32 368.32 422.72 368.32 399.92 328.83 422.72 289.35 468.32 289.35"/><polygon class="cls-7" points="541.82 669.18 564.62 708.67 541.82 748.15 496.22 748.15 473.42 708.67 496.22 669.18 541.82 669.18"/><polygon class="cls-7" points="541.82 753.51 564.62 793 541.82 832.49 496.22 832.49 473.42 793 496.22 753.51 541.82 753.51"/><polygon class="cls-7" points="541.82 584.85 564.62 624.33 541.82 663.82 496.22 663.82 473.42 624.33 496.22 584.85 541.82 584.85"/><polygon class="cls-8" points="468.32 711.01 491.12 750.5 468.32 789.99 422.72 789.99 399.92 750.5 422.72 711.01 468.32 711.01"/><polygon class="cls-11" points="468.32 626.68 491.12 666.17 468.32 705.65 422.72 705.65 399.92 666.17 422.72 626.68 468.32 626.68"/><polygon class="cls-7" points="541.82 837.85 564.62 877.33 541.82 916.82 496.22 916.82 473.42 877.33 496.22 837.85 541.82 837.85"/><polygon class="cls-11" points="541.82 922.18 564.62 961.67 541.82 1001.15 496.22 1001.15 473.42 961.67 496.22 922.18 541.82 922.18"/><polygon class="cls-7" points="468.32 879.68 491.12 919.17 468.32 958.65 422.72 958.65 399.92 919.17 422.72 879.68 468.32 879.68"/><polygon class="cls-8" points="468.32 795.35 491.12 834.83 468.32 874.32 422.72 874.32 399.92 834.83 422.72 795.35 468.32 795.35"/><polygon class="cls-11" points="541.82 1006.5 564.62 1045.98 541.82 1085.47 496.22 1085.47 473.42 1045.98 496.22 1006.5 541.82 1006.5"/><polygon class="cls-7" points="468.32 1048.33 491.12 1087.82 468.32 1127.31 422.72 1127.31 399.92 1087.82 422.72 1048.33 468.32 1048.33"/><polygon class="cls-11" points="468.32 964 491.12 1003.48 468.32 1042.97 422.72 1042.97 399.92 1003.48 422.72 964 468.32 964"/><polygon class="cls-7" points="541.82 500.51 564.62 540 541.82 579.49 496.22 579.49 473.42 540 496.22 500.51 541.82 500.51"/><polygon class="cls-7" points="468.32 542.35 491.12 581.83 468.32 621.32 422.72 621.32 399.92 581.83 422.72 542.35 468.32 542.35"/><polygon class="cls-7" points="468.32 458.01 491.12 497.5 468.32 536.99 422.72 536.99 399.92 497.5 422.72 458.01 468.32 458.01"/><polygon class="cls-8" points="394.82 -5.47 417.62 34.02 394.82 73.5 349.22 73.5 326.42 34.02 349.22 -5.47 394.82 -5.47"/><polygon class="cls-11" points="394.82 78.86 417.62 118.35 394.82 157.84 349.22 157.84 326.42 118.35 349.22 78.86 394.82 78.86"/><polygon class="cls-8" points="321.32 36.36 344.12 75.85 321.32 115.34 275.72 115.34 252.92 75.85 275.72 36.36 321.32 36.36"/><polygon class="cls-7" points="321.32 -47.97 344.12 -8.48 321.32 31 275.72 31 252.92 -8.48 275.72 -47.97 321.32 -47.97"/><polygon class="cls-11" points="394.82 163.19 417.62 202.68 394.82 242.17 349.22 242.17 326.42 202.68 349.22 163.19 394.82 163.19"/><polygon class="cls-7" points="394.82 247.53 417.62 287.02 394.82 326.5 349.22 326.5 326.42 287.02 349.22 247.53 394.82 247.53"/><polygon class="cls-8" points="321.32 205.03 344.12 244.52 321.32 284 275.72 284 252.92 244.52 275.72 205.03 321.32 205.03"/><polygon class="cls-11" points="321.32 120.69 344.12 160.18 321.32 199.67 275.72 199.67 252.92 160.18 275.72 120.69 321.32 120.69"/><polygon class="cls-8" points="394.82 331.85 417.62 371.33 394.82 410.82 349.22 410.82 326.42 371.33 349.22 331.85 394.82 331.85"/><polygon class="cls-11" points="394.82 416.18 417.62 455.67 394.82 495.15 349.22 495.15 326.42 455.67 349.22 416.18 394.82 416.18"/><polygon class="cls-11" points="321.32 373.68 344.12 413.17 321.32 452.65 275.72 452.65 252.92 413.17 275.72 373.68 321.32 373.68"/><polygon class="cls-10" points="321.32 289.35 344.12 328.83 321.32 368.32 275.72 368.32 252.92 328.83 275.72 289.35 321.32 289.35"/><polygon class="cls-11" points="394.82 669.18 417.62 708.67 394.82 748.15 349.22 748.15 326.42 708.67 349.22 669.18 394.82 669.18"/><polygon class="cls-10" points="394.82 753.51 417.62 793 394.82 832.49 349.22 832.49 326.42 793 349.22 753.51 394.82 753.51"/><polygon class="cls-11" points="394.82 584.85 417.62 624.33 394.82 663.82 349.22 663.82 326.42 624.33 349.22 584.85 394.82 584.85"/><polygon class="cls-11" points="321.32 711.01 344.12 750.5 321.32 789.99 275.72 789.99 252.92 750.5 275.72 711.01 321.32 711.01"/><polygon class="cls-8" points="321.32 626.68 344.12 666.17 321.32 705.65 275.72 705.65 252.92 666.17 275.72 626.68 321.32 626.68"/><polygon class="cls-8" points="394.82 837.85 417.62 877.33 394.82 916.82 349.22 916.82 326.42 877.33 349.22 837.85 394.82 837.85"/><polygon class="cls-8" points="394.82 922.18 417.62 961.67 394.82 1001.15 349.22 1001.15 326.42 961.67 349.22 922.18 394.82 922.18"/><polygon class="cls-8" points="321.32 879.68 344.12 919.17 321.32 958.65 275.72 958.65 252.92 919.17 275.72 879.68 321.32 879.68"/><polygon class="cls-11" points="321.32 795.35 344.12 834.83 321.32 874.32 275.72 874.32 252.92 834.83 275.72 795.35 321.32 795.35"/><polygon class="cls-11" points="394.82 1006.5 417.62 1045.98 394.82 1085.47 349.22 1085.47 326.42 1045.98 349.22 1006.5 394.82 1006.5"/><polygon class="cls-8" points="321.32 1048.33 344.12 1087.82 321.32 1127.31 275.72 1127.31 252.92 1087.82 275.72 1048.33 321.32 1048.33"/><polygon class="cls-11" points="321.32 964 344.12 1003.48 321.32 1042.97 275.72 1042.97 252.92 1003.48 275.72 964 321.32 964"/><polygon class="cls-8" points="394.82 500.51 417.62 540 394.82 579.49 349.22 579.49 326.42 540 349.22 500.51 394.82 500.51"/><polygon class="cls-11" points="321.32 542.35 344.12 581.83 321.32 621.32 275.72 621.32 252.92 581.83 275.72 542.35 321.32 542.35"/><polygon class="cls-11" points="321.32 458.01 344.12 497.5 321.32 536.99 275.72 536.99 252.92 497.5 275.72 458.01 321.32 458.01"/><polygon class="cls-8" points="247.85 -5.47 270.65 34.02 247.85 73.5 202.25 73.5 179.45 34.02 202.25 -5.47 247.85 -5.47"/><polygon class="cls-8" points="247.85 78.86 270.65 118.35 247.85 157.84 202.25 157.84 179.45 118.35 202.25 78.86 247.85 78.86"/><polygon class="cls-8" points="174.35 36.36 197.15 75.85 174.35 115.34 128.75 115.34 105.95 75.85 128.75 36.36 174.35 36.36"/><polygon class="cls-8" points="174.35 -47.97 197.15 -8.48 174.35 31 128.75 31 105.95 -8.48 128.75 -47.97 174.35 -47.97"/><polygon class="cls-8" points="247.85 163.19 270.65 202.68 247.85 242.17 202.25 242.17 179.45 202.68 202.25 163.19 247.85 163.19"/><polygon class="cls-11" points="247.85 247.53 270.65 287.02 247.85 326.5 202.25 326.5 179.45 287.02 202.25 247.53 247.85 247.53"/><polygon class="cls-8" points="174.35 205.03 197.15 244.52 174.35 284 128.75 284 105.95 244.52 128.75 205.03 174.35 205.03"/><polygon class="cls-8" points="174.35 120.69 197.15 160.18 174.35 199.67 128.75 199.67 105.95 160.18 128.75 120.69 174.35 120.69"/><polygon class="cls-11" points="247.85 331.85 270.65 371.33 247.85 410.82 202.25 410.82 179.45 371.33 202.25 331.85 247.85 331.85"/><polygon class="cls-8" points="247.85 416.18 270.65 455.67 247.85 495.15 202.25 495.15 179.45 455.67 202.25 416.18 247.85 416.18"/><polygon class="cls-8" points="174.35 373.68 197.15 413.17 174.35 452.65 128.75 452.65 105.95 413.17 128.75 373.68 174.35 373.68"/><polygon class="cls-11" points="174.35 289.35 197.15 328.83 174.35 368.32 128.75 368.32 105.95 328.83 128.75 289.35 174.35 289.35"/><polygon class="cls-8" points="247.85 669.18 270.65 708.67 247.85 748.15 202.25 748.15 179.45 708.67 202.25 669.18 247.85 669.18"/><polygon class="cls-10" points="247.85 753.51 270.65 793 247.85 832.49 202.25 832.49 179.45 793 202.25 753.51 247.85 753.51"/><polygon class="cls-8" points="247.85 584.85 270.65 624.33 247.85 663.82 202.25 663.82 179.45 624.33 202.25 584.85 247.85 584.85"/><polygon class="cls-12" points="174.35 711.01 197.15 750.5 174.35 789.99 128.75 789.99 105.95 750.5 128.75 711.01 174.35 711.01"/><polygon class="cls-8" points="174.35 626.68 197.15 666.17 174.35 705.65 128.75 705.65 105.95 666.17 128.75 626.68 174.35 626.68"/><polygon class="cls-11" points="247.85 837.85 270.65 877.33 247.85 916.82 202.25 916.82 179.45 877.33 202.25 837.85 247.85 837.85"/><polygon class="cls-8" points="247.85 922.18 270.65 961.67 247.85 1001.15 202.25 1001.15 179.45 961.67 202.25 922.18 247.85 922.18"/><polygon class="cls-8" points="174.35 879.68 197.15 919.17 174.35 958.65 128.75 958.65 105.95 919.17 128.75 879.68 174.35 879.68"/><polygon class="cls-8" points="174.35 795.35 197.15 834.83 174.35 874.32 128.75 874.32 105.95 834.83 128.75 795.35 174.35 795.35"/><polygon class="cls-8" points="247.85 1006.5 270.65 1045.98 247.85 1085.47 202.25 1085.47 179.45 1045.98 202.25 1006.5 247.85 1006.5"/><polygon class="cls-8" points="174.35 1048.33 197.15 1087.82 174.35 1127.31 128.75 1127.31 105.95 1087.82 128.75 1048.33 174.35 1048.33"/><polygon class="cls-8" points="174.35 964 197.15 1003.48 174.35 1042.97 128.75 1042.97 105.95 1003.48 128.75 964 174.35 964"/><polygon class="cls-11" points="247.85 500.51 270.65 540 247.85 579.49 202.25 579.49 179.45 540 202.25 500.51 247.85 500.51"/><polygon class="cls-8" points="174.35 542.35 197.15 581.83 174.35 621.32 128.75 621.32 105.95 581.83 128.75 542.35 174.35 542.35"/><polygon class="cls-8" points="174.35 458.01 197.15 497.5 174.35 536.99 128.75 536.99 105.95 497.5 128.75 458.01 174.35 458.01"/><polygon class="cls-8" points="100.85 -5.47 123.65 34.02 100.85 73.5 55.25 73.5 32.45 34.02 55.25 -5.47 100.85 -5.47"/><polygon class="cls-9" points="100.85 78.86 123.65 118.35 100.85 157.84 55.25 157.84 32.45 118.35 55.25 78.86 100.85 78.86"/><polygon class="cls-8" points="27.35 36.36 50.15 75.85 27.35 115.34 -18.25 115.34 -41.05 75.85 -18.25 36.36 27.35 36.36"/><polygon class="cls-8" points="27.35 -47.97 50.15 -8.48 27.35 31 -18.25 31 -41.05 -8.48 -18.25 -47.97 27.35 -47.97"/><polygon class="cls-9" points="100.85 163.19 123.65 202.68 100.85 242.17 55.25 242.17 32.45 202.68 55.25 163.19 100.85 163.19"/><polygon class="cls-8" points="100.85 247.53 123.65 287.02 100.85 326.5 55.25 326.5 32.45 287.02 55.25 247.53 100.85 247.53"/><polygon class="cls-8" points="27.35 205.03 50.15 244.52 27.35 284 -18.25 284 -41.05 244.52 -18.25 205.03 27.35 205.03"/><polygon class="cls-9" points="27.35 120.69 50.15 160.18 27.35 199.67 -18.25 199.67 -41.05 160.18 -18.25 120.69 27.35 120.69"/><polygon class="cls-9" points="100.85 331.85 123.65 371.33 100.85 410.82 55.25 410.82 32.45 371.33 55.25 331.85 100.85 331.85"/><polygon class="cls-9" points="100.85 416.18 123.65 455.67 100.85 495.15 55.25 495.15 32.45 455.67 55.25 416.18 100.85 416.18"/><polygon class="cls-9" points="27.35 373.68 50.15 413.17 27.35 452.65 -18.25 452.65 -41.05 413.17 -18.25 373.68 27.35 373.68"/><polygon class="cls-8" points="27.35 289.35 50.15 328.83 27.35 368.32 -18.25 368.32 -41.05 328.83 -18.25 289.35 27.35 289.35"/><polygon class="cls-9" points="100.85 669.18 123.65 708.67 100.85 748.15 55.25 748.15 32.45 708.67 55.25 669.18 100.85 669.18"/><polygon class="cls-9" points="100.85 753.51 123.65 793 100.85 832.49 55.25 832.49 32.45 793 55.25 753.51 100.85 753.51"/><polygon class="cls-8" points="100.85 584.85 123.65 624.33 100.85 663.82 55.25 663.82 32.45 624.33 55.25 584.85 100.85 584.85"/><polygon class="cls-9" points="27.35 711.01 50.15 750.5 27.35 789.99 -18.25 789.99 -41.05 750.5 -18.25 711.01 27.35 711.01"/><polygon class="cls-8" points="27.35 626.68 50.15 666.17 27.35 705.65 -18.25 705.65 -41.05 666.17 -18.25 626.68 27.35 626.68"/><polygon class="cls-9" points="100.85 837.85 123.65 877.33 100.85 916.82 55.25 916.82 32.45 877.33 55.25 837.85 100.85 837.85"/><polygon class="cls-8" points="100.85 922.18 123.65 961.67 100.85 1001.15 55.25 1001.15 32.45 961.67 55.25 922.18 100.85 922.18"/><polygon class="cls-9" points="27.35 879.68 50.15 919.17 27.35 958.65 -18.25 958.65 -41.05 919.17 -18.25 879.68 27.35 879.68"/><polygon class="cls-9" points="27.35 795.35 50.15 834.83 27.35 874.32 -18.25 874.32 -41.05 834.83 -18.25 795.35 27.35 795.35"/><polygon class="cls-9" points="100.85 1006.5 123.65 1045.98 100.85 1085.47 55.25 1085.47 32.45 1045.98 55.25 1006.5 100.85 1006.5"/><polygon class="cls-9" points="27.35 1048.33 50.15 1087.82 27.35 1127.31 -18.25 1127.31 -41.05 1087.82 -18.25 1048.33 27.35 1048.33"/><polygon class="cls-9" points="27.35 964 50.15 1003.48 27.35 1042.97 -18.25 1042.97 -41.05 1003.48 -18.25 964 27.35 964"/><polygon class="cls-8" points="100.85 500.51 123.65 540 100.85 579.49 55.25 579.49 32.45 540 55.25 500.51 100.85 500.51"/><polygon class="cls-8" points="27.35 542.35 50.15 581.83 27.35 621.32 -18.25 621.32 -41.05 581.83 -18.25 542.35 27.35 542.35"/><polygon class="cls-9" points="27.35 458.01 50.15 497.5 27.35 536.99 -18.25 536.99 -41.05 497.5 -18.25 458.01 27.35 458.01"/></g></g></g></g></g></svg>