<svg id="Layer_1" data-name="Layer 1" xmlns="http://www.w3.org/2000/svg" viewBox="0 0 1440 420"><defs><style>.cls-1{fill:#e7ebef;}.cls-2{opacity:0.3;}.cls-3{fill:#d6d6d6;}.cls-4{fill:#dadada;}.cls-5{fill:#d9d9d9;}.cls-6{fill:#dedede;}.cls-7{fill:#ccc;}</style></defs><title>Background</title><rect class="cls-1" width="1440" height="420"/><g class="cls-2"><polygon class="cls-3" points="1384.75 227.31 1407.55 266.79 1384.75 306.28 1339.15 306.28 1316.35 266.79 1339.15 227.31 1384.75 227.31"/><polygon class="cls-4" points="1384.75 311.64 1407.55 351.13 1384.75 390.62 1339.15 390.62 1316.35 351.13 1339.15 311.64 1384.75 311.64"/><polygon class="cls-4" points="1440 348.12 1412.65 348.12 1389.85 308.63 1412.65 269.14 1440 269.14 1440 348.12"/><polygon class="cls-5" points="55.25 150.19 32.45 110.71 55.25 71.22 100.85 71.22 123.65 110.71 100.85 150.19 55.25 150.19"/><polygon class="cls-6" points="0 113.72 27.35 113.72 50.15 153.21 27.35 192.69 0 192.69 0 113.72"/><polygon class="cls-7" points="0 29.39 27.35 29.39 50.15 68.87 27.35 108.36 0 108.36 0 29.39"/></g></svg>