<svg id="Layer_1" data-name="Layer 1" xmlns="http://www.w3.org/2000/svg" xmlns:xlink="http://www.w3.org/1999/xlink" viewBox="0 0 123.65 163.31"><defs><style>.cls-1{fill:none;}.cls-2{clip-path:url(#clip-path);}.cls-3{clip-path:url(#clip-path-2);}.cls-4{fill:url(#radial-gradient);}.cls-5{fill:#d9d9d9;}.cls-6{fill:#dedede;}.cls-7{fill:#ccc;}</style><clipPath id="clip-path"><polyline class="cls-1" points="125.67 -938.21 270 -854.87 270 -688.21 125.67 -604.87 -18.67 -688.21 -18.67 -854.87 125.67 -938.21"/></clipPath><clipPath id="clip-path-2"><polygon class="cls-1" points="125.67 -936.78 -17.43 -854.16 -17.43 -688.92 125.67 -606.3 268.76 -688.92 268.76 -854.16 125.67 -936.78 125.67 -936.78"/></clipPath><radialGradient id="radial-gradient" cx="1086.4" cy="-399.22" r="1148.85" gradientUnits="userSpaceOnUse"><stop offset="0" stop-color="#fff8da"/><stop offset="0.4" stop-color="#ffe264"/><stop offset="1" stop-color="#fc9200"/></radialGradient></defs><title>bg element left</title><g class="cls-2"><g class="cls-3"><rect class="cls-4" x="-89.72" y="-1060.78" width="2352.22" height="1323.12"/></g></g><polygon class="cls-5" points="55.25 120.81 32.45 81.32 55.25 41.83 100.85 41.83 123.65 81.32 100.85 120.81 55.25 120.81"/><polygon class="cls-6" points="0 84.33 27.35 84.33 50.15 123.82 27.35 163.31 0 163.31 0 84.33"/><polygon class="cls-7" points="0 0 27.35 0 50.15 39.49 27.35 78.98 0 78.98 0 0"/></svg>