<svg id="Layer_1" data-name="Layer 1" xmlns="http://www.w3.org/2000/svg" xmlns:xlink="http://www.w3.org/1999/xlink" viewBox="0 0 123.65 163.31"><defs><style>.cls-1{fill:none;}.cls-2{clip-path:url(#clip-path);}.cls-3{clip-path:url(#clip-path-2);}.cls-4{fill:url(#radial-gradient);}.cls-5{fill:#d6d6d6;}.cls-6{fill:#dadada;}</style><clipPath id="clip-path"><polyline class="cls-1" points="-768.37 -1019.86 -624.03 -936.53 -624.03 -769.86 -768.37 -686.53 -912.71 -769.86 -912.71 -936.53 -768.37 -1019.86"/></clipPath><clipPath id="clip-path-2"><polygon class="cls-1" points="-768.37 -1018.43 -911.47 -935.81 -911.47 -770.58 -768.37 -687.96 -625.27 -770.58 -625.27 -935.81 -768.37 -1018.43 -768.37 -1018.43"/></clipPath><radialGradient id="radial-gradient" cx="192.36" cy="-480.87" r="1148.85" gradientUnits="userSpaceOnUse"><stop offset="0" stop-color="#fff8da"/><stop offset="0.4" stop-color="#ffe264"/><stop offset="1" stop-color="#fc9200"/></radialGradient></defs><title>bg element right</title><g class="cls-2"><g class="cls-3"><rect class="cls-4" x="-983.75" y="-1142.44" width="2352.22" height="1323.12"/></g></g><polygon class="cls-5" points="68.4 0 91.19 39.49 68.4 78.98 22.8 78.98 0 39.49 22.8 0 68.4 0"/><polygon class="cls-6" points="68.4 84.33 91.19 123.82 68.4 163.31 22.8 163.31 0 123.82 22.8 84.33 68.4 84.33"/><polygon class="cls-6" points="123.65 120.81 96.3 120.81 73.5 81.32 96.3 41.83 123.65 41.83 123.65 120.81"/></svg>