<svg id="Layer_1" data-name="Layer 1" xmlns="http://www.w3.org/2000/svg" xmlns:xlink="http://www.w3.org/1999/xlink" viewBox="0 0 190 190"><defs><style>.cls-1,.cls-5,.cls-8{fill:none;}.cls-2{clip-path:url(#clip-path);}.cls-3{clip-path:url(#clip-path-2);}.cls-4{fill:url(#radial-gradient);}.cls-5{stroke:#231f20;stroke-miterlimit:10;stroke-width:5.38px;}.cls-6{fill:#fff;opacity:0.35;}.cls-7{fill:#da602b;}.cls-8{stroke:#da602b;stroke-linecap:round;stroke-linejoin:round;stroke-width:1.77px;stroke-dasharray:5.3;}</style><clipPath id="clip-path"><polyline class="cls-1" points="-474.41 -394.2 -330.07 -310.86 -330.07 -144.19 -474.41 -60.86 -618.75 -144.19 -618.75 -310.86 -474.41 -394.2"/></clipPath><clipPath id="clip-path-2"><polygon class="cls-1" points="-474.41 -392.76 -617.51 -310.15 -617.51 -144.91 -474.41 -62.29 -331.31 -144.91 -331.31 -310.15 -474.41 -392.76 -474.41 -392.76"/></clipPath><radialGradient id="radial-gradient" cx="486.32" cy="144.79" r="1148.85" gradientUnits="userSpaceOnUse"><stop offset="0" stop-color="#fff8da"/><stop offset="0.4" stop-color="#ffe264"/><stop offset="1" stop-color="#fc9200"/></radialGradient></defs><title>borrow 3</title><g class="cls-2"><g class="cls-3"><rect class="cls-4" x="-689.79" y="-516.77" width="2352.22" height="1323.12"/></g></g><polygon class="cls-5" points="64.26 32.86 33.53 50.6 33.53 86.09 64.26 103.84 95 86.09 95 50.6 64.26 32.86 64.26 32.86"/><polygon class="cls-6" points="64.26 42.55 41.92 55.45 41.92 81.25 64.26 94.15 86.61 81.25 86.61 55.45 64.26 42.55 64.26 42.55"/><path class="cls-7" d="M70.49,62l-1.92,2.31A9.61,9.61,0,0,0,66.95,63,4.35,4.35,0,0,0,65,62.56q-.06,1.59-.09,4.74A9.76,9.76,0,0,1,68,69.43a4.93,4.93,0,0,1,1.47,3.39,3.83,3.83,0,0,1-1.65,3.27,6.1,6.1,0,0,1-3.48,1.17q0,.72,0,3H61.4q0-2.52,0-3.24-1.9-.57-3.36-3.45l2.61-1.41a5.89,5.89,0,0,0,1.14,1.71Q62,72,62,69.43q-3.45-1.53-3.45-4a6.33,6.33,0,0,1,1-3.45,4.88,4.88,0,0,1,2.68-2.13q.18-1.95.21-3.36h2.91a28.11,28.11,0,0,1-.15,3.12,6.76,6.76,0,0,1,2.85.63A11.56,11.56,0,0,1,70.49,62Zm-8.43,1.5a2.16,2.16,0,0,0-.57,1.5A1.29,1.29,0,0,0,62,66.07Q62,64.81,62.06,63.46Zm4.47,9.3q0-1.23-1.59-2.1-.06,2-.21,3.54Q66.53,74,66.53,72.76Z"/><line class="cls-8" x1="56.16" y1="68.35" x2="45.23" y2="68.35"/><line class="cls-8" x1="72.37" y1="68.35" x2="83.3" y2="68.35"/><polygon class="cls-5" points="125.74 32.86 95 50.6 95 86.09 125.74 103.84 156.47 86.09 156.47 50.6 125.74 32.86 125.74 32.86"/><polygon class="cls-6" points="125.74 42.55 103.39 55.45 103.39 81.25 125.74 94.15 148.08 81.25 148.08 55.45 125.74 42.55 125.74 42.55"/><path class="cls-7" d="M132,62,130,64.27A9.61,9.61,0,0,0,128.42,63a4.35,4.35,0,0,0-1.95-.42q-.06,1.59-.09,4.74a9.76,9.76,0,0,1,3.09,2.13,4.93,4.93,0,0,1,1.47,3.39,3.83,3.83,0,0,1-1.65,3.27,6.1,6.1,0,0,1-3.48,1.17q0,.72,0,3h-2.94q0-2.52,0-3.24-1.9-.57-3.36-3.45l2.61-1.41a5.89,5.89,0,0,0,1.14,1.71q.18-1.89.21-4.44-3.45-1.53-3.45-4a6.33,6.33,0,0,1,1-3.45,4.88,4.88,0,0,1,2.68-2.13q.18-1.95.21-3.36h2.91a28.11,28.11,0,0,1-.15,3.12,6.76,6.76,0,0,1,2.85.63A11.56,11.56,0,0,1,132,62Zm-8.43,1.5A2.16,2.16,0,0,0,123,65a1.29,1.29,0,0,0,.54,1.11Q123.5,64.81,123.53,63.46Zm4.47,9.3q0-1.23-1.59-2.1-.06,2-.21,3.54Q128,74,128,72.76Z"/><line class="cls-8" x1="117.63" y1="68.35" x2="106.7" y2="68.35"/><line class="cls-8" x1="133.84" y1="68.35" x2="144.77" y2="68.35"/><polygon class="cls-5" points="95 86.16 64.26 103.91 64.26 139.4 95 157.14 125.74 139.4 125.74 103.91 95 86.16 95 86.16"/><polygon class="cls-6" points="95 95.85 72.66 108.75 72.66 134.55 95 147.45 117.34 134.55 117.34 108.75 95 95.85 95 95.85"/><path class="cls-7" d="M101.22,115.26l-1.92,2.31a9.61,9.61,0,0,0-1.62-1.29,4.35,4.35,0,0,0-1.95-.42q-.06,1.59-.09,4.74a9.76,9.76,0,0,1,3.09,2.13,4.93,4.93,0,0,1,1.47,3.39,3.83,3.83,0,0,1-1.65,3.27,6.1,6.1,0,0,1-3.48,1.17q0,.72,0,3H92.14q0-2.52,0-3.24-1.9-.57-3.36-3.45l2.61-1.41a5.89,5.89,0,0,0,1.14,1.71q.18-1.89.21-4.44-3.45-1.53-3.45-4a6.33,6.33,0,0,1,1-3.45A4.88,4.88,0,0,1,93,113.1q.18-1.95.21-3.36h2.91a28.11,28.11,0,0,1-.15,3.12,6.76,6.76,0,0,1,2.85.63A11.56,11.56,0,0,1,101.22,115.26Zm-8.43,1.5a2.16,2.16,0,0,0-.57,1.5,1.29,1.29,0,0,0,.54,1.11Q92.77,118.11,92.8,116.76Zm4.47,9.3q0-1.23-1.59-2.1-.06,2-.21,3.54Q97.26,127.32,97.26,126.06Z"/><line class="cls-8" x1="86.9" y1="121.65" x2="75.97" y2="121.65"/><line class="cls-8" x1="103.1" y1="121.65" x2="114.03" y2="121.65"/></svg>