<svg id="Layer_1" data-name="Layer 1" xmlns="http://www.w3.org/2000/svg" xmlns:xlink="http://www.w3.org/1999/xlink" viewBox="0 0 190 190"><defs><style>.cls-1,.cls-10,.cls-8,.cls-9{fill:none;}.cls-2{clip-path:url(#clip-path);}.cls-3{clip-path:url(#clip-path-2);}.cls-4{fill:url(#radial-gradient);}.cls-5{fill:#fff;opacity:0.35;}.cls-6{fill:#ff8c3c;}.cls-7{font-size:26px;fill:#231f20;font-family:AbscissaBold, Abscissa;font-weight:700;}.cls-8{stroke:#231f20;stroke-miterlimit:10;stroke-width:5.38px;}.cls-10,.cls-9{stroke:#da602b;stroke-linecap:round;stroke-linejoin:round;stroke-width:4px;}.cls-10{stroke-dasharray:10.3 10.3;}</style><clipPath id="clip-path"><polyline class="cls-1" points="-184.43 -386.49 -40.09 -303.15 -40.09 -136.49 -184.43 -53.15 -328.76 -136.49 -328.76 -303.15 -184.43 -386.49"/></clipPath><clipPath id="clip-path-2"><polygon class="cls-1" points="-184.43 -385.06 -327.52 -302.44 -327.52 -137.2 -184.43 -54.58 -41.33 -137.2 -41.33 -302.44 -184.43 -385.06 -184.43 -385.06"/></clipPath><radialGradient id="radial-gradient" cx="776.3" cy="152.5" r="1148.85" gradientUnits="userSpaceOnUse"><stop offset="0" stop-color="#fff8da"/><stop offset="0.4" stop-color="#ffe264"/><stop offset="1" stop-color="#fc9200"/></radialGradient></defs><title>borrow 2</title><g class="cls-2"><g class="cls-3"><rect class="cls-4" x="-399.81" y="-509.06" width="2352.22" height="1323.12"/></g></g><rect class="cls-5" x="3.75" y="67.32" width="182.5" height="55.36" rx="26.02" ry="26.02"/><circle class="cls-6" cx="32.45" cy="95" r="22.91"/><text class="cls-7" transform="translate(24.44 101.88)">21</text><circle class="cls-6" cx="157.55" cy="95" r="22.91"/><text class="cls-7" transform="translate(145.66 101.88)">25</text><rect class="cls-8" x="3.75" y="67.32" width="182.5" height="55.36" rx="26.02" ry="26.02"/><line class="cls-9" x1="63.25" y1="95" x2="69.25" y2="95"/><line class="cls-10" x1="79.55" y1="95" x2="115.6" y2="95"/><line class="cls-9" x1="120.75" y1="95" x2="126.75" y2="95"/></svg>