<svg id="Layer_1" data-name="Layer 1" xmlns="http://www.w3.org/2000/svg" xmlns:xlink="http://www.w3.org/1999/xlink" viewBox="0 0 190 190"><defs><style>.cls-1,.cls-8{fill:none;}.cls-2{clip-path:url(#clip-path);}.cls-3{clip-path:url(#clip-path-2);}.cls-4{fill:url(#radial-gradient);}.cls-5{fill:#fff;opacity:0.35;}.cls-6{fill:#ff8c3c;}.cls-7{fill:#231f20;}.cls-8{stroke:#fff;stroke-linecap:round;stroke-linejoin:round;stroke-width:3.87px;}.cls-9{fill:#da602b;stroke:#231f20;stroke-miterlimit:10;stroke-width:5.38px;}</style><clipPath id="clip-path"><polyline class="cls-1" points="105.56 -386.49 249.9 -303.15 249.9 -136.49 105.56 -53.15 -38.78 -136.49 -38.78 -303.15 105.56 -386.49"/></clipPath><clipPath id="clip-path-2"><polygon class="cls-1" points="105.56 -385.06 -37.54 -302.44 -37.54 -137.2 105.56 -54.58 248.66 -137.2 248.66 -302.44 105.56 -385.06 105.56 -385.06"/></clipPath><radialGradient id="radial-gradient" cx="1066.29" cy="152.5" r="1148.85" gradientUnits="userSpaceOnUse"><stop offset="0" stop-color="#fff8da"/><stop offset="0.4" stop-color="#ffe264"/><stop offset="1" stop-color="#fc9200"/></radialGradient></defs><title>borrow 1</title><g class="cls-2"><g class="cls-3"><rect class="cls-4" x="-109.82" y="-509.06" width="2352.22" height="1323.12"/></g></g><path class="cls-5" d="M149.59,104.6c0,20-14.34,41.42-54.59,41.42S40.41,124.62,40.41,104.6c0-15.38,8.47-31.55,30.61-38.24H119c22.14,6.69,30.62,22.86,30.62,38.24Z"/><path class="cls-6" d="M65.73,127.1C55.13,118.82,53.8,105,53.68,99.85a2,2,0,0,0-2-2H48.82a2,2,0,0,0-2,1.73,36,36,0,0,0-.36,5c0,24.94,21.73,37.52,48.54,37.52s48.55-12.57,48.55-37.52a36,36,0,0,0-.36-5,2,2,0,0,0-2-1.73H61.63a2,2,0,0,0-2,2,59.07,59.07,0,0,0,6.12,27.26Zm0,0"/><path class="cls-7" d="M62.47,53.45v8.86C44.27,70.11,33.53,85,33.53,104.6c0,29.32,24.13,48.29,61.47,48.29s61.48-19,61.48-48.29c0-19.41-10.6-34.28-28.57-42.11v-9Zm87.11,51.15c0,20-14.34,41.42-54.59,41.42S40.41,124.62,40.41,104.6c0-15.38,8.47-31.55,30.61-38.24H119c22.14,6.69,30.62,22.86,30.62,38.24Zm0,0"/><path class="cls-8" d="M132.51,121.25a24.55,24.55,0,0,0,4.79-12.67,27.56,27.56,0,0,0,0-4.84"/><path class="cls-8" d="M121.41,129.88a28.93,28.93,0,0,0,4.74-2.76"/><rect class="cls-7" x="47.17" y="37.11" width="95.67" height="16.78" rx="8.39" ry="8.39"/><path class="cls-9" d="M132,53.45H58L41.76,68.56a1.36,1.36,0,0,0,.72,2.33C50.27,72.13,54.05,78,60.59,78c7.31,0,10.32-6.88,17.21-6.88S88.33,78,95,78s10.32-6.88,17.21-6.88S122.1,78,129.41,78c6.53,0,10.32-5.83,18.1-7.08a1.36,1.36,0,0,0,.72-2.33Z"/></svg>