<svg id="Layer_1" data-name="Layer 1" xmlns="http://www.w3.org/2000/svg" xmlns:xlink="http://www.w3.org/1999/xlink" viewBox="0 0 190 190"><defs><style>.cls-1,.cls-5,.cls-8{fill:none;}.cls-2{clip-path:url(#clip-path);}.cls-3{clip-path:url(#clip-path-2);}.cls-4{fill:url(#radial-gradient);}.cls-5,.cls-7,.cls-8{stroke:#231f20;stroke-miterlimit:10;}.cls-5,.cls-7{stroke-width:5.38px;}.cls-6{fill:#fff;opacity:0.35;}.cls-7{fill:#da602b;}.cls-8{stroke-width:3.78px;}.cls-9{fill:#e3a76f;}</style><clipPath id="clip-path"><polyline class="cls-1" points="-764.39 -394.2 -620.05 -310.86 -620.05 -144.19 -764.39 -60.86 -908.73 -144.19 -908.73 -310.86 -764.39 -394.2"/></clipPath><clipPath id="clip-path-2"><polygon class="cls-1" points="-764.39 -392.76 -907.49 -310.15 -907.49 -144.91 -764.39 -62.29 -621.29 -144.91 -621.29 -310.15 -764.39 -392.76 -764.39 -392.76"/></clipPath><radialGradient id="radial-gradient" cx="196.34" cy="144.79" r="1148.85" gradientUnits="userSpaceOnUse"><stop offset="0" stop-color="#fff8da"/><stop offset="0.4" stop-color="#ffe264"/><stop offset="1" stop-color="#fc9200"/></radialGradient></defs><title>borrow 4</title><g class="cls-2"><g class="cls-3"><rect class="cls-4" x="-979.77" y="-516.77" width="2352.22" height="1323.12"/></g></g><path class="cls-5" d="M124.53,36.25H65.47A47.73,47.73,0,0,0,17.88,83.84h0a47.73,47.73,0,0,0,27.21,43A5.06,5.06,0,0,1,47.92,131l1.51,18.11a5.1,5.1,0,0,0,8.33,3.51l21.12-17.43c2.28-1.86,4-3.73,6.8-3.73h38.85a47.73,47.73,0,0,0,47.59-47.59h0A47.73,47.73,0,0,0,124.53,36.25Z"/><path class="cls-6" d="M120.61,43.75H69.39A41.4,41.4,0,0,0,28.11,85h0c0,16.35,9.63,27.95,23.5,34.62a4.48,4.48,0,0,1,2.55,3.66l.14,16a3.89,3.89,0,0,0,6.16,3.37l18.11-15.68a16.42,16.42,0,0,1,8.34-3.23h33.7c22.7,0,41.28-16,41.28-38.68h0A41.4,41.4,0,0,0,120.61,43.75Z"/><path class="cls-7" d="M79.43,79.51V107a5.11,5.11,0,0,1-5.1,5.1H64.69a4.31,4.31,0,0,1-4.31-4.31v-29a4.31,4.31,0,0,1,4.31-4.31h9.64A5.11,5.11,0,0,1,79.43,79.51Z"/><path class="cls-8" d="M79.43,79.51V107a5.11,5.11,0,0,1-5.1,5.1H64.69a4.31,4.31,0,0,1-4.31-4.31v-29a4.31,4.31,0,0,1,4.31-4.31h9.64A5.11,5.11,0,0,1,79.43,79.51Z"/><path class="cls-9" d="M129.62,85.9,126.82,99c-.76,3.05-1.09,6.31-2.94,8.75a14.59,14.59,0,0,1-11.65,5.83H86.29a6.89,6.89,0,0,1-6.87-6.87V80.66a6.89,6.89,0,0,1,6.87-6.87h6.26a2,2,0,0,0,1.56-.74l14.65-17.69c2.53-3.07,5-1.34,8.25.94a7.6,7.6,0,0,1,1.52,11l-2.61,3.17a2,2,0,0,0,1.58,3.29A12.11,12.11,0,0,1,129.62,85.9Z"/><path class="cls-8" d="M129.62,85.9,126.82,99c-.76,3.05-1.09,6.31-2.94,8.75a14.59,14.59,0,0,1-11.65,5.83H86.29a6.89,6.89,0,0,1-6.87-6.87V80.66a6.89,6.89,0,0,1,6.87-6.87h6.26a2,2,0,0,0,1.56-.74l14.65-17.69c2.53-3.07,5-1.34,8.25.94a7.6,7.6,0,0,1,1.52,11l-2.61,3.17a2,2,0,0,0,1.58,3.29A12.11,12.11,0,0,1,129.62,85.9Z"/></svg>