<svg xmlns="http://www.w3.org/2000/svg" xmlns:xlink="http://www.w3.org/1999/xlink" viewBox="0 0 16.84 14.38"><defs><style>.cls-1{fill:none;}.cls-2{isolation:isolate;}.cls-3{clip-path:url(#clip-path);}.cls-4{fill:url(#radial-gradient);}.cls-12,.cls-5{opacity:0.7;}.cls-6{clip-path:url(#clip-path-2);}.cls-7{mix-blend-mode:soft-light;}.cls-12,.cls-8{fill:#fff;}.cls-9{clip-path:url(#clip-path-3);}.cls-10{clip-path:url(#clip-path-4);}.cls-11{fill:url(#radial-gradient-2);}</style><clipPath id="clip-path"><rect class="cls-1" x="-929.25" y="-625.45" width="1920" height="530"/></clipPath><radialGradient id="radial-gradient" cx="30.75" cy="-434.1" r="937.75" gradientUnits="userSpaceOnUse"><stop offset="0" stop-color="#fff5d7"/><stop offset="0.4" stop-color="#ffdf64"/><stop offset="1" stop-color="#f98f00"/></radialGradient><clipPath id="clip-path-2"><rect class="cls-1" x="-929.25" y="-974.1" width="1920" height="1080"/></clipPath><clipPath id="clip-path-3"><polyline class="cls-1" points="-427.8 -4.65 -283.46 78.68 -283.46 245.35 -427.8 328.68 -572.14 245.35 -572.14 78.68 -427.8 -4.65"/></clipPath><clipPath id="clip-path-4"><polygon class="cls-1" points="-427.8 -3.22 -570.9 79.4 -570.9 244.63 -427.8 327.25 -284.7 244.63 -284.7 79.4 -427.8 -3.22 -427.8 -3.22"/></clipPath><radialGradient id="radial-gradient-2" cx="532.93" cy="534.33" r="1148.85" gradientUnits="userSpaceOnUse"><stop offset="0" stop-color="#fff8da"/><stop offset="0.4" stop-color="#ffe264"/><stop offset="1" stop-color="#fc9200"/></radialGradient></defs><title>button gloss left</title><g class="cls-2"><g id="Layer_1" data-name="Layer 1"><g class="cls-3"><rect class="cls-4" x="-929.25" y="-974.1" width="1920" height="1080"/><g class="cls-5"><g class="cls-6"><g class="cls-7"><rect class="cls-8" x="-970.29" y="-1063.9" width="2002.1" height="1261.89"/><polygon class="cls-8" points="53.54 -51.92 76.34 -12.43 53.54 27.06 7.94 27.06 -14.86 -12.43 7.94 -51.92 53.54 -51.92"/><polygon class="cls-8" points="-19.96 -10.1 2.84 29.39 -19.96 68.88 -65.56 68.88 -88.36 29.39 -65.56 -10.1 -19.96 -10.1"/></g></g></g></g><g class="cls-9"><g class="cls-10"><rect class="cls-11" x="-643.18" y="-127.23" width="2352.22" height="1323.12"/></g></g><ellipse class="cls-12" cx="8.42" cy="7.19" rx="10" ry="4.75" transform="translate(-2.64 6.68) rotate(-37.83)"/></g></g></svg>