<svg xmlns="http://www.w3.org/2000/svg" xmlns:xlink="http://www.w3.org/1999/xlink" viewBox="0 0 21.26 18.85"><defs><style>.cls-1{fill:none;}.cls-2{isolation:isolate;}.cls-3{clip-path:url(#clip-path);}.cls-4{fill:url(#radial-gradient);}.cls-5{opacity:0.7;}.cls-6{clip-path:url(#clip-path-2);}.cls-7{mix-blend-mode:soft-light;}.cls-8{fill:#fff;}.cls-9{clip-path:url(#clip-path-3);}.cls-10{clip-path:url(#clip-path-4);}.cls-11{fill:url(#radial-gradient-2);}.cls-12{opacity:0.35;}</style><clipPath id="clip-path"><rect class="cls-1" x="-1066.75" y="-663.08" width="1920" height="530"/></clipPath><radialGradient id="radial-gradient" cx="-106.75" cy="-471.73" r="937.75" gradientUnits="userSpaceOnUse"><stop offset="0" stop-color="#fff5d7"/><stop offset="0.4" stop-color="#ffdf64"/><stop offset="1" stop-color="#f98f00"/></radialGradient><clipPath id="clip-path-2"><rect class="cls-1" x="-1066.75" y="-1011.73" width="1920" height="1080"/></clipPath><clipPath id="clip-path-3"><polyline class="cls-1" points="-565.3 -42.29 -420.96 41.05 -420.96 207.72 -565.3 291.05 -709.64 207.72 -709.64 41.05 -565.3 -42.29"/></clipPath><clipPath id="clip-path-4"><polygon class="cls-1" points="-565.3 -40.85 -708.4 41.76 -708.4 207 -565.3 289.62 -422.2 207 -422.2 41.76 -565.3 -40.85 -565.3 -40.85"/></clipPath><radialGradient id="radial-gradient-2" cx="395.43" cy="496.7" r="1148.85" gradientUnits="userSpaceOnUse"><stop offset="0" stop-color="#fff8da"/><stop offset="0.4" stop-color="#ffe264"/><stop offset="1" stop-color="#fc9200"/></radialGradient></defs><title>button gloss right</title><g class="cls-2"><g id="Layer_1" data-name="Layer 1"><g class="cls-3"><rect class="cls-4" x="-1066.75" y="-1011.73" width="1920" height="1080"/><g class="cls-5"><g class="cls-6"><g class="cls-7"><rect class="cls-8" x="-1107.8" y="-1101.53" width="2002.1" height="1261.89"/><polygon class="cls-8" points="63.03 -5.23 85.83 34.26 63.03 73.74 17.43 73.74 -5.36 34.26 17.43 -5.23 63.03 -5.23"/><polygon class="cls-8" points="-10.47 -47.73 12.33 -8.24 -10.47 31.24 -56.06 31.24 -78.86 -8.24 -56.06 -47.73 -10.47 -47.73"/></g></g></g></g><g class="cls-9"><g class="cls-10"><rect class="cls-11" x="-780.68" y="-164.86" width="2352.22" height="1323.12"/></g></g><g class="cls-12"><path class="cls-8" d="M18.32,0c1.4-.28,3,1.85,2.94,4.72S19.57,9.62,18.18,9.3,16,6.94,16.06,4.67,16.9.3,18.32,0Z"/><path class="cls-8" d="M15.47,15.07c.51,1.32-2.79,3.76-7.62,3.78S-.46,16.45,0,15.12s4-1.41,7.77-1.47S15,13.7,15.47,15.07Z"/></g></g></g></svg>