<?xml version="1.0" standalone="no"?>
<!DOCTYPE svg PUBLIC "-//W3C//DTD SVG 20010904//EN"
 "http://www.w3.org/TR/2001/REC-SVG-20010904/DTD/svg10.dtd">
<svg version="1.0" xmlns="http://www.w3.org/2000/svg"
 width="256.000000pt" height="256.000000pt" viewBox="0 0 256.000000 256.000000"
 preserveAspectRatio="xMidYMid meet">

<g transform="translate(0.000000,256.000000) scale(0.100000,-0.100000)"
fill="#000000" stroke="none">
<path d="M607 1952 c-37 -37 -67 -72 -67 -77 0 -6 132 -142 292 -302 l293
-293 -293 -293 c-160 -160 -292 -297 -292 -302 0 -13 132 -145 145 -145 6 0
142 132 302 292 l293 293 293 -293 c160 -160 297 -292 302 -292 13 0 145 132
145 145 0 6 -132 142 -292 302 l-293 293 293 293 c160 160 292 297 292 302 0
13 -132 145 -145 145 -6 0 -142 -132 -302 -292 l-293 -293 -293 293 c-160 160
-297 292 -302 292 -6 0 -41 -30 -78 -68z"/>
</g>
</svg>
