<svg xmlns="http://www.w3.org/2000/svg" xmlns:xlink="http://www.w3.org/1999/xlink" viewBox="0 0 37 37"><defs><style>.cls-1{fill:none;}.cls-2{isolation:isolate;}.cls-3{clip-path:url(#clip-path);}.cls-4{opacity:0.7;}.cls-5{clip-path:url(#clip-path-2);}.cls-6{mix-blend-mode:soft-light;}.cls-7{fill:#fff;}.cls-8{clip-path:url(#clip-path-3);}.cls-9{clip-path:url(#clip-path-4);}.cls-10{fill:url(#radial-gradient);}.cls-11{fill:#999;}</style><clipPath id="clip-path"><rect class="cls-1" x="-1018.39" y="-803.35" width="1920" height="530"/></clipPath><clipPath id="clip-path-2"><rect class="cls-1" x="-1018.39" y="-1152" width="1920" height="1080"/></clipPath><clipPath id="clip-path-3"><polyline class="cls-1" points="-516.94 -182.56 -372.6 -99.22 -372.6 67.45 -516.94 150.78 -661.27 67.45 -661.27 -99.22 -516.94 -182.56"/></clipPath><clipPath id="clip-path-4"><polygon class="cls-1" points="-516.94 -181.12 -660.04 -98.5 -660.04 66.73 -516.94 149.35 -373.84 66.73 -373.84 -98.5 -516.94 -181.12 -516.94 -181.12"/></clipPath><radialGradient id="radial-gradient" cx="443.79" cy="356.43" r="1148.85" gradientUnits="userSpaceOnUse"><stop offset="0" stop-color="#fff8da"/><stop offset="0.4" stop-color="#ffe264"/><stop offset="1" stop-color="#fc9200"/></radialGradient></defs><title>delete card</title><g class="cls-2"><g id="Layer_1" data-name="Layer 1"><g class="cls-3"><g class="cls-4"><g class="cls-5"><g class="cls-6"><rect class="cls-7" x="-1059.43" y="-1241.8" width="2002.1" height="1261.89"/></g></g></g></g><g class="cls-8"><g class="cls-9"><rect class="cls-10" x="-732.32" y="-305.13" width="2352.22" height="1323.12"/></g></g><path class="cls-11" d="M18.5,1A17.5,17.5,0,1,1,1,18.5,17.52,17.52,0,0,1,18.5,1m0-1A18.5,18.5,0,1,0,37,18.5,18.5,18.5,0,0,0,18.5,0Z"/><path class="cls-11" d="M18.48,20.14l-5.3,5.3a1.15,1.15,0,0,1-1.62,0h0a1.15,1.15,0,0,1,0-1.62l5.3-5.3L11.55,13.2a1.15,1.15,0,0,1,0-1.62l0,0a1.15,1.15,0,0,1,1.62,0l5.31,5.31,5.32-5.32a1.15,1.15,0,0,1,1.62,0h0a1.15,1.15,0,0,1,0,1.62L20.12,18.5l5.31,5.31a1.15,1.15,0,0,1,0,1.62l0,0a1.15,1.15,0,0,1-1.62,0Z"/></g></g></svg>