<svg xmlns="http://www.w3.org/2000/svg" xmlns:xlink="http://www.w3.org/1999/xlink" viewBox="0 0 24.13 24.13"><defs><style>.cls-1{fill:none;}.cls-2{isolation:isolate;}.cls-3{clip-path:url(#clip-path);}.cls-4{opacity:0.7;}.cls-5{clip-path:url(#clip-path-2);}.cls-6{mix-blend-mode:soft-light;}.cls-11,.cls-7{fill:#fff;}.cls-8{clip-path:url(#clip-path-3);}.cls-9{clip-path:url(#clip-path-4);}.cls-10{fill:url(#radial-gradient);}.cls-11{stroke:#999;stroke-miterlimit:10;}.cls-12{fill:#999;}</style><clipPath id="clip-path"><rect class="cls-1" x="-974.75" y="-809.78" width="1920" height="530"/></clipPath><clipPath id="clip-path-2"><rect class="cls-1" x="-974.75" y="-1158.43" width="1920" height="1080"/></clipPath><clipPath id="clip-path-3"><polyline class="cls-1" points="-473.3 -188.99 -328.96 -105.65 -328.96 61.01 -473.3 144.35 -617.64 61.01 -617.64 -105.65 -473.3 -188.99"/></clipPath><clipPath id="clip-path-4"><polygon class="cls-1" points="-473.3 -187.56 -616.4 -104.94 -616.4 60.3 -473.3 142.92 -330.2 60.3 -330.2 -104.94 -473.3 -187.56 -473.3 -187.56"/></clipPath><radialGradient id="radial-gradient" cx="487.43" cy="350" r="1148.85" gradientUnits="userSpaceOnUse"><stop offset="0" stop-color="#fff8da"/><stop offset="0.4" stop-color="#ffe264"/><stop offset="1" stop-color="#fc9200"/></radialGradient></defs><title>delete image</title><g class="cls-2"><g id="Layer_1" data-name="Layer 1"><g class="cls-3"><g class="cls-4"><g class="cls-5"><g class="cls-6"><rect class="cls-7" x="-1015.8" y="-1248.24" width="2002.1" height="1261.89"/><polygon class="cls-7" points="8.04 -67.6 30.83 -28.11 8.04 11.38 -37.56 11.38 -60.36 -28.11 -37.56 -67.6 8.04 -67.6"/></g></g></g></g><g class="cls-8"><g class="cls-9"><rect class="cls-10" x="-688.68" y="-311.56" width="2352.22" height="1323.12"/></g></g><circle class="cls-11" cx="12.07" cy="12.07" r="11.57"/><path class="cls-12" d="M12.06,13.09,8.74,16.4a.72.72,0,0,1-1,0h0a.72.72,0,0,1,0-1L11,12.08,7.72,8.75a.72.72,0,0,1,0-1h0a.72.72,0,0,1,1,0l3.32,3.32,3.32-3.32a.72.72,0,0,1,1,0h0a.72.72,0,0,1,0,1l-3.32,3.32,3.32,3.32a.72.72,0,0,1,0,1h0a.72.72,0,0,1-1,0Z"/></g></g></svg>