<!-- Generated by IcoMoon.io -->
<svg version="1.1" xmlns="http://www.w3.org/2000/svg" width="2048" height="1024" viewBox="0 0 2048 1024">
<title></title>
<g id="icomoon-ignore">
</g>
<path fill="#000" d="M45793.069-85514.53v309598.108h-174148.442v-309598.108h174148.442z"></path>
<path fill="#ff8c26" d="M1480.72 1330.674c22.13-23.494 35.729-55.239 35.729-90.159s-13.599-66.665-35.791-90.226l0.062 0.066-644.936-644.936 644.936-637.039c11.543-19.177 18.37-42.326 18.37-67.070 0-72.691-58.928-131.62-131.62-131.62-24.744 0-47.892 6.828-67.665 18.702l0.596-0.332-734.437 734.437c-22.13 23.494-35.729 55.239-35.729 90.159s13.599 66.665 35.791 90.226l-0.062-0.066 734.437 727.856c23.494 22.13 55.239 35.729 90.159 35.729s66.665-13.599 90.226-35.791l-0.066 0.062z"></path>
</svg>
