<svg xmlns="http://www.w3.org/2000/svg" xmlns:xlink="http://www.w3.org/1999/xlink" viewBox="0 0 30 30"><defs><style>.cls-1{fill:none;}.cls-2{isolation:isolate;}.cls-3{clip-path:url(#clip-path);}.cls-4{opacity:0.7;}.cls-5{clip-path:url(#clip-path-2);}.cls-6{mix-blend-mode:soft-light;}.cls-7{fill:#fff;}.cls-8{clip-path:url(#clip-path-3);}.cls-9{clip-path:url(#clip-path-4);}.cls-10{fill:url(#radial-gradient);}.cls-11{fill:#314a7e;}.cls-12{fill:#eeefef;}</style><clipPath id="clip-path"><rect class="cls-1" x="-834.08" y="-731.41" width="1920" height="530"/></clipPath><clipPath id="clip-path-2"><rect class="cls-1" x="-834.08" y="-1080.06" width="1920" height="1080"/></clipPath><clipPath id="clip-path-3"><polyline class="cls-1" points="-332.63 -110.62 -188.29 -27.29 -188.29 139.38 -332.63 222.72 -476.97 139.38 -476.97 -27.29 -332.63 -110.62"/></clipPath><clipPath id="clip-path-4"><polygon class="cls-1" points="-332.63 -109.19 -475.73 -26.57 -475.73 138.67 -332.63 221.29 -189.53 138.67 -189.53 -26.57 -332.63 -109.19 -332.63 -109.19"/></clipPath><radialGradient id="radial-gradient" cx="628.1" cy="428.37" r="1148.85" gradientUnits="userSpaceOnUse"><stop offset="0" stop-color="#fff8da"/><stop offset="0.4" stop-color="#ffe264"/><stop offset="1" stop-color="#fc9200"/></radialGradient></defs><title>facebook</title><g class="cls-2"><g id="Layer_1" data-name="Layer 1"><g class="cls-3"><g class="cls-4"><g class="cls-5"><g class="cls-6"><rect class="cls-7" x="-875.13" y="-1169.87" width="2002.1" height="1261.89"/><polygon class="cls-7" points="75.2 -31.73 98 7.75 75.2 47.24 29.61 47.24 6.81 7.75 29.61 -31.73 75.2 -31.73"/><polygon class="cls-7" points="1.74 -73.57 24.53 -34.08 1.74 5.41 -43.86 5.41 -66.66 -34.08 -43.86 -73.57 1.74 -73.57"/><polygon class="cls-7" points="1.74 10.77 24.53 50.26 1.74 89.74 -43.86 89.74 -66.66 50.26 -43.86 10.77 1.74 10.77"/></g></g></g></g><g class="cls-8"><g class="cls-9"><rect class="cls-10" x="-548.01" y="-233.19" width="2352.22" height="1323.12"/></g></g><circle class="cls-11" cx="15" cy="15" r="15"/><path class="cls-12" d="M18.8,15H16.32v8.87H12.63V15H10.88V11.87h1.75v-2a3.46,3.46,0,0,1,3.72-3.72h2.73v3h-2a.75.75,0,0,0-.78.85v1.84h2.81Zm0,0"/></g></g></svg>