<svg id="Layer_1" data-name="Layer 1" xmlns="http://www.w3.org/2000/svg" viewBox="0 0 391.53 478.57"><defs><style>.cls-1{fill:#231f20;}.cls-2{fill:#ff9026;}.cls-3{fill:#ffdc02;}.cls-4{fill:#f1f1f2;}.cls-5{fill:#a78701;}.cls-6{fill:#806800;}.cls-7{fill:#089d39;}</style></defs><title>full logo</title><path class="cls-1" d="M47.72,394.79l-8.15,7.68q-4.18-4.78-7.69-6-2.71-1-9.61-1a14.24,14.24,0,0,0-5.2.68,4.31,4.31,0,0,0-2.49,4.33q0,3.65,7.29,5,13.21,2.28,16.4,3.87,9.45,4.78,9.45,17.42a16.93,16.93,0,0,1-5.64,12.58,18,18,0,0,1-12.81,5.41q-14.12,0-29.27-14.46l7.63-8.31q12,11.39,21.64,11.39a7.56,7.56,0,0,0,4.84-2.06,6,6,0,0,0,2.45-4.59q0-4.82-1.88-6.88t-6.43-2.52q-3-.23-8.88-.91Q3.41,413.51,3.42,400.3,3.42,384,22.22,384q9.18,0,14,1.95Q41.83,388.14,47.72,394.79Z"/><path class="cls-1" d="M98.05,427q0,3-.11,8.88t-.11,8.88H86.67q0-3.88.34-11.76t.34-11.87q0-24.54-6.38-24.54-10.25,0-13.89,4.79.11,5,.11,10.85,0,5.36-.11,16.1T67,444.37H55.8V416.25c0-4.71-.42-25.09-1-34.74q-.68-13-.68-20.39h11q0,9.11,1.25,26.54a41.91,41.91,0,0,1,15.49-2.51Q98.05,385.15,98.05,427Z"/><path class="cls-1" d="M148.39,442.1l-11.11,1.13-.61-5.12a19.51,19.51,0,0,1-14.81,6.61,15.87,15.87,0,0,1-12.42-5.35,19.1,19.1,0,0,1-4.78-13.21q0-8.54,5.41-13.72t13.84-5.18a29.63,29.63,0,0,1,11.16,1.94,15.81,15.81,0,0,0-4.61-9.34q-4.16-4.44-8.94-4.44-3.53,0-3.93.51t-1.2,6.09l-11-2.18q1.48-8.82,4.44-12Q113.2,384,121.51,384q15.38,0,22.89,18.14a25.73,25.73,0,0,1,1.82,5.25q0,2.4-.11,7t-.11,7a74.86,74.86,0,0,0,.8,9.47Q147.36,435.14,148.39,442.1Zm-15-21.09a17.24,17.24,0,0,0-9.51-2.37q-4.7,0-6.36,1.92t-1.66,6.78q0,6,5.16,6a11.24,11.24,0,0,0,8.25-3.78A14,14,0,0,0,133.36,421Z"/><path class="cls-1" d="M196.22,390.39,189,399q-5.09-4.9-7.46-4.9a28.31,28.31,0,0,0-11,2.16q-6.56,2.85-7.47,7.86a24,24,0,0,0-.11,5.47v5.58l.23,29.38H152c0-2.12-.23-59.33-.23-59.33H163v2.16q7.6-4.67,18.5-4.67Q187.82,382.76,196.22,390.39Z"/><path class="cls-1" d="M235.4,411.58q0,5.12-2.28,7.35t-7.29,2.22q-4.67,0-13.1-.23-9.11-.34-13.1-.34a11.94,11.94,0,0,0,6.49,9.91,23.41,23.41,0,0,0,12,2.85q2.73,0,11.84-4.44l4.33,10.48q-3.87,1.71-7.86,3.42a22.75,22.75,0,0,1-8.31,1.94q-13,0-21-6.72-8.66-7.17-8.66-20.16a35.13,35.13,0,0,1,8.09-22.66q8.65-10.59,21.07-10.59,9.79,0,14.35,9.11Q235.4,400.64,235.4,411.58ZM224,409.75,223,401q-1.14-5-5.35-5a16.68,16.68,0,0,0-10.53,3.81,18.05,18.05,0,0,0-6.43,9.41q3.19,0,10.25.34,6.6.22,10.25.22Z"/><path class="cls-1" d="M287.79,418.29q0,11-10.48,18.79a33.91,33.91,0,0,1-20.5,6.95q-2.51,0-5-3v1.48H240.64q0-8,1.14-23.86t1.14-23.86a282.93,282.93,0,0,0-2.28-36.22l11.1-1.37q1.94,16.86,2.17,30.41a42.47,42.47,0,0,1,8.7-.8q10.07,0,18,10.93Q287.78,407.82,287.79,418.29Zm-11.16,0a21.88,21.88,0,0,0-5-13.67q-5-6.38-11.45-6.38A12.76,12.76,0,0,0,254,400q-.23,10.82-1.71,27.22.91,1.6,1.94,3.19,1.25,2.05,2.62,2a24.9,24.9,0,0,0,12.64-3.64Q276.62,424.45,276.62,418.29Z"/><path class="cls-1" d="M339,411.58q0,5.12-2.28,7.35t-7.29,2.22q-4.67,0-13.1-.23-9.11-.34-13.1-.34a11.94,11.94,0,0,0,6.49,9.91,23.42,23.42,0,0,0,12,2.85q2.73,0,11.84-4.44l4.33,10.48q-3.87,1.71-7.86,3.42a22.76,22.76,0,0,1-8.31,1.94q-13,0-21-6.72-8.66-7.17-8.65-20.16a35.13,35.13,0,0,1,8.08-22.66q8.65-10.59,21.07-10.59,9.79,0,14.35,9.11Q339,400.64,339,411.58Zm-11.39-1.82-1-8.74q-1.14-5-5.35-5a16.68,16.68,0,0,0-10.53,3.81,18,18,0,0,0-6.43,9.41q3.19,0,10.25.34,6.6.22,10.25.22Z"/><path class="cls-1" d="M391.53,411.58q0,5.12-2.28,7.35T382,421.14q-4.67,0-13.1-.23-9.12-.34-13.1-.34a11.94,11.94,0,0,0,6.49,9.91,23.42,23.42,0,0,0,12,2.85q2.73,0,11.84-4.44l4.33,10.48q-3.87,1.71-7.86,3.42a22.76,22.76,0,0,1-8.31,1.94q-13,0-21-6.72-8.66-7.17-8.65-20.16a35.13,35.13,0,0,1,8.08-22.66q8.65-10.59,21.07-10.59,9.79,0,14.35,9.11Q391.53,400.64,391.53,411.58Zm-11.39-1.82-1-8.74q-1.14-5-5.35-5a16.68,16.68,0,0,0-10.54,3.81,18,18,0,0,0-6.43,9.41q3.19,0,10.25.34,6.6.22,10.25.22Z"/><path class="cls-2" d="M347.54,113.8a8.72,8.72,0,0,0,.41-.88,8.35,8.35,0,0,0,1.85-3A6.37,6.37,0,0,0,350,107a9.53,9.53,0,0,0-.41-4.21,16.43,16.43,0,0,0-3.84-5.93,9.34,9.34,0,0,0,2.67-4,6.24,6.24,0,0,0-.55-5,5.45,5.45,0,0,0-1.12-1.37,6.34,6.34,0,0,0-.74-2,5.54,5.54,0,0,0-1.85-1.93c-.08-.16-.16-.32-.25-.48a5.54,5.54,0,0,0-3.57-2.64,6.26,6.26,0,0,0-.6-1.43,5.54,5.54,0,0,0-3.61-2.64,6.75,6.75,0,0,0-3.16.09c-.08-.17-.16-.33-.26-.49a5.48,5.48,0,0,0-1.53-1.7,6.19,6.19,0,0,0-.67-1.69,5.53,5.53,0,0,0-3.61-2.64c-1.84-.42-3.93,0-7.41,1.78a6.29,6.29,0,0,0-.83-2.66A5.56,5.56,0,0,0,315,65.52a6.48,6.48,0,0,0-2.37-.08,5.57,5.57,0,0,0-3.47-2.37,6.24,6.24,0,0,0-1.53-.15,5.19,5.19,0,0,0-.41-.41,6.17,6.17,0,0,0-.72-4.24,5.5,5.5,0,0,0-3.58-2.63c-2-.45-4-.11-8.16,2.16a5.66,5.66,0,0,0-1.39-.5,6,6,0,0,0-1.73-.14,5.52,5.52,0,0,0-.28-.55l0-.08a7.53,7.53,0,0,0,.88-1.85,6.29,6.29,0,0,0-.53-5.12,5.51,5.51,0,0,0-3.59-2.63,6.18,6.18,0,0,0-1.08-.16l-.12-.21a5.51,5.51,0,0,0-3.59-2.63,5.39,5.39,0,0,0-1.43-.16l-.08-.14A5.5,5.5,0,0,0,278.18,41a6.8,6.8,0,0,0-3.39.14,5.87,5.87,0,0,0-1.16-.39c-1.72-.38-3.61-.07-6.53,1.33a5.78,5.78,0,0,0-1.9-.84v0a5.62,5.62,0,0,0-3.73-2.7h0a5.51,5.51,0,0,0-.66-.52l-.2-.37a5.59,5.59,0,0,0-3.23-2.57,5.57,5.57,0,0,0-2.33-2,6.19,6.19,0,0,0-.8-3.8,5.51,5.51,0,0,0-3.59-2.63c-1.67-.38-3.45-.15-6.66,1.4a5.61,5.61,0,0,0-1.86-.95,5.56,5.56,0,0,0-2.66-1.67A5.67,5.67,0,0,0,236,23.24l-.18,0a9,9,0,0,0-1.2-4.11A8.83,8.83,0,0,0,229,14.92a8.65,8.65,0,0,0-5.22-3.18,11.5,11.5,0,0,0-2.54-.21l-.23-.42A8.59,8.59,0,0,0,215.17,7l-.45-.08a8.71,8.71,0,0,0-.85-2,8.34,8.34,0,0,0-5.7-4c-3.15-.66-7.42.28-12.8,2.61C190,1.09,185.67.15,182.51.81a8.34,8.34,0,0,0-5.7,4,8.68,8.68,0,0,0-.85,2l-.45.08a8.59,8.59,0,0,0-5.88,4.15c-.08.14-.16.28-.23.43a11.62,11.62,0,0,0-2.53.21,8.66,8.66,0,0,0-5.22,3.18,8.84,8.84,0,0,0-5.59,4.19,9,9,0,0,0-1.2,4.11l-.19,0a5.67,5.67,0,0,0-3.46,2.24,5.59,5.59,0,0,0-2.66,1.67,5.65,5.65,0,0,0-1.85.94c-3.21-1.55-5-1.78-6.66-1.4a5.51,5.51,0,0,0-3.59,2.63,6.19,6.19,0,0,0-.8,3.8,5.53,5.53,0,0,0-2.32,2,5.58,5.58,0,0,0-3.23,2.57c-.07.12-.14.24-.2.37a4.93,4.93,0,0,0-.67.53h0a5.64,5.64,0,0,0-3.73,2.7v0a5.73,5.73,0,0,0-1.9.84c-2.93-1.4-4.81-1.72-6.53-1.33a5.72,5.72,0,0,0-1.16.39,6.8,6.8,0,0,0-3.39-.14,5.48,5.48,0,0,0-3.59,2.63l-.08.14a5.25,5.25,0,0,0-1.43.16,5.52,5.52,0,0,0-3.59,2.63l-.12.22a6.56,6.56,0,0,0-1.08.15A5.53,5.53,0,0,0,99,49.57a6.32,6.32,0,0,0-.53,5.12,7.62,7.62,0,0,0,.89,1.85l0,.08c-.1.18-.19.36-.28.55a6.17,6.17,0,0,0-1.73.14,5.78,5.78,0,0,0-1.39.5c-4.2-2.27-6.21-2.61-8.16-2.16a5.5,5.5,0,0,0-3.59,2.62,6.17,6.17,0,0,0-.72,4.24,5.11,5.11,0,0,0-.42.41,6,6,0,0,0-1.53.15A5.56,5.56,0,0,0,78,65.44a6.44,6.44,0,0,0-2.37.08A5.58,5.58,0,0,0,72,68.19a6.32,6.32,0,0,0-.83,2.66c-3.48-1.77-5.58-2.19-7.41-1.78a5.55,5.55,0,0,0-3.61,2.64,6.07,6.07,0,0,0-.67,1.69,5.54,5.54,0,0,0-1.53,1.7,5.17,5.17,0,0,0-.25.49,6.8,6.8,0,0,0-3.17-.08,5.54,5.54,0,0,0-3.61,2.64,6.37,6.37,0,0,0-.6,1.43,5.54,5.54,0,0,0-3.56,2.63,5.07,5.07,0,0,0-.25.48,5.55,5.55,0,0,0-1.85,1.93,6.48,6.48,0,0,0-.74,2,5.45,5.45,0,0,0-1.12,1.38,6.23,6.23,0,0,0-.55,5,9.37,9.37,0,0,0,2.68,4,16.45,16.45,0,0,0-3.83,5.92,9.56,9.56,0,0,0-.43,4.15,6.39,6.39,0,0,0,.22,2.89A8.43,8.43,0,0,0,42.75,113a8.82,8.82,0,0,0,.4.85,8.38,8.38,0,0,0,.56.85c.07.22.19.42.28.63a5.52,5.52,0,0,0-.94,1.17,6.15,6.15,0,0,0-.52,5,7.36,7.36,0,0,0,1.09,2.11c0,.22.1.44.16.66l.07.21a6.26,6.26,0,0,0-.3,1.58,12.41,12.41,0,0,0-.95,2.13,9.46,9.46,0,0,0,.48,7.34,6.44,6.44,0,0,0-.29,4.55,9.41,9.41,0,0,0,2.39,3.76,7.74,7.74,0,0,0-1.27,2.38,6.33,6.33,0,0,0-.23,2.81,7.52,7.52,0,0,0-.63,1.47c-.05.18-.1.35-.14.53a8,8,0,0,0-1.33,2.48,6.29,6.29,0,0,0,.53,5.11,5.54,5.54,0,0,0,1,1.31,6.15,6.15,0,0,0,.23.76,5.39,5.39,0,0,0-1.63,1.71,6.27,6.27,0,0,0-.63,4.76A6.41,6.41,0,0,0,41,171.3c.06.21.16.42.24.63a6.58,6.58,0,0,0,.09,4c0,.07,0,.15.05.22a7.54,7.54,0,0,0,.7,1.57,6.43,6.43,0,0,0,.16,1.9,5.58,5.58,0,0,0-.8,1.06,6.31,6.31,0,0,0-.55,5.07,7.27,7.27,0,0,0,.56,1.33,6.55,6.55,0,0,0,.25,3A10.33,10.33,0,0,0,45,194.54a8.93,8.93,0,0,0-2.13,3.21,5.64,5.64,0,0,0-.64.88,6.42,6.42,0,0,0-.54,5.19,9.24,9.24,0,0,0,2.45,3.75,5,5,0,0,0,.28,1.79,7.76,7.76,0,0,0-1.08,2.21,6.45,6.45,0,0,0-.23,2.53,8.88,8.88,0,0,0-1.71,3.08,6.55,6.55,0,0,0,.5,5.06,9.74,9.74,0,0,0,.44,4.08,12.42,12.42,0,0,0,1.13,2.45c0,.2-.05.4-.08.6a7.16,7.16,0,0,0-.84,1.7,6.08,6.08,0,0,0,.51,4.92,5.76,5.76,0,0,0,.62.87,6.28,6.28,0,0,0,.19,3.48,5,5,0,0,0,.06,4.91,9,9,0,0,0-2.22,3.45,6.39,6.39,0,0,0,.54,5.18,5.59,5.59,0,0,0,.89,1.16,6.1,6.1,0,0,0,.57,1.31,5.6,5.6,0,0,0,.86,1.13,6.29,6.29,0,0,0,.65,4.67,5.49,5.49,0,0,0,3.26,2.54,5.55,5.55,0,0,0,3.12,1.94c1.55.35,3.2.18,6-1.07a5.65,5.65,0,0,0,.29.56,5.5,5.5,0,0,0,3.59,2.63,6.26,6.26,0,0,0,.92.14,5.6,5.6,0,0,0,3.18,1.95,6.4,6.4,0,0,0,2,.12,6.13,6.13,0,0,0,.6,4.71,5.52,5.52,0,0,0,3.62,2.64,6.92,6.92,0,0,0,3.56-.2,6.31,6.31,0,0,0,.7,1.83,5.54,5.54,0,0,0,3.61,2.64,8.39,8.39,0,0,0,5-.68,5.76,5.76,0,0,0,1.81.75,6,6,0,0,0,.67.11A5.65,5.65,0,0,0,90,284.34l.33.06a6.23,6.23,0,0,0,.57,1.31,5.5,5.5,0,0,0,1.57,1.74,6.05,6.05,0,0,0,.67,1.72,5.6,5.6,0,0,0,3.69,2.68c1.71.38,3.54.08,6.33-1.26a5.51,5.51,0,0,0,2.49,2.14,5.56,5.56,0,0,0,2.87,1.63,6.31,6.31,0,0,0,2.37.08,6.07,6.07,0,0,0,.62,1.5,5.6,5.6,0,0,0,1.44,1.65,6.14,6.14,0,0,0,.48,1,5.56,5.56,0,0,0,3.29,2.57,5.51,5.51,0,0,0,3.52,2.49,6.14,6.14,0,0,0,2,.12,5.62,5.62,0,0,0,3.44,2.27,7.14,7.14,0,0,0,3.64-.2,6.28,6.28,0,0,0,.85,3.08,5.55,5.55,0,0,0,3.65,2.66,7,7,0,0,0,3.5-.17,5.5,5.5,0,0,0,2.3,2.16l.17.31a5.5,5.5,0,0,0,3.6,2.63c1.92.43,4,0,7.68-1.95a5.51,5.51,0,0,0,1.48,1.22,7.91,7.91,0,0,0-1.2,2.39,6.26,6.26,0,0,0,.56,5,8.77,8.77,0,0,0,6,4.24,15,15,0,0,0,6.18-.24,9.33,9.33,0,0,0,1.16,3.29,8.25,8.25,0,0,0,3.63,3.37,8.58,8.58,0,0,0,2.46,1.75,9,9,0,0,0,4.16,2,12.21,12.21,0,0,0,3.43.17,8.43,8.43,0,0,0,5.44,3.59,10.66,10.66,0,0,0,2.18.21,25.38,25.38,0,0,0,8.74-2,25.33,25.33,0,0,0,8.74,2,10.68,10.68,0,0,0,2.18-.21,8.43,8.43,0,0,0,5.44-3.59,12,12,0,0,0,3.43-.17,9,9,0,0,0,4.17-2,8.53,8.53,0,0,0,2.45-1.75,8.24,8.24,0,0,0,3.63-3.37,9.31,9.31,0,0,0,1.17-3.29,15.13,15.13,0,0,0,6.18.24,8.77,8.77,0,0,0,6-4.24,6.26,6.26,0,0,0,.56-5,7.93,7.93,0,0,0-1.2-2.39,5.55,5.55,0,0,0,1.48-1.22c3.68,2,5.77,2.38,7.68,2a5.5,5.5,0,0,0,3.6-2.63l.17-.32a5.44,5.44,0,0,0,2.3-2.16,7,7,0,0,0,3.51.17,5.54,5.54,0,0,0,3.65-2.66,6.28,6.28,0,0,0,.85-3.08,7.09,7.09,0,0,0,3.64.19,5.61,5.61,0,0,0,3.44-2.27,6.24,6.24,0,0,0,2-.13,5.52,5.52,0,0,0,3.52-2.49,5.56,5.56,0,0,0,3.29-2.57,5.82,5.82,0,0,0,.48-1,5.52,5.52,0,0,0,1.44-1.65,5.94,5.94,0,0,0,.62-1.5,6.33,6.33,0,0,0,2.37-.08,17.09,17.09,0,0,0,5.36-3.77c2.79,1.34,4.62,1.64,6.33,1.26a5.6,5.6,0,0,0,3.69-2.68,6,6,0,0,0,.67-1.71,5.48,5.48,0,0,0,1.57-1.74,6.28,6.28,0,0,0,.57-1.31l.32-.06a5.64,5.64,0,0,0,2.86-1.57,6.52,6.52,0,0,0,.67-.11,5.78,5.78,0,0,0,1.81-.75,8.38,8.38,0,0,0,5,.68,5.54,5.54,0,0,0,3.61-2.64,6.27,6.27,0,0,0,.7-1.83,7,7,0,0,0,3.56.2,5.51,5.51,0,0,0,3.62-2.64,6.13,6.13,0,0,0,.59-4.72,6.24,6.24,0,0,0,2-.12,5.6,5.6,0,0,0,3.18-2,6.36,6.36,0,0,0,.92-.14,5.51,5.51,0,0,0,3.59-2.63,6.29,6.29,0,0,0,.29-.56c2.78,1.26,4.43,1.43,6,1.07a5.56,5.56,0,0,0,3.12-1.95,5.48,5.48,0,0,0,3.26-2.54,6.28,6.28,0,0,0,.65-4.68,5.4,5.4,0,0,0,.85-1.12,5.81,5.81,0,0,0,.56-1.3,5.46,5.46,0,0,0,.89-1.17,6.39,6.39,0,0,0,.54-5.18,9.05,9.05,0,0,0-2.22-3.45,5,5,0,0,0,0-4.87,6.28,6.28,0,0,0,.2-3.51,6,6,0,0,0,.62-.88,6.09,6.09,0,0,0,.51-4.92,7.22,7.22,0,0,0-.87-1.75c0-.17,0-.35-.07-.52a12.21,12.21,0,0,0,1.14-2.46,9.74,9.74,0,0,0,.44-4.07,6.57,6.57,0,0,0,.52-5.11,8.89,8.89,0,0,0-1.72-3.08,6.43,6.43,0,0,0-.24-2.53,7.74,7.74,0,0,0-1.09-2.22,5.09,5.09,0,0,0,.26-1.77,9.23,9.23,0,0,0,2.45-3.75,6.4,6.4,0,0,0-.54-5.19,5.64,5.64,0,0,0-.58-.8,8.87,8.87,0,0,0-2.17-3.3A10.3,10.3,0,0,0,349,190a6.62,6.62,0,0,0,.25-3,7.59,7.59,0,0,0,.56-1.33,6.31,6.31,0,0,0-.55-5.07,5.57,5.57,0,0,0-.8-1.07,6.32,6.32,0,0,0,.15-1.9,7.31,7.31,0,0,0,.7-1.57c0-.05,0-.1,0-.15a6.57,6.57,0,0,0,.11-4.08c.08-.2.17-.39.22-.59a6.38,6.38,0,0,0-.15-4.18,6.27,6.27,0,0,0-.62-4.76,5.39,5.39,0,0,0-1.62-1.7,6.07,6.07,0,0,0,.24-.78,5.64,5.64,0,0,0,1-1.31,6.29,6.29,0,0,0,.53-5.11,7.83,7.83,0,0,0-1.34-2.48c0-.18-.08-.36-.14-.53A7.65,7.65,0,0,0,347,149a6.41,6.41,0,0,0-.23-2.8,7.76,7.76,0,0,0-1.28-2.38,9.38,9.38,0,0,0,2.38-3.75,6.44,6.44,0,0,0-.28-4.53,9.47,9.47,0,0,0,.49-7.38,12.49,12.49,0,0,0-1-2.2,6.18,6.18,0,0,0-.29-1.5l.07-.21c.06-.22.12-.44.16-.66a7.39,7.39,0,0,0,1.09-2.11,6.14,6.14,0,0,0-.52-5,5.63,5.63,0,0,0-.92-1.16c.09-.22.22-.43.29-.65A10.16,10.16,0,0,0,347.54,113.8ZM193.44,274.34c-1.6-.36-3.34-.11-6.06,1.14a6.18,6.18,0,0,0-.83-3.07,5.53,5.53,0,0,0-3.64-2.65c-1.82-.4-3.8,0-7.06,1.68a6,6,0,0,0-.7-4.15,5.55,5.55,0,0,0-3.63-2.65,6.27,6.27,0,0,0-1.42-.15,5.57,5.57,0,0,0-2.88-1.63,6.47,6.47,0,0,0-2.68,0,6.2,6.2,0,0,0-.5-1.48,6.11,6.11,0,0,0-.82-3.3,5.55,5.55,0,0,0-3.63-2.65,6.62,6.62,0,0,0-2.87,0,6,6,0,0,0-.8-.24c-2-.46-4.23.05-8.29,2.31a5.54,5.54,0,0,0-.87-.42,7.22,7.22,0,0,0,.33-.85,6.28,6.28,0,0,0-.53-5.09,5.56,5.56,0,0,0-3.65-2.66,6.22,6.22,0,0,0-1-.14,6.21,6.21,0,0,0-.74-2,5.51,5.51,0,0,0-3.61-2.63,6,6,0,0,0-1.4-.15,5.53,5.53,0,0,0-2.67-1.45l-.11,0A5.53,5.53,0,0,0,130,239.8a7.53,7.53,0,0,0-4.42.49,6.13,6.13,0,0,0-.82-3.39,5.6,5.6,0,0,0-3.68-2.68,6.93,6.93,0,0,0-3.26.1A6.22,6.22,0,0,0,117,232a5.48,5.48,0,0,0-3.57-2.61,6.2,6.2,0,0,0-2.17-.1,5.53,5.53,0,0,0-2.39-1.5,5.49,5.49,0,0,0-3-1.83h0a5.28,5.28,0,0,0-.65-.63,6.21,6.21,0,0,0-.78-4,5.47,5.47,0,0,0-1.18-1.4,6.55,6.55,0,0,0-.26-2.78,7.78,7.78,0,0,0-.78-1.69,8.59,8.59,0,0,0,2.17-3.4,6.17,6.17,0,0,0-.53-5,5.48,5.48,0,0,0-1.3-1.52,6.2,6.2,0,0,0-.47-2.67,9.12,9.12,0,0,0,2.41-3.81,6.71,6.71,0,0,0,.26-1.41,7.44,7.44,0,0,0,.73-1.61,6.3,6.3,0,0,0-.53-5.1,5.48,5.48,0,0,0-1.44-1.64,8.31,8.31,0,0,0,1.33-2.58,6.39,6.39,0,0,0-.56-5.09A5.47,5.47,0,0,0,102,179.5a11.42,11.42,0,0,0-.87-1.08c0-.17,0-.35-.06-.52s.15-.21.22-.33a6.19,6.19,0,0,0,.35-.71,5.54,5.54,0,0,0,2.53-2.29,6.51,6.51,0,0,0,.57-5.19,9.84,9.84,0,0,0-2.67-4.08,8.68,8.68,0,0,0,1.89-3.2,6.58,6.58,0,0,0,.28-1.93,6.19,6.19,0,0,0,.57-4.66,6.32,6.32,0,0,0-.6-4.84,5.55,5.55,0,0,0-2.77-2.4c.07-.18.13-.35.19-.53a6.38,6.38,0,0,0,.27-2.38,8.58,8.58,0,0,0,1.7-3,6.47,6.47,0,0,0,0-3.86,7.29,7.29,0,0,0,.77-1.65,6.19,6.19,0,0,0-.52-5,5.39,5.39,0,0,0-.54-.76,6.36,6.36,0,0,0-.16-2.95,7.69,7.69,0,0,0-1-2.06q0-.22,0-.45a5.47,5.47,0,0,0,2.13-2.08,6.32,6.32,0,0,0,.55-5,7.74,7.74,0,0,0-1.06-2.18,5.57,5.57,0,0,0,1.41-.88,6,6,0,0,0,1.77-.14,5.6,5.6,0,0,0,1.53-.58,7.19,7.19,0,0,0,4,.31,5.49,5.49,0,0,0,3.6-2.63,6.27,6.27,0,0,0,.81-3.88,5.42,5.42,0,0,0,2.32-1.72,7.62,7.62,0,0,0,4.41.45,5.6,5.6,0,0,0,3.68-2.68,6.57,6.57,0,0,0,.43-.91,6.64,6.64,0,0,0,2.77,0,5.63,5.63,0,0,0,3.71-2.69,6.23,6.23,0,0,0,.57-1.33,5.82,5.82,0,0,0,.84-.13,5.54,5.54,0,0,0,3.64-2.65,6.31,6.31,0,0,0,.37-.74,6.78,6.78,0,0,0,1.51-.17,5.68,5.68,0,0,0,1.86-.79,7.11,7.11,0,0,0,3.65.21,5.57,5.57,0,0,0,3.64-2.66,6.59,6.59,0,0,0,.5-1.09l.55-.1a5.56,5.56,0,0,0,3.65-2.66c.07-.12.14-.25.2-.37a6.48,6.48,0,0,0,3,0,5.48,5.48,0,0,0,3.57-2.61c.09-.15.16-.3.24-.46s.44-.07.66-.12a5.62,5.62,0,0,0,1.94-.85,6.12,6.12,0,0,0,1.1-.15,5.5,5.5,0,0,0,3.59-2.63,6.44,6.44,0,0,0,.55-5.2c-.08-.25-.17-.5-.28-.74a6,6,0,0,0,.52-1.38l3.37-1.54a7.42,7.42,0,0,0,4,.32,5.58,5.58,0,0,0,3.68-2.67,6,6,0,0,0,.6-1.46l.2-.1a6.17,6.17,0,0,0,.69-.1,5.59,5.59,0,0,0,2.76-1.49c2.41,1.06,4,1.25,5.54.91a5.73,5.73,0,0,0,1.61-.63,6.46,6.46,0,0,0,1.82-.15,5.7,5.7,0,0,0,1-.34,5.86,5.86,0,0,0,1,.33,6.16,6.16,0,0,0,1.82.15,5.74,5.74,0,0,0,1.61.63c1.52.34,3.13.15,5.54-.91a5.64,5.64,0,0,0,2.76,1.48,6.22,6.22,0,0,0,.69.11l.2.09a6,6,0,0,0,.6,1.46,5.59,5.59,0,0,0,3.68,2.67,7.39,7.39,0,0,0,4-.32l3.37,1.54a6,6,0,0,0,.52,1.38,7.55,7.55,0,0,0-.28.74,6.45,6.45,0,0,0,.55,5.2,5.5,5.5,0,0,0,3.59,2.63,6.25,6.25,0,0,0,1.1.15,5.61,5.61,0,0,0,1.94.84,6.62,6.62,0,0,0,.66.12c.07.15.15.31.24.46a5.48,5.48,0,0,0,3.57,2.61,6.46,6.46,0,0,0,3,0c.06.13.13.25.2.38a5.55,5.55,0,0,0,3.65,2.66l.56.1a6.22,6.22,0,0,0,.5,1.09A5.57,5.57,0,0,0,244,95.31a7.1,7.1,0,0,0,3.65-.21,5.62,5.62,0,0,0,1.86.79,7.47,7.47,0,0,0,1.51.17,6.52,6.52,0,0,0,.36.74A5.56,5.56,0,0,0,255,99.46a6.12,6.12,0,0,0,.84.13,6.36,6.36,0,0,0,.57,1.32,5.63,5.63,0,0,0,3.72,2.7,6.72,6.72,0,0,0,2.77,0,6.47,6.47,0,0,0,.43.91A5.59,5.59,0,0,0,267,107.2a7.65,7.65,0,0,0,4.41-.45,5.44,5.44,0,0,0,2.33,1.72,6.32,6.32,0,0,0,.81,3.88,5.5,5.5,0,0,0,3.6,2.63,7.2,7.2,0,0,0,4-.32,5.75,5.75,0,0,0,1.53.58,6.23,6.23,0,0,0,1.77.14,5.51,5.51,0,0,0,1.41.88,7.78,7.78,0,0,0-1.07,2.18,6.34,6.34,0,0,0,.55,5,5.45,5.45,0,0,0,2.14,2.08c0,.15,0,.3,0,.45a7.65,7.65,0,0,0-1,2.06,6.37,6.37,0,0,0-.17,2.91,5.6,5.6,0,0,0-.55.78,6.2,6.2,0,0,0-.52,5,7.26,7.26,0,0,0,.77,1.65,6.5,6.5,0,0,0,0,3.86,8.65,8.65,0,0,0,1.7,3,6.48,6.48,0,0,0,.27,2.38c.06.18.12.36.19.53a5.57,5.57,0,0,0-2.77,2.4,6.36,6.36,0,0,0-.59,4.9,6.21,6.21,0,0,0,.55,4.56,6.63,6.63,0,0,0,.28,2,8.66,8.66,0,0,0,1.91,3.22,9.81,9.81,0,0,0-2.66,4.07,6.51,6.51,0,0,0,.57,5.19,5.54,5.54,0,0,0,2.53,2.29,6.26,6.26,0,0,0,.35.72c.06.11.13.2.2.3s0,.39-.06.58a11,11,0,0,0-.82,1,5.43,5.43,0,0,0-2.29,2.14,6.41,6.41,0,0,0-.56,5.09,8.35,8.35,0,0,0,1.33,2.57,5.47,5.47,0,0,0-1.44,1.64,6.3,6.3,0,0,0-.53,5.1,7.55,7.55,0,0,0,.73,1.61,6.7,6.7,0,0,0,.26,1.41,9.15,9.15,0,0,0,2.41,3.81,6.21,6.21,0,0,0-.46,2.67,5.5,5.5,0,0,0-1.3,1.52,6.19,6.19,0,0,0-.53,5,8.62,8.62,0,0,0,2.18,3.41,7.83,7.83,0,0,0-.77,1.69,6.54,6.54,0,0,0-.26,2.75,5.48,5.48,0,0,0-1.2,1.42,6.22,6.22,0,0,0-.78,4,5.33,5.33,0,0,0-.65.63h0a201.77,201.77,0,0,0-5.4,3.33,6.33,6.33,0,0,0-2.17.1,5.49,5.49,0,0,0-3.57,2.62,6.26,6.26,0,0,0-.79,2.36,6.91,6.91,0,0,0-3.25-.09,5.59,5.59,0,0,0-3.68,2.68,6.1,6.1,0,0,0-.81,3.39,7.59,7.59,0,0,0-4.42-.49,5.52,5.52,0,0,0-3.39,2.27l-.11,0a5.52,5.52,0,0,0-2.67,1.45,5.35,5.35,0,0,0-1.4.15,5.52,5.52,0,0,0-3.61,2.63,6.24,6.24,0,0,0-.73,2,6.37,6.37,0,0,0-1,.14,5.55,5.55,0,0,0-3.65,2.66,6.28,6.28,0,0,0-.53,5.09,8.3,8.3,0,0,0,.33.85,5.61,5.61,0,0,0-.86.41c-4.05-2.26-6.25-2.77-8.29-2.31a5.46,5.46,0,0,0-.8.24,6.69,6.69,0,0,0-2.87,0,5.57,5.57,0,0,0-3.63,2.66,6.09,6.09,0,0,0-.82,3.3,6.23,6.23,0,0,0-.5,1.48,6.38,6.38,0,0,0-2.68,0,5.55,5.55,0,0,0-2.88,1.64,5.22,5.22,0,0,0-1.42.15,5.55,5.55,0,0,0-3.63,2.65,6,6,0,0,0-.7,4.15c-3.25-1.69-5.23-2.08-7.06-1.68a5.54,5.54,0,0,0-3.64,2.65,6.18,6.18,0,0,0-.83,3.07c-2.72-1.25-4.46-1.5-6.06-1.14a5.6,5.6,0,0,0-1.91.84A5.7,5.7,0,0,0,193.44,274.34Z"/><path class="cls-1" d="M340.64,246.46A2.79,2.79,0,0,0,337,245l-.06-2.2c-.4-15.74-.44-31.75-.47-47.22,0-14-.06-28.38-.36-42.57-.26-12.09.1-24.41,1.09-37.65l.05-.68c.38-5,.9-11.88-.37-17.59l-.22-1,.91-.43a2.46,2.46,0,0,0,1.34-2.06,1.88,1.88,0,0,0-1.06-1.76C327.95,86.14,318,80,308.42,74.14c-14.15-8.7-28.79-17.69-43.67-25.62-5.53-2.95-11.12-5.86-16.54-8.69-15.77-8.23-32.09-16.74-47.65-26.45l-.73-.46.16-.84a3.07,3.07,0,0,0-.65-2.45,2.17,2.17,0,0,0-1.7-.85,2.74,2.74,0,0,0-.94.18l-.69.28-.59.24-.6.23-.25-.16.15.18-1.52.64c-10.51,4.47-20.15,11.28-28.67,17.28A269.34,269.34,0,0,1,127.88,49C103.35,61.07,79.65,73.29,59.4,89.59l-1.49,1.2v0l-.49.41.5-.12-.05,1.64c-.22,7.05-.77,14.17-1.3,21-.39,5-.79,10.23-1.05,15.37-.49,9.37-.24,19,0,28.31.15,5.65.31,11.49.29,17.22,0,14.84-.31,29.92-.58,44.51-.18,9.52-.36,19.37-.47,29.06v.72l-.62.36a2,2,0,0,0-.85,1.66,2,2,0,0,0,.87,1.79l.52.35a13,13,0,0,0,0,1.48,2,2,0,0,0,.53,1.47,2.28,2.28,0,0,0,1.62.6,2.42,2.42,0,0,0,2.35-1.49c.09-.25,2,1,2,1,5.77,3,11.35,6.55,16.75,10,4,2.51,8.05,5.11,12.17,7.46,8.89,5.08,18.26,9.65,27.33,14.07,4.41,2.14,9,4.37,13.4,6.62,9.8,5,19.23,10.81,28.34,16.47,10.13,6.28,20.57,12.77,31.53,18-10.14-5.8-19.89-12.45-29.36-18.92-11.28-7.7-22.95-15.67-35.23-22.13-4.52-2.37-9.15-4.71-13.63-7-7.71-3.88-15.68-7.89-23.33-12.28-3.64-2.09-7.23-4.33-10.71-6.5a196.29,196.29,0,0,0-18.33-10.54l-.71-.35v-.79c.1-11,.28-22.27.45-33.13.22-14,.46-28.46.51-42.7,0-6.93-.14-14-.29-20.79-.18-8.08-.38-16.43-.26-24.66,0-2,.07-4,.12-6,.23-10.27.47-20.89-1.75-31l-.24-1.1L59,90.57C68.3,87.45,77,82,85.33,76.82c2-1.22,3.9-2.43,5.84-3.62a396.26,396.26,0,0,1,36-19c10.7-5.07,23.08-11.12,34.53-18.7,2.49-1.65,4.93-3.33,7.38-5,8.9-6.13,18.1-12.47,28.62-16.41l.75-.28.57.57c13,13,30.64,21.74,47.71,30.16,4.39,2.16,8.54,4.21,12.63,6.33,13.56,7,26.77,15.18,39.54,23,11.25,6.93,22.89,14.09,34.7,20.47l.64.35v.73A183.86,183.86,0,0,1,332.85,121c-1.54,12.7-1.45,24.8-1.23,36.12.27,13.69.28,27.61.28,41.07,0,16.06,0,32.66.47,49l0,.71-.6.38c-27.23,17.06-49.28,30.77-69.38,43.13-6,3.72-12.2,7.67-18.15,11.5-15.53,10-31.59,20.32-48.38,28.13l-.57.26h0l-1.18.55c.86,0,1.73-.09,2.6-.19l.33,0,1.14.49-.27-.59,1.54-.32c7.86-1.62,15.4-6,21.46-9.54s11.92-7.22,17.68-10.85c5.13-3.23,10.44-6.57,15.75-9.72,23.44-13.88,51.17-30.39,79.1-47.62l.4-.25.46.08a3,3,0,0,0,.48,0,2.26,2.26,0,0,0,2.34-1.69l.11-.52,2-1.24C340.14,249.31,341.23,247.67,340.64,246.46Z"/><path class="cls-1" d="M91,195.21c-.26-5.6-.54-11.4-.48-17.18.11-12.74.42-25.7.72-38.23.24-10.15.49-20.65.64-31v-.92l.88-.26a71.93,71.93,0,0,0,11.9-5.25c2.31-1.19,4.7-2.41,7-3.42A255.14,255.14,0,0,0,135,87.49a580.93,580.93,0,0,0,57.66-37.3l.77-.56.74.59c23.91,19.07,52.76,32,80.66,44.56,8.84,4,18,8.07,26.74,12.28-5.55-5.16-12-8.4-18.59-11.54-10.48-5-21.7-10.37-32.69-16.37l-6.57-3.57C226.9,66.48,209.46,57,194.48,44.5a2.23,2.23,0,0,0-1.45-.57,2.71,2.71,0,0,0-2.26,1.47l-.14.26-.24.17a628.1,628.1,0,0,1-58.23,37.75c-6.78,3.87-13.85,7.23-20.69,10.48l-5.71,2.72c-4.78,2.27-10.21,4.85-13.39,8.9l-.62.79-.91-.43a2.58,2.58,0,0,0-1.09-.23,2.28,2.28,0,0,0-1.62.61,1.81,1.81,0,0,0-.49,1.37c.14,8.35.42,16.85.69,25.07.45,13.58.92,27.62.76,41.43-.08,7,.16,14.15.38,21.1.39,11.76.78,23.93-.3,35.67l-.06.6-.13.08.13.12-.08.83a.92.92,0,0,1,0,.28.53.53,0,0,0,.17.09l.72-.53-.59-.21.23-1.07C92.12,219.25,91.57,207.57,91,195.21Z"/><path class="cls-1" d="M301.66,206.84c0,1.68-.1,3.39-.16,5.12-.26,7-.51,14.17.86,20.8l.2,1.32a92.77,92.77,0,0,0,.75-15.91c0-2.6-.05-5.29,0-7.9.3-9.54.86-19.22,1.4-28.59q.24-4.29.49-8.58c.22-4.12.48-8.22.74-12.31,1.05-16.85,2.14-34.27.93-51.61a2.25,2.25,0,0,0-2.38-2.1,2.45,2.45,0,0,0-1.23.32l-.62.37-.13.75a2.39,2.39,0,0,0,0,.58,514.14,514.14,0,0,1,.46,67.09C302.41,186.49,301.88,196.59,301.66,206.84Z"/><path class="cls-1" d="M127.18,256.84c3.73,2.13,7.6,4.34,11.33,6.55,13.67,8.09,27.61,16.27,41.08,24.17l16.35,9.6a2.41,2.41,0,0,0,1.2.37c1.22,0,2.07-1.38,2.17-2.65l.06-.72.65-.32c17.22-8.31,33.93-18.17,50.1-27.7,5.37-3.16,10.74-6.33,16.15-9.46,3.49-2,7.11-3.87,10.6-5.67a167.84,167.84,0,0,0,14.76-8.22c3.13-2,6.85-5,8.17-7.46l-.46.38a11.38,11.38,0,0,1-3.2,2.05c-2.14.81-4.29,1.82-6.36,2.81-1.4.67-2.85,1.35-4.3,2-5.64,2.43-13.06,5.68-20.37,9.3-11.11,5.49-22,11.83-32.56,18-12,7-24.38,14.16-37.19,20.2l-.6.28-.57-.33c-19.3-11.23-35.27-20.46-50.26-29-3.8-2.18-7.67-4.48-11.42-6.7-13.5-8-27.45-16.3-42.16-21.5l-.22-.08.59.49C101.78,242.34,114.69,249.71,127.18,256.84Z"/><path class="cls-3" d="M199.47,357.58l-.45,0a4.8,4.8,0,0,1-1.14-.24,5.29,5.29,0,0,1-2.56.1,4.83,4.83,0,0,1-3.07-2.09c-3.49,2-5.25,2.36-6.95,2a4.76,4.76,0,0,1-2.57-1.53,5,5,0,0,1-2.19-1.07,6.9,6.9,0,0,1-4,.45,4.91,4.91,0,0,1-3.21-2.34,5.07,5.07,0,0,1-.45-4,6.7,6.7,0,0,1,1.78-2.84c-2-3.51-.16-6.48,5.44-10.52a5.29,5.29,0,0,1-.88-.69c-2.47,1.13-4.11,1.37-5.62,1a5.09,5.09,0,0,1-3.36-2.43,5.18,5.18,0,0,1-.48-4c0-.13.08-.26.13-.39a4.89,4.89,0,0,1-1.74-1.78,5.06,5.06,0,0,1-.47-3.93,5.5,5.5,0,0,1-2.18-.07,4.82,4.82,0,0,1-3.13-2.3,5.22,5.22,0,0,1-.5-4c.78-2.88,3.93-5.47,11.63-10.11a3.75,3.75,0,0,1,.13-1.26,4.44,4.44,0,0,1,3.56-6.53c.72-.5,1.77-1.34,2.47-1.89,3.43-2.72,5.69-4.51,8.46-4a4.79,4.79,0,0,1,2.3,1.13c9.82-6.8,12.58-8.34,15.45-7.71a4.83,4.83,0,0,1,3.13,2.28,5.11,5.11,0,0,1,.57,1.47,4.73,4.73,0,0,1,2.29,2,5.36,5.36,0,0,1,.81,2.71c2.49-1.14,4.13-1.4,5.6-1.06a5,5,0,0,1,3.29,2.39,5.13,5.13,0,0,1,.6,1.61,4.89,4.89,0,0,1,.76,1,5.17,5.17,0,0,1,.54,3.81,5.09,5.09,0,0,1,.44,3.82,6.72,6.72,0,0,1-1.62,2.82,5.07,5.07,0,0,1,2.1,2c1.7,3,.75,5.53-2.84,8.65a5.4,5.4,0,0,1,1.09.13,4.92,4.92,0,0,1,3.21,2.35,5.14,5.14,0,0,1,.48,4,5.91,5.91,0,0,1-.77,1.67,4.81,4.81,0,0,1,1,1.25c2.53,4.38-1.12,7.47-10.46,13.62,1,3.67-3.14,6.07-8.62,9.26l-.64.37a4.45,4.45,0,0,1-2.8,2.33A6.2,6.2,0,0,1,199.47,357.58Z"/><path class="cls-4" d="M284,256.67a5.38,5.38,0,0,0-.47-4.3,5.29,5.29,0,0,0-3.49-2.53c-2.18-.48-4.85.2-9.5,2.76a5.23,5.23,0,0,0-3.13-2c-3.33-.73-7.77,1.38-19.14,9.11a5.38,5.38,0,0,0-3.64-2.58c-4.11-.83-9.16,2.64-21.47,12-4.64,3.53-11.43,8.71-14.31,10a4.44,4.44,0,0,0-5.3,6.41,5.39,5.39,0,0,0,.59.82l-.78.48c-1.63-.05-3,.85-5.34,2.42-.46.31-1.16.78-1.6,1.05a4.44,4.44,0,0,0-2.58,6.47,4.54,4.54,0,0,0,2.87,2.13l.51.09.46.14a4.35,4.35,0,0,0,2.94-.25c.11.41,3.14-.94,6.39-3,.1.25,5.76,3.8,5.9,4.06l2.4,3.69c-2.59,2.58,2.21,6.89,3.5,7.19s2.22,2.27,4.78,1a4.87,4.87,0,0,0,1.06.36,6.68,6.68,0,0,0,4.47-.77,4.83,4.83,0,0,0,3,2.09c1.47.32,2.92,0,4.95-1.06a4.77,4.77,0,0,0,2.71,1.51,5.09,5.09,0,0,0,.9.08c2.29,0,4.24-1.61,6.64-3.58.47-.39,1.15-.94,1.67-1.34a4.44,4.44,0,0,0,3.92-4.94c4.3-3.48,6.4-5.91,4.78-9.12a4.61,4.61,0,0,0,.35-.6,4.39,4.39,0,0,0,.72-1.25l1.52-1.22c2.28-1.81,4.37-3.47,5.24-5.31,3.1-2,4.29-3.31,4.79-5.07,0-.1.05-.2.08-.3,4.47-2.85,6.25-4.74,6.86-6.85a5.26,5.26,0,0,0,0-3.09c2.78-2.18,4.22-4,4.71-5.75a5.36,5.36,0,0,0-.51-4.11,5,5,0,0,0-.48-.69A9.13,9.13,0,0,0,284,256.67Zm-84.13,34a4.27,4.27,0,0,1,1.32,1.14A4.4,4.4,0,0,0,199.87,290.72Z"/><path class="cls-4" d="M193.44,284.4a4.89,4.89,0,0,0-3.19-2.33,6,6,0,0,0-3,.11c-.06-.12-.12-.25-.18-.38a8,8,0,0,0,3.13-4,5,5,0,0,0-.45-4,4.79,4.79,0,0,0-3.12-2.29c-1.92-.44-3.92.1-8.2,2.63a5,5,0,0,0-.55-.16c-1.51-.34-3.05-.08-5.53,1.17-.74-1-3.19-5.6-8.92-5.65-.6,0,.23-1.15.2-1.72a6.55,6.55,0,0,0,1.36-2.46,5.15,5.15,0,0,0-.47-4,4.81,4.81,0,0,0-3.15-2.3h0a5.93,5.93,0,0,0-.67-1.67,4.85,4.85,0,0,0-3.2-2.33,5.43,5.43,0,0,0-2-.07,4.79,4.79,0,0,0-3.74-4.43c-2.1-.48-4.1.19-9.1,3.37a5,5,0,0,0-1.46.08,5,5,0,0,0-3-2.15c-1.81-.4-3.4.11-6.41,2a5.84,5.84,0,0,0-.28-.55,4.74,4.74,0,0,0-3-2.19c-2.44-.53-4.26.78-7.9,3.4-.75.53-1.88,1.35-2.59,1.8a4.38,4.38,0,0,0-1.5.54,4.43,4.43,0,0,0-1.62,6.06,4.34,4.34,0,0,0,.77,1,4.65,4.65,0,0,0-.25,4.87c-1.56,1.94-1.82,3.7-.6,5.81a4.77,4.77,0,0,0,3.09,2.25c1.46.33,5.1-.18,5.55.72a9.13,9.13,0,0,0-3.5,6.43,8.13,8.13,0,0,0-3.06,4.06,5.07,5.07,0,0,0,.47,4,4.84,4.84,0,0,0,3.16,2.31c2,.44,6.48-2.61,10.88-5.24a41.14,41.14,0,0,1,2.63,4.42,36.16,36.16,0,0,0-3.9,2.27,4.44,4.44,0,0,0-2.76,6.52,4.5,4.5,0,0,0,.94,1.13,5,5,0,0,0,2.5,1.58,5,5,0,0,0,.66,2.41,4.85,4.85,0,0,0,3.15,2.29c1.52.34,3,.07,5.52-1.26l.18.33c-2.48,2.56-3,4.74-1.51,7.22A4.88,4.88,0,0,0,142,318.3a5.66,5.66,0,0,0,1.29.15c2.39,0,5.63-1.54,13.66-6.77a5.06,5.06,0,0,0,1.77.75c3.38.71,7-1.73,16.81-8.9,3.47-2.53,8.52-6.21,10.77-7.33a4.44,4.44,0,0,0,5.17-4.44,7.11,7.11,0,0,0,2.48-3.57A4.92,4.92,0,0,0,193.44,284.4Z"/><path class="cls-1" d="M271.78,254.42c-5.12-2.7-12-1.94-17.45-.74-9.78,2.16-18.91,7.32-27.34,12.54a172.56,172.56,0,0,0-16.75,11.65l-1.93,1.57a8.42,8.42,0,0,1,1.9,1.75l1.26-.66c10-5.18,19.83-10.47,30-15.23a100.26,100.26,0,0,1,13.28-5.56,33.42,33.42,0,0,1,11.46-1.6c1.34.1,3.43.15,4.47,1.22l-.08-.1a.65.65,0,0,1,.12.14l0,0c.9,1.12.71,3.18.62,4.48a32.6,32.6,0,0,1-1.23,6.56,45.33,45.33,0,0,1-5.33,11.87,30.27,30.27,0,0,1-9.53,9.9c-1.5-2.12-4.13-3.56-6.35-4.62a37.27,37.27,0,0,0-14.32-3.5,81.08,81.08,0,0,0-22.28,1.87l-.6.13a6.35,6.35,0,0,1-1.28,3.48s-.06,0-.1,0h1.37c3.18,0,6.38.14,9.57.19,5.41.08,10.79.3,16,.82a36.31,36.31,0,0,1,10.51,2.57,22.52,22.52,0,0,1,2.18,1.11l-.11,0c.65.37,1.39.81,1.39,1.34h0c0,.1.64.59.66.7a6.43,6.43,0,0,1,.29,1.33v0l.06,0a7.59,7.59,0,0,1-.7,2.55,17.45,17.45,0,0,1-4.64,6.76c-2.2,2-5.13,3.58-8.17,3.47s-5.84-2.15-8.27-3.79q-8-5.39-16.11-10.53c-1.43-.91-2.86-1.81-4.31-2.69-.73-.45-1.46-.89-2.2-1.33a14.77,14.77,0,0,1-2.5,1.28q1.22,1.39,2.55,2.77c6.56,6.79,14.77,12.82,23.62,15.49,3.2,1,6.34,1.47,9.62.52a22.21,22.21,0,0,0,7.72-4.27c3.41-2.78,8.23-7.78,7.58-12.69l.05,0c.19-.15.35-.3.55-.46,4.65-3.95,8.17-9.36,11.2-14.6s5.91-10.67,7-16.52C275.75,259.81,275.3,256.27,271.78,254.42Z"/><path class="cls-1" d="M183.73,292.25l-1.67,1c-1.5.92-3,1.87-4.49,2.81q-8.13,5.14-16.1,10.53c-2.43,1.64-5.23,3.67-8.27,3.79s-5.95-1.48-8.14-3.47a17.32,17.32,0,0,1-4.59-6.76,11.23,11.23,0,0,1-.68-2.45,3.75,3.75,0,0,1,.16-1.84l.14-.24,0,0a5.56,5.56,0,0,1,1.72-1.45,21.28,21.28,0,0,1,3-1.34,37.32,37.32,0,0,1,9.85-2.27c5.23-.52,10.63-.69,16.07-.77l8.87-.1,1.76,0h.77a8.46,8.46,0,0,1-.64-3.16c-1-.26-2.08-.5-3.14-.74a73.09,73.09,0,0,0-24.86-1.39c-4.86.66-13.64,3.05-16.8,7.91-4.1-2.44-7.53-6.67-9.91-10.59a44.77,44.77,0,0,1-5.13-11.95c-.66-2.49-2.33-8-.44-10.33l-.08.08.16-.18-.08.1c1.18-1.21,3.69-1.21,5.19-1.25a34.15,34.15,0,0,1,10.75,1.63,100.1,100.1,0,0,1,13.28,5.56c9.69,4.54,19.12,9.56,28.6,14.51l4.17,2.16a13.17,13.17,0,0,1,1.47-1.64c-1.32-1.13-2.68-2.23-4.06-3.3-4.66-3.63-9.59-7-14.51-10.05-8.19-5.16-17-10.17-26.34-12.75-6.92-1.9-24.07-4.25-23.26,7.34.41,5.81,3.36,11.5,6.12,16.52a65.93,65.93,0,0,0,10.68,15,25.92,25.92,0,0,0,2.28,2.05,7.8,7.8,0,0,0,.54,3.88c2.07,5.36,7.41,10,12.6,12.29,5.94,2.57,12.17.6,17.71-2.12A66,66,0,0,0,181,298.82c1.18-1.06,2.33-2.15,3.44-3.29.49-.49,1-1,1.42-1.49A8.89,8.89,0,0,1,183.73,292.25Z"/><path class="cls-1" d="M220.08,311A19.51,19.51,0,0,0,210,297.34a22.84,22.84,0,0,0-2.35-1,29,29,0,0,0-6.85-1.6c-.55.12-1.1.22-1.64.32a22.93,22.93,0,0,1,7.54,2.14,17.17,17.17,0,0,1,4.51,3.14,16.88,16.88,0,0,1,2.77,3.54,87.47,87.47,0,0,1-20,2.26c-5.36,0-10.7-1.82-15.94-2.28a16.38,16.38,0,0,1,3.56-4.29,17.41,17.41,0,0,1,4.56-2.8,20.69,20.69,0,0,1,4-1.27,12.88,12.88,0,0,1-1.67-.35,27.32,27.32,0,0,0-3.37.89,19.67,19.67,0,0,0-9.64,6.57c-4.23,5.49-4.78,12.46-4.33,19.11.78,11.36,4.91,25.59,15.23,31.94a16.58,16.58,0,0,0,17,.43c5.11-2.93,8.64-7.91,11.24-13.08C219,332.19,222.14,320.89,220.08,311Zm-10.64,36c-3.42,4.38-8.52,7.67-14.27,7-5.34-.61-9.52-4.32-12.44-8.63,9.36,2.74,19.87,2.87,28.58-1.14A27.85,27.85,0,0,1,209.44,346.95Zm5.77-12.29c-13,3.25-24.79,6.44-37.29-.46l-.34-.15a57.12,57.12,0,0,1-1.48-6.4c4.4,1.91,9.54,2.18,14.63,2.4,8.09.35,17.78,0,25.82-3A55.66,55.66,0,0,1,215.21,334.66Zm1.82-16.6c-12.15,3.87-29,4.66-41.82,1.17q-.1-2.06-.11-4.09a28.78,28.78,0,0,1,.65-5.38c3.19,2.57,8.65,3,12.44,3.6,9.22,1.4,19.54.92,28.32-2.37a34.08,34.08,0,0,1,.53,5.92C217,317.28,217,317.67,217,318.05Z"/><path class="cls-5" d="M193.62,301.92a5.05,5.05,0,0,1-1.11-.13A4.89,4.89,0,0,1,190,300.3a5.19,5.19,0,0,1-2.85.17,4.74,4.74,0,0,1-2.89-1.93,5,5,0,0,1-1.32-.11,4.83,4.83,0,0,1-3.17-2.29,4.89,4.89,0,0,1-.46-3.8,5.59,5.59,0,0,1,.33-.89,4.89,4.89,0,0,1-1.51-.13,4.8,4.8,0,0,1-3-2.18c-1.49-2.58-.8-4.54,1.61-6.69A4.43,4.43,0,0,1,179,278.7a4.39,4.39,0,0,1,1.74-.57c1.28-.71,4-2.54,5.83-3.8,7-4.75,8.93-6,11.46-5.39a4.55,4.55,0,0,1,1.24.49c3.3-1.89,4.76-2.2,6.37-1.82a4.68,4.68,0,0,1,3.58,4.06,4.9,4.9,0,0,1,4.63,2.35,4.85,4.85,0,0,1,.46,3.77c-.4,1.4-1.27,2.56-3.28,4a4.82,4.82,0,0,1,.4.58,5.61,5.61,0,0,1,.65,1.6,4.75,4.75,0,0,1,1.58,1.6,4.44,4.44,0,0,1-3.56,6.65c-1.34.75-4.08,2.65-6,4C198.22,300.34,195.83,301.92,193.62,301.92Z"/><path class="cls-6" d="M185.47,275.27c-.86-1.49-1.55-2.1-1.42-3.12a4.76,4.76,0,0,1-3.4-2.49,3.16,3.16,0,0,1,4.36-4.29,43.28,43.28,0,0,0,2.83-3.27c2.76-3.42,5.13-6.37,8.35-6.11a4.71,4.71,0,0,1,3.76,2.53,6.65,6.65,0,0,1,.74,1.84,5.11,5.11,0,0,1,.55,0c1.36,0,3.32.6,4.91,3.36a5.63,5.63,0,0,1,.81,3.69,4.87,4.87,0,0,1,2.86,2.43,3.16,3.16,0,0,1-3.61,4.61l-.55.94C204.33,277.69,187.07,278,185.47,275.27Zm-.71-8-1.38.79,1.37-.79Z"/><path class="cls-1" d="M206.38,273.53l.08-.18a6.1,6.1,0,0,0,1.28-2.61c.49-2.06,0-4-1.1-4.54a12,12,0,0,0-1.87-3.47,12.16,12.16,0,0,0-1.64-1.73,11.76,11.76,0,0,0-6.53-2.87,12,12,0,0,0-8.17,2.39,10.68,10.68,0,0,0-4.31,5.32,7.27,7.27,0,0,0-.43,3.95,7,7,0,0,0,.15.94,6.3,6.3,0,0,0,1.13,2.43c-4.14,2.54-7.14,6.57-6.7,11.88.67,8.16,9.91,14.52,17.55,15.31a14.94,14.94,0,0,0,16.46-14.79A14.78,14.78,0,0,0,206.38,273.53Zm-10.58-9c2.42,0,6.42.36,8.85,2a5.63,5.63,0,0,0-1.73,3.05,5.44,5.44,0,0,0,.27,3.68,10.58,10.58,0,0,1-1.69.23c-1.69.09-4,.38-5.49.44-2.21.09-4.36.81-6.54.16a4.81,4.81,0,0,1-1.23-.6,5.12,5.12,0,0,0,.42-3.91,6.64,6.64,0,0,0-.79-1.95,17.42,17.42,0,0,1,2.09-1.51A13.13,13.13,0,0,1,195.8,264.5Zm-.91,31a15.4,15.4,0,0,1-8.53-1.23,8.94,8.94,0,0,1-4.83-8.74c.22-2.21,2.61-5.07,4.57-6.42a15,15,0,0,1,4.21-1.94,21.16,21.16,0,0,0,3.42,1.39,11.43,11.43,0,0,0,9.16-1.39c4.62,1.12,8.81,3.54,8.79,8.36C211.63,293.1,201.31,295,194.88,295.52Z"/><path class="cls-3" d="M317.41,128.42a5.11,5.11,0,0,1-1.17-.14,4.75,4.75,0,0,1-3.08-2.26,4.91,4.91,0,0,1-.59-1.6,5.14,5.14,0,0,1-3-2.37,5.29,5.29,0,0,1-.5-4.06c.33-1.2-4.25-2.45-6-2.85a5.25,5.25,0,0,1-4.18-5.22,5.17,5.17,0,0,1-3.91-5.67,6.66,6.66,0,0,1-3.37.2,5,5,0,0,1-3.27-2.39,5.39,5.39,0,0,1-.5-4.19c.81-2.89,4.13-5.7,11.5-10.12a4,4,0,0,1,.36-1.77,4.44,4.44,0,0,1,1.92-5.44A4.52,4.52,0,0,1,304,80c1.38-.82,3.95-2.76,5.74-4.11C316,71.1,319,69,322,69.64a5,5,0,0,1,2.09,1c11.1-7.68,14.68-9.59,17.85-8.9a4.93,4.93,0,0,1,3.25,2.36l0,.06a4.15,4.15,0,0,1,1.21.13,4.93,4.93,0,0,1,3.23,2.36,5.84,5.84,0,0,1,.79,2.25c3.1-1.48,5.12-1.85,6.82-1.47a5.21,5.21,0,0,1,3.44,2.49,5.29,5.29,0,0,1,.63,1.71,5.14,5.14,0,0,1,.68.93,5.28,5.28,0,0,1,.62,3.59l0,0a5.21,5.21,0,0,1,.48,4,7.51,7.51,0,0,1-2,3.28,5.13,5.13,0,0,1,1.78,1.83,5.34,5.34,0,0,1,.51,4.09c-.7,2.58-3.26,5-9.07,8.78a4.23,4.23,0,0,1,.1,1.35,5,5,0,0,1,.37.55l.12.22a4.75,4.75,0,0,1,.86,1.09,4.92,4.92,0,0,1,.42,4c-1,3.2-4.43,5.11-17.49,11.25l-1,.49-2.9,2.09c-5.79,4.19-8.89,6.36-11.32,7C320.59,127.8,318.86,128.42,317.41,128.42Z"/><path class="cls-4" d="M300.05,104.83a4.15,4.15,0,0,1-.68,0A2.85,2.85,0,0,0,300.05,104.83Z"/><path class="cls-4" d="M309,66.79a4.87,4.87,0,0,0-3-2.2l-.18,0a5.67,5.67,0,0,0-.64-1.54,4.26,4.26,0,0,0-.61-.81,4.62,4.62,0,0,0,0-5.17,4.74,4.74,0,0,0-3.05-2.24,5.31,5.31,0,0,0-2.82.13,4.7,4.7,0,0,0-3.59-4.42c-2.21-.52-3.85.17-10.55,4.55l-.1-.12a6.52,6.52,0,0,0-.49-1.07,5,5,0,0,0-3.26-2.37,5.65,5.65,0,0,0-2-.08,4.93,4.93,0,0,0-.65-2,4.85,4.85,0,0,0-3.18-2.32c-2.21-.49-4.53.27-9.82,3.6a7,7,0,0,0-3.1.69,4.82,4.82,0,0,0-2.76-1.74c-2.87-.63-17.9,7.88-17.65,7.46,1.26-2.09-.77-3.38-2.55-3.32s-4.45,2.1-5.16,3A4.44,4.44,0,0,0,232,62.24c-1.84,3.56-2.79,5.61-1.42,8l.15.25a4.48,4.48,0,0,0,.12,4.81,4.8,4.8,0,0,0,3.16,2.3c1.55.35,3.12.06,5.76-1.34a5.42,5.42,0,0,0,1.43-.1,5.53,5.53,0,0,0,.71,2c-1.53,1.62-2.24,3.11-2.14,4.64A7.13,7.13,0,0,0,237.66,86a5.08,5.08,0,0,0,.47,4,4.82,4.82,0,0,0,3.15,2.31c2,.46,4.46.42,8.61-3.36,1.57-1.43,1.29-.11,1.38-.09,2.34.49,6.24,1.37,6.5,3.11a4.53,4.53,0,0,0-.65,5.8,4.8,4.8,0,0,0,2.23,2,4.78,4.78,0,0,0,2.69,1.67,5,5,0,0,0,1.7.11,4.73,4.73,0,0,0,2.64,1.59c2.71.58,5.63-.3,10.15-3.39.16-.11,1.53,1.59,2.31,3.46-.48,1.2-2.56,2.61-1.73,4a4.68,4.68,0,0,0,6.36,1.64,4.19,4.19,0,0,0,.6.18,4.67,4.67,0,0,0,.92.11c.47.58,10.77-4,9.76-6,4.28-2.63,4.46-9,3.7-11,2.09-4.72,3.65-8.44,3.51-8.39.59-1.43,3.77-2.85,2.18-5.38a1.78,1.78,0,0,0-1.85-1c5-3,6.59-4.53,7.19-6.67A4.88,4.88,0,0,0,309,66.79Z"/><path class="cls-4" d="M351.6,135.52a4.87,4.87,0,0,0-3-2.19,5.07,5.07,0,0,0-2.92.17c-1.38.14-2.89.87-5.14,2.33a4.39,4.39,0,0,0-.54-3.62,4.76,4.76,0,0,0-1.4-1.52,6.78,6.78,0,0,0,2.52-3.51,4.73,4.73,0,0,0-3.41-5.95c-1.43-.34-2.63-.23-5.5,1.3l-.08-.15a4.75,4.75,0,0,0-2.92-2.17,6.13,6.13,0,0,0-.62-.12c-.12-.52-9,2.31-19.06-2.86-.6-1-4-1.78-5.11-2.06-1.61-.4-2.57-.07-4.85,1.31-1.51-.05-2.68.7-4.32,1.76l-.9.58a4.41,4.41,0,0,0-1.08,7.71,5.68,5.68,0,0,0-.23,4.13c-2.51,2.61-3.46,4.67-2,7.27a4.75,4.75,0,0,0,3,2.18,4.67,4.67,0,0,0,2,0,4.15,4.15,0,0,0,.06,3.17c-3.88,2.9-6,5.15-6.13,7.49-3,2.06-4.2,3.5-4.68,5.22a5,5,0,0,0,.47,3.85,4.79,4.79,0,0,0,3.07,2.25c1.77.4,3.51,0,7.19-2.2l.48.12a6.23,6.23,0,0,0,3.72-.47c-4,3.18-6.23,5.51-6.41,7.89-2,1.55-3,2.84-3.4,4.3a5,5,0,0,0,0,2.7,4.93,4.93,0,0,0,1.3,4.65,5.06,5.06,0,0,0,.67,2.33,4.91,4.91,0,0,0,3.25,2.35,6.48,6.48,0,0,0,4-.51,4.62,4.62,0,0,0-.6,3.06c-1.75,1.91-2.06,3.74-.75,6a4.73,4.73,0,0,0,3,2.23,5,5,0,0,0,1.16.14c1.75,0,3.88-.95,8.29-3.71a4.94,4.94,0,0,0,1.05.22l.34,0a4.74,4.74,0,0,0,2.7,1.42c2.59.41,4.46-1.27,6.27-2.9l.7-.62a4.44,4.44,0,0,0,3.38-6.2c8.78-4.75,11.88-6.58,12.7-9.47a4.81,4.81,0,0,0-.45-3.74,4.75,4.75,0,0,0-3-2.24,5,5,0,0,0-1.38-.14,4.5,4.5,0,0,0,.14-4.25c5.45-3.09,7.48-5,8.22-7.22l.87-.49a4.37,4.37,0,0,0,1.48-.53,4.43,4.43,0,0,0,1.86-5.59,4.66,4.66,0,0,0-.6-1.83,4.18,4.18,0,0,0-.59-.79C351.2,142.29,353.84,139.4,351.6,135.52Z"/><path class="cls-3" d="M60.69,124a5.17,5.17,0,0,1-1.18-.14,4.83,4.83,0,0,1-2-1,5.87,5.87,0,0,1-1.33-.12,5,5,0,0,1-2-.94,8,8,0,0,1-5,.83,5,5,0,0,1-3.24-2.36,5.1,5.1,0,0,1-.45-4.05,5.89,5.89,0,0,1,.51-1.19,5,5,0,0,1-.4-.59c-1.66-2.88-.49-4.69,0-7.15-.5-.24-4.14.13-6-.27a5.07,5.07,0,0,1-4-4.91l-.39-.08a5,5,0,0,1-3.85-5.65c-2,.84-5.12-.47-6.13-2.5-2.52-5,1.83-8.1,5.08-10.27,1.13-.76,2.4-1.56,3.75-2.39a3.47,3.47,0,0,1,0-.39,4.86,4.86,0,0,1-.35-.52,4.44,4.44,0,0,1,3.41-6.63c.63-.45,1.51-1.16,2.1-1.63,3.19-2.55,5.3-4.24,8-3.73a4.79,4.79,0,0,1,2.35,1.18c9.82-6.81,12.51-8.35,15.37-7.71A4.81,4.81,0,0,1,68,64.11a5.67,5.67,0,0,1,.53,1.21,4.73,4.73,0,0,1,2.59,2.13,5.19,5.19,0,0,1,.77,2.62c4-2.3,6.25-2.86,8.2-2.43a5,5,0,0,1,3,2,4.94,4.94,0,0,1,2.93,2.29,5.11,5.11,0,0,1,.32.65,5,5,0,0,1,2.08,2,4.9,4.9,0,0,1,.74,3.36,6.13,6.13,0,0,1,1.6.11,5.13,5.13,0,0,1,3.43,2.47c1.25,2.17,1.06,4.13-.55,6.25a6.68,6.68,0,0,1,3.61-.29,5,5,0,0,1,3.24,2.36,5.18,5.18,0,0,1,.48,4L101,93a4.8,4.8,0,0,1,1.86,1.82c2.53,4.38-1.11,7.51-10.45,13.61a4.92,4.92,0,0,1-.06,2.13c-.68,2.52-2.83,3.86-8.95,7.36l-.16.09a4.46,4.46,0,0,1-3.09,2.4l0,0c-1.28,1.39-3,3.29-5.75,3a4.81,4.81,0,0,1-.8-.16c-1.17.44-2.19-1.07-3.24-1.3-1.25-.26-1.71,1.1-2.41,0A13.76,13.76,0,0,1,60.69,124Z"/><path class="cls-4" d="M106.18,132.48a5.1,5.1,0,0,0-.46-4,4.94,4.94,0,0,0-3.24-2.36,6.31,6.31,0,0,0-3.22.18c-.08-.17-.17-.34-.27-.52a4.85,4.85,0,0,0-2.58-2.13,6.15,6.15,0,0,0,.75-1.59,5.15,5.15,0,0,0-.45-4.12,4.86,4.86,0,0,0-3.18-2.32,6.46,6.46,0,0,0-3.67.34,4.91,4.91,0,0,0-2.78-1.72c-2.1-.47-2.85,2.32-7.63,5.23-4.46,2.1-9,1.38-19,8.42l-1.44,1c-8.93,4.3-13.21,6.58-15.29,8.69a4.43,4.43,0,0,0-1.64,2.74,5,5,0,0,0,.48,3.81,4.88,4.88,0,0,0,.73,1,5.77,5.77,0,0,0-.51,1.19,5.17,5.17,0,0,0,.45,4.13,4.91,4.91,0,0,0,3.24,2.36,6.05,6.05,0,0,0,3-.13c-4.24,3.44-5.38,6-3.61,9.09a5,5,0,0,0,3,2.22,5.08,5.08,0,0,0,1.18.14c1.81,0,4-1,9-4.2a4.63,4.63,0,0,0,.38,2.24c-3.1,2.44-4.7,4.51-4.77,6.61-2.22,1.7-3.22,3.06-3.65,4.56a5.12,5.12,0,0,0,.47,4,4.84,4.84,0,0,0,3.17,2.31c1.92.43,4-.13,8.15-2.57.07,0,1.77,2,3.57,1.27a6.76,6.76,0,0,0-1.12,3.83c-2.44,2.23-3.12,4.28-1.63,6.87a4.7,4.7,0,0,0,.85,1.07,4.51,4.51,0,0,0,.33.71,4.78,4.78,0,0,0,3.1,2.26l.1,0,0,.06a4.73,4.73,0,0,0,3.1,2.25c1.64.35,3.19-.13,5.29-1.39l.14.26a4.86,4.86,0,0,0,3.27,2.26,5,5,0,0,0,.81.07c2,0,3.48-1.29,4.8-2.44l.31-.28a4.44,4.44,0,0,0,3.06-2.68c2.19-1.72,3.81-3.82,2.32-6.64l.07-.26c7.81-4.12,10.11-5.83,10.88-8.43a4.77,4.77,0,0,0-3.44-6.06c-1.44-.34-2.73-.14-5.25,1.2a5.71,5.71,0,0,0-.73-1.95,4.87,4.87,0,0,0-1.28-1.45,4.4,4.4,0,0,0-.2-4.25c2.12-1.91,3.48-3.5,4-5a7.41,7.41,0,0,0,2.72-3.65,5.14,5.14,0,0,0,.15-.65c2.77-2,4-3.58,4.51-5.27a5.22,5.22,0,0,0-.31-3.77c2.64-2.67,3.22-5,1.71-7.6a4.94,4.94,0,0,0-.74-1A8.09,8.09,0,0,0,106.18,132.48Z"/><path class="cls-1" d="M305.15,79.54a19.52,19.52,0,0,0-6.78,15.57,23.45,23.45,0,0,0,.27,2.55,29,29,0,0,0,2,6.74c.38.41.74.84,1.1,1.27a23,23,0,0,1-1.92-7.6,17.21,17.21,0,0,1,.47-5.47A16.91,16.91,0,0,1,302,88.42a87.45,87.45,0,0,1,12,16.18c2.65,4.66,3.77,10.18,6,14.94a16.38,16.38,0,0,1-5.49-.94,17.41,17.41,0,0,1-4.71-2.55,20.76,20.76,0,0,1-3.1-2.83,13.06,13.06,0,0,1,.53,1.62,27.3,27.3,0,0,0,2.46,2.47,19.68,19.68,0,0,0,10.51,5.06c6.87.92,13.18-2.09,18.72-5.81,9.45-6.35,19.71-17,20-29.15a16.59,16.59,0,0,0-8.11-14.91c-5.09-3-11.17-3.52-16.95-3.2C324.06,69.88,312.7,72.8,305.15,79.54Zm36.46-8.77c5.5.77,10.9,3.54,13.2,8.85,2.14,4.93,1,10.4-1.26,15.08-2.31-9.47-7.45-18.64-15.27-24.18A27.9,27.9,0,0,1,341.61,70.77Zm-13.53,1.15c9.29,9.61,18,18.25,18.24,32.52,0,.12,0,.24,0,.37a57.1,57.1,0,0,1-4.81,4.48c-.54-4.76-2.88-9.35-5.23-13.87-3.74-7.18-8.91-15.38-15.48-20.88A56,56,0,0,1,328.09,71.92ZM312.8,78.65c9.43,8.59,18.54,22.79,21.93,35.63q-1.73,1.12-3.49,2.14a28.82,28.82,0,0,1-5,2.13c.63-4.05-1.69-9-3.1-12.57-3.4-8.69-9-17.38-16.21-23.34a34,34,0,0,1,4.86-3.42Z"/><path class="cls-4" d="M166.35,53.87a5.31,5.31,0,0,0-3.52-2.54,6.53,6.53,0,0,0-2-.11,5.21,5.21,0,0,0-.63-1.73,5.11,5.11,0,0,0-3.35-2.44c-2.31-.52-5,.32-10.5,3.62a9,9,0,0,0-2.23.52,4.89,4.89,0,0,0-2.71-1.62c-2.9-.63-4.47.6-12.89,5.89a31.27,31.27,0,0,0-1.6-2.77,6.18,6.18,0,0,0-4-2.3c-2.25-.15-4.28.27-10.48,4.29A4.89,4.89,0,0,0,109.76,53c-1.66-.38-3.11,0-6,1.69-2.1.13-4.48,1.71-10,5.53L92,61.47a48.28,48.28,0,0,0-4.81,2.7A4.44,4.44,0,0,0,84,69.4a4.69,4.69,0,0,0,.62,2,4.42,4.42,0,0,0,.71.91,5.75,5.75,0,0,0-.75,1.58,5,5,0,0,0,.45,3.95,4.81,4.81,0,0,0,3.12,2.28,10.11,10.11,0,0,0,2.18.11,5.42,5.42,0,0,0-.86,2.7c-.28,4.15,2.11,6.25,3.38,11.83.8,3.52-2.76,7.72-2.89,8.16a5.49,5.49,0,0,0,.48,4.36,5.19,5.19,0,0,0,3.42,2.48,5.8,5.8,0,0,0,1.27.14c1.59,0,3.55-.59,6.33-2,2,.32,4.48-.38,8.08-2.38,3.85.14,8.88-3.41,19.75-11.77l3.53-2.7c14.69-7.3,19.79-10.21,21.52-13.31,3.22-2.2,4.9-4,5.48-5.93h0c3.79-2.64,5.76-4.79,6.4-6.93a5.63,5.63,0,0,0-.45-4.41,7.44,7.44,0,0,0,1.07-2.2A5.65,5.65,0,0,0,166.35,53.87Z"/><path class="cls-1" d="M230.31,63c.22,5.78,4.33,11.38,8.09,15.48,6.76,7.39,15.8,12.72,24.53,17.4a172.5,172.5,0,0,0,18.47,8.68l2.33.89a8.42,8.42,0,0,1,.57-2.52l-1.2-.76c-9.46-6-19-11.93-28.19-18.36a100.45,100.45,0,0,1-11.45-8.72A33.47,33.47,0,0,1,236.33,66c-.58-1.21-1.58-3-1.18-4.48a.7.7,0,0,0,0,.11.65.65,0,0,1,.06-.17l0,.06c.52-1.34,2.4-2.2,3.57-2.77a32.39,32.39,0,0,1,6.3-2.21A45.33,45.33,0,0,1,258,55.23a30.25,30.25,0,0,1,13.34,3.31c-1.09,2.36-1,5.36-.83,7.81a37.28,37.28,0,0,0,4.12,14.15,81.09,81.09,0,0,0,12.76,18.36l.41.45a7.48,7.48,0,0,1,3.93-.8c.05,0-.34.26.32-.07l-.12-.2-.56-1v0c-1.59-2.75-3.35-5.43-4.91-8.22-2.64-4.73-5.28-9.41-7.43-14.18a36.16,36.16,0,0,1-3.1-10.35,21.37,21.37,0,0,1-.19-2.45c0-.75.09-2.94,1.78-3.64a14.45,14.45,0,0,1,2.6-.69,17.46,17.46,0,0,1,8.17.64c2.82.91,5.66,2.66,7.09,5.34s1.06,6.13.85,9.06q-.68,9.6-1.07,19.22c-.07,1.69-.13,3.38-.18,5.08,0,.86,0,1.71-.05,2.57a14.72,14.72,0,0,1,2.36,1.52q.6-1.75,1.12-3.59c2.6-9.08,3.72-19.2,1.61-28.2-.76-3.26-1.9-6.23-4.36-8.59a22.22,22.22,0,0,0-7.56-4.55C284,54.69,277.21,53,273.28,56l-.06,0c-.22-.09-.44-.15-.68-.25-5.74-2.05-12.19-2.39-18.24-2.4-5.89,0-12.19.22-17.78,2.23C233,56.91,230.16,59.08,230.31,63Z"/><path class="cls-1" d="M307.1,120.39l1.71.94c1.55.84,3.12,1.67,4.68,2.48q8.52,4.47,17.17,8.68c2.64,1.28,5.8,2.69,7.42,5.27s1.69,5.89,1.07,8.78a17.33,17.33,0,0,1-3.56,7.35,11.28,11.28,0,0,1-1.78,1.81,3.76,3.76,0,0,1-1.68.78h-.31a5.56,5.56,0,0,1-2.12-.76,21.19,21.19,0,0,1-2.63-1.89,37.35,37.35,0,0,1-6.89-7.39c-3.06-4.27-5.91-8.86-8.71-13.53-1.52-2.54-3-5.1-4.53-7.63l-.9-1.51-.4-.66a8.46,8.46,0,0,1-2.42,2.14q.44,1.53.93,3.09a73.1,73.1,0,0,0,11.22,22.22c3,3.88,9.46,10.28,15.25,10.6-.06,4.77-2,9.86-4.22,13.88a44.77,44.77,0,0,1-7.78,10.42c-1.83,1.81-5.79,6-8.73,5.54l.11,0-.24,0,.13,0c-1.64-.42-2.89-2.59-3.68-3.87a34.2,34.2,0,0,1-4-10.13,100.1,100.1,0,0,1-1.82-14.28c-.91-10.65-1.28-21.34-1.73-32-.07-1.56-.14-3.13-.21-4.69a13.11,13.11,0,0,1-2.16-.45c-.32,1.71-.59,3.43-.83,5.17-.81,5.85-1.23,11.78-1.45,17.59-.37,9.67-.33,19.77,2.13,29.18,1.81,6.94,8.36,23,18,16.47,4.83-3.26,8.28-8.66,11.25-13.56a65.86,65.86,0,0,0,7.68-16.77,26.28,26.28,0,0,0,.64-3,7.8,7.8,0,0,0,3.09-2.41c3.61-4.48,5-11.43,4.34-17.06-.74-6.43-5.57-10.84-10.69-14.28a66,66,0,0,0-16.33-7.48c-1.51-.49-3-.94-4.57-1.33-.67-.18-1.33-.34-2-.48A8.92,8.92,0,0,1,307.1,120.39Z"/><path class="cls-5" d="M292.29,132.83a5.15,5.15,0,0,1-1.08-.12,4.81,4.81,0,0,1-3.15-2.24,4.44,4.44,0,0,1-.32-4.23l-.21-.1a5.54,5.54,0,0,1-1.44-.12,5,5,0,0,1-3.27-2.32,4.53,4.53,0,0,1-.24-4.41,5.6,5.6,0,0,1-1-.12,5,5,0,0,1-3.3-2.33,4.81,4.81,0,0,1,.61-5.71,4.74,4.74,0,0,1-2-1.85,4.47,4.47,0,0,1,1.69-6.18,4.69,4.69,0,0,1,1.78-.58c1.22-.67,3.68-2.32,5.39-3.46,6.3-4.21,8.43-5.63,11.11-5a4.8,4.8,0,0,1,3.09,2.22,4.51,4.51,0,0,1,.67,2.72,5.47,5.47,0,0,1,1.75.08,5,5,0,0,1,3.29,2.33,4.51,4.51,0,0,1,.41,4,5.53,5.53,0,0,1,1.68.1,5,5,0,0,1,3.3,2.34,4.74,4.74,0,0,1,.48,3.72,5.06,5.06,0,0,1-.32.86,4.86,4.86,0,0,1,1,1.19c2.38,4-1.86,7.08-3.45,8.23l-.4.29a4.51,4.51,0,0,1-2.29,3.49,4.68,4.68,0,0,1-1.82.58c-1,.58-2.67,1.76-3.77,2.53C296.53,131.38,294.46,132.83,292.29,132.83Z"/><path class="cls-6" d="M282.71,133.56a3.21,3.21,0,0,1-1.54-.39,4.05,4.05,0,0,1-1.33.22h0a4.47,4.47,0,0,1-3.91-2.59,4.93,4.93,0,0,1-.69-3.29,3.34,3.34,0,0,1-.88.09c-1.16,0-2.82-.49-4.14-2.77a4.81,4.81,0,0,1-.51-4.15,4.5,4.5,0,0,1,.76-1.35,3.92,3.92,0,0,1-2-1.72,3,3,0,0,1,3.24-4.36c.49-.49,1.1-1.17,1.52-1.64,2-2.19,3.82-4.26,6.25-4a3.83,3.83,0,0,1,2.93,2,4.74,4.74,0,0,1,.64,3.31,5.07,5.07,0,0,1,3.22,2.67,4.94,4.94,0,0,1,.55,4.14l0,.08a4.52,4.52,0,0,1,3.75,2.59,4.3,4.3,0,0,1,.36,3.94l-.07.15.08.14a3,3,0,0,1,.37,1.06c.67,1.83.27,3.16-1.2,3.95s-2.72.42-3.85-1a3.87,3.87,0,0,1-3,3A3.4,3.4,0,0,1,282.71,133.56Z"/><path class="cls-1" d="M279.56,110.14l-.2,0a6.12,6.12,0,0,0-2.9.2c-2,.61-3.43,2-3.38,3.22a14.71,14.71,0,0,0-2.06,3.36,14.22,14.22,0,0,0-.67,2.29,11.1,11.1,0,0,0,.78,7.09,12,12,0,0,0,6.16,5.88,15.59,15.59,0,0,0,2.48.85,11.15,11.15,0,0,0,4.28.23,7.26,7.26,0,0,0,3.64-1.6,7.06,7.06,0,0,0,.74-.6,6.28,6.28,0,0,0,1.54-2.2c4.27,2.32,9.25,2.9,13.64-.14,6.73-4.66,7.63-15.84,4.49-22.85a14.94,14.94,0,0,0-21-6.86A14.79,14.79,0,0,0,279.56,110.14ZM277,123.81c-1.22-2.09-2.9-5.74-2.65-8.68a5.62,5.62,0,0,0,3.51,0,5.44,5.44,0,0,0,3.06-2.08,10.68,10.68,0,0,1,1,1.35c.92,1.42,2.35,3.31,3.12,4.54,1.18,1.87,2.88,3.37,3.41,5.59a4.82,4.82,0,0,1,.1,1.37,5.12,5.12,0,0,0-3.6,1.59,6.63,6.63,0,0,0-1.29,1.66,17.35,17.35,0,0,1-2.35-1.05A13.11,13.11,0,0,1,277,123.81Zm27.33-14.72a15.39,15.39,0,0,1,3.2,8,8.94,8.94,0,0,1-5.15,8.55c-2,.91-5.7.27-7.85-.75a15,15,0,0,1-3.78-2.68,21.27,21.27,0,0,0-.5-3.66,11.43,11.43,0,0,0-5.78-7.24c-1.34-4.56-1.34-9.4,2.84-11.79C293.89,95.8,300.7,103.78,304.36,109.09Z"/><path class="cls-1" d="M85.71,194.42c4.9-3.08,7.69-9.44,9.36-14.75,3-9.55,3.11-20,2.81-29.94a172.24,172.24,0,0,0-1.72-20.33c-.13-.82-.26-1.64-.39-2.46a8.4,8.4,0,0,1-2.46.77c0,.47,0,.95-.06,1.42-.49,11.21-.84,22.41-1.8,33.59A100.5,100.5,0,0,1,89.63,177a33.44,33.44,0,0,1-4.35,10.73c-.75,1.11-1.85,2.89-3.29,3.26l.12,0a.71.71,0,0,1-.18,0l.06,0c-1.42.22-3.11-1-4.19-1.7a32.3,32.3,0,0,1-5.06-4.35,45.33,45.33,0,0,1-7.62-10.55,30.26,30.26,0,0,1-3.81-13.2c2.59-.23,5.15-1.8,7.18-3.19a37.25,37.25,0,0,0,10.19-10.65,81.13,81.13,0,0,0,9.53-20.23l.18-.58a7.5,7.5,0,0,1-2.66-3s.4.16-.22-.24l-.12.2-.56,1v0c-1.59,2.75-3,5.62-4.66,8.36-2.78,4.65-5.51,9.28-8.57,13.53a36.24,36.24,0,0,1-7.41,7.86,21.09,21.09,0,0,1-2,1.39c-.65.36-2.59,1.39-4,.28A14.34,14.34,0,0,1,56.24,154a17.45,17.45,0,0,1-3.53-7.4c-.63-2.9-.53-6.23,1.09-8.81s4.78-4,7.42-5.27q8.65-4.21,17.18-8.68c1.5-.79,3-1.57,4.48-2.38.75-.41,1.5-.82,2.25-1.24a14.74,14.74,0,0,1,.14-2.81q-1.81.36-3.67.82c-9.16,2.28-18.49,6.38-25.22,12.71-2.44,2.29-4.44,4.76-5.26,8.07A22.22,22.22,0,0,0,51,147.8c.7,4.34,2.62,11,7.2,12.91a.39.39,0,0,0,0,.06c0,.24.08.46.13.71,1.09,6,4,11.75,7,17s6.28,10.45,10.82,14.28C79.06,195.17,82.35,196.54,85.71,194.42Z"/><path class="cls-1" d="M97,99.25c0-.64,0-1.3,0-1.95,0-1.76-.12-3.53-.19-5.3q-.39-9.62-1.07-19.21c-.21-2.92-.57-6.37.85-9.06s4.26-4.41,7.07-5.31a17.34,17.34,0,0,1,8.15-.6,11.3,11.3,0,0,1,2.46.64,3.76,3.76,0,0,1,1.52,1.06l.14.24v0a5.6,5.6,0,0,1,.4,2.22,21.39,21.39,0,0,1-.32,3.23,37.34,37.34,0,0,1-3,9.66c-2.17,4.79-4.72,9.55-7.36,14.31-1.44,2.58-2.91,5.16-4.35,7.74l-.86,1.53-.37.67a8.47,8.47,0,0,1,3.06,1q1.11-1.15,2.21-2.35A73.12,73.12,0,0,0,119,77c1.86-4.54,4.17-13.34,1.55-18.51,4.16-2.33,9.54-3.19,14.13-3.29a44.75,44.75,0,0,1,12.91,1.53c2.48.67,8.12,2,9.17,4.79a.39.39,0,0,0,0-.11c0,.08.05.16.08.23a.6.6,0,0,0-.05-.12c.46,1.63-.8,3.8-1.51,5.12a34.19,34.19,0,0,1-6.79,8.5A100.09,100.09,0,0,1,137,83.87C128.2,90,119.13,95.64,110.1,101.38l-4,2.53a13,13,0,0,1,.69,2.09c1.64-.58,3.27-1.2,4.89-1.86,5.47-2.22,10.82-4.83,16-7.54C136.25,92.09,145,87,151.9,80.16c5.11-5,15.71-18.72,5.27-23.81-5.24-2.55-11.64-2.84-17.37-3a65.89,65.89,0,0,0-18.36,1.73,26.06,26.06,0,0,0-2.92.95,7.81,7.81,0,0,0-3.63-1.47C109.22,53.71,102.5,56,98,59.36c-5.2,3.86-6.6,10.24-7,16.4a66.08,66.08,0,0,0,1.69,17.88c.33,1.55.7,3.1,1.13,4.62.18.66.37,1.32.58,2A9,9,0,0,1,97,99.25Z"/><path class="cls-1" d="M62.57,121.36a19.51,19.51,0,0,0,16.87-1.92,22.85,22.85,0,0,0,2.07-1.51,28.92,28.92,0,0,0,4.81-5.13c.17-.53.36-1.06.55-1.58a22.92,22.92,0,0,1-5.62,5.46,17.17,17.17,0,0,1-5,2.33,16.89,16.89,0,0,1-4.45.63,87.51,87.51,0,0,1,8-18.45c2.71-4.62,6.93-8.36,9.94-12.66a16.35,16.35,0,0,1,1.93,5.23,17.39,17.39,0,0,1,.15,5.35,20.92,20.92,0,0,1-.9,4.1,12.77,12.77,0,0,1,1.14-1.27A27.16,27.16,0,0,0,93,98.55a19.67,19.67,0,0,0-.87-11.63c-2.64-6.4-8.4-10.37-14.39-13.31-10.22-5-24.61-8.55-35.27-2.78a16.59,16.59,0,0,0-8.85,14.48c0,5.89,2.54,11.44,5.7,16.27C44.76,109.82,53,118.19,62.57,121.36ZM36.75,94.17C34.66,89,34.37,83,37.82,78.31c3.2-4.32,8.5-6.08,13.69-6.45-7.05,6.74-12.42,15.77-13.3,25.31A27.91,27.91,0,0,1,36.75,94.17Zm7.76,11.14c3.67-12.85,6.82-24.69,19-32.06l.3-.22A57.47,57.47,0,0,1,70.14,75c-3.85,2.85-6.66,7.17-9.4,11.46-4.35,6.83-8.86,15.41-10.34,23.85A55.52,55.52,0,0,1,44.51,105.31ZM58,115.18c2.72-12.46,10.47-27.45,19.9-36.81q1.83.94,3.6,2a28.69,28.69,0,0,1,4.34,3.25c-3.83,1.48-7,6-9.34,9C70.66,99.83,65.91,109,64.38,118.26a33.84,33.84,0,0,1-5.39-2.5Z"/><path class="cls-5" d="M94.18,129.5a5.07,5.07,0,0,1-1.11-.13,4.69,4.69,0,0,1-2.54-1.52,5.13,5.13,0,0,1-2.65.1A4.74,4.74,0,0,1,85,126a5.18,5.18,0,0,1-1.41-.11,4.83,4.83,0,0,1-3.17-2.29,4.89,4.89,0,0,1-.46-3.8,5.71,5.71,0,0,1,.29-.79,4.74,4.74,0,0,1-1.66-.12,4.65,4.65,0,0,1-3-2.18c-1.61-2.79-.07-5.12,1.61-6.7a4.44,4.44,0,0,1,4-4.29c1.28-.71,4-2.55,5.87-3.83,7-4.77,9-6,11.51-5.42a4.66,4.66,0,0,1,1.24.48c3.34-1.92,4.8-2.22,6.43-1.84a4.67,4.67,0,0,1,3,2.2,4.81,4.81,0,0,1,.61,1.82,5,5,0,0,1,1.69.11,4.72,4.72,0,0,1,3,2.23,4.84,4.84,0,0,1,.46,3.77c-.38,1.35-1.21,2.48-3.07,3.89-1.68.92-7.58,12.9-9.24,14.75C97.82,129.39,96.42,129.5,94.18,129.5Z"/><path class="cls-6" d="M109.42,135.63h0a4.56,4.56,0,0,1-4-2.61,6,6,0,0,1-.56-1.27,5.36,5.36,0,0,1-.76.05c-1.33,0-2.78-.93-4.81-3.29-1.09-1.27,5.42-13.94,5.74-14.12.63-.7,1.32-1.54,1.83-2.16,2.58-3.13,4.78-5.83,7.81-5.59a4.46,4.46,0,0,1,3.54,2.38,5.46,5.46,0,0,1,.55,4.93,5,5,0,0,1-.24.52,7.89,7.89,0,0,1,1.6,2,5.68,5.68,0,0,1,.59,5.09,5.52,5.52,0,0,1-1.56,2.17,6.81,6.81,0,0,1,.67,1,3.09,3.09,0,0,1-3.5,4.52q-.26.18-.55.34l-.5.85C113.8,133,112.26,135.63,109.42,135.63Z"/><path class="cls-1" d="M101.87,128.22l.12.16a6.12,6.12,0,0,0,1.62,2.41c1.54,1.46,3.44,2,4.48,1.32,1.3.25,5.23.13,6.25-.45a11.43,11.43,0,0,0,7.77-12.5,18,18,0,0,0-2.45-6.4,9.18,9.18,0,0,0-4.09-2.69,6.29,6.29,0,0,0-2.67-.24c-.13-4.85-2.12-9.46-6.94-11.74-7.4-3.5-17.53,1.32-22,7.54A14.94,14.94,0,0,0,88.5,127.3,14.79,14.79,0,0,0,101.87,128.22ZM115,123.57c-1.2,2.1-3.52,5.39-6.19,6.64a5.63,5.63,0,0,0-1.78-3,5.44,5.44,0,0,0-3.33-1.61,10.85,10.85,0,0,1,.65-1.58c.77-1.51,1.7-3.69,2.37-5,1-2,1.48-4.18,3.13-5.75a4.82,4.82,0,0,1,1.14-.77,5.12,5.12,0,0,0,3.18,2.32,6.61,6.61,0,0,0,2.08.29,17.38,17.38,0,0,1,.26,2.56A13.1,13.1,0,0,1,115,123.57Zm-26.41-16.3a15.41,15.41,0,0,1,5.33-6.78,8.94,8.94,0,0,1,10,.19c1.8,1.3,3.08,4.8,3.28,7.17a15,15,0,0,1-.43,4.62,21.31,21.31,0,0,0-2.92,2.27,11.44,11.44,0,0,0-3.38,8.63c-3.28,3.44-7.47,5.86-11.63,3.43C82.29,123,85.8,113.09,88.57,107.27Z"/><path class="cls-1" d="M188.34,264.44a18.29,18.29,0,0,0-.75-6.34,12.89,12.89,0,0,0-1.21-2.78,11,11,0,0,0-1.74-2.33,8.87,8.87,0,0,0-2.3-1.67c-.84-.44-1.62-.93-2.45-1.45l-2.59-1.66c-.46-.29-.92-.58-1.39-.92a13.68,13.68,0,0,1-1.45-1.07l.07-.44a10.92,10.92,0,0,1,1.81-.47,14.49,14.49,0,0,1,1.82-.11,11.89,11.89,0,0,1,3.62.67,8.79,8.79,0,0,1,3.22,2,17.68,17.68,0,0,1,2.42,3,14.38,14.38,0,0,1,1.66,3.35,15.47,15.47,0,0,1,.69,3.56,16.48,16.48,0,0,1-1,6.84Z"/><path class="cls-1" d="M201.9,264.55a16.49,16.49,0,0,1-1-6.84,15.47,15.47,0,0,1,.69-3.56,14.32,14.32,0,0,1,1.66-3.35,17.68,17.68,0,0,1,2.42-3,8.79,8.79,0,0,1,3.22-2,11.88,11.88,0,0,1,3.62-.67,14.49,14.49,0,0,1,1.82.11,11,11,0,0,1,1.81.47l.07.44a13.57,13.57,0,0,1-1.45,1.07c-.47.34-.94.63-1.39.92l-2.59,1.66c-.83.52-1.62,1-2.45,1.45A8.89,8.89,0,0,0,206,253a11.09,11.09,0,0,0-1.74,2.33,12.89,12.89,0,0,0-1.21,2.78,18.27,18.27,0,0,0-.75,6.34Z"/><path class="cls-1" d="M118.72,117.37a18.27,18.27,0,0,0,5.87,2.52,12.91,12.91,0,0,0,3,.35,11.08,11.08,0,0,0,2.88-.34,8.87,8.87,0,0,0,2.6-1.16c.8-.5,1.61-.94,2.48-1.4l2.73-1.41c.48-.25,1-.51,1.49-.74a13.63,13.63,0,0,1,1.66-.72l.34.28a11,11,0,0,1-.5,1.8,14.57,14.57,0,0,1-.82,1.64,11.91,11.91,0,0,1-2.39,2.8,8.78,8.78,0,0,1-3.31,1.81,17.63,17.63,0,0,1-3.78.62,14.33,14.33,0,0,1-3.73-.24,15.51,15.51,0,0,1-3.43-1.19,16.48,16.48,0,0,1-5.43-4.29Z"/><path class="cls-1" d="M111.84,129.06a16.48,16.48,0,0,1,6.42,2.56A15.47,15.47,0,0,1,121,134a14.32,14.32,0,0,1,2.07,3.11,17.68,17.68,0,0,1,1.35,3.58,8.8,8.8,0,0,1,.09,3.77,11.88,11.88,0,0,1-1.23,3.47,14.54,14.54,0,0,1-1,1.53,11,11,0,0,1-1.31,1.34l-.41-.16a13.56,13.56,0,0,1-.2-1.79c-.06-.58-.08-1.13-.1-1.67l-.14-3.07c0-1-.06-1.9,0-2.85a8.87,8.87,0,0,0-.3-2.83,11.06,11.06,0,0,0-1.15-2.67,12.87,12.87,0,0,0-1.81-2.44,18.27,18.27,0,0,0-5.12-3.82Z"/><path class="cls-1" d="M280.67,129.48a18.29,18.29,0,0,0-5.12,3.82,12.87,12.87,0,0,0-1.81,2.44,11.06,11.06,0,0,0-1.15,2.67,8.87,8.87,0,0,0-.3,2.83c0,.95,0,1.87,0,2.85l-.14,3.07c0,.54,0,1.09-.1,1.67a13.69,13.69,0,0,1-.2,1.79l-.41.16a11,11,0,0,1-1.31-1.34,14.54,14.54,0,0,1-1-1.53,11.87,11.87,0,0,1-1.23-3.47,8.78,8.78,0,0,1,.09-3.77,17.64,17.64,0,0,1,1.35-3.58,14.34,14.34,0,0,1,2.07-3.11,15.5,15.5,0,0,1,2.74-2.37,16.47,16.47,0,0,1,6.43-2.56Z"/><path class="cls-1" d="M274,117.68a16.5,16.5,0,0,1-5.43,4.28,15.51,15.51,0,0,1-3.43,1.19,14.33,14.33,0,0,1-3.73.24,17.67,17.67,0,0,1-3.78-.62,8.79,8.79,0,0,1-3.31-1.81,11.87,11.87,0,0,1-2.39-2.8,14.45,14.45,0,0,1-.82-1.64,11,11,0,0,1-.5-1.8l.34-.28a13.63,13.63,0,0,1,1.66.72c.53.23,1,.49,1.49.74l2.73,1.41c.86.46,1.68.9,2.48,1.4a8.89,8.89,0,0,0,2.6,1.16,11,11,0,0,0,2.88.34,12.91,12.91,0,0,0,3-.35,18.27,18.27,0,0,0,5.87-2.52Z"/><path class="cls-1" d="M220.08,311A19.51,19.51,0,0,0,210,297.34a22.84,22.84,0,0,0-2.35-1,29,29,0,0,0-6.85-1.6c-.55.12-1.1.22-1.64.32a22.93,22.93,0,0,1,7.54,2.14,17.17,17.17,0,0,1,4.51,3.14,16.88,16.88,0,0,1,2.77,3.54,87.47,87.47,0,0,1-20,2.26c-5.36,0-10.7-1.82-15.94-2.28a16.38,16.38,0,0,1,3.56-4.29,17.41,17.41,0,0,1,4.56-2.8,20.69,20.69,0,0,1,4-1.27,12.88,12.88,0,0,1-1.67-.35,27.32,27.32,0,0,0-3.37.89,19.67,19.67,0,0,0-9.64,6.57c-4.23,5.49-4.78,12.46-4.33,19.11.78,11.36,4.91,25.59,15.23,31.94a16.58,16.58,0,0,0,17,.43c5.11-2.93,8.64-7.91,11.24-13.08C219,332.19,222.14,320.89,220.08,311Zm-10.64,36c-3.42,4.38-8.52,7.67-14.27,7-5.34-.61-9.52-4.32-12.44-8.63,9.36,2.74,19.87,2.87,28.58-1.14A27.85,27.85,0,0,1,209.44,346.95Zm5.77-12.29c-13,3.25-24.79,6.44-37.29-.46l-.34-.15a57.12,57.12,0,0,1-1.48-6.4c4.4,1.91,9.54,2.18,14.63,2.4,8.09.35,17.78,0,25.82-3A55.66,55.66,0,0,1,215.21,334.66Zm1.82-16.6c-12.15,3.87-29,4.66-41.82,1.17q-.1-2.06-.11-4.09a28.78,28.78,0,0,1,.65-5.38c3.19,2.57,8.65,3,12.44,3.6,9.22,1.4,19.54.92,28.32-2.37a34.08,34.08,0,0,1,.53,5.92C217,317.28,217,317.67,217,318.05Z"/><path class="cls-2" d="M194,465.64a5.26,5.26,0,0,1-2.42,4.34,7.83,7.83,0,0,1-4.73,1.6,1.58,1.58,0,0,1-1.16-.68v.34h-2.58q0-1.84.26-5.51t.26-5.51a65.33,65.33,0,0,0-.53-8.36l2.56-.32q.45,3.89.5,7a9.81,9.81,0,0,1,2-.18,5.14,5.14,0,0,1,4.15,2.52A8,8,0,0,1,194,465.64Zm-2.58,0a5,5,0,0,0-1.14-3.16,3.31,3.31,0,0,0-2.64-1.47,3,3,0,0,0-1.45.39q-.05,2.5-.39,6.28.21.37.45.74t.6.47a5.74,5.74,0,0,0,2.92-.84A2.85,2.85,0,0,0,191.46,465.64Z"/><path class="cls-2" d="M205.86,464.09a2.3,2.3,0,0,1-.53,1.7,2.34,2.34,0,0,1-1.68.51q-1.08,0-3-.05-2.1-.08-3-.08a2.76,2.76,0,0,0,1.5,2.29,5.41,5.41,0,0,0,2.76.66,8.84,8.84,0,0,0,2.73-1l1,2.42-1.81.79a5.25,5.25,0,0,1-1.92.45,7.25,7.25,0,0,1-4.84-1.55,5.71,5.71,0,0,1-2-4.65,8.11,8.11,0,0,1,1.87-5.23,6.07,6.07,0,0,1,4.86-2.45,3.48,3.48,0,0,1,3.31,2.1A9.37,9.37,0,0,1,205.86,464.09Zm-2.63-.42-.24-2q-.26-1.16-1.24-1.16a3.85,3.85,0,0,0-2.43.88,4.17,4.17,0,0,0-1.49,2.17q.74,0,2.37.08t2.37.05Z"/><path class="cls-2" d="M218,464.09a2.3,2.3,0,0,1-.53,1.7,2.34,2.34,0,0,1-1.68.51q-1.08,0-3-.05-2.1-.08-3-.08a2.76,2.76,0,0,0,1.5,2.29,5.41,5.41,0,0,0,2.76.66,8.84,8.84,0,0,0,2.73-1l1,2.42-1.81.79a5.25,5.25,0,0,1-1.92.45,7.25,7.25,0,0,1-4.84-1.55,5.71,5.71,0,0,1-2-4.65A8.11,8.11,0,0,1,209,460.3a6.07,6.07,0,0,1,4.86-2.45,3.48,3.48,0,0,1,3.31,2.1A9.37,9.37,0,0,1,218,464.09Zm-2.63-.42-.24-2q-.26-1.16-1.24-1.16a3.85,3.85,0,0,0-2.43.88,4.17,4.17,0,0,0-1.49,2.17q.74,0,2.37.08t2.37.05Z"/><path class="cls-2" d="M236.81,460.21,234.93,462a4.66,4.66,0,0,0-1.78-1.39,7.1,7.1,0,0,0-2.22-.24,3.29,3.29,0,0,0-1.2.16,1,1,0,0,0-.57,1q0,.84,1.68,1.16a18.39,18.39,0,0,1,3.79.89,4.1,4.1,0,0,1,2.18,4,3.91,3.91,0,0,1-1.3,2.91,4.16,4.16,0,0,1-3,1.25q-3.26,0-6.76-3.34l1.76-1.92q2.76,2.63,5,2.63a1.75,1.75,0,0,0,1.12-.48,1.38,1.38,0,0,0,.57-1.06,2.34,2.34,0,0,0-.43-1.59,2.26,2.26,0,0,0-1.49-.58q-.68-.05-2.05-.21-3.68-.66-3.68-3.71,0-3.76,4.34-3.76a9.1,9.1,0,0,1,3.24.45A7.26,7.26,0,0,1,236.81,460.21Z"/><path class="cls-2" d="M254.53,468q0,1.32-.13,3.79l-2.63-.1q.16-2.94.16-5.23,0-3.92-1.21-5.6l-.39-.55q-.42,0-1.29,1.34a12.82,12.82,0,0,0-1,1.76q-.16,1.92-.16,3.1,0,.84-.12,2.51t-.12,2.51H245q0-1.13.18-3.37t.18-3.34q0-3.13-1.08-4.26a2.38,2.38,0,0,0-.47-.45,2.41,2.41,0,0,0-1.41.59,2.18,2.18,0,0,0-.91,1.22q-.05.32-.14.68a.61.61,0,0,1-.41.47q-.11,1.13-.11,2.66,0,.89.05,2.72t.05,2.75h-2.63V463q0-.26.18-1.71l.08-3.47,2.63.11v.47a4.25,4.25,0,0,1,2.45-.87,3.75,3.75,0,0,1,3.31,2.34q1.6-2.16,3.34-2.16Q254.53,457.72,254.53,468Z"/><path class="cls-2" d="M266.23,471.13l-2.56.26-.14-1.18a4.5,4.5,0,0,1-3.42,1.53,3.66,3.66,0,0,1-2.87-1.24,4.41,4.41,0,0,1-1.1-3.05,4.19,4.19,0,0,1,1.25-3.17,4.43,4.43,0,0,1,3.19-1.2,6.85,6.85,0,0,1,2.58.45,3.65,3.65,0,0,0-1.06-2.16,2.81,2.81,0,0,0-2.06-1q-.82,0-.91.12a6.36,6.36,0,0,0-.28,1.41l-2.55-.5a5.6,5.6,0,0,1,1-2.78,3.52,3.52,0,0,1,2.71-.87q3.55,0,5.28,4.19a6,6,0,0,1,.42,1.21q0,.55,0,1.61t0,1.61a17.23,17.23,0,0,0,.18,2.19Q266,469.53,266.23,471.13Zm-3.47-4.87a4,4,0,0,0-2.2-.55,1.9,1.9,0,0,0-1.47.44,2.43,2.43,0,0,0-.38,1.57q0,1.38,1.19,1.38a2.6,2.6,0,0,0,1.91-.87A3.23,3.23,0,0,0,262.76,466.26Z"/><path class="cls-2" d="M277.27,459.2l-1.67,2q-1.18-1.13-1.72-1.13a6.53,6.53,0,0,0-2.53.5,2.56,2.56,0,0,0-1.72,1.81,5.54,5.54,0,0,0,0,1.26v1.29l.05,6.78h-2.58q0-.74-.05-9.1l-.24-.08.24-.6V458h2.58v.5a8,8,0,0,1,4.27-1.08A5.49,5.49,0,0,1,277.27,459.2Z"/><path class="cls-2" d="M288.24,470.92a8.22,8.22,0,0,1-3.1.87,4.88,4.88,0,0,1-4.36-1.95,8.89,8.89,0,0,1-1.08-4.86q0-.68.05-1.89.05-1.37.08-1.89a27.5,27.5,0,0,1-2.76-.39l.45-2.6q1.5.29,2.31.37V455h2.58v3.6a48.45,48.45,0,0,0,5.1-.58l.39,2.58a46.63,46.63,0,0,1-5.47.66q0,.66-.1,2.29-.05,1.45-.05,2.29a4,4,0,0,0,.6,2.45,2.76,2.76,0,0,0,2.28.84,6.12,6.12,0,0,0,2.09-.66Z"/><path class="cls-7" d="M306.06,454.6h-2.92a2.57,2.57,0,0,0-2.42,1.07,6.9,6.9,0,0,0-.63,2.74q2.47-.11,4.13-.13v2.63q-1.6,0-4.29.16v.45q0,1.66.08,5t.08,5h-2.58q0-1.57-.08-5.14-.08-3.33-.08-5.14-2,0-2.87,0l-.18-2.63a29.13,29.13,0,0,1,3.15-.05q.55-6.63,4.94-6.63.6,0,1.83.05t1.83.05Z"/><path class="cls-7" d="M316.79,464.09a2.3,2.3,0,0,1-.53,1.7,2.34,2.34,0,0,1-1.68.51q-1.08,0-3-.05-2.1-.08-3-.08a2.76,2.76,0,0,0,1.5,2.29,5.41,5.41,0,0,0,2.76.66,8.84,8.84,0,0,0,2.73-1l1,2.42-1.81.79a5.25,5.25,0,0,1-1.92.45,7.25,7.25,0,0,1-4.84-1.55,5.71,5.71,0,0,1-2-4.65,8.11,8.11,0,0,1,1.87-5.23,6.07,6.07,0,0,1,4.86-2.45A3.48,3.48,0,0,1,316,460,9.37,9.37,0,0,1,316.79,464.09Zm-2.63-.42-.24-2q-.26-1.16-1.24-1.16a3.85,3.85,0,0,0-2.43.88,4.17,4.17,0,0,0-1.49,2.17q.74,0,2.37.08t2.37.05Z"/><path class="cls-7" d="M328.91,464.09a2.3,2.3,0,0,1-.53,1.7,2.34,2.34,0,0,1-1.68.51q-1.08,0-3-.05-2.1-.08-3-.08a2.76,2.76,0,0,0,1.5,2.29,5.41,5.41,0,0,0,2.76.66,8.84,8.84,0,0,0,2.73-1l1,2.42-1.81.79a5.25,5.25,0,0,1-1.92.45,7.25,7.25,0,0,1-4.84-1.55,5.71,5.71,0,0,1-2-4.65,8.11,8.11,0,0,1,1.87-5.23,6.07,6.07,0,0,1,4.86-2.45,3.48,3.48,0,0,1,3.31,2.1A9.37,9.37,0,0,1,328.91,464.09Zm-2.63-.42-.24-2q-.26-1.16-1.24-1.16a3.85,3.85,0,0,0-2.43.88,4.17,4.17,0,0,0-1.49,2.17q.74,0,2.37.08t2.37.05Z"/><path class="cls-7" d="M333.3,452a28.38,28.38,0,0,1-.37,3,17.29,17.29,0,0,0-.24,2.45v13.88h-2.13v-14a18.9,18.9,0,0,1,.26-2.73q.29-1.95.34-2.73Z"/><path class="cls-7" d="M353.28,469.21a17.42,17.42,0,0,1-.84,6.1,4.63,4.63,0,0,1-4.6,3.26,10.43,10.43,0,0,1-2.94-.55,4.47,4.47,0,0,1-2.5-1.42,4.72,4.72,0,0,1-.55-1.87l-.16-2,2.56-.37a24.09,24.09,0,0,0,.29,2.68l1.59.58a5.49,5.49,0,0,0,1.67.32q2.77,0,2.82-5.68a5,5,0,0,1-7.48-.28,5.91,5.91,0,0,1-1.67-4.14,7,7,0,0,1,1.71-5,10.45,10.45,0,0,1,4.5-2.5,3.38,3.38,0,0,1,1-.16h.55a14.85,14.85,0,0,1,1.37,1.13v-.63h2.58q0,1.76,0,5.24T353.28,469.21Zm-2.73-4.52a3.51,3.51,0,0,0-.82-2.1l-1.55-1.68-.79.29a5.43,5.43,0,0,0-2.34,1.66,4.18,4.18,0,0,0-1,2.73,3.74,3.74,0,0,0,.81,2.45,2.81,2.81,0,0,0,2.26,1.08,2.94,2.94,0,0,0,2.6-1.39A5.29,5.29,0,0,0,350.55,464.69Z"/><path class="cls-7" d="M366.08,465.36a8.82,8.82,0,0,1-.95,4.35,3.94,3.94,0,0,1-3.65,2.13h-.66l-.66,0q-2.18,0-3.65-2.53a8.85,8.85,0,0,1-1.29-4.56,7.31,7.31,0,0,1,.95-4.06,5.85,5.85,0,0,1,3.5-2.21,11.61,11.61,0,0,1,2.39-.45,1.66,1.66,0,0,1,1.5.79Q366.08,460.6,366.08,465.36Zm-2.58.22a11,11,0,0,0-.34-2.6q-.39-1.71-1-2.05l-.52-.29-1.36.37a3.32,3.32,0,0,0-2.12,1.31,5.51,5.51,0,0,0-.37,2.39,6.57,6.57,0,0,0,.71,2.79q.76,1.66,1.65,1.66l.65,0,.65,0Q363.51,469.21,363.51,465.59Z"/><path class="cls-7" d="M378.47,465.36a8.82,8.82,0,0,1-.95,4.35,3.94,3.94,0,0,1-3.65,2.13h-.66l-.66,0q-2.18,0-3.66-2.53a8.85,8.85,0,0,1-1.29-4.56,7.31,7.31,0,0,1,.95-4.06,5.85,5.85,0,0,1,3.5-2.21,11.61,11.61,0,0,1,2.39-.45,1.66,1.66,0,0,1,1.5.79Q378.47,460.6,378.47,465.36Zm-2.58.22a11,11,0,0,0-.34-2.6q-.39-1.71-1-2.05l-.52-.29-1.36.37a3.32,3.32,0,0,0-2.12,1.31,5.51,5.51,0,0,0-.37,2.39,6.57,6.57,0,0,0,.71,2.79q.76,1.66,1.65,1.66l.65,0,.65,0Q375.89,469.21,375.89,465.59Z"/><path class="cls-7" d="M391.53,467.37v4.26H389V470.4a6.78,6.78,0,0,1-4.15,1.39,4.29,4.29,0,0,1-3.58-1.74,6.32,6.32,0,0,1-1.21-3.92,9.29,9.29,0,0,1,.87-3.6,13.62,13.62,0,0,1,1.85-3.18,2.72,2.72,0,0,1,2.14-1.18h2.19a5.2,5.2,0,0,1,1.74.26q-.18-7.23-.18-6.6h2.58q0,1.66.09,4.94t.09,4.92q0,.92.08,2.81T391.53,467.37ZM389,464.43a13.56,13.56,0,0,0-.34-3.1,6.41,6.41,0,0,0-3.21-.53H385a10.36,10.36,0,0,0-1,1.3,10.78,10.78,0,0,0-.89,1.46,5.82,5.82,0,0,0-.5,2.58q0,2.95,2.15,2.94a3.81,3.81,0,0,0,3-1.43A4.78,4.78,0,0,0,389,464.43Z"/></svg>