<svg id="Layer_1" data-name="Layer 1" xmlns="http://www.w3.org/2000/svg" viewBox="0 0 391.53 478.57"><defs><style>.cls-1{fill:#231f20;}.cls-2{fill:#ff9026;}.cls-3{fill:#ffdc02;}.cls-4{fill:#f1f1f2;}.cls-5{fill:#a78701;}.cls-6{fill:#806800;}.cls-7{fill:#089d39;}</style></defs><title>full logo</title><path class="cls-1" d="M47.72,394.79l-8.15,7.68q-4.18-4.78-7.69-6-2.71-1-9.61-1a14.24,14.24,0,0,0-5.2.68,4.31,4.31,0,0,0-2.49,4.33q0,3.65,7.29,5,13.21,2.28,16.4,3.87,9.45,4.78,9.45,17.42a16.93,16.93,0,0,1-5.64,12.58,18,18,0,0,1-12.81,5.41q-14.12,0-29.27-14.46l7.63-8.31q12,11.39,21.64,11.39a7.56,7.56,0,0,0,4.84-2.06,6,6,0,0,0,2.45-4.59q0-4.82-1.88-6.88t-6.43-2.52q-3-.23-8.88-.91Q3.41,413.51,3.42,400.3,3.42,384,22.22,384q9.18,0,14,1.95Q41.83,388.14,47.72,394.79Z"/><path class="cls-1" d="M98.05,427q0,3-.11,8.88t-.11,8.88H86.67q0-3.88.34-11.76t.34-11.87q0-24.54-6.38-24.54-10.25,0-13.89,4.79.11,5,.11,10.85,0,5.36-.11,16.1T67,444.37H55.8V416.25c0-4.71-.42-25.09-1-34.74q-.68-13-.68-20.39h11q0,9.11,1.25,26.54a41.91,41.91,0,0,1,15.49-2.51Q98.05,385.15,98.05,427Z"/><path class="cls-1" d="M148.39,442.1l-11.11,1.13-.61-5.12a19.51,19.51,0,0,1-14.81,6.61,15.87,15.87,0,0,1-12.42-5.35,19.1,19.1,0,0,1-4.78-13.21q0-8.54,5.41-13.72t13.84-5.18a29.63,29.63,0,0,1,11.16,1.94,15.81,15.81,0,0,0-4.61-9.34q-4.16-4.44-8.94-4.44-3.53,0-3.93.51t-1.2,6.09l-11-2.18q1.48-8.82,4.44-12Q113.2,384,121.51,384q15.38,0,22.89,18.14a25.73,25.73,0,0,1,1.82,5.25q0,2.4-.11,7t-.11,7a74.86,74.86,0,0,0,.8,9.47Q147.36,435.14,148.39,442.1Zm-15-21.09a17.24,17.24,0,0,0-9.51-2.37q-4.7,0-6.36,1.92t-1.66,6.78q0,6,5.16,6a11.24,11.24,0,0,0,8.25-3.78A14,14,0,0,0,133.36,421Z"/><path class="cls-1" d="M196.22,390.39,189,399q-5.09-4.9-7.46-4.9a28.31,28.31,0,0,0-11,2.16q-6.56,2.85-7.47,7.86a24,24,0,0,0-.11,5.47v5.58l.23,29.38H152c0-2.12-.23-59.33-.23-59.33H163v2.16q7.6-4.67,18.5-4.67Q187.82,382.76,196.22,390.39Z"/><path class="cls-1" d="M235.4,411.58q0,5.12-2.28,7.35t-7.29,2.22q-4.67,0-13.1-.23-9.11-.34-13.1-.34a11.94,11.94,0,0,0,6.49,9.91,23.41,23.41,0,0,0,12,2.85q2.73,0,11.84-4.44l4.33,10.48q-3.87,1.71-7.86,3.42a22.75,22.75,0,0,1-8.31,1.94q-13,0-21-6.72-8.66-7.17-8.66-20.16a35.13,35.13,0,0,1,8.09-22.66q8.65-10.59,21.07-10.59,9.79,0,14.35,9.11Q235.4,400.64,235.4,411.58ZM224,409.75,223,401q-1.14-5-5.35-5a16.68,16.68,0,0,0-10.53,3.81,18.05,18.05,0,0,0-6.43,9.41q3.19,0,10.25.34,6.6.22,10.25.22Z"/><path class="cls-1" d="M287.79,418.29q0,11-10.48,18.79a33.91,33.91,0,0,1-20.5,6.95q-2.51,0-5-3v1.48H240.64q0-8,1.14-23.86t1.14-23.86a282.93,282.93,0,0,0-2.28-36.22l11.1-1.37q1.94,16.86,2.17,30.41a42.47,42.47,0,0,1,8.7-.8q10.07,0,18,10.93Q287.78,407.82,287.79,418.29Zm-11.16,0a21.88,21.88,0,0,0-5-13.67q-5-6.38-11.45-6.38A12.76,12.76,0,0,0,254,400q-.23,10.82-1.71,27.22.91,1.6,1.94,3.19,1.25,2.05,2.62,2a24.9,24.9,0,0,0,12.64-3.64Q276.62,424.45,276.62,418.29Z"/><path class="cls-1" d="M339,411.58q0,5.12-2.28,7.35t-7.29,2.22q-4.67,0-13.1-.23-9.11-.34-13.1-.34a11.94,11.94,0,0,0,6.49,9.91,23.42,23.42,0,0,0,12,2.85q2.73,0,11.84-4.44l4.33,10.48q-3.87,1.71-7.86,3.42a22.76,22.76,0,0,1-8.31,1.94q-13,0-21-6.72-8.66-7.17-8.65-20.16a35.13,35.13,0,0,1,8.08-22.66q8.65-10.59,21.07-10.59,9.79,0,14.35,9.11Q339,400.64,339,411.58Zm-11.39-1.82-1-8.74q-1.14-5-5.35-5a16.68,16.68,0,0,0-10.53,3.81,18,18,0,0,0-6.43,9.41q3.19,0,10.25.34,6.6.22,10.25.22Z"/><path class="cls-1" d="M391.53,411.58q0,5.12-2.28,7.35T382,421.14q-4.67,0-13.1-.23-9.12-.34-13.1-.34a11.94,11.94,0,0,0,6.49,9.91,23.42,23.42,0,0,0,12,2.85q2.73,0,11.84-4.44l4.33,10.48q-3.87,1.71-7.86,3.42a22.76,22.76,0,0,1-8.31,1.94q-13,0-21-6.72-8.66-7.17-8.65-20.16a35.13,35.13,0,0,1,8.08-22.66q8.65-10.59,21.07-10.59,9.79,0,14.35,9.11Q391.53,400.64,391.53,411.58Zm-11.39-1.82-1-8.74q-1.14-5-5.35-5a16.68,16.68,0,0,0-10.54,3.81,18,18,0,0,0-6.43,9.41q3.19,0,10.25.34,6.6.22,10.25.22Z"/><path class="cls-2" d="M348.06,113.58a8.79,8.79,0,0,0,.41-.88,8.38,8.38,0,0,0,1.86-3,6.39,6.39,0,0,0,.23-2.86,9.55,9.55,0,0,0-.42-4.22,16.49,16.49,0,0,0-3.85-5.95,9.38,9.38,0,0,0,2.67-4,6.26,6.26,0,0,0-.55-5,5.47,5.47,0,0,0-1.13-1.38,6.34,6.34,0,0,0-.74-2,5.56,5.56,0,0,0-1.86-1.94c-.08-.16-.16-.32-.25-.48a5.56,5.56,0,0,0-3.58-2.65,6.26,6.26,0,0,0-.61-1.44,5.56,5.56,0,0,0-3.63-2.65,6.77,6.77,0,0,0-3.17.09c-.08-.17-.16-.33-.26-.49A5.5,5.5,0,0,0,331.66,73a6.19,6.19,0,0,0-.67-1.69,5.55,5.55,0,0,0-3.62-2.65c-1.84-.42-3.94,0-7.44,1.78a6.3,6.3,0,0,0-.83-2.67,5.58,5.58,0,0,0-3.68-2.68,6.51,6.51,0,0,0-2.38-.08,5.59,5.59,0,0,0-3.48-2.37,6.27,6.27,0,0,0-1.54-.15,5.1,5.1,0,0,0-.42-.41,6.19,6.19,0,0,0-.72-4.25,5.51,5.51,0,0,0-3.6-2.63c-2-.45-4-.11-8.19,2.17a5.67,5.67,0,0,0-1.39-.51,6,6,0,0,0-1.73-.14,5.66,5.66,0,0,0-.28-.55l0-.08a7.57,7.57,0,0,0,.88-1.85,6.31,6.31,0,0,0-.53-5.14,5.53,5.53,0,0,0-3.6-2.64,6.2,6.2,0,0,0-1.09-.16l-.12-.21a5.53,5.53,0,0,0-3.6-2.64,5.41,5.41,0,0,0-1.44-.16l-.08-.14a5.52,5.52,0,0,0-3.61-2.63,6.83,6.83,0,0,0-3.4.14,5.9,5.9,0,0,0-1.16-.39c-1.72-.38-3.62-.07-6.56,1.33a5.79,5.79,0,0,0-1.9-.84v0a5.64,5.64,0,0,0-3.74-2.71h0a5.53,5.53,0,0,0-.66-.53l-.2-.37a5.61,5.61,0,0,0-3.24-2.58,5.59,5.59,0,0,0-2.34-2,6.2,6.2,0,0,0-.8-3.81,5.53,5.53,0,0,0-3.6-2.64c-1.68-.38-3.46-.15-6.69,1.41a5.63,5.63,0,0,0-1.86-.95A5.57,5.57,0,0,0,239.61,25a5.69,5.69,0,0,0-3.46-2.24l-.18,0a9.06,9.06,0,0,0-1.21-4.12,8.86,8.86,0,0,0-5.6-4.2,8.68,8.68,0,0,0-5.23-3.19,11.57,11.57,0,0,0-2.55-.21l-.23-.42a8.62,8.62,0,0,0-5.9-4.17l-.45-.08a8.73,8.73,0,0,0-.86-2,8.37,8.37,0,0,0-5.72-4c-3.16-.66-7.44.28-12.84,2.61C190,.49,185.64-.46,182.47.21a8.37,8.37,0,0,0-5.72,4,8.74,8.74,0,0,0-.86,2l-.45.08a8.62,8.62,0,0,0-5.9,4.17c-.08.14-.16.28-.23.43a11.64,11.64,0,0,0-2.54.21,8.69,8.69,0,0,0-5.24,3.19,8.87,8.87,0,0,0-5.6,4.2,9,9,0,0,0-1.2,4.13l-.2,0a5.69,5.69,0,0,0-3.47,2.24,5.61,5.61,0,0,0-2.67,1.67,5.67,5.67,0,0,0-1.86.95c-3.22-1.56-5-1.79-6.69-1.41a5.53,5.53,0,0,0-3.6,2.63,6.21,6.21,0,0,0-.8,3.81,5.55,5.55,0,0,0-2.33,2,5.6,5.6,0,0,0-3.25,2.58c-.07.12-.14.25-.2.37a5,5,0,0,0-.67.53h0a5.66,5.66,0,0,0-3.74,2.71v0a5.76,5.76,0,0,0-1.9.84c-2.94-1.41-4.83-1.72-6.56-1.33a5.72,5.72,0,0,0-1.16.39,6.82,6.82,0,0,0-3.4-.14,5.5,5.5,0,0,0-3.6,2.63l-.08.14a5.27,5.27,0,0,0-1.44.16,5.54,5.54,0,0,0-3.6,2.64l-.12.22a6.57,6.57,0,0,0-1.08.15,5.55,5.55,0,0,0-3.61,2.64,6.34,6.34,0,0,0-.53,5.14A7.65,7.65,0,0,0,99,56.13l0,.08c-.1.18-.2.36-.28.55A6.19,6.19,0,0,0,97,56.9a5.82,5.82,0,0,0-1.39.5c-4.22-2.28-6.23-2.62-8.19-2.17a5.52,5.52,0,0,0-3.6,2.63,6.19,6.19,0,0,0-.72,4.25,5.13,5.13,0,0,0-.42.41,6,6,0,0,0-1.54.15,5.59,5.59,0,0,0-3.48,2.37,6.47,6.47,0,0,0-2.38.08,5.59,5.59,0,0,0-3.68,2.68,6.33,6.33,0,0,0-.83,2.67c-3.5-1.78-5.6-2.2-7.44-1.78a5.57,5.57,0,0,0-3.62,2.65A6.1,6.1,0,0,0,59,73a5.56,5.56,0,0,0-1.54,1.71,5.14,5.14,0,0,0-.25.49A6.83,6.83,0,0,0,54,75.15a5.55,5.55,0,0,0-3.63,2.65,6.42,6.42,0,0,0-.61,1.44,5.56,5.56,0,0,0-3.57,2.64,5,5,0,0,0-.25.48,5.57,5.57,0,0,0-1.86,1.94,6.48,6.48,0,0,0-.74,2,5.48,5.48,0,0,0-1.13,1.38,6.26,6.26,0,0,0-.55,5,9.4,9.4,0,0,0,2.69,4,16.51,16.51,0,0,0-3.85,5.94,9.59,9.59,0,0,0-.43,4.16,6.4,6.4,0,0,0,.22,2.9,8.46,8.46,0,0,0,1.9,3.09,8.88,8.88,0,0,0,.4.85,8.53,8.53,0,0,0,.56.85c.07.22.19.42.28.63a5.52,5.52,0,0,0-.94,1.18,6.17,6.17,0,0,0-.52,5,7.39,7.39,0,0,0,1.09,2.12c0,.22.1.44.16.66l.07.21a6.29,6.29,0,0,0-.3,1.59,12.46,12.46,0,0,0-1,2.14,9.49,9.49,0,0,0,.48,7.37,6.46,6.46,0,0,0-.29,4.57,9.44,9.44,0,0,0,2.4,3.78,7.77,7.77,0,0,0-1.27,2.38,6.35,6.35,0,0,0-.23,2.81,7.54,7.54,0,0,0-.63,1.47c-.05.18-.1.36-.14.53a8,8,0,0,0-1.34,2.49,6.31,6.31,0,0,0,.53,5.13,5.57,5.57,0,0,0,1.05,1.32,6.08,6.08,0,0,0,.23.77,5.41,5.41,0,0,0-1.64,1.71,6.29,6.29,0,0,0-.63,4.78,6.44,6.44,0,0,0-.15,4.19c.06.21.16.42.24.63a6.6,6.6,0,0,0,.09,4c0,.07,0,.15.05.22a7.55,7.55,0,0,0,.7,1.57,6.46,6.46,0,0,0,.16,1.91,5.58,5.58,0,0,0-.8,1.07,6.33,6.33,0,0,0-.55,5.08,7.24,7.24,0,0,0,.56,1.33,6.57,6.57,0,0,0,.25,3,10.37,10.37,0,0,0,3.33,4.54,9,9,0,0,0-2.14,3.22,5.64,5.64,0,0,0-.64.88,6.44,6.44,0,0,0-.54,5.21,9.27,9.27,0,0,0,2.46,3.76,5,5,0,0,0,.28,1.79,7.78,7.78,0,0,0-1.09,2.21,6.47,6.47,0,0,0-.24,2.54,8.91,8.91,0,0,0-1.72,3.09,6.57,6.57,0,0,0,.51,5.08,9.77,9.77,0,0,0,.44,4.1,12.48,12.48,0,0,0,1.14,2.46c0,.2-.05.4-.08.6a7.17,7.17,0,0,0-.84,1.71,6.1,6.1,0,0,0,.52,4.93,5.79,5.79,0,0,0,.63.88,6.3,6.3,0,0,0,.19,3.49,5,5,0,0,0,.06,4.93,9,9,0,0,0-2.23,3.47,6.41,6.41,0,0,0,.54,5.19,5.61,5.61,0,0,0,.9,1.17,6.08,6.08,0,0,0,.57,1.31,5.61,5.61,0,0,0,.86,1.13,6.31,6.31,0,0,0,.65,4.69A5.51,5.51,0,0,0,48,265a5.56,5.56,0,0,0,3.14,1.95c1.55.36,3.21.19,6-1.08a5.79,5.79,0,0,0,.29.57,5.52,5.52,0,0,0,3.6,2.63,6.23,6.23,0,0,0,.92.14,5.62,5.62,0,0,0,3.19,2,6.44,6.44,0,0,0,2,.12,6.16,6.16,0,0,0,.6,4.73,5.54,5.54,0,0,0,3.63,2.65,6.94,6.94,0,0,0,3.57-.2,6.32,6.32,0,0,0,.71,1.84,5.56,5.56,0,0,0,3.62,2.65,8.42,8.42,0,0,0,5.07-.68,5.78,5.78,0,0,0,1.82.75,5.93,5.93,0,0,0,.67.11,5.68,5.68,0,0,0,2.87,1.58l.33.07a6.23,6.23,0,0,0,.57,1.31,5.52,5.52,0,0,0,1.58,1.74,6.07,6.07,0,0,0,.67,1.72,5.62,5.62,0,0,0,3.7,2.69c1.71.38,3.55.08,6.35-1.26a5.53,5.53,0,0,0,2.49,2.15,5.58,5.58,0,0,0,2.88,1.64,6.34,6.34,0,0,0,2.38.08,6.08,6.08,0,0,0,.62,1.51,5.62,5.62,0,0,0,1.45,1.66,6.12,6.12,0,0,0,.48,1,5.57,5.57,0,0,0,3.31,2.58,5.53,5.53,0,0,0,3.53,2.5,6.16,6.16,0,0,0,2,.12,5.64,5.64,0,0,0,3.45,2.28,7.16,7.16,0,0,0,3.65-.2,6.3,6.3,0,0,0,.85,3.09,5.57,5.57,0,0,0,3.66,2.67,7,7,0,0,0,3.51-.17,5.52,5.52,0,0,0,2.31,2.17l.17.31a5.52,5.52,0,0,0,3.61,2.64c1.93.44,4,0,7.71-2a5.54,5.54,0,0,0,1.49,1.22,8,8,0,0,0-1.2,2.4,6.28,6.28,0,0,0,.56,5,8.8,8.8,0,0,0,6,4.26,15,15,0,0,0,6.2-.25,9.36,9.36,0,0,0,1.17,3.3,8.28,8.28,0,0,0,3.64,3.38,8.6,8.6,0,0,0,2.47,1.76,9,9,0,0,0,4.18,2,12.26,12.26,0,0,0,3.44.17,8.46,8.46,0,0,0,5.46,3.6,10.68,10.68,0,0,0,2.19.21,25.45,25.45,0,0,0,8.77-2,25.43,25.43,0,0,0,8.77,2,10.7,10.7,0,0,0,2.19-.21,8.46,8.46,0,0,0,5.46-3.6,12.06,12.06,0,0,0,3.44-.17,9,9,0,0,0,4.18-2,8.54,8.54,0,0,0,2.46-1.75A8.27,8.27,0,0,0,225.5,331a9.35,9.35,0,0,0,1.17-3.3,15.17,15.17,0,0,0,6.2.25,8.8,8.8,0,0,0,6-4.26,6.28,6.28,0,0,0,.56-5,8,8,0,0,0-1.2-2.4,5.57,5.57,0,0,0,1.49-1.22c3.69,2,5.79,2.39,7.71,2a5.52,5.52,0,0,0,3.61-2.64l.17-.32a5.47,5.47,0,0,0,2.31-2.16,7,7,0,0,0,3.52.17,5.56,5.56,0,0,0,3.66-2.67,6.3,6.3,0,0,0,.85-3.09,7.11,7.11,0,0,0,3.65.19,5.63,5.63,0,0,0,3.45-2.28,6.26,6.26,0,0,0,2-.13,5.54,5.54,0,0,0,3.53-2.5,5.58,5.58,0,0,0,3.3-2.58,5.85,5.85,0,0,0,.48-1,5.53,5.53,0,0,0,1.45-1.66,6,6,0,0,0,.62-1.5,6.35,6.35,0,0,0,2.38-.08,17.14,17.14,0,0,0,5.37-3.79c2.8,1.35,4.63,1.64,6.35,1.26a5.62,5.62,0,0,0,3.7-2.69,6.08,6.08,0,0,0,.67-1.72,5.49,5.49,0,0,0,1.58-1.75,6.32,6.32,0,0,0,.57-1.31l.33-.07a5.66,5.66,0,0,0,2.87-1.58,6.51,6.51,0,0,0,.67-.11,5.81,5.81,0,0,0,1.82-.75,8.41,8.41,0,0,0,5.07.68,5.56,5.56,0,0,0,3.63-2.65,6.28,6.28,0,0,0,.71-1.84,7,7,0,0,0,3.57.2A5.53,5.53,0,0,0,323,276a6.15,6.15,0,0,0,.6-4.73,6.26,6.26,0,0,0,2-.12,5.62,5.62,0,0,0,3.19-2,6.44,6.44,0,0,0,.92-.14,5.53,5.53,0,0,0,3.6-2.64c.11-.18.2-.37.29-.56,2.79,1.26,4.44,1.43,6,1.08a5.59,5.59,0,0,0,3.14-2,5.5,5.5,0,0,0,3.27-2.55,6.3,6.3,0,0,0,.65-4.7,5.41,5.41,0,0,0,.86-1.13,5.84,5.84,0,0,0,.56-1.31,5.48,5.48,0,0,0,.9-1.17,6.41,6.41,0,0,0,.54-5.2,9.08,9.08,0,0,0-2.23-3.47,5,5,0,0,0,0-4.89,6.3,6.3,0,0,0,.2-3.52,6,6,0,0,0,.62-.88,6.11,6.11,0,0,0,.52-4.93,7.24,7.24,0,0,0-.87-1.76c0-.17,0-.35-.07-.52a12.27,12.27,0,0,0,1.14-2.46,9.76,9.76,0,0,0,.44-4.08,6.59,6.59,0,0,0,.52-5.12,8.9,8.9,0,0,0-1.72-3.09,6.45,6.45,0,0,0-.24-2.54,7.77,7.77,0,0,0-1.09-2.22,5.11,5.11,0,0,0,.27-1.78,9.26,9.26,0,0,0,2.46-3.76,6.42,6.42,0,0,0-.54-5.21,5.63,5.63,0,0,0-.59-.81,8.9,8.9,0,0,0-2.18-3.31,10.33,10.33,0,0,0,3.31-4.53,6.64,6.64,0,0,0,.25-3,7.54,7.54,0,0,0,.56-1.33,6.33,6.33,0,0,0-.55-5.08,5.59,5.59,0,0,0-.8-1.07,6.35,6.35,0,0,0,.15-1.9,7.36,7.36,0,0,0,.7-1.58c0-.05,0-.1,0-.15a6.59,6.59,0,0,0,.11-4.09c.08-.2.17-.39.23-.59a6.4,6.4,0,0,0-.15-4.19,6.29,6.29,0,0,0-.63-4.77,5.41,5.41,0,0,0-1.63-1.7,6.09,6.09,0,0,0,.24-.79,5.66,5.66,0,0,0,1-1.32,6.31,6.31,0,0,0,.53-5.13,7.87,7.87,0,0,0-1.34-2.48c0-.18-.08-.36-.14-.54a7.73,7.73,0,0,0-.62-1.47,6.43,6.43,0,0,0-.23-2.81,7.78,7.78,0,0,0-1.28-2.39,9.41,9.41,0,0,0,2.38-3.76,6.46,6.46,0,0,0-.28-4.55,9.51,9.51,0,0,0,.49-7.4,12.59,12.59,0,0,0-1-2.21,6.2,6.2,0,0,0-.29-1.5l.07-.21c.07-.22.12-.44.16-.66a7.41,7.41,0,0,0,1.09-2.12,6.16,6.16,0,0,0-.52-5,5.65,5.65,0,0,0-.93-1.17c.09-.22.22-.43.29-.65A9.45,9.45,0,0,0,348.06,113.58ZM193.44,274.67c-1.6-.36-3.35-.11-6.08,1.14a6.2,6.2,0,0,0-.84-3.08,5.55,5.55,0,0,0-3.65-2.66c-1.83-.41-3.82,0-7.08,1.68a6,6,0,0,0-.7-4.16,5.56,5.56,0,0,0-3.64-2.66,6.31,6.31,0,0,0-1.43-.15,5.59,5.59,0,0,0-2.89-1.64,6.5,6.5,0,0,0-2.69,0,6.23,6.23,0,0,0-.5-1.48,6.13,6.13,0,0,0-.82-3.31,5.57,5.57,0,0,0-3.65-2.66,6.65,6.65,0,0,0-2.88,0,6,6,0,0,0-.81-.24c-2-.46-4.25.05-8.32,2.32a5.59,5.59,0,0,0-.87-.42,7.23,7.23,0,0,0,.33-.86,6.3,6.3,0,0,0-.53-5.11,5.58,5.58,0,0,0-3.66-2.67,6.2,6.2,0,0,0-1-.14,6.23,6.23,0,0,0-.74-2,5.53,5.53,0,0,0-3.62-2.64,6.07,6.07,0,0,0-1.41-.15,5.55,5.55,0,0,0-2.68-1.45l-.11,0a5.55,5.55,0,0,0-3.4-2.28,7.56,7.56,0,0,0-4.44.49,6.15,6.15,0,0,0-.82-3.4,5.61,5.61,0,0,0-3.69-2.69,7,7,0,0,0-3.27.1,6.23,6.23,0,0,0-.79-2.37,5.49,5.49,0,0,0-3.58-2.62,6.22,6.22,0,0,0-2.17-.1,5.56,5.56,0,0,0-2.4-1.5,5.51,5.51,0,0,0-3-1.84h0a5.42,5.42,0,0,0-.65-.63,6.23,6.23,0,0,0-.78-4,5.47,5.47,0,0,0-1.19-1.41,6.57,6.57,0,0,0-.26-2.79,7.81,7.81,0,0,0-.78-1.7,8.61,8.61,0,0,0,2.17-3.41,6.19,6.19,0,0,0-.53-5,5.49,5.49,0,0,0-1.3-1.53,6.23,6.23,0,0,0-.47-2.68,9.14,9.14,0,0,0,2.42-3.82,6.75,6.75,0,0,0,.26-1.42,7.49,7.49,0,0,0,.74-1.62,6.32,6.32,0,0,0-.53-5.12,5.49,5.49,0,0,0-1.45-1.64,8.33,8.33,0,0,0,1.34-2.58,6.41,6.41,0,0,0-.56-5.11,5.48,5.48,0,0,0-2.25-2.13,11.48,11.48,0,0,0-.87-1.08c0-.17,0-.35-.06-.52s.15-.22.22-.33a6.37,6.37,0,0,0,.36-.72,5.56,5.56,0,0,0,2.54-2.3,6.53,6.53,0,0,0,.57-5.21,9.88,9.88,0,0,0-2.67-4.09,8.72,8.72,0,0,0,1.9-3.21,6.62,6.62,0,0,0,.28-1.93,6.21,6.21,0,0,0,.57-4.67,6.35,6.35,0,0,0-.6-4.86,5.57,5.57,0,0,0-2.78-2.41c.07-.18.13-.36.19-.54a6.4,6.4,0,0,0,.27-2.39,8.62,8.62,0,0,0,1.7-3,6.49,6.49,0,0,0,0-3.88,7.31,7.31,0,0,0,.77-1.66,6.21,6.21,0,0,0-.52-5,5.38,5.38,0,0,0-.54-.76,6.4,6.4,0,0,0-.16-3,7.71,7.71,0,0,0-1-2.06q0-.22,0-.45a5.48,5.48,0,0,0,2.14-2.09,6.34,6.34,0,0,0,.56-5.06,7.76,7.76,0,0,0-1.07-2.19,5.58,5.58,0,0,0,1.42-.89,6.06,6.06,0,0,0,1.78-.14,5.61,5.61,0,0,0,1.54-.59,7.21,7.21,0,0,0,4,.32,5.51,5.51,0,0,0,3.62-2.64,6.3,6.3,0,0,0,.81-3.89,5.44,5.44,0,0,0,2.33-1.73,7.65,7.65,0,0,0,4.42.45,5.62,5.62,0,0,0,3.7-2.69,6.62,6.62,0,0,0,.43-.91,6.67,6.67,0,0,0,2.78,0,5.65,5.65,0,0,0,3.73-2.7,6.26,6.26,0,0,0,.57-1.33,5.87,5.87,0,0,0,.85-.13,5.55,5.55,0,0,0,3.65-2.66,6.36,6.36,0,0,0,.37-.75,6.82,6.82,0,0,0,1.51-.17,5.69,5.69,0,0,0,1.86-.8,7.14,7.14,0,0,0,3.67.21,5.59,5.59,0,0,0,3.65-2.66,6.6,6.6,0,0,0,.5-1.1l.56-.1a5.58,5.58,0,0,0,3.67-2.67c.07-.12.14-.25.2-.38a6.5,6.5,0,0,0,3,0,5.5,5.5,0,0,0,3.58-2.62c.09-.15.16-.3.24-.46s.44-.07.66-.12a5.63,5.63,0,0,0,1.94-.85,6.16,6.16,0,0,0,1.1-.15,5.52,5.52,0,0,0,3.61-2.64,6.46,6.46,0,0,0,.55-5.22c-.08-.25-.17-.5-.28-.74A6,6,0,0,0,170,74l3.39-1.55a7.44,7.44,0,0,0,4,.32,5.6,5.6,0,0,0,3.69-2.68,6,6,0,0,0,.6-1.46l.2-.1a6.33,6.33,0,0,0,.69-.1,5.61,5.61,0,0,0,2.77-1.49c2.42,1.06,4,1.26,5.56.91a5.74,5.74,0,0,0,1.61-.63,6.49,6.49,0,0,0,1.82-.15,5.78,5.78,0,0,0,1-.34,5.93,5.93,0,0,0,1,.33,6.2,6.2,0,0,0,1.82.15,5.77,5.77,0,0,0,1.61.63c1.52.35,3.14.15,5.56-.91a5.66,5.66,0,0,0,2.77,1.49,6.2,6.2,0,0,0,.7.11l.2.09a6.07,6.07,0,0,0,.6,1.47,5.6,5.6,0,0,0,3.69,2.68,7.42,7.42,0,0,0,4-.32L220.65,74a6,6,0,0,0,.52,1.38,7.75,7.75,0,0,0-.28.74,6.47,6.47,0,0,0,.55,5.22A5.52,5.52,0,0,0,225,83.94a6.27,6.27,0,0,0,1.1.15,5.64,5.64,0,0,0,1.95.85,6.58,6.58,0,0,0,.66.12c.07.15.15.31.24.46a5.5,5.5,0,0,0,3.58,2.62,6.48,6.48,0,0,0,3,0c.06.13.13.25.2.38a5.57,5.57,0,0,0,3.66,2.67l.56.1a6.25,6.25,0,0,0,.5,1.09A5.58,5.58,0,0,0,244.12,95a7.12,7.12,0,0,0,3.66-.21,5.64,5.64,0,0,0,1.86.8,7.46,7.46,0,0,0,1.51.17,6.45,6.45,0,0,0,.36.75,5.58,5.58,0,0,0,3.65,2.66,6.17,6.17,0,0,0,.85.13,6.36,6.36,0,0,0,.57,1.33,5.65,5.65,0,0,0,3.73,2.7,6.73,6.73,0,0,0,2.78,0,6.57,6.57,0,0,0,.43.91,5.61,5.61,0,0,0,3.69,2.69,7.67,7.67,0,0,0,4.42-.45,5.47,5.47,0,0,0,2.33,1.73,6.34,6.34,0,0,0,.81,3.89,5.52,5.52,0,0,0,3.62,2.64,7.23,7.23,0,0,0,4-.32A5.78,5.78,0,0,0,284,115a6.26,6.26,0,0,0,1.78.14,5.54,5.54,0,0,0,1.42.89,7.82,7.82,0,0,0-1.07,2.19,6.36,6.36,0,0,0,.55,5.06,5.48,5.48,0,0,0,2.14,2.09c0,.15,0,.3,0,.45a7.67,7.67,0,0,0-1,2.06,6.39,6.39,0,0,0-.17,2.92,5.58,5.58,0,0,0-.56.78,6.22,6.22,0,0,0-.52,5,7.3,7.3,0,0,0,.77,1.66,6.52,6.52,0,0,0,0,3.88,8.67,8.67,0,0,0,1.7,3,6.49,6.49,0,0,0,.27,2.39c.06.18.12.36.19.54a5.59,5.59,0,0,0-2.78,2.41,6.38,6.38,0,0,0-.59,4.91,6.23,6.23,0,0,0,.56,4.57,6.67,6.67,0,0,0,.28,2,8.69,8.69,0,0,0,1.91,3.23,9.85,9.85,0,0,0-2.67,4.09,6.53,6.53,0,0,0,.57,5.21,5.56,5.56,0,0,0,2.54,2.3,6.25,6.25,0,0,0,.35.72c.06.11.13.2.2.3s0,.39-.06.58a11,11,0,0,0-.82,1,5.44,5.44,0,0,0-2.29,2.15,6.43,6.43,0,0,0-.56,5.11,8.4,8.4,0,0,0,1.34,2.58A5.49,5.49,0,0,0,286,191a6.32,6.32,0,0,0-.53,5.12,7.59,7.59,0,0,0,.73,1.62,6.75,6.75,0,0,0,.26,1.42,9.18,9.18,0,0,0,2.42,3.83,6.24,6.24,0,0,0-.47,2.68,5.51,5.51,0,0,0-1.31,1.53,6.21,6.21,0,0,0-.53,5,8.65,8.65,0,0,0,2.19,3.43,7.84,7.84,0,0,0-.78,1.69,6.58,6.58,0,0,0-.26,2.76,5.5,5.5,0,0,0-1.2,1.42,6.24,6.24,0,0,0-.78,4,5.26,5.26,0,0,0-.65.63h0a203.56,203.56,0,0,0-5.42,3.34,6.34,6.34,0,0,0-2.18.1,5.51,5.51,0,0,0-3.58,2.63,6.28,6.28,0,0,0-.8,2.37,6.93,6.93,0,0,0-3.26-.09,5.61,5.61,0,0,0-3.69,2.69,6.11,6.11,0,0,0-.82,3.4,7.61,7.61,0,0,0-4.44-.49,5.54,5.54,0,0,0-3.4,2.28l-.11,0a5.55,5.55,0,0,0-2.68,1.46,5.37,5.37,0,0,0-1.41.15,5.53,5.53,0,0,0-3.62,2.64,6.26,6.26,0,0,0-.74,2,6.36,6.36,0,0,0-1,.14,5.57,5.57,0,0,0-3.66,2.67,6.3,6.3,0,0,0-.53,5.11,8.34,8.34,0,0,0,.33.86,5.61,5.61,0,0,0-.86.42c-4.07-2.27-6.28-2.78-8.32-2.32a5.48,5.48,0,0,0-.81.24,6.7,6.7,0,0,0-2.88,0,5.59,5.59,0,0,0-3.65,2.66,6.11,6.11,0,0,0-.82,3.31,6.26,6.26,0,0,0-.5,1.48,6.4,6.4,0,0,0-2.69,0,5.57,5.57,0,0,0-2.89,1.64,5.24,5.24,0,0,0-1.43.15,5.56,5.56,0,0,0-3.64,2.66,6.06,6.06,0,0,0-.7,4.16c-3.27-1.7-5.25-2.09-7.08-1.68a5.56,5.56,0,0,0-3.65,2.66,6.2,6.2,0,0,0-.83,3.08c-2.73-1.25-4.47-1.5-6.08-1.14a5.62,5.62,0,0,0-1.91.84A5.68,5.68,0,0,0,193.44,274.67Z"/><path class="cls-1" d="M341.14,246.69a2.8,2.8,0,0,0-3.63-1.46l-.06-2.21c-.4-15.8-.44-31.85-.47-47.38,0-14-.06-28.48-.36-42.71-.26-12.14.1-24.49,1.1-37.78l.05-.68c.38-5,.9-11.92-.37-17.65l-.22-1,.91-.43a2.48,2.48,0,0,0,1.35-2.07,1.88,1.88,0,0,0-1.06-1.77c-10-5.74-19.93-11.86-29.56-17.78C294.6,65.06,279.92,56,265,48.07c-5.55-3-11.16-5.88-16.59-8.72-15.83-8.26-32.2-16.79-47.81-26.54l-.73-.46.16-.85a3.08,3.08,0,0,0-.65-2.46,2.18,2.18,0,0,0-1.7-.85,2.74,2.74,0,0,0-.94.18l-.69.28-.59.24-.6.23L194.58,9l.15.19-1.52.65C182.67,14.3,173,21.12,164.45,27.15a270.27,270.27,0,0,1-36.78,21.38C103,60.67,79.26,72.93,58.95,89.29l-1.49,1.2v0l-.49.41.5-.12-.05,1.64c-.22,7.08-.77,14.22-1.3,21.12-.39,5-.79,10.27-1.06,15.42-.49,9.41-.24,19.06,0,28.4.15,5.67.31,11.53.29,17.28,0,14.89-.31,30-.58,44.66-.18,9.56-.36,19.44-.47,29.15v.72l-.62.36a2,2,0,0,0-.85,1.66,2,2,0,0,0,.87,1.79l.52.35a13.08,13.08,0,0,0,0,1.48,2,2,0,0,0,.53,1.48,2.29,2.29,0,0,0,1.63.6,2.43,2.43,0,0,0,2.36-1.5c.09-.25,2,1,2,1,5.79,3,11.39,6.57,16.81,10,4,2.52,8.08,5.13,12.21,7.49C98.64,279,108,283.54,117.15,288c4.42,2.15,9,4.38,13.45,6.64,9.83,5,19.29,10.85,28.44,16.52,10.16,6.31,20.64,12.81,31.63,18.08-10.18-5.82-20-12.5-29.46-19-11.32-7.73-23-15.72-35.34-22.21-4.53-2.38-9.18-4.73-13.68-7-7.74-3.89-15.73-7.91-23.41-12.32-3.65-2.1-7.26-4.35-10.75-6.52a197,197,0,0,0-18.39-10.57l-.71-.35v-.8c.1-11.08.28-22.35.46-33.24.23-14,.46-28.56.51-42.84,0-6.95-.14-14-.29-20.86-.18-8.11-.38-16.49-.26-24.74q0-3,.12-6c.23-10.31.47-21-1.76-31.1l-.24-1.1,1.07-.36c9.36-3.13,18-8.55,26.45-13.8,2-1.22,3.91-2.44,5.86-3.63a397.71,397.71,0,0,1,36.09-19c10.74-5.09,23.16-11.15,34.65-18.76,2.49-1.65,5-3.34,7.41-5,8.93-6.15,18.17-12.51,28.72-16.47l.76-.28.57.57c13,13.08,30.74,21.81,47.87,30.26,4.41,2.17,8.57,4.22,12.67,6.35,13.61,7.07,26.86,15.23,39.67,23.12,11.29,7,23,14.14,34.81,20.54l.65.35v.73a184.49,184.49,0,0,1-1.38,25.63c-1.55,12.74-1.46,24.89-1.23,36.24.27,13.74.28,27.7.28,41.21,0,16.11,0,32.77.47,49.14l0,.72-.61.38c-27.32,17.12-49.45,30.87-69.62,43.28-6.07,3.73-12.24,7.7-18.22,11.54-15.58,10-31.7,20.39-48.54,28.23l-.57.27h0l-1.18.55c.86,0,1.73-.09,2.61-.2l.33,0,1.14.49-.27-.6,1.54-.32c7.88-1.62,15.45-6,21.53-9.57s12-7.25,17.74-10.89c5.15-3.24,10.47-6.59,15.8-9.75,23.52-13.93,51.35-30.5,79.37-47.78l.4-.25.47.08a3,3,0,0,0,.48,0,2.26,2.26,0,0,0,2.35-1.7l.11-.52,2-1.24C340.63,249.54,341.72,247.9,341.14,246.69Z"/><path class="cls-1" d="M90.64,195.27c-.26-5.62-.54-11.44-.48-17.24.11-12.78.42-25.79.72-38.36.24-10.19.49-20.72.64-31.08v-.93l.88-.26a72.12,72.12,0,0,0,11.94-5.27c2.32-1.19,4.72-2.42,7.05-3.43a256,256,0,0,0,23.43-11.53A582.8,582.8,0,0,0,192.7,49.76l.78-.56.74.6c24,19.14,52.94,32.14,80.93,44.71,8.87,4,18,8.1,26.83,12.32-5.57-5.18-12-8.43-18.65-11.58-10.52-5-21.77-10.4-32.8-16.42l-6.6-3.58C227,66.1,209.52,56.63,194.48,44a2.24,2.24,0,0,0-1.46-.58,2.72,2.72,0,0,0-2.27,1.48l-.14.26-.24.17a630.19,630.19,0,0,1-58.43,37.87c-6.81,3.88-13.9,7.25-20.76,10.51l-5.73,2.73c-4.8,2.28-10.25,4.87-13.43,8.93l-.62.79-.91-.43a2.59,2.59,0,0,0-1.09-.24,2.29,2.29,0,0,0-1.63.61,1.82,1.82,0,0,0-.49,1.38c.14,8.38.42,16.91.69,25.16.45,13.62.92,27.72.76,41.57-.08,7,.16,14.2.39,21.17.39,11.8.79,24-.3,35.8l-.06.6-.13.09.13.12-.08.84a.91.91,0,0,1,0,.28.53.53,0,0,0,.17.09l.72-.53-.59-.21.23-1.08C91.77,219.39,91.22,207.67,90.64,195.27Z"/><path class="cls-1" d="M302,206.93c0,1.69-.1,3.4-.16,5.13-.26,7-.51,14.22.86,20.87l.21,1.32a93.12,93.12,0,0,0,.76-16c0-2.61-.05-5.31,0-7.93.3-9.57.86-19.29,1.4-28.68q.24-4.31.49-8.61c.23-4.13.48-8.24.74-12.35,1.05-16.9,2.15-34.39.94-51.79a2.26,2.26,0,0,0-2.39-2.11,2.46,2.46,0,0,0-1.24.32l-.62.37-.13.75a2.42,2.42,0,0,0,0,.58,515.92,515.92,0,0,1,.46,67.31C302.77,186.51,302.24,196.65,302,206.93Z"/><path class="cls-1" d="M127,257.1c3.75,2.14,7.62,4.35,11.37,6.57C152,271.79,166,280,179.55,287.93L196,297.56a2.42,2.42,0,0,0,1.2.37c1.23,0,2.08-1.38,2.17-2.66l.06-.73.65-.32c17.27-8.34,34-18.23,50.27-27.8,5.39-3.17,10.78-6.36,16.2-9.49,3.51-2,7.13-3.89,10.64-5.69A168.35,168.35,0,0,0,292,243c3.15-2,6.87-5,8.2-7.49l-.47.38a11.42,11.42,0,0,1-3.21,2.06c-2.15.81-4.3,1.83-6.38,2.82-1.41.67-2.86,1.36-4.32,2-5.66,2.44-13.1,5.7-20.44,9.33-11.15,5.51-22.09,11.87-32.67,18-12,7-24.46,14.21-37.32,20.27l-.6.28-.57-.33c-19.37-11.26-35.39-20.53-50.43-29.15-3.81-2.19-7.7-4.49-11.46-6.72-13.54-8-27.55-16.35-42.3-21.57l-.22-.08.6.49C101.47,242.56,114.42,250,127,257.1Z"/><path class="cls-3" d="M199.49,358.18l-.45,0a4.81,4.81,0,0,1-1.14-.24,5.3,5.3,0,0,1-2.57.1,4.84,4.84,0,0,1-3.08-2.1c-3.5,2-5.27,2.36-7,2a4.78,4.78,0,0,1-2.57-1.54,5,5,0,0,1-2.19-1.07,6.92,6.92,0,0,1-4,.45,4.92,4.92,0,0,1-3.22-2.35,5.09,5.09,0,0,1-.45-4,6.71,6.71,0,0,1,1.79-2.85c-2-3.52-.16-6.51,5.46-10.55a5.33,5.33,0,0,1-.88-.69c-2.48,1.13-4.13,1.37-5.64,1a5.11,5.11,0,0,1-3.37-2.44,5.2,5.2,0,0,1-.48-4.05c0-.13.08-.26.13-.39a4.91,4.91,0,0,1-1.75-1.78,5.07,5.07,0,0,1-.48-3.95,5.52,5.52,0,0,1-2.19-.07,4.83,4.83,0,0,1-3.14-2.31,5.23,5.23,0,0,1-.5-4c.78-2.89,3.94-5.49,11.67-10.14a3.78,3.78,0,0,1,.13-1.27,4.45,4.45,0,0,1,3.57-6.55c.72-.51,1.77-1.34,2.47-1.9,3.44-2.72,5.71-4.53,8.49-4a4.8,4.8,0,0,1,2.3,1.14c9.85-6.83,12.62-8.37,15.51-7.73a4.85,4.85,0,0,1,3.14,2.29,5.1,5.1,0,0,1,.57,1.48,4.75,4.75,0,0,1,2.3,2,5.37,5.37,0,0,1,.81,2.71c2.5-1.15,4.14-1.4,5.62-1.07a5,5,0,0,1,3.3,2.4,5.16,5.16,0,0,1,.6,1.62,4.94,4.94,0,0,1,.77,1,5.19,5.19,0,0,1,.54,3.82A5.11,5.11,0,0,1,224,307a6.74,6.74,0,0,1-1.62,2.83,5.09,5.09,0,0,1,2.11,2c1.71,3,.75,5.55-2.85,8.67a5.44,5.44,0,0,1,1.1.13A4.94,4.94,0,0,1,226,323a5.16,5.16,0,0,1,.48,4,5.93,5.93,0,0,1-.77,1.67,4.82,4.82,0,0,1,1,1.26c2.54,4.4-1.13,7.5-10.49,13.67,1,3.68-3.15,6.09-8.65,9.29l-.64.37a4.46,4.46,0,0,1-2.81,2.34A6.22,6.22,0,0,1,199.49,358.18Z"/><path class="cls-4" d="M284.31,256.94a5.4,5.4,0,0,0-.47-4.32,5.31,5.31,0,0,0-3.5-2.54c-2.18-.48-4.87.2-9.53,2.77a5.25,5.25,0,0,0-3.14-2c-3.34-.73-7.8,1.39-19.2,9.14a5.4,5.4,0,0,0-3.65-2.59c-4.13-.83-9.19,2.65-21.54,12.06-4.65,3.55-11.47,8.74-14.36,10a4.45,4.45,0,0,0-5.32,6.43,5.44,5.44,0,0,0,.59.82l-.78.48c-1.64-.05-3,.85-5.36,2.43-.46.31-1.16.78-1.6,1.06a4.46,4.46,0,0,0-2.59,6.49,4.56,4.56,0,0,0,2.88,2.14l.52.09a4.23,4.23,0,0,0,.46.14,4.37,4.37,0,0,0,3-.25c.11.41,3.15-.95,6.41-3.05.1.25,5.77,3.81,5.92,4.07l2.41,3.7c-2.6,2.59,2.22,6.91,3.52,7.22s2.22,2.28,4.79,1a4.9,4.9,0,0,0,1.07.36,6.7,6.7,0,0,0,4.49-.78,4.85,4.85,0,0,0,3.05,2.1c1.47.32,2.93,0,5-1.07a4.78,4.78,0,0,0,2.72,1.52,5.1,5.1,0,0,0,.9.08c2.3,0,4.26-1.61,6.66-3.6.47-.39,1.15-.95,1.67-1.35A4.41,4.41,0,0,0,251,309a4.45,4.45,0,0,0,2.19-4.38c4.32-3.49,6.42-5.93,4.79-9.15a4.59,4.59,0,0,0,.35-.6,4.4,4.4,0,0,0,.72-1.25l1.53-1.22c2.29-1.82,4.39-3.48,5.26-5.33,3.11-2,4.3-3.33,4.81-5.09,0-.1.05-.2.08-.3,4.48-2.86,6.27-4.75,6.88-6.87a5.28,5.28,0,0,0,0-3.1c2.79-2.19,4.24-4,4.72-5.77a5.37,5.37,0,0,0-.51-4.13,5,5,0,0,0-.48-.7A9.13,9.13,0,0,0,284.31,256.94ZM199.89,291.1a4.28,4.28,0,0,1,1.32,1.14A4.42,4.42,0,0,0,199.89,291.1Z"/><path class="cls-4" d="M193.44,284.76a4.9,4.9,0,0,0-3.2-2.34,6,6,0,0,0-3,.11c-.06-.13-.12-.25-.19-.38a8,8,0,0,0,3.14-4,5,5,0,0,0-.45-4,4.81,4.81,0,0,0-3.13-2.3c-1.93-.44-3.93.1-8.23,2.64a4.94,4.94,0,0,0-.56-.16c-1.52-.34-3.06-.08-5.55,1.17-.74-1-3.2-5.62-9-5.67-.6,0,.24-1.16.2-1.73a6.56,6.56,0,0,0,1.37-2.47,5.17,5.17,0,0,0-.48-4,4.83,4.83,0,0,0-3.16-2.31h0a5.94,5.94,0,0,0-.68-1.68,4.87,4.87,0,0,0-3.21-2.33,5.44,5.44,0,0,0-2-.07,4.8,4.8,0,0,0-3.75-4.44c-2.1-.48-4.11.19-9.13,3.38a5,5,0,0,0-1.47.08,5,5,0,0,0-3-2.15c-1.82-.4-3.41.11-6.43,2a6,6,0,0,0-.28-.55,4.76,4.76,0,0,0-3-2.2c-2.45-.53-4.28.79-7.93,3.41-.75.54-1.89,1.35-2.6,1.81a4.4,4.4,0,0,0-1.5.54,4.45,4.45,0,0,0-1.63,6.08,4.36,4.36,0,0,0,.77,1,4.67,4.67,0,0,0-.25,4.89c-1.56,1.94-1.82,3.72-.6,5.83a4.78,4.78,0,0,0,3.1,2.26c1.47.33,5.12-.18,5.56.72a9.16,9.16,0,0,0-3.51,6.46,8.16,8.16,0,0,0-3.07,4.07,5.08,5.08,0,0,0,.47,4,4.85,4.85,0,0,0,3.17,2.32c2,.45,6.51-2.62,10.92-5.26a41.24,41.24,0,0,1,2.64,4.43,36.34,36.34,0,0,0-3.91,2.28,4.45,4.45,0,0,0-2.77,6.54,4.5,4.5,0,0,0,.95,1.14,5,5,0,0,0,2.51,1.58,5,5,0,0,0,.67,2.42,4.86,4.86,0,0,0,3.16,2.3c1.53.34,3,.07,5.54-1.27l.18.34c-2.49,2.57-3,4.75-1.52,7.25a4.89,4.89,0,0,0,3.2,2.34,5.68,5.68,0,0,0,1.3.15c2.4,0,5.65-1.55,13.71-6.8a5.08,5.08,0,0,0,1.78.75c3.4.71,7-1.73,16.87-8.93,3.48-2.54,8.55-6.23,10.81-7.35a4.45,4.45,0,0,0,5.19-4.45,7.14,7.14,0,0,0,2.49-3.58A5,5,0,0,0,193.44,284.76Z"/><path class="cls-1" d="M272,254.68c-5.14-2.71-12.06-1.95-17.51-.74-9.81,2.17-19,7.35-27.43,12.58a173.09,173.09,0,0,0-16.81,11.69l-1.94,1.58a8.44,8.44,0,0,1,1.9,1.75l1.26-.66c10-5.2,19.89-10.51,30.09-15.28A100.63,100.63,0,0,1,254.94,260a33.54,33.54,0,0,1,11.5-1.61c1.34.1,3.44.16,4.49,1.22l-.08-.1a.67.67,0,0,1,.12.14l0,0c.9,1.12.71,3.19.62,4.49a32.69,32.69,0,0,1-1.24,6.58A45.49,45.49,0,0,1,265,282.62a30.37,30.37,0,0,1-9.56,9.93c-1.5-2.13-4.14-3.57-6.37-4.64a37.4,37.4,0,0,0-14.37-3.52,81.36,81.36,0,0,0-22.36,1.87l-.6.13a6.37,6.37,0,0,1-1.28,3.49s-.06,0-.1,0h1.38c3.19,0,6.4.14,9.6.19,5.43.08,10.83.3,16.05.82a36.44,36.44,0,0,1,10.55,2.58,22.65,22.65,0,0,1,2.19,1.11l-.06,0c.65.37,1.44.81,1.44,1.35h0c0,.1.59.59.61.7a6.4,6.4,0,0,1,.27,1.33l0,0,.05,0a7.61,7.61,0,0,1-.7,2.56,17.52,17.52,0,0,1-4.65,6.78c-2.21,2-5.15,3.59-8.2,3.48s-5.86-2.15-8.3-3.8q-8-5.41-16.16-10.57c-1.44-.91-2.87-1.81-4.32-2.7-.73-.45-1.47-.9-2.21-1.33a14.82,14.82,0,0,1-2.51,1.29q1.22,1.4,2.55,2.78c6.58,6.82,14.82,12.86,23.7,15.54,3.21,1,6.36,1.47,9.65.52a22.29,22.29,0,0,0,7.74-4.28c3.42-2.79,8.26-7.81,7.61-12.74l.05,0c.19-.15.36-.3.56-.47,4.66-4,8.19-9.39,11.23-14.65s5.93-10.7,7-16.57C276,260.08,275.57,256.53,272,254.68Z"/><path class="cls-1" d="M183.7,292.63l-1.67,1c-1.51.93-3,1.87-4.51,2.82q-8.16,5.16-16.16,10.57c-2.43,1.65-5.25,3.69-8.3,3.8s-6-1.49-8.16-3.48a17.38,17.38,0,0,1-4.6-6.78,11.23,11.23,0,0,1-.68-2.46,3.76,3.76,0,0,1,.16-1.85l.14-.24,0,0a5.58,5.58,0,0,1,1.72-1.46,21.33,21.33,0,0,1,3-1.34,37.45,37.45,0,0,1,9.88-2.28c5.25-.52,10.67-.69,16.13-.78,3,0,5.94-.06,8.9-.1l1.76,0h.77a8.49,8.49,0,0,1-.64-3.18c-1-.26-2.09-.5-3.15-.74a73.35,73.35,0,0,0-24.94-1.4c-4.88.66-13.68,3.06-16.86,7.93-4.12-2.45-7.56-6.69-9.95-10.63a44.92,44.92,0,0,1-5.15-12c-.66-2.49-2.34-8.05-.44-10.37l-.08.08.16-.19-.08.1c1.18-1.21,3.7-1.21,5.21-1.26A34.28,34.28,0,0,1,136.94,260a100.46,100.46,0,0,1,13.32,5.58c9.72,4.55,19.18,9.59,28.69,14.56l4.18,2.17a13.2,13.2,0,0,1,1.47-1.65c-1.32-1.13-2.69-2.24-4.07-3.32-4.68-3.64-9.62-7-14.56-10.09-8.21-5.17-17-10.21-26.43-12.79-6.94-1.91-24.15-4.26-23.34,7.36.41,5.83,3.37,11.54,6.14,16.58a66.13,66.13,0,0,0,10.72,15.08,26.06,26.06,0,0,0,2.29,2.06,7.83,7.83,0,0,0,.54,3.89c2.08,5.38,7.43,10.07,12.64,12.33,6,2.58,12.21.6,17.77-2.12A66.22,66.22,0,0,0,181,299.22c1.18-1.07,2.34-2.16,3.45-3.3.49-.49,1-1,1.42-1.5A8.93,8.93,0,0,1,183.7,292.63Z"/><path class="cls-1" d="M220.17,311.44A19.58,19.58,0,0,0,210,297.74a22.91,22.91,0,0,0-2.35-1,29,29,0,0,0-6.87-1.61c-.55.12-1.1.22-1.65.32a23,23,0,0,1,7.56,2.15,17.24,17.24,0,0,1,4.52,3.15,16.93,16.93,0,0,1,2.78,3.55A87.76,87.76,0,0,1,194,306.53c-5.38,0-10.74-1.83-16-2.29a16.43,16.43,0,0,1,3.57-4.3,17.46,17.46,0,0,1,4.57-2.81,20.78,20.78,0,0,1,4-1.27,13,13,0,0,1-1.67-.36,27.38,27.38,0,0,0-3.38.9,19.74,19.74,0,0,0-9.67,6.59c-4.24,5.51-4.8,12.5-4.35,19.18.78,11.4,4.92,25.67,15.28,32a16.64,16.64,0,0,0,17,.43c5.13-2.94,8.67-7.94,11.28-13.12C219.08,332.71,222.24,321.38,220.17,311.44ZM209.5,347.52c-3.43,4.4-8.55,7.7-14.31,7-5.36-.61-9.55-4.34-12.48-8.66,9.39,2.75,19.94,2.88,28.67-1.14A27.93,27.93,0,0,1,209.5,347.52Zm5.79-12.33c-13,3.26-24.87,6.46-37.41-.47l-.34-.16a57.29,57.29,0,0,1-1.48-6.42c4.41,1.92,9.57,2.19,14.68,2.41,8.12.36,17.84,0,25.91-3A55.76,55.76,0,0,1,215.28,335.19Zm1.82-16.66c-12.19,3.89-29.11,4.68-42,1.18q-.1-2.06-.11-4.11a28.88,28.88,0,0,1,.65-5.4c3.2,2.58,8.67,3,12.48,3.61,9.25,1.41,19.61.93,28.41-2.38a34.14,34.14,0,0,1,.53,5.94C217.11,317.75,217.1,318.14,217.1,318.53Z"/><path class="cls-5" d="M193.62,302.34a5.06,5.06,0,0,1-1.11-.13,4.9,4.9,0,0,1-2.5-1.5,5.2,5.2,0,0,1-2.86.17,4.75,4.75,0,0,1-2.9-1.94,5,5,0,0,1-1.32-.11,4.84,4.84,0,0,1-3.18-2.3,4.91,4.91,0,0,1-.46-3.82,5.58,5.58,0,0,1,.33-.89,4.91,4.91,0,0,1-1.52-.13,4.82,4.82,0,0,1-3-2.19c-1.49-2.58-.8-4.56,1.62-6.72a4.45,4.45,0,0,1,4-4.31c1.28-.71,4-2.54,5.85-3.82,7-4.77,9-6,11.5-5.41a4.56,4.56,0,0,1,1.24.49c3.31-1.9,4.78-2.2,6.39-1.82a4.7,4.7,0,0,1,3.6,4.07,4.92,4.92,0,0,1,4.64,2.36,4.86,4.86,0,0,1,.46,3.78c-.4,1.41-1.27,2.57-3.29,4.06a4.81,4.81,0,0,1,.4.58,5.64,5.64,0,0,1,.65,1.6,4.77,4.77,0,0,1,1.58,1.61,4.45,4.45,0,0,1-3.57,6.67c-1.34.75-4.1,2.66-6,4C198.24,300.75,195.83,302.34,193.62,302.34Z"/><path class="cls-6" d="M185.45,275.6c-.86-1.49-1.55-2.11-1.42-3.13a4.78,4.78,0,0,1-3.41-2.5,3.17,3.17,0,0,1,4.38-4.3,43.33,43.33,0,0,0,2.84-3.28c2.77-3.43,5.15-6.4,8.38-6.13A4.72,4.72,0,0,1,200,258.8a6.67,6.67,0,0,1,.75,1.85,5.14,5.14,0,0,1,.56,0c1.36,0,3.33.61,4.92,3.37a5.65,5.65,0,0,1,.81,3.7,4.89,4.89,0,0,1,2.87,2.43,3.17,3.17,0,0,1-3.63,4.63l-.55.94C204.36,278,187,278.36,185.45,275.6Zm-.71-8-1.38.8,1.38-.79Z"/><path class="cls-1" d="M206.42,273.85l.08-.18a6.13,6.13,0,0,0,1.28-2.62c.49-2.07,0-4-1.1-4.55A12,12,0,0,0,204.8,263l.5-.36a14.38,14.38,0,0,0,4.81-6.39c1.79-4.79,1.34-10.35-3.47-13.17-.58-.35-1.66-1.06-1.79.05a32.61,32.61,0,0,0,.53,9,10.33,10.33,0,0,1-1.26,7.61,15.66,15.66,0,0,1-1,1.53,11.79,11.79,0,0,0-6.56-2.88,12.08,12.08,0,0,0-8.2,2.4c-1.42-2.15-2.54-4.91-2.14-7.53.29-1.92.71-3.7.83-5.66.06-1,.65-4.81-.61-5.13-.69-.17-2.34,1.39-2.79,1.81a10,10,0,0,0-1.93,2.52c-1.42,2.61-1.23,5.28-.44,8.06a14.69,14.69,0,0,0,4.22,6.93c.28.26.57.5.87.73a11.22,11.22,0,0,0-2.35,3.61,7.3,7.3,0,0,0-.43,4,6.94,6.94,0,0,0,.15.94,6.32,6.32,0,0,0,1.13,2.44c-4.15,2.55-7.16,6.59-6.72,11.92.67,8.19,9.94,14.57,17.61,15.36a15,15,0,0,0,16.52-14.84A14.83,14.83,0,0,0,206.42,273.85Zm-10.61-9.06c2.42,0,6.44.36,8.88,2.05a5.64,5.64,0,0,0-1.74,3.06,5.46,5.46,0,0,0,.27,3.7,10.6,10.6,0,0,1-1.7.23c-1.69.09-4.06.38-5.51.44-2.21.09-4.37.81-6.57.16a4.84,4.84,0,0,1-1.24-.6,5.13,5.13,0,0,0,.43-3.93,6.67,6.67,0,0,0-.79-2,17.38,17.38,0,0,1,2.09-1.52A13.16,13.16,0,0,1,195.81,264.79Zm-.92,31.13a15.45,15.45,0,0,1-8.56-1.24,9,9,0,0,1-4.85-8.77c.22-2.22,2.62-5.08,4.59-6.45a15,15,0,0,1,4.23-1.95,21.27,21.27,0,0,0,3.43,1.4,11.47,11.47,0,0,0,9.19-1.39c4.63,1.12,8.84,3.55,8.81,8.39C211.69,293.49,201.33,295.4,194.89,295.92Z"/><path class="cls-3" d="M317.83,128.25a5.15,5.15,0,0,1-1.17-.14,4.76,4.76,0,0,1-3.09-2.27,4.92,4.92,0,0,1-.59-1.61,5.16,5.16,0,0,1-3-2.38,5.3,5.3,0,0,1-.5-4.07c.33-1.21-4.27-2.46-6.07-2.86a5.27,5.27,0,0,1-4.2-5.23,5.19,5.19,0,0,1-3.92-5.69,6.68,6.68,0,0,1-3.38.2,5,5,0,0,1-3.28-2.4,5.41,5.41,0,0,1-.5-4.2c.82-2.9,4.15-5.72,11.54-10.15a4,4,0,0,1,.36-1.78,4.45,4.45,0,0,1,1.93-5.46,4.53,4.53,0,0,1,2.43-.59c1.39-.83,4-2.77,5.76-4.13,6.32-4.78,9.25-6.86,12.32-6.24a5,5,0,0,1,2.1,1c11.14-7.7,14.73-9.62,17.91-8.93a5,5,0,0,1,3.26,2.37l0,.06a4.18,4.18,0,0,1,1.21.13,5,5,0,0,1,3.24,2.37,5.86,5.86,0,0,1,.8,2.26c3.11-1.49,5.13-1.86,6.84-1.48a5.23,5.23,0,0,1,3.45,2.5,5.32,5.32,0,0,1,.63,1.72,5.15,5.15,0,0,1,.69.93,5.3,5.3,0,0,1,.62,3.61l0,0a5.23,5.23,0,0,1,.49,4.05,7.54,7.54,0,0,1-2.06,3.29A5.15,5.15,0,0,1,363.47,85a5.36,5.36,0,0,1,.51,4.11c-.7,2.59-3.27,5-9.1,8.81a4.24,4.24,0,0,1,.1,1.35,5.13,5.13,0,0,1,.37.55l.12.22a4.76,4.76,0,0,1,.87,1.1,4.93,4.93,0,0,1,.43,4c-1,3.21-4.44,5.13-17.55,11.29l-1,.49L335.26,119c-5.81,4.21-8.92,6.38-11.36,7C321,127.63,319.29,128.25,317.83,128.25Z"/><path class="cls-4" d="M300.41,104.58a4.19,4.19,0,0,1-.68,0A2.93,2.93,0,0,0,300.41,104.58Z"/><path class="cls-4" d="M309.41,66.42a4.89,4.89,0,0,0-3-2.21l-.19,0a5.7,5.7,0,0,0-.64-1.55,4.29,4.29,0,0,0-.61-.81,4.64,4.64,0,0,0,0-5.19A4.76,4.76,0,0,0,302,54.37a5.33,5.33,0,0,0-2.83.13,4.72,4.72,0,0,0-3.6-4.43c-2.21-.52-3.86.17-10.58,4.57l-.1-.12a6.55,6.55,0,0,0-.5-1.07,5,5,0,0,0-3.28-2.38,5.66,5.66,0,0,0-2-.08,5,5,0,0,0-.65-2,4.87,4.87,0,0,0-3.19-2.33c-2.21-.49-4.54.27-9.85,3.61a7,7,0,0,0-3.11.69,4.83,4.83,0,0,0-2.77-1.75c-2.88-.63-18,7.91-17.71,7.49,1.26-2.1-.77-3.39-2.56-3.33s-4.46,2.11-5.18,3.06a4.46,4.46,0,0,0-1.86,5.46c-1.84,3.57-2.8,5.62-1.43,8l.15.25a4.49,4.49,0,0,0,.12,4.83,4.82,4.82,0,0,0,3.17,2.31c1.56.35,3.13.06,5.77-1.34a5.44,5.44,0,0,0,1.44-.1,5.55,5.55,0,0,0,.72,2c-1.53,1.63-2.25,3.12-2.15,4.66a7.15,7.15,0,0,0-2.14,3.26,5.1,5.1,0,0,0,.47,4A4.84,4.84,0,0,0,241.45,92c2,.46,4.48.42,8.64-3.37,1.57-1.43,1.29-.11,1.39-.09,2.35.49,6.26,1.37,6.52,3.12a4.54,4.54,0,0,0-.65,5.82,4.82,4.82,0,0,0,2.24,2,4.8,4.8,0,0,0,2.7,1.68,5.06,5.06,0,0,0,1.7.11,4.75,4.75,0,0,0,2.65,1.59c2.71.58,5.65-.3,10.19-3.4.16-.11,1.54,1.6,2.31,3.47-.48,1.21-2.56,2.62-1.74,4a4.7,4.7,0,0,0,6.38,1.64,4.31,4.31,0,0,0,.6.18,4.69,4.69,0,0,0,.92.11c.47.59,10.81-4,9.8-6.06,4.29-2.64,4.48-9,3.71-11.08,2.1-4.73,3.67-8.47,3.52-8.42.59-1.44,3.78-2.86,2.18-5.4a1.78,1.78,0,0,0-1.86-1c5-3,6.62-4.54,7.22-6.69A4.9,4.9,0,0,0,309.41,66.42Z"/><path class="cls-4" d="M352.13,135.37a4.89,4.89,0,0,0-3-2.2,5.09,5.09,0,0,0-2.93.17c-1.39.14-2.9.87-5.16,2.34a4.41,4.41,0,0,0-.54-3.63,4.76,4.76,0,0,0-1.4-1.52,6.8,6.8,0,0,0,2.53-3.52,4.75,4.75,0,0,0-3.42-6c-1.43-.34-2.64-.23-5.52,1.31l-.08-.15a4.77,4.77,0,0,0-2.93-2.18,6.14,6.14,0,0,0-.62-.12c-.12-.52-9.07,2.31-19.12-2.87-.61-1-4-1.78-5.13-2.07-1.61-.4-2.58-.07-4.87,1.31-1.52-.05-2.69.7-4.34,1.77l-.9.58a4.43,4.43,0,0,0-1.09,7.73,5.7,5.7,0,0,0-.23,4.14c-2.52,2.62-3.47,4.69-2,7.29a4.76,4.76,0,0,0,3,2.19,4.68,4.68,0,0,0,2,0,4.16,4.16,0,0,0,.06,3.18c-3.89,2.91-6,5.17-6.16,7.51-3,2.07-4.21,3.51-4.69,5.24a5,5,0,0,0,.47,3.86,4.8,4.8,0,0,0,3.08,2.26c1.77.4,3.53,0,7.21-2.21l.48.12a6.25,6.25,0,0,0,3.73-.47c-4,3.19-6.25,5.53-6.43,7.92-2,1.55-3,2.85-3.41,4.31a5,5,0,0,0,0,2.7,4.94,4.94,0,0,0,1.31,4.66,5.07,5.07,0,0,0,.68,2.34,4.93,4.93,0,0,0,3.27,2.36,6.5,6.5,0,0,0,4-.51,4.64,4.64,0,0,0-.6,3.07c-1.75,1.92-2.06,3.75-.75,6a4.75,4.75,0,0,0,3,2.24,5,5,0,0,0,1.16.14c1.75,0,3.9-1,8.31-3.73a4.93,4.93,0,0,0,1.06.23l.34,0a4.76,4.76,0,0,0,2.71,1.43c2.6.41,4.48-1.27,6.29-2.91l.71-.63a4.46,4.46,0,0,0,3.39-6.23c8.81-4.76,11.92-6.6,12.75-9.51a4.83,4.83,0,0,0-.46-3.75,4.77,4.77,0,0,0-3.05-2.24,5,5,0,0,0-1.38-.14,4.52,4.52,0,0,0,.14-4.26c5.47-3.1,7.51-5,8.25-7.25l.87-.49a4.39,4.39,0,0,0,1.48-.54,4.45,4.45,0,0,0,1.86-5.61,4.68,4.68,0,0,0-.6-1.83,4.2,4.2,0,0,0-.59-.79C351.73,142.17,354.38,139.27,352.13,135.37Z"/><path class="cls-3" d="M60.24,123.85a5.22,5.22,0,0,1-1.18-.14,4.86,4.86,0,0,1-2-1,5.9,5.9,0,0,1-1.33-.12,5,5,0,0,1-2.05-.95,8,8,0,0,1-5,.83,5,5,0,0,1-3.25-2.37,5.12,5.12,0,0,1-.45-4.07,5.93,5.93,0,0,1,.51-1.2,5,5,0,0,1-.4-.59c-1.67-2.89-.49-4.71,0-7.18-.5-.24-4.16.13-6-.27a5.09,5.09,0,0,1-4-4.93l-.39-.08a5,5,0,0,1-3.86-5.67c-2,.84-5.13-.47-6.15-2.51-2.53-5.07,1.83-8.13,5.09-10.31,1.13-.76,2.4-1.57,3.76-2.4a3.58,3.58,0,0,1,0-.39,4.82,4.82,0,0,1-.35-.52,4.45,4.45,0,0,1,3.42-6.66c.63-.46,1.51-1.16,2.11-1.64C41.86,69.18,44,67.49,46.7,68a4.81,4.81,0,0,1,2.36,1.18c9.85-6.83,12.55-8.38,15.42-7.74a4.83,4.83,0,0,1,3.12,2.28,5.67,5.67,0,0,1,.53,1.21,4.74,4.74,0,0,1,2.6,2.13,5.2,5.2,0,0,1,.78,2.63c4.05-2.3,6.27-2.87,8.23-2.44a5,5,0,0,1,3,2,5,5,0,0,1,2.94,2.3,5.16,5.16,0,0,1,.32.65,5,5,0,0,1,2.09,2,4.91,4.91,0,0,1,.74,3.37,6.14,6.14,0,0,1,1.6.11,5.14,5.14,0,0,1,3.45,2.48c1.26,2.18,1.07,4.15-.55,6.28A6.7,6.7,0,0,1,97,86.11a5,5,0,0,1,3.25,2.37,5.19,5.19,0,0,1,.48,4l-.06.21a4.81,4.81,0,0,1,1.86,1.82c2.54,4.39-1.12,7.53-10.49,13.65a4.94,4.94,0,0,1-.06,2.14c-.68,2.53-2.84,3.87-9,7.38l-.16.09a4.47,4.47,0,0,1-3.1,2.41l0,0c-1.28,1.39-3.06,3.3-5.77,3a4.87,4.87,0,0,1-.8-.16c-1.18.44-2.2-1.08-3.25-1.3-1.26-.26-1.71,1.1-2.42,0A13.8,13.8,0,0,1,60.24,123.85Z"/><path class="cls-4" d="M105.88,132.33a5.12,5.12,0,0,0-.46-4,5,5,0,0,0-3.25-2.37,6.33,6.33,0,0,0-3.24.18q-.12-.26-.27-.52a4.86,4.86,0,0,0-2.59-2.14,6.16,6.16,0,0,0,.75-1.59,5.17,5.17,0,0,0-.45-4.14,4.88,4.88,0,0,0-3.19-2.33,6.48,6.48,0,0,0-3.68.34A4.93,4.93,0,0,0,86.71,114c-2.11-.47-2.86,2.32-7.65,5.24-4.48,2.11-9,1.39-19.07,8.45l-1.45,1c-9,4.31-13.26,6.6-15.34,8.72a4.44,4.44,0,0,0-1.65,2.75,5,5,0,0,0,.49,3.82,4.92,4.92,0,0,0,.73,1,5.81,5.81,0,0,0-.52,1.2,5.19,5.19,0,0,0,.45,4.15A4.93,4.93,0,0,0,46,152.67a6.08,6.08,0,0,0,3-.13c-4.25,3.45-5.4,6-3.62,9.12a5,5,0,0,0,3,2.22,5.1,5.1,0,0,0,1.19.14c1.82,0,4.06-1,9.06-4.21a4.65,4.65,0,0,0,.38,2.24c-3.11,2.45-4.71,4.52-4.79,6.63-2.22,1.71-3.23,3.07-3.67,4.58a5.14,5.14,0,0,0,.47,4,4.86,4.86,0,0,0,3.18,2.32c1.93.43,4-.13,8.17-2.58.08,0,1.78,2,3.58,1.28a6.78,6.78,0,0,0-1.12,3.84c-2.45,2.23-3.13,4.3-1.63,6.9a4.7,4.7,0,0,0,.85,1.08,4.53,4.53,0,0,0,.34.71,4.8,4.8,0,0,0,3.11,2.27l.1,0,0,.06a4.74,4.74,0,0,0,3.12,2.26c1.65.35,3.2-.13,5.31-1.39l.14.26a4.87,4.87,0,0,0,3.28,2.27,5.11,5.11,0,0,0,.81.07c2,0,3.49-1.29,4.81-2.45l.32-.28a4.45,4.45,0,0,0,3.07-2.69c2.19-1.72,3.82-3.83,2.33-6.66l.07-.26c7.83-4.13,10.15-5.85,10.91-8.45a4.78,4.78,0,0,0-3.45-6.08c-1.44-.34-2.74-.14-5.27,1.2a5.72,5.72,0,0,0-.74-2A4.89,4.89,0,0,0,91,167.58a4.42,4.42,0,0,0-.2-4.26c2.12-1.92,3.49-3.51,4-5.06a7.43,7.43,0,0,0,2.73-3.66,5.16,5.16,0,0,0,.15-.65c2.78-2,4-3.59,4.53-5.29a5.24,5.24,0,0,0-.31-3.78c2.65-2.68,3.23-5,1.71-7.63a5,5,0,0,0-.74-1A8.14,8.14,0,0,0,105.88,132.33Z"/><path class="cls-1" d="M305.53,79.2a19.58,19.58,0,0,0-6.8,15.62,23.35,23.35,0,0,0,.27,2.56,29.09,29.09,0,0,0,2,6.76c.38.42.74.84,1.1,1.27a23,23,0,0,1-1.92-7.62,17.27,17.27,0,0,1,.47-5.49,17,17,0,0,1,1.69-4.18,87.77,87.77,0,0,1,12,16.24c2.66,4.68,3.79,10.21,6,15a16.44,16.44,0,0,1-5.51-.95,17.47,17.47,0,0,1-4.72-2.55,20.82,20.82,0,0,1-3.11-2.84,13,13,0,0,1,.53,1.63,27.29,27.29,0,0,0,2.47,2.48,19.75,19.75,0,0,0,10.55,5.08c6.89.92,13.22-2.1,18.78-5.83,9.48-6.37,19.77-17.1,20.12-29.25a16.64,16.64,0,0,0-8.14-15c-5.11-3-11.21-3.54-17-3.21C324.5,69.51,313.1,72.44,305.53,79.2Zm36.58-8.8c5.52.77,10.94,3.55,13.25,8.88,2.15,4.95,1,10.44-1.26,15.14-2.32-9.51-7.47-18.71-15.32-24.26A28,28,0,0,1,342.11,70.4Zm-13.57,1.15c9.33,9.64,18,18.31,18.3,32.63,0,.13,0,.24,0,.37a57.36,57.36,0,0,1-4.82,4.49c-.54-4.78-2.89-9.38-5.25-13.92-3.75-7.21-8.94-15.43-15.53-21A56.08,56.08,0,0,1,328.54,71.56ZM313.2,78.31c9.46,8.61,18.6,22.87,22,35.75q-1.74,1.12-3.5,2.15a28.88,28.88,0,0,1-5,2.14c.63-4.07-1.7-9-3.11-12.61-3.41-8.72-9-17.44-16.26-23.42a34.1,34.1,0,0,1,4.88-3.43Z"/><path class="cls-4" d="M166.26,53.45a5.33,5.33,0,0,0-3.53-2.55,6.56,6.56,0,0,0-2-.11,5.22,5.22,0,0,0-.63-1.73,5.12,5.12,0,0,0-3.37-2.44c-2.31-.52-5,.32-10.54,3.63a9.07,9.07,0,0,0-2.23.52,4.9,4.9,0,0,0-2.72-1.63c-2.91-.64-4.48.61-12.93,5.91a31.6,31.6,0,0,0-1.6-2.78,6.2,6.2,0,0,0-4-2.31c-2.26-.16-4.29.27-10.52,4.3a4.91,4.91,0,0,0-2.67-1.72c-1.67-.38-3.12,0-6,1.69-2.11.13-4.5,1.72-10,5.55l-1.85,1.28a48.59,48.59,0,0,0-4.83,2.71A4.46,4.46,0,0,0,83.66,69a4.71,4.71,0,0,0,.62,2A4.43,4.43,0,0,0,85,72a5.77,5.77,0,0,0-.75,1.59,5,5,0,0,0,.45,4,4.83,4.83,0,0,0,3.13,2.29A10.1,10.1,0,0,0,90,79.9a5.43,5.43,0,0,0-.86,2.71c-.28,4.16,2.12,6.27,3.39,11.87.8,3.53-2.77,7.75-2.9,8.19a5.5,5.5,0,0,0,.48,4.37,5.21,5.21,0,0,0,3.43,2.49,5.82,5.82,0,0,0,1.27.14c1.6,0,3.56-.59,6.35-2,2.05.33,4.49-.38,8.1-2.39,3.86.14,8.91-3.42,19.82-11.81l3.54-2.71c14.74-7.32,19.86-10.25,21.59-13.36,3.23-2.21,4.91-4,5.5-5.95h0c3.8-2.65,5.78-4.8,6.42-7a5.65,5.65,0,0,0-.46-4.43,7.46,7.46,0,0,0,1.08-2.21A5.67,5.67,0,0,0,166.26,53.45Z"/><path class="cls-1" d="M230.44,62.66c.22,5.8,4.35,11.42,8.12,15.54,6.79,7.41,15.85,12.76,24.61,17.46a173,173,0,0,0,18.53,8.71l2.33.89a8.45,8.45,0,0,1,.57-2.52l-1.2-.77c-9.49-6-19-12-28.28-18.42a100.71,100.71,0,0,1-11.49-8.75,33.57,33.57,0,0,1-7.14-9.16c-.59-1.21-1.59-3.06-1.18-4.5a.77.77,0,0,0,0,.11.67.67,0,0,1,.06-.17l0,.06c.52-1.34,2.41-2.21,3.58-2.78a32.5,32.5,0,0,1,6.32-2.22,45.47,45.47,0,0,1,13-1.33,30.36,30.36,0,0,1,13.38,3.32c-1.09,2.37-1,5.38-.83,7.84a37.41,37.41,0,0,0,4.14,14.2,81.37,81.37,0,0,0,12.8,18.43l.41.45a7.51,7.51,0,0,1,3.95-.8c.05,0-.34.27.32-.07l-.12-.21-.56-1v0c-1.59-2.76-3.36-5.45-4.92-8.24-2.65-4.74-5.3-9.44-7.45-14.23a36.27,36.27,0,0,1-3.11-10.38,21.26,21.26,0,0,1-.19-2.46c0-.75.09-2.95,1.78-3.65a14.48,14.48,0,0,1,2.61-.69,17.52,17.52,0,0,1,8.2.64c2.83.91,5.68,2.67,7.11,5.36s1.07,6.15.85,9.09q-.68,9.63-1.07,19.28c-.07,1.7-.13,3.39-.18,5.09,0,.86,0,1.72-.05,2.58a14.78,14.78,0,0,1,2.37,1.53q.6-1.76,1.13-3.6C301.34,88.2,302.46,78,300.34,69c-.77-3.27-1.91-6.25-4.38-8.62a22.29,22.29,0,0,0-7.58-4.56c-4.13-1.57-10.89-3.25-14.84-.22l-.06,0c-.22-.09-.44-.16-.68-.25-5.76-2.06-12.23-2.4-18.3-2.41-5.91,0-12.23.22-17.84,2.24C233.12,56.5,230.28,58.67,230.44,62.66Z"/><path class="cls-1" d="M307.48,120.19l1.71.94c1.56.84,3.13,1.67,4.7,2.49q8.55,4.49,17.23,8.71c2.65,1.28,5.82,2.7,7.44,5.28s1.7,5.91,1.07,8.81a17.38,17.38,0,0,1-3.57,7.38,11.31,11.31,0,0,1-1.79,1.82,3.76,3.76,0,0,1-1.68.78h-.31a5.59,5.59,0,0,1-2.12-.76,21.26,21.26,0,0,1-2.64-1.9,37.48,37.48,0,0,1-6.92-7.42c-3.07-4.29-5.93-8.89-8.74-13.58-1.52-2.55-3-5.12-4.54-7.66l-.9-1.51-.4-.66a8.49,8.49,0,0,1-2.43,2.15q.44,1.54.94,3.1a73.34,73.34,0,0,0,11.26,22.3c3,3.9,9.5,10.32,15.3,10.63-.07,4.79-2,9.89-4.23,13.93a44.93,44.93,0,0,1-7.81,10.46c-1.83,1.82-5.81,6.05-8.76,5.56l.11,0-.24,0,.13,0c-1.64-.42-2.9-2.6-3.7-3.88a34.31,34.31,0,0,1-4-10.16,100.42,100.42,0,0,1-1.83-14.33c-.92-10.69-1.29-21.41-1.74-32.13-.07-1.57-.14-3.14-.21-4.71a13.14,13.14,0,0,1-2.17-.45c-.32,1.71-.59,3.44-.84,5.18-.82,5.87-1.23,11.82-1.46,17.65-.37,9.7-.34,19.83,2.14,29.28,1.82,7,8.38,23,18,16.53,4.84-3.28,8.31-8.69,11.29-13.6a66.09,66.09,0,0,0,7.7-16.82,26.34,26.34,0,0,0,.64-3,7.83,7.83,0,0,0,3.1-2.41c3.62-4.49,5-11.47,4.36-17.11-.74-6.45-5.59-10.88-10.73-14.33a66.24,66.24,0,0,0-16.39-7.5c-1.51-.49-3-.94-4.58-1.34-.67-.18-1.33-.34-2-.48A9,9,0,0,1,307.48,120.19Z"/><path class="cls-5" d="M292.62,132.67a5.19,5.19,0,0,1-1.09-.12,4.83,4.83,0,0,1-3.16-2.25,4.45,4.45,0,0,1-.32-4.24l-.21-.1a5.57,5.57,0,0,1-1.45-.12,5,5,0,0,1-3.28-2.33,4.54,4.54,0,0,1-.24-4.43,5.63,5.63,0,0,1-1.05-.12,5,5,0,0,1-3.31-2.34,4.83,4.83,0,0,1,.61-5.73,4.76,4.76,0,0,1-2-1.85,4.48,4.48,0,0,1,1.7-6.2,4.7,4.7,0,0,1,1.79-.58c1.22-.68,3.69-2.33,5.41-3.48,6.32-4.23,8.46-5.65,11.15-5.05a4.82,4.82,0,0,1,3.1,2.23,4.53,4.53,0,0,1,.67,2.73,5.5,5.5,0,0,1,1.75.09,5,5,0,0,1,3.3,2.33,4.52,4.52,0,0,1,.41,4,5.54,5.54,0,0,1,1.69.1,5,5,0,0,1,3.31,2.35,4.75,4.75,0,0,1,.48,3.73,5.13,5.13,0,0,1-.32.86,4.88,4.88,0,0,1,1,1.19c2.39,4-1.86,7.1-3.46,8.25l-.41.29a4.52,4.52,0,0,1-2.3,3.5,4.7,4.7,0,0,1-1.82.58c-1,.58-2.68,1.77-3.78,2.54C296.87,131.22,294.8,132.67,292.62,132.67Z"/><path class="cls-6" d="M283,133.41a3.22,3.22,0,0,1-1.54-.39,4.06,4.06,0,0,1-1.34.22h0a4.48,4.48,0,0,1-3.92-2.59,4.94,4.94,0,0,1-.69-3.3,3.36,3.36,0,0,1-.88.09c-1.16,0-2.83-.49-4.16-2.78a4.83,4.83,0,0,1-.51-4.16,4.51,4.51,0,0,1,.77-1.35,3.94,3.94,0,0,1-2-1.73A3,3,0,0,1,272,113c.49-.49,1.1-1.17,1.52-1.65,2-2.2,3.83-4.27,6.28-4a3.84,3.84,0,0,1,2.94,2,4.75,4.75,0,0,1,.64,3.32,5.09,5.09,0,0,1,3.23,2.68,5,5,0,0,1,.56,4.15l0,.08a4.54,4.54,0,0,1,3.76,2.6,4.31,4.31,0,0,1,.36,4l-.07.15.08.14a3,3,0,0,1,.37,1.07c.67,1.84.27,3.17-1.21,4s-2.73.42-3.86-1a3.89,3.89,0,0,1-3.06,3A3.58,3.58,0,0,1,283,133.41Z"/><path class="cls-1" d="M279.85,109.91l-.2,0a6.14,6.14,0,0,0-2.91.2c-2,.61-3.45,2-3.39,3.23a12.07,12.07,0,0,0-2.07,3.37l-.56-.25a14.38,14.38,0,0,0-7.94-1c-5,.85-9.63,4-9.67,9.59,0,.68-.08,2,.94,1.52a32.61,32.61,0,0,0,7.53-5,10.33,10.33,0,0,1,7.22-2.71,16,16,0,0,1,1.81.08,11.79,11.79,0,0,0,.78,7.12,12.08,12.08,0,0,0,6.18,5.9c-1.15,2.31-3,4.65-5.45,5.62-1.81.71-3.56,1.24-5.32,2.11-.9.45-4.49,1.85-4.14,3.09.19.68,2.38,1.33,3,1.51a10,10,0,0,0,3.14.41c3-.07,5.19-1.57,7.2-3.65a14.68,14.68,0,0,0,3.9-7.12c.08-.37.14-.75.2-1.12a11.19,11.19,0,0,0,4.3.23,7.29,7.29,0,0,0,3.65-1.61,7.06,7.06,0,0,0,.74-.6,6.29,6.29,0,0,0,1.55-2.2c4.28,2.32,9.29,2.91,13.68-.14,6.75-4.68,7.65-15.89,4.5-22.93a15,15,0,0,0-21.11-6.89A14.83,14.83,0,0,0,279.85,109.91Zm-2.54,13.72c-1.22-2.1-2.91-5.76-2.66-8.71a5.64,5.64,0,0,0,3.52,0,5.46,5.46,0,0,0,3.07-2.08,10.7,10.7,0,0,1,1,1.36c.92,1.42,2.35,3.32,3.14,4.56,1.18,1.87,2.89,3.38,3.42,5.6a4.84,4.84,0,0,1,.1,1.37,5.14,5.14,0,0,0-3.62,1.59A6.64,6.64,0,0,0,284,129a17.46,17.46,0,0,1-2.36-1.06A13.15,13.15,0,0,1,277.31,123.63Zm27.42-14.77a15.45,15.45,0,0,1,3.21,8,9,9,0,0,1-5.17,8.58c-2,.92-5.71.27-7.88-.75a15,15,0,0,1-3.8-2.69,21.38,21.38,0,0,0-.51-3.67,11.47,11.47,0,0,0-5.8-7.26c-1.34-4.58-1.34-9.43,2.85-11.83C294.23,95.52,301.07,103.53,304.73,108.86Z"/><path class="cls-1" d="M85.35,194.47c4.91-3.09,7.72-9.47,9.4-14.8,3-9.58,3.12-20.11,2.82-30a172.88,172.88,0,0,0-1.72-20.4c-.13-.83-.26-1.65-.39-2.47a8.42,8.42,0,0,1-2.47.77c0,.47,0,.95-.06,1.43-.49,11.24-.85,22.49-1.81,33.7A100.81,100.81,0,0,1,89.27,177a33.55,33.55,0,0,1-4.36,10.76c-.75,1.11-1.86,2.9-3.3,3.27l.12,0a.7.7,0,0,1-.18,0l.06,0c-1.43.22-3.12-1-4.2-1.71A32.45,32.45,0,0,1,72.33,185a45.48,45.48,0,0,1-7.64-10.58,30.37,30.37,0,0,1-3.82-13.25c2.6-.23,5.17-1.8,7.2-3.2A37.39,37.39,0,0,0,78.3,147.24a81.39,81.39,0,0,0,9.56-20.3l.18-.59a7.52,7.52,0,0,1-2.67-3s.4.16-.22-.24l-.12.21-.56,1v0c-1.6,2.76-3,5.64-4.68,8.38-2.79,4.66-5.53,9.31-8.6,13.57a36.37,36.37,0,0,1-7.43,7.89,21.31,21.31,0,0,1-2,1.39c-.65.36-2.6,1.4-4.05.28a14.42,14.42,0,0,1-1.9-1.92,17.51,17.51,0,0,1-3.54-7.42c-.63-2.91-.53-6.26,1.09-8.84s4.8-4,7.44-5.28q8.68-4.23,17.23-8.71c1.51-.79,3-1.58,4.5-2.39L84.75,120a14.78,14.78,0,0,1,.14-2.82q-1.82.36-3.68.82c-9.19,2.29-18.55,6.4-25.31,12.75-2.45,2.3-4.46,4.78-5.27,8.1a22.29,22.29,0,0,0-.16,8.85c.71,4.36,2.63,11.06,7.23,13a.39.39,0,0,0,0,.06c0,.24.09.46.13.71,1.1,6,4,11.79,7.07,17.05S71.2,189,75.76,192.82C78.68,195.22,82,196.6,85.35,194.47Z"/><path class="cls-1" d="M96.66,99c0-.65,0-1.3,0-2,0-1.77-.12-3.55-.19-5.31Q96,82.06,95.35,72.44c-.21-2.93-.57-6.39.85-9.09s4.27-4.42,7.09-5.33a17.4,17.4,0,0,1,8.17-.6,11.34,11.34,0,0,1,2.47.64,3.77,3.77,0,0,1,1.52,1.07l.14.24v0a5.62,5.62,0,0,1,.4,2.22,21.53,21.53,0,0,1-.32,3.24,37.48,37.48,0,0,1-3,9.7c-2.17,4.8-4.74,9.58-7.39,14.36-1.45,2.59-2.92,5.18-4.36,7.76l-.86,1.54-.37.67a8.51,8.51,0,0,1,3.07,1q1.11-1.15,2.22-2.36a73.37,73.37,0,0,0,13.68-20.9c1.87-4.55,4.19-13.38,1.56-18.57,4.18-2.34,9.57-3.2,14.18-3.3a44.9,44.9,0,0,1,13,1.53c2.49.68,8.14,2,9.2,4.81a.38.38,0,0,0,0-.11c0,.08.05.16.08.23a.57.57,0,0,0-.05-.12c.46,1.63-.8,3.81-1.51,5.14a34.3,34.3,0,0,1-6.81,8.53,100.4,100.4,0,0,1-11.49,8.75c-8.8,6.14-17.9,11.82-27,17.57l-4,2.54a13.08,13.08,0,0,1,.69,2.1c1.64-.58,3.28-1.21,4.91-1.87,5.49-2.23,10.86-4.84,16-7.56,8.59-4.53,17.34-9.63,24.29-16.49,5.12-5.06,15.77-18.78,5.29-23.89-5.26-2.56-11.68-2.85-17.43-3A66.13,66.13,0,0,0,121.2,54.7a26.26,26.26,0,0,0-2.93,1,7.84,7.84,0,0,0-3.64-1.48c-5.7-.89-12.44,1.4-17,4.78-5.22,3.87-6.62,10.28-7,16.45a66.3,66.3,0,0,0,1.7,17.94c.33,1.56.7,3.11,1.13,4.64.18.67.37,1.33.58,2A9,9,0,0,1,96.66,99Z"/><path class="cls-1" d="M62.13,121.17a19.58,19.58,0,0,0,16.93-1.92,23,23,0,0,0,2.08-1.52A29,29,0,0,0,86,112.57c.17-.53.36-1.07.55-1.59a23,23,0,0,1-5.64,5.48,17.24,17.24,0,0,1-5,2.34,16.92,16.92,0,0,1-4.46.63,87.81,87.81,0,0,1,8.06-18.51c2.72-4.64,7-8.39,10-12.71a16.41,16.41,0,0,1,1.94,5.25,17.44,17.44,0,0,1,.15,5.37,21,21,0,0,1-.9,4.11,12.86,12.86,0,0,1,1.14-1.27,27.36,27.36,0,0,0,.91-3.38,19.73,19.73,0,0,0-.87-11.67c-2.65-6.43-8.43-10.4-14.44-13.35-10.26-5-24.7-8.57-35.39-2.79A16.64,16.64,0,0,0,33.12,85c0,5.91,2.54,11.48,5.72,16.33C44.25,109.59,52.49,118,62.13,121.17ZM36.22,93.88C34.13,88.72,33.83,82.63,37.29,78c3.21-4.33,8.53-6.1,13.74-6.48C44,78.25,38.57,87.32,37.68,96.89A27.86,27.86,0,0,1,36.22,93.88ZM44,105.06c3.69-12.9,6.84-24.77,19.11-32.17l.3-.22a57.63,57.63,0,0,1,6.3,1.93C65.86,77.47,63,81.8,60.3,86.11,55.93,93,51.4,101.57,49.92,110A55.9,55.9,0,0,1,44,105.06ZM57.52,115c2.73-12.5,10.5-27.55,20-36.93q1.84.95,3.61,2a28.78,28.78,0,0,1,4.36,3.27c-3.84,1.48-7,6-9.37,9-5.84,7.31-10.6,16.52-12.15,25.79a34,34,0,0,1-5.41-2.51Z"/><path class="cls-5" d="M93.84,129.33a5.05,5.05,0,0,1-1.11-.13,4.71,4.71,0,0,1-2.55-1.53,5.15,5.15,0,0,1-2.66.1,4.76,4.76,0,0,1-2.87-1.91,5.19,5.19,0,0,1-1.41-.11,4.84,4.84,0,0,1-3.18-2.3,4.9,4.9,0,0,1-.46-3.82,5.74,5.74,0,0,1,.29-.79,4.78,4.78,0,0,1-1.66-.12,4.66,4.66,0,0,1-3-2.19c-1.62-2.8-.07-5.14,1.62-6.72a4.45,4.45,0,0,1,4-4.3c1.29-.71,4-2.56,5.89-3.84,7.06-4.79,9-6,11.55-5.44a4.66,4.66,0,0,1,1.25.48c3.35-1.92,4.82-2.23,6.45-1.85a4.69,4.69,0,0,1,3,2.2,4.83,4.83,0,0,1,.61,1.82,5,5,0,0,1,1.7.11,4.74,4.74,0,0,1,3,2.24,4.86,4.86,0,0,1,.46,3.78c-.38,1.36-1.21,2.49-3.08,3.9-1.68.92-7.6,12.95-9.27,14.8C97.49,129.22,96.09,129.33,93.84,129.33Z"/><path class="cls-6" d="M109.14,135.48h0a4.58,4.58,0,0,1-4-2.62,6,6,0,0,1-.56-1.28,5.38,5.38,0,0,1-.76.05c-1.34,0-2.79-.93-4.82-3.3-1.1-1.28,5.44-14,5.76-14.16.64-.7,1.33-1.54,1.84-2.16,2.58-3.14,4.79-5.85,7.83-5.61a4.48,4.48,0,0,1,3.55,2.39,5.48,5.48,0,0,1,.55,4.94,5,5,0,0,1-.24.52,7.9,7.9,0,0,1,1.61,2,5.7,5.7,0,0,1,.59,5.1,5.54,5.54,0,0,1-1.57,2.18,6.86,6.86,0,0,1,.67,1,3.1,3.1,0,0,1-3.51,4.54q-.26.18-.55.35l-.5.85C113.53,132.82,112,135.48,109.14,135.48Z"/><path class="cls-1" d="M101.56,128.05l.12.16a6.14,6.14,0,0,0,1.63,2.42c1.55,1.46,3.45,2,4.5,1.32a12.07,12.07,0,0,0,4,.11c0,.27,0,.49.06.62a14.39,14.39,0,0,0,3.13,7.36c3.26,3.95,8.29,6.34,13.14,3.58.59-.33,1.75-.91.85-1.58a32.58,32.58,0,0,0-8.06-4,10.33,10.33,0,0,1-6-4.89,16.14,16.14,0,0,1-.84-1.61,11.78,11.78,0,0,0,5.77-4.23,12.08,12.08,0,0,0,2-8.3c2.57-.15,5.52.26,7.59,1.91,1.52,1.21,2.85,2.47,4.49,3.55.84.56,3.85,3,4.75,2,.5-.51,0-2.72-.18-3.32a10,10,0,0,0-1.22-2.93c-1.55-2.54-4-3.71-6.76-4.41a14.68,14.68,0,0,0-8.12.19c-.36.11-.72.25-1.07.39a11.16,11.16,0,0,0-2-3.84,9.21,9.21,0,0,0-4.11-2.69,6.31,6.31,0,0,0-2.68-.24c-.13-4.87-2.12-9.5-7-11.78-7.43-3.51-17.59,1.32-22.11,7.57a15,15,0,0,0,4.59,21.72A14.83,14.83,0,0,0,101.56,128.05Zm13.15-4.66c-1.2,2.11-3.53,5.4-6.22,6.66a5.64,5.64,0,0,0-1.78-3,5.46,5.46,0,0,0-3.34-1.61,10.84,10.84,0,0,1,.65-1.59c.77-1.51,1.7-3.7,2.38-5,1-2,1.48-4.19,3.14-5.77a4.84,4.84,0,0,1,1.14-.77,5.13,5.13,0,0,0,3.19,2.33,6.63,6.63,0,0,0,2.09.29,17.42,17.42,0,0,1,.27,2.57A13.14,13.14,0,0,1,114.71,123.39ZM88.21,107a15.46,15.46,0,0,1,5.35-6.8,9,9,0,0,1,10,.19c1.81,1.3,3.09,4.81,3.29,7.2a15.06,15.06,0,0,1-.43,4.63,21.34,21.34,0,0,0-2.93,2.27,11.48,11.48,0,0,0-3.39,8.66c-3.29,3.45-7.5,5.88-11.67,3.44C81.91,122.8,85.43,112.87,88.21,107Z"/><path class="cls-2" d="M194,465.64a5.26,5.26,0,0,1-2.42,4.34,7.83,7.83,0,0,1-4.73,1.6,1.58,1.58,0,0,1-1.16-.68v.34h-2.58q0-1.84.26-5.51t.26-5.51a65.33,65.33,0,0,0-.53-8.36l2.56-.32q.45,3.89.5,7a9.81,9.81,0,0,1,2-.18,5.14,5.14,0,0,1,4.15,2.52A8,8,0,0,1,194,465.64Zm-2.58,0a5,5,0,0,0-1.14-3.16,3.31,3.31,0,0,0-2.64-1.47,3,3,0,0,0-1.45.39q-.05,2.5-.39,6.28.21.37.45.74t.6.47a5.74,5.74,0,0,0,2.92-.84A2.85,2.85,0,0,0,191.46,465.64Z"/><path class="cls-2" d="M205.86,464.09a2.3,2.3,0,0,1-.53,1.7,2.34,2.34,0,0,1-1.68.51q-1.08,0-3-.05-2.1-.08-3-.08a2.76,2.76,0,0,0,1.5,2.29,5.41,5.41,0,0,0,2.76.66,8.84,8.84,0,0,0,2.73-1l1,2.42-1.81.79a5.25,5.25,0,0,1-1.92.45,7.25,7.25,0,0,1-4.84-1.55,5.71,5.71,0,0,1-2-4.65,8.11,8.11,0,0,1,1.87-5.23,6.07,6.07,0,0,1,4.86-2.45,3.48,3.48,0,0,1,3.31,2.1A9.37,9.37,0,0,1,205.86,464.09Zm-2.63-.42-.24-2q-.26-1.16-1.24-1.16a3.85,3.85,0,0,0-2.43.88,4.17,4.17,0,0,0-1.49,2.17q.74,0,2.37.08t2.37.05Z"/><path class="cls-2" d="M218,464.09a2.3,2.3,0,0,1-.53,1.7,2.34,2.34,0,0,1-1.68.51q-1.08,0-3-.05-2.1-.08-3-.08a2.76,2.76,0,0,0,1.5,2.29,5.41,5.41,0,0,0,2.76.66,8.84,8.84,0,0,0,2.73-1l1,2.42-1.81.79a5.25,5.25,0,0,1-1.92.45,7.25,7.25,0,0,1-4.84-1.55,5.71,5.71,0,0,1-2-4.65A8.11,8.11,0,0,1,209,460.3a6.07,6.07,0,0,1,4.86-2.45,3.48,3.48,0,0,1,3.31,2.1A9.37,9.37,0,0,1,218,464.09Zm-2.63-.42-.24-2q-.26-1.16-1.24-1.16a3.85,3.85,0,0,0-2.43.88,4.17,4.17,0,0,0-1.49,2.17q.74,0,2.37.08t2.37.05Z"/><path class="cls-2" d="M236.81,460.21,234.93,462a4.66,4.66,0,0,0-1.78-1.39,7.1,7.1,0,0,0-2.22-.24,3.29,3.29,0,0,0-1.2.16,1,1,0,0,0-.57,1q0,.84,1.68,1.16a18.39,18.39,0,0,1,3.79.89,4.1,4.1,0,0,1,2.18,4,3.91,3.91,0,0,1-1.3,2.91,4.16,4.16,0,0,1-3,1.25q-3.26,0-6.76-3.34l1.76-1.92q2.76,2.63,5,2.63a1.75,1.75,0,0,0,1.12-.48,1.38,1.38,0,0,0,.57-1.06,2.34,2.34,0,0,0-.43-1.59,2.26,2.26,0,0,0-1.49-.58q-.68-.05-2.05-.21-3.68-.66-3.68-3.71,0-3.76,4.34-3.76a9.1,9.1,0,0,1,3.24.45A7.26,7.26,0,0,1,236.81,460.21Z"/><path class="cls-2" d="M254.53,468q0,1.32-.13,3.79l-2.63-.1q.16-2.94.16-5.23,0-3.92-1.21-5.6l-.39-.55q-.42,0-1.29,1.34a12.82,12.82,0,0,0-1,1.76q-.16,1.92-.16,3.1,0,.84-.12,2.51t-.12,2.51H245q0-1.13.18-3.37t.18-3.34q0-3.13-1.08-4.26a2.38,2.38,0,0,0-.47-.45,2.41,2.41,0,0,0-1.41.59,2.18,2.18,0,0,0-.91,1.22q-.05.32-.14.68a.61.61,0,0,1-.41.47q-.11,1.13-.11,2.66,0,.89.05,2.72t.05,2.75h-2.63V463q0-.26.18-1.71l.08-3.47,2.63.11v.47a4.25,4.25,0,0,1,2.45-.87,3.75,3.75,0,0,1,3.31,2.34q1.6-2.16,3.34-2.16Q254.53,457.72,254.53,468Z"/><path class="cls-2" d="M266.23,471.13l-2.56.26-.14-1.18a4.5,4.5,0,0,1-3.42,1.53,3.66,3.66,0,0,1-2.87-1.24,4.41,4.41,0,0,1-1.1-3.05,4.19,4.19,0,0,1,1.25-3.17,4.43,4.43,0,0,1,3.19-1.2,6.85,6.85,0,0,1,2.58.45,3.65,3.65,0,0,0-1.06-2.16,2.81,2.81,0,0,0-2.06-1q-.82,0-.91.12a6.36,6.36,0,0,0-.28,1.41l-2.55-.5a5.6,5.6,0,0,1,1-2.78,3.52,3.52,0,0,1,2.71-.87q3.55,0,5.28,4.19a6,6,0,0,1,.42,1.21q0,.55,0,1.61t0,1.61a17.23,17.23,0,0,0,.18,2.19Q266,469.53,266.23,471.13Zm-3.47-4.87a4,4,0,0,0-2.2-.55,1.9,1.9,0,0,0-1.47.44,2.43,2.43,0,0,0-.38,1.57q0,1.38,1.19,1.38a2.6,2.6,0,0,0,1.91-.87A3.23,3.23,0,0,0,262.76,466.26Z"/><path class="cls-2" d="M277.27,459.2l-1.67,2q-1.18-1.13-1.72-1.13a6.53,6.53,0,0,0-2.53.5,2.56,2.56,0,0,0-1.72,1.81,5.54,5.54,0,0,0,0,1.26v1.29l.05,6.78h-2.58q0-.74-.05-9.1l-.24-.08.24-.6V458h2.58v.5a8,8,0,0,1,4.27-1.08A5.49,5.49,0,0,1,277.27,459.2Z"/><path class="cls-2" d="M288.24,470.92a8.22,8.22,0,0,1-3.1.87,4.88,4.88,0,0,1-4.36-1.95,8.89,8.89,0,0,1-1.08-4.86q0-.68.05-1.89.05-1.37.08-1.89a27.5,27.5,0,0,1-2.76-.39l.45-2.6q1.5.29,2.31.37V455h2.58v3.6a48.45,48.45,0,0,0,5.1-.58l.39,2.58a46.63,46.63,0,0,1-5.47.66q0,.66-.1,2.29-.05,1.45-.05,2.29a4,4,0,0,0,.6,2.45,2.76,2.76,0,0,0,2.28.84,6.12,6.12,0,0,0,2.09-.66Z"/><path class="cls-7" d="M306.06,454.6h-2.92a2.57,2.57,0,0,0-2.42,1.07,6.9,6.9,0,0,0-.63,2.74q2.47-.11,4.13-.13v2.63q-1.6,0-4.29.16v.45q0,1.66.08,5t.08,5h-2.58q0-1.57-.08-5.14-.08-3.33-.08-5.14-2,0-2.87,0l-.18-2.63a29.13,29.13,0,0,1,3.15-.05q.55-6.63,4.94-6.63.6,0,1.83.05t1.83.05Z"/><path class="cls-7" d="M316.79,464.09a2.3,2.3,0,0,1-.53,1.7,2.34,2.34,0,0,1-1.68.51q-1.08,0-3-.05-2.1-.08-3-.08a2.76,2.76,0,0,0,1.5,2.29,5.41,5.41,0,0,0,2.76.66,8.84,8.84,0,0,0,2.73-1l1,2.42-1.81.79a5.25,5.25,0,0,1-1.92.45,7.25,7.25,0,0,1-4.84-1.55,5.71,5.71,0,0,1-2-4.65,8.11,8.11,0,0,1,1.87-5.23,6.07,6.07,0,0,1,4.86-2.45A3.48,3.48,0,0,1,316,460,9.37,9.37,0,0,1,316.79,464.09Zm-2.63-.42-.24-2q-.26-1.16-1.24-1.16a3.85,3.85,0,0,0-2.43.88,4.17,4.17,0,0,0-1.49,2.17q.74,0,2.37.08t2.37.05Z"/><path class="cls-7" d="M328.91,464.09a2.3,2.3,0,0,1-.53,1.7,2.34,2.34,0,0,1-1.68.51q-1.08,0-3-.05-2.1-.08-3-.08a2.76,2.76,0,0,0,1.5,2.29,5.41,5.41,0,0,0,2.76.66,8.84,8.84,0,0,0,2.73-1l1,2.42-1.81.79a5.25,5.25,0,0,1-1.92.45,7.25,7.25,0,0,1-4.84-1.55,5.71,5.71,0,0,1-2-4.65,8.11,8.11,0,0,1,1.87-5.23,6.07,6.07,0,0,1,4.86-2.45,3.48,3.48,0,0,1,3.31,2.1A9.37,9.37,0,0,1,328.91,464.09Zm-2.63-.42-.24-2q-.26-1.16-1.24-1.16a3.85,3.85,0,0,0-2.43.88,4.17,4.17,0,0,0-1.49,2.17q.74,0,2.37.08t2.37.05Z"/><path class="cls-7" d="M333.3,452a28.38,28.38,0,0,1-.37,3,17.29,17.29,0,0,0-.24,2.45v13.88h-2.13v-14a18.9,18.9,0,0,1,.26-2.73q.29-1.95.34-2.73Z"/><path class="cls-7" d="M353.28,469.21a17.42,17.42,0,0,1-.84,6.1,4.63,4.63,0,0,1-4.6,3.26,10.43,10.43,0,0,1-2.94-.55,4.47,4.47,0,0,1-2.5-1.42,4.72,4.72,0,0,1-.55-1.87l-.16-2,2.56-.37a24.09,24.09,0,0,0,.29,2.68l1.59.58a5.49,5.49,0,0,0,1.67.32q2.77,0,2.82-5.68a5,5,0,0,1-7.48-.28,5.91,5.91,0,0,1-1.67-4.14,7,7,0,0,1,1.71-5,10.45,10.45,0,0,1,4.5-2.5,3.38,3.38,0,0,1,1-.16h.55a14.85,14.85,0,0,1,1.37,1.13v-.63h2.58q0,1.76,0,5.24T353.28,469.21Zm-2.73-4.52a3.51,3.51,0,0,0-.82-2.1l-1.55-1.68-.79.29a5.43,5.43,0,0,0-2.34,1.66,4.18,4.18,0,0,0-1,2.73,3.74,3.74,0,0,0,.81,2.45,2.81,2.81,0,0,0,2.26,1.08,2.94,2.94,0,0,0,2.6-1.39A5.29,5.29,0,0,0,350.55,464.69Z"/><path class="cls-7" d="M366.08,465.36a8.82,8.82,0,0,1-.95,4.35,3.94,3.94,0,0,1-3.65,2.13h-.66l-.66,0q-2.18,0-3.65-2.53a8.85,8.85,0,0,1-1.29-4.56,7.31,7.31,0,0,1,.95-4.06,5.85,5.85,0,0,1,3.5-2.21,11.61,11.61,0,0,1,2.39-.45,1.66,1.66,0,0,1,1.5.79Q366.08,460.6,366.08,465.36Zm-2.58.22a11,11,0,0,0-.34-2.6q-.39-1.71-1-2.05l-.52-.29-1.36.37a3.32,3.32,0,0,0-2.12,1.31,5.51,5.51,0,0,0-.37,2.39,6.57,6.57,0,0,0,.71,2.79q.76,1.66,1.65,1.66l.65,0,.65,0Q363.51,469.21,363.51,465.59Z"/><path class="cls-7" d="M378.47,465.36a8.82,8.82,0,0,1-.95,4.35,3.94,3.94,0,0,1-3.65,2.13h-.66l-.66,0q-2.18,0-3.66-2.53a8.85,8.85,0,0,1-1.29-4.56,7.31,7.31,0,0,1,.95-4.06,5.85,5.85,0,0,1,3.5-2.21,11.61,11.61,0,0,1,2.39-.45,1.66,1.66,0,0,1,1.5.79Q378.47,460.6,378.47,465.36Zm-2.58.22a11,11,0,0,0-.34-2.6q-.39-1.71-1-2.05l-.52-.29-1.36.37a3.32,3.32,0,0,0-2.12,1.31,5.51,5.51,0,0,0-.37,2.39,6.57,6.57,0,0,0,.71,2.79q.76,1.66,1.65,1.66l.65,0,.65,0Q375.89,469.21,375.89,465.59Z"/><path class="cls-7" d="M391.53,467.37v4.26H389V470.4a6.78,6.78,0,0,1-4.15,1.39,4.29,4.29,0,0,1-3.58-1.74,6.32,6.32,0,0,1-1.21-3.92,9.29,9.29,0,0,1,.87-3.6,13.62,13.62,0,0,1,1.85-3.18,2.72,2.72,0,0,1,2.14-1.18h2.19a5.2,5.2,0,0,1,1.74.26q-.18-7.23-.18-6.6h2.58q0,1.66.09,4.94t.09,4.92q0,.92.08,2.81T391.53,467.37ZM389,464.43a13.56,13.56,0,0,0-.34-3.1,6.41,6.41,0,0,0-3.21-.53H385a10.36,10.36,0,0,0-1,1.3,10.78,10.78,0,0,0-.89,1.46,5.82,5.82,0,0,0-.5,2.58q0,2.95,2.15,2.94a3.81,3.81,0,0,0,3-1.43A4.78,4.78,0,0,0,389,464.43Z"/></svg>