<svg xmlns="http://www.w3.org/2000/svg" xmlns:xlink="http://www.w3.org/1999/xlink" viewBox="0 0 30 30"><defs><style>.cls-1{fill:none;}.cls-2{isolation:isolate;}.cls-3{clip-path:url(#clip-path);}.cls-4{opacity:0.7;}.cls-5{clip-path:url(#clip-path-2);}.cls-6{mix-blend-mode:soft-light;}.cls-7{fill:#fff;}.cls-8{clip-path:url(#clip-path-3);}.cls-9{clip-path:url(#clip-path-4);}.cls-10{fill:url(#radial-gradient);}.cls-11{fill:#d94335;}.cls-12{fill:#eeefef;}</style><clipPath id="clip-path"><rect class="cls-1" x="-747.32" y="-731.41" width="1920" height="530"/></clipPath><clipPath id="clip-path-2"><rect class="cls-1" x="-747.32" y="-1080.06" width="1920" height="1080"/></clipPath><clipPath id="clip-path-3"><polyline class="cls-1" points="-245.87 -110.62 -101.53 -27.29 -101.53 139.38 -245.87 222.72 -390.21 139.38 -390.21 -27.29 -245.87 -110.62"/></clipPath><clipPath id="clip-path-4"><polygon class="cls-1" points="-245.87 -109.19 -388.97 -26.57 -388.97 138.67 -245.87 221.29 -102.77 138.67 -102.77 -26.57 -245.87 -109.19 -245.87 -109.19"/></clipPath><radialGradient id="radial-gradient" cx="714.86" cy="428.37" r="1148.85" gradientUnits="userSpaceOnUse"><stop offset="0" stop-color="#fff8da"/><stop offset="0.4" stop-color="#ffe264"/><stop offset="1" stop-color="#fc9200"/></radialGradient></defs><title>G+</title><g class="cls-2"><g id="Layer_1" data-name="Layer 1"><g class="cls-3"><g class="cls-4"><g class="cls-5"><g class="cls-6"><rect class="cls-7" x="-788.37" y="-1169.87" width="2002.1" height="1261.89"/><polygon class="cls-7" points="88.49 -73.57 111.29 -34.08 88.49 5.41 42.89 5.41 20.09 -34.08 42.89 -73.57 88.49 -73.57"/><polygon class="cls-7" points="88.49 10.77 111.29 50.26 88.49 89.74 42.89 89.74 20.09 50.26 42.89 10.77 88.49 10.77"/><polygon class="cls-7" points="14.99 -31.73 37.79 7.75 14.99 47.24 -30.61 47.24 -53.41 7.75 -30.61 -31.73 14.99 -31.73"/></g></g></g></g><g class="cls-8"><g class="cls-9"><rect class="cls-10" x="-461.25" y="-233.19" width="2352.22" height="1323.12"/></g></g><circle class="cls-11" cx="15" cy="15" r="15"/><path class="cls-12" d="M11.53,14.13v2.08H15a3.28,3.28,0,0,1-3.44,2.62,3.83,3.83,0,0,1,0-7.66,3.41,3.41,0,0,1,2.42.94l1.65-1.59a5.81,5.81,0,0,0-4.06-1.59,6.06,6.06,0,0,0,0,12.13,5.59,5.59,0,0,0,5.82-5.93,5.59,5.59,0,0,0-.1-1Z"/><path class="cls-12" d="M24.53,14.13H22.8V12.4H21.06v1.73H19.33v1.73h1.73V17.6H22.8V15.87h1.73Z"/></g></g></svg>