<svg id="Layer_1" data-name="Layer 1" xmlns="http://www.w3.org/2000/svg" xmlns:xlink="http://www.w3.org/1999/xlink" viewBox="0 0 21 21"><defs><style>.cls-1{fill:none;}.cls-2{clip-path:url(#clip-path);}.cls-3{clip-path:url(#clip-path-2);}.cls-4{fill:url(#radial-gradient);}.cls-5{fill:#231f20;}</style><clipPath id="clip-path"><polyline class="cls-1" points="-801.02 -216.15 -656.68 -132.82 -656.68 33.85 -801.02 117.19 -945.36 33.85 -945.36 -132.82 -801.02 -216.15"/></clipPath><clipPath id="clip-path-2"><polygon class="cls-1" points="-801.02 -214.72 -944.12 -132.1 -944.12 33.14 -801.02 115.75 -657.92 33.14 -657.92 -132.1 -801.02 -214.72 -801.02 -214.72"/></clipPath><radialGradient id="radial-gradient" cx="159.71" cy="322.84" r="1148.85" gradientUnits="userSpaceOnUse"><stop offset="0" stop-color="#fff8da"/><stop offset="0.4" stop-color="#ffe264"/><stop offset="1" stop-color="#fc9200"/></radialGradient></defs><title>Hamburger</title><g class="cls-2"><g class="cls-3"><rect class="cls-4" x="-1016.4" y="-338.73" width="2352.22" height="1323.12"/></g></g><path class="cls-5" d="M19.84,6.48a65.51,65.51,0,0,1-9.25.43q-6.91,0-9.18.07L1.16,4.18Q3,4.07,5.48,4.07h6.16a61.52,61.52,0,0,0,7.63-.4Z"/><path class="cls-5" d="M19.84,11.94a65.51,65.51,0,0,1-9.25.43q-6.91,0-9.18.07L1.16,9.64Q3,9.53,5.48,9.53h6.16a61.52,61.52,0,0,0,7.63-.4Z"/><path class="cls-5" d="M19.84,16.82a65.51,65.51,0,0,1-9.25.43q-6.91,0-9.18.07l-.25-2.81q1.87-.11,4.32-.11h6.16a61.52,61.52,0,0,0,7.63-.4Z"/></svg>