<svg xmlns="http://www.w3.org/2000/svg" xmlns:xlink="http://www.w3.org/1999/xlink" viewBox="0 0 215 83.84"><defs><style>.cls-1{fill:none;}.cls-2{isolation:isolate;}.cls-3{clip-path:url(#clip-path);}.cls-4{fill:url(#radial-gradient);}.cls-5{opacity:0.7;}.cls-6{clip-path:url(#clip-path-2);}.cls-7{mix-blend-mode:soft-light;}.cls-8{fill:#fff;}.cls-9{fill:#ffd97e;}.cls-10{fill:#ffda55;}.cls-11{fill:#fbefbd;}.cls-12{fill:#ffb508;}.cls-13{fill:#231f20;}.cls-14{fill:#ff9026;}.cls-15{fill:#ffdc02;}.cls-16{fill:#f1f1f2;}.cls-17{fill:#a78701;}.cls-18{fill:#806800;}</style><clipPath id="clip-path"><rect class="cls-1" x="-48.55" y="133.64" width="1920" height="530"/></clipPath><radialGradient id="radial-gradient" cx="911.45" cy="324.99" r="937.75" gradientUnits="userSpaceOnUse"><stop offset="0" stop-color="#fff5d7"/><stop offset="0.4" stop-color="#ffdf64"/><stop offset="1" stop-color="#f98f00"/></radialGradient><clipPath id="clip-path-2"><rect class="cls-1" x="-48.55" y="-215.01" width="1920" height="1080"/></clipPath></defs><title>header logo</title><g class="cls-2"><g id="Layer_1" data-name="Layer 1"><g class="cls-3"><rect class="cls-4" x="-48.55" y="-215.01" width="1920" height="1080"/><g class="cls-5"><g class="cls-6"><g class="cls-7"><rect class="cls-8" x="-89.6" y="-304.81" width="2002.1" height="1261.89"/><polygon class="cls-9" points="272.77 -9.98 295.57 29.51 272.77 69 227.17 69 204.38 29.51 227.17 -9.98 272.77 -9.98"/><polygon class="cls-10" points="272.77 74.34 295.57 113.83 272.77 153.31 227.17 153.31 204.38 113.83 227.17 74.34 272.77 74.34"/><polygon class="cls-9" points="199.3 -51.81 222.1 -12.32 199.3 27.16 153.7 27.16 130.9 -12.32 153.7 -51.81 199.3 -51.81"/><polygon class="cls-11" points="199.3 32.52 222.1 72.01 199.3 111.5 153.7 111.5 130.9 72.01 153.7 32.52 199.3 32.52"/><polygon class="cls-9" points="125.8 -9.98 148.6 29.51 125.8 69 80.2 69 57.4 29.51 80.2 -9.98 125.8 -9.98"/><polygon class="cls-11" points="125.8 74.34 148.6 113.83 125.8 153.31 80.2 153.31 57.4 113.83 80.2 74.34 125.8 74.34"/><polygon class="cls-12" points="52.3 -51.81 75.1 -12.32 52.3 27.16 6.7 27.16 -16.1 -12.32 6.7 -51.81 52.3 -51.81"/><polygon class="cls-9" points="52.3 32.52 75.1 72.01 52.3 111.5 6.7 111.5 -16.1 72.01 6.7 32.52 52.3 32.52"/><polygon class="cls-9" points="-21.2 -9.98 1.6 29.51 -21.2 69 -66.8 69 -89.6 29.51 -66.8 -9.98 -21.2 -9.98"/><polygon class="cls-9" points="-21.2 74.34 1.6 113.83 -21.2 153.31 -66.8 153.31 -89.6 113.83 -66.8 74.34 -21.2 74.34"/></g></g></g></g><path class="cls-13" d="M105.37,33.9l-2.6,2.45a6.44,6.44,0,0,0-2.45-1.92,9.81,9.81,0,0,0-3.07-.33,4.54,4.54,0,0,0-1.66.22,1.37,1.37,0,0,0-.79,1.38q0,1.16,2.32,1.6a25.38,25.38,0,0,1,5.23,1.23q3,1.53,3,5.56a5.4,5.4,0,0,1-1.8,4,5.74,5.74,0,0,1-4.09,1.72q-4.5,0-9.33-4.61l2.43-2.65q3.81,3.63,6.9,3.63a2.41,2.41,0,0,0,1.54-.66,1.9,1.9,0,0,0,.78-1.46,3.23,3.23,0,0,0-.6-2.19,3.13,3.13,0,0,0-2.05-.8q-.94-.07-2.83-.29-5.08-.91-5.08-5.12,0-5.19,6-5.19a12.57,12.57,0,0,1,4.48.62A10,10,0,0,1,105.37,33.9Z"/><path class="cls-13" d="M121.42,44.16q0,.94,0,2.83t0,2.83h-3.56q0-1.24.11-3.75t.11-3.79q0-7.83-2-7.83-3.27,0-4.43,1.53,0,1.6,0,3.46t0,5.13q0,3.42,0,5.13h-3.56v-9c0-1.5-.13-8-.33-11.08q-.22-4.14-.22-6.5h3.52q0,2.91.4,8.46a13.36,13.36,0,0,1,4.94-.8Q121.42,30.83,121.42,44.16Z"/><path class="cls-13" d="M137.47,49l-3.54.36-.19-1.63A6.22,6.22,0,0,1,129,49.82a5.06,5.06,0,0,1-4-1.71,6.09,6.09,0,0,1-1.53-4.21,5.78,5.78,0,0,1,1.72-4.38,6.12,6.12,0,0,1,4.41-1.65,9.45,9.45,0,0,1,3.56.62,5,5,0,0,0-1.47-3,3.89,3.89,0,0,0-2.85-1.42q-1.13,0-1.25.16a8.8,8.8,0,0,0-.38,1.94l-3.52-.69a7.74,7.74,0,0,1,1.42-3.84,4.86,4.86,0,0,1,3.74-1.21q4.9,0,7.3,5.79a8.2,8.2,0,0,1,.58,1.67q0,.76,0,2.22t0,2.22a23.86,23.86,0,0,0,.25,3Q137.14,46.77,137.47,49Zm-4.79-6.72a5.5,5.5,0,0,0-3-.76,2.62,2.62,0,0,0-2,.61,3.35,3.35,0,0,0-.53,2.16q0,1.91,1.65,1.91A3.58,3.58,0,0,0,131.36,45,4.46,4.46,0,0,0,132.67,42.27Z"/><path class="cls-13" d="M152.72,32.5l-2.31,2.76Q148.79,33.7,148,33.7a9,9,0,0,0-3.5.69,3.54,3.54,0,0,0-2.38,2.51,7.65,7.65,0,0,0,0,1.74v1.78l.07,9.37h-3.56c0-.68-.07-18.92-.07-18.92h3.56v.69a11.07,11.07,0,0,1,5.9-1.49Q150,30.07,152.72,32.5Z"/><path class="cls-13" d="M165.21,39.26a3.17,3.17,0,0,1-.73,2.34,3.24,3.24,0,0,1-2.32.71q-1.49,0-4.18-.07-2.91-.11-4.18-.11a3.81,3.81,0,0,0,2.07,3.16,7.47,7.47,0,0,0,3.81.91,12.21,12.21,0,0,0,3.78-1.42l1.38,3.34-2.51,1.09a7.25,7.25,0,0,1-2.65.62A10,10,0,0,1,153,47.68a7.88,7.88,0,0,1-2.76-6.43A11.2,11.2,0,0,1,152.83,34a8.39,8.39,0,0,1,6.72-3.38,4.81,4.81,0,0,1,4.58,2.91A12.93,12.93,0,0,1,165.21,39.26Zm-3.63-.58-.33-2.79q-.36-1.61-1.71-1.61a5.32,5.32,0,0,0-3.36,1.21,5.76,5.76,0,0,0-2.05,3q1,0,3.27.11t3.27.07Z"/><path class="cls-13" d="M181.92,41.4a7.27,7.27,0,0,1-3.34,6A10.81,10.81,0,0,1,172,49.61a2.18,2.18,0,0,1-1.6-.94v.47h-3.56q0-2.54.36-7.61t.36-7.61a90.22,90.22,0,0,0-.73-11.55l3.54-.44q.62,5.38.69,9.7a13.54,13.54,0,0,1,2.77-.25q3.21,0,5.73,3.49A11.09,11.09,0,0,1,181.92,41.4Zm-3.56,0A7,7,0,0,0,176.78,37a4.57,4.57,0,0,0-3.65-2,4.07,4.07,0,0,0-2,.54q-.07,3.45-.54,8.68.29.51.62,1t.84.65a7.94,7.94,0,0,0,4-1.16Q178.36,43.36,178.36,41.4Z"/><path class="cls-13" d="M198.26,39.26a3.17,3.17,0,0,1-.73,2.34,3.24,3.24,0,0,1-2.32.71q-1.49,0-4.18-.07-2.91-.11-4.18-.11a3.81,3.81,0,0,0,2.07,3.16,7.47,7.47,0,0,0,3.81.91,12.2,12.2,0,0,0,3.78-1.42l1.38,3.34-2.51,1.09a7.25,7.25,0,0,1-2.65.62,10,10,0,0,1-6.68-2.14,7.88,7.88,0,0,1-2.76-6.43A11.2,11.2,0,0,1,185.87,34a8.39,8.39,0,0,1,6.72-3.38,4.81,4.81,0,0,1,4.58,2.91A12.93,12.93,0,0,1,198.26,39.26Zm-3.63-.58-.33-2.79q-.36-1.61-1.71-1.61a5.32,5.32,0,0,0-3.36,1.21,5.75,5.75,0,0,0-2.05,3q1,0,3.27.11t3.27.07Z"/><path class="cls-13" d="M215,39.26a3.17,3.17,0,0,1-.73,2.34,3.24,3.24,0,0,1-2.32.71q-1.49,0-4.18-.07-2.91-.11-4.18-.11a3.81,3.81,0,0,0,2.07,3.16,7.47,7.47,0,0,0,3.81.91,12.2,12.2,0,0,0,3.78-1.42l1.38,3.34-2.51,1.09a7.26,7.26,0,0,1-2.65.62,10,10,0,0,1-6.68-2.14A7.88,7.88,0,0,1,200,41.25,11.2,11.2,0,0,1,202.62,34a8.39,8.39,0,0,1,6.72-3.38,4.81,4.81,0,0,1,4.58,2.91A12.93,12.93,0,0,1,215,39.26Zm-3.63-.58L211,35.89q-.36-1.61-1.71-1.61A5.32,5.32,0,0,0,206,35.5a5.75,5.75,0,0,0-2.05,3q1,0,3.27.11t3.27.07Z"/><path class="cls-14" d="M75.74,26.64a2,2,0,0,0,.1-.2,2,2,0,0,0,.43-.71,1.49,1.49,0,0,0,.05-.67,2.23,2.23,0,0,0-.1-1,3.84,3.84,0,0,0-.9-1.39,2.18,2.18,0,0,0,.62-.93,1.46,1.46,0,0,0-.13-1.16,1.28,1.28,0,0,0-.26-.32,1.48,1.48,0,0,0-.17-.46,1.3,1.3,0,0,0-.43-.45l-.06-.11a1.3,1.3,0,0,0-.83-.62,1.47,1.47,0,0,0-.14-.34,1.3,1.3,0,0,0-.85-.62,1.58,1.58,0,0,0-.74,0l-.06-.11a1.28,1.28,0,0,0-.36-.4,1.45,1.45,0,0,0-.16-.39,1.29,1.29,0,0,0-.84-.62,2.56,2.56,0,0,0-1.73.42A1.47,1.47,0,0,0,69,16a1.3,1.3,0,0,0-.86-.62,1.52,1.52,0,0,0-.55,0,1.3,1.3,0,0,0-.81-.55,1.46,1.46,0,0,0-.36,0l-.1-.1a1.44,1.44,0,0,0-.17-1A1.29,1.29,0,0,0,65.3,13c-.46-.11-.93,0-1.91.51a1.33,1.33,0,0,0-.32-.12,1.4,1.4,0,0,0-.4,0l-.07-.13v0a1.76,1.76,0,0,0,.21-.43,1.47,1.47,0,0,0-.12-1.2,1.29,1.29,0,0,0-.84-.61l-.25,0,0,0a1.29,1.29,0,0,0-.84-.61,1.26,1.26,0,0,0-.34,0l0,0a1.29,1.29,0,0,0-.84-.61,1.59,1.59,0,0,0-.79,0,1.37,1.37,0,0,0-.27-.09,2.3,2.3,0,0,0-1.53.31,1.35,1.35,0,0,0-.44-.2h0A1.31,1.31,0,0,0,55.6,9h0l-.15-.12,0-.09a1.31,1.31,0,0,0-.76-.6,1.3,1.3,0,0,0-.54-.46,1.45,1.45,0,0,0-.19-.89,1.29,1.29,0,0,0-.84-.61,2.27,2.27,0,0,0-1.56.33,1.31,1.31,0,0,0-.43-.22A1.3,1.3,0,0,0,50.45,6a1.33,1.33,0,0,0-.81-.52h0a2.11,2.11,0,0,0-.28-1,2.07,2.07,0,0,0-1.31-1,2,2,0,0,0-1.22-.74,2.69,2.69,0,0,0-.59,0l-.05-.1a2,2,0,0,0-1.38-1l-.1,0a2,2,0,0,0-.2-.47A2,2,0,0,0,43.13.21a5.35,5.35,0,0,0-3,.61,5.36,5.36,0,0,0-3-.61,2,2,0,0,0-1.33.94,2,2,0,0,0-.2.47l-.1,0a2,2,0,0,0-1.38,1l-.05.1a2.72,2.72,0,0,0-.59,0,2,2,0,0,0-1.22.74,2.07,2.07,0,0,0-1.31,1,2.11,2.11,0,0,0-.28,1h0a1.33,1.33,0,0,0-.81.52,1.31,1.31,0,0,0-.62.39,1.32,1.32,0,0,0-.43.22,2.27,2.27,0,0,0-1.56-.33,1.29,1.29,0,0,0-.84.61,1.45,1.45,0,0,0-.19.89,1.29,1.29,0,0,0-.54.46,1.31,1.31,0,0,0-.76.6l0,.09L24.67,9h0a1.32,1.32,0,0,0-.87.63h0a1.34,1.34,0,0,0-.44.2,2.29,2.29,0,0,0-1.53-.31,1.34,1.34,0,0,0-.27.09,1.59,1.59,0,0,0-.79,0,1.28,1.28,0,0,0-.84.61l0,0a1.23,1.23,0,0,0-.34,0,1.29,1.29,0,0,0-.84.61l0,.05-.25,0a1.29,1.29,0,0,0-.84.62,1.48,1.48,0,0,0-.12,1.2,1.78,1.78,0,0,0,.21.43v0l-.06.13a1.44,1.44,0,0,0-.4,0,1.35,1.35,0,0,0-.32.12c-1-.53-1.45-.61-1.91-.5a1.29,1.29,0,0,0-.84.61,1.44,1.44,0,0,0-.17,1l-.1.1a1.41,1.41,0,0,0-.36,0,1.3,1.3,0,0,0-.81.55,1.51,1.51,0,0,0-.55,0,1.3,1.3,0,0,0-.86.62,1.48,1.48,0,0,0-.19.62,2.56,2.56,0,0,0-1.73-.42,1.3,1.3,0,0,0-.84.62,1.42,1.42,0,0,0-.16.39,1.3,1.3,0,0,0-.36.4l-.06.11a1.59,1.59,0,0,0-.74,0,1.29,1.29,0,0,0-.85.62,1.49,1.49,0,0,0-.14.34,1.3,1.3,0,0,0-.83.62l-.06.11a1.3,1.3,0,0,0-.43.45,1.51,1.51,0,0,0-.17.46,1.28,1.28,0,0,0-.26.32,1.46,1.46,0,0,0-.13,1.16,2.19,2.19,0,0,0,.63.94A3.85,3.85,0,0,0,4,24.08a2.24,2.24,0,0,0-.1,1,1.49,1.49,0,0,0,.05.68,2,2,0,0,0,.44.72,2.06,2.06,0,0,0,.09.2l.13.2c0,.05,0,.1.06.15a1.29,1.29,0,0,0-.22.27,1.44,1.44,0,0,0-.12,1.17,1.72,1.72,0,0,0,.25.49c0,.05,0,.1,0,.15l0,0a1.46,1.46,0,0,0-.07.37,2.9,2.9,0,0,0-.22.5,2.21,2.21,0,0,0,.11,1.72,1.51,1.51,0,0,0-.07,1.07,2.2,2.2,0,0,0,.56.88,1.81,1.81,0,0,0-.3.56,1.48,1.48,0,0,0-.05.66,1.76,1.76,0,0,0-.15.34l0,.12a1.87,1.87,0,0,0-.31.58,1.47,1.47,0,0,0,.12,1.2,1.3,1.3,0,0,0,.25.31,1.44,1.44,0,0,0,.05.18,1.26,1.26,0,0,0-.38.4,1.47,1.47,0,0,0-.15,1.11,1.5,1.5,0,0,0,0,1s0,.1.06.15a1.54,1.54,0,0,0,0,.93v.05a1.76,1.76,0,0,0,.16.37,1.5,1.5,0,0,0,0,.44,1.31,1.31,0,0,0-.19.25A1.48,1.48,0,0,0,4,43.47a1.7,1.7,0,0,0,.13.31,1.53,1.53,0,0,0,.06.69A2.42,2.42,0,0,0,5,45.53a2.09,2.09,0,0,0-.5.75,1.32,1.32,0,0,0-.15.21,1.5,1.5,0,0,0-.13,1.21,2.16,2.16,0,0,0,.57.88,1.16,1.16,0,0,0,.07.42,1.81,1.81,0,0,0-.25.52,1.51,1.51,0,0,0-.05.59,2.08,2.08,0,0,0-.4.72A1.53,1.53,0,0,0,4.23,52a2.28,2.28,0,0,0,.1,1,2.91,2.91,0,0,0,.27.57s0,.09,0,.14a1.67,1.67,0,0,0-.2.4,1.42,1.42,0,0,0,.12,1.15,1.35,1.35,0,0,0,.15.2,1.47,1.47,0,0,0,0,.81,1.16,1.16,0,0,0,0,1.15,2.11,2.11,0,0,0-.52.81,1.49,1.49,0,0,0,.13,1.21,1.31,1.31,0,0,0,.21.27,1.43,1.43,0,0,0,.13.31,1.31,1.31,0,0,0,.2.26A1.47,1.47,0,0,0,5,61.35a1.28,1.28,0,0,0,.76.59,1.3,1.3,0,0,0,.73.45,2.1,2.1,0,0,0,1.4-.25l.07.13a1.29,1.29,0,0,0,.84.61l.22,0a1.31,1.31,0,0,0,.74.46,1.5,1.5,0,0,0,.47,0,1.43,1.43,0,0,0,.14,1.1,1.29,1.29,0,0,0,.85.62,1.62,1.62,0,0,0,.83,0,1.48,1.48,0,0,0,.16.43,1.3,1.3,0,0,0,.84.62A2,2,0,0,0,14.25,66a1.35,1.35,0,0,0,.42.18l.16,0a1.32,1.32,0,0,0,.67.37l.08,0a1.46,1.46,0,0,0,.13.31,1.29,1.29,0,0,0,.37.41,1.42,1.42,0,0,0,.16.4,1.31,1.31,0,0,0,.86.63A2.21,2.21,0,0,0,18.58,68a1.29,1.29,0,0,0,.58.5,1.3,1.3,0,0,0,.67.38,1.48,1.48,0,0,0,.55,0,1.42,1.42,0,0,0,.14.35,1.31,1.31,0,0,0,.34.39,1.44,1.44,0,0,0,.11.24,1.3,1.3,0,0,0,.77.6,1.29,1.29,0,0,0,.82.58,1.44,1.44,0,0,0,.47,0,1.31,1.31,0,0,0,.8.53,1.67,1.67,0,0,0,.85,0,1.47,1.47,0,0,0,.2.72,1.3,1.3,0,0,0,.85.62,1.64,1.64,0,0,0,.82,0,1.29,1.29,0,0,0,.54.5l0,.07a1.29,1.29,0,0,0,.84.62,2.57,2.57,0,0,0,1.8-.46,1.29,1.29,0,0,0,.35.29,1.85,1.85,0,0,0-.28.56A1.46,1.46,0,0,0,30,75.63a2.05,2.05,0,0,0,1.41,1,3.51,3.51,0,0,0,1.45-.06,2.18,2.18,0,0,0,.27.77,1.93,1.93,0,0,0,.85.79,2,2,0,0,0,.58.41,2.11,2.11,0,0,0,1,.47,2.86,2.86,0,0,0,.8,0,2,2,0,0,0,1.27.84,2.49,2.49,0,0,0,.51,0,5.94,5.94,0,0,0,2-.46,5.93,5.93,0,0,0,2,.46,2.5,2.5,0,0,0,.51,0A2,2,0,0,0,44,79a2.81,2.81,0,0,0,.8,0,2.1,2.1,0,0,0,1-.48,2,2,0,0,0,.57-.41,1.93,1.93,0,0,0,.85-.79,2.18,2.18,0,0,0,.27-.77,3.54,3.54,0,0,0,1.44.06,2.05,2.05,0,0,0,1.41-1,1.46,1.46,0,0,0,.13-1.16,1.86,1.86,0,0,0-.28-.56,1.3,1.3,0,0,0,.35-.28,2.57,2.57,0,0,0,1.8.46,1.29,1.29,0,0,0,.84-.62l0-.07a1.27,1.27,0,0,0,.54-.5,1.63,1.63,0,0,0,.82,0,1.3,1.3,0,0,0,.85-.62,1.47,1.47,0,0,0,.2-.72,1.66,1.66,0,0,0,.85,0,1.31,1.31,0,0,0,.81-.53,1.46,1.46,0,0,0,.47,0,1.29,1.29,0,0,0,.82-.58,1.3,1.3,0,0,0,.77-.6,1.36,1.36,0,0,0,.11-.24,1.29,1.29,0,0,0,.34-.39,1.39,1.39,0,0,0,.14-.35,1.48,1.48,0,0,0,.55,0A4,4,0,0,0,61.69,68a2.21,2.21,0,0,0,1.48.29,1.31,1.31,0,0,0,.86-.63,1.42,1.42,0,0,0,.16-.4,1.28,1.28,0,0,0,.37-.41,1.47,1.47,0,0,0,.13-.31l.08,0a1.32,1.32,0,0,0,.67-.37l.16,0A1.35,1.35,0,0,0,66,66a2,2,0,0,0,1.18.16,1.3,1.3,0,0,0,.85-.62,1.47,1.47,0,0,0,.16-.43,1.63,1.63,0,0,0,.83,0,1.29,1.29,0,0,0,.85-.62,1.43,1.43,0,0,0,.14-1.1,1.46,1.46,0,0,0,.47,0,1.31,1.31,0,0,0,.74-.46l.22,0a1.29,1.29,0,0,0,.84-.61l.07-.13a2.1,2.1,0,0,0,1.4.25,1.3,1.3,0,0,0,.73-.46,1.28,1.28,0,0,0,.76-.59,1.47,1.47,0,0,0,.15-1.09,1.26,1.26,0,0,0,.2-.26,1.36,1.36,0,0,0,.13-.3,1.28,1.28,0,0,0,.21-.27,1.49,1.49,0,0,0,.13-1.21,2.12,2.12,0,0,0-.52-.81,1.16,1.16,0,0,0,0-1.14,1.47,1.47,0,0,0,0-.82,1.39,1.39,0,0,0,.15-.2,1.42,1.42,0,0,0,.12-1.15,1.69,1.69,0,0,0-.2-.41s0-.08,0-.12a2.86,2.86,0,0,0,.27-.57,2.28,2.28,0,0,0,.1-1,1.54,1.54,0,0,0,.12-1.19,2.08,2.08,0,0,0-.4-.72,1.5,1.5,0,0,0-.06-.59,1.81,1.81,0,0,0-.25-.52,1.19,1.19,0,0,0,.06-.41,2.16,2.16,0,0,0,.57-.88A1.5,1.5,0,0,0,76,46.49a1.32,1.32,0,0,0-.14-.19,2.08,2.08,0,0,0-.51-.77,2.41,2.41,0,0,0,.77-1.06,1.55,1.55,0,0,0,.06-.69,1.77,1.77,0,0,0,.13-.31,1.48,1.48,0,0,0-.13-1.19A1.3,1.3,0,0,0,76,42a1.48,1.48,0,0,0,0-.44,1.71,1.71,0,0,0,.16-.37v0a1.54,1.54,0,0,0,0-1s0-.09.05-.14a1.49,1.49,0,0,0,0-1A1.47,1.47,0,0,0,76.06,38a1.26,1.26,0,0,0-.38-.4,1.42,1.42,0,0,0,.06-.18,1.32,1.32,0,0,0,.24-.31,1.47,1.47,0,0,0,.12-1.2,1.83,1.83,0,0,0-.31-.58l0-.13a1.79,1.79,0,0,0-.15-.34,1.5,1.5,0,0,0-.05-.66,1.82,1.82,0,0,0-.3-.56,2.19,2.19,0,0,0,.56-.88,1.51,1.51,0,0,0-.07-1.06A2.22,2.22,0,0,0,75.87,30a2.92,2.92,0,0,0-.23-.51,1.45,1.45,0,0,0-.07-.35l0,0c0-.05,0-.1,0-.15a1.73,1.73,0,0,0,.25-.49,1.44,1.44,0,0,0-.12-1.17,1.32,1.32,0,0,0-.22-.27c0-.05.05-.1.07-.15Zm-36,37.56a2.15,2.15,0,0,0-1.42.27,1.45,1.45,0,0,0-.19-.72,1.29,1.29,0,0,0-.85-.62,2.39,2.39,0,0,0-1.65.39,1.41,1.41,0,0,0-.16-1,1.3,1.3,0,0,0-.85-.62,1.47,1.47,0,0,0-.33,0,1.3,1.3,0,0,0-.67-.38,1.51,1.51,0,0,0-.63,0,1.45,1.45,0,0,0-.12-.35,1.43,1.43,0,0,0-.19-.77,1.3,1.3,0,0,0-.85-.62,1.55,1.55,0,0,0-.67,0l-.19-.06a2.74,2.74,0,0,0-1.94.54l-.2-.1a1.69,1.69,0,0,0,.08-.2,1.47,1.47,0,0,0-.12-1.19,1.3,1.3,0,0,0-.85-.62l-.23,0a1.45,1.45,0,0,0-.17-.47,1.29,1.29,0,0,0-.84-.62,1.41,1.41,0,0,0-.33,0,1.29,1.29,0,0,0-.63-.34h0a1.29,1.29,0,0,0-.79-.53,1.76,1.76,0,0,0-1,.12,1.43,1.43,0,0,0-.19-.79,1.31,1.31,0,0,0-.86-.63,1.62,1.62,0,0,0-.76,0,1.45,1.45,0,0,0-.18-.55,1.28,1.28,0,0,0-.84-.61,1.45,1.45,0,0,0-.51,0,1.29,1.29,0,0,0-.56-.35,1.28,1.28,0,0,0-.71-.43h0L19,52.72a1.45,1.45,0,0,0-.18-.93,1.28,1.28,0,0,0-.28-.33,1.53,1.53,0,0,0-.06-.65,1.82,1.82,0,0,0-.18-.4,2,2,0,0,0,.51-.79,1.44,1.44,0,0,0-.12-1.16,1.28,1.28,0,0,0-.3-.36,1.45,1.45,0,0,0-.11-.62,2.13,2.13,0,0,0,.56-.89,1.57,1.57,0,0,0,.06-.33,1.74,1.74,0,0,0,.17-.38A1.47,1.47,0,0,0,19,44.69a1.28,1.28,0,0,0-.34-.38,1.94,1.94,0,0,0,.31-.6,1.5,1.5,0,0,0-.13-1.19,1.28,1.28,0,0,0-.53-.5,2.67,2.67,0,0,0-.2-.25s0-.08,0-.12l.05-.08.08-.17a1.3,1.3,0,0,0,.59-.54,1.52,1.52,0,0,0,.13-1.21,2.3,2.3,0,0,0-.62-1,2,2,0,0,0,.44-.75,1.54,1.54,0,0,0,.06-.45A1.45,1.45,0,0,0,19,36.4a1.48,1.48,0,0,0-.14-1.13,1.3,1.3,0,0,0-.65-.56l0-.13a1.49,1.49,0,0,0,.06-.56,2,2,0,0,0,.4-.71,1.51,1.51,0,0,0,0-.9,1.7,1.7,0,0,0,.18-.39,1.45,1.45,0,0,0-.12-1.18,1.26,1.26,0,0,0-.13-.18,1.49,1.49,0,0,0,0-.69,1.8,1.8,0,0,0-.23-.48s0-.07,0-.11a1.28,1.28,0,0,0,.5-.49A1.48,1.48,0,0,0,19,27.74a1.81,1.81,0,0,0-.25-.51,1.3,1.3,0,0,0,.33-.21,1.41,1.41,0,0,0,.41,0,1.31,1.31,0,0,0,.36-.14,1.68,1.68,0,0,0,.93.07,1.28,1.28,0,0,0,.84-.62,1.47,1.47,0,0,0,.19-.91,1.27,1.27,0,0,0,.54-.4,1.78,1.78,0,0,0,1,.11,1.31,1.31,0,0,0,.86-.63,1.54,1.54,0,0,0,.1-.21,1.55,1.55,0,0,0,.65,0,1.32,1.32,0,0,0,.87-.63,1.46,1.46,0,0,0,.13-.31l.2,0a1.3,1.3,0,0,0,.85-.62l.09-.17a1.59,1.59,0,0,0,.35,0,1.33,1.33,0,0,0,.43-.19,1.66,1.66,0,0,0,.85,0,1.3,1.3,0,0,0,.85-.62,1.54,1.54,0,0,0,.12-.26l.13,0a1.3,1.3,0,0,0,.85-.62l0-.09a1.51,1.51,0,0,0,.69,0,1.28,1.28,0,0,0,.84-.61l.06-.11.15,0a1.31,1.31,0,0,0,.45-.2l.26,0a1.29,1.29,0,0,0,.84-.61,1.51,1.51,0,0,0,.13-1.22l-.06-.17a1.41,1.41,0,0,0,.12-.32L35,17a1.74,1.74,0,0,0,.93.07,1.3,1.3,0,0,0,.86-.63,1.41,1.41,0,0,0,.14-.34l0,0,.16,0a1.31,1.31,0,0,0,.65-.35,2,2,0,0,0,1.3.21,1.34,1.34,0,0,0,.38-.15,1.51,1.51,0,0,0,.42,0l.24-.08.23.08a1.44,1.44,0,0,0,.42,0,1.34,1.34,0,0,0,.38.15,2,2,0,0,0,1.3-.21,1.32,1.32,0,0,0,.65.35l.16,0,0,0a1.41,1.41,0,0,0,.14.34,1.31,1.31,0,0,0,.86.63,1.73,1.73,0,0,0,.93-.08l.79.36a1.39,1.39,0,0,0,.12.32l-.07.17a1.51,1.51,0,0,0,.13,1.22,1.29,1.29,0,0,0,.84.61l.26,0a1.31,1.31,0,0,0,.45.2l.15,0,.06.11a1.28,1.28,0,0,0,.83.61,1.51,1.51,0,0,0,.69,0l0,.09a1.3,1.3,0,0,0,.85.62l.13,0a1.45,1.45,0,0,0,.12.26,1.3,1.3,0,0,0,.85.62,1.66,1.66,0,0,0,.85,0,1.31,1.31,0,0,0,.43.19,1.75,1.75,0,0,0,.35,0l.08.17a1.3,1.3,0,0,0,.85.62l.2,0a1.49,1.49,0,0,0,.13.31,1.32,1.32,0,0,0,.87.63,1.57,1.57,0,0,0,.65,0,1.51,1.51,0,0,0,.1.21,1.31,1.31,0,0,0,.86.63,1.79,1.79,0,0,0,1-.11,1.27,1.27,0,0,0,.54.4,1.48,1.48,0,0,0,.19.91,1.29,1.29,0,0,0,.84.61,1.69,1.69,0,0,0,.93-.07,1.35,1.35,0,0,0,.36.14,1.46,1.46,0,0,0,.41,0,1.29,1.29,0,0,0,.33.21,1.82,1.82,0,0,0-.25.51,1.48,1.48,0,0,0,.13,1.18,1.28,1.28,0,0,0,.5.49s0,.07,0,.1a1.79,1.79,0,0,0-.23.48,1.49,1.49,0,0,0,0,.68,1.31,1.31,0,0,0-.13.18A1.45,1.45,0,0,0,61.4,32a1.7,1.7,0,0,0,.18.39,1.52,1.52,0,0,0,0,.9A2,2,0,0,0,62,34a1.52,1.52,0,0,0,.06.56l0,.13a1.3,1.3,0,0,0-.65.56,1.49,1.49,0,0,0-.14,1.15,1.45,1.45,0,0,0,.13,1.07,1.55,1.55,0,0,0,.07.46,2,2,0,0,0,.45.75,2.3,2.3,0,0,0-.62,1,1.52,1.52,0,0,0,.13,1.21,1.3,1.3,0,0,0,.59.54l.08.17,0,.07s0,.09,0,.14A2.57,2.57,0,0,0,62,42a1.27,1.27,0,0,0-.53.5,1.5,1.5,0,0,0-.13,1.19,2,2,0,0,0,.31.6,1.28,1.28,0,0,0-.34.38,1.47,1.47,0,0,0-.12,1.19,1.77,1.77,0,0,0,.17.38,1.57,1.57,0,0,0,.06.33,2.14,2.14,0,0,0,.56.89,1.45,1.45,0,0,0-.11.62,1.29,1.29,0,0,0-.3.36,1.45,1.45,0,0,0-.12,1.16,2,2,0,0,0,.51.8,1.83,1.83,0,0,0-.18.39,1.53,1.53,0,0,0-.06.64,1.28,1.28,0,0,0-.28.33,1.46,1.46,0,0,0-.18.93l-.15.15h0a47.2,47.2,0,0,0-1.26.78,1.48,1.48,0,0,0-.51,0,1.28,1.28,0,0,0-.84.61,1.47,1.47,0,0,0-.19.55,1.62,1.62,0,0,0-.76,0,1.31,1.31,0,0,0-.86.63,1.43,1.43,0,0,0-.19.79,1.77,1.77,0,0,0-1-.11,1.29,1.29,0,0,0-.79.53h0A1.29,1.29,0,0,0,54,57a1.25,1.25,0,0,0-.33,0,1.29,1.29,0,0,0-.84.62,1.46,1.46,0,0,0-.17.47l-.23,0a1.3,1.3,0,0,0-.85.62A1.47,1.47,0,0,0,51.42,60a1.94,1.94,0,0,0,.08.2l-.2.1a2.73,2.73,0,0,0-1.94-.54l-.19.06a1.56,1.56,0,0,0-.67,0,1.3,1.3,0,0,0-.85.62,1.42,1.42,0,0,0-.19.77,1.46,1.46,0,0,0-.12.35,1.49,1.49,0,0,0-.63,0,1.3,1.3,0,0,0-.67.38,1.22,1.22,0,0,0-.33,0,1.3,1.3,0,0,0-.85.62,1.41,1.41,0,0,0-.16,1A2.39,2.39,0,0,0,43,63.13a1.3,1.3,0,0,0-.85.62,1.45,1.45,0,0,0-.19.72,2.15,2.15,0,0,0-1.42-.27,1.31,1.31,0,0,0-.45.2A1.33,1.33,0,0,0,39.69,64.2Z"/><path class="cls-13" d="M74.12,57.68a.65.65,0,0,0-.85-.34v-.51c-.09-3.68-.1-7.43-.11-11,0-3.26,0-6.64-.08-10-.06-2.83,0-5.71.26-8.81v-.16a14.86,14.86,0,0,0-.09-4.11l-.05-.23.21-.1a.58.58,0,0,0,.31-.48.44.44,0,0,0-.25-.41c-2.32-1.34-4.65-2.77-6.89-4.15-3.31-2-6.74-4.14-10.22-6-1.29-.69-2.6-1.37-3.87-2C48.81,7.41,45,5.42,41.35,3.15L41.18,3l0-.2a.72.72,0,0,0-.15-.57.51.51,0,0,0-.4-.2.64.64,0,0,0-.22,0l-.16.06-.14.06L40,2.29l-.06,0,0,0-.35.15a37.42,37.42,0,0,0-6.71,4,63,63,0,0,1-8.58,5c-5.74,2.83-11.28,5.69-16,9.5L8,21.26H8l-.12.1.12,0v.38c-.05,1.65-.18,3.31-.3,4.92-.09,1.18-.18,2.39-.25,3.59-.12,2.19-.06,4.44,0,6.62,0,1.32.07,2.69.07,4,0,3.47-.07,7-.14,10.41,0,2.23-.08,4.53-.11,6.8v.17l-.15.08a.46.46,0,0,0-.2.39.47.47,0,0,0,.2.42l.12.08a3.05,3.05,0,0,0,0,.35.46.46,0,0,0,.12.34.53.53,0,0,0,.38.14.57.57,0,0,0,.55-.35c0-.06.47.23.47.23,1.35.7,2.66,1.53,3.92,2.33.93.59,1.88,1.2,2.85,1.75,2.08,1.19,4.27,2.26,6.39,3.29,1,.5,2.1,1,3.14,1.55,2.29,1.16,4.5,2.53,6.63,3.85A78.92,78.92,0,0,0,39,76.92c-2.37-1.36-4.65-2.91-6.87-4.43a85.69,85.69,0,0,0-8.24-5.18c-1.06-.56-2.14-1.1-3.19-1.63-1.8-.91-3.67-1.84-5.46-2.87-.85-.49-1.69-1-2.51-1.52a45.92,45.92,0,0,0-4.29-2.47l-.17-.08v-.19c0-2.58.06-5.21.11-7.75.05-3.27.11-6.66.12-10,0-1.62,0-3.27-.07-4.86,0-1.89-.09-3.84-.06-5.77,0-.46,0-.93,0-1.39A30.63,30.63,0,0,0,8,21.55L8,21.29l.25-.08A29.94,29.94,0,0,0,14.4,18l1.37-.85a92.7,92.7,0,0,1,8.41-4.44,64.84,64.84,0,0,0,8.08-4.37c.58-.38,1.15-.78,1.73-1.17a31.52,31.52,0,0,1,6.7-3.84l.18-.07.13.13c3,3.05,7.17,5.09,11.16,7.05,1,.51,2,1,3,1.48,3.17,1.65,6.26,3.55,9.25,5.39,2.63,1.62,5.35,3.3,8.12,4.79l.15.08v.17a43,43,0,0,1-.32,6A59.23,59.23,0,0,0,72,36.78c.06,3.2.06,6.46.07,9.61,0,3.76,0,7.64.11,11.46V58l-.14.09c-6.37,4-11.53,7.2-16.23,10.09-1.42.87-2.85,1.8-4.25,2.69a97.31,97.31,0,0,1-11.32,6.58l-.13.06h0l-.28.13.61,0h.08l.27.11-.06-.14.36-.07a17.45,17.45,0,0,0,5-2.23c1.4-.81,2.79-1.69,4.14-2.54s2.44-1.54,3.68-2.27c5.48-3.25,12-7.11,18.51-11.14l.09-.06.11,0h.11a.53.53,0,0,0,.55-.4l0-.12.47-.29C74,58.34,74.26,58,74.12,57.68Z"/><path class="cls-13" d="M15.72,45.69c-.06-1.31-.13-2.67-.11-4,0-3,.1-6,.17-8.94.06-2.38.12-4.83.15-7.25v-.22l.21-.06A16.83,16.83,0,0,0,18.92,24c.54-.28,1.1-.56,1.64-.8A59.69,59.69,0,0,0,26,20.49a135.9,135.9,0,0,0,13.49-8.73l.18-.13.17.14c5.59,4.46,12.34,7.49,18.87,10.42,2.07.93,4.2,1.89,6.26,2.87a16.43,16.43,0,0,0-4.35-2.7c-2.45-1.16-5.08-2.43-7.65-3.83l-1.54-.83a68.18,68.18,0,0,1-11.53-7.28.52.52,0,0,0-.34-.13.63.63,0,0,0-.53.34l0,.06-.06,0a146.94,146.94,0,0,1-13.62,8.83c-1.59.9-3.24,1.69-4.84,2.45l-1.34.64A8.6,8.6,0,0,0,16,24.74l-.14.18-.21-.1a.6.6,0,0,0-.25-.05.53.53,0,0,0-.38.14.42.42,0,0,0-.11.32c0,2,.1,3.94.16,5.86.11,3.18.21,6.46.18,9.69,0,1.63,0,3.31.09,4.94a67.78,67.78,0,0,1-.07,8.35v.14l0,0,0,0,0,.19a.21.21,0,0,1,0,.07l0,0,.17-.12-.14,0,.05-.25A32.14,32.14,0,0,0,15.72,45.69Z"/><path class="cls-13" d="M65,48.41c0,.39,0,.79,0,1.2a20.73,20.73,0,0,0,.2,4.87l0,.31a21.7,21.7,0,0,0,.18-3.72c0-.61,0-1.24,0-1.85.07-2.23.2-4.5.33-6.69l.11-2c.05-1,.11-1.92.17-2.88a91.87,91.87,0,0,0,.22-12.07.53.53,0,0,0-.56-.49.57.57,0,0,0-.29.07l-.14.09,0,.18a.56.56,0,0,0,0,.13,120.28,120.28,0,0,1,.11,15.69C65.18,43.65,65.06,46,65,48.41Z"/><path class="cls-13" d="M24.19,60.11c.87.5,1.78,1,2.65,1.53,3.2,1.89,6.46,3.81,9.61,5.65l3.83,2.25a.56.56,0,0,0,.28.09c.29,0,.49-.32.51-.62v-.17l.15-.07c4-1.94,7.94-4.25,11.72-6.48,1.26-.74,2.51-1.48,3.78-2.21.82-.47,1.66-.91,2.48-1.33a39.26,39.26,0,0,0,3.45-1.92,6.3,6.3,0,0,0,1.91-1.75l-.11.09a2.66,2.66,0,0,1-.75.48c-.5.19-1,.43-1.49.66l-1,.46c-1.32.57-3.05,1.33-4.77,2.17-2.6,1.29-5.15,2.77-7.62,4.2-2.8,1.63-5.7,3.31-8.7,4.73l-.14.07-.13-.08c-4.52-2.63-8.25-4.79-11.76-6.8-.89-.51-1.79-1-2.67-1.57a57.31,57.31,0,0,0-9.86-5l-.05,0,.14.11A58.27,58.27,0,0,0,24.19,60.11Z"/><path class="cls-15" d="M41.1,83.67H41a1.12,1.12,0,0,1-.27-.06,1.24,1.24,0,0,1-.6,0,1.13,1.13,0,0,1-.72-.49c-.82.46-1.23.55-1.63.46a1.11,1.11,0,0,1-.6-.36,1.17,1.17,0,0,1-.51-.25,1.61,1.61,0,0,1-.94.1,1.15,1.15,0,0,1-.75-.55,1.19,1.19,0,0,1-.11-.94,1.57,1.57,0,0,1,.42-.66c-.47-.82,0-1.52,1.27-2.46a1.24,1.24,0,0,1-.21-.16,2,2,0,0,1-1.31.24,1.19,1.19,0,0,1-.79-.57,1.21,1.21,0,0,1-.11-.95l0-.09a1.14,1.14,0,0,1-.41-.42,1.18,1.18,0,0,1-.11-.92,1.29,1.29,0,0,1-.51,0,1.13,1.13,0,0,1-.73-.54,1.22,1.22,0,0,1-.12-.94c.18-.67.92-1.28,2.72-2.36a.88.88,0,0,1,0-.3A1,1,0,0,1,35.89,70c.17-.12.41-.31.58-.44.8-.64,1.33-1.06,2-.93a1.12,1.12,0,0,1,.54.27c2.3-1.59,2.94-2,3.62-1.8a1.13,1.13,0,0,1,.73.53,1.19,1.19,0,0,1,.13.34,1.11,1.11,0,0,1,.54.47,1.25,1.25,0,0,1,.19.63,2,2,0,0,1,1.31-.25,1.18,1.18,0,0,1,.77.56,1.2,1.2,0,0,1,.14.38,1.14,1.14,0,0,1,.18.24,1.21,1.21,0,0,1,.13.89,1.19,1.19,0,0,1,.1.89,1.57,1.57,0,0,1-.38.66,1.19,1.19,0,0,1,.49.47c.4.69.17,1.29-.66,2l.26,0a1.15,1.15,0,0,1,.75.55,1.2,1.2,0,0,1,.11.93,1.38,1.38,0,0,1-.18.39,1.12,1.12,0,0,1,.24.29c.59,1-.26,1.75-2.45,3.19.23.86-.73,1.42-2,2.17l-.15.09a1,1,0,0,1-.65.55A1.45,1.45,0,0,1,41.1,83.67Z"/><path class="cls-16" d="M60.88,60.07a1.26,1.26,0,0,0-.11-1,1.24,1.24,0,0,0-.82-.59,3.33,3.33,0,0,0-2.22.65,1.22,1.22,0,0,0-.73-.47c-.78-.17-1.82.32-4.48,2.13a1.26,1.26,0,0,0-.85-.6c-1-.19-2.14.62-5,2.81a28.46,28.46,0,0,1-3.35,2.34,1,1,0,0,0-1.24,1.5,1.26,1.26,0,0,0,.14.19l-.18.11c-.38,0-.7.2-1.25.57l-.37.25a1,1,0,0,0-.6,1.51,1.06,1.06,0,0,0,.67.5l.12,0,.11,0a1,1,0,0,0,.69-.06c0,.1.73-.22,1.49-.71,0,.06,1.35.89,1.38.95l.56.86c-.61.6.52,1.61.82,1.68s.52.53,1.12.23A1.14,1.14,0,0,0,47,73a1.56,1.56,0,0,0,1-.18,1.13,1.13,0,0,0,.71.49,1.64,1.64,0,0,0,1.16-.25,1.12,1.12,0,0,0,.63.35l.21,0a2.67,2.67,0,0,0,1.55-.84l.39-.31a1,1,0,0,0,.92-1.16c1-.81,1.5-1.38,1.12-2.13l.08-.14a1,1,0,0,0,.17-.29l.36-.28a4.24,4.24,0,0,0,1.23-1.24c.72-.46,1-.78,1.12-1.19l0-.07c1-.67,1.46-1.11,1.6-1.6a1.23,1.23,0,0,0,0-.72,2.8,2.8,0,0,0,1.1-1.35,1.25,1.25,0,0,0-.12-1,1.17,1.17,0,0,0-.11-.16A2.13,2.13,0,0,0,60.88,60.07ZM41.19,68a1,1,0,0,1,.31.27A1,1,0,0,0,41.19,68Z"/><path class="cls-16" d="M39.69,66.55a1.14,1.14,0,0,0-.75-.55,1.4,1.4,0,0,0-.71,0l0-.09a1.87,1.87,0,0,0,.73-.93,1.17,1.17,0,0,0-.1-.94,1.12,1.12,0,0,0-.73-.54c-.45-.1-.92,0-1.92.61l-.13,0a1.85,1.85,0,0,0-1.29.27,2.49,2.49,0,0,0-2.09-1.32c-.14,0,.05-.27,0-.4A1.53,1.53,0,0,0,33,62.1a1.2,1.2,0,0,0-.11-.94,1.13,1.13,0,0,0-.74-.54h0a1.39,1.39,0,0,0-.16-.39,1.14,1.14,0,0,0-.75-.54,1.27,1.27,0,0,0-.46,0,1.12,1.12,0,0,0-.87-1c-.49-.11-1,0-2.13.79a1.17,1.17,0,0,0-.34,0,1.16,1.16,0,0,0-.7-.5c-.42-.09-.8,0-1.5.47l-.07-.13a1.11,1.11,0,0,0-.71-.51c-.57-.12-1,.18-1.85.79L22,60a1,1,0,0,0-.35.13,1,1,0,0,0-.38,1.42,1,1,0,0,0,.18.23,1.09,1.09,0,0,0-.06,1.14,1.08,1.08,0,0,0-.14,1.36,1.11,1.11,0,0,0,.72.53c.34.08,1.19,0,1.3.17a2.14,2.14,0,0,0-.82,1.51,1.9,1.9,0,0,0-.71.95,1.19,1.19,0,0,0,.11.93,1.13,1.13,0,0,0,.74.54c.46.1,1.52-.61,2.55-1.23a9.62,9.62,0,0,1,.61,1,8.46,8.46,0,0,0-.91.53,1,1,0,0,0-.65,1.53,1.05,1.05,0,0,0,.22.26,1.16,1.16,0,0,0,.59.37,1.16,1.16,0,0,0,.16.56,1.13,1.13,0,0,0,.74.54,1.79,1.79,0,0,0,1.29-.3l0,.08c-.58.6-.69,1.11-.35,1.69a1.14,1.14,0,0,0,.75.55,1.32,1.32,0,0,0,.3,0c.56,0,1.32-.36,3.2-1.58a1.18,1.18,0,0,0,.41.18c.79.17,1.63-.4,3.93-2.08A27.35,27.35,0,0,1,38,69.31a1,1,0,0,0,1.21-1,1.66,1.66,0,0,0,.58-.83A1.15,1.15,0,0,0,39.69,66.55Z"/><path class="cls-13" d="M58,59.54a6.25,6.25,0,0,0-4.08-.17,21.26,21.26,0,0,0-6.4,2.93A40.37,40.37,0,0,0,43.62,65l-.45.37a2,2,0,0,1,.44.41l.29-.15c2.33-1.21,4.64-2.45,7-3.56A23.46,23.46,0,0,1,54,60.79a7.82,7.82,0,0,1,2.68-.37,1.7,1.7,0,0,1,1,.28l0,0,0,0h0a1.63,1.63,0,0,1,.14,1,7.63,7.63,0,0,1-.29,1.53,10.61,10.61,0,0,1-1.25,2.78,7.08,7.08,0,0,1-2.23,2.32,3.8,3.8,0,0,0-1.49-1.08,8.72,8.72,0,0,0-3.35-.82,19,19,0,0,0-5.21.44l-.14,0a1.49,1.49,0,0,1-.3.81s0,0,0,0h.32c.74,0,1.49,0,2.24,0,1.27,0,2.52.07,3.74.19a8.49,8.49,0,0,1,2.46.6,5.27,5.27,0,0,1,.51.26h0c.15.09.32.19.32.31h0s.15.14.15.16a1.5,1.5,0,0,1,.07.31h0a1.77,1.77,0,0,1-.16.6,4.08,4.08,0,0,1-1.08,1.58,2.81,2.81,0,0,1-1.91.81,4,4,0,0,1-1.93-.89q-1.87-1.26-3.77-2.46l-1-.63L43,68.34a3.45,3.45,0,0,1-.59.3q.28.33.6.65a13.42,13.42,0,0,0,5.53,3.62,3.85,3.85,0,0,0,2.25.12,5.2,5.2,0,0,0,1.81-1c.8-.65,1.93-1.82,1.77-3h0l.13-.11a12.85,12.85,0,0,0,2.62-3.41,12.27,12.27,0,0,0,1.63-3.86A1.82,1.82,0,0,0,58,59.54Z"/><path class="cls-13" d="M37.42,68.39l-.39.24L36,69.28q-1.9,1.2-3.77,2.46a4,4,0,0,1-1.93.89,2.8,2.8,0,0,1-1.9-.81,4.05,4.05,0,0,1-1.07-1.58,2.63,2.63,0,0,1-.16-.57.88.88,0,0,1,0-.43l0-.06h0a1.3,1.3,0,0,1,.4-.34,5,5,0,0,1,.69-.31,8.73,8.73,0,0,1,2.3-.53c1.22-.12,2.49-.16,3.76-.18l2.08,0H37a2,2,0,0,1-.15-.74l-.74-.17a17.1,17.1,0,0,0-5.82-.33c-1.14.15-3.19.71-3.93,1.85a7.34,7.34,0,0,1-2.32-2.48,10.47,10.47,0,0,1-1.2-2.8c-.15-.58-.55-1.88-.1-2.42l0,0,0,0,0,0A1.89,1.89,0,0,1,24,60.41a8,8,0,0,1,2.52.38,23.42,23.42,0,0,1,3.11,1.3c2.27,1.06,4.47,2.24,6.69,3.39l1,.51a3.08,3.08,0,0,1,.34-.38c-.31-.26-.63-.52-.95-.77-1.09-.85-2.24-1.63-3.39-2.35a23.58,23.58,0,0,0-6.16-3c-1.62-.45-5.63-1-5.44,1.72a9.9,9.9,0,0,0,1.43,3.87,15.42,15.42,0,0,0,2.5,3.52,6.06,6.06,0,0,0,.53.48,1.82,1.82,0,0,0,.13.91,5.68,5.68,0,0,0,2.95,2.87,4.91,4.91,0,0,0,4.14-.5,15.44,15.44,0,0,0,3.43-2.43c.28-.25.55-.5.8-.77l.33-.35A2.08,2.08,0,0,1,37.42,68.39Z"/><path class="cls-13" d="M45.92,72.77a4.56,4.56,0,0,0-2.36-3.19,5.34,5.34,0,0,0-.55-.24,6.77,6.77,0,0,0-1.6-.37L41,69a5.36,5.36,0,0,1,1.76.5,4,4,0,0,1,1.05.74,4,4,0,0,1,.65.83,20.46,20.46,0,0,1-4.68.53c-1.25,0-2.5-.43-3.73-.53a3.83,3.83,0,0,1,.83-1A4.07,4.07,0,0,1,38,69.44a4.84,4.84,0,0,1,.94-.3l-.39-.08a6.39,6.39,0,0,0-.79.21,4.6,4.6,0,0,0-2.25,1.54,6.43,6.43,0,0,0-1,4.47c.18,2.66,1.15,6,3.56,7.47a3.88,3.88,0,0,0,4,.1,7.05,7.05,0,0,0,2.63-3.06A11.27,11.27,0,0,0,45.92,72.77Zm-2.49,8.41a3.79,3.79,0,0,1-3.34,1.64,4.24,4.24,0,0,1-2.91-2,9.73,9.73,0,0,0,6.68-.27A6.52,6.52,0,0,1,43.43,81.19Zm1.35-2.87c-3,.76-5.8,1.51-8.72-.11l-.08,0a13.36,13.36,0,0,1-.35-1.5,9.7,9.7,0,0,0,3.42.56,16.24,16.24,0,0,0,6-.69A13,13,0,0,1,44.78,78.31Zm.42-3.88a18.83,18.83,0,0,1-9.78.27q0-.48,0-1a6.73,6.73,0,0,1,.15-1.26,6.32,6.32,0,0,0,2.91.84,13.57,13.57,0,0,0,6.62-.55,8,8,0,0,1,.12,1.39C45.21,74.25,45.21,74.34,45.21,74.43Z"/><path class="cls-17" d="M39.73,70.65l-.26,0a1.14,1.14,0,0,1-.58-.35,1.21,1.21,0,0,1-.67,0,1.11,1.11,0,0,1-.68-.45,1.16,1.16,0,0,1-.31,0,1.13,1.13,0,0,1-.74-.54,1.14,1.14,0,0,1-.11-.89,1.31,1.31,0,0,1,.08-.21,1.14,1.14,0,0,1-.35,0,1.12,1.12,0,0,1-.69-.51c-.35-.6-.19-1.06.38-1.57a1,1,0,0,1,.52-.87,1,1,0,0,1,.41-.13c.3-.17.93-.59,1.36-.89,1.64-1.11,2.09-1.4,2.68-1.26a1.06,1.06,0,0,1,.29.12c.77-.44,1.11-.51,1.49-.43a1.1,1.1,0,0,1,.84.95,1.15,1.15,0,0,1,1.08.55,1.13,1.13,0,0,1,.11.88,1.77,1.77,0,0,1-.77.95l.09.14a1.31,1.31,0,0,1,.15.37,1.11,1.11,0,0,1,.37.38,1,1,0,0,1-.83,1.55c-.31.17-1,.62-1.4.93C40.81,70.28,40.25,70.65,39.73,70.65Z"/><path class="cls-18" d="M37.82,64.42c-.2-.35-.36-.49-.33-.73a1.11,1.11,0,0,1-.8-.58.74.74,0,0,1,1-1,10.13,10.13,0,0,0,.66-.77c.65-.8,1.2-1.49,2-1.43a1.1,1.1,0,0,1,.88.59,1.56,1.56,0,0,1,.17.43h.13a1.33,1.33,0,0,1,1.15.79,1.32,1.32,0,0,1,.19.86,1.14,1.14,0,0,1,.67.57.74.74,0,0,1-.85,1.08l-.13.22C42.23,65,38.2,65.06,37.82,64.42Zm-.17-1.87-.32.19.32-.18Z"/><path class="cls-13" d="M42.71,64l0,0a1.43,1.43,0,0,0,.3-.61,1,1,0,0,0-.26-1.06,2.81,2.81,0,0,0-.44-.81,2.84,2.84,0,0,0-.38-.4,2.75,2.75,0,0,0-1.53-.67,2.82,2.82,0,0,0-1.91.56,2.5,2.5,0,0,0-1,1.25,1.7,1.7,0,0,0-.1.92,1.63,1.63,0,0,0,0,.22,1.47,1.47,0,0,0,.26.57,3,3,0,0,0-1.57,2.78c.16,1.91,2.32,3.4,4.11,3.58a3.5,3.5,0,0,0,3.85-3.46A3.46,3.46,0,0,0,42.71,64ZM40.24,61.9a4,4,0,0,1,2.07.48,1.32,1.32,0,0,0-.4.71A1.27,1.27,0,0,0,42,64a2.48,2.48,0,0,1-.4.05c-.39,0-.95.09-1.29.1a4.57,4.57,0,0,1-1.53,0,1.13,1.13,0,0,1-.29-.14,1.2,1.2,0,0,0,.1-.92,1.55,1.55,0,0,0-.18-.46,4.08,4.08,0,0,1,.49-.35A3.07,3.07,0,0,1,40.24,61.9ZM40,69.16a3.6,3.6,0,0,1-2-.29,2.09,2.09,0,0,1-1.13-2A2.62,2.62,0,0,1,38,65.32a3.51,3.51,0,0,1,1-.45,5,5,0,0,0,.8.33,2.67,2.67,0,0,0,2.14-.32c1.08.26,2.06.83,2.06,2C43.94,68.59,41.53,69,40,69.16Z"/><path class="cls-15" d="M68.69,30.06a1.19,1.19,0,0,1-.27,0,1.11,1.11,0,0,1-.72-.53,1.15,1.15,0,0,1-.14-.37,1.2,1.2,0,0,1-.7-.55,1.24,1.24,0,0,1-.12-.95c.08-.28-1-.57-1.41-.67a1.23,1.23,0,0,1-1-1.22,1.21,1.21,0,0,1-.91-1.33,1.56,1.56,0,0,1-.79,0,1.17,1.17,0,0,1-.76-.56,1.26,1.26,0,0,1-.12-1c.19-.68,1-1.33,2.69-2.37a.93.93,0,0,1,.08-.41A1,1,0,0,1,65,18.87a1.06,1.06,0,0,1,.57-.14c.32-.19.92-.65,1.34-1,1.47-1.11,2.16-1.6,2.87-1.45a1.17,1.17,0,0,1,.49.23c2.6-1.8,3.43-2.24,4.17-2.08a1.15,1.15,0,0,1,.76.55h0a1,1,0,0,1,.28,0,1.15,1.15,0,0,1,.76.55,1.37,1.37,0,0,1,.19.53A2.47,2.47,0,0,1,78,15.79a1.22,1.22,0,0,1,.8.58,1.24,1.24,0,0,1,.15.4,1.2,1.2,0,0,1,.16.22,1.24,1.24,0,0,1,.14.84h0a1.22,1.22,0,0,1,.11.95,1.76,1.76,0,0,1-.48.77,1.2,1.2,0,0,1,.42.43,1.25,1.25,0,0,1,.12,1c-.16.6-.76,1.18-2.12,2.05a1,1,0,0,1,0,.32l.09.13,0,.05a1.11,1.11,0,0,1,.2.26,1.15,1.15,0,0,1,.1.93c-.23.75-1,1.2-4.09,2.63l-.24.11-.68.49a9.83,9.83,0,0,1-2.65,1.63A3,3,0,0,1,68.69,30.06Z"/><path class="cls-16" d="M64.63,24.55h0Z"/><path class="cls-16" d="M66.73,15.65a1.14,1.14,0,0,0-.69-.51h0a1.33,1.33,0,0,0-.15-.36,1,1,0,0,0-.14-.19,1.08,1.08,0,0,0,0-1.21,1.11,1.11,0,0,0-.71-.52,1.24,1.24,0,0,0-.66,0,1.1,1.1,0,0,0-.84-1c-.52-.12-.9,0-2.47,1.06l0,0a1.53,1.53,0,0,0-.12-.25,1.16,1.16,0,0,0-.76-.55,1.32,1.32,0,0,0-.48,0,1.15,1.15,0,0,0-.15-.48,1.14,1.14,0,0,0-.74-.54c-.52-.12-1.06.06-2.3.84a1.64,1.64,0,0,0-.72.16,1.13,1.13,0,0,0-.65-.41c-.67-.15-4.19,1.84-4.13,1.75.29-.49-.18-.79-.6-.78a2.2,2.2,0,0,0-1.21.71,1,1,0,0,0-.43,1.27c-.43.83-.65,1.31-.33,1.86l0,.06a1,1,0,0,0,0,1.13,1.12,1.12,0,0,0,.74.54,1.88,1.88,0,0,0,1.35-.31,1.27,1.27,0,0,0,.33,0,1.29,1.29,0,0,0,.17.46,1.46,1.46,0,0,0-.5,1.09,1.67,1.67,0,0,0-.5.76,1.19,1.19,0,0,0,.11.93,1.13,1.13,0,0,0,.74.54c.48.11,1,.1,2-.79.37-.33.3,0,.32,0,.55.11,1.46.32,1.52.73a1.06,1.06,0,0,0-.15,1.36,1.12,1.12,0,0,0,.52.47,1.12,1.12,0,0,0,.63.39,1.18,1.18,0,0,0,.4,0,1.11,1.11,0,0,0,.62.37,3.09,3.09,0,0,0,2.38-.79,2,2,0,0,1,.54.81c-.11.28-.6.61-.41.94a1.1,1.1,0,0,0,1.49.38l.14,0,.22,0c.11.14,2.52-.93,2.28-1.41a2.47,2.47,0,0,0,.87-2.58c.49-1.1.86-2,.82-2,.14-.33.88-.67.51-1.26a.42.42,0,0,0-.43-.24c1.16-.69,1.54-1.06,1.68-1.56A1.14,1.14,0,0,0,66.73,15.65Z"/><path class="cls-16" d="M76.69,31.72a1.14,1.14,0,0,0-.69-.51,1.19,1.19,0,0,0-.68,0,2.87,2.87,0,0,0-1.2.55A1,1,0,0,0,74,31a1.11,1.11,0,0,0-.33-.36,1.59,1.59,0,0,0,.59-.82,1.11,1.11,0,0,0-.8-1.39c-.33-.08-.61-.05-1.29.3l0,0a1.11,1.11,0,0,0-.68-.51l-.15,0a7.91,7.91,0,0,1-4.46-.67c-.14-.24-.93-.42-1.2-.48s-.6,0-1.14.31a1.75,1.75,0,0,0-1,.41l-.21.14-.15.07a1,1,0,0,0-.1,1.73,1.33,1.33,0,0,0-.05,1c-.59.61-.81,1.09-.46,1.7a1.11,1.11,0,0,0,.69.51,1.09,1.09,0,0,0,.48,0,1,1,0,0,0,0,.74c-.91.68-1.4,1.21-1.43,1.75-.7.48-1,.82-1.09,1.22a1.16,1.16,0,0,0,.11.9A1.12,1.12,0,0,0,62,38c.41.09.82,0,1.68-.51l.11,0a1.46,1.46,0,0,0,.87-.11c-.93.74-1.46,1.29-1.5,1.85a2,2,0,0,0-.79,1,1.17,1.17,0,0,0,0,.63,1.15,1.15,0,0,0,.31,1.09,1.18,1.18,0,0,0,.16.54,1.15,1.15,0,0,0,.76.55,1.52,1.52,0,0,0,.94-.12,1.08,1.08,0,0,0-.14.72,1.06,1.06,0,0,0-.18,1.4,1.11,1.11,0,0,0,.71.52,1.17,1.17,0,0,0,.27,0,4.17,4.17,0,0,0,1.94-.87l.25.05h.08a1.11,1.11,0,0,0,.63.33,1.81,1.81,0,0,0,1.47-.68l.16-.15a1,1,0,0,0,.79-1.45c2.05-1.11,2.78-1.54,3-2.22a1.13,1.13,0,0,0-.11-.87,1.11,1.11,0,0,0-.71-.52,1.17,1.17,0,0,0-.32,0,1.05,1.05,0,0,0,0-1c1.28-.72,1.75-1.16,1.92-1.69l.2-.12a1,1,0,0,0,.35-.13,1,1,0,0,0,.43-1.31,1.09,1.09,0,0,0-.14-.43,1,1,0,0,0-.14-.18C76.59,33.31,77.21,32.63,76.69,31.72Z"/><path class="cls-15" d="M8.63,29a1.21,1.21,0,0,1-.28,0,1.13,1.13,0,0,1-.47-.23,1.37,1.37,0,0,1-.31,0,1.18,1.18,0,0,1-.48-.22,1.87,1.87,0,0,1-1.17.19,1.16,1.16,0,0,1-.76-.55,1.19,1.19,0,0,1-.11-.95,1.38,1.38,0,0,1,.12-.28l-.09-.14c-.39-.67-.11-1.1,0-1.67-.12-.06-1,0-1.39-.06a1.19,1.19,0,0,1-.94-1.15l-.09,0a1.16,1.16,0,0,1-.9-1.32A1.26,1.26,0,0,1,.33,22c-.59-1.18.43-1.89,1.19-2.4L2.4,19a.81.81,0,0,1,0-.09l-.08-.12a1,1,0,0,1,.8-1.55l.49-.38c.75-.6,1.24-1,1.88-.87a1.12,1.12,0,0,1,.55.28c2.3-1.59,2.93-2,3.59-1.8a1.13,1.13,0,0,1,.73.53,1.33,1.33,0,0,1,.12.28,1.11,1.11,0,0,1,.61.5,1.21,1.21,0,0,1,.18.61c.95-.54,1.46-.67,1.92-.57a1.17,1.17,0,0,1,.7.46,1.16,1.16,0,0,1,.69.54l.07.15a1.17,1.17,0,0,1,.49.46,1.15,1.15,0,0,1,.17.78,1.43,1.43,0,0,1,.37,0,1.25,1.25,0,0,1,.68,2,1.56,1.56,0,0,1,.85-.07,1.16,1.16,0,0,1,.76.55,1.21,1.21,0,0,1,.11.94v0a1.12,1.12,0,0,1,.43.43c.59,1-.26,1.76-2.45,3.18a1.15,1.15,0,0,1,0,.5c-.16.59-.66.9-2.09,1.72l0,0a1,1,0,0,1-.72.56h0a1.61,1.61,0,0,1-1.34.7l-.19,0c-.27.1-.51-.25-.76-.3s-.4.26-.56,0A3.22,3.22,0,0,1,8.63,29Z"/><path class="cls-16" d="M19.27,31a1.19,1.19,0,0,0-.11-.94,1.15,1.15,0,0,0-.76-.55,1.48,1.48,0,0,0-.75,0l-.06-.12a1.13,1.13,0,0,0-.6-.5,1.44,1.44,0,0,0,.18-.37,1.2,1.2,0,0,0-.11-1,1.14,1.14,0,0,0-.74-.54,1.51,1.51,0,0,0-.86.08,1.15,1.15,0,0,0-.65-.4c-.49-.11-.67.54-1.78,1.22-1,.49-2.1.32-4.45,2l-.34.24a14.92,14.92,0,0,0-3.58,2,1,1,0,0,0-.38.64,1.16,1.16,0,0,0,.11.89,1.14,1.14,0,0,0,.17.23,1.35,1.35,0,0,0-.12.28,1.21,1.21,0,0,0,.11,1,1.15,1.15,0,0,0,.76.55,1.42,1.42,0,0,0,.7,0c-1,.8-1.26,1.41-.84,2.13a1.16,1.16,0,0,0,.7.52,1.19,1.19,0,0,0,.28,0c.42,0,.95-.24,2.11-1a1.08,1.08,0,0,0,.09.52c-.72.57-1.1,1.05-1.12,1.55a2.11,2.11,0,0,0-.86,1.07,1.2,1.2,0,0,0,.11.94,1.13,1.13,0,0,0,.74.54c.45.1.93,0,1.91-.6,0,0,.41.46.83.3a1.58,1.58,0,0,0-.26.9c-.57.52-.73,1-.38,1.61a1.1,1.1,0,0,0,.2.25,1.05,1.05,0,0,0,.08.17,1.12,1.12,0,0,0,.72.53h0a1.11,1.11,0,0,0,.73.53,1.66,1.66,0,0,0,1.24-.32l0,.06a1.14,1.14,0,0,0,.76.53l.19,0a1.74,1.74,0,0,0,1.12-.57l.07-.07a1,1,0,0,0,.72-.63c.51-.4.89-.89.54-1.55l0-.06c1.83-1,2.37-1.36,2.54-2a1.12,1.12,0,0,0-.8-1.42,1.63,1.63,0,0,0-1.23.28,1.33,1.33,0,0,0-.17-.46,1.14,1.14,0,0,0-.3-.34,1,1,0,0,0,0-1,3.11,3.11,0,0,0,.93-1.18,1.73,1.73,0,0,0,.64-.85,1.2,1.2,0,0,0,0-.15,2.44,2.44,0,0,0,1.06-1.23,1.22,1.22,0,0,0-.07-.88c.62-.62.75-1.17.4-1.78a1.16,1.16,0,0,0-.17-.23A1.89,1.89,0,0,0,19.27,31Z"/><path class="cls-13" d="M65.82,18.63a4.57,4.57,0,0,0-1.59,3.64,5.49,5.49,0,0,0,.06.6,6.77,6.77,0,0,0,.48,1.58l.26.3A5.37,5.37,0,0,1,64.59,23a4,4,0,0,1,.11-1.28,4,4,0,0,1,.39-1,20.46,20.46,0,0,1,2.8,3.79c.62,1.09.88,2.38,1.4,3.5A3.83,3.83,0,0,1,68,27.77a4.07,4.07,0,0,1-1.1-.6,4.86,4.86,0,0,1-.72-.66,3.05,3.05,0,0,1,.12.38,6.39,6.39,0,0,0,.57.58,4.6,4.6,0,0,0,2.46,1.18,6.42,6.42,0,0,0,4.38-1.36c2.21-1.49,4.61-4,4.69-6.82A3.88,3.88,0,0,0,76.51,17a7.05,7.05,0,0,0-4-.75A11.27,11.27,0,0,0,65.82,18.63Zm8.53-2.05a3.79,3.79,0,0,1,3.09,2.07,4.24,4.24,0,0,1-.29,3.53,9.73,9.73,0,0,0-3.57-5.66A6.53,6.53,0,0,1,74.35,16.58Zm-3.16.27c2.17,2.25,4.2,4.27,4.27,7.61,0,0,0,.06,0,.09a13.36,13.36,0,0,1-1.12,1,9.7,9.7,0,0,0-1.22-3.24,16.24,16.24,0,0,0-3.62-4.89A13.11,13.11,0,0,1,71.19,16.85Zm-3.58,1.57a18.83,18.83,0,0,1,5.13,8.34l-.82.5a6.74,6.74,0,0,1-1.17.5A6.32,6.32,0,0,0,70,24.82a13.57,13.57,0,0,0-3.79-5.46,8,8,0,0,1,1.14-.8Z"/><path class="cls-16" d="M33.35,12.62a1.24,1.24,0,0,0-.82-.59,1.53,1.53,0,0,0-.47,0,1.22,1.22,0,0,0-.15-.4,1.19,1.19,0,0,0-.78-.57c-.54-.12-1.18.07-2.46.85a2.12,2.12,0,0,0-.52.12,1.14,1.14,0,0,0-.63-.38c-.68-.15-1,.14-3,1.38a7.32,7.32,0,0,0-.37-.65,1.45,1.45,0,0,0-.94-.54c-.53,0-1,.06-2.45,1a1.14,1.14,0,0,0-.62-.4c-.39-.09-.73,0-1.4.39-.49,0-1,.4-2.33,1.29l-.43.3a11.29,11.29,0,0,0-1.13.63,1,1,0,0,0-.73,1.22,1.1,1.1,0,0,0,.14.47,1,1,0,0,0,.17.21,1.35,1.35,0,0,0-.18.37,1.16,1.16,0,0,0,.1.92,1.13,1.13,0,0,0,.73.53,2.36,2.36,0,0,0,.51,0,1.27,1.27,0,0,0-.2.63c-.06,1,.49,1.46.79,2.77.19.82-.65,1.81-.68,1.91a1.28,1.28,0,0,0,.11,1,1.22,1.22,0,0,0,.8.58,1.36,1.36,0,0,0,.3,0,3.45,3.45,0,0,0,1.48-.47,3.06,3.06,0,0,0,1.89-.56c.9,0,2.08-.8,4.62-2.75l.83-.63c3.44-1.71,4.63-2.39,5-3.11a2.92,2.92,0,0,0,1.28-1.39h0a3.46,3.46,0,0,0,1.5-1.62,1.32,1.32,0,0,0-.11-1,1.74,1.74,0,0,0,.25-.52A1.32,1.32,0,0,0,33.35,12.62Z"/><path class="cls-13" d="M48.31,14.77a6.25,6.25,0,0,0,1.89,3.62,21.26,21.26,0,0,0,5.74,4.07,40.36,40.36,0,0,0,4.32,2l.54.21a2,2,0,0,1,.13-.59l-.28-.18c-2.21-1.41-4.44-2.79-6.59-4.29a23.5,23.5,0,0,1-2.68-2,7.83,7.83,0,0,1-1.67-2.14,1.7,1.7,0,0,1-.28-1v0h0c.12-.31.56-.52.83-.65a7.58,7.58,0,0,1,1.47-.52,10.61,10.61,0,0,1,3-.31,7.08,7.08,0,0,1,3.12.77,3.8,3.8,0,0,0-.19,1.83,8.72,8.72,0,0,0,1,3.31,19,19,0,0,0,3,4.3l.1.11a1.75,1.75,0,0,1,.92-.19s-.08.06.07,0l0,0-.13-.23h0c-.37-.64-.78-1.27-1.15-1.92-.62-1.11-1.24-2.2-1.74-3.32A8.46,8.46,0,0,1,59,15.11a5,5,0,0,1,0-.57c0-.17,0-.69.42-.85a3.38,3.38,0,0,1,.61-.16,4.08,4.08,0,0,1,1.91.15,2.82,2.82,0,0,1,1.66,1.25,4,4,0,0,1,.2,2.12q-.16,2.25-.25,4.5c0,.4,0,.79,0,1.19,0,.2,0,.4,0,.6a3.44,3.44,0,0,1,.55.36q.14-.41.26-.84a13.42,13.42,0,0,0,.38-6.6,3.85,3.85,0,0,0-1-2,5.2,5.2,0,0,0-1.77-1.06c-1-.37-2.54-.76-3.46-.05h0l-.16-.06a12.86,12.86,0,0,0-4.27-.56,12.27,12.27,0,0,0-4.16.52C48.94,13.34,48.28,13.84,48.31,14.77Z"/><path class="cls-13" d="M66.28,28.19l.4.22,1.09.58q2,1,4,2a4,4,0,0,1,1.74,1.23,2.8,2.8,0,0,1,.25,2.05A4.05,4.05,0,0,1,72.94,36a2.64,2.64,0,0,1-.42.42.88.88,0,0,1-.39.18h-.07a1.3,1.3,0,0,1-.5-.18,5,5,0,0,1-.62-.44,8.74,8.74,0,0,1-1.61-1.73c-.72-1-1.38-2.07-2-3.17l-1.06-1.79L66,29l-.09-.15a2,2,0,0,1-.57.5q.1.36.22.72a17.1,17.1,0,0,0,2.63,5.2c.7.91,2.21,2.41,3.57,2.48a7.34,7.34,0,0,1-1,3.25A10.47,10.47,0,0,1,69,43.4c-.43.42-1.35,1.41-2,1.3h0c-.38-.1-.68-.61-.86-.91a8,8,0,0,1-.93-2.37,23.42,23.42,0,0,1-.43-3.34c-.21-2.49-.3-5-.41-7.49,0-.37,0-.73,0-1.1a3.07,3.07,0,0,1-.51-.1c-.07.4-.14.8-.19,1.21-.19,1.37-.29,2.76-.34,4.12a23.57,23.57,0,0,0,.5,6.83c.42,1.62,2,5.37,4.21,3.85a9.89,9.89,0,0,0,2.63-3.17,15.41,15.41,0,0,0,1.8-3.92,6.15,6.15,0,0,0,.15-.7,1.82,1.82,0,0,0,.72-.56,5.67,5.67,0,0,0,1-4,4.91,4.91,0,0,0-2.5-3.34A15.45,15.45,0,0,0,67.92,28c-.35-.11-.71-.22-1.07-.31l-.47-.11A2.09,2.09,0,0,1,66.28,28.19Z"/><path class="cls-17" d="M62.81,31.09l-.25,0a1.13,1.13,0,0,1-.74-.52,1,1,0,0,1-.07-1l0,0a1.29,1.29,0,0,1-.34,0A1.17,1.17,0,0,1,60.6,29a1.06,1.06,0,0,1-.06-1l-.25,0a1.17,1.17,0,0,1-.77-.55A1.13,1.13,0,0,1,59.67,26a1.11,1.11,0,0,1-.47-.43,1,1,0,0,1,.4-1.44A1.1,1.1,0,0,1,60,24c.28-.16.86-.54,1.26-.81,1.47-1,2-1.32,2.6-1.18a1.12,1.12,0,0,1,.72.52,1.06,1.06,0,0,1,.16.64,1.28,1.28,0,0,1,.41,0,1.17,1.17,0,0,1,.77.54,1.06,1.06,0,0,1,.1.93,1.29,1.29,0,0,1,.39,0,1.18,1.18,0,0,1,.77.55,1.11,1.11,0,0,1,.11.87,1.18,1.18,0,0,1-.08.2,1.14,1.14,0,0,1,.23.28c.56.94-.43,1.66-.81,1.92l-.09.07a1.06,1.06,0,0,1-.54.82,1.1,1.1,0,0,1-.43.14c-.23.14-.62.41-.88.59C63.8,30.76,63.32,31.09,62.81,31.09Z"/><path class="cls-18" d="M60.57,31.27a.75.75,0,0,1-.36-.09,1,1,0,0,1-.31.05h0a1,1,0,0,1-.91-.6,1.15,1.15,0,0,1-.16-.77.78.78,0,0,1-.21,0,1.11,1.11,0,0,1-1-.65,1.13,1.13,0,0,1-.12-1,1.05,1.05,0,0,1,.18-.32.92.92,0,0,1-.46-.4.69.69,0,0,1,.76-1l.36-.38c.46-.51.89-1,1.46-.94a.9.9,0,0,1,.68.46,1.11,1.11,0,0,1,.15.77,1.19,1.19,0,0,1,.75.62,1.16,1.16,0,0,1,.13,1v0a1.06,1.06,0,0,1,.88.61,1,1,0,0,1,.08.92l0,0,0,0a.69.69,0,0,1,.09.25.67.67,0,0,1-.28.92.66.66,0,0,1-.9-.24.91.91,0,0,1-.71.69Z"/><path class="cls-13" d="M59.84,25.79h0a1.43,1.43,0,0,0-.68,0c-.48.14-.8.46-.79.75a3.44,3.44,0,0,0-.48.78,3.33,3.33,0,0,0-.16.53,2.6,2.6,0,0,0,.18,1.66,2.82,2.82,0,0,0,1.44,1.38,3.65,3.65,0,0,0,.58.2,2.61,2.61,0,0,0,1,.05,1.7,1.7,0,0,0,.85-.37l.17-.14a1.47,1.47,0,0,0,.36-.51,3,3,0,0,0,3.19,0c1.57-1.09,1.78-3.71,1-5.35a3.5,3.5,0,0,0-4.92-1.61A3.46,3.46,0,0,0,59.84,25.79ZM59.24,29a4,4,0,0,1-.62-2,1.31,1.31,0,0,0,.82,0,1.27,1.27,0,0,0,.71-.49,2.5,2.5,0,0,1,.24.32c.22.33.55.77.73,1.06a4.57,4.57,0,0,1,.8,1.31,1.13,1.13,0,0,1,0,.32,1.2,1.2,0,0,0-.84.37,1.55,1.55,0,0,0-.3.39,4.06,4.06,0,0,1-.55-.25A3.07,3.07,0,0,1,59.24,29Zm6.39-3.44a3.6,3.6,0,0,1,.75,1.87,2.09,2.09,0,0,1-1.21,2,2.62,2.62,0,0,1-1.84-.17,3.51,3.51,0,0,1-.89-.63,5,5,0,0,0-.12-.86A2.67,2.67,0,0,0,61,26.07c-.31-1.07-.31-2.2.67-2.76C63.19,22.43,64.78,24.3,65.64,25.54Z"/><path class="cls-13" d="M14.49,45.5a6.25,6.25,0,0,0,2.19-3.45,21.26,21.26,0,0,0,.66-7,40.29,40.29,0,0,0-.4-4.76l-.09-.58a2,2,0,0,1-.58.18c0,.11,0,.22,0,.33-.11,2.62-.2,5.24-.42,7.86a23.51,23.51,0,0,1-.43,3.34,7.82,7.82,0,0,1-1,2.51c-.18.26-.43.68-.77.76h0a1.63,1.63,0,0,1-1-.4,7.56,7.56,0,0,1-1.18-1,10.6,10.6,0,0,1-1.78-2.47,7.08,7.08,0,0,1-.89-3.09A3.8,3.8,0,0,0,10.46,37a8.71,8.71,0,0,0,2.38-2.49,19,19,0,0,0,2.23-4.73l0-.14a1.75,1.75,0,0,1-.62-.7s.09,0-.05-.06l0,0-.13.23h0c-.37.64-.71,1.31-1.09,2-.65,1.09-1.29,2.17-2,3.16A8.48,8.48,0,0,1,9.45,36.1a4.93,4.93,0,0,1-.47.32c-.15.08-.61.33-.95.07A3.35,3.35,0,0,1,7.59,36a4.08,4.08,0,0,1-.83-1.73A2.81,2.81,0,0,1,7,32.25,4,4,0,0,1,8.75,31q2-1,4-2l1-.56.53-.29a3.45,3.45,0,0,1,0-.66l-.86.19a13.42,13.42,0,0,0-5.9,3,3.86,3.86,0,0,0-1.23,1.89,5.2,5.2,0,0,0,0,2.06c.16,1,.61,2.58,1.68,3H8c0,.06,0,.11,0,.17a12.85,12.85,0,0,0,1.65,4,12.27,12.27,0,0,0,2.53,3.34A1.82,1.82,0,0,0,14.49,45.5Z"/><path class="cls-13" d="M17.12,23.24c0-.15,0-.3,0-.46,0-.41,0-.83,0-1.24q-.09-2.25-.25-4.49a4,4,0,0,1,.2-2.12,2.8,2.8,0,0,1,1.65-1.24,4.06,4.06,0,0,1,1.91-.14,2.64,2.64,0,0,1,.58.15.88.88,0,0,1,.35.25l0,.06h0a1.31,1.31,0,0,1,.09.52,5,5,0,0,1-.08.76,8.74,8.74,0,0,1-.69,2.26c-.51,1.12-1.1,2.23-1.72,3.35l-1,1.81-.2.36-.09.16a2,2,0,0,1,.72.24l.52-.55A17.11,17.11,0,0,0,22.26,18c.44-1.06,1-3.12.36-4.33a7.34,7.34,0,0,1,3.31-.77,10.47,10.47,0,0,1,3,.36c.58.16,1.9.47,2.14,1.12v0l0,.05v0a1.89,1.89,0,0,1-.35,1.2,8,8,0,0,1-1.59,2,23.42,23.42,0,0,1-2.68,2c-2.05,1.43-4.17,2.76-6.28,4.1l-.93.59a3,3,0,0,1,.16.49c.38-.14.76-.28,1.14-.44,1.28-.52,2.53-1.13,3.73-1.76A23.58,23.58,0,0,0,30,18.77c1.19-1.18,3.68-4.38,1.23-5.57a9.9,9.9,0,0,0-4.06-.69,15.41,15.41,0,0,0-4.29.41,6.1,6.1,0,0,0-.68.22,1.83,1.83,0,0,0-.85-.34,5.68,5.68,0,0,0-4,1.12,4.92,4.92,0,0,0-1.64,3.84,15.46,15.46,0,0,0,.4,4.18c.08.36.16.72.26,1.08,0,.16.09.31.14.46A2.09,2.09,0,0,1,17.12,23.24Z"/><path class="cls-13" d="M9.07,28.41A4.56,4.56,0,0,0,13,28a5.35,5.35,0,0,0,.49-.35,6.76,6.76,0,0,0,1.13-1.2l.13-.37a5.36,5.36,0,0,1-1.32,1.28,4,4,0,0,1-1.16.55,4,4,0,0,1-1,.15,20.47,20.47,0,0,1,1.88-4.32c.63-1.08,1.62-2,2.33-3A3.83,3.83,0,0,1,15.9,22a4.07,4.07,0,0,1,0,1.25,4.89,4.89,0,0,1-.21,1,3,3,0,0,1,.27-.3,6.35,6.35,0,0,0,.21-.79,4.6,4.6,0,0,0-.2-2.72,6.43,6.43,0,0,0-3.37-3.11c-2.39-1.17-5.76-2-8.25-.65A3.88,3.88,0,0,0,2.31,20a7.05,7.05,0,0,0,1.33,3.81A11.27,11.27,0,0,0,9.07,28.41ZM3,22.05a3.79,3.79,0,0,1,.25-3.71,4.24,4.24,0,0,1,3.2-1.51,9.72,9.72,0,0,0-3.11,5.92A6.53,6.53,0,0,1,3,22.05Zm1.82,2.61c.86-3,1.6-5.78,4.46-7.5l.07-.05a13.44,13.44,0,0,1,1.47.45,9.7,9.7,0,0,0-2.2,2.68,16.24,16.24,0,0,0-2.42,5.58A13,13,0,0,1,4.85,24.66ZM8,27a18.83,18.83,0,0,1,4.65-8.61l.84.46a6.71,6.71,0,0,1,1,.76,6.31,6.31,0,0,0-2.18,2.1,13.57,13.57,0,0,0-2.83,6,7.92,7.92,0,0,1-1.26-.59Z"/><path class="cls-17" d="M16.47,30.32l-.26,0a1.1,1.1,0,0,1-.59-.36A1.2,1.2,0,0,1,15,30a1.11,1.11,0,0,1-.67-.44,1.21,1.21,0,0,1-.33,0,1.13,1.13,0,0,1-.74-.54,1.14,1.14,0,0,1-.11-.89,1.34,1.34,0,0,1,.07-.18,1.11,1.11,0,0,1-.39,0,1.09,1.09,0,0,1-.69-.51,1.21,1.21,0,0,1,.38-1.57,1,1,0,0,1,.93-1c.3-.17.93-.6,1.37-.9,1.64-1.12,2.1-1.4,2.69-1.27a1.09,1.09,0,0,1,.29.11c.78-.45,1.12-.52,1.5-.43a1.09,1.09,0,0,1,.69.51,1.13,1.13,0,0,1,.14.42,1.17,1.17,0,0,1,.4,0,1.1,1.1,0,0,1,.71.52,1.13,1.13,0,0,1,.11.88,1.72,1.72,0,0,1-.72.91c-.39.21-1.77,3-2.16,3.45C17.32,30.29,17,30.32,16.47,30.32Z"/><path class="cls-18" d="M20,31.75h0a1.07,1.07,0,0,1-.93-.61,1.41,1.41,0,0,1-.13-.3h-.18c-.31,0-.65-.22-1.12-.77-.26-.3,1.27-3.26,1.34-3.3s.31-.36.43-.5c.6-.73,1.12-1.36,1.83-1.31a1,1,0,0,1,.83.56,1.28,1.28,0,0,1,.13,1.15l-.06.12a1.85,1.85,0,0,1,.38.47,1.33,1.33,0,0,1,.14,1.19,1.29,1.29,0,0,1-.37.51,1.59,1.59,0,0,1,.16.23.72.72,0,0,1-.82,1.06l-.13.08-.12.2C21.06,31.13,20.7,31.75,20,31.75Z"/><path class="cls-13" d="M18.27,30l0,0a1.43,1.43,0,0,0,.38.56,1,1,0,0,0,1,.31,3.63,3.63,0,0,0,1.46-.11A2.67,2.67,0,0,0,23,27.9a4.22,4.22,0,0,0-.57-1.5,1.7,1.7,0,0,0-.75-.55l-.21-.08a1.47,1.47,0,0,0-.63-.06A3,3,0,0,0,19.22,23c-1.73-.82-4.1.31-5.15,1.76a3.5,3.5,0,0,0,1.07,5.07A3.46,3.46,0,0,0,18.27,30Zm3.07-1.09a4,4,0,0,1-1.45,1.55,1.32,1.32,0,0,0-.42-.71,1.27,1.27,0,0,0-.78-.38,2.54,2.54,0,0,1,.15-.37c.18-.35.4-.86.55-1.16a4.58,4.58,0,0,1,.73-1.34,1.13,1.13,0,0,1,.27-.18,1.2,1.2,0,0,0,.74.54,1.55,1.55,0,0,0,.49.07,4.07,4.07,0,0,1,.06.6A3.06,3.06,0,0,1,21.33,28.93Zm-6.18-3.81a3.6,3.6,0,0,1,1.25-1.59,2.09,2.09,0,0,1,2.34,0,2.62,2.62,0,0,1,.77,1.68,3.51,3.51,0,0,1-.1,1.08,5,5,0,0,0-.68.53,2.68,2.68,0,0,0-.79,2c-.77.8-1.75,1.37-2.72.8C13.69,28.79,14.51,26.48,15.15,25.12Z"/><path class="cls-13" d="M38.5,61.88a4.28,4.28,0,0,0-.18-1.48,3,3,0,0,0-.28-.65,2.58,2.58,0,0,0-.41-.54,2.08,2.08,0,0,0-.54-.39c-.2-.1-.38-.22-.57-.34l-.61-.39-.33-.22a3.2,3.2,0,0,1-.34-.25l0-.1a2.55,2.55,0,0,1,.42-.11l.43,0a2.78,2.78,0,0,1,.85.16,2.06,2.06,0,0,1,.75.46,4.14,4.14,0,0,1,.57.69,3.36,3.36,0,0,1,.39.78,3.62,3.62,0,0,1,.16.83,3.86,3.86,0,0,1-.23,1.6Z"/><path class="cls-13" d="M41.67,61.91a3.86,3.86,0,0,1-.23-1.6,3.62,3.62,0,0,1,.16-.83,3.35,3.35,0,0,1,.39-.78,4.14,4.14,0,0,1,.57-.69,2.06,2.06,0,0,1,.75-.46,2.78,2.78,0,0,1,.85-.16l.43,0a2.57,2.57,0,0,1,.42.11l0,.1a3.17,3.17,0,0,1-.34.25l-.33.22-.61.39c-.19.12-.38.23-.57.34a2.08,2.08,0,0,0-.54.39,2.6,2.6,0,0,0-.41.54,3,3,0,0,0-.28.65,4.28,4.28,0,0,0-.18,1.48Z"/><path class="cls-13" d="M22.21,27.48a4.27,4.27,0,0,0,1.37.59,3,3,0,0,0,.71.08,2.59,2.59,0,0,0,.67-.08,2.07,2.07,0,0,0,.61-.27c.19-.12.38-.22.58-.33l.64-.33.35-.17a3.19,3.19,0,0,1,.39-.17l.08.07a2.57,2.57,0,0,1-.12.42,3.41,3.41,0,0,1-.19.38,2.79,2.79,0,0,1-.56.66,2.05,2.05,0,0,1-.77.42,4.12,4.12,0,0,1-.88.14,3.35,3.35,0,0,1-.87-.06,3.63,3.63,0,0,1-.8-.28,3.86,3.86,0,0,1-1.27-1Z"/><path class="cls-13" d="M20.6,30.21a3.86,3.86,0,0,1,1.5.6,3.62,3.62,0,0,1,.64.56,3.35,3.35,0,0,1,.48.73,4.14,4.14,0,0,1,.32.84,2.06,2.06,0,0,1,0,.88,2.78,2.78,0,0,1-.29.81A3.4,3.4,0,0,1,23,35a2.57,2.57,0,0,1-.31.31l-.1,0a3.17,3.17,0,0,1,0-.42c0-.13,0-.26,0-.39l0-.72c0-.23,0-.44,0-.67a2.08,2.08,0,0,0-.07-.66,2.59,2.59,0,0,0-.27-.62,3,3,0,0,0-.42-.57,4.27,4.27,0,0,0-1.2-.89Z"/><path class="cls-13" d="M60.1,30.31a4.28,4.28,0,0,0-1.2.89,3,3,0,0,0-.42.57,2.59,2.59,0,0,0-.27.62,2.08,2.08,0,0,0-.07.66c0,.22,0,.44,0,.67l0,.72c0,.13,0,.25,0,.39a3.2,3.2,0,0,1,0,.42l-.1,0a2.56,2.56,0,0,1-.31-.31,3.4,3.4,0,0,1-.24-.36,2.78,2.78,0,0,1-.29-.81,2.05,2.05,0,0,1,0-.88,4.13,4.13,0,0,1,.32-.84,3.35,3.35,0,0,1,.48-.73,3.63,3.63,0,0,1,.64-.56,3.85,3.85,0,0,1,1.5-.6Z"/><path class="cls-13" d="M58.53,27.55a3.86,3.86,0,0,1-1.27,1,3.63,3.63,0,0,1-.8.28,3.35,3.35,0,0,1-.87.06,4.13,4.13,0,0,1-.88-.14,2.06,2.06,0,0,1-.77-.42,2.78,2.78,0,0,1-.56-.66,3.38,3.38,0,0,1-.19-.38,2.57,2.57,0,0,1-.12-.42l.08-.07a3.19,3.19,0,0,1,.39.17l.35.17.64.33c.2.11.39.21.58.33a2.08,2.08,0,0,0,.61.27,2.58,2.58,0,0,0,.67.08,3,3,0,0,0,.71-.08,4.27,4.27,0,0,0,1.37-.59Z"/><path class="cls-13" d="M45.92,72.77a4.56,4.56,0,0,0-2.36-3.19,5.34,5.34,0,0,0-.55-.24,6.77,6.77,0,0,0-1.6-.37L41,69a5.36,5.36,0,0,1,1.76.5,4,4,0,0,1,1.05.74,4,4,0,0,1,.65.83,20.46,20.46,0,0,1-4.68.53c-1.25,0-2.5-.43-3.73-.53a3.83,3.83,0,0,1,.83-1A4.07,4.07,0,0,1,38,69.44a4.84,4.84,0,0,1,.94-.3l-.39-.08a6.39,6.39,0,0,0-.79.21,4.6,4.6,0,0,0-2.25,1.54,6.43,6.43,0,0,0-1,4.47c.18,2.66,1.15,6,3.56,7.47a3.88,3.88,0,0,0,4,.1,7.05,7.05,0,0,0,2.63-3.06A11.27,11.27,0,0,0,45.92,72.77Zm-2.49,8.41a3.79,3.79,0,0,1-3.34,1.64,4.24,4.24,0,0,1-2.91-2,9.73,9.73,0,0,0,6.68-.27A6.52,6.52,0,0,1,43.43,81.19Zm1.35-2.87c-3,.76-5.8,1.51-8.72-.11l-.08,0a13.36,13.36,0,0,1-.35-1.5,9.7,9.7,0,0,0,3.42.56,16.24,16.24,0,0,0,6-.69A13,13,0,0,1,44.78,78.31Zm.42-3.88a18.83,18.83,0,0,1-9.78.27q0-.48,0-1a6.73,6.73,0,0,1,.15-1.26,6.32,6.32,0,0,0,2.91.84,13.57,13.57,0,0,0,6.62-.55,8,8,0,0,1,.12,1.39C45.21,74.25,45.21,74.34,45.21,74.43Z"/></g></g></svg>