<svg xmlns="http://www.w3.org/2000/svg" xmlns:xlink="http://www.w3.org/1999/xlink" viewBox="0 0 30 30"><defs><style>.cls-1{fill:none;}.cls-2{isolation:isolate;}.cls-3{clip-path:url(#clip-path);}.cls-4{opacity:0.7;}.cls-5{clip-path:url(#clip-path-2);}.cls-6{mix-blend-mode:soft-light;}.cls-7{fill:#fff;}.cls-8{clip-path:url(#clip-path-3);}.cls-9{clip-path:url(#clip-path-4);}.cls-10{fill:url(#radial-gradient);}.cls-11{fill:#4060a2;}.cls-12{fill:#eeefef;}</style><clipPath id="clip-path"><rect class="cls-1" x="-964.21" y="-731.41" width="1920" height="530"/></clipPath><clipPath id="clip-path-2"><rect class="cls-1" x="-964.21" y="-1080.06" width="1920" height="1080"/></clipPath><clipPath id="clip-path-3"><polyline class="cls-1" points="-462.76 -110.62 -318.43 -27.29 -318.43 139.38 -462.76 222.72 -607.1 139.38 -607.1 -27.29 -462.76 -110.62"/></clipPath><clipPath id="clip-path-4"><polygon class="cls-1" points="-462.76 -109.19 -605.86 -26.57 -605.86 138.67 -462.76 221.28 -319.66 138.67 -319.66 -26.57 -462.76 -109.19 -462.76 -109.19"/></clipPath><radialGradient id="radial-gradient" cx="497.97" cy="428.37" r="1148.85" gradientUnits="userSpaceOnUse"><stop offset="0" stop-color="#fff8da"/><stop offset="0.4" stop-color="#ffe264"/><stop offset="1" stop-color="#fc9200"/></radialGradient></defs><title>instagram</title><g class="cls-2"><g id="Layer_1" data-name="Layer 1"><g class="cls-3"><g class="cls-4"><g class="cls-5"><g class="cls-6"><rect class="cls-7" x="-1005.26" y="-1169.87" width="2002.1" height="1261.89"/><polygon class="cls-7" points="92.07 -31.73 114.87 7.75 92.07 47.24 46.47 47.24 23.68 7.75 46.47 -31.73 92.07 -31.73"/><polygon class="cls-7" points="18.57 -73.57 41.37 -34.08 18.57 5.41 -27.03 5.41 -49.83 -34.08 -27.03 -73.57 18.57 -73.57"/><polygon class="cls-7" points="18.57 10.77 41.37 50.26 18.57 89.74 -27.03 89.74 -49.83 50.26 -27.03 10.77 18.57 10.77"/></g></g></g></g><g class="cls-8"><g class="cls-9"><rect class="cls-10" x="-678.14" y="-233.19" width="2352.22" height="1323.12"/></g></g><circle class="cls-11" cx="15" cy="15" r="15"/><path class="cls-12" d="M21.08,7.4H8.92A1.52,1.52,0,0,0,7.4,8.92V21.08A1.52,1.52,0,0,0,8.92,22.6H21.08a1.52,1.52,0,0,0,1.52-1.52V8.92A1.52,1.52,0,0,0,21.08,7.4ZM15,12a3,3,0,1,1-3,3,3,3,0,0,1,3-3ZM9.3,21.08a.36.36,0,0,1-.38-.38V14.24h1.6a2.53,2.53,0,0,0-.08.76,4.56,4.56,0,1,0,9.12,0,2.54,2.54,0,0,0-.08-.76h1.6V20.7a.36.36,0,0,1-.38.38ZM21.08,10.82a.36.36,0,0,1-.38.38H19.18a.36.36,0,0,1-.38-.38V9.3a.36.36,0,0,1,.38-.38H20.7a.36.36,0,0,1,.38.38Zm0,0"/></g></g></svg>