<svg id="Layer_1" data-name="Layer 1" xmlns="http://www.w3.org/2000/svg" xmlns:xlink="http://www.w3.org/1999/xlink" viewBox="0 0 15 15"><defs><style>.cls-1{fill:none;}.cls-2{clip-path:url(#clip-path);}.cls-3{clip-path:url(#clip-path-2);}.cls-4{fill:url(#radial-gradient);}.cls-5{fill:#ff8e26;}.cls-6{fill:#fff;}</style><clipPath id="clip-path"><polyline class="cls-1" points="-334.57 -208.71 -190.23 -125.38 -190.23 41.29 -334.57 124.63 -478.91 41.29 -478.91 -125.38 -334.57 -208.71"/></clipPath><clipPath id="clip-path-2"><polygon class="cls-1" points="-334.57 -207.28 -477.67 -124.66 -477.67 40.58 -334.57 123.19 -191.47 40.58 -191.47 -124.66 -334.57 -207.28 -334.57 -207.28"/></clipPath><radialGradient id="radial-gradient" cx="626.16" cy="330.28" r="1148.85" gradientUnits="userSpaceOnUse"><stop offset="0" stop-color="#fff8da"/><stop offset="0.4" stop-color="#ffe264"/><stop offset="1" stop-color="#fc9200"/></radialGradient></defs><title>know more</title><g class="cls-2"><g class="cls-3"><rect class="cls-4" x="-549.95" y="-331.28" width="2352.22" height="1323.12"/></g></g><circle class="cls-5" cx="7.5" cy="7.5" r="7.5"/><path class="cls-6" d="M6.76,9.7a2.42,2.42,0,0,1-.12-.45,3.24,3.24,0,0,1,0-.56,1.74,1.74,0,0,1,.11-.63A2.47,2.47,0,0,1,7,7.52,3.55,3.55,0,0,1,7.41,7l.49-.47.39-.39a2.8,2.8,0,0,0,.33-.42,2.3,2.3,0,0,0,.23-.48,1.67,1.67,0,0,0,.09-.55,1.48,1.48,0,0,0-.13-.63,1.33,1.33,0,0,0-.35-.46,1.55,1.55,0,0,0-.53-.29,2.1,2.1,0,0,0-.65-.1,2.86,2.86,0,0,0-1.13.22,3.26,3.26,0,0,0-1,.65v-1a3.94,3.94,0,0,1,1-.52,3.75,3.75,0,0,1,1.14-.17,3.2,3.2,0,0,1,1,.14A2.25,2.25,0,0,1,9.1,3a2,2,0,0,1,.52.67,2.12,2.12,0,0,1,.19.93,2.24,2.24,0,0,1-.11.7,2.64,2.64,0,0,1-.28.59A3.72,3.72,0,0,1,9,6.42q-.22.24-.45.46l-.52.5a3.71,3.71,0,0,0-.37.43,1.7,1.7,0,0,0-.23.42,1.34,1.34,0,0,0-.08.47,2.31,2.31,0,0,0,.06.57,3.82,3.82,0,0,0,.13.43Zm.42,2.84a.64.64,0,0,1-.25,0,.62.62,0,0,1-.2-.14.7.7,0,0,1-.14-.21.6.6,0,0,1-.05-.26.66.66,0,0,1,.05-.26.62.62,0,0,1,.14-.2.69.69,0,0,1,.21-.14.62.62,0,0,1,.25-.05.67.67,0,0,1,.25,0,.66.66,0,0,1,.21.14.69.69,0,0,1,.15.21.63.63,0,0,1,.05.26.61.61,0,0,1-.05.26.68.68,0,0,1-.15.21.65.65,0,0,1-.21.14A.67.67,0,0,1,7.19,12.54Z"/></svg>