<svg id="Layer_1" data-name="Layer 1" xmlns="http://www.w3.org/2000/svg" xmlns:xlink="http://www.w3.org/1999/xlink" viewBox="0 0 190 190"><defs><style>.cls-1,.cls-10,.cls-8{fill:none;}.cls-2{clip-path:url(#clip-path);}.cls-3{clip-path:url(#clip-path-2);}.cls-4{fill:url(#radial-gradient);}.cls-5{fill:#fff;opacity:0.35;}.cls-6{fill:#ff8c3c;}.cls-7{fill:#231f20;}.cls-10,.cls-8{stroke:#fff;stroke-linecap:round;stroke-linejoin:round;}.cls-8{stroke-width:1.86px;}.cls-9{fill:#da602b;stroke:#231f20;stroke-miterlimit:10;stroke-width:2.59px;}.cls-10{stroke-width:1.73px;}</style><clipPath id="clip-path"><polyline class="cls-1" points="101.24 -621.86 245.58 -538.53 245.58 -371.86 101.24 -288.53 -43.1 -371.86 -43.1 -538.53 101.24 -621.86"/></clipPath><clipPath id="clip-path-2"><polygon class="cls-1" points="101.24 -620.43 -41.86 -537.81 -41.86 -372.58 101.24 -289.96 244.34 -372.58 244.34 -537.81 101.24 -620.43 101.24 -620.43"/></clipPath><radialGradient id="radial-gradient" cx="1061.97" cy="-82.88" r="1148.85" gradientUnits="userSpaceOnUse"><stop offset="0" stop-color="#fff8da"/><stop offset="0.4" stop-color="#ffe264"/><stop offset="1" stop-color="#fc9200"/></radialGradient></defs><title>Lend 1</title><g class="cls-2"><g class="cls-3"><rect class="cls-4" x="-114.14" y="-744.44" width="2352.22" height="1323.12"/></g></g><path class="cls-5" d="M111.81,87.07c0,9.62-6.9,19.92-26.25,19.92S59.32,96.69,59.32,87.07c0-7.39,4.07-15.17,14.72-18.38H97.09c10.65,3.22,14.72,11,14.72,18.38Z"/><path class="cls-6" d="M71.49,97.89c-5.1-4-5.74-10.64-5.79-13.1a1,1,0,0,0-1-.95H63.36a1,1,0,0,0-1,.83,17.29,17.29,0,0,0-.17,2.4c0,12,10.45,18,23.34,18s23.34-6,23.34-18a17.29,17.29,0,0,0-.17-2.4,1,1,0,0,0-1-.83H69.52a1,1,0,0,0-1,.94,28.4,28.4,0,0,0,2.94,13.11Zm0,0"/><path class="cls-7" d="M69.93,62.47v4.26C61.17,70.48,56,77.67,56,87.07c0,14.1,11.6,23.22,29.56,23.22s29.56-9.12,29.56-23.22c0-9.33-5.1-16.48-13.74-20.25V62.47Zm41.88,24.6c0,9.62-6.9,19.92-26.25,19.92S59.32,96.69,59.32,87.07c0-7.39,4.07-15.17,14.72-18.38H97.09c10.65,3.22,14.72,11,14.72,18.38Zm0,0"/><path class="cls-8" d="M103.6,95.08A11.8,11.8,0,0,0,105.9,89a13.25,13.25,0,0,0,0-2.33"/><path class="cls-8" d="M98.26,99.22a13.91,13.91,0,0,0,2.28-1.33"/><rect class="cls-7" x="62.57" y="54.62" width="46" height="8.07" rx="4.03" ry="4.03"/><path class="cls-9" d="M103.35,62.47H67.78L60,69.74a.65.65,0,0,0,.35,1.12c3.74.6,5.56,3.4,8.7,3.4,3.52,0,5-3.31,8.27-3.31s5.07,3.31,8.27,3.31,5-3.31,8.27-3.31,4.76,3.31,8.27,3.31c3.14,0,5-2.81,8.7-3.4a.65.65,0,0,0,.35-1.12Z"/><path class="cls-7" d="M41.25,38.77V141.16h88.64V38.77Zm81.14,77.31H48.74V47.43h73.64Z"/><polygon class="cls-7" points="131.41 47.44 131.41 56.17 140.22 57.3 131.48 125.4 131.41 125.39 131.41 142.69 69.2 142.69 135.73 151.23 148.75 49.67 131.41 47.44"/><path class="cls-10" d="M52.34,127l2.73-3.72a.93.93,0,0,1,1.51,0l2.11,2.93a.93.93,0,0,0,1.32.19l3.52-2.71a.93.93,0,0,1,1.32.19L66,125.46a.93.93,0,0,0,1.06.33l2.8-1a.93.93,0,0,1,.91.18l.87.75a.93.93,0,0,0,.71.22l4.57-.48a.93.93,0,0,1,.82.34h0a.93.93,0,0,0,1.18.23l2-1.1a.93.93,0,0,1,1.06.1l.95.81"/><path class="cls-10" d="M52.34,133.57l2.3-1.89a1.88,1.88,0,0,1,2.41,0l1.26,1.07a1.88,1.88,0,0,0,2,.26L63,131.74a1.88,1.88,0,0,1,2.06.27l.31.27A1.88,1.88,0,0,0,68.1,132h0a1.88,1.88,0,0,1,2.8-.17l1.27,1.25"/><path class="cls-10" d="M101.46,127.29l2.3-1.89a1.88,1.88,0,0,1,2.41,0l1.26,1.07a1.88,1.88,0,0,0,2,.26l2.66-1.29a1.88,1.88,0,0,1,2.06.27l.31.27a1.88,1.88,0,0,0,2.71-.25h0a1.88,1.88,0,0,1,2.8-.17l1.27,1.25"/><path class="cls-10" d="M101.46,133.06l2.3-1.89a1.88,1.88,0,0,1,2.41,0l1.26,1.07a1.88,1.88,0,0,0,2,.26l2.66-1.29a1.88,1.88,0,0,1,2.06.27l.31.27a1.88,1.88,0,0,0,2.71-.25h0a1.88,1.88,0,0,1,2.8-.17l1.27,1.25"/></svg>