<svg id="Layer_1" data-name="Layer 1" xmlns="http://www.w3.org/2000/svg" xmlns:xlink="http://www.w3.org/1999/xlink" viewBox="0 0 190 190"><defs><style>.cls-1,.cls-5,.cls-7{fill:none;}.cls-2{clip-path:url(#clip-path);}.cls-3{clip-path:url(#clip-path-2);}.cls-4{fill:url(#radial-gradient);}.cls-5{stroke:#231f20;stroke-miterlimit:10;stroke-width:5.38px;}.cls-6{fill:#fff;opacity:0.35;}.cls-7{stroke:#ff8c3c;stroke-linecap:round;stroke-linejoin:round;stroke-width:4.57px;}</style><clipPath id="clip-path"><polyline class="cls-1" points="-188.74 -626.86 -44.4 -543.53 -44.4 -376.86 -188.74 -293.53 -333.08 -376.86 -333.08 -543.53 -188.74 -626.86"/></clipPath><clipPath id="clip-path-2"><polygon class="cls-1" points="-188.74 -625.43 -331.84 -542.81 -331.84 -377.58 -188.74 -294.96 -45.64 -377.58 -45.64 -542.81 -188.74 -625.43 -188.74 -625.43"/></clipPath><radialGradient id="radial-gradient" cx="771.99" cy="-87.88" r="1148.85" gradientUnits="userSpaceOnUse"><stop offset="0" stop-color="#fff8da"/><stop offset="0.4" stop-color="#ffe264"/><stop offset="1" stop-color="#fc9200"/></radialGradient></defs><title>Lend 2</title><g class="cls-2"><g class="cls-3"><rect class="cls-4" x="-404.12" y="-749.44" width="2352.22" height="1323.12"/></g></g><path class="cls-5" d="M119.45,46.35H70.55A39.53,39.53,0,0,0,31.14,85.76h0a39.53,39.53,0,0,0,22.53,35.58A4.19,4.19,0,0,1,56,124.78l1.25,15a4.22,4.22,0,0,0,6.9,2.91l17.49-14.43c1.89-1.54,3.35-3.09,5.63-3.09h32.18a39.53,39.53,0,0,0,39.41-39.41h0A39.53,39.53,0,0,0,119.45,46.35Z"/><path class="cls-6" d="M116.21,52.56H73.79A34.28,34.28,0,0,0,39.61,86.74h0c0,13.54,8,23.14,19.46,28.67a3.71,3.71,0,0,1,2.11,3l.11,13.21a3.22,3.22,0,0,0,5.1,2.79l15-13a13.6,13.6,0,0,1,6.9-2.68h27.91c18.8,0,34.18-13.23,34.18-32h0A34.28,34.28,0,0,0,116.21,52.56Z"/><path class="cls-7" d="M57.1,81.85,64.34,72a2.46,2.46,0,0,1,4,0l5.58,7.75a2.46,2.46,0,0,0,3.5.51l9.3-7.18a2.46,2.46,0,0,1,3.5.51l3,4.08a2.46,2.46,0,0,0,2.8.88L103.37,76a2.46,2.46,0,0,1,2.41.46l2.31,2a2.46,2.46,0,0,0,1.87.59L122,77.8a2.46,2.46,0,0,1,2.18.91h0a2.46,2.46,0,0,0,3.12.61l5.21-2.91a2.46,2.46,0,0,1,2.8.27l2.51,2.13"/><path class="cls-7" d="M57.1,99.16l6.09-5a5,5,0,0,1,6.38.05l3.34,2.83a5,5,0,0,0,5.4.68l7-3.42a5,5,0,0,1,5.44.72l.83.72a5,5,0,0,0,7.17-.67h0a5,5,0,0,1,7.4-.45l3.35,3.31"/></svg>