<svg id="Layer_1" data-name="Layer 1" xmlns="http://www.w3.org/2000/svg" xmlns:xlink="http://www.w3.org/1999/xlink" viewBox="0 0 190 190"><defs><style>.cls-1,.cls-8{fill:none;}.cls-2{clip-path:url(#clip-path);}.cls-3{clip-path:url(#clip-path-2);}.cls-4{fill:url(#radial-gradient);}.cls-5{fill:#231f20;}.cls-6{fill:#fff;opacity:0.35;}.cls-7{fill:#ff8c3c;}.cls-8{stroke:#fff;stroke-linecap:round;stroke-linejoin:round;stroke-width:2.67px;}.cls-9{fill:#da602b;stroke:#231f20;stroke-miterlimit:10;stroke-width:3.71px;}</style><clipPath id="clip-path"><polyline class="cls-1" points="-478.72 -629.57 -334.38 -546.24 -334.38 -379.57 -478.72 -296.24 -623.06 -379.57 -623.06 -546.24 -478.72 -629.57"/></clipPath><clipPath id="clip-path-2"><polygon class="cls-1" points="-478.72 -628.14 -621.82 -545.52 -621.82 -380.29 -478.72 -297.67 -335.63 -380.29 -335.63 -545.52 -478.72 -628.14 -478.72 -628.14"/></clipPath><radialGradient id="radial-gradient" cx="482.01" cy="-90.58" r="1148.85" gradientUnits="userSpaceOnUse"><stop offset="0" stop-color="#fff8da"/><stop offset="0.4" stop-color="#ffe264"/><stop offset="1" stop-color="#fc9200"/></radialGradient></defs><title>Lend 3</title><g class="cls-2"><g class="cls-3"><rect class="cls-4" x="-694.11" y="-752.15" width="2352.22" height="1323.12"/></g></g><path class="cls-5" d="M22,88.76a58,58,0,0,0,1.08,6.32,58.66,58.66,0,0,0,1.79,6.15.18.18,0,0,1-.35.13h0a59,59,0,0,1-1.67-6.21,58.12,58.12,0,0,1-1-6.36A.06.06,0,0,1,22,88.7.06.06,0,0,1,22,88.76Z"/><path class="cls-5" d="M30.42,112.72s1.67,2.73,3.64,5.25,4.14,4.85,4.14,4.85a.44.44,0,0,1-.64.61h0s-2.19-2.39-4.1-5S29.89,113,29.89,113h0a.31.31,0,0,1,.54-.32Z"/><path class="cls-5" d="M47.76,131.23l1.63,1.15c1,.68,2.32,1.55,3.68,2.37,2.72,1.66,5.59,3.05,5.59,3.05a.69.69,0,1,1-.61,1.25h0s-2.89-1.48-5.62-3.22C51,135,49.69,134,48.71,133.34l-1.63-1.2a.57.57,0,0,1,.66-.92Z"/><path class="cls-5" d="M70.47,142.46l1.91.55c1.15.32,2.69.71,4.24,1,3.1.69,6.25,1.1,6.25,1.1a.95.95,0,0,1-.25,1.88h0s-3.21-.49-6.37-1.26c-1.58-.38-3.14-.8-4.31-1.15L70,144a.82.82,0,0,1,.47-1.57Z"/><path class="cls-5" d="M95.53,145.91l2-.06c1.19,0,2.77-.14,4.35-.29,3.16-.28,6.28-.82,6.28-.82a1.2,1.2,0,1,1,.41,2.37h0s-3.22.5-6.47.72c-1.62.12-3.25.18-4.47.21l-2,0a1.08,1.08,0,0,1,0-2.15Z"/><path class="cls-5" d="M120.38,141.65l1.87-.66c1.11-.41,2.58-1,4-1.61,2.9-1.24,5.68-2.74,5.68-2.74a1.46,1.46,0,0,1,1.39,2.56h0s-2.91,1.5-5.94,2.73c-1.51.62-3,1.19-4.2,1.58l-1.93.64a1.33,1.33,0,0,1-.86-2.52Z"/><path class="cls-5" d="M142.47,129.78l1.53-1.24c.91-.75,2.09-1.78,3.23-2.86,2.29-2.14,4.35-4.51,4.35-4.51a1.71,1.71,0,0,1,2.59,2.24l0,0,0,0s-2.21,2.45-4.66,4.65c-1.22,1.11-2.48,2.16-3.44,2.93l-1.61,1.25a1.58,1.58,0,0,1-2-2.48Z"/><path class="cls-5" d="M158.81,111l.27-.48.67-1.24c.55-1,1.23-2.43,1.85-3.85a58,58,0,0,0,2.16-5.82,2,2,0,0,1,3.77,1.14v.06a62.08,62.08,0,0,1-2.43,6.17c-.69,1.51-1.45,3-2.05,4.07l-.74,1.31-.28.48a1.84,1.84,0,0,1-3.19-1.83Z"/><circle class="cls-5" cx="22.01" cy="89.07" r="6.12" transform="translate(-4.92 1.36) rotate(-3.19)"/><path class="cls-5" d="M168.33,83c1.26,4.76,3.62,10.75,6.36,14.58L167.26,94l-8,2C162.72,92.82,166.18,87.4,168.33,83Z"/><path class="cls-6" d="M132.67,89.59c0,13.81-9.9,28.59-37.68,28.59S57.33,103.4,57.33,89.59c0-10.61,5.85-21.77,21.13-26.39h33.09c15.28,4.62,21.13,15.78,21.13,26.39Z"/><path class="cls-7" d="M74.8,105.12c-7.32-5.72-8.24-15.28-8.32-18.81A1.39,1.39,0,0,0,65.09,85h-2a1.39,1.39,0,0,0-1.38,1.2,24.82,24.82,0,0,0-.25,3.44c0,17.22,15,25.89,33.5,25.89s33.5-8.68,33.5-25.89a24.82,24.82,0,0,0-.25-3.44,1.39,1.39,0,0,0-1.38-1.2H72a1.39,1.39,0,0,0-1.39,1.36,40.77,40.77,0,0,0,4.23,18.81Zm0,0"/><path class="cls-5" d="M72.55,54.29V60.4c-12.57,5.38-20,15.69-20,29.19,0,20.24,16.65,33.32,42.42,33.32s42.43-13.09,42.43-33.32c0-13.4-7.32-23.65-19.72-29.06V54.29Zm60.12,35.3c0,13.81-9.9,28.59-37.68,28.59S57.33,103.4,57.33,89.59c0-10.61,5.85-21.77,21.13-26.39h33.09c15.28,4.62,21.13,15.78,21.13,26.39Zm0,0"/><path class="cls-8" d="M120.89,101.08a16.94,16.94,0,0,0,3.31-8.75,19,19,0,0,0,0-3.34"/><path class="cls-8" d="M113.23,107a20,20,0,0,0,3.27-1.91"/><rect class="cls-5" x="61.99" y="43.01" width="66.02" height="11.58" rx="5.79" ry="5.79"/><path class="cls-9" d="M120.53,54.29H69.47L58.26,64.71a.94.94,0,0,0,.5,1.61c5.37.86,8,4.89,12.49,4.89,5,0,7.13-4.75,11.88-4.75S90.4,71.21,95,71.21s7.13-4.75,11.88-4.75,6.83,4.75,11.88,4.75c4.51,0,7.12-4,12.49-4.89a.94.94,0,0,0,.5-1.61Z"/></svg>