<svg xmlns="http://www.w3.org/2000/svg" xmlns:xlink="http://www.w3.org/1999/xlink" viewBox="0 0 30 30"><defs><style>.cls-1{fill:none;}.cls-2{isolation:isolate;}.cls-3{clip-path:url(#clip-path);}.cls-4{opacity:0.7;}.cls-5{clip-path:url(#clip-path-2);}.cls-6{mix-blend-mode:soft-light;}.cls-7{fill:#fff;}.cls-8{clip-path:url(#clip-path-3);}.cls-9{clip-path:url(#clip-path-4);}.cls-10{fill:url(#radial-gradient);}.cls-11{fill:#005980;}.cls-12{fill:#eeefef;}</style><clipPath id="clip-path"><rect class="cls-1" x="-877.46" y="-731.41" width="1920" height="530"/></clipPath><clipPath id="clip-path-2"><rect class="cls-1" x="-877.46" y="-1080.06" width="1920" height="1080"/></clipPath><clipPath id="clip-path-3"><polyline class="cls-1" points="-376.01 -110.62 -231.67 -27.29 -231.67 139.38 -376.01 222.72 -520.35 139.38 -520.35 -27.29 -376.01 -110.62"/></clipPath><clipPath id="clip-path-4"><polygon class="cls-1" points="-376.01 -109.19 -519.11 -26.57 -519.11 138.67 -376.01 221.28 -232.91 138.67 -232.91 -26.57 -376.01 -109.19 -376.01 -109.19"/></clipPath><radialGradient id="radial-gradient" cx="584.72" cy="428.37" r="1148.85" gradientUnits="userSpaceOnUse"><stop offset="0" stop-color="#fff8da"/><stop offset="0.4" stop-color="#ffe264"/><stop offset="1" stop-color="#fc9200"/></radialGradient></defs><title>linkedin</title><g class="cls-2"><g id="Layer_1" data-name="Layer 1"><g class="cls-3"><g class="cls-4"><g class="cls-5"><g class="cls-6"><rect class="cls-7" x="-918.5" y="-1169.87" width="2002.1" height="1261.89"/><polygon class="cls-7" points="31.83 -31.73 54.63 7.75 31.83 47.24 -13.77 47.24 -36.57 7.75 -13.77 -31.73 31.83 -31.73"/></g></g></g></g><g class="cls-8"><g class="cls-9"><rect class="cls-10" x="-591.39" y="-233.19" width="2352.22" height="1323.12"/></g></g><circle class="cls-11" cx="15" cy="15" r="15"/><path class="cls-12" d="M23.62,16.2v6H20.16V16.6c0-1.4-.5-2.35-1.75-2.35a1.89,1.89,0,0,0-1.78,1.27,2.37,2.37,0,0,0-.11.84v5.81H13.05s0-9.43,0-10.41h3.46v1.48l0,0h0v0a3.44,3.44,0,0,1,3.12-1.72c2.28,0,4,1.49,4,4.68ZM9.43,6.74a1.8,1.8,0,1,0,0,3.6h0a1.8,1.8,0,1,0,0-3.6ZM7.68,22.17h3.46V11.76H7.68Zm0,0"/></g></g></svg>