<svg xmlns="http://www.w3.org/2000/svg" xmlns:xlink="http://www.w3.org/1999/xlink" viewBox="0 0 93 98"><defs><style>.cls-1{fill:none;}.cls-2{isolation:isolate;}.cls-3{clip-path:url(#clip-path);}.cls-4{fill:url(#radial-gradient);}.cls-5{opacity:0.7;}.cls-6{clip-path:url(#clip-path-2);}.cls-7{mix-blend-mode:soft-light;}.cls-8{fill:#fff;}.cls-9{clip-path:url(#clip-path-3);}.cls-10{clip-path:url(#clip-path-4);}.cls-11{fill:url(#radial-gradient-2);}.cls-12{fill:#ff9026;}.cls-13{fill:#231f20;}.cls-14{fill:#ffdc02;}.cls-15{fill:#f1f1f2;}.cls-16{fill:#a78701;}.cls-17{fill:#806800;}</style><clipPath id="clip-path"><rect class="cls-1" x="-1216.61" y="-705.75" width="1920" height="530"/></clipPath><radialGradient id="radial-gradient" cx="-256.61" cy="-514.4" r="937.75" gradientUnits="userSpaceOnUse"><stop offset="0" stop-color="#fff5d7"/><stop offset="0.4" stop-color="#ffdf64"/><stop offset="1" stop-color="#f98f00"/></radialGradient><clipPath id="clip-path-2"><rect class="cls-1" x="-1216.61" y="-1054.4" width="1920" height="1080"/></clipPath><clipPath id="clip-path-3"><polyline class="cls-1" points="-715.16 -84.95 -570.82 -1.62 -570.82 165.05 -715.16 248.38 -859.5 165.05 -859.5 -1.62 -715.16 -84.95"/></clipPath><clipPath id="clip-path-4"><polygon class="cls-1" points="-715.16 -83.52 -858.26 -0.91 -858.26 164.33 -715.16 246.95 -572.06 164.33 -572.06 -0.91 -715.16 -83.52 -715.16 -83.52"/></clipPath><radialGradient id="radial-gradient-2" cx="245.57" cy="454.03" r="1148.85" gradientUnits="userSpaceOnUse"><stop offset="0" stop-color="#fff8da"/><stop offset="0.4" stop-color="#ffe264"/><stop offset="1" stop-color="#fc9200"/></radialGradient></defs><title>logo for popup</title><g class="cls-2"><g id="Layer_1" data-name="Layer 1"><g class="cls-3"><rect class="cls-4" x="-1216.61" y="-1054.4" width="1920" height="1080"/><g class="cls-5"><g class="cls-6"><g class="cls-7"><rect class="cls-8" x="-1257.66" y="-1144.2" width="2002.1" height="1261.89"/><polygon class="cls-8" points="133.67 -6.07 156.47 33.42 133.67 72.91 88.07 72.91 65.28 33.42 88.07 -6.07 133.67 -6.07"/><polygon class="cls-8" points="60.17 -47.9 82.97 -8.41 60.17 31.07 14.57 31.07 -8.22 -8.41 14.57 -47.9 60.17 -47.9"/><polygon class="cls-8" points="60.17 36.43 82.97 75.92 60.17 115.41 14.57 115.41 -8.22 75.92 14.57 36.43 60.17 36.43"/><polygon class="cls-8" points="-13.33 -6.07 9.47 33.42 -13.33 72.91 -58.93 72.91 -81.72 33.42 -58.93 -6.07 -13.33 -6.07"/></g></g></g></g><g class="cls-9"><g class="cls-10"><rect class="cls-11" x="-930.54" y="-207.53" width="2352.22" height="1323.12"/></g></g><path class="cls-12" d="M88.6,31.1a2.39,2.39,0,0,0,.11-.24,2.29,2.29,0,0,0,.51-.83,1.75,1.75,0,0,0,.06-.78,2.61,2.61,0,0,0-.11-1.15,4.5,4.5,0,0,0-1.05-1.63,2.56,2.56,0,0,0,.73-1.09A1.71,1.71,0,0,0,88.69,24a1.49,1.49,0,0,0-.31-.38,1.74,1.74,0,0,0-.2-.54,1.52,1.52,0,0,0-.51-.53l-.07-.13a1.52,1.52,0,0,0-1-.72,1.72,1.72,0,0,0-.17-.39,1.52,1.52,0,0,0-1-.72,1.85,1.85,0,0,0-.87,0l-.07-.13a1.5,1.5,0,0,0-.42-.47,1.7,1.7,0,0,0-.18-.46,1.52,1.52,0,0,0-1-.72,3,3,0,0,0-2,.49,1.72,1.72,0,0,0-.23-.73,1.53,1.53,0,0,0-1-.73,1.78,1.78,0,0,0-.65,0,1.53,1.53,0,0,0-1-.65,1.71,1.71,0,0,0-.42,0L77.54,17a1.69,1.69,0,0,0-.2-1.16,1.51,1.51,0,0,0-1-.72c-.54-.12-1.09,0-2.24.59a1.55,1.55,0,0,0-.38-.14,1.64,1.64,0,0,0-.47,0l-.08-.15v0a2.06,2.06,0,0,0,.24-.51,1.72,1.72,0,0,0-.14-1.4,1.51,1.51,0,0,0-1-.72l-.3,0,0-.06a1.51,1.51,0,0,0-1-.72,1.48,1.48,0,0,0-.39,0l0,0a1.51,1.51,0,0,0-1-.72,1.87,1.87,0,0,0-.93,0,1.61,1.61,0,0,0-.32-.11,2.7,2.7,0,0,0-1.79.36,1.59,1.59,0,0,0-.52-.23h0a1.54,1.54,0,0,0-1-.74h0l-.18-.14-.05-.1a1.53,1.53,0,0,0-.89-.7A1.53,1.53,0,0,0,63.22,9a1.7,1.7,0,0,0-.22-1,1.51,1.51,0,0,0-1-.72,2.66,2.66,0,0,0-1.83.38,1.54,1.54,0,0,0-.51-.26A1.52,1.52,0,0,0,59,6.88,1.56,1.56,0,0,0,58,6.26h0a2.48,2.48,0,0,0-.33-1.13A2.42,2.42,0,0,0,56.1,4a2.37,2.37,0,0,0-1.43-.87,3.15,3.15,0,0,0-.7-.06l-.06-.12A2.36,2.36,0,0,0,52.3,1.8l-.12,0a2.39,2.39,0,0,0-.23-.55A2.29,2.29,0,0,0,50.38.12a6.28,6.28,0,0,0-3.51.71A6.28,6.28,0,0,0,43.34.11a2.29,2.29,0,0,0-1.56,1.11,2.38,2.38,0,0,0-.23.55l-.12,0a2.35,2.35,0,0,0-1.61,1.14L39.75,3a3.19,3.19,0,0,0-.69.06A2.38,2.38,0,0,0,37.62,4a2.42,2.42,0,0,0-1.53,1.15,2.47,2.47,0,0,0-.33,1.13h-.05a1.55,1.55,0,0,0-.95.61,1.53,1.53,0,0,0-.73.46,1.55,1.55,0,0,0-.51.26,2.66,2.66,0,0,0-1.83-.38,1.51,1.51,0,0,0-1,.72,1.7,1.7,0,0,0-.22,1,1.52,1.52,0,0,0-.64.54,1.53,1.53,0,0,0-.89.7l-.05.1-.18.14h0a1.55,1.55,0,0,0-1,.74h0a1.57,1.57,0,0,0-.52.23,2.68,2.68,0,0,0-1.79-.36,1.57,1.57,0,0,0-.32.11,1.86,1.86,0,0,0-.93,0,1.5,1.5,0,0,0-1,.72l0,0a1.44,1.44,0,0,0-.39,0,1.51,1.51,0,0,0-1,.72l0,.06-.3,0a1.52,1.52,0,0,0-1,.72,1.73,1.73,0,0,0-.14,1.4,2.09,2.09,0,0,0,.24.51v0l-.08.15a1.69,1.69,0,0,0-.47,0,1.59,1.59,0,0,0-.38.14c-1.15-.62-1.7-.72-2.24-.59a1.51,1.51,0,0,0-1,.72,1.69,1.69,0,0,0-.2,1.16l-.11.11a1.65,1.65,0,0,0-.42,0,1.53,1.53,0,0,0-1,.65,1.77,1.77,0,0,0-.65,0,1.53,1.53,0,0,0-1,.73,1.73,1.73,0,0,0-.23.73,3,3,0,0,0-2-.49,1.52,1.52,0,0,0-1,.72A1.66,1.66,0,0,0,9.6,20a1.52,1.52,0,0,0-.42.47l-.07.13a1.87,1.87,0,0,0-.87,0,1.52,1.52,0,0,0-1,.72,1.75,1.75,0,0,0-.17.39,1.52,1.52,0,0,0-1,.72L6,22.57a1.52,1.52,0,0,0-.51.53,1.78,1.78,0,0,0-.2.54A1.49,1.49,0,0,0,5,24a1.71,1.71,0,0,0-.15,1.36,2.57,2.57,0,0,0,.74,1.1,4.51,4.51,0,0,0-1.05,1.62,2.62,2.62,0,0,0-.12,1.14A1.75,1.75,0,0,0,4.5,30a2.31,2.31,0,0,0,.52.85,2.42,2.42,0,0,0,.11.23,2.3,2.3,0,0,0,.15.23c0,.06.05.11.08.17a1.51,1.51,0,0,0-.26.32A1.69,1.69,0,0,0,5,33.2a2,2,0,0,0,.3.58c0,.06,0,.12,0,.18l0,.06a1.72,1.72,0,0,0-.08.43A3.4,3.4,0,0,0,5,35a2.59,2.59,0,0,0,.13,2A1.77,1.77,0,0,0,5,38.29a2.58,2.58,0,0,0,.66,1,2.12,2.12,0,0,0-.35.65,1.74,1.74,0,0,0-.06.77,2.06,2.06,0,0,0-.17.4l0,.15A2.2,2.2,0,0,0,4.7,42a1.73,1.73,0,0,0,.14,1.4,1.52,1.52,0,0,0,.29.36,1.69,1.69,0,0,0,.06.21,1.48,1.48,0,0,0-.45.47,1.72,1.72,0,0,0-.17,1.31,1.76,1.76,0,0,0,0,1.15c0,.06,0,.11.07.17a1.8,1.8,0,0,0,0,1.09v.06a2.07,2.07,0,0,0,.19.43,1.76,1.76,0,0,0,0,.52,1.53,1.53,0,0,0-.22.29,1.73,1.73,0,0,0-.15,1.39,2,2,0,0,0,.15.36,1.8,1.8,0,0,0,.07.81,2.83,2.83,0,0,0,.91,1.24,2.45,2.45,0,0,0-.59.88,1.55,1.55,0,0,0-.17.24,1.76,1.76,0,0,0-.15,1.42,2.53,2.53,0,0,0,.67,1,1.36,1.36,0,0,0,.08.49,2.13,2.13,0,0,0-.3.61,1.77,1.77,0,0,0-.06.69,2.43,2.43,0,0,0-.47.85,1.79,1.79,0,0,0,.14,1.39A2.67,2.67,0,0,0,4.9,62a3.41,3.41,0,0,0,.31.67c0,.05,0,.11,0,.16a2,2,0,0,0-.23.47A1.67,1.67,0,0,0,5.1,64.6a1.58,1.58,0,0,0,.17.24,1.72,1.72,0,0,0,.05,1,1.36,1.36,0,0,0,0,1.35,2.47,2.47,0,0,0-.61.95,1.75,1.75,0,0,0,.15,1.42,1.53,1.53,0,0,0,.24.32,1.67,1.67,0,0,0,.15.36,1.53,1.53,0,0,0,.24.31,1.72,1.72,0,0,0,.18,1.28,1.51,1.51,0,0,0,.89.7,1.52,1.52,0,0,0,.86.53,2.46,2.46,0,0,0,1.64-.29l.08.15a1.51,1.51,0,0,0,1,.72l.25,0a1.54,1.54,0,0,0,.87.53,1.76,1.76,0,0,0,.55,0A1.68,1.68,0,0,0,12,75.49a1.51,1.51,0,0,0,1,.72,1.9,1.9,0,0,0,1-.06,1.73,1.73,0,0,0,.19.5,1.52,1.52,0,0,0,1,.72,2.3,2.3,0,0,0,1.38-.19,1.58,1.58,0,0,0,.5.21l.18,0a1.55,1.55,0,0,0,.78.43l.09,0a1.71,1.71,0,0,0,.16.36,1.51,1.51,0,0,0,.43.48,1.66,1.66,0,0,0,.18.47,1.54,1.54,0,0,0,1,.74,2.59,2.59,0,0,0,1.74-.35,1.51,1.51,0,0,0,.68.59,1.52,1.52,0,0,0,.79.45,1.73,1.73,0,0,0,.65,0,1.66,1.66,0,0,0,.17.41,1.54,1.54,0,0,0,.4.45,1.68,1.68,0,0,0,.13.29,1.52,1.52,0,0,0,.9.7,1.51,1.51,0,0,0,1,.68,1.68,1.68,0,0,0,.55,0,1.54,1.54,0,0,0,.94.62,2,2,0,0,0,1-.05,1.72,1.72,0,0,0,.23.84,1.52,1.52,0,0,0,1,.73,1.92,1.92,0,0,0,1,0,1.51,1.51,0,0,0,.63.59l0,.09a1.51,1.51,0,0,0,1,.72,3,3,0,0,0,2.11-.53,1.51,1.51,0,0,0,.41.33,2.17,2.17,0,0,0-.33.65A1.72,1.72,0,0,0,35,88.51a2.41,2.41,0,0,0,1.65,1.16,4.11,4.11,0,0,0,1.7-.07,2.56,2.56,0,0,0,.32.9,2.26,2.26,0,0,0,1,.92,2.35,2.35,0,0,0,.67.48,2.47,2.47,0,0,0,1.14.56,3.35,3.35,0,0,0,.94,0,2.31,2.31,0,0,0,1.49,1,2.92,2.92,0,0,0,.6.06,7,7,0,0,0,2.4-.54,7,7,0,0,0,2.4.54,2.93,2.93,0,0,0,.6-.06,2.31,2.31,0,0,0,1.49-1,3.3,3.3,0,0,0,.94,0,2.46,2.46,0,0,0,1.14-.56,2.34,2.34,0,0,0,.67-.48,2.26,2.26,0,0,0,1-.92,2.55,2.55,0,0,0,.32-.9,4.15,4.15,0,0,0,1.69.07,2.41,2.41,0,0,0,1.65-1.16,1.72,1.72,0,0,0,.15-1.36,2.18,2.18,0,0,0-.33-.65,1.52,1.52,0,0,0,.41-.33,3,3,0,0,0,2.11.53,1.51,1.51,0,0,0,1-.72l0-.09a1.49,1.49,0,0,0,.63-.59,1.91,1.91,0,0,0,1,0,1.52,1.52,0,0,0,1-.73,1.72,1.72,0,0,0,.23-.84,1.94,1.94,0,0,0,1,.05,1.54,1.54,0,0,0,.94-.62,1.71,1.71,0,0,0,.55,0,1.51,1.51,0,0,0,1-.68,1.53,1.53,0,0,0,.9-.71,1.6,1.6,0,0,0,.13-.29,1.51,1.51,0,0,0,.4-.45,1.63,1.63,0,0,0,.17-.41,1.74,1.74,0,0,0,.65,0,4.69,4.69,0,0,0,1.47-1,2.59,2.59,0,0,0,1.74.34,1.54,1.54,0,0,0,1-.74,1.66,1.66,0,0,0,.18-.47,1.5,1.5,0,0,0,.43-.48,1.72,1.72,0,0,0,.16-.36l.09,0a1.55,1.55,0,0,0,.78-.43l.18,0a1.58,1.58,0,0,0,.5-.21,2.3,2.3,0,0,0,1.38.19,1.52,1.52,0,0,0,1-.72,1.72,1.72,0,0,0,.19-.5,1.91,1.91,0,0,0,1,.05,1.51,1.51,0,0,0,1-.72,1.68,1.68,0,0,0,.16-1.29,1.71,1.71,0,0,0,.55,0,1.54,1.54,0,0,0,.87-.53l.25,0a1.51,1.51,0,0,0,1-.72l.08-.15a2.46,2.46,0,0,0,1.64.29,1.53,1.53,0,0,0,.86-.53,1.5,1.5,0,0,0,.89-.7,1.72,1.72,0,0,0,.18-1.28,1.48,1.48,0,0,0,.23-.31,1.59,1.59,0,0,0,.15-.36,1.5,1.5,0,0,0,.25-.32A1.75,1.75,0,0,0,89,68.09a2.48,2.48,0,0,0-.61-.95,1.37,1.37,0,0,0,0-1.34,1.72,1.72,0,0,0,.06-1,1.63,1.63,0,0,0,.17-.24,1.67,1.67,0,0,0,.14-1.35,2,2,0,0,0-.24-.48s0-.1,0-.14a3.35,3.35,0,0,0,.31-.67,2.67,2.67,0,0,0,.12-1.11,1.8,1.8,0,0,0,.14-1.4,2.44,2.44,0,0,0-.47-.85,1.76,1.76,0,0,0-.07-.69,2.12,2.12,0,0,0-.3-.61,1.4,1.4,0,0,0,.07-.49,2.53,2.53,0,0,0,.67-1,1.76,1.76,0,0,0-.15-1.42,1.55,1.55,0,0,0-.16-.22,2.43,2.43,0,0,0-.6-.91A2.82,2.82,0,0,0,89,52a1.82,1.82,0,0,0,.07-.81,2.08,2.08,0,0,0,.15-.36,1.73,1.73,0,0,0-.15-1.39,1.53,1.53,0,0,0-.22-.29,1.73,1.73,0,0,0,0-.52,2,2,0,0,0,.19-.43v0a1.8,1.8,0,0,0,0-1.12c0-.05,0-.11.06-.16a1.75,1.75,0,0,0,0-1.15,1.72,1.72,0,0,0-.17-1.3,1.48,1.48,0,0,0-.44-.47,1.67,1.67,0,0,0,.07-.22,1.55,1.55,0,0,0,.29-.36A1.72,1.72,0,0,0,89,42a2.15,2.15,0,0,0-.37-.68s0-.1,0-.15a2.1,2.1,0,0,0-.17-.4,1.76,1.76,0,0,0-.06-.77,2.13,2.13,0,0,0-.35-.65,2.57,2.57,0,0,0,.65-1,1.77,1.77,0,0,0-.08-1.24,2.6,2.6,0,0,0,.14-2,3.42,3.42,0,0,0-.27-.6A1.69,1.69,0,0,0,88.4,34l0-.06c0-.06,0-.12,0-.18a2,2,0,0,0,.3-.58,1.68,1.68,0,0,0-.14-1.37,1.54,1.54,0,0,0-.25-.32c0-.06.06-.12.08-.18Zm-42.26,44a2.52,2.52,0,0,0-1.66.31,1.69,1.69,0,0,0-.23-.84,1.52,1.52,0,0,0-1-.73,2.81,2.81,0,0,0-1.94.46,1.65,1.65,0,0,0-.19-1.14,1.52,1.52,0,0,0-1-.73,1.72,1.72,0,0,0-.39,0,1.53,1.53,0,0,0-.79-.45,1.78,1.78,0,0,0-.74,0,1.7,1.7,0,0,0-.14-.4,1.67,1.67,0,0,0-.22-.9,1.52,1.52,0,0,0-1-.73,1.82,1.82,0,0,0-.79,0L36,69.87a3.21,3.21,0,0,0-2.27.63l-.24-.11a2,2,0,0,0,.09-.23,1.72,1.72,0,0,0-.15-1.4,1.52,1.52,0,0,0-1-.73l-.27,0a1.7,1.7,0,0,0-.2-.55,1.51,1.51,0,0,0-1-.72,1.65,1.65,0,0,0-.39,0,1.52,1.52,0,0,0-.73-.4h0a1.52,1.52,0,0,0-.93-.62,2.07,2.07,0,0,0-1.21.14,1.68,1.68,0,0,0-.22-.93,1.53,1.53,0,0,0-1-.73,1.9,1.9,0,0,0-.89,0,1.7,1.7,0,0,0-.22-.65,1.5,1.5,0,0,0-1-.72,1.7,1.7,0,0,0-.59,0,1.52,1.52,0,0,0-.65-.41,1.51,1.51,0,0,0-.83-.5h0a1.45,1.45,0,0,0-.18-.17,1.7,1.7,0,0,0-.21-1.09,1.5,1.5,0,0,0-.32-.38,1.8,1.8,0,0,0-.07-.76,2.13,2.13,0,0,0-.21-.46,2.36,2.36,0,0,0,.59-.93,1.69,1.69,0,0,0-.15-1.36,1.5,1.5,0,0,0-.36-.42,1.7,1.7,0,0,0-.13-.73,2.5,2.5,0,0,0,.66-1,1.84,1.84,0,0,0,.07-.39,2,2,0,0,0,.2-.44,1.73,1.73,0,0,0-.15-1.4,1.5,1.5,0,0,0-.4-.45,2.28,2.28,0,0,0,.37-.71,1.75,1.75,0,0,0-.15-1.4,1.5,1.5,0,0,0-.62-.58,3.13,3.13,0,0,0-.24-.3s0-.1,0-.14l.06-.09a1.7,1.7,0,0,0,.1-.2,1.52,1.52,0,0,0,.69-.63A1.78,1.78,0,0,0,22,46.34a2.7,2.7,0,0,0-.73-1.12,2.38,2.38,0,0,0,.52-.88,1.8,1.8,0,0,0,.08-.53A1.7,1.7,0,0,0,22,42.54a1.73,1.73,0,0,0-.17-1.33,1.52,1.52,0,0,0-.76-.66l.05-.15a1.75,1.75,0,0,0,.07-.65,2.35,2.35,0,0,0,.47-.83,1.78,1.78,0,0,0,0-1.06,2,2,0,0,0,.21-.45A1.7,1.7,0,0,0,21.78,36a1.48,1.48,0,0,0-.15-.21,1.74,1.74,0,0,0,0-.81,2.11,2.11,0,0,0-.27-.56s0-.08,0-.12a1.5,1.5,0,0,0,.58-.57,1.73,1.73,0,0,0,.15-1.38,2.12,2.12,0,0,0-.29-.6,1.53,1.53,0,0,0,.39-.24,1.66,1.66,0,0,0,.49,0,1.54,1.54,0,0,0,.42-.16,2,2,0,0,0,1.09.09,1.51,1.51,0,0,0,1-.72,1.72,1.72,0,0,0,.22-1.06,1.49,1.49,0,0,0,.64-.47,2.09,2.09,0,0,0,1.21.12,1.54,1.54,0,0,0,1-.73,1.8,1.8,0,0,0,.12-.25,1.82,1.82,0,0,0,.76,0,1.54,1.54,0,0,0,1-.74,1.71,1.71,0,0,0,.16-.36l.23,0a1.52,1.52,0,0,0,1-.73,1.73,1.73,0,0,0,.1-.2,1.86,1.86,0,0,0,.41,0,1.56,1.56,0,0,0,.51-.22,2,2,0,0,0,1,.06,1.53,1.53,0,0,0,1-.73,1.81,1.81,0,0,0,.14-.3l.15,0a1.52,1.52,0,0,0,1-.73l.05-.1a1.78,1.78,0,0,0,.81,0,1.5,1.5,0,0,0,1-.72l.07-.12.18,0a1.54,1.54,0,0,0,.53-.23l.3,0a1.51,1.51,0,0,0,1-.72,1.76,1.76,0,0,0,.15-1.43c0-.07,0-.14-.08-.2a1.65,1.65,0,0,0,.14-.38l.93-.42a2,2,0,0,0,1.08.09,1.53,1.53,0,0,0,1-.73,1.66,1.66,0,0,0,.16-.4l.06,0,.19,0a1.53,1.53,0,0,0,.76-.41,2.35,2.35,0,0,0,1.52.25,1.57,1.57,0,0,0,.44-.17,1.77,1.77,0,0,0,.5,0,1.56,1.56,0,0,0,.28-.09,1.61,1.61,0,0,0,.27.09,1.69,1.69,0,0,0,.5,0,1.57,1.57,0,0,0,.44.17,2.35,2.35,0,0,0,1.52-.25,1.55,1.55,0,0,0,.76.41l.19,0,.05,0a1.65,1.65,0,0,0,.16.4,1.53,1.53,0,0,0,1,.73,2,2,0,0,0,1.09-.09l.92.42a1.63,1.63,0,0,0,.14.38,2.07,2.07,0,0,0-.08.2A1.77,1.77,0,0,0,54,22.28,1.51,1.51,0,0,0,55,23l.3,0a1.54,1.54,0,0,0,.53.23l.18,0,.07.12a1.5,1.5,0,0,0,1,.72,1.77,1.77,0,0,0,.81,0l.05.1a1.52,1.52,0,0,0,1,.73l.15,0a1.71,1.71,0,0,0,.14.3,1.53,1.53,0,0,0,1,.73,2,2,0,0,0,1-.06,1.54,1.54,0,0,0,.51.22,2,2,0,0,0,.41,0,1.79,1.79,0,0,0,.1.2,1.52,1.52,0,0,0,1,.73l.23,0a1.74,1.74,0,0,0,.16.36,1.54,1.54,0,0,0,1,.74,1.84,1.84,0,0,0,.76,0,1.77,1.77,0,0,0,.12.25,1.53,1.53,0,0,0,1,.73,2.1,2.1,0,0,0,1.21-.12,1.49,1.49,0,0,0,.64.47,1.73,1.73,0,0,0,.22,1.06,1.51,1.51,0,0,0,1,.72,2,2,0,0,0,1.09-.09,1.58,1.58,0,0,0,.42.16,1.71,1.71,0,0,0,.49,0,1.51,1.51,0,0,0,.39.24,2.13,2.13,0,0,0-.29.6,1.74,1.74,0,0,0,.15,1.38,1.5,1.5,0,0,0,.59.57s0,.08,0,.12a2.1,2.1,0,0,0-.27.56,1.75,1.75,0,0,0,0,.8,1.53,1.53,0,0,0-.15.21,1.7,1.7,0,0,0-.14,1.38,2,2,0,0,0,.21.45,1.78,1.78,0,0,0,0,1.06,2.37,2.37,0,0,0,.47.83,1.78,1.78,0,0,0,.07.65l.05.15a1.53,1.53,0,0,0-.76.66,1.74,1.74,0,0,0-.16,1.34,1.7,1.7,0,0,0,.15,1.25,1.82,1.82,0,0,0,.08.54,2.37,2.37,0,0,0,.52.88,2.69,2.69,0,0,0-.73,1.12,1.78,1.78,0,0,0,.15,1.42,1.52,1.52,0,0,0,.69.63,1.72,1.72,0,0,0,.1.2l.05.08c0,.05,0,.11,0,.16a3,3,0,0,0-.22.28,1.49,1.49,0,0,0-.63.59,1.76,1.76,0,0,0-.15,1.4,2.29,2.29,0,0,0,.37.71,1.5,1.5,0,0,0-.4.45,1.73,1.73,0,0,0-.15,1.4,2.07,2.07,0,0,0,.2.44,1.84,1.84,0,0,0,.07.39,2.51,2.51,0,0,0,.66,1,1.7,1.7,0,0,0-.13.73,1.51,1.51,0,0,0-.36.42A1.7,1.7,0,0,0,71.8,58a2.36,2.36,0,0,0,.6.94,2.15,2.15,0,0,0-.21.46,1.79,1.79,0,0,0-.07.75,1.5,1.5,0,0,0-.33.39,1.71,1.71,0,0,0-.21,1.09,1.46,1.46,0,0,0-.18.17h0a55.33,55.33,0,0,0-1.48.91,1.73,1.73,0,0,0-.59,0,1.51,1.51,0,0,0-1,.72,1.72,1.72,0,0,0-.22.65,1.89,1.89,0,0,0-.89,0,1.53,1.53,0,0,0-1,.73,1.67,1.67,0,0,0-.22.93,2.08,2.08,0,0,0-1.21-.13,1.51,1.51,0,0,0-.93.62h0a1.51,1.51,0,0,0-.73.4,1.47,1.47,0,0,0-.39,0,1.51,1.51,0,0,0-1,.72,1.71,1.71,0,0,0-.2.55l-.27,0a1.52,1.52,0,0,0-1,.73,1.72,1.72,0,0,0-.14,1.4,2.28,2.28,0,0,0,.09.23l-.24.11a3.2,3.2,0,0,0-2.27-.63l-.22.07a1.83,1.83,0,0,0-.79,0,1.53,1.53,0,0,0-1,.73,1.67,1.67,0,0,0-.22.9,1.71,1.71,0,0,0-.14.4,1.75,1.75,0,0,0-.74,0,1.52,1.52,0,0,0-.79.45,1.43,1.43,0,0,0-.39,0,1.52,1.52,0,0,0-1,.73,1.66,1.66,0,0,0-.19,1.14,2.81,2.81,0,0,0-1.94-.46,1.52,1.52,0,0,0-1,.73,1.69,1.69,0,0,0-.23.84,2.52,2.52,0,0,0-1.66-.31,1.53,1.53,0,0,0-.52.23A1.56,1.56,0,0,0,46.34,75.12Z"/><path class="cls-13" d="M86.7,67.47a.76.76,0,0,0-1-.4l0-.6c-.11-4.32-.12-8.71-.13-12.95,0-3.83,0-7.78-.1-11.67-.07-3.32,0-6.69.3-10.32v-.19a17.41,17.41,0,0,0-.1-4.82l-.06-.27.25-.12a.68.68,0,0,0,.37-.56.51.51,0,0,0-.29-.48c-2.72-1.57-5.45-3.24-8.08-4.86-3.88-2.38-7.89-4.85-12-7-1.52-.81-3.05-1.61-4.53-2.38C57,8.56,52.56,6.22,48.29,3.56l-.2-.12,0-.23A.84.84,0,0,0,48,2.53a.6.6,0,0,0-.47-.23.75.75,0,0,0-.26,0L47,2.43l-.16.07-.16.06-.07,0,0,.05-.42.18a43.86,43.86,0,0,0-7.86,4.74,73.86,73.86,0,0,1-10.05,5.84C21.63,16.64,15.14,20,9.58,24.46l-.41.33h0L9,24.89l.14,0v.45c-.06,1.93-.21,3.88-.36,5.77-.11,1.38-.22,2.81-.29,4.21-.14,2.57-.06,5.21,0,7.76,0,1.55.08,3.15.08,4.72,0,4.07-.09,8.2-.16,12.2,0,2.61-.1,5.31-.13,8v.2l-.17.1a.54.54,0,0,0-.23.45.55.55,0,0,0,.24.49l.14.09a3.58,3.58,0,0,0,0,.4.54.54,0,0,0,.15.4.63.63,0,0,0,.44.16.66.66,0,0,0,.65-.41c0-.07.55.27.55.27,1.58.82,3.11,1.8,4.59,2.74,1.08.69,2.21,1.4,3.34,2,2.44,1.39,5,2.65,7.49,3.86,1.21.59,2.46,1.2,3.68,1.82,2.69,1.36,5.27,3,7.77,4.52A92.5,92.5,0,0,0,45.58,90c-2.78-1.59-5.45-3.41-8.05-5.19a100.44,100.44,0,0,0-9.66-6.07c-1.24-.65-2.51-1.29-3.74-1.91-2.11-1.06-4.3-2.16-6.4-3.37-1-.57-2-1.19-2.94-1.78a53.82,53.82,0,0,0-5-2.89l-.19-.1v-.22c0-3,.08-6.11.12-9.08.06-3.84.13-7.81.14-11.71,0-1.9,0-3.83-.08-5.7-.05-2.22-.1-4.51-.07-6.76,0-.54,0-1.09,0-1.64a35.9,35.9,0,0,0-.48-8.5l-.07-.3.29-.1A35.1,35.1,0,0,0,16.7,21l1.6-1a108.66,108.66,0,0,1,9.86-5.2,76,76,0,0,0,9.47-5.13c.68-.45,1.35-.91,2-1.38a37,37,0,0,1,7.85-4.5l.21-.08.16.16c3.56,3.58,8.4,6,13.08,8.27,1.2.59,2.34,1.15,3.46,1.74,3.72,1.93,7.34,4.16,10.84,6.32,3.09,1.9,6.28,3.86,9.51,5.61l.18.1v.2a50.42,50.42,0,0,1-.38,7,69.42,69.42,0,0,0-.34,9.9c.07,3.75.08,7.57.08,11.26,0,4.4,0,9,.13,13.43v.2l-.17.1c-7.47,4.68-13.51,8.44-19,11.83-1.66,1-3.35,2.1-5,3.15A114.06,114.06,0,0,1,47,90.66l-.16.07h0l-.32.15c.24,0,.47,0,.71-.05h.09l.31.13-.07-.16L48,90.7a20.45,20.45,0,0,0,5.89-2.62c1.64-1,3.27-2,4.85-3,1.41-.89,2.86-1.8,4.32-2.66,6.43-3.81,14-8.33,21.69-13.06l.11-.07.13,0h.13a.62.62,0,0,0,.64-.46l0-.14.55-.34C86.57,68.25,86.86,67.81,86.7,67.47Z"/><path class="cls-13" d="M18.24,53.42c-.07-1.54-.15-3.13-.13-4.71,0-3.49.11-7,.2-10.48.07-2.78.14-5.66.17-8.49v-.25l.24-.07A19.72,19.72,0,0,0,22,28c.63-.33,1.29-.66,1.93-.94a70,70,0,0,0,6.4-3.15A159.3,159.3,0,0,0,46.14,13.65l.21-.15.2.16C53.11,18.89,61,22.45,68.67,25.88,71.09,27,73.6,28.1,76,29.25a19.26,19.26,0,0,0-5.1-3.16c-2.87-1.36-6-2.84-9-4.49l-1.8-1c-4.62-2.5-9.41-5.09-13.52-8.53a.61.61,0,0,0-.4-.16.74.74,0,0,0-.62.4l0,.07-.06,0a172.23,172.23,0,0,1-16,10.35c-1.86,1.06-3.8,2-5.67,2.87l-1.57.75a10.08,10.08,0,0,0-3.67,2.44l-.17.22L18.21,29a.71.71,0,0,0-.3-.06.62.62,0,0,0-.44.17.5.5,0,0,0-.13.38c0,2.29.11,4.62.19,6.87.12,3.72.25,7.57.21,11.36,0,1.91,0,3.88.11,5.79a79.45,79.45,0,0,1-.08,9.78l0,.16,0,0,0,0,0,.23a.25.25,0,0,1,0,.08l0,0,.2-.14-.16-.06.06-.29A37.68,37.68,0,0,0,18.24,53.42Z"/><path class="cls-13" d="M76,56.61c0,.46,0,.93,0,1.4a24.3,24.3,0,0,0,.24,5.7l.06.36a25.44,25.44,0,0,0,.21-4.36c0-.71,0-1.45,0-2.17.08-2.62.24-5.27.38-7.84L77,47.36c.06-1.13.13-2.25.2-3.38a107.69,107.69,0,0,0,.26-14.15.62.62,0,0,0-.65-.58.67.67,0,0,0-.34.09l-.17.1,0,.21a.65.65,0,0,0,0,.16,141,141,0,0,1,.13,18.4C76.22,51,76.07,53.8,76,56.61Z"/><path class="cls-13" d="M28.17,70.32c1,.58,2.08,1.19,3.11,1.8,3.75,2.22,7.57,4.46,11.27,6.63L47,81.38a.66.66,0,0,0,.33.1c.33,0,.57-.38.59-.73l0-.2.18-.09c4.72-2.28,9.3-5,13.74-7.6,1.47-.87,2.95-1.74,4.43-2.59,1-.55,1.95-1.06,2.91-1.55a46,46,0,0,0,4-2.25,7.39,7.39,0,0,0,2.24-2l-.13.1a3.12,3.12,0,0,1-.88.56c-.59.22-1.18.5-1.74.77-.38.18-.78.37-1.18.54C70,67.07,68,68,66,69c-3,1.51-6,3.24-8.93,4.92-3.29,1.91-6.68,3.88-10.2,5.54l-.16.08-.16-.09c-5.29-3.08-9.67-5.61-13.78-8-1-.6-2.1-1.23-3.13-1.84a67.18,67.18,0,0,0-11.56-5.9l-.06,0,.16.13A68.3,68.3,0,0,0,28.17,70.32Z"/><path class="cls-14" d="M48,97.94h-.12a1.32,1.32,0,0,1-.31-.07,1.45,1.45,0,0,1-.7,0,1.32,1.32,0,0,1-.84-.57c-1,.54-1.44.65-1.9.54a1.31,1.31,0,0,1-.7-.42,1.37,1.37,0,0,1-.6-.29,1.89,1.89,0,0,1-1.1.12,1.35,1.35,0,0,1-.88-.64,1.39,1.39,0,0,1-.12-1.11,1.84,1.84,0,0,1,.49-.78c-.55-1,0-1.78,1.49-2.88a1.45,1.45,0,0,1-.24-.19,2.38,2.38,0,0,1-1.54.28,1.4,1.4,0,0,1-.92-.67,1.42,1.42,0,0,1-.13-1.11l0-.11a1.34,1.34,0,0,1-.48-.49,1.39,1.39,0,0,1-.13-1.08,1.51,1.51,0,0,1-.6,0,1.32,1.32,0,0,1-.86-.63,1.43,1.43,0,0,1-.14-1.1c.21-.79,1.08-1.5,3.19-2.77a1,1,0,0,1,0-.35,1.22,1.22,0,0,1,1-1.79c.2-.14.48-.37.68-.52.94-.74,1.56-1.24,2.32-1.09a1.31,1.31,0,0,1,.63.31c2.69-1.87,3.45-2.29,4.24-2.11a1.32,1.32,0,0,1,.86.63,1.4,1.4,0,0,1,.16.4,1.3,1.3,0,0,1,.63.55,1.47,1.47,0,0,1,.22.74,2.36,2.36,0,0,1,1.54-.29,1.38,1.38,0,0,1,.9.66,1.41,1.41,0,0,1,.16.44,1.34,1.34,0,0,1,.21.28,1.42,1.42,0,0,1,.15,1,1.4,1.4,0,0,1,.12,1,1.84,1.84,0,0,1-.44.77,1.39,1.39,0,0,1,.58.55c.47.81.21,1.52-.78,2.37a1.48,1.48,0,0,1,.3,0,1.35,1.35,0,0,1,.88.64,1.41,1.41,0,0,1,.13,1.1,1.62,1.62,0,0,1-.21.46,1.32,1.32,0,0,1,.29.34c.69,1.2-.31,2-2.87,3.74.27,1-.86,1.66-2.36,2.54l-.17.1a1.22,1.22,0,0,1-.77.64A1.7,1.7,0,0,1,48,97.94Z"/><path class="cls-15" d="M71.17,70.27A1.48,1.48,0,0,0,71,69.09a1.45,1.45,0,0,0-1-.69,3.91,3.91,0,0,0-2.6.76,1.43,1.43,0,0,0-.86-.55c-.91-.2-2.13.38-5.25,2.5a1.47,1.47,0,0,0-1-.71c-1.13-.23-2.51.72-5.89,3.3a33.36,33.36,0,0,1-3.92,2.74,1.22,1.22,0,0,0-1.45,1.76,1.48,1.48,0,0,0,.16.22l-.21.13c-.45,0-.82.23-1.46.66l-.44.29a1.22,1.22,0,0,0-.71,1.77,1.25,1.25,0,0,0,.79.58l.14,0,.13,0a1.19,1.19,0,0,0,.81-.07c0,.11.86-.26,1.75-.83,0,.07,1.58,1,1.62,1.11l.66,1c-.71.71.61,1.89,1,2s.61.62,1.31.27a1.33,1.33,0,0,0,.29.1,1.83,1.83,0,0,0,1.23-.21,1.33,1.33,0,0,0,.83.57,1.92,1.92,0,0,0,1.36-.29,1.31,1.31,0,0,0,.74.41l.25,0a3.13,3.13,0,0,0,1.82-1l.46-.37a1.22,1.22,0,0,0,1.08-1.35c1.18-1,1.75-1.62,1.31-2.5a1.26,1.26,0,0,0,.09-.16,1.2,1.2,0,0,0,.2-.34l.42-.33a5,5,0,0,0,1.44-1.46c.85-.54,1.18-.91,1.31-1.39l0-.08c1.23-.78,1.71-1.3,1.88-1.88a1.44,1.44,0,0,0,0-.85,3.28,3.28,0,0,0,1.29-1.58,1.47,1.47,0,0,0-.14-1.13,1.37,1.37,0,0,0-.13-.19A2.5,2.5,0,0,0,71.17,70.27ZM48.1,79.61a1.17,1.17,0,0,1,.36.31A1.21,1.21,0,0,0,48.1,79.61Z"/><path class="cls-15" d="M46.34,77.88a1.34,1.34,0,0,0-.87-.64,1.64,1.64,0,0,0-.83,0l-.05-.1a2.19,2.19,0,0,0,.86-1.09,1.38,1.38,0,0,0-.12-1.1,1.31,1.31,0,0,0-.86-.63c-.53-.12-1.07,0-2.25.72l-.15,0a2.17,2.17,0,0,0-1.52.32A2.91,2.91,0,0,0,38.1,73.8c-.16,0,.06-.32.06-.47a1.8,1.8,0,0,0,.37-.67,1.41,1.41,0,0,0-.13-1.1,1.32,1.32,0,0,0-.86-.63h0a1.63,1.63,0,0,0-.18-.46,1.33,1.33,0,0,0-.88-.64,1.49,1.49,0,0,0-.54,0,1.31,1.31,0,0,0-1-1.21c-.58-.13-1.12.05-2.5.92a1.37,1.37,0,0,0-.4,0,1.36,1.36,0,0,0-.82-.59c-.5-.11-.93,0-1.76.55l-.08-.15a1.3,1.3,0,0,0-.83-.6c-.67-.15-1.17.21-2.17.93-.2.15-.52.37-.71.49a1.2,1.2,0,0,0-.41.15A1.22,1.22,0,0,0,24.79,72a1.19,1.19,0,0,0,.21.27,1.28,1.28,0,0,0-.07,1.34,1.27,1.27,0,0,0-.16,1.59,1.31,1.31,0,0,0,.85.62c.4.09,1.4,0,1.52.2a2.5,2.5,0,0,0-1,1.76,2.23,2.23,0,0,0-.84,1.11A1.39,1.39,0,0,0,25.46,80a1.33,1.33,0,0,0,.87.63c.54.12,1.78-.72,3-1.44A11.28,11.28,0,0,1,30,80.36,9.91,9.91,0,0,0,29,81a1.22,1.22,0,0,0-.76,1.79,1.23,1.23,0,0,0,.26.31,1.36,1.36,0,0,0,.69.43,1.36,1.36,0,0,0,.18.66,1.33,1.33,0,0,0,.86.63,2.09,2.09,0,0,0,1.51-.35l0,.09c-.68.7-.81,1.3-.41,2a1.34,1.34,0,0,0,.87.64,1.55,1.55,0,0,0,.35,0c.66,0,1.54-.42,3.75-1.86a1.39,1.39,0,0,0,.49.21c.93.19,1.91-.47,4.61-2.44a32.06,32.06,0,0,1,3-2,1.22,1.22,0,0,0,1.42-1.22,2,2,0,0,0,.68-1A1.35,1.35,0,0,0,46.34,77.88Z"/><path class="cls-13" d="M67.82,69.66a7.33,7.33,0,0,0-4.79-.2,24.91,24.91,0,0,0-7.5,3.44,47.32,47.32,0,0,0-4.59,3.2l-.53.43a2.31,2.31,0,0,1,.52.48l.35-.18c2.73-1.42,5.44-2.87,8.22-4.18a27.49,27.49,0,0,1,3.64-1.53,9.16,9.16,0,0,1,3.14-.44,2,2,0,0,1,1.23.33l0,0,0,0h0a1.92,1.92,0,0,1,.17,1.23,8.94,8.94,0,0,1-.34,1.8,12.43,12.43,0,0,1-1.46,3.25A8.3,8.3,0,0,1,63.27,80a4.46,4.46,0,0,0-1.74-1.27,10.22,10.22,0,0,0-3.93-1,22.23,22.23,0,0,0-6.11.51l-.16,0a1.74,1.74,0,0,1-.35,1s0,0,0,0h.38c.87,0,1.75,0,2.62.05,1.48,0,3,.08,4.39.22a10,10,0,0,1,2.88.7,6.18,6.18,0,0,1,.6.3h0c.18.1.38.22.38.37h0s.18.16.18.19a1.76,1.76,0,0,1,.08.36h0a2.08,2.08,0,0,1-.19.7A4.79,4.79,0,0,1,61,84.05a3.3,3.3,0,0,1-2.24,1,4.69,4.69,0,0,1-2.27-1q-2.19-1.48-4.42-2.89l-1.18-.74-.6-.36a4,4,0,0,1-.69.35q.33.38.7.76a15.73,15.73,0,0,0,6.48,4.25,4.52,4.52,0,0,0,2.64.14,6.09,6.09,0,0,0,2.12-1.17c.93-.76,2.26-2.13,2.08-3.48h0l.15-.13a15.07,15.07,0,0,0,3.07-4,14.39,14.39,0,0,0,1.91-4.53A2.13,2.13,0,0,0,67.82,69.66Z"/><path class="cls-13" d="M43.68,80l-.46.28L42,81.08Q39.76,82.49,37.57,84a4.69,4.69,0,0,1-2.27,1,3.28,3.28,0,0,1-2.23-1,4.75,4.75,0,0,1-1.26-1.85,3.08,3.08,0,0,1-.19-.67,1,1,0,0,1,0-.51l0-.06h0a1.52,1.52,0,0,1,.47-.4,5.83,5.83,0,0,1,.81-.37,10.23,10.23,0,0,1,2.7-.62c1.43-.14,2.91-.19,4.41-.21l2.43,0h.69a2.32,2.32,0,0,1-.18-.87l-.86-.2a20,20,0,0,0-6.82-.38C34,78,31.64,78.7,30.77,80a8.6,8.6,0,0,1-2.72-2.9,12.28,12.28,0,0,1-1.41-3.28c-.18-.68-.64-2.2-.12-2.83l0,0,0-.05,0,0A2.22,2.22,0,0,1,28,70.67a9.37,9.37,0,0,1,2.95.45,27.45,27.45,0,0,1,3.64,1.53c2.66,1.24,5.24,2.62,7.84,4l1.14.59a3.61,3.61,0,0,1,.4-.45c-.36-.31-.73-.61-1.11-.91-1.28-1-2.63-1.91-4-2.76a27.64,27.64,0,0,0-7.22-3.5c-1.9-.52-6.6-1.17-6.38,2a11.6,11.6,0,0,0,1.68,4.53,18.08,18.08,0,0,0,2.93,4.12,7.11,7.11,0,0,0,.63.56,2.14,2.14,0,0,0,.15,1.06,6.65,6.65,0,0,0,3.45,3.37c1.63.71,3.34.16,4.86-.58a18.1,18.1,0,0,0,4-2.85c.32-.29.64-.59.94-.9l.39-.41A2.44,2.44,0,0,1,43.68,80Z"/><path class="cls-13" d="M53.64,85.17a5.35,5.35,0,0,0-2.77-3.74,6.26,6.26,0,0,0-.64-.29,7.94,7.94,0,0,0-1.88-.44l-.45.09a6.29,6.29,0,0,1,2.07.59,4.71,4.71,0,0,1,1.24.86,4.63,4.63,0,0,1,.76,1,24,24,0,0,1-5.48.62c-1.47,0-2.94-.5-4.37-.62a4.49,4.49,0,0,1,1-1.18,4.77,4.77,0,0,1,1.25-.77,5.67,5.67,0,0,1,1.1-.35,3.53,3.53,0,0,1-.46-.1,7.49,7.49,0,0,0-.92.24,5.4,5.4,0,0,0-2.64,1.8,7.53,7.53,0,0,0-1.19,5.24c.21,3.11,1.35,7,4.17,8.76A4.55,4.55,0,0,0,49,97a8.27,8.27,0,0,0,3.08-3.59A13.21,13.21,0,0,0,53.64,85.17ZM50.73,95a4.44,4.44,0,0,1-3.91,1.92,5,5,0,0,1-3.41-2.37,11.4,11.4,0,0,0,7.84-.31A7.64,7.64,0,0,1,50.73,95Zm1.58-3.37c-3.56.89-6.8,1.77-10.22-.13l-.09,0a15.66,15.66,0,0,1-.4-1.76,11.38,11.38,0,0,0,4,.66,19,19,0,0,0,7.08-.81A15.26,15.26,0,0,1,52.31,91.66Zm.5-4.55a22.07,22.07,0,0,1-11.47.32q0-.56,0-1.12a7.89,7.89,0,0,1,.18-1.48,7.4,7.4,0,0,0,3.41,1,15.91,15.91,0,0,0,7.76-.65,9.34,9.34,0,0,1,.15,1.62C52.81,86.89,52.81,87,52.81,87.11Z"/><path class="cls-16" d="M46.39,82.68a1.39,1.39,0,0,1-.3,0,1.34,1.34,0,0,1-.68-.41,1.42,1.42,0,0,1-.78,0,1.3,1.3,0,0,1-.79-.53,1.36,1.36,0,0,1-.36,0,1.32,1.32,0,0,1-.87-.63,1.34,1.34,0,0,1-.13-1,1.53,1.53,0,0,1,.09-.24,1.34,1.34,0,0,1-.41,0,1.32,1.32,0,0,1-.81-.6c-.41-.71-.22-1.25.44-1.84a1.22,1.22,0,0,1,.61-1,1.2,1.2,0,0,1,.48-.16c.35-.19,1.09-.7,1.6-1,1.92-1.3,2.45-1.64,3.14-1.48a1.25,1.25,0,0,1,.34.14c.91-.52,1.31-.6,1.75-.5a1.28,1.28,0,0,1,1,1.11,1.34,1.34,0,0,1,1.27.64,1.33,1.33,0,0,1,.13,1,2.08,2.08,0,0,1-.9,1.11l.11.16a1.54,1.54,0,0,1,.18.44,1.3,1.3,0,0,1,.43.44,1.22,1.22,0,0,1-1,1.82c-.37.2-1.12.73-1.64,1.09C47.65,82.25,47,82.68,46.39,82.68Z"/><path class="cls-17" d="M44.15,75.37c-.24-.41-.42-.58-.39-.85a1.31,1.31,0,0,1-.93-.68A.87.87,0,0,1,44,72.66a11.87,11.87,0,0,0,.78-.9c.76-.94,1.41-1.75,2.29-1.68a1.29,1.29,0,0,1,1,.69,1.82,1.82,0,0,1,.2.5h.15a1.56,1.56,0,0,1,1.35.92,1.54,1.54,0,0,1,.22,1,1.34,1.34,0,0,1,.78.67.87.87,0,0,1-1,1.26l-.15.26C49.32,76,44.59,76.13,44.15,75.37ZM44,73.19l-.38.22.38-.22Z"/><path class="cls-13" d="M49.89,74.89l0,0a1.67,1.67,0,0,0,.35-.72,1.12,1.12,0,0,0-.3-1.24,3.29,3.29,0,0,0-.51-1,3.33,3.33,0,0,0-.45-.47,3.22,3.22,0,0,0-1.79-.79,3.3,3.3,0,0,0-2.24.66,2.93,2.93,0,0,0-1.18,1.46,2,2,0,0,0-.12,1.08,1.91,1.91,0,0,0,0,.26,1.73,1.73,0,0,0,.31.67,3.45,3.45,0,0,0-1.84,3.26c.18,2.24,2.72,4,4.81,4.2A4.1,4.1,0,0,0,51.5,78.2,4.05,4.05,0,0,0,49.89,74.89ZM47,72.42a4.63,4.63,0,0,1,2.43.56,1.54,1.54,0,0,0-.47.84,1.49,1.49,0,0,0,.07,1,2.9,2.9,0,0,1-.46.06c-.46,0-1.11.1-1.51.12a5.35,5.35,0,0,1-1.79,0,1.32,1.32,0,0,1-.34-.16A1.4,1.4,0,0,0,45,73.82a1.82,1.82,0,0,0-.22-.53,4.78,4.78,0,0,1,.57-.41A3.6,3.6,0,0,1,47,72.42Zm-.25,8.51a4.22,4.22,0,0,1-2.34-.34,2.45,2.45,0,0,1-1.33-2.4,3.07,3.07,0,0,1,1.25-1.76,4.11,4.11,0,0,1,1.15-.53,5.8,5.8,0,0,0,.94.38,3.13,3.13,0,0,0,2.51-.38c1.27.31,2.41,1,2.41,2.29C51.33,80.26,48.5,80.79,46.74,80.93Z"/><path class="cls-14" d="M80.33,35.11a1.4,1.4,0,0,1-.32,0,1.3,1.3,0,0,1-.85-.62A1.35,1.35,0,0,1,79,34a1.41,1.41,0,0,1-.82-.65A1.45,1.45,0,0,1,78,32.25c.09-.33-1.17-.67-1.66-.78A1.44,1.44,0,0,1,75.24,30a1.42,1.42,0,0,1-1.07-1.55,1.83,1.83,0,0,1-.92.05,1.37,1.37,0,0,1-.9-.65,1.48,1.48,0,0,1-.14-1.15c.22-.79,1.13-1.56,3.15-2.77a1.09,1.09,0,0,1,.1-.49A1.22,1.22,0,0,1,76,22a1.24,1.24,0,0,1,.66-.16c.38-.23,1.08-.76,1.57-1.13C80,19.39,80.76,18.82,81.6,19a1.37,1.37,0,0,1,.57.27c3-2.11,4-2.63,4.89-2.44a1.35,1.35,0,0,1,.89.65v0a1.14,1.14,0,0,1,.33,0,1.35,1.35,0,0,1,.89.65,1.6,1.6,0,0,1,.22.62,2.9,2.9,0,0,1,1.87-.4,1.43,1.43,0,0,1,.94.68,1.45,1.45,0,0,1,.17.47,1.41,1.41,0,0,1,.19.26,1.45,1.45,0,0,1,.17,1h0a1.43,1.43,0,0,1,.13,1.11,2.06,2.06,0,0,1-.56.9,1.41,1.41,0,0,1,.49.5,1.46,1.46,0,0,1,.14,1.12c-.19.71-.89,1.38-2.49,2.41a1.16,1.16,0,0,1,0,.37l.1.15,0,.06a1.3,1.3,0,0,1,.24.3A1.35,1.35,0,0,1,91,28.79c-.28.88-1.21,1.4-4.8,3.08l-.29.13-.8.57A11.53,11.53,0,0,1,82,34.49,3.55,3.55,0,0,1,80.33,35.11Z"/><path class="cls-15" d="M75.57,28.64h0Z"/><path class="cls-15" d="M78,18.21a1.34,1.34,0,0,0-.81-.6h-.05a1.56,1.56,0,0,0-.18-.42,1.17,1.17,0,0,0-.17-.22,1.27,1.27,0,0,0,0-1.42,1.3,1.3,0,0,0-.84-.61,1.46,1.46,0,0,0-.77,0,1.29,1.29,0,0,0-1-1.21c-.6-.14-1.06,0-2.89,1.25l0,0a1.79,1.79,0,0,0-.14-.29,1.36,1.36,0,0,0-.9-.65,1.55,1.55,0,0,0-.56,0,1.35,1.35,0,0,0-.18-.56,1.33,1.33,0,0,0-.87-.64c-.61-.14-1.24.08-2.69,1a1.92,1.92,0,0,0-.85.19,1.32,1.32,0,0,0-.76-.48c-.79-.17-4.91,2.16-4.84,2,.35-.57-.21-.93-.7-.91a2.58,2.58,0,0,0-1.41.84A1.22,1.22,0,0,0,56.92,17c-.5,1-.76,1.54-.39,2.19l0,.07a1.23,1.23,0,0,0,0,1.32,1.32,1.32,0,0,0,.87.63,2.2,2.2,0,0,0,1.58-.37,1.49,1.49,0,0,0,.39,0,1.52,1.52,0,0,0,.2.54,1.72,1.72,0,0,0-.59,1.27,2,2,0,0,0-.59.89,1.39,1.39,0,0,0,.13,1.09,1.32,1.32,0,0,0,.86.63c.56.13,1.22.11,2.36-.92.43-.39.35,0,.38,0,.64.13,1.71.37,1.78.85a1.24,1.24,0,0,0-.18,1.59,1.32,1.32,0,0,0,.61.55,1.31,1.31,0,0,0,.74.46,1.38,1.38,0,0,0,.47,0,1.3,1.3,0,0,0,.72.44c.74.16,1.55-.08,2.78-.93a2.37,2.37,0,0,1,.63.95c-.13.33-.7.72-.48,1.11a1.28,1.28,0,0,0,1.74.45l.16,0,.25,0c.13.16,3-1.09,2.68-1.66a2.89,2.89,0,0,0,1-3c.57-1.29,1-2.31,1-2.3.16-.39,1-.78.6-1.47a.49.49,0,0,0-.51-.28c1.36-.81,1.81-1.24,2-1.83A1.34,1.34,0,0,0,78,18.21Z"/><path class="cls-15" d="M89.71,37.05a1.34,1.34,0,0,0-.81-.6,1.39,1.39,0,0,0-.8,0,3.37,3.37,0,0,0-1.41.64,1.21,1.21,0,0,0-.15-1,1.3,1.3,0,0,0-.38-.42,1.86,1.86,0,0,0,.69-1,1.3,1.3,0,0,0-.94-1.63c-.39-.09-.72-.06-1.51.36l0,0a1.3,1.3,0,0,0-.8-.6l-.17,0A9.28,9.28,0,0,1,78.18,32c-.17-.28-1.08-.49-1.4-.57s-.71,0-1.33.36a2,2,0,0,0-1.18.48l-.25.16-.18.08a1.21,1.21,0,0,0-.12,2,1.56,1.56,0,0,0-.06,1.13c-.69.72-.95,1.28-.54,2a1.3,1.3,0,0,0,.81.6,1.28,1.28,0,0,0,.56,0,1.14,1.14,0,0,0,0,.87c-1.06.8-1.65,1.41-1.68,2.05-.82.56-1.15,1-1.28,1.43a1.36,1.36,0,0,0,.13,1.05,1.31,1.31,0,0,0,.84.62c.48.11,1,0,2-.6l.13,0a1.71,1.71,0,0,0,1-.13c-1.09.87-1.71,1.51-1.76,2.16A2.31,2.31,0,0,0,72.95,47a1.38,1.38,0,0,0,0,.74A1.35,1.35,0,0,0,73.3,49a1.39,1.39,0,0,0,.18.64,1.35,1.35,0,0,0,.89.65,1.78,1.78,0,0,0,1.1-.14,1.27,1.27,0,0,0-.16.84,1.25,1.25,0,0,0-.21,1.65,1.3,1.3,0,0,0,.83.61,1.37,1.37,0,0,0,.32,0,4.88,4.88,0,0,0,2.27-1,1.36,1.36,0,0,0,.29.06h.09a1.3,1.3,0,0,0,.74.39,2.12,2.12,0,0,0,1.72-.79l.19-.17a1.22,1.22,0,0,0,.93-1.7c2.41-1.3,3.26-1.8,3.48-2.6a1.32,1.32,0,0,0-.12-1,1.3,1.3,0,0,0-.83-.61,1.37,1.37,0,0,0-.38,0,1.23,1.23,0,0,0,0-1.17c1.49-.85,2.05-1.36,2.26-2l.24-.14a1.2,1.2,0,0,0,.41-.15,1.22,1.22,0,0,0,.51-1.53,1.28,1.28,0,0,0-.16-.5,1.15,1.15,0,0,0-.16-.22C89.6,38.91,90.32,38.12,89.71,37.05Z"/><path class="cls-14" d="M9.94,33.9a1.42,1.42,0,0,1-.32,0,1.32,1.32,0,0,1-.55-.26,1.61,1.61,0,0,1-.36,0,1.38,1.38,0,0,1-.56-.26,2.19,2.19,0,0,1-1.38.23,1.36,1.36,0,0,1-.89-.65,1.4,1.4,0,0,1-.12-1.11,1.62,1.62,0,0,1,.14-.33l-.11-.16c-.46-.79-.13-1.29,0-2-.14-.06-1.14,0-1.63-.07a1.39,1.39,0,0,1-1.1-1.35l-.11,0a1.36,1.36,0,0,1-1.06-1.55,1.48,1.48,0,0,1-1.68-.69c-.69-1.38.5-2.22,1.39-2.82.31-.21.66-.43,1-.66a1,1,0,0,1,0-.11l-.1-.14a1.22,1.22,0,0,1,.93-1.82L4,19.66c.87-.7,1.45-1.16,2.2-1a1.31,1.31,0,0,1,.64.32c2.69-1.87,3.43-2.29,4.21-2.11a1.32,1.32,0,0,1,.85.62,1.55,1.55,0,0,1,.15.33,1.3,1.3,0,0,1,.71.58,1.42,1.42,0,0,1,.21.72c1.11-.63,1.71-.79,2.25-.67a1.37,1.37,0,0,1,.82.54,1.35,1.35,0,0,1,.8.63,1.4,1.4,0,0,1,.09.18,1.37,1.37,0,0,1,.57.54,1.34,1.34,0,0,1,.2.92,1.68,1.68,0,0,1,.44,0A1.47,1.47,0,0,1,19,23.67a1.83,1.83,0,0,1,1-.08,1.36,1.36,0,0,1,.89.65,1.42,1.42,0,0,1,.13,1.1l0,.06a1.32,1.32,0,0,1,.51.5c.69,1.2-.31,2.06-2.87,3.73a1.35,1.35,0,0,1,0,.58c-.19.69-.78,1.06-2.45,2l0,0a1.22,1.22,0,0,1-.85.66h0a1.89,1.89,0,0,1-1.58.82l-.22,0c-.32.12-.6-.29-.89-.36s-.47.3-.66,0A3.77,3.77,0,0,1,9.94,33.9Z"/><path class="cls-15" d="M22.41,36.22a1.4,1.4,0,0,0-.13-1.1,1.35,1.35,0,0,0-.89-.65,1.73,1.73,0,0,0-.88,0l-.07-.14a1.33,1.33,0,0,0-.71-.58,1.69,1.69,0,0,0,.21-.43,1.41,1.41,0,0,0-.12-1.13,1.33,1.33,0,0,0-.87-.64,1.77,1.77,0,0,0-1,.09,1.35,1.35,0,0,0-.76-.47c-.58-.13-.78.64-2.09,1.43-1.22.58-2.46.38-5.21,2.31l-.4.28a17.49,17.49,0,0,0-4.19,2.38,1.21,1.21,0,0,0-.45.75,1.36,1.36,0,0,0,.13,1,1.34,1.34,0,0,0,.2.27A1.58,1.58,0,0,0,5,40a1.42,1.42,0,0,0,.12,1.13,1.35,1.35,0,0,0,.89.65,1.66,1.66,0,0,0,.82,0c-1.16.94-1.48,1.65-1,2.49a1.36,1.36,0,0,0,.82.61,1.39,1.39,0,0,0,.32,0c.5,0,1.11-.28,2.48-1.15a1.27,1.27,0,0,0,.1.61c-.85.67-1.29,1.24-1.31,1.81a2.47,2.47,0,0,0-1,1.25,1.4,1.4,0,0,0,.13,1.1,1.33,1.33,0,0,0,.87.63c.53.12,1.09,0,2.23-.71,0,0,.49.54,1,.35a1.85,1.85,0,0,0-.31,1.05c-.67.61-.86,1.17-.45,1.88A1.29,1.29,0,0,0,11,52a1.24,1.24,0,0,0,.09.19,1.31,1.31,0,0,0,.85.62h0v0a1.3,1.3,0,0,0,.85.62,2,2,0,0,0,1.45-.38l0,.07a1.33,1.33,0,0,0,.9.62l.22,0a2,2,0,0,0,1.32-.67l.09-.08a1.22,1.22,0,0,0,.84-.73c.6-.47,1-1,.64-1.82l0-.07c2.14-1.13,2.77-1.6,3-2.31a1.31,1.31,0,0,0-.94-1.66,1.91,1.91,0,0,0-1.44.33,1.56,1.56,0,0,0-.2-.53,1.33,1.33,0,0,0-.35-.4,1.21,1.21,0,0,0-.05-1.16,3.64,3.64,0,0,0,1.09-1.38,2,2,0,0,0,.75-1,1.41,1.41,0,0,0,0-.18,2.86,2.86,0,0,0,1.24-1.45,1.43,1.43,0,0,0-.08-1c.72-.73.88-1.37.47-2.09a1.35,1.35,0,0,0-.2-.27A2.22,2.22,0,0,0,22.41,36.22Z"/><path class="cls-13" d="M77,21.7A5.35,5.35,0,0,0,75.11,26a6.43,6.43,0,0,0,.07.7,7.94,7.94,0,0,0,.56,1.85l.3.35a6.29,6.29,0,0,1-.53-2.08,4.72,4.72,0,0,1,.13-1.5,4.64,4.64,0,0,1,.46-1.14,24,24,0,0,1,3.28,4.44c.73,1.28,1,2.79,1.64,4.1a4.49,4.49,0,0,1-1.51-.26,4.78,4.78,0,0,1-1.29-.7,5.69,5.69,0,0,1-.85-.78,3.58,3.58,0,0,1,.14.44,7.49,7.49,0,0,0,.67.68,5.4,5.4,0,0,0,2.88,1.39,7.53,7.53,0,0,0,5.13-1.59c2.59-1.74,5.4-4.67,5.5-8a4.55,4.55,0,0,0-2.22-4.09,8.27,8.27,0,0,0-4.65-.88A13.21,13.21,0,0,0,77,21.7Zm10-2.4a4.44,4.44,0,0,1,3.62,2.43,5,5,0,0,1-.34,4.14,11.4,11.4,0,0,0-4.19-6.63A7.65,7.65,0,0,1,87,19.3Zm-3.71.32c2.55,2.63,4.93,5,5,8.92,0,0,0,.07,0,.1A15.66,15.66,0,0,1,87,29.86a11.37,11.37,0,0,0-1.43-3.8,19,19,0,0,0-4.24-5.73A15.36,15.36,0,0,1,83.26,19.61Zm-4.19,1.85a22.07,22.07,0,0,1,6,9.77l-1,.59a7.9,7.9,0,0,1-1.37.58A7.4,7.4,0,0,0,81.91,29a15.91,15.91,0,0,0-4.44-6.4,9.32,9.32,0,0,1,1.33-.94Z"/><path class="cls-15" d="M38.91,14.66a1.46,1.46,0,0,0-1-.7,1.79,1.79,0,0,0-.55,0,1.43,1.43,0,0,0-.17-.47,1.4,1.4,0,0,0-.92-.67c-.63-.14-1.38.09-2.88,1a2.48,2.48,0,0,0-.61.14,1.34,1.34,0,0,0-.74-.45c-.79-.17-1.22.17-3.53,1.62a8.58,8.58,0,0,0-.44-.76,1.7,1.7,0,0,0-1.1-.63c-.62,0-1.17.07-2.87,1.18a1.34,1.34,0,0,0-.73-.47c-.46-.1-.85,0-1.64.46-.58,0-1.23.47-2.74,1.52l-.51.35a13.24,13.24,0,0,0-1.32.74,1.22,1.22,0,0,0-.86,1.43,1.29,1.29,0,0,0,.17.55,1.21,1.21,0,0,0,.19.25,1.58,1.58,0,0,0-.21.43,1.36,1.36,0,0,0,.12,1.08,1.32,1.32,0,0,0,.86.62,2.77,2.77,0,0,0,.6,0,1.49,1.49,0,0,0-.24.74c-.08,1.14.58,1.71.93,3.24C19,26.84,18,28,18,28.12a1.5,1.5,0,0,0,.13,1.2A1.42,1.42,0,0,0,19,30a1.59,1.59,0,0,0,.35,0,4,4,0,0,0,1.74-.55,3.58,3.58,0,0,0,2.21-.65c1.06,0,2.44-.94,5.42-3.23l1-.74c4-2,5.43-2.8,5.9-3.65a3.42,3.42,0,0,0,1.5-1.63h0a4.06,4.06,0,0,0,1.75-1.9,1.54,1.54,0,0,0-.12-1.21,2,2,0,0,0,.29-.6A1.55,1.55,0,0,0,38.91,14.66Z"/><path class="cls-13" d="M56.45,17.18a7.33,7.33,0,0,0,2.22,4.25,24.92,24.92,0,0,0,6.73,4.77,47.3,47.3,0,0,0,5.06,2.38l.64.24a2.31,2.31,0,0,1,.16-.69l-.33-.21c-2.59-1.65-5.21-3.27-7.73-5a27.54,27.54,0,0,1-3.14-2.39,9.18,9.18,0,0,1-2-2.5,2,2,0,0,1-.32-1.23v0l0,0v0c.14-.37.66-.6,1-.76a8.88,8.88,0,0,1,1.73-.61A12.43,12.43,0,0,1,64,15a8.29,8.29,0,0,1,3.66.91,4.46,4.46,0,0,0-.23,2.14A10.22,10.22,0,0,0,68.59,22a22.23,22.23,0,0,0,3.5,5l.11.12a2.05,2.05,0,0,1,1.08-.22s-.09.07.09,0l0-.06-.15-.26h0c-.44-.76-.92-1.49-1.35-2.25-.72-1.3-1.45-2.58-2-3.89a9.91,9.91,0,0,1-.85-2.84,5.86,5.86,0,0,1-.05-.67c0-.2,0-.81.49-1a4,4,0,0,1,.71-.19,4.79,4.79,0,0,1,2.24.18,3.3,3.3,0,0,1,1.94,1.47,4.69,4.69,0,0,1,.23,2.48q-.19,2.63-.29,5.27c0,.46,0,.93,0,1.39,0,.24,0,.47,0,.7a4,4,0,0,1,.65.42q.16-.48.31-1a15.74,15.74,0,0,0,.44-7.73,4.52,4.52,0,0,0-1.2-2.36,6.09,6.09,0,0,0-2.07-1.25c-1.13-.43-3-.89-4.05-.06h0L68,15.18a15.07,15.07,0,0,0-5-.66,14.39,14.39,0,0,0-4.88.61C57.18,15.5,56.41,16.09,56.45,17.18Z"/><path class="cls-13" d="M77.51,32.9l.47.26,1.28.68q2.34,1.23,4.71,2.38a4.69,4.69,0,0,1,2,1.44,3.28,3.28,0,0,1,.29,2.41,4.75,4.75,0,0,1-1,2,3.09,3.09,0,0,1-.49.5,1,1,0,0,1-.46.21h-.08a1.53,1.53,0,0,1-.58-.21,5.81,5.81,0,0,1-.72-.52,10.24,10.24,0,0,1-1.89-2c-.84-1.17-1.62-2.43-2.39-3.71l-1.24-2.09-.25-.41-.11-.18a2.32,2.32,0,0,1-.66.59q.12.42.26.85a20,20,0,0,0,3.08,6.09c.82,1.06,2.6,2.82,4.18,2.91a8.6,8.6,0,0,1-1.16,3.81,12.28,12.28,0,0,1-2.13,2.86c-.5.5-1.59,1.65-2.39,1.52h0c-.45-.11-.79-.71-1-1.06a9.38,9.38,0,0,1-1.09-2.78,27.45,27.45,0,0,1-.5-3.92c-.25-2.92-.35-5.85-.48-8.78,0-.43,0-.86-.06-1.29a3.6,3.6,0,0,1-.59-.12c-.09.47-.16.94-.23,1.42-.22,1.6-.34,3.23-.4,4.82a27.63,27.63,0,0,0,.58,8c.5,1.9,2.29,6.3,4.93,4.52a11.59,11.59,0,0,0,3.09-3.72,18.06,18.06,0,0,0,2.11-4.6,7.21,7.21,0,0,0,.17-.82,2.14,2.14,0,0,0,.85-.66,6.65,6.65,0,0,0,1.19-4.68c-.2-1.76-1.53-3-2.93-3.92a18.1,18.1,0,0,0-4.48-2.05c-.41-.13-.83-.26-1.25-.37l-.55-.13A2.45,2.45,0,0,1,77.51,32.9Z"/><path class="cls-16" d="M73.45,36.31a1.41,1.41,0,0,1-.3,0,1.32,1.32,0,0,1-.86-.61,1.22,1.22,0,0,1-.09-1.16l-.06,0a1.52,1.52,0,0,1-.4,0,1.37,1.37,0,0,1-.9-.64,1.24,1.24,0,0,1-.07-1.21l-.29,0a1.37,1.37,0,0,1-.9-.64,1.32,1.32,0,0,1,.17-1.57,1.3,1.3,0,0,1-.55-.51,1.23,1.23,0,0,1,.46-1.69,1.29,1.29,0,0,1,.49-.16c.33-.18,1-.64,1.48-.95,1.73-1.15,2.31-1.54,3-1.38a1.32,1.32,0,0,1,.85.61,1.24,1.24,0,0,1,.18.75,1.5,1.5,0,0,1,.48,0,1.37,1.37,0,0,1,.9.64,1.24,1.24,0,0,1,.11,1.09,1.52,1.52,0,0,1,.46,0,1.38,1.38,0,0,1,.91.64,1.3,1.3,0,0,1,.13,1,1.39,1.39,0,0,1-.09.24,1.33,1.33,0,0,1,.27.33c.65,1.1-.51,1.94-.95,2.26l-.11.08a1.24,1.24,0,0,1-.63,1,1.28,1.28,0,0,1-.5.16c-.27.16-.73.48-1,.69C74.61,35.92,74,36.31,73.45,36.31Z"/><path class="cls-17" d="M70.82,36.51a.88.88,0,0,1-.42-.11,1.11,1.11,0,0,1-.37.06h0A1.22,1.22,0,0,1,69,35.76a1.35,1.35,0,0,1-.19-.9.92.92,0,0,1-.24,0,1.3,1.3,0,0,1-1.14-.76A1.32,1.32,0,0,1,67.25,33a1.23,1.23,0,0,1,.21-.37,1.08,1.08,0,0,1-.54-.47.81.81,0,0,1,.89-1.19c.14-.13.3-.32.42-.45.54-.6,1-1.17,1.71-1.1a1.05,1.05,0,0,1,.8.54,1.3,1.3,0,0,1,.18.91,1.39,1.39,0,0,1,.88.73A1.35,1.35,0,0,1,72,32.7v0a1.24,1.24,0,0,1,1,.71,1.18,1.18,0,0,1,.1,1.08l0,0,0,0a.81.81,0,0,1,.1.29A.78.78,0,0,1,72.85,36a.77.77,0,0,1-1.06-.28,1.06,1.06,0,0,1-.84.81Z"/><path class="cls-13" d="M70,30.09H69.9a1.68,1.68,0,0,0-.8.05c-.56.17-.94.54-.93.88a4,4,0,0,0-.57.92,3.9,3.9,0,0,0-.18.63,3,3,0,0,0,.21,1.95,3.3,3.3,0,0,0,1.69,1.61,4.28,4.28,0,0,0,.68.23,3.06,3.06,0,0,0,1.17.06,2,2,0,0,0,1-.44l.2-.16a1.72,1.72,0,0,0,.42-.6,3.45,3.45,0,0,0,3.74,0c1.85-1.28,2.09-4.34,1.23-6.27A4.1,4.1,0,0,0,72,27,4.05,4.05,0,0,0,70,30.09Zm-.69,3.75a4.63,4.63,0,0,1-.73-2.38,1.54,1.54,0,0,0,1,0,1.49,1.49,0,0,0,.84-.57,2.93,2.93,0,0,1,.29.37c.25.39.64.91.86,1.25A5.36,5.36,0,0,1,72.41,34a1.32,1.32,0,0,1,0,.38,1.4,1.4,0,0,0-1,.44,1.82,1.82,0,0,0-.35.46,4.76,4.76,0,0,1-.65-.29A3.59,3.59,0,0,1,69.26,33.84Zm7.49-4a4.22,4.22,0,0,1,.88,2.2,2.45,2.45,0,0,1-1.41,2.35,3.07,3.07,0,0,1-2.15-.21,4.11,4.11,0,0,1-1-.73,5.83,5.83,0,0,0-.14-1,3.13,3.13,0,0,0-1.59-2c-.37-1.25-.37-2.58.78-3.23C73.88,26.16,75.75,28.35,76.75,29.81Z"/><path class="cls-13" d="M16.8,53.2a7.33,7.33,0,0,0,2.57-4,24.92,24.92,0,0,0,.77-8.21,47.23,47.23,0,0,0-.47-5.58l-.11-.67a2.3,2.3,0,0,1-.68.21c0,.13,0,.26,0,.39-.13,3.07-.23,6.14-.49,9.21a27.56,27.56,0,0,1-.5,3.92,9.17,9.17,0,0,1-1.19,2.94c-.21.3-.51.79-.9.89h0a1.91,1.91,0,0,1-1.15-.47,8.86,8.86,0,0,1-1.39-1.19,12.43,12.43,0,0,1-2.09-2.89,8.3,8.3,0,0,1-1-3.62,4.46,4.46,0,0,0,2-.87,10.22,10.22,0,0,0,2.79-2.92,22.25,22.25,0,0,0,2.61-5.55l.05-.16a2.06,2.06,0,0,1-.73-.82s.11,0-.06-.07l0,.06-.15.26h0c-.44.76-.83,1.54-1.28,2.29-.76,1.27-1.51,2.54-2.35,3.71a9.94,9.94,0,0,1-2,2.16,5.78,5.78,0,0,1-.56.38c-.18.1-.71.38-1.11.08a3.93,3.93,0,0,1-.52-.52,4.78,4.78,0,0,1-1-2A3.3,3.3,0,0,1,8,37.67a4.69,4.69,0,0,1,2-1.44q2.37-1.16,4.71-2.38L16,33.19l.62-.34a4,4,0,0,1,0-.77l-1,.23a15.73,15.73,0,0,0-6.92,3.48A4.52,4.52,0,0,0,7.31,38a6.09,6.09,0,0,0,0,2.42c.19,1.19.72,3,2,3.54v0c0,.07,0,.13,0,.19a15.06,15.06,0,0,0,1.93,4.66,14.38,14.38,0,0,0,3,3.92A2.13,2.13,0,0,0,16.8,53.2Z"/><path class="cls-13" d="M19.89,27.11c0-.18,0-.36,0-.53,0-.48,0-1-.05-1.45q-.11-2.64-.29-5.27a4.69,4.69,0,0,1,.23-2.48,3.28,3.28,0,0,1,1.94-1.46,4.75,4.75,0,0,1,2.23-.16,3.1,3.1,0,0,1,.67.17,1,1,0,0,1,.42.29l0,.07h0a1.54,1.54,0,0,1,.11.61,5.86,5.86,0,0,1-.09.89,10.24,10.24,0,0,1-.81,2.65c-.59,1.31-1.29,2.62-2,3.92l-1.19,2.12-.24.42-.1.18a2.32,2.32,0,0,1,.84.28l.61-.65A20,20,0,0,0,25.92,21c.51-1.24,1.14-3.66.43-5.07a8.6,8.6,0,0,1,3.87-.9,12.27,12.27,0,0,1,3.54.42c.68.18,2.23.55,2.51,1.31v0l0,.06v0a2.22,2.22,0,0,1-.41,1.41A9.38,9.38,0,0,1,34,20.5a27.45,27.45,0,0,1-3.14,2.39c-2.41,1.68-4.89,3.23-7.37,4.8l-1.08.69a3.57,3.57,0,0,1,.19.57c.45-.16.9-.33,1.34-.51,1.5-.61,3-1.32,4.38-2.07a27.64,27.64,0,0,0,6.64-4.51c1.4-1.38,4.31-5.13,1.45-6.53a11.6,11.6,0,0,0-4.76-.81,18.07,18.07,0,0,0-5,.48,7.15,7.15,0,0,0-.8.26,2.14,2.14,0,0,0-1-.4,6.65,6.65,0,0,0-4.65,1.31c-1.43,1.06-1.81,2.81-1.93,4.5a18.12,18.12,0,0,0,.46,4.9c.09.43.19.85.31,1.27,0,.18.1.36.16.54A2.45,2.45,0,0,1,19.89,27.11Z"/><path class="cls-13" d="M10.45,33.17a5.35,5.35,0,0,0,4.63-.53,6.27,6.27,0,0,0,.57-.41A7.93,7.93,0,0,0,17,30.82c0-.15.1-.29.15-.43a6.28,6.28,0,0,1-1.54,1.5,4.71,4.71,0,0,1-1.36.64,4.63,4.63,0,0,1-1.22.17,24,24,0,0,1,2.2-5.06c.74-1.27,1.9-2.29,2.73-3.47a4.48,4.48,0,0,1,.53,1.43,4.77,4.77,0,0,1,0,1.47,5.74,5.74,0,0,1-.25,1.12,3.5,3.5,0,0,1,.31-.35,7.45,7.45,0,0,0,.25-.92,5.39,5.39,0,0,0-.24-3.19,7.53,7.53,0,0,0-3.94-3.65c-2.8-1.37-6.75-2.34-9.67-.76a4.55,4.55,0,0,0-2.43,4,8.27,8.27,0,0,0,1.56,4.46A13.21,13.21,0,0,0,10.45,33.17ZM3.37,25.71a4.44,4.44,0,0,1,.29-4.35,5,5,0,0,1,3.76-1.77,11.4,11.4,0,0,0-3.65,6.94A7.65,7.65,0,0,1,3.37,25.71ZM5.5,28.77c1-3.52,1.87-6.77,5.22-8.79l.08-.06a15.76,15.76,0,0,1,1.72.53A11.37,11.37,0,0,0,10,23.59a19,19,0,0,0-2.84,6.54A15.23,15.23,0,0,1,5.5,28.77ZM9.2,31.47a22.07,22.07,0,0,1,5.46-10.09l1,.54a7.87,7.87,0,0,1,1.19.89,7.4,7.4,0,0,0-2.56,2.46,15.91,15.91,0,0,0-3.32,7,9.28,9.28,0,0,1-1.48-.69Z"/><path class="cls-16" d="M19.12,35.4a1.39,1.39,0,0,1-.3,0,1.29,1.29,0,0,1-.7-.42,1.41,1.41,0,0,1-.73,0,1.3,1.3,0,0,1-.79-.52,1.42,1.42,0,0,1-.39,0,1.32,1.32,0,0,1-.87-.63,1.34,1.34,0,0,1-.13-1,1.57,1.57,0,0,1,.08-.22,1.3,1.3,0,0,1-.45,0,1.27,1.27,0,0,1-.81-.6,1.42,1.42,0,0,1,.44-1.84,1.22,1.22,0,0,1,1.09-1.18c.35-.19,1.1-.7,1.61-1,1.93-1.31,2.46-1.64,3.16-1.49a1.28,1.28,0,0,1,.34.13c.92-.53,1.32-.61,1.76-.51a1.28,1.28,0,0,1,.81.6,1.32,1.32,0,0,1,.17.5,1.37,1.37,0,0,1,.46,0,1.29,1.29,0,0,1,.83.61,1.33,1.33,0,0,1,.13,1A2,2,0,0,1,24,29.82c-.46.25-2.08,3.54-2.53,4C20.12,35.37,19.74,35.4,19.12,35.4Z"/><path class="cls-17" d="M23.3,37.08h0a1.25,1.25,0,0,1-1.09-.72,1.65,1.65,0,0,1-.15-.35h-.21c-.37,0-.76-.25-1.32-.9-.3-.35,1.49-3.82,1.57-3.87s.36-.42.5-.59c.71-.86,1.31-1.6,2.14-1.53a1.22,1.22,0,0,1,1,.65,1.5,1.5,0,0,1,.15,1.35l-.07.14a2.16,2.16,0,0,1,.44.55,1.56,1.56,0,0,1,.16,1.39,1.51,1.51,0,0,1-.43.6,1.87,1.87,0,0,1,.18.26.85.85,0,0,1-1,1.24l-.15.09-.14.23C24.5,36.35,24.08,37.08,23.3,37.08Z"/><path class="cls-13" d="M21.23,35.05l0,0a1.68,1.68,0,0,0,.44.66,1.13,1.13,0,0,0,1.23.36A4.26,4.26,0,0,0,24.65,36a3.14,3.14,0,0,0,2.13-3.43,4.94,4.94,0,0,0-.67-1.75,2,2,0,0,0-.88-.64L25,30.08a1.72,1.72,0,0,0-.73-.07,3.45,3.45,0,0,0-1.9-3.22c-2-1-4.81.36-6,2.07a4.1,4.1,0,0,0,1.25,5.94A4.05,4.05,0,0,0,21.23,35.05Zm3.59-1.27a4.63,4.63,0,0,1-1.7,1.82,1.54,1.54,0,0,0-.49-.83,1.49,1.49,0,0,0-.91-.44,3,3,0,0,1,.18-.43c.21-.41.47-1,.65-1.36A5.37,5.37,0,0,1,23.41,31a1.32,1.32,0,0,1,.31-.21,1.4,1.4,0,0,0,.87.64,1.81,1.81,0,0,0,.57.08,4.77,4.77,0,0,1,.07.7A3.59,3.59,0,0,1,24.82,33.78Zm-7.24-4.47A4.23,4.23,0,0,1,19,27.45a2.45,2.45,0,0,1,2.74.05,3.07,3.07,0,0,1,.9,2,4.12,4.12,0,0,1-.12,1.27,5.84,5.84,0,0,0-.8.62,3.14,3.14,0,0,0-.93,2.37c-.9.94-2,1.61-3.19.94C15.86,33.62,16.82,30.9,17.58,29.31Z"/><path class="cls-13" d="M44.94,72.4a5,5,0,0,0-.21-1.74,3.54,3.54,0,0,0-.33-.76,3,3,0,0,0-.48-.64,2.43,2.43,0,0,0-.63-.46c-.23-.12-.44-.25-.67-.4L41.91,68l-.38-.25a3.75,3.75,0,0,1-.4-.29l0-.12a3,3,0,0,1,.5-.13,4,4,0,0,1,.5,0,3.26,3.26,0,0,1,1,.18,2.41,2.41,0,0,1,.88.54,4.85,4.85,0,0,1,.66.81,3.94,3.94,0,0,1,.46.92,4.24,4.24,0,0,1,.19,1,4.52,4.52,0,0,1-.27,1.88Z"/><path class="cls-13" d="M48.66,72.43a4.52,4.52,0,0,1-.27-1.88,4.24,4.24,0,0,1,.19-1,3.93,3.93,0,0,1,.46-.92,4.85,4.85,0,0,1,.66-.81,2.41,2.41,0,0,1,.88-.54,3.26,3.26,0,0,1,1-.18,4,4,0,0,1,.5,0,3,3,0,0,1,.5.13l0,.12a3.72,3.72,0,0,1-.4.29L51.8,68l-.71.46c-.23.14-.44.28-.67.4a2.44,2.44,0,0,0-.63.46,3,3,0,0,0-.48.64,3.54,3.54,0,0,0-.33.76,5,5,0,0,0-.21,1.74Z"/><path class="cls-13" d="M25.85,32.07a5,5,0,0,0,1.61.69,3.54,3.54,0,0,0,.83.09,3,3,0,0,0,.79-.09,2.43,2.43,0,0,0,.71-.32c.22-.14.44-.26.68-.38l.75-.39.41-.2a3.74,3.74,0,0,1,.45-.2l.09.08a3,3,0,0,1-.14.49,4,4,0,0,1-.22.45,3.26,3.26,0,0,1-.65.77,2.41,2.41,0,0,1-.91.5,4.83,4.83,0,0,1-1,.17,3.93,3.93,0,0,1-1-.07,4.25,4.25,0,0,1-.94-.33,4.52,4.52,0,0,1-1.49-1.18Z"/><path class="cls-13" d="M24,35.28a4.52,4.52,0,0,1,1.76.7,4.24,4.24,0,0,1,.75.65,3.93,3.93,0,0,1,.57.85,4.85,4.85,0,0,1,.37,1,2.41,2.41,0,0,1,0,1,3.26,3.26,0,0,1-.34,1,4,4,0,0,1-.28.42,3,3,0,0,1-.36.37l-.11,0a3.72,3.72,0,0,1-.06-.49c0-.16,0-.31,0-.46l0-.84c0-.27,0-.52,0-.78a2.43,2.43,0,0,0-.08-.78,3,3,0,0,0-.31-.73,3.53,3.53,0,0,0-.5-.67,5,5,0,0,0-1.4-1Z"/><path class="cls-13" d="M70.26,35.4a5,5,0,0,0-1.4,1,3.53,3.53,0,0,0-.5.67,3,3,0,0,0-.31.73,2.43,2.43,0,0,0-.08.78c0,.26,0,.51,0,.78l0,.84c0,.15,0,.3,0,.46a3.75,3.75,0,0,1-.06.49l-.11,0a3,3,0,0,1-.36-.37,4,4,0,0,1-.28-.42,3.26,3.26,0,0,1-.34-1,2.41,2.41,0,0,1,0-1,4.84,4.84,0,0,1,.37-1,3.93,3.93,0,0,1,.57-.85,4.25,4.25,0,0,1,.75-.65,4.52,4.52,0,0,1,1.76-.7Z"/><path class="cls-13" d="M68.43,32.16a4.52,4.52,0,0,1-1.49,1.17,4.25,4.25,0,0,1-.94.33,3.93,3.93,0,0,1-1,.07,4.84,4.84,0,0,1-1-.17,2.41,2.41,0,0,1-.91-.5,3.26,3.26,0,0,1-.65-.77,4,4,0,0,1-.22-.45,3,3,0,0,1-.14-.49l.09-.08a3.74,3.74,0,0,1,.45.2l.41.2.75.39c.24.13.46.25.68.38a2.44,2.44,0,0,0,.71.32,3,3,0,0,0,.79.09,3.54,3.54,0,0,0,.83-.09,5,5,0,0,0,1.61-.69Z"/><path class="cls-13" d="M53.64,85.17a5.35,5.35,0,0,0-2.77-3.74,6.26,6.26,0,0,0-.64-.29,7.94,7.94,0,0,0-1.88-.44l-.45.09a6.29,6.29,0,0,1,2.07.59,4.71,4.71,0,0,1,1.24.86,4.63,4.63,0,0,1,.76,1,24,24,0,0,1-5.48.62c-1.47,0-2.94-.5-4.37-.62a4.49,4.49,0,0,1,1-1.18,4.77,4.77,0,0,1,1.25-.77,5.67,5.67,0,0,1,1.1-.35,3.53,3.53,0,0,1-.46-.1,7.49,7.49,0,0,0-.92.24,5.4,5.4,0,0,0-2.64,1.8,7.53,7.53,0,0,0-1.19,5.24c.21,3.11,1.35,7,4.17,8.76A4.55,4.55,0,0,0,49,97a8.27,8.27,0,0,0,3.08-3.59A13.21,13.21,0,0,0,53.64,85.17ZM50.73,95a4.44,4.44,0,0,1-3.91,1.92,5,5,0,0,1-3.41-2.37,11.4,11.4,0,0,0,7.84-.31A7.64,7.64,0,0,1,50.73,95Zm1.58-3.37c-3.56.89-6.8,1.77-10.22-.13l-.09,0a15.66,15.66,0,0,1-.4-1.76,11.38,11.38,0,0,0,4,.66,19,19,0,0,0,7.08-.81A15.26,15.26,0,0,1,52.31,91.66Zm.5-4.55a22.07,22.07,0,0,1-11.47.32q0-.56,0-1.12a7.89,7.89,0,0,1,.18-1.48,7.4,7.4,0,0,0,3.41,1,15.91,15.91,0,0,0,7.76-.65,9.34,9.34,0,0,1,.15,1.62C52.81,86.89,52.81,87,52.81,87.11Z"/></g></g></svg>