<svg xmlns="http://www.w3.org/2000/svg" xmlns:xlink="http://www.w3.org/1999/xlink" viewBox="0 0 750 1334"><defs><style>.cls-1{fill:none;}.cls-2{isolation:isolate;}.cls-3{fill:url(#radial-gradient);}.cls-4{opacity:0.7;}.cls-5{clip-path:url(#clip-path);}.cls-6{mix-blend-mode:soft-light;}.cls-7{fill:#fff;}.cls-8{fill:#ffdc7e;}.cls-9{fill:#fef2c0;}.cls-10{fill:#fd5;}.cls-11{fill:#fffbef;}</style><radialGradient id="radial-gradient" cx="385.36" cy="671" r="1084.05" gradientTransform="translate(147.36 267.35) scale(0.61)" gradientUnits="userSpaceOnUse"><stop offset="0" stop-color="#fff8da"/><stop offset="0.4" stop-color="#ffe264"/><stop offset="1" stop-color="#fc9200"/></radialGradient><clipPath id="clip-path"><rect class="cls-1" width="750" height="1334"/></clipPath></defs><title>Mobile bg full</title><g class="cls-2"><g id="Layer_1" data-name="Layer 1"><rect class="cls-3" width="750" height="1334"/><g class="cls-4"><g class="cls-5"><g class="cls-6"><rect class="cls-7" y="0.23" width="750" height="1335"/><polygon class="cls-8" points="768.01 64.01 782.68 89.42 768.01 114.83 738.67 114.83 724 89.42 738.67 64.01 768.01 64.01"/><polygon class="cls-9" points="768.01 118.27 782.68 143.68 768.01 169.09 738.67 169.09 724 143.68 738.67 118.27 768.01 118.27"/><polygon class="cls-8" points="768.01 9.74 782.68 35.15 768.01 60.56 738.67 60.56 724 35.15 738.67 9.74 768.01 9.74"/><polygon class="cls-8" points="720.72 90.93 735.39 116.34 720.72 141.75 691.38 141.75 676.71 116.34 691.38 90.93 720.72 90.93"/><polygon class="cls-8" points="720.72 36.66 735.39 62.07 720.72 87.48 691.38 87.48 676.71 62.07 691.38 36.66 720.72 36.66"/><polygon class="cls-10" points="768.01 172.54 782.68 197.95 768.01 223.36 738.67 223.36 724 197.95 738.67 172.54 768.01 172.54"/><polygon class="cls-8" points="768.01 226.81 782.68 252.22 768.01 277.63 738.67 277.63 724 252.22 738.67 226.81 768.01 226.81"/><polygon class="cls-11" points="720.72 199.46 735.39 224.87 720.72 250.28 691.38 250.28 676.71 224.87 691.38 199.46 720.72 199.46"/><polygon class="cls-9" points="720.72 145.19 735.39 170.6 720.72 196.01 691.38 196.01 676.71 170.6 691.38 145.19 720.72 145.19"/><polygon class="cls-9" points="768.01 281.07 782.68 306.48 768.01 331.89 738.67 331.89 724 306.48 738.67 281.07 768.01 281.07"/><polygon class="cls-11" points="768.01 335.33 782.68 360.75 768.01 386.15 738.67 386.15 724 360.75 738.67 335.33 768.01 335.33"/><polygon class="cls-7" points="720.72 307.99 735.39 333.4 720.72 358.81 691.38 358.81 676.71 333.4 691.38 307.99 720.72 307.99"/><polygon class="cls-7" points="720.72 253.72 735.39 279.13 720.72 304.54 691.38 304.54 676.71 279.13 691.38 253.72 720.72 253.72"/><polygon class="cls-9" points="768.01 498.14 782.68 523.55 768.01 548.96 738.67 548.96 724 523.55 738.67 498.14 768.01 498.14"/><polygon class="cls-11" points="768.01 552.4 782.68 577.82 768.01 603.23 738.67 603.23 724 577.82 738.67 552.4 768.01 552.4"/><polygon class="cls-7" points="768.01 443.87 782.68 469.28 768.01 494.69 738.67 494.69 724 469.28 738.67 443.87 768.01 443.87"/><polygon class="cls-11" points="720.72 525.06 735.39 550.47 720.72 575.88 691.38 575.88 676.71 550.47 691.38 525.06 720.72 525.06"/><polygon class="cls-11" points="720.72 470.79 735.39 496.2 720.72 521.61 691.38 521.61 676.71 496.2 691.38 470.79 720.72 470.79"/><polygon class="cls-11" points="768.01 606.67 782.68 632.08 768.01 657.49 738.67 657.49 724 632.08 738.67 606.67 768.01 606.67"/><polygon class="cls-8" points="768.01 660.94 782.68 686.35 768.01 711.76 738.67 711.76 724 686.35 738.67 660.94 768.01 660.94"/><polygon class="cls-9" points="720.72 633.59 735.39 659 720.72 684.41 691.38 684.41 676.71 659 691.38 633.59 720.72 633.59"/><polygon class="cls-9" points="720.72 579.33 735.39 604.74 720.72 630.15 691.38 630.15 676.71 604.74 691.38 579.33 720.72 579.33"/><polygon class="cls-9" points="768.01 715.2 782.68 740.61 768.01 766.02 738.67 766.02 724 740.61 738.67 715.2 768.01 715.2"/><polygon class="cls-9" points="768.01 769.47 782.68 794.88 768.01 820.29 738.67 820.29 724 794.88 738.67 769.47 768.01 769.47"/><polygon class="cls-9" points="720.72 742.12 735.39 767.53 720.72 792.94 691.38 792.94 676.71 767.53 691.38 742.12 720.72 742.12"/><polygon class="cls-9" points="720.72 687.85 735.39 713.26 720.72 738.67 691.38 738.67 676.71 713.26 691.38 687.85 720.72 687.85"/><polygon class="cls-9" points="768.01 389.6 782.68 415.01 768.01 440.42 738.67 440.42 724 415.01 738.67 389.6 768.01 389.6"/><polygon class="cls-7" points="720.72 416.52 735.39 441.93 720.72 467.34 691.38 467.34 676.71 441.93 691.38 416.52 720.72 416.52"/><polygon class="cls-7" points="720.72 362.25 735.39 387.66 720.72 413.07 691.38 413.07 676.71 387.66 691.38 362.25 720.72 362.25"/><polygon class="cls-8" points="673.44 64.01 688.11 89.42 673.44 114.83 644.1 114.83 629.43 89.42 644.1 64.01 673.44 64.01"/><polygon class="cls-7" points="673.44 118.27 688.11 143.68 673.44 169.09 644.1 169.09 629.43 143.68 644.1 118.27 673.44 118.27"/><polygon class="cls-8" points="673.44 9.74 688.11 35.15 673.44 60.56 644.1 60.56 629.43 35.15 644.1 9.74 673.44 9.74"/><polygon class="cls-9" points="626.14 90.93 640.81 116.34 626.14 141.75 596.8 141.75 582.13 116.34 596.8 90.93 626.14 90.93"/><polygon class="cls-7" points="626.14 36.66 640.81 62.07 626.14 87.48 596.8 87.48 582.13 62.07 596.8 36.66 626.14 36.66"/><polygon class="cls-11" points="673.44 172.54 688.11 197.95 673.44 223.36 644.1 223.36 629.43 197.95 644.1 172.54 673.44 172.54"/><polygon class="cls-11" points="673.44 226.81 688.11 252.22 673.44 277.63 644.1 277.63 629.43 252.22 644.1 226.81 673.44 226.81"/><polygon class="cls-7" points="626.14 199.46 640.81 224.87 626.14 250.28 596.8 250.28 582.13 224.87 596.8 199.46 626.14 199.46"/><polygon class="cls-7" points="626.14 145.19 640.81 170.6 626.14 196.01 596.8 196.01 582.13 170.6 596.8 145.19 626.14 145.19"/><polygon class="cls-11" points="673.44 281.07 688.11 306.48 673.44 331.89 644.1 331.89 629.43 306.48 644.1 281.07 673.44 281.07"/><polygon class="cls-11" points="673.44 335.33 688.11 360.75 673.44 386.15 644.1 386.15 629.43 360.75 644.1 335.33 673.44 335.33"/><polygon class="cls-7" points="626.14 307.99 640.81 333.4 626.14 358.81 596.8 358.81 582.13 333.4 596.8 307.99 626.14 307.99"/><polygon class="cls-7" points="626.14 253.72 640.81 279.13 626.14 304.54 596.8 304.54 582.13 279.13 596.8 253.72 626.14 253.72"/><polygon class="cls-7" points="673.44 498.14 688.11 523.55 673.44 548.96 644.1 548.96 629.43 523.55 644.1 498.14 673.44 498.14"/><polygon class="cls-7" points="673.44 552.4 688.11 577.82 673.44 603.23 644.1 603.23 629.43 577.82 644.1 552.4 673.44 552.4"/><polygon class="cls-7" points="673.44 443.87 688.11 469.28 673.44 494.69 644.1 494.69 629.43 469.28 644.1 443.87 673.44 443.87"/><polygon class="cls-7" points="626.14 525.06 640.81 550.47 626.14 575.88 596.8 575.88 582.13 550.47 596.8 525.06 626.14 525.06"/><polygon class="cls-7" points="626.14 470.79 640.81 496.2 626.14 521.61 596.8 521.61 582.13 496.2 596.8 470.79 626.14 470.79"/><polygon class="cls-9" points="673.44 606.67 688.11 632.08 673.44 657.49 644.1 657.49 629.43 632.08 644.1 606.67 673.44 606.67"/><polygon class="cls-9" points="673.44 660.94 688.11 686.35 673.44 711.76 644.1 711.76 629.43 686.35 644.1 660.94 673.44 660.94"/><polygon class="cls-7" points="626.14 633.59 640.81 659 626.14 684.41 596.8 684.41 582.13 659 596.8 633.59 626.14 633.59"/><polygon class="cls-11" points="626.14 579.33 640.81 604.74 626.14 630.15 596.8 630.15 582.13 604.74 596.8 579.33 626.14 579.33"/><polygon class="cls-9" points="673.44 715.2 688.11 740.61 673.44 766.02 644.1 766.02 629.43 740.61 644.1 715.2 673.44 715.2"/><polygon class="cls-7" points="673.44 769.47 688.11 794.88 673.44 820.29 644.1 820.29 629.43 794.88 644.1 769.47 673.44 769.47"/><polygon class="cls-7" points="626.14 742.12 640.81 767.53 626.14 792.94 596.8 792.94 582.13 767.53 596.8 742.12 626.14 742.12"/><polygon class="cls-7" points="626.14 687.85 640.81 713.26 626.14 738.67 596.8 738.67 582.13 713.26 596.8 687.85 626.14 687.85"/><polygon class="cls-7" points="673.44 389.6 688.11 415.01 673.44 440.42 644.1 440.42 629.43 415.01 644.1 389.6 673.44 389.6"/><polygon class="cls-7" points="626.14 416.52 640.81 441.93 626.14 467.34 596.8 467.34 582.13 441.93 596.8 416.52 626.14 416.52"/><polygon class="cls-7" points="626.14 362.25 640.81 387.66 626.14 413.07 596.8 413.07 582.13 387.66 596.8 362.25 626.14 362.25"/><polygon class="cls-7" points="578.85 64.01 593.52 89.42 578.85 114.83 549.5 114.83 534.83 89.42 549.5 64.01 578.85 64.01"/><polygon class="cls-9" points="578.85 118.27 593.52 143.68 578.85 169.09 549.5 169.09 534.83 143.68 549.5 118.27 578.85 118.27"/><polygon class="cls-7" points="578.85 9.74 593.52 35.15 578.85 60.56 549.5 60.56 534.83 35.15 549.5 9.74 578.85 9.74"/><polygon class="cls-10" points="531.55 90.93 546.22 116.34 531.55 141.75 502.21 141.75 487.54 116.34 502.21 90.93 531.55 90.93"/><polygon class="cls-7" points="531.55 36.66 546.22 62.07 531.55 87.48 502.21 87.48 487.54 62.07 502.21 36.66 531.55 36.66"/><polygon class="cls-7" points="578.85 172.54 593.52 197.95 578.85 223.36 549.5 223.36 534.83 197.95 549.5 172.54 578.85 172.54"/><polygon class="cls-7" points="578.85 226.81 593.52 252.22 578.85 277.63 549.5 277.63 534.83 252.22 549.5 226.81 578.85 226.81"/><polygon class="cls-7" points="531.55 199.46 546.22 224.87 531.55 250.28 502.21 250.28 487.54 224.87 502.21 199.46 531.55 199.46"/><polygon class="cls-9" points="531.55 145.19 546.22 170.6 531.55 196.01 502.21 196.01 487.54 170.6 502.21 145.19 531.55 145.19"/><polygon class="cls-7" points="578.85 281.07 593.52 306.48 578.85 331.89 549.5 331.89 534.83 306.48 549.5 281.07 578.85 281.07"/><polygon class="cls-7" points="578.85 335.33 593.52 360.75 578.85 386.15 549.5 386.15 534.83 360.75 549.5 335.33 578.85 335.33"/><polygon class="cls-7" points="531.55 307.99 546.22 333.4 531.55 358.81 502.21 358.81 487.54 333.4 502.21 307.99 531.55 307.99"/><polygon class="cls-7" points="531.55 253.72 546.22 279.13 531.55 304.54 502.21 304.54 487.54 279.13 502.21 253.72 531.55 253.72"/><polygon class="cls-7" points="578.85 498.14 593.52 523.55 578.85 548.96 549.5 548.96 534.83 523.55 549.5 498.14 578.85 498.14"/><polygon class="cls-7" points="578.85 552.4 593.52 577.82 578.85 603.23 549.5 603.23 534.83 577.82 549.5 552.4 578.85 552.4"/><polygon class="cls-7" points="578.85 443.87 593.52 469.28 578.85 494.69 549.5 494.69 534.83 469.28 549.5 443.87 578.85 443.87"/><polygon class="cls-7" points="531.55 525.06 546.22 550.47 531.55 575.88 502.21 575.88 487.54 550.47 502.21 525.06 531.55 525.06"/><polygon class="cls-7" points="531.55 470.79 546.22 496.2 531.55 521.61 502.21 521.61 487.54 496.2 502.21 470.79 531.55 470.79"/><polygon class="cls-11" points="578.85 606.67 593.52 632.08 578.85 657.49 549.5 657.49 534.83 632.08 549.5 606.67 578.85 606.67"/><polygon class="cls-7" points="578.85 660.94 593.52 686.35 578.85 711.76 549.5 711.76 534.83 686.35 549.5 660.94 578.85 660.94"/><polygon class="cls-7" points="531.55 633.59 546.22 659 531.55 684.41 502.21 684.41 487.54 659 502.21 633.59 531.55 633.59"/><polygon class="cls-7" points="531.55 579.33 546.22 604.74 531.55 630.15 502.21 630.15 487.54 604.74 502.21 579.33 531.55 579.33"/><polygon class="cls-7" points="578.85 715.2 593.52 740.61 578.85 766.02 549.5 766.02 534.83 740.61 549.5 715.2 578.85 715.2"/><polygon class="cls-7" points="578.85 769.47 593.52 794.88 578.85 820.29 549.5 820.29 534.83 794.88 549.5 769.47 578.85 769.47"/><polygon class="cls-7" points="531.55 742.12 546.22 767.53 531.55 792.94 502.21 792.94 487.54 767.53 502.21 742.12 531.55 742.12"/><polygon class="cls-7" points="531.55 687.85 546.22 713.26 531.55 738.67 502.21 738.67 487.54 713.26 502.21 687.85 531.55 687.85"/><polygon class="cls-7" points="578.85 389.6 593.52 415.01 578.85 440.42 549.5 440.42 534.83 415.01 549.5 389.6 578.85 389.6"/><polygon class="cls-7" points="531.55 416.52 546.22 441.93 531.55 467.34 502.21 467.34 487.54 441.93 502.21 416.52 531.55 416.52"/><polygon class="cls-7" points="531.55 362.25 546.22 387.66 531.55 413.07 502.21 413.07 487.54 387.66 502.21 362.25 531.55 362.25"/><polygon class="cls-9" points="484.25 64.01 498.93 89.42 484.25 114.83 454.91 114.83 440.24 89.42 454.91 64.01 484.25 64.01"/><polygon class="cls-9" points="484.25 118.27 498.93 143.68 484.25 169.09 454.91 169.09 440.24 143.68 454.91 118.27 484.25 118.27"/><polygon class="cls-7" points="484.25 9.74 498.93 35.15 484.25 60.56 454.91 60.56 440.24 35.15 454.91 9.74 484.25 9.74"/><polygon class="cls-10" points="436.96 90.93 451.63 116.34 436.96 141.75 407.62 141.75 392.94 116.34 407.62 90.93 436.96 90.93"/><polygon class="cls-9" points="436.96 36.66 451.63 62.07 436.96 87.48 407.62 87.48 392.94 62.07 407.62 36.66 436.96 36.66"/><polygon class="cls-7" points="484.25 172.54 498.93 197.95 484.25 223.36 454.91 223.36 440.24 197.95 454.91 172.54 484.25 172.54"/><polygon class="cls-7" points="484.25 226.81 498.93 252.22 484.25 277.63 454.91 277.63 440.24 252.22 454.91 226.81 484.25 226.81"/><polygon class="cls-7" points="436.96 199.46 451.63 224.87 436.96 250.28 407.62 250.28 392.94 224.87 407.62 199.46 436.96 199.46"/><polygon class="cls-7" points="436.96 145.19 451.63 170.6 436.96 196.01 407.62 196.01 392.94 170.6 407.62 145.19 436.96 145.19"/><polygon class="cls-7" points="484.25 281.07 498.93 306.48 484.25 331.89 454.91 331.89 440.24 306.48 454.91 281.07 484.25 281.07"/><polygon class="cls-7" points="484.25 335.33 498.93 360.75 484.25 386.15 454.91 386.15 440.24 360.75 454.91 335.33 484.25 335.33"/><polygon class="cls-7" points="436.96 307.99 451.63 333.4 436.96 358.81 407.62 358.81 392.94 333.4 407.62 307.99 436.96 307.99"/><polygon class="cls-7" points="436.96 253.72 451.63 279.13 436.96 304.54 407.62 304.54 392.94 279.13 407.62 253.72 436.96 253.72"/><polygon class="cls-7" points="484.25 498.14 498.93 523.55 484.25 548.96 454.91 548.96 440.24 523.55 454.91 498.14 484.25 498.14"/><polygon class="cls-7" points="484.25 552.4 498.93 577.82 484.25 603.23 454.91 603.23 440.24 577.82 454.91 552.4 484.25 552.4"/><polygon class="cls-7" points="484.25 443.87 498.93 469.28 484.25 494.69 454.91 494.69 440.24 469.28 454.91 443.87 484.25 443.87"/><polygon class="cls-7" points="436.96 525.06 451.63 550.47 436.96 575.88 407.62 575.88 392.94 550.47 407.62 525.06 436.96 525.06"/><polygon class="cls-7" points="436.96 470.79 451.63 496.2 436.96 521.61 407.62 521.61 392.94 496.2 407.62 470.79 436.96 470.79"/><polygon class="cls-7" points="484.25 606.67 498.93 632.08 484.25 657.49 454.91 657.49 440.24 632.08 454.91 606.67 484.25 606.67"/><polygon class="cls-7" points="484.25 660.94 498.93 686.35 484.25 711.76 454.91 711.76 440.24 686.35 454.91 660.94 484.25 660.94"/><polygon class="cls-7" points="436.96 633.59 451.63 659 436.96 684.41 407.62 684.41 392.94 659 407.62 633.59 436.96 633.59"/><polygon class="cls-7" points="436.96 579.33 451.63 604.74 436.96 630.15 407.62 630.15 392.94 604.74 407.62 579.33 436.96 579.33"/><polygon class="cls-7" points="484.25 715.2 498.93 740.61 484.25 766.02 454.91 766.02 440.24 740.61 454.91 715.2 484.25 715.2"/><polygon class="cls-7" points="484.25 769.47 498.93 794.88 484.25 820.29 454.91 820.29 440.24 794.88 454.91 769.47 484.25 769.47"/><polygon class="cls-7" points="436.96 742.12 451.63 767.53 436.96 792.94 407.62 792.94 392.94 767.53 407.62 742.12 436.96 742.12"/><polygon class="cls-7" points="436.96 687.85 451.63 713.26 436.96 738.67 407.62 738.67 392.94 713.26 407.62 687.85 436.96 687.85"/><polygon class="cls-7" points="484.25 389.6 498.93 415.01 484.25 440.42 454.91 440.42 440.24 415.01 454.91 389.6 484.25 389.6"/><polygon class="cls-7" points="436.96 416.52 451.63 441.93 436.96 467.34 407.62 467.34 392.94 441.93 407.62 416.52 436.96 416.52"/><polygon class="cls-7" points="436.96 362.25 451.63 387.66 436.96 413.07 407.62 413.07 392.94 387.66 407.62 362.25 436.96 362.25"/><polygon class="cls-10" points="389.66 64.01 404.33 89.42 389.66 114.83 360.32 114.83 345.65 89.42 360.32 64.01 389.66 64.01"/><polygon class="cls-7" points="389.66 118.27 404.33 143.68 389.66 169.09 360.32 169.09 345.65 143.68 360.32 118.27 389.66 118.27"/><polygon class="cls-7" points="389.66 9.74 404.33 35.15 389.66 60.56 360.32 60.56 345.65 35.15 360.32 9.74 389.66 9.74"/><polygon class="cls-9" points="342.36 90.93 357.04 116.34 342.36 141.75 313.02 141.75 298.35 116.34 313.02 90.93 342.36 90.93"/><polygon class="cls-7" points="342.36 36.66 357.04 62.07 342.36 87.48 313.02 87.48 298.35 62.07 313.02 36.66 342.36 36.66"/><polygon class="cls-7" points="389.66 172.54 404.33 197.95 389.66 223.36 360.32 223.36 345.65 197.95 360.32 172.54 389.66 172.54"/><polygon class="cls-7" points="389.66 226.81 404.33 252.22 389.66 277.63 360.32 277.63 345.65 252.22 360.32 226.81 389.66 226.81"/><polygon class="cls-7" points="342.36 199.46 357.04 224.87 342.36 250.28 313.02 250.28 298.35 224.87 313.02 199.46 342.36 199.46"/><polygon class="cls-7" points="342.36 145.19 357.04 170.6 342.36 196.01 313.02 196.01 298.35 170.6 313.02 145.19 342.36 145.19"/><polygon class="cls-7" points="389.66 281.07 404.33 306.48 389.66 331.89 360.32 331.89 345.65 306.48 360.32 281.07 389.66 281.07"/><polygon class="cls-7" points="389.66 335.33 404.33 360.75 389.66 386.15 360.32 386.15 345.65 360.75 360.32 335.33 389.66 335.33"/><polygon class="cls-7" points="342.36 307.99 357.04 333.4 342.36 358.81 313.02 358.81 298.35 333.4 313.02 307.99 342.36 307.99"/><polygon class="cls-7" points="342.36 253.72 357.04 279.13 342.36 304.54 313.02 304.54 298.35 279.13 313.02 253.72 342.36 253.72"/><polygon class="cls-7" points="389.66 498.14 404.33 523.55 389.66 548.96 360.32 548.96 345.65 523.55 360.32 498.14 389.66 498.14"/><polygon class="cls-7" points="389.66 552.4 404.33 577.82 389.66 603.23 360.32 603.23 345.65 577.82 360.32 552.4 389.66 552.4"/><polygon class="cls-7" points="389.66 443.87 404.33 469.28 389.66 494.69 360.32 494.69 345.65 469.28 360.32 443.87 389.66 443.87"/><polygon class="cls-7" points="342.36 525.06 357.04 550.47 342.36 575.88 313.02 575.88 298.35 550.47 313.02 525.06 342.36 525.06"/><polygon class="cls-7" points="342.36 470.79 357.04 496.2 342.36 521.61 313.02 521.61 298.35 496.2 313.02 470.79 342.36 470.79"/><polygon class="cls-7" points="389.66 606.67 404.33 632.08 389.66 657.49 360.32 657.49 345.65 632.08 360.32 606.67 389.66 606.67"/><polygon class="cls-7" points="389.66 660.94 404.33 686.35 389.66 711.76 360.32 711.76 345.65 686.35 360.32 660.94 389.66 660.94"/><polygon class="cls-7" points="342.36 633.59 357.04 659 342.36 684.41 313.02 684.41 298.35 659 313.02 633.59 342.36 633.59"/><polygon class="cls-7" points="342.36 579.33 357.04 604.74 342.36 630.15 313.02 630.15 298.35 604.74 313.02 579.33 342.36 579.33"/><polygon class="cls-7" points="389.66 715.2 404.33 740.61 389.66 766.02 360.32 766.02 345.65 740.61 360.32 715.2 389.66 715.2"/><polygon class="cls-7" points="389.66 769.47 404.33 794.88 389.66 820.29 360.32 820.29 345.65 794.88 360.32 769.47 389.66 769.47"/><polygon class="cls-7" points="342.36 742.12 357.04 767.53 342.36 792.94 313.02 792.94 298.35 767.53 313.02 742.12 342.36 742.12"/><polygon class="cls-7" points="342.36 687.85 357.04 713.26 342.36 738.67 313.02 738.67 298.35 713.26 313.02 687.85 342.36 687.85"/><polygon class="cls-7" points="389.66 389.6 404.33 415.01 389.66 440.42 360.32 440.42 345.65 415.01 360.32 389.6 389.66 389.6"/><polygon class="cls-7" points="342.36 416.52 357.04 441.93 342.36 467.34 313.02 467.34 298.35 441.93 313.02 416.52 342.36 416.52"/><polygon class="cls-7" points="342.36 362.25 357.04 387.66 342.36 413.07 313.02 413.07 298.35 387.66 313.02 362.25 342.36 362.25"/><polygon class="cls-7" points="295.09 64.01 309.76 89.42 295.09 114.83 265.75 114.83 251.07 89.42 265.75 64.01 295.09 64.01"/><polygon class="cls-7" points="295.09 118.27 309.76 143.68 295.09 169.09 265.75 169.09 251.07 143.68 265.75 118.27 295.09 118.27"/><polygon class="cls-7" points="295.09 9.74 309.76 35.15 295.09 60.56 265.75 60.56 251.07 35.15 265.75 9.74 295.09 9.74"/><polygon class="cls-7" points="247.79 90.93 262.46 116.34 247.79 141.75 218.45 141.75 203.78 116.34 218.45 90.93 247.79 90.93"/><polygon class="cls-7" points="247.79 36.66 262.46 62.07 247.79 87.48 218.45 87.48 203.78 62.07 218.45 36.66 247.79 36.66"/><polygon class="cls-7" points="295.09 172.54 309.76 197.95 295.09 223.36 265.75 223.36 251.07 197.95 265.75 172.54 295.09 172.54"/><polygon class="cls-7" points="295.09 226.81 309.76 252.22 295.09 277.63 265.75 277.63 251.07 252.22 265.75 226.81 295.09 226.81"/><polygon class="cls-7" points="247.79 199.46 262.46 224.87 247.79 250.28 218.45 250.28 203.78 224.87 218.45 199.46 247.79 199.46"/><polygon class="cls-11" points="247.79 145.19 262.46 170.6 247.79 196.01 218.45 196.01 203.78 170.6 218.45 145.19 247.79 145.19"/><polygon class="cls-7" points="295.09 281.07 309.76 306.48 295.09 331.89 265.75 331.89 251.07 306.48 265.75 281.07 295.09 281.07"/><polygon class="cls-7" points="295.09 335.33 309.76 360.75 295.09 386.15 265.75 386.15 251.07 360.75 265.75 335.33 295.09 335.33"/><polygon class="cls-7" points="247.79 307.99 262.46 333.4 247.79 358.81 218.45 358.81 203.78 333.4 218.45 307.99 247.79 307.99"/><polygon class="cls-7" points="247.79 253.72 262.46 279.13 247.79 304.54 218.45 304.54 203.78 279.13 218.45 253.72 247.79 253.72"/><polygon class="cls-7" points="295.09 498.14 309.76 523.55 295.09 548.96 265.75 548.96 251.07 523.55 265.75 498.14 295.09 498.14"/><polygon class="cls-7" points="295.09 552.4 309.76 577.82 295.09 603.23 265.75 603.23 251.07 577.82 265.75 552.4 295.09 552.4"/><polygon class="cls-7" points="295.09 443.87 309.76 469.28 295.09 494.69 265.75 494.69 251.07 469.28 265.75 443.87 295.09 443.87"/><polygon class="cls-11" points="247.79 525.06 262.46 550.47 247.79 575.88 218.45 575.88 203.78 550.47 218.45 525.06 247.79 525.06"/><polygon class="cls-7" points="247.79 470.79 262.46 496.2 247.79 521.61 218.45 521.61 203.78 496.2 218.45 470.79 247.79 470.79"/><polygon class="cls-7" points="295.09 606.67 309.76 632.08 295.09 657.49 265.75 657.49 251.07 632.08 265.75 606.67 295.09 606.67"/><polygon class="cls-7" points="295.09 660.94 309.76 686.35 295.09 711.76 265.75 711.76 251.07 686.35 265.75 660.94 295.09 660.94"/><polygon class="cls-7" points="247.79 633.59 262.46 659 247.79 684.41 218.45 684.41 203.78 659 218.45 633.59 247.79 633.59"/><polygon class="cls-11" points="247.79 579.33 262.46 604.74 247.79 630.15 218.45 630.15 203.78 604.74 218.45 579.33 247.79 579.33"/><polygon class="cls-7" points="295.09 715.2 309.76 740.61 295.09 766.02 265.75 766.02 251.07 740.61 265.75 715.2 295.09 715.2"/><polygon class="cls-7" points="295.09 769.47 309.76 794.88 295.09 820.29 265.75 820.29 251.07 794.88 265.75 769.47 295.09 769.47"/><polygon class="cls-7" points="247.79 742.12 262.46 767.53 247.79 792.94 218.45 792.94 203.78 767.53 218.45 742.12 247.79 742.12"/><polygon class="cls-7" points="247.79 687.85 262.46 713.26 247.79 738.67 218.45 738.67 203.78 713.26 218.45 687.85 247.79 687.85"/><polygon class="cls-7" points="295.09 389.6 309.76 415.01 295.09 440.42 265.75 440.42 251.07 415.01 265.75 389.6 295.09 389.6"/><polygon class="cls-7" points="247.79 416.52 262.46 441.93 247.79 467.34 218.45 467.34 203.78 441.93 218.45 416.52 247.79 416.52"/><polygon class="cls-7" points="247.79 362.25 262.46 387.66 247.79 413.07 218.45 413.07 203.78 387.66 218.45 362.25 247.79 362.25"/><polygon class="cls-11" points="200.49 64.01 215.16 89.42 200.49 114.83 171.15 114.83 156.48 89.42 171.15 64.01 200.49 64.01"/><polygon class="cls-11" points="200.49 118.27 215.16 143.68 200.49 169.09 171.15 169.09 156.48 143.68 171.15 118.27 200.49 118.27"/><polygon class="cls-7" points="200.49 9.74 215.16 35.15 200.49 60.56 171.15 60.56 156.48 35.15 171.15 9.74 200.49 9.74"/><polygon class="cls-7" points="153.2 90.93 167.87 116.34 153.2 141.75 123.86 141.75 109.18 116.34 123.86 90.93 153.2 90.93"/><polygon class="cls-7" points="153.2 36.66 167.87 62.07 153.2 87.48 123.86 87.48 109.18 62.07 123.86 36.66 153.2 36.66"/><polygon class="cls-7" points="200.49 172.54 215.16 197.95 200.49 223.36 171.15 223.36 156.48 197.95 171.15 172.54 200.49 172.54"/><polygon class="cls-7" points="200.49 226.81 215.16 252.22 200.49 277.63 171.15 277.63 156.48 252.22 171.15 226.81 200.49 226.81"/><polygon class="cls-7" points="153.2 199.46 167.87 224.87 153.2 250.28 123.86 250.28 109.18 224.87 123.86 199.46 153.2 199.46"/><polygon class="cls-7" points="153.2 145.19 167.87 170.6 153.2 196.01 123.86 196.01 109.18 170.6 123.86 145.19 153.2 145.19"/><polygon class="cls-7" points="200.49 281.07 215.16 306.48 200.49 331.89 171.15 331.89 156.48 306.48 171.15 281.07 200.49 281.07"/><polygon class="cls-7" points="200.49 335.33 215.16 360.75 200.49 386.15 171.15 386.15 156.48 360.75 171.15 335.33 200.49 335.33"/><polygon class="cls-7" points="153.2 307.99 167.87 333.4 153.2 358.81 123.86 358.81 109.18 333.4 123.86 307.99 153.2 307.99"/><polygon class="cls-7" points="153.2 253.72 167.87 279.13 153.2 304.54 123.86 304.54 109.18 279.13 123.86 253.72 153.2 253.72"/><polygon class="cls-11" points="200.49 498.14 215.16 523.55 200.49 548.96 171.15 548.96 156.48 523.55 171.15 498.14 200.49 498.14"/><polygon class="cls-11" points="200.49 552.4 215.16 577.82 200.49 603.23 171.15 603.23 156.48 577.82 171.15 552.4 200.49 552.4"/><polygon class="cls-11" points="200.49 443.87 215.16 469.28 200.49 494.69 171.15 494.69 156.48 469.28 171.15 443.87 200.49 443.87"/><polygon class="cls-11" points="153.2 525.06 167.87 550.47 153.2 575.88 123.86 575.88 109.18 550.47 123.86 525.06 153.2 525.06"/><polygon class="cls-11" points="153.2 470.79 167.87 496.2 153.2 521.61 123.86 521.61 109.18 496.2 123.86 470.79 153.2 470.79"/><polygon class="cls-11" points="200.49 606.67 215.16 632.08 200.49 657.49 171.15 657.49 156.48 632.08 171.15 606.67 200.49 606.67"/><polygon class="cls-7" points="200.49 660.94 215.16 686.35 200.49 711.76 171.15 711.76 156.48 686.35 171.15 660.94 200.49 660.94"/><polygon class="cls-7" points="153.2 633.59 167.87 659 153.2 684.41 123.86 684.41 109.18 659 123.86 633.59 153.2 633.59"/><polygon class="cls-7" points="153.2 579.33 167.87 604.74 153.2 630.15 123.86 630.15 109.18 604.74 123.86 579.33 153.2 579.33"/><polygon class="cls-7" points="200.49 715.2 215.16 740.61 200.49 766.02 171.15 766.02 156.48 740.61 171.15 715.2 200.49 715.2"/><polygon class="cls-7" points="200.49 769.47 215.16 794.88 200.49 820.29 171.15 820.29 156.48 794.88 171.15 769.47 200.49 769.47"/><polygon class="cls-9" points="153.2 742.12 167.87 767.53 153.2 792.94 123.86 792.94 109.18 767.53 123.86 742.12 153.2 742.12"/><polygon class="cls-9" points="153.2 687.85 167.87 713.26 153.2 738.67 123.86 738.67 109.18 713.26 123.86 687.85 153.2 687.85"/><polygon class="cls-7" points="200.49 389.6 215.16 415.01 200.49 440.42 171.15 440.42 156.48 415.01 171.15 389.6 200.49 389.6"/><polygon class="cls-11" points="153.2 416.52 167.87 441.93 153.2 467.34 123.86 467.34 109.18 441.93 123.86 416.52 153.2 416.52"/><polygon class="cls-7" points="153.2 362.25 167.87 387.66 153.2 413.07 123.86 413.07 109.18 387.66 123.86 362.25 153.2 362.25"/><polygon class="cls-7" points="105.9 64.01 120.57 89.42 105.9 114.83 76.56 114.83 61.89 89.42 76.56 64.01 105.9 64.01"/><polygon class="cls-10" points="105.9 118.27 120.57 143.68 105.9 169.09 76.56 169.09 61.89 143.68 76.56 118.27 105.9 118.27"/><polygon class="cls-7" points="105.9 9.74 120.57 35.15 105.9 60.56 76.56 60.56 61.89 35.15 76.56 9.74 105.9 9.74"/><polygon class="cls-9" points="58.61 90.93 73.28 116.34 58.61 141.75 29.27 141.75 14.6 116.34 29.27 90.93 58.61 90.93"/><polygon class="cls-7" points="58.61 36.66 73.28 62.07 58.61 87.48 29.27 87.48 14.6 62.07 29.27 36.66 58.61 36.66"/><polygon class="cls-7" points="105.9 172.54 120.57 197.95 105.9 223.36 76.56 223.36 61.89 197.95 76.56 172.54 105.9 172.54"/><polygon class="cls-7" points="105.9 226.81 120.57 252.22 105.9 277.63 76.56 277.63 61.89 252.22 76.56 226.81 105.9 226.81"/><polygon class="cls-9" points="58.61 199.46 73.28 224.87 58.61 250.28 29.27 250.28 14.6 224.87 29.27 199.46 58.61 199.46"/><polygon class="cls-10" points="58.61 145.19 73.28 170.6 58.61 196.01 29.27 196.01 14.6 170.6 29.27 145.19 58.61 145.19"/><polygon class="cls-9" points="105.9 281.07 120.57 306.48 105.9 331.89 76.56 331.89 61.89 306.48 76.56 281.07 105.9 281.07"/><polygon class="cls-7" points="105.9 335.33 120.57 360.75 105.9 386.15 76.56 386.15 61.89 360.75 76.56 335.33 105.9 335.33"/><polygon class="cls-9" points="58.61 307.99 73.28 333.4 58.61 358.81 29.27 358.81 14.6 333.4 29.27 307.99 58.61 307.99"/><polygon class="cls-7" points="58.61 253.72 73.28 279.13 58.61 304.54 29.27 304.54 14.6 279.13 29.27 253.72 58.61 253.72"/><polygon class="cls-7" points="105.9 498.14 120.57 523.55 105.9 548.96 76.56 548.96 61.89 523.55 76.56 498.14 105.9 498.14"/><polygon class="cls-7" points="105.9 552.4 120.57 577.82 105.9 603.23 76.56 603.23 61.89 577.82 76.56 552.4 105.9 552.4"/><polygon class="cls-7" points="105.9 443.87 120.57 469.28 105.9 494.69 76.56 494.69 61.89 469.28 76.56 443.87 105.9 443.87"/><polygon class="cls-8" points="58.61 525.06 73.28 550.47 58.61 575.88 29.27 575.88 14.6 550.47 29.27 525.06 58.61 525.06"/><polygon class="cls-9" points="58.61 470.79 73.28 496.2 58.61 521.61 29.27 521.61 14.6 496.2 29.27 470.79 58.61 470.79"/><polygon class="cls-7" points="105.9 606.67 120.57 632.08 105.9 657.49 76.56 657.49 61.89 632.08 76.56 606.67 105.9 606.67"/><polygon class="cls-9" points="105.9 660.94 120.57 686.35 105.9 711.76 76.56 711.76 61.89 686.35 76.56 660.94 105.9 660.94"/><polygon class="cls-7" points="58.61 633.59 73.28 659 58.61 684.41 29.27 684.41 14.6 659 29.27 633.59 58.61 633.59"/><polygon class="cls-8" points="58.61 579.33 73.28 604.74 58.61 630.15 29.27 630.15 14.6 604.74 29.27 579.33 58.61 579.33"/><polygon class="cls-9" points="105.9 715.2 120.57 740.61 105.9 766.02 76.56 766.02 61.89 740.61 76.56 715.2 105.9 715.2"/><polygon class="cls-7" points="105.9 769.47 120.57 794.88 105.9 820.29 76.56 820.29 61.89 794.88 76.56 769.47 105.9 769.47"/><polygon class="cls-7" points="58.61 742.12 73.28 767.53 58.61 792.94 29.27 792.94 14.6 767.53 29.27 742.12 58.61 742.12"/><polygon class="cls-9" points="58.61 687.85 73.28 713.26 58.61 738.67 29.27 738.67 14.6 713.26 29.27 687.85 58.61 687.85"/><polygon class="cls-7" points="105.9 389.6 120.57 415.01 105.9 440.42 76.56 440.42 61.89 415.01 76.56 389.6 105.9 389.6"/><polygon class="cls-7" points="58.61 416.52 73.28 441.93 58.61 467.34 29.27 467.34 14.6 441.93 29.27 416.52 58.61 416.52"/><polygon class="cls-7" points="58.61 362.25 73.28 387.66 58.61 413.07 29.27 413.07 14.6 387.66 29.27 362.25 58.61 362.25"/><polygon class="cls-8" points="11.31 64.01 25.98 89.42 11.31 114.83 -18.03 114.83 -32.7 89.42 -18.03 64.01 11.31 64.01"/><polygon class="cls-9" points="11.31 118.27 25.98 143.68 11.31 169.09 -18.03 169.09 -32.7 143.68 -18.03 118.27 11.31 118.27"/><polygon class="cls-7" points="11.31 9.74 25.98 35.15 11.31 60.56 -18.03 60.56 -32.7 35.15 -18.03 9.74 11.31 9.74"/><polygon class="cls-9" points="11.31 172.54 25.98 197.95 11.31 223.36 -18.03 223.36 -32.7 197.95 -18.03 172.54 11.31 172.54"/><polygon class="cls-7" points="11.31 226.81 25.98 252.22 11.31 277.63 -18.03 277.63 -32.7 252.22 -18.03 226.81 11.31 226.81"/><polygon class="cls-8" points="11.31 281.07 25.98 306.48 11.31 331.89 -18.03 331.89 -32.7 306.48 -18.03 281.07 11.31 281.07"/><polygon class="cls-9" points="11.31 335.33 25.98 360.75 11.31 386.15 -18.03 386.15 -32.7 360.75 -18.03 335.33 11.31 335.33"/><polygon class="cls-9" points="11.31 498.14 25.98 523.55 11.31 548.96 -18.03 548.96 -32.7 523.55 -18.03 498.14 11.31 498.14"/><polygon class="cls-10" points="11.31 552.4 25.98 577.82 11.31 603.23 -18.03 603.23 -32.7 577.82 -18.03 552.4 11.31 552.4"/><polygon class="cls-9" points="11.31 443.87 25.98 469.28 11.31 494.69 -18.03 494.69 -32.7 469.28 -18.03 443.87 11.31 443.87"/><polygon class="cls-8" points="11.31 606.67 25.98 632.08 11.31 657.49 -18.03 657.49 -32.7 632.08 -18.03 606.67 11.31 606.67"/><polygon class="cls-8" points="11.31 660.94 25.98 686.35 11.31 711.76 -18.03 711.76 -32.7 686.35 -18.03 660.94 11.31 660.94"/><polygon class="cls-9" points="11.31 715.2 25.98 740.61 11.31 766.02 -18.03 766.02 -32.7 740.61 -18.03 715.2 11.31 715.2"/><polygon class="cls-7" points="11.31 769.47 25.98 794.88 11.31 820.29 -18.03 820.29 -32.7 794.88 -18.03 769.47 11.31 769.47"/><polygon class="cls-8" points="11.31 389.6 25.98 415.01 11.31 440.42 -18.03 440.42 -32.7 415.01 -18.03 389.6 11.31 389.6"/><polygon class="cls-11" points="-18.03 1363.01 -32.7 1337.6 -18.03 1312.19 11.31 1312.19 25.98 1337.6 11.31 1363.01 -18.03 1363.01"/><polygon class="cls-7" points="-18.03 1254.49 -32.7 1229.08 -18.03 1203.67 11.31 1203.67 25.98 1229.08 11.31 1254.49 -18.03 1254.49"/><polygon class="cls-7" points="-18.03 1308.75 -32.7 1283.34 -18.03 1257.93 11.31 1257.93 25.98 1283.34 11.31 1308.75 -18.03 1308.75"/><polygon class="cls-11" points="-18.03 1037.41 -32.7 1012 -18.03 986.59 11.31 986.59 25.98 1012 11.31 1037.41 -18.03 1037.41"/><polygon class="cls-11" points="-18.03 1091.68 -32.7 1066.27 -18.03 1040.86 11.31 1040.86 25.98 1066.27 11.31 1091.68 -18.03 1091.68"/><polygon class="cls-9" points="-18.03 928.88 -32.7 903.47 -18.03 878.06 11.31 878.06 25.98 903.47 11.31 928.88 -18.03 928.88"/><polygon class="cls-9" points="-18.03 983.15 -32.7 957.74 -18.03 932.33 11.31 932.33 25.98 957.74 11.31 983.15 -18.03 983.15"/><polygon class="cls-9" points="-18.03 820.36 -32.7 794.95 -18.03 769.53 11.31 769.53 25.98 794.95 11.31 820.36 -18.03 820.36"/><polygon class="cls-9" points="-18.03 874.62 -32.7 849.21 -18.03 823.8 11.31 823.8 25.98 849.21 11.31 874.62 -18.03 874.62"/><polygon class="cls-7" points="-18.03 1145.95 -32.7 1120.54 -18.03 1095.13 11.31 1095.13 25.98 1120.54 11.31 1145.95 -18.03 1145.95"/><polygon class="cls-7" points="-18.03 1200.22 -32.7 1174.81 -18.03 1149.4 11.31 1149.4 25.98 1174.81 11.31 1200.22 -18.03 1200.22"/><polygon class="cls-11" points="29.25 1335.66 14.58 1310.25 29.25 1284.84 58.59 1284.84 73.26 1310.25 58.59 1335.66 29.25 1335.66"/><polygon class="cls-7" points="76.54 1363.01 61.87 1337.6 76.54 1312.19 105.89 1312.19 120.56 1337.6 105.89 1363.01 76.54 1363.01"/><polygon class="cls-11" points="29.25 1281.41 14.58 1255.99 29.25 1230.59 58.59 1230.59 73.26 1255.99 58.59 1281.41 29.25 1281.41"/><polygon class="cls-11" points="29.25 1227.14 14.58 1201.73 29.25 1176.32 58.59 1176.32 73.26 1201.73 58.59 1227.14 29.25 1227.14"/><polygon class="cls-7" points="76.54 1254.49 61.87 1229.08 76.54 1203.67 105.89 1203.67 120.56 1229.08 105.89 1254.49 76.54 1254.49"/><polygon class="cls-7" points="76.54 1308.75 61.87 1283.34 76.54 1257.93 105.89 1257.93 120.56 1283.34 105.89 1308.75 76.54 1308.75"/><polygon class="cls-7" points="29.25 1064.34 14.58 1038.92 29.25 1013.51 58.59 1013.51 73.26 1038.92 58.59 1064.34 29.25 1064.34"/><polygon class="cls-7" points="29.25 1010.07 14.58 984.66 29.25 959.25 58.59 959.25 73.26 984.66 58.59 1010.07 29.25 1010.07"/><polygon class="cls-7" points="29.25 1118.6 14.58 1093.19 29.25 1067.78 58.59 1067.78 73.26 1093.19 58.59 1118.6 29.25 1118.6"/><polygon class="cls-7" points="76.54 1037.41 61.87 1012 76.54 986.59 105.89 986.59 120.56 1012 105.89 1037.41 76.54 1037.41"/><polygon class="cls-7" points="76.54 1091.68 61.87 1066.27 76.54 1040.86 105.89 1040.86 120.56 1066.27 105.89 1091.68 76.54 1091.68"/><polygon class="cls-9" points="29.25 955.8 14.58 930.39 29.25 904.98 58.59 904.98 73.26 930.39 58.59 955.8 29.25 955.8"/><polygon class="cls-9" points="29.25 901.53 14.58 876.12 29.25 850.71 58.59 850.71 73.26 876.12 58.59 901.53 29.25 901.53"/><polygon class="cls-7" points="76.54 928.88 61.87 903.47 76.54 878.06 105.89 878.06 120.56 903.47 105.89 928.88 76.54 928.88"/><polygon class="cls-11" points="76.54 983.15 61.87 957.74 76.54 932.33 105.89 932.33 120.56 957.74 105.89 983.15 76.54 983.15"/><polygon class="cls-9" points="29.25 847.27 14.58 821.86 29.25 796.45 58.59 796.45 73.26 821.86 58.59 847.27 29.25 847.27"/><polygon class="cls-7" points="29.25 793.01 14.58 767.6 29.25 742.19 58.59 742.19 73.26 767.6 58.59 793.01 29.25 793.01"/><polygon class="cls-7" points="76.54 820.36 61.87 794.95 76.54 769.53 105.89 769.53 120.56 794.95 105.89 820.36 76.54 820.36"/><polygon class="cls-7" points="76.54 874.62 61.87 849.21 76.54 823.8 105.89 823.8 120.56 849.21 105.89 874.62 76.54 874.62"/><polygon class="cls-7" points="29.25 1172.87 14.58 1147.46 29.25 1122.05 58.59 1122.05 73.26 1147.46 58.59 1172.87 29.25 1172.87"/><polygon class="cls-7" points="76.54 1145.95 61.87 1120.54 76.54 1095.13 105.89 1095.13 120.56 1120.54 105.89 1145.95 76.54 1145.95"/><polygon class="cls-7" points="76.54 1200.22 61.87 1174.81 76.54 1149.4 105.89 1149.4 120.56 1174.81 105.89 1200.22 76.54 1200.22"/><polygon class="cls-7" points="123.84 1335.66 109.17 1310.25 123.84 1284.84 153.18 1284.84 167.85 1310.25 153.18 1335.66 123.84 1335.66"/><polygon class="cls-7" points="171.14 1363.01 156.47 1337.6 171.14 1312.19 200.48 1312.19 215.15 1337.6 200.48 1363.01 171.14 1363.01"/><polygon class="cls-7" points="123.84 1281.41 109.17 1255.99 123.84 1230.59 153.18 1230.59 167.85 1255.99 153.18 1281.41 123.84 1281.41"/><polygon class="cls-7" points="123.84 1227.14 109.17 1201.73 123.84 1176.32 153.18 1176.32 167.85 1201.73 153.18 1227.14 123.84 1227.14"/><polygon class="cls-7" points="171.14 1254.49 156.47 1229.08 171.14 1203.67 200.48 1203.67 215.15 1229.08 200.48 1254.49 171.14 1254.49"/><polygon class="cls-7" points="171.14 1308.75 156.47 1283.34 171.14 1257.93 200.48 1257.93 215.15 1283.34 200.48 1308.75 171.14 1308.75"/><polygon class="cls-7" points="123.84 1064.34 109.17 1038.92 123.84 1013.51 153.18 1013.51 167.85 1038.92 153.18 1064.34 123.84 1064.34"/><polygon class="cls-7" points="123.84 1010.07 109.17 984.66 123.84 959.25 153.18 959.25 167.85 984.66 153.18 1010.07 123.84 1010.07"/><polygon class="cls-7" points="123.84 1118.6 109.17 1093.19 123.84 1067.78 153.18 1067.78 167.85 1093.19 153.18 1118.6 123.84 1118.6"/><polygon class="cls-7" points="171.14 1037.41 156.47 1012 171.14 986.59 200.48 986.59 215.15 1012 200.48 1037.41 171.14 1037.41"/><polygon class="cls-7" points="171.14 1091.68 156.47 1066.27 171.14 1040.86 200.48 1040.86 215.15 1066.27 200.48 1091.68 171.14 1091.68"/><polygon class="cls-11" points="123.84 955.8 109.17 930.39 123.84 904.98 153.18 904.98 167.85 930.39 153.18 955.8 123.84 955.8"/><polygon class="cls-7" points="123.84 901.53 109.17 876.12 123.84 850.71 153.18 850.71 167.85 876.12 153.18 901.53 123.84 901.53"/><polygon class="cls-7" points="171.14 928.88 156.47 903.47 171.14 878.06 200.48 878.06 215.15 903.47 200.48 928.88 171.14 928.88"/><polygon class="cls-7" points="171.14 983.15 156.47 957.74 171.14 932.33 200.48 932.33 215.15 957.74 200.48 983.15 171.14 983.15"/><polygon class="cls-7" points="123.84 847.27 109.17 821.86 123.84 796.45 153.18 796.45 167.85 821.86 153.18 847.27 123.84 847.27"/><polygon class="cls-7" points="123.84 793.01 109.17 767.6 123.84 742.19 153.18 742.19 167.85 767.6 153.18 793.01 123.84 793.01"/><polygon class="cls-7" points="171.14 820.36 156.47 794.95 171.14 769.53 200.48 769.53 215.15 794.95 200.48 820.36 171.14 820.36"/><polygon class="cls-7" points="171.14 874.62 156.47 849.21 171.14 823.8 200.48 823.8 215.15 849.21 200.48 874.62 171.14 874.62"/><polygon class="cls-7" points="123.84 1172.87 109.17 1147.46 123.84 1122.05 153.18 1122.05 167.85 1147.46 153.18 1172.87 123.84 1172.87"/><polygon class="cls-7" points="171.14 1145.95 156.47 1120.54 171.14 1095.13 200.48 1095.13 215.15 1120.54 200.48 1145.95 171.14 1145.95"/><polygon class="cls-7" points="171.14 1200.22 156.47 1174.81 171.14 1149.4 200.48 1149.4 215.15 1174.81 200.48 1200.22 171.14 1200.22"/><polygon class="cls-7" points="218.43 1335.66 203.76 1310.25 218.43 1284.84 247.77 1284.84 262.44 1310.25 247.77 1335.66 218.43 1335.66"/><polygon class="cls-7" points="265.73 1363.01 251.06 1337.6 265.73 1312.19 295.07 1312.19 309.74 1337.6 295.07 1363.01 265.73 1363.01"/><polygon class="cls-7" points="218.43 1281.41 203.76 1255.99 218.43 1230.59 247.77 1230.59 262.44 1255.99 247.77 1281.41 218.43 1281.41"/><polygon class="cls-7" points="218.43 1227.14 203.76 1201.73 218.43 1176.32 247.77 1176.32 262.44 1201.73 247.77 1227.14 218.43 1227.14"/><polygon class="cls-7" points="265.73 1254.49 251.06 1229.08 265.73 1203.67 295.07 1203.67 309.74 1229.08 295.07 1254.49 265.73 1254.49"/><polygon class="cls-7" points="265.73 1308.75 251.06 1283.34 265.73 1257.93 295.07 1257.93 309.74 1283.34 295.07 1308.75 265.73 1308.75"/><polygon class="cls-7" points="218.43 1064.34 203.76 1038.92 218.43 1013.51 247.77 1013.51 262.44 1038.92 247.77 1064.34 218.43 1064.34"/><polygon class="cls-7" points="218.43 1010.07 203.76 984.66 218.43 959.25 247.77 959.25 262.44 984.66 247.77 1010.07 218.43 1010.07"/><polygon class="cls-7" points="218.43 1118.6 203.76 1093.19 218.43 1067.78 247.77 1067.78 262.44 1093.19 247.77 1118.6 218.43 1118.6"/><polygon class="cls-7" points="265.73 1037.41 251.06 1012 265.73 986.59 295.07 986.59 309.74 1012 295.07 1037.41 265.73 1037.41"/><polygon class="cls-7" points="265.73 1091.68 251.06 1066.27 265.73 1040.86 295.07 1040.86 309.74 1066.27 295.07 1091.68 265.73 1091.68"/><polygon class="cls-7" points="218.43 955.8 203.76 930.39 218.43 904.98 247.77 904.98 262.44 930.39 247.77 955.8 218.43 955.8"/><polygon class="cls-7" points="218.43 901.53 203.76 876.12 218.43 850.71 247.77 850.71 262.44 876.12 247.77 901.53 218.43 901.53"/><polygon class="cls-7" points="265.73 928.88 251.06 903.47 265.73 878.06 295.07 878.06 309.74 903.47 295.07 928.88 265.73 928.88"/><polygon class="cls-7" points="265.73 983.15 251.06 957.74 265.73 932.33 295.07 932.33 309.74 957.74 295.07 983.15 265.73 983.15"/><polygon class="cls-7" points="218.43 847.27 203.76 821.86 218.43 796.45 247.77 796.45 262.44 821.86 247.77 847.27 218.43 847.27"/><polygon class="cls-7" points="218.43 793.01 203.76 767.6 218.43 742.19 247.77 742.19 262.44 767.6 247.77 793.01 218.43 793.01"/><polygon class="cls-7" points="265.73 820.36 251.06 794.95 265.73 769.53 295.07 769.53 309.74 794.95 295.07 820.36 265.73 820.36"/><polygon class="cls-7" points="265.73 874.62 251.06 849.21 265.73 823.8 295.07 823.8 309.74 849.21 295.07 874.62 265.73 874.62"/><polygon class="cls-7" points="218.43 1172.87 203.76 1147.46 218.43 1122.05 247.77 1122.05 262.44 1147.46 247.77 1172.87 218.43 1172.87"/><polygon class="cls-7" points="265.73 1145.95 251.06 1120.54 265.73 1095.13 295.07 1095.13 309.74 1120.54 295.07 1145.95 265.73 1145.95"/><polygon class="cls-7" points="265.73 1200.22 251.06 1174.81 265.73 1149.4 295.07 1149.4 309.74 1174.81 295.07 1200.22 265.73 1200.22"/><polygon class="cls-7" points="313.02 1335.66 298.35 1310.25 313.02 1284.84 342.37 1284.84 357.04 1310.25 342.37 1335.66 313.02 1335.66"/><polygon class="cls-7" points="360.32 1363.01 345.65 1337.6 360.32 1312.19 389.66 1312.19 404.33 1337.6 389.66 1363.01 360.32 1363.01"/><polygon class="cls-7" points="313.02 1281.41 298.35 1255.99 313.02 1230.59 342.37 1230.59 357.04 1255.99 342.37 1281.41 313.02 1281.41"/><polygon class="cls-7" points="313.02 1227.14 298.35 1201.73 313.02 1176.32 342.37 1176.32 357.04 1201.73 342.37 1227.14 313.02 1227.14"/><polygon class="cls-7" points="360.32 1254.49 345.65 1229.08 360.32 1203.67 389.66 1203.67 404.33 1229.08 389.66 1254.49 360.32 1254.49"/><polygon class="cls-7" points="360.32 1308.75 345.65 1283.34 360.32 1257.93 389.66 1257.93 404.33 1283.34 389.66 1308.75 360.32 1308.75"/><polygon class="cls-7" points="313.02 1064.34 298.35 1038.92 313.02 1013.51 342.37 1013.51 357.04 1038.92 342.37 1064.34 313.02 1064.34"/><polygon class="cls-7" points="313.02 1010.07 298.35 984.66 313.02 959.25 342.37 959.25 357.04 984.66 342.37 1010.07 313.02 1010.07"/><polygon class="cls-7" points="313.02 1118.6 298.35 1093.19 313.02 1067.78 342.37 1067.78 357.04 1093.19 342.37 1118.6 313.02 1118.6"/><polygon class="cls-7" points="360.32 1037.41 345.65 1012 360.32 986.59 389.66 986.59 404.33 1012 389.66 1037.41 360.32 1037.41"/><polygon class="cls-7" points="360.32 1091.68 345.65 1066.27 360.32 1040.86 389.66 1040.86 404.33 1066.27 389.66 1091.68 360.32 1091.68"/><polygon class="cls-7" points="313.02 955.8 298.35 930.39 313.02 904.98 342.37 904.98 357.04 930.39 342.37 955.8 313.02 955.8"/><polygon class="cls-7" points="313.02 901.53 298.35 876.12 313.02 850.71 342.37 850.71 357.04 876.12 342.37 901.53 313.02 901.53"/><polygon class="cls-7" points="360.32 928.88 345.65 903.47 360.32 878.06 389.66 878.06 404.33 903.47 389.66 928.88 360.32 928.88"/><polygon class="cls-7" points="360.32 983.15 345.65 957.74 360.32 932.33 389.66 932.33 404.33 957.74 389.66 983.15 360.32 983.15"/><polygon class="cls-7" points="313.02 847.27 298.35 821.86 313.02 796.45 342.37 796.45 357.04 821.86 342.37 847.27 313.02 847.27"/><polygon class="cls-7" points="313.02 793.01 298.35 767.6 313.02 742.19 342.37 742.19 357.04 767.6 342.37 793.01 313.02 793.01"/><polygon class="cls-7" points="360.32 820.36 345.65 794.95 360.32 769.53 389.66 769.53 404.33 794.95 389.66 820.36 360.32 820.36"/><polygon class="cls-7" points="360.32 874.62 345.65 849.21 360.32 823.8 389.66 823.8 404.33 849.21 389.66 874.62 360.32 874.62"/><polygon class="cls-7" points="313.02 1172.87 298.35 1147.46 313.02 1122.05 342.37 1122.05 357.04 1147.46 342.37 1172.87 313.02 1172.87"/><polygon class="cls-7" points="360.32 1145.95 345.65 1120.54 360.32 1095.13 389.66 1095.13 404.33 1120.54 389.66 1145.95 360.32 1145.95"/><polygon class="cls-7" points="360.32 1200.22 345.65 1174.81 360.32 1149.4 389.66 1149.4 404.33 1174.81 389.66 1200.22 360.32 1200.22"/><polygon class="cls-7" points="407.6 1335.66 392.93 1310.25 407.6 1284.84 436.94 1284.84 451.61 1310.25 436.94 1335.66 407.6 1335.66"/><polygon class="cls-7" points="454.9 1363.01 440.23 1337.6 454.9 1312.19 484.24 1312.19 498.91 1337.6 484.24 1363.01 454.9 1363.01"/><polygon class="cls-7" points="407.6 1281.41 392.93 1255.99 407.6 1230.59 436.94 1230.59 451.61 1255.99 436.94 1281.41 407.6 1281.41"/><polygon class="cls-7" points="407.6 1227.14 392.93 1201.73 407.6 1176.32 436.94 1176.32 451.61 1201.73 436.94 1227.14 407.6 1227.14"/><polygon class="cls-7" points="454.9 1254.49 440.23 1229.08 454.9 1203.67 484.24 1203.67 498.91 1229.08 484.24 1254.49 454.9 1254.49"/><polygon class="cls-7" points="454.9 1308.75 440.23 1283.34 454.9 1257.93 484.24 1257.93 498.91 1283.34 484.24 1308.75 454.9 1308.75"/><polygon class="cls-7" points="407.6 1064.34 392.93 1038.92 407.6 1013.51 436.94 1013.51 451.61 1038.92 436.94 1064.34 407.6 1064.34"/><polygon class="cls-7" points="407.6 1010.07 392.93 984.66 407.6 959.25 436.94 959.25 451.61 984.66 436.94 1010.07 407.6 1010.07"/><polygon class="cls-7" points="407.6 1118.6 392.93 1093.19 407.6 1067.78 436.94 1067.78 451.61 1093.19 436.94 1118.6 407.6 1118.6"/><polygon class="cls-11" points="454.9 1037.41 440.23 1012 454.9 986.59 484.24 986.59 498.91 1012 484.24 1037.41 454.9 1037.41"/><polygon class="cls-7" points="454.9 1091.68 440.23 1066.27 454.9 1040.86 484.24 1040.86 498.91 1066.27 484.24 1091.68 454.9 1091.68"/><polygon class="cls-7" points="407.6 955.8 392.93 930.39 407.6 904.98 436.94 904.98 451.61 930.39 436.94 955.8 407.6 955.8"/><polygon class="cls-7" points="407.6 901.53 392.93 876.12 407.6 850.71 436.94 850.71 451.61 876.12 436.94 901.53 407.6 901.53"/><polygon class="cls-7" points="454.9 928.88 440.23 903.47 454.9 878.06 484.24 878.06 498.91 903.47 484.24 928.88 454.9 928.88"/><polygon class="cls-11" points="454.9 983.15 440.23 957.74 454.9 932.33 484.24 932.33 498.91 957.74 484.24 983.15 454.9 983.15"/><polygon class="cls-7" points="407.6 847.27 392.93 821.86 407.6 796.45 436.94 796.45 451.61 821.86 436.94 847.27 407.6 847.27"/><polygon class="cls-7" points="407.6 793.01 392.93 767.6 407.6 742.19 436.94 742.19 451.61 767.6 436.94 793.01 407.6 793.01"/><polygon class="cls-7" points="454.9 820.36 440.23 794.95 454.9 769.53 484.24 769.53 498.91 794.95 484.24 820.36 454.9 820.36"/><polygon class="cls-7" points="454.9 874.62 440.23 849.21 454.9 823.8 484.24 823.8 498.91 849.21 484.24 874.62 454.9 874.62"/><polygon class="cls-7" points="407.6 1172.87 392.93 1147.46 407.6 1122.05 436.94 1122.05 451.61 1147.46 436.94 1172.87 407.6 1172.87"/><polygon class="cls-7" points="454.9 1145.95 440.23 1120.54 454.9 1095.13 484.24 1095.13 498.91 1120.54 484.24 1145.95 454.9 1145.95"/><polygon class="cls-7" points="454.9 1200.22 440.23 1174.81 454.9 1149.4 484.24 1149.4 498.91 1174.81 484.24 1200.22 454.9 1200.22"/><polygon class="cls-7" points="502.19 1335.66 487.52 1310.25 502.19 1284.84 531.53 1284.84 546.21 1310.25 531.53 1335.66 502.19 1335.66"/><polygon class="cls-7" points="549.49 1363.01 534.82 1337.6 549.49 1312.19 578.83 1312.19 593.5 1337.6 578.83 1363.01 549.49 1363.01"/><polygon class="cls-7" points="502.19 1281.41 487.52 1255.99 502.19 1230.59 531.53 1230.59 546.21 1255.99 531.53 1281.41 502.19 1281.41"/><polygon class="cls-7" points="502.19 1227.14 487.52 1201.73 502.19 1176.32 531.53 1176.32 546.21 1201.73 531.53 1227.14 502.19 1227.14"/><polygon class="cls-7" points="549.49 1254.49 534.82 1229.08 549.49 1203.67 578.83 1203.67 593.5 1229.08 578.83 1254.49 549.49 1254.49"/><polygon class="cls-7" points="549.49 1308.75 534.82 1283.34 549.49 1257.93 578.83 1257.93 593.5 1283.34 578.83 1308.75 549.49 1308.75"/><polygon class="cls-11" points="502.19 1064.34 487.52 1038.92 502.19 1013.51 531.53 1013.51 546.21 1038.92 531.53 1064.34 502.19 1064.34"/><polygon class="cls-11" points="502.19 1010.07 487.52 984.66 502.19 959.25 531.53 959.25 546.21 984.66 531.53 1010.07 502.19 1010.07"/><polygon class="cls-11" points="502.19 1118.6 487.52 1093.19 502.19 1067.78 531.53 1067.78 546.21 1093.19 531.53 1118.6 502.19 1118.6"/><polygon class="cls-11" points="549.49 1037.41 534.82 1012 549.49 986.59 578.83 986.59 593.5 1012 578.83 1037.41 549.49 1037.41"/><polygon class="cls-11" points="549.49 1091.68 534.82 1066.27 549.49 1040.86 578.83 1040.86 593.5 1066.27 578.83 1091.68 549.49 1091.68"/><polygon class="cls-11" points="502.19 955.8 487.52 930.39 502.19 904.98 531.53 904.98 546.21 930.39 531.53 955.8 502.19 955.8"/><polygon class="cls-7" points="502.19 901.53 487.52 876.12 502.19 850.71 531.53 850.71 546.21 876.12 531.53 901.53 502.19 901.53"/><polygon class="cls-7" points="549.49 928.88 534.82 903.47 549.49 878.06 578.83 878.06 593.5 903.47 578.83 928.88 549.49 928.88"/><polygon class="cls-7" points="549.49 983.15 534.82 957.74 549.49 932.33 578.83 932.33 593.5 957.74 578.83 983.15 549.49 983.15"/><polygon class="cls-7" points="502.19 847.27 487.52 821.86 502.19 796.45 531.53 796.45 546.21 821.86 531.53 847.27 502.19 847.27"/><polygon class="cls-7" points="502.19 793.01 487.52 767.6 502.19 742.19 531.53 742.19 546.21 767.6 531.53 793.01 502.19 793.01"/><polygon class="cls-7" points="502.19 1172.87 487.52 1147.46 502.19 1122.05 531.53 1122.05 546.21 1147.46 531.53 1172.87 502.19 1172.87"/><polygon class="cls-11" points="549.49 1145.95 534.82 1120.54 549.49 1095.13 578.83 1095.13 593.5 1120.54 578.83 1145.95 549.49 1145.95"/><polygon class="cls-7" points="549.49 1200.22 534.82 1174.81 549.49 1149.4 578.83 1149.4 593.5 1174.81 578.83 1200.22 549.49 1200.22"/><polygon class="cls-7" points="596.78 1335.66 582.11 1310.25 596.78 1284.84 626.12 1284.84 640.79 1310.25 626.12 1335.66 596.78 1335.66"/><polygon class="cls-9" points="644.08 1363.01 629.41 1337.6 644.08 1312.19 673.42 1312.19 688.09 1337.6 673.42 1363.01 644.08 1363.01"/><polygon class="cls-9" points="596.78 1281.41 582.11 1255.99 596.78 1230.59 626.12 1230.59 640.79 1255.99 626.12 1281.41 596.78 1281.41"/><polygon class="cls-7" points="596.78 1227.14 582.11 1201.73 596.78 1176.32 626.12 1176.32 640.79 1201.73 626.12 1227.14 596.78 1227.14"/><polygon class="cls-9" points="644.08 1254.49 629.41 1229.08 644.08 1203.67 673.42 1203.67 688.09 1229.08 673.42 1254.49 644.08 1254.49"/><polygon class="cls-7" points="644.08 1308.75 629.41 1283.34 644.08 1257.93 673.42 1257.93 688.09 1283.34 673.42 1308.75 644.08 1308.75"/><polygon class="cls-7" points="596.78 1064.34 582.11 1038.92 596.78 1013.51 626.12 1013.51 640.79 1038.92 626.12 1064.34 596.78 1064.34"/><polygon class="cls-7" points="596.78 1010.07 582.11 984.66 596.78 959.25 626.12 959.25 640.79 984.66 626.12 1010.07 596.78 1010.07"/><polygon class="cls-7" points="596.78 1118.6 582.11 1093.19 596.78 1067.78 626.12 1067.78 640.79 1093.19 626.12 1118.6 596.78 1118.6"/><polygon class="cls-8" points="644.08 1037.41 629.41 1012 644.08 986.59 673.42 986.59 688.09 1012 673.42 1037.41 644.08 1037.41"/><polygon class="cls-9" points="644.08 1091.68 629.41 1066.27 644.08 1040.86 673.42 1040.86 688.09 1066.27 673.42 1091.68 644.08 1091.68"/><polygon class="cls-7" points="596.78 955.8 582.11 930.39 596.78 904.98 626.12 904.98 640.79 930.39 626.12 955.8 596.78 955.8"/><polygon class="cls-7" points="644.08 928.88 629.41 903.47 644.08 878.06 673.42 878.06 688.09 903.47 673.42 928.88 644.08 928.88"/><polygon class="cls-8" points="644.08 983.15 629.41 957.74 644.08 932.33 673.42 932.33 688.09 957.74 673.42 983.15 644.08 983.15"/><polygon class="cls-7" points="596.78 793.01 582.11 767.6 596.78 742.19 626.12 742.19 640.79 767.6 626.12 793.01 596.78 793.01"/><polygon class="cls-7" points="644.08 820.36 629.41 794.95 644.08 769.53 673.42 769.53 688.09 794.95 673.42 820.36 644.08 820.36"/><polygon class="cls-7" points="596.78 1172.87 582.11 1147.46 596.78 1122.05 626.12 1122.05 640.79 1147.46 626.12 1172.87 596.78 1172.87"/><polygon class="cls-7" points="644.08 1145.95 629.41 1120.54 644.08 1095.13 673.42 1095.13 688.09 1120.54 673.42 1145.95 644.08 1145.95"/><polygon class="cls-7" points="644.08 1200.22 629.41 1174.81 644.08 1149.4 673.42 1149.4 688.09 1174.81 673.42 1200.22 644.08 1200.22"/><polygon class="cls-7" points="691.38 1335.66 676.71 1310.25 691.38 1284.84 720.72 1284.84 735.39 1310.25 720.72 1335.66 691.38 1335.66"/><polygon class="cls-8" points="738.67 1363.01 724 1337.6 738.67 1312.19 768.01 1312.19 782.68 1337.6 768.01 1363.01 738.67 1363.01"/><polygon class="cls-8" points="691.38 1281.41 676.71 1255.99 691.38 1230.59 720.72 1230.59 735.39 1255.99 720.72 1281.41 691.38 1281.41"/><polygon class="cls-9" points="691.38 1227.14 676.71 1201.73 691.38 1176.32 720.72 1176.32 735.39 1201.73 720.72 1227.14 691.38 1227.14"/><polygon class="cls-9" points="738.67 1254.49 724 1229.08 738.67 1203.67 768.01 1203.67 782.68 1229.08 768.01 1254.49 738.67 1254.49"/><polygon class="cls-10" points="738.67 1308.75 724 1283.34 738.67 1257.93 768.01 1257.93 782.68 1283.34 768.01 1308.75 738.67 1308.75"/><polygon class="cls-9" points="691.38 1064.34 676.71 1038.92 691.38 1013.51 720.72 1013.51 735.39 1038.92 720.72 1064.34 691.38 1064.34"/><polygon class="cls-10" points="691.38 1010.07 676.71 984.66 691.38 959.25 720.72 959.25 735.39 984.66 720.72 1010.07 691.38 1010.07"/><polygon class="cls-9" points="691.38 1118.6 676.71 1093.19 691.38 1067.78 720.72 1067.78 735.39 1093.19 720.72 1118.6 691.38 1118.6"/><polygon class="cls-9" points="738.67 1037.41 724 1012 738.67 986.59 768.01 986.59 782.68 1012 768.01 1037.41 738.67 1037.41"/><polygon class="cls-8" points="738.67 1091.68 724 1066.27 738.67 1040.86 768.01 1040.86 782.68 1066.27 768.01 1091.68 738.67 1091.68"/><polygon class="cls-8" points="691.38 955.8 676.71 930.39 691.38 904.98 720.72 904.98 735.39 930.39 720.72 955.8 691.38 955.8"/><polygon class="cls-8" points="691.38 901.53 676.71 876.12 691.38 850.71 720.72 850.71 735.39 876.12 720.72 901.53 691.38 901.53"/><polygon class="cls-8" points="738.67 928.88 724 903.47 738.67 878.06 768.01 878.06 782.68 903.47 768.01 928.88 738.67 928.88"/><polygon class="cls-9" points="738.67 983.15 724 957.74 738.67 932.33 768.01 932.33 782.68 957.74 768.01 983.15 738.67 983.15"/><polygon class="cls-9" points="691.38 847.27 676.71 821.86 691.38 796.45 720.72 796.45 735.39 821.86 720.72 847.27 691.38 847.27"/><polygon class="cls-7" points="691.38 793.01 676.71 767.6 691.38 742.19 720.72 742.19 735.39 767.6 720.72 793.01 691.38 793.01"/><polygon class="cls-8" points="738.67 820.36 724 794.95 738.67 769.53 768.01 769.53 782.68 794.95 768.01 820.36 738.67 820.36"/><polygon class="cls-9" points="738.67 874.62 724 849.21 738.67 823.8 768.01 823.8 782.68 849.21 768.01 874.62 738.67 874.62"/><polygon class="cls-8" points="691.38 1172.87 676.71 1147.46 691.38 1122.05 720.72 1122.05 735.39 1147.46 720.72 1172.87 691.38 1172.87"/><polygon class="cls-9" points="738.67 1145.95 724 1120.54 738.67 1095.13 768.01 1095.13 782.68 1120.54 768.01 1145.95 738.67 1145.95"/><polygon class="cls-9" points="738.67 1200.22 724 1174.81 738.67 1149.4 768.01 1149.4 782.68 1174.81 768.01 1200.22 738.67 1200.22"/></g></g></g></g></g></svg>