<svg xmlns="http://www.w3.org/2000/svg" xmlns:xlink="http://www.w3.org/1999/xlink" viewBox="0 0 30 30"><defs><style>.cls-1{fill:none;}.cls-2{isolation:isolate;}.cls-3{clip-path:url(#clip-path);}.cls-4{opacity:0.7;}.cls-5{clip-path:url(#clip-path-2);}.cls-6{mix-blend-mode:soft-light;}.cls-7{fill:#fff;}.cls-8{clip-path:url(#clip-path-3);}.cls-9{clip-path:url(#clip-path-4);}.cls-10{fill:url(#radial-gradient);}.cls-11{fill:#b01217;}.cls-12{fill:#eeefef;}</style><clipPath id="clip-path"><rect class="cls-1" x="-790.7" y="-731.41" width="1920" height="530"/></clipPath><clipPath id="clip-path-2"><rect class="cls-1" x="-790.7" y="-1080.06" width="1920" height="1080"/></clipPath><clipPath id="clip-path-3"><polyline class="cls-1" points="-289.25 -110.62 -144.91 -27.29 -144.91 139.38 -289.25 222.72 -433.59 139.38 -433.59 -27.29 -289.25 -110.62"/></clipPath><clipPath id="clip-path-4"><polygon class="cls-1" points="-289.25 -109.19 -432.35 -26.57 -432.35 138.67 -289.25 221.29 -146.15 138.67 -146.15 -26.57 -289.25 -109.19 -289.25 -109.19"/></clipPath><radialGradient id="radial-gradient" cx="671.48" cy="428.37" r="1148.85" gradientUnits="userSpaceOnUse"><stop offset="0" stop-color="#fff8da"/><stop offset="0.4" stop-color="#ffe264"/><stop offset="1" stop-color="#fc9200"/></radialGradient></defs><title>pinterest</title><g class="cls-2"><g id="Layer_1" data-name="Layer 1"><g class="cls-3"><g class="cls-4"><g class="cls-5"><g class="cls-6"><rect class="cls-7" x="-831.75" y="-1169.87" width="2002.1" height="1261.89"/><polygon class="cls-7" points="45.11 -73.57 67.91 -34.08 45.11 5.41 -0.48 5.41 -23.28 -34.08 -0.48 -73.57 45.11 -73.57"/><polygon class="cls-7" points="45.11 10.77 67.91 50.26 45.11 89.74 -0.48 89.74 -23.28 50.26 -0.48 10.77 45.11 10.77"/></g></g></g></g><g class="cls-8"><g class="cls-9"><rect class="cls-10" x="-504.63" y="-233.19" width="2352.22" height="1323.12"/></g></g><circle class="cls-11" cx="15" cy="15" r="15"/><path class="cls-12" d="M16.17,19.06a4.91,4.91,0,0,1-2.42-1.15C13.28,20.4,12.7,22.78,11,24c-.53-3.75.78-6.57,1.38-9.56-1-1.74.12-5.24,2.3-4.38,2.68,1.06-2.32,6.47,1,7.14s4.94-6.09,2.77-8.3c-3.14-3.19-9.15-.07-8.41,4.49.18,1.12,1.33,1.46.46,3-2-.45-2.61-2-2.53-4.15A6.77,6.77,0,0,1,14.1,6c3.79-.42,7.35,1.39,7.84,5,.55,4-1.71,8.38-5.76,8.07Zm0,0"/></g></g></svg>