<svg xmlns="http://www.w3.org/2000/svg" xmlns:xlink="http://www.w3.org/1999/xlink" viewBox="0 0 261.81 275.56"><defs><style>.cls-1{fill:none;}.cls-2{isolation:isolate;}.cls-3{clip-path:url(#clip-path);}.cls-4{fill:url(#radial-gradient);}.cls-5{opacity:0.7;}.cls-6{clip-path:url(#clip-path-2);}.cls-7{mix-blend-mode:soft-light;}.cls-8{fill:#fff;}.cls-9{fill:#ffd97e;}.cls-10{fill:#fbefbd;}.cls-11{clip-path:url(#clip-path-3);}.cls-12{clip-path:url(#clip-path-4);}.cls-13{fill:url(#radial-gradient-2);}.cls-14{opacity:0.5;}.cls-15{fill:#ff9026;}.cls-16{fill:#231f20;}.cls-17,.cls-21{fill:#ffdc02;}.cls-18{fill:#f1f1f2;}.cls-19{fill:#a78701;}.cls-20{fill:#806800;}.cls-21{stroke:#231f20;stroke-miterlimit:10;}</style><clipPath id="clip-path"><rect class="cls-1" x="-1447.21" y="-646.29" width="1920" height="530"/></clipPath><radialGradient id="radial-gradient" cx="-487.21" cy="-454.94" r="937.75" gradientUnits="userSpaceOnUse"><stop offset="0" stop-color="#fff5d7"/><stop offset="0.4" stop-color="#ffdf64"/><stop offset="1" stop-color="#f98f00"/></radialGradient><clipPath id="clip-path-2"><rect class="cls-1" x="-1447.21" y="-994.94" width="1920" height="1080"/></clipPath><clipPath id="clip-path-3"><polyline class="cls-1" points="-945.76 -25.49 -801.42 57.84 -801.42 224.51 -945.76 307.84 -1090.1 224.51 -1090.1 57.84 -945.76 -25.49"/></clipPath><clipPath id="clip-path-4"><polygon class="cls-1" points="-945.76 -24.06 -1088.86 58.56 -1088.86 223.79 -945.76 306.41 -802.66 223.79 -802.66 58.56 -945.76 -24.06 -945.76 -24.06"/></clipPath><radialGradient id="radial-gradient-2" cx="14.97" cy="513.5" r="1148.85" gradientUnits="userSpaceOnUse"><stop offset="0" stop-color="#fff8da"/><stop offset="0.4" stop-color="#ffe264"/><stop offset="1" stop-color="#fc9200"/></radialGradient></defs><title>play button</title><g class="cls-2"><g id="Layer_1" data-name="Layer 1"><g class="cls-3"><rect class="cls-4" x="-1447.21" y="-994.94" width="1920" height="1080"/><g class="cls-5"><g class="cls-6"><g class="cls-7"><rect class="cls-8" x="-1488.26" y="-1084.74" width="2002.1" height="1261.89"/><polygon class="cls-9" points="270.54 -72.76 293.34 -33.27 270.54 6.22 224.95 6.22 202.15 -33.27 224.95 -72.76 270.54 -72.76"/><polygon class="cls-9" points="270.54 11.56 293.34 51.05 270.54 90.54 224.95 90.54 202.15 51.05 224.95 11.56 270.54 11.56"/><polygon class="cls-10" points="270.54 95.89 293.34 135.38 270.54 174.87 224.95 174.87 202.15 135.38 224.95 95.89 270.54 95.89"/><polygon class="cls-10" points="197.04 53.39 219.84 92.88 197.04 132.37 151.45 132.37 128.65 92.88 151.45 53.39 197.04 53.39"/><polygon class="cls-9" points="197.04 -30.94 219.84 8.55 197.04 48.04 151.45 48.04 128.65 8.55 151.45 -30.94 197.04 -30.94"/><polygon class="cls-9" points="123.54 -72.76 146.34 -33.27 123.54 6.22 77.95 6.22 55.15 -33.27 77.95 -72.76 123.54 -72.76"/><polygon class="cls-10" points="123.54 11.56 146.34 51.05 123.54 90.54 77.95 90.54 55.15 51.05 77.95 11.56 123.54 11.56"/><polygon class="cls-10" points="123.54 95.89 146.34 135.38 123.54 174.87 77.95 174.87 55.15 135.38 77.95 95.89 123.54 95.89"/><polygon class="cls-10" points="50.04 53.39 72.84 92.88 50.04 132.37 4.45 132.37 -18.35 92.88 4.45 53.39 50.04 53.39"/><polygon class="cls-10" points="50.04 -30.94 72.84 8.55 50.04 48.04 4.45 48.04 -18.35 8.55 4.45 -30.94 50.04 -30.94"/></g></g></g></g><g class="cls-11"><g class="cls-12"><rect class="cls-13" x="-1161.14" y="-148.07" width="2352.22" height="1323.12"/></g></g><g class="cls-14"><path class="cls-15" d="M249.41,87.38a6.76,6.76,0,0,0,.32-.68,6.45,6.45,0,0,0,1.43-2.35,4.92,4.92,0,0,0,.18-2.2,7.35,7.35,0,0,0-.32-3.25,12.68,12.68,0,0,0-3-4.58,7.22,7.22,0,0,0,2.06-3.08,4.82,4.82,0,0,0-.42-3.83,4.21,4.21,0,0,0-.87-1.06,4.88,4.88,0,0,0-.57-1.51,4.28,4.28,0,0,0-1.43-1.49c-.06-.12-.12-.25-.19-.37a4.28,4.28,0,0,0-2.75-2,4.81,4.81,0,0,0-.47-1.11,4.28,4.28,0,0,0-2.79-2,5.21,5.21,0,0,0-2.44.07c-.06-.13-.13-.25-.2-.38a4.23,4.23,0,0,0-1.18-1.31,4.77,4.77,0,0,0-.52-1.3,4.27,4.27,0,0,0-2.79-2c-1.42-.32-3,0-5.72,1.37a4.85,4.85,0,0,0-.64-2.06,4.29,4.29,0,0,0-2.83-2.06,5,5,0,0,0-1.83-.06,4.3,4.3,0,0,0-2.68-1.83,4.82,4.82,0,0,0-1.18-.11,3.91,3.91,0,0,0-.32-.32,4.76,4.76,0,0,0-.56-3.27,4.24,4.24,0,0,0-2.77-2c-1.51-.35-3.06-.08-6.3,1.67a4.37,4.37,0,0,0-1.07-.39,4.62,4.62,0,0,0-1.33-.11,4.35,4.35,0,0,0-.22-.42l0-.06a5.83,5.83,0,0,0,.68-1.43,4.86,4.86,0,0,0-.41-4,4.25,4.25,0,0,0-2.77-2,4.77,4.77,0,0,0-.84-.12l-.09-.16a4.25,4.25,0,0,0-2.77-2,4.16,4.16,0,0,0-1.11-.13l-.06-.11a4.25,4.25,0,0,0-2.77-2,5.25,5.25,0,0,0-2.62.11,4.54,4.54,0,0,0-.89-.3c-1.32-.29-2.78-.06-5,1a4.45,4.45,0,0,0-1.46-.65h0A4.34,4.34,0,0,0,183,29.29h0a4.26,4.26,0,0,0-.51-.4l-.15-.29a4.31,4.31,0,0,0-2.5-2,4.3,4.3,0,0,0-1.8-1.53,4.77,4.77,0,0,0-.61-2.93,4.26,4.26,0,0,0-2.77-2c-1.29-.29-2.67-.12-5.14,1.08a4.33,4.33,0,0,0-1.43-.73A4.29,4.29,0,0,0,166,19.2a4.38,4.38,0,0,0-2.66-1.73l-.14,0a7,7,0,0,0-.93-3.17,6.82,6.82,0,0,0-4.31-3.23,6.68,6.68,0,0,0-4-2.46,8.9,8.9,0,0,0-2-.16l-.18-.33a6.63,6.63,0,0,0-4.54-3.21l-.34-.06a6.72,6.72,0,0,0-.66-1.55,6.44,6.44,0,0,0-4.4-3.11c-2.43-.51-5.73.22-9.88,2-4.17-1.81-7.49-2.54-9.93-2a6.44,6.44,0,0,0-4.4,3.11A6.72,6.72,0,0,0,117,4.82l-.34.06a6.63,6.63,0,0,0-4.54,3.21l-.18.33a9,9,0,0,0-2,.16,6.69,6.69,0,0,0-4,2.46,6.83,6.83,0,0,0-4.31,3.23,7,7,0,0,0-.92,3.17l-.15,0a4.38,4.38,0,0,0-2.67,1.73,4.31,4.31,0,0,0-2.06,1.29,4.36,4.36,0,0,0-1.43.73c-2.48-1.2-3.86-1.38-5.14-1.08a4.26,4.26,0,0,0-2.77,2,4.78,4.78,0,0,0-.61,2.93A4.27,4.27,0,0,0,84,26.61a4.31,4.31,0,0,0-2.5,2c-.06.09-.11.19-.15.29a3.81,3.81,0,0,0-.51.41h0A4.35,4.35,0,0,0,78,31.37v0a4.43,4.43,0,0,0-1.46.65c-2.26-1.08-3.72-1.33-5-1a4.4,4.4,0,0,0-.89.3A5.25,5.25,0,0,0,68,31.2a4.23,4.23,0,0,0-2.77,2l-.06.11a4.06,4.06,0,0,0-1.11.12,4.26,4.26,0,0,0-2.77,2l-.09.17a5.06,5.06,0,0,0-.83.12,4.27,4.27,0,0,0-2.78,2,4.88,4.88,0,0,0-.41,4,5.89,5.89,0,0,0,.68,1.43l0,.06c-.08.14-.15.28-.21.42a4.77,4.77,0,0,0-1.33.11,4.48,4.48,0,0,0-1.07.39c-3.24-1.75-4.8-2-6.3-1.67a4.25,4.25,0,0,0-2.77,2,4.76,4.76,0,0,0-.56,3.27,3.93,3.93,0,0,0-.32.32,4.63,4.63,0,0,0-1.18.11A4.3,4.3,0,0,0,41.36,50a5,5,0,0,0-1.83.06,4.3,4.3,0,0,0-2.83,2.06,4.87,4.87,0,0,0-.64,2.06c-2.69-1.37-4.31-1.69-5.72-1.37a4.28,4.28,0,0,0-2.79,2,4.69,4.69,0,0,0-.51,1.3,4.28,4.28,0,0,0-1.18,1.31,4,4,0,0,0-.2.38,5.25,5.25,0,0,0-2.45-.07,4.27,4.27,0,0,0-2.79,2A4.94,4.94,0,0,0,20,61a4.28,4.28,0,0,0-2.75,2,3.82,3.82,0,0,0-.19.37,4.28,4.28,0,0,0-1.43,1.49A5,5,0,0,0,15,66.36a4.22,4.22,0,0,0-.87,1.06,4.81,4.81,0,0,0-.42,3.83,7.23,7.23,0,0,0,2.07,3.1,12.7,12.7,0,0,0-3,4.57,7.38,7.38,0,0,0-.33,3.2,4.93,4.93,0,0,0,.17,2.23,6.51,6.51,0,0,0,1.46,2.38,6.84,6.84,0,0,0,.31.66,6.56,6.56,0,0,0,.43.65c.05.17.15.32.21.48a4.24,4.24,0,0,0-.72.91,4.75,4.75,0,0,0-.4,3.85,5.68,5.68,0,0,0,.84,1.63c0,.17.07.34.12.51l.05.16a4.84,4.84,0,0,0-.23,1.22A9.59,9.59,0,0,0,14,98.45a7.3,7.3,0,0,0,.37,5.67,5,5,0,0,0-.22,3.52A7.26,7.26,0,0,0,16,110.54a6,6,0,0,0-1,1.83,4.89,4.89,0,0,0-.18,2.17,5.81,5.81,0,0,0-.48,1.13c0,.14-.08.27-.11.41a6.16,6.16,0,0,0-1,1.91,4.86,4.86,0,0,0,.41,3.94,4.29,4.29,0,0,0,.81,1,4.67,4.67,0,0,0,.18.59,4.17,4.17,0,0,0-1.26,1.32,4.84,4.84,0,0,0-.48,3.67,5,5,0,0,0-.11,3.23c0,.16.12.32.18.48a5.08,5.08,0,0,0,.07,3.06c0,.06,0,.11,0,.17a5.81,5.81,0,0,0,.54,1.21,5,5,0,0,0,.12,1.47,4.29,4.29,0,0,0-.61.82,4.87,4.87,0,0,0-.42,3.91,5.57,5.57,0,0,0,.43,1,5.06,5.06,0,0,0,.19,2.29,8,8,0,0,0,2.56,3.49,6.9,6.9,0,0,0-1.65,2.48,4.34,4.34,0,0,0-.49.68,5,5,0,0,0-.41,4,7.13,7.13,0,0,0,1.89,2.89,3.83,3.83,0,0,0,.21,1.38,6,6,0,0,0-.84,1.7,5,5,0,0,0-.18,2,6.85,6.85,0,0,0-1.32,2.38,5.05,5.05,0,0,0,.39,3.91,7.51,7.51,0,0,0,.34,3.15,9.6,9.6,0,0,0,.88,1.9c0,.15,0,.31-.06.46a5.52,5.52,0,0,0-.65,1.32,4.69,4.69,0,0,0,.4,3.8,4.46,4.46,0,0,0,.48.67,4.85,4.85,0,0,0,.14,2.68,3.84,3.84,0,0,0,0,3.79,7,7,0,0,0-1.71,2.67,4.93,4.93,0,0,0,.41,4,4.32,4.32,0,0,0,.69.9,4.68,4.68,0,0,0,.44,1,4.32,4.32,0,0,0,.66.87,4.85,4.85,0,0,0,.5,3.61,4.24,4.24,0,0,0,2.52,2,4.28,4.28,0,0,0,2.41,1.5c1.19.27,2.47.14,4.62-.83a4.46,4.46,0,0,0,.22.43,4.25,4.25,0,0,0,2.77,2,4.8,4.8,0,0,0,.71.11,4.33,4.33,0,0,0,2.46,1.5,5,5,0,0,0,1.55.09,4.74,4.74,0,0,0,.46,3.64,4.26,4.26,0,0,0,2.8,2,5.34,5.34,0,0,0,2.75-.16,4.86,4.86,0,0,0,.54,1.41,4.28,4.28,0,0,0,2.79,2,6.48,6.48,0,0,0,3.9-.53,4.45,4.45,0,0,0,1.4.58,4.56,4.56,0,0,0,.51.09A4.37,4.37,0,0,0,50.63,219l.25.05a4.79,4.79,0,0,0,.44,1,4.24,4.24,0,0,0,1.22,1.34,4.67,4.67,0,0,0,.52,1.33,4.32,4.32,0,0,0,2.85,2.07c1.32.29,2.73.06,4.89-1a4.26,4.26,0,0,0,1.92,1.65,4.29,4.29,0,0,0,2.22,1.26,4.87,4.87,0,0,0,1.83.06,4.68,4.68,0,0,0,.48,1.16,4.33,4.33,0,0,0,1.11,1.27,4.71,4.71,0,0,0,.37.81,4.29,4.29,0,0,0,2.54,2A4.26,4.26,0,0,0,74,234a4.74,4.74,0,0,0,1.54.1,4.34,4.34,0,0,0,2.66,1.75,5.51,5.51,0,0,0,2.81-.15,4.85,4.85,0,0,0,.65,2.38,4.29,4.29,0,0,0,2.82,2.05,5.4,5.4,0,0,0,2.7-.13,4.24,4.24,0,0,0,1.78,1.67l.13.24a4.25,4.25,0,0,0,2.78,2c1.48.33,3.09,0,5.93-1.5a4.26,4.26,0,0,0,1.15.94,6.12,6.12,0,0,0-.93,1.84,4.83,4.83,0,0,0,.43,3.83,6.77,6.77,0,0,0,4.64,3.28,11.58,11.58,0,0,0,4.77-.19,7.2,7.2,0,0,0,.9,2.54,6.37,6.37,0,0,0,2.8,2.6,6.62,6.62,0,0,0,1.9,1.35,7,7,0,0,0,3.22,1.56,9.43,9.43,0,0,0,2.64.13,6.51,6.51,0,0,0,4.2,2.77,8.22,8.22,0,0,0,1.68.16,19.58,19.58,0,0,0,6.74-1.53,19.56,19.56,0,0,0,6.75,1.53,8.23,8.23,0,0,0,1.68-.16,6.51,6.51,0,0,0,4.2-2.77,9.28,9.28,0,0,0,2.65-.13,6.94,6.94,0,0,0,3.22-1.57,6.57,6.57,0,0,0,1.89-1.35,6.36,6.36,0,0,0,2.8-2.6,7.19,7.19,0,0,0,.9-2.54,11.67,11.67,0,0,0,4.77.19,6.77,6.77,0,0,0,4.65-3.28,4.83,4.83,0,0,0,.43-3.83,6.13,6.13,0,0,0-.92-1.84,4.29,4.29,0,0,0,1.14-.94c2.84,1.51,4.45,1.84,5.93,1.51a4.25,4.25,0,0,0,2.78-2l.13-.24A4.21,4.21,0,0,0,176.7,240a5.37,5.37,0,0,0,2.71.13,4.28,4.28,0,0,0,2.82-2.05,4.85,4.85,0,0,0,.65-2.37,5.47,5.47,0,0,0,2.81.15,4.33,4.33,0,0,0,2.66-1.75,4.82,4.82,0,0,0,1.54-.1,4.26,4.26,0,0,0,2.72-1.92,4.29,4.29,0,0,0,2.54-2,4.51,4.51,0,0,0,.37-.81,4.26,4.26,0,0,0,1.11-1.27,4.57,4.57,0,0,0,.48-1.16,4.88,4.88,0,0,0,1.83-.06,13.19,13.19,0,0,0,4.13-2.91c2.15,1,3.57,1.26,4.89,1a4.32,4.32,0,0,0,2.85-2.07,4.68,4.68,0,0,0,.52-1.32,4.22,4.22,0,0,0,1.22-1.34,4.86,4.86,0,0,0,.44-1l.25-.05a4.36,4.36,0,0,0,2.21-1.21l.51-.09a4.47,4.47,0,0,0,1.4-.58,6.47,6.47,0,0,0,3.9.52,4.28,4.28,0,0,0,2.79-2,4.83,4.83,0,0,0,.54-1.41,5.38,5.38,0,0,0,2.75.15,4.25,4.25,0,0,0,2.8-2,4.73,4.73,0,0,0,.46-3.64,4.82,4.82,0,0,0,1.55-.09,4.32,4.32,0,0,0,2.46-1.51,5,5,0,0,0,.71-.1,4.26,4.26,0,0,0,2.77-2c.08-.14.15-.29.22-.43,2.15,1,3.42,1.1,4.62.83a4.3,4.3,0,0,0,2.41-1.5,4.23,4.23,0,0,0,2.52-2,4.85,4.85,0,0,0,.5-3.61,4.16,4.16,0,0,0,.66-.87,4.49,4.49,0,0,0,.43-1,4.22,4.22,0,0,0,.69-.9,4.93,4.93,0,0,0,.42-4,7,7,0,0,0-1.71-2.67,3.84,3.84,0,0,0,0-3.76,4.85,4.85,0,0,0,.16-2.71,4.58,4.58,0,0,0,.48-.68,4.7,4.7,0,0,0,.4-3.8,5.57,5.57,0,0,0-.67-1.35c0-.13,0-.27-.05-.4a9.44,9.44,0,0,0,.88-1.9,7.51,7.51,0,0,0,.34-3.14,5.07,5.07,0,0,0,.4-3.94,6.85,6.85,0,0,0-1.32-2.38,5,5,0,0,0-.18-2,6,6,0,0,0-.84-1.71,3.93,3.93,0,0,0,.2-1.37,7.12,7.12,0,0,0,1.9-2.89,4.94,4.94,0,0,0-.41-4,4.34,4.34,0,0,0-.45-.62,6.85,6.85,0,0,0-1.68-2.55,8,8,0,0,0,2.55-3.48,5.11,5.11,0,0,0,.19-2.29,5.8,5.8,0,0,0,.43-1,4.87,4.87,0,0,0-.42-3.91,4.3,4.3,0,0,0-.61-.82,4.88,4.88,0,0,0,.12-1.46,5.67,5.67,0,0,0,.54-1.21s0-.08,0-.12a5.07,5.07,0,0,0,.09-3.15c.06-.15.13-.3.17-.45a4.92,4.92,0,0,0-.11-3.23,4.84,4.84,0,0,0-.48-3.67,4.16,4.16,0,0,0-1.25-1.31,4.69,4.69,0,0,0,.18-.61,4.35,4.35,0,0,0,.81-1,4.85,4.85,0,0,0,.41-3.94,6.06,6.06,0,0,0-1-1.91c0-.14-.06-.27-.11-.41a5.94,5.94,0,0,0-.48-1.13,5,5,0,0,0-.18-2.16,6,6,0,0,0-1-1.84,7.24,7.24,0,0,0,1.83-2.89,5,5,0,0,0-.22-3.5,7.31,7.31,0,0,0,.38-5.7,9.68,9.68,0,0,0-.76-1.7,4.77,4.77,0,0,0-.22-1.16l.05-.16c0-.17.09-.34.12-.51a5.7,5.7,0,0,0,.84-1.63,4.74,4.74,0,0,0-.4-3.85,4.35,4.35,0,0,0-.71-.9c.07-.17.17-.33.22-.5A7.27,7.27,0,0,0,249.41,87.38Zm-119,123.93c-1.23-.28-2.58-.09-4.68.88a4.77,4.77,0,0,0-.64-2.37,4.27,4.27,0,0,0-2.81-2c-1.41-.31-2.94,0-5.45,1.29a4.64,4.64,0,0,0-.54-3.2,4.28,4.28,0,0,0-2.8-2,4.86,4.86,0,0,0-1.1-.12,4.3,4.3,0,0,0-2.22-1.26,5,5,0,0,0-2.07,0,4.79,4.79,0,0,0-.39-1.14,4.72,4.72,0,0,0-.63-2.55,4.29,4.29,0,0,0-2.81-2,5.12,5.12,0,0,0-2.22,0,4.59,4.59,0,0,0-.62-.19c-1.57-.35-3.27,0-6.4,1.79a4.3,4.3,0,0,0-.67-.32,5.56,5.56,0,0,0,.26-.66,4.85,4.85,0,0,0-.41-3.93,4.29,4.29,0,0,0-2.82-2.05,4.78,4.78,0,0,0-.76-.11,4.79,4.79,0,0,0-.57-1.56,4.25,4.25,0,0,0-2.78-2,4.67,4.67,0,0,0-1.08-.12,4.27,4.27,0,0,0-2.06-1.12l-.09,0a4.27,4.27,0,0,0-2.62-1.75,5.82,5.82,0,0,0-3.41.38,4.73,4.73,0,0,0-.63-2.62,4.32,4.32,0,0,0-2.84-2.07,5.35,5.35,0,0,0-2.51.07,4.8,4.8,0,0,0-.61-1.82,4.23,4.23,0,0,0-2.76-2A4.78,4.78,0,0,0,67,176.5a4.28,4.28,0,0,0-1.84-1.16,4.24,4.24,0,0,0-2.33-1.41h0a4.18,4.18,0,0,0-.5-.49,4.79,4.79,0,0,0-.6-3.08,4.21,4.21,0,0,0-.91-1.08,5.05,5.05,0,0,0-.2-2.14,6,6,0,0,0-.6-1.31,6.62,6.62,0,0,0,1.67-2.62,4.76,4.76,0,0,0-.41-3.83,4.23,4.23,0,0,0-1-1.18,4.79,4.79,0,0,0-.36-2.06,7,7,0,0,0,1.86-2.94,5.2,5.2,0,0,0,.2-1.09,5.77,5.77,0,0,0,.57-1.24,4.86,4.86,0,0,0-.41-3.94A4.23,4.23,0,0,0,61,145.66a6.41,6.41,0,0,0,1-2,4.93,4.93,0,0,0-.43-3.93,4.22,4.22,0,0,0-1.73-1.64,8.84,8.84,0,0,0-.67-.83c0-.13,0-.27,0-.4s.12-.17.17-.26a4.9,4.9,0,0,0,.27-.55,4.28,4.28,0,0,0,2-1.77,5,5,0,0,0,.44-4A7.6,7.6,0,0,0,60,127.13a6.71,6.71,0,0,0,1.46-2.47,5.09,5.09,0,0,0,.21-1.49,4.78,4.78,0,0,0,.44-3.59,4.88,4.88,0,0,0-.46-3.74A4.28,4.28,0,0,0,59.46,114c.05-.14.1-.27.14-.41a4.93,4.93,0,0,0,.21-1.83,6.63,6.63,0,0,0,1.31-2.34,5,5,0,0,0,0-3,5.63,5.63,0,0,0,.59-1.28,4.78,4.78,0,0,0-.4-3.88,4.14,4.14,0,0,0-.42-.58,4.92,4.92,0,0,0-.13-2.28A5.93,5.93,0,0,0,60,96.83q0-.17,0-.35a4.22,4.22,0,0,0,1.64-1.61A4.88,4.88,0,0,0,62.12,91a6,6,0,0,0-.82-1.68,4.29,4.29,0,0,0,1.09-.68,4.66,4.66,0,0,0,1.37-.11,4.32,4.32,0,0,0,1.18-.45A5.55,5.55,0,0,0,68,88.3a4.24,4.24,0,0,0,2.78-2,4.84,4.84,0,0,0,.62-3,4.19,4.19,0,0,0,1.79-1.33,5.88,5.88,0,0,0,3.4.35,4.32,4.32,0,0,0,2.84-2.07,5.09,5.09,0,0,0,.33-.7,5.13,5.13,0,0,0,2.14,0,4.35,4.35,0,0,0,2.87-2.08,4.82,4.82,0,0,0,.44-1,4.52,4.52,0,0,0,.65-.1,4.27,4.27,0,0,0,2.81-2,4.89,4.89,0,0,0,.28-.57,5.25,5.25,0,0,0,1.16-.13A4.38,4.38,0,0,0,91.58,73a5.49,5.49,0,0,0,2.82.16,4.3,4.3,0,0,0,2.81-2,5.08,5.08,0,0,0,.38-.84l.43-.08a4.29,4.29,0,0,0,2.82-2.05l.15-.29a5,5,0,0,0,2.29,0,4.23,4.23,0,0,0,2.76-2c.07-.12.13-.23.18-.35l.51-.09a4.33,4.33,0,0,0,1.5-.65,4.74,4.74,0,0,0,.85-.11,4.25,4.25,0,0,0,2.77-2,5,5,0,0,0,.42-4c-.06-.19-.13-.38-.21-.57a4.64,4.64,0,0,0,.4-1.06l2.6-1.19a5.73,5.73,0,0,0,3.05.25,4.31,4.31,0,0,0,2.84-2.06,4.65,4.65,0,0,0,.46-1.13l.16-.07a4.87,4.87,0,0,0,.53-.08,4.32,4.32,0,0,0,2.13-1.15,6.61,6.61,0,0,0,4.28.7,4.42,4.42,0,0,0,1.24-.48,5,5,0,0,0,1.4-.12,4.44,4.44,0,0,0,.78-.26,4.56,4.56,0,0,0,.76.26,4.77,4.77,0,0,0,1.4.12,4.44,4.44,0,0,0,1.24.48,6.61,6.61,0,0,0,4.28-.7,4.35,4.35,0,0,0,2.13,1.15,4.76,4.76,0,0,0,.53.08l.15.07a4.67,4.67,0,0,0,.46,1.13A4.31,4.31,0,0,0,145.73,56a5.71,5.71,0,0,0,3.06-.25l2.6,1.19a4.6,4.6,0,0,0,.4,1.06,6,6,0,0,0-.22.57,5,5,0,0,0,.42,4,4.24,4.24,0,0,0,2.77,2,4.82,4.82,0,0,0,.85.11,4.34,4.34,0,0,0,1.5.65l.51.09c.06.12.12.24.18.35a4.23,4.23,0,0,0,2.75,2,5,5,0,0,0,2.29,0l.15.29a4.28,4.28,0,0,0,2.82,2.05l.43.08a4.81,4.81,0,0,0,.38.84,4.3,4.3,0,0,0,2.81,2,5.47,5.47,0,0,0,2.82-.16,4.34,4.34,0,0,0,1.43.61,5.74,5.74,0,0,0,1.16.13,5,5,0,0,0,.28.57,4.29,4.29,0,0,0,2.81,2,4.75,4.75,0,0,0,.65.1,4.89,4.89,0,0,0,.44,1,4.34,4.34,0,0,0,2.87,2.08,5.18,5.18,0,0,0,2.14,0,5.05,5.05,0,0,0,.33.7,4.32,4.32,0,0,0,2.84,2.07,5.9,5.9,0,0,0,3.4-.35,4.21,4.21,0,0,0,1.8,1.33,4.88,4.88,0,0,0,.62,3,4.24,4.24,0,0,0,2.78,2,5.56,5.56,0,0,0,3.08-.24,4.44,4.44,0,0,0,1.18.45,4.82,4.82,0,0,0,1.37.11,4.26,4.26,0,0,0,1.09.68,6,6,0,0,0-.82,1.68,4.89,4.89,0,0,0,.43,3.89,4.22,4.22,0,0,0,1.65,1.6c0,.12,0,.23,0,.35a5.9,5.9,0,0,0-.76,1.59,4.92,4.92,0,0,0-.13,2.25,4.29,4.29,0,0,0-.43.6,4.78,4.78,0,0,0-.4,3.88,5.61,5.61,0,0,0,.59,1.28,5,5,0,0,0,0,3,6.67,6.67,0,0,0,1.31,2.34,5,5,0,0,0,.21,1.83c0,.14.09.28.15.41a4.3,4.3,0,0,0-2.14,1.85,4.91,4.91,0,0,0-.45,3.78,4.79,4.79,0,0,0,.43,3.52,5.13,5.13,0,0,0,.22,1.52,6.68,6.68,0,0,0,1.47,2.48,7.58,7.58,0,0,0-2.05,3.14,5,5,0,0,0,.44,4,4.28,4.28,0,0,0,2,1.77,4.8,4.8,0,0,0,.27.55c0,.08.1.15.15.23s0,.3,0,.45a8.48,8.48,0,0,0-.63.79,4.19,4.19,0,0,0-1.76,1.66,5,5,0,0,0-.43,3.93,6.46,6.46,0,0,0,1,2,4.22,4.22,0,0,0-1.11,1.26,4.86,4.86,0,0,0-.41,3.94,5.84,5.84,0,0,0,.56,1.24,5.19,5.19,0,0,0,.2,1.09,7.06,7.06,0,0,0,1.86,2.94,4.8,4.8,0,0,0-.36,2.06,4.24,4.24,0,0,0-1,1.18,4.78,4.78,0,0,0-.41,3.83,6.65,6.65,0,0,0,1.69,2.64,6,6,0,0,0-.6,1.3,5.06,5.06,0,0,0-.2,2.13,4.23,4.23,0,0,0-.92,1.1,4.8,4.8,0,0,0-.6,3.08,4.05,4.05,0,0,0-.5.49h0a156.46,156.46,0,0,0-4.17,2.57,4.88,4.88,0,0,0-1.67.08,4.24,4.24,0,0,0-2.76,2,4.83,4.83,0,0,0-.61,1.82,5.33,5.33,0,0,0-2.51-.07,4.32,4.32,0,0,0-2.84,2.07,4.7,4.7,0,0,0-.63,2.61,5.86,5.86,0,0,0-3.41-.38,4.26,4.26,0,0,0-2.62,1.75l-.09,0a4.27,4.27,0,0,0-2.06,1.12,4.13,4.13,0,0,0-1.08.12,4.26,4.26,0,0,0-2.79,2,4.82,4.82,0,0,0-.57,1.55,4.89,4.89,0,0,0-.76.11,4.29,4.29,0,0,0-2.82,2.05,4.85,4.85,0,0,0-.41,3.93,6.43,6.43,0,0,0,.25.66,4.31,4.31,0,0,0-.66.32c-3.13-1.74-4.83-2.14-6.4-1.78a4.22,4.22,0,0,0-.62.19,5.16,5.16,0,0,0-2.22,0,4.3,4.3,0,0,0-2.8,2,4.7,4.7,0,0,0-.63,2.55,4.82,4.82,0,0,0-.39,1.14,4.93,4.93,0,0,0-2.07,0,4.29,4.29,0,0,0-2.22,1.26,4,4,0,0,0-1.1.11,4.28,4.28,0,0,0-2.8,2,4.66,4.66,0,0,0-.54,3.2c-2.51-1.3-4-1.61-5.45-1.3a4.28,4.28,0,0,0-2.81,2,4.77,4.77,0,0,0-.64,2.37c-2.1-1-3.44-1.16-4.68-.88a4.32,4.32,0,0,0-1.47.65A4.37,4.37,0,0,0,130.45,211.31Z"/><path class="cls-16" d="M244.08,189.79a2.15,2.15,0,0,0-2.8-1.13l0-1.7c-.31-12.15-.34-24.51-.36-36.45,0-10.77,0-21.91-.28-32.86-.2-9.34.08-18.84.84-29.06l0-.52c.29-3.87.69-9.17-.28-13.58l-.17-.75.7-.33a1.9,1.9,0,0,0,1-1.59,1.45,1.45,0,0,0-.82-1.36c-7.66-4.42-15.33-9.13-22.74-13.68C208.28,50.05,197,43.11,185.49,37c-4.27-2.27-8.59-4.53-12.76-6.7C160.55,23.93,148,17.36,135.95,9.86l-.56-.35.13-.65A2.37,2.37,0,0,0,135,7a1.68,1.68,0,0,0-1.31-.65,2.11,2.11,0,0,0-.73.14l-.53.21-.45.18-.46.18-.19-.13.11.14-1.17.5c-8.11,3.45-15.56,8.7-22.13,13.34a207.92,207.92,0,0,1-28.3,16.45C60.91,46.68,42.61,56.11,27,68.69l-1.15.92v0l-.38.31.39-.09,0,1.26c-.17,5.44-.59,10.94-1,16.25-.3,3.88-.61,7.9-.81,11.86-.38,7.24-.18,14.67,0,21.85.11,4.36.24,8.87.23,13.29,0,11.46-.24,23.1-.45,34.36-.14,7.35-.28,15-.36,22.43v.56l-.48.27a1.53,1.53,0,0,0-.66,1.28,1.56,1.56,0,0,0,.67,1.38l.4.27a10,10,0,0,0,0,1.14,1.53,1.53,0,0,0,.41,1.14,1.76,1.76,0,0,0,1.25.46,1.87,1.87,0,0,0,1.82-1.15c.07-.19,1.56.76,1.56.76,4.46,2.32,8.76,5.06,12.93,7.7,3.05,1.94,6.22,3.94,9.39,5.76,6.86,3.92,14.1,7.45,21.1,10.86,3.4,1.66,6.92,3.37,10.35,5.11,7.57,3.83,14.84,8.35,21.88,12.71a260.38,260.38,0,0,0,24.34,13.91c-7.83-4.47-15.36-9.61-22.67-14.6-8.71-5.95-17.72-12.1-27.19-17.09C75,219.76,71.4,218,67.94,216.22c-6-3-12.1-6.09-18-9.48-2.81-1.61-5.58-3.34-8.27-5a151.51,151.51,0,0,0-14.15-8.13l-.55-.27v-.61c.07-8.53.21-17.19.35-25.57.17-10.8.35-22,.39-33,0-5.35-.11-10.79-.23-16-.14-6.24-.29-12.68-.2-19,0-1.53.06-3.07.09-4.6.18-7.93.36-16.13-1.35-23.92l-.19-.85.82-.27C33.86,67,40.54,62.87,47,58.83c1.51-.94,3-1.88,4.51-2.79A306,306,0,0,1,79.28,41.39C87.54,37.48,97.1,32.81,105.94,27c1.92-1.27,3.81-2.57,5.7-3.87,6.87-4.73,14-9.63,22.09-12.67l.58-.22.44.44c10,10.06,23.65,16.78,36.83,23.28,3.39,1.67,6.59,3.25,9.75,4.89,10.47,5.44,20.66,11.72,30.52,17.78,8.69,5.35,17.67,10.88,26.78,15.8l.5.27v.56a141.93,141.93,0,0,1-1.06,19.72,195.47,195.47,0,0,0-.95,27.88c.21,10.57.21,21.31.22,31.7,0,12.4,0,25.21.36,37.81l0,.55-.47.29c-21,13.17-38,23.75-53.56,33.29-4.67,2.87-9.42,5.92-14,8.88-12,7.71-24.39,15.68-37.34,21.72l-.44.2h0l-.91.43c.66,0,1.33-.07,2-.15l.25,0,.88.38-.21-.46,1.19-.24c6.07-1.25,11.89-4.64,16.57-7.36s9.2-5.58,13.65-8.38c4-2.49,8.06-5.07,12.16-7.5,18.1-10.71,39.5-23.46,61.06-36.76l.31-.19.36.06a2.28,2.28,0,0,0,.37,0,1.74,1.74,0,0,0,1.81-1.31l.09-.4,1.54-1C243.69,192,244.53,190.72,244.08,189.79Z"/><path class="cls-16" d="M51.36,150.22c-.2-4.32-.41-8.8-.37-13.26.09-9.84.32-19.84.56-29.51.19-7.84.38-15.94.49-23.91v-.71l.68-.2a55.48,55.48,0,0,0,9.18-4.05c1.78-.92,3.63-1.86,5.42-2.64a197,197,0,0,0,18-8.87,448.38,448.38,0,0,0,44.51-28.79l.6-.43.57.46C149.51,53,171.78,63,193.32,72.71c6.82,3.06,13.87,6.23,20.64,9.48-4.29-4-9.23-6.49-14.35-8.91-8.09-3.82-16.75-8-25.24-12.63l-5.07-2.75c-13-7-26.48-14.33-38-24a1.72,1.72,0,0,0-1.12-.44,2.1,2.1,0,0,0-1.75,1.14l-.11.2-.18.13A484.82,484.82,0,0,1,83.14,64c-5.24,3-10.69,5.58-16,8.09l-4.41,2.1C59.08,76,54.89,78,52.44,81.11l-.48.61-.7-.33a2,2,0,0,0-.84-.18,1.76,1.76,0,0,0-1.25.47,1.4,1.4,0,0,0-.38,1.06c.11,6.44.32,13,.53,19.35.35,10.48.71,21.32.58,32-.06,5.37.12,10.92.3,16.29.3,9.08.6,18.47-.23,27.54l0,.46-.1.07.1.09-.06.64a.7.7,0,0,1,0,.22.41.41,0,0,0,.13.07l.55-.41-.45-.16.18-.83C52.24,168.78,51.81,159.77,51.36,150.22Z"/><path class="cls-16" d="M214,159.2c0,1.3-.08,2.62-.12,3.95-.2,5.38-.39,10.94.66,16.06l.16,1a71.64,71.64,0,0,0,.58-12.28c0-2,0-4.08,0-6.1.23-7.36.66-14.84,1.08-22.07q.19-3.31.37-6.62c.17-3.18.37-6.34.57-9.5.81-13,1.65-26.46.72-39.84a1.74,1.74,0,0,0-1.83-1.62,1.89,1.89,0,0,0-1,.24l-.48.29-.1.58a1.86,1.86,0,0,0,0,.44,396.92,396.92,0,0,1,.36,51.79C214.57,143.49,214.16,151.29,214,159.2Z"/><path class="cls-16" d="M79.3,197.8c2.88,1.64,5.86,3.35,8.75,5.05,10.55,6.25,21.31,12.56,31.71,18.66l12.62,7.41a1.86,1.86,0,0,0,.92.29c.94,0,1.6-1.06,1.67-2l0-.56.5-.24c13.29-6.41,26.19-14,38.68-21.39,4.15-2.44,8.29-4.89,12.46-7.3,2.7-1.56,5.49-3,8.18-4.37a129.52,129.52,0,0,0,11.4-6.34c2.42-1.57,5.28-3.88,6.31-5.76l-.36.29a8.79,8.79,0,0,1-2.47,1.58c-1.65.62-3.31,1.41-4.91,2.17-1.08.51-2.2,1-3.32,1.53-4.35,1.88-10.08,4.38-15.73,7.18-8.58,4.24-17,9.13-25.13,13.86-9.25,5.38-18.82,10.93-28.71,15.59l-.46.22-.44-.26c-14.9-8.67-27.23-15.79-38.8-22.42-2.93-1.68-5.92-3.46-8.82-5.17-10.42-6.19-21.19-12.58-32.55-16.6l-.17-.06.46.38C59.69,186.61,69.66,192.3,79.3,197.8Z"/><path class="cls-17" d="M135.11,275.56h-.35a3.7,3.7,0,0,1-.88-.19,4.08,4.08,0,0,1-2,.07,3.73,3.73,0,0,1-2.37-1.62c-2.69,1.51-4.05,1.82-5.36,1.52a3.68,3.68,0,0,1-2-1.18,3.85,3.85,0,0,1-1.69-.82,5.32,5.32,0,0,1-3.09.34,3.79,3.79,0,0,1-2.48-1.81,3.91,3.91,0,0,1-.35-3.11,5.16,5.16,0,0,1,1.37-2.19c-1.54-2.71-.13-5,4.2-8.12a4.1,4.1,0,0,1-.68-.53,6.7,6.7,0,0,1-4.34.8,3.93,3.93,0,0,1-2.59-1.88,4,4,0,0,1-.37-3.12c0-.1.06-.2.1-.3a3.78,3.78,0,0,1-1.35-1.37,3.9,3.9,0,0,1-.37-3,4.25,4.25,0,0,1-1.68-.05,3.72,3.72,0,0,1-2.42-1.77,4,4,0,0,1-.38-3.09c.6-2.22,3-4.22,9-7.8a2.9,2.9,0,0,1,.1-1,3.42,3.42,0,0,1,2.74-5c.55-.39,1.36-1,1.9-1.46,2.65-2.1,4.39-3.48,6.53-3.07a3.7,3.7,0,0,1,1.77.88c7.58-5.25,9.71-6.44,11.93-5.95a3.73,3.73,0,0,1,2.41,1.76,3.92,3.92,0,0,1,.44,1.14,3.66,3.66,0,0,1,1.77,1.56,4.13,4.13,0,0,1,.62,2.09,6.64,6.64,0,0,1,4.32-.82,3.88,3.88,0,0,1,2.54,1.85,4,4,0,0,1,.46,1.25,3.8,3.8,0,0,1,.59.78,4,4,0,0,1,.42,2.94,3.93,3.93,0,0,1,.34,2.95,5.19,5.19,0,0,1-1.25,2.17,3.92,3.92,0,0,1,1.62,1.54c1.32,2.28.58,4.27-2.19,6.67a4.18,4.18,0,0,1,.85.1,3.8,3.8,0,0,1,2.48,1.81,4,4,0,0,1,.37,3.08,4.56,4.56,0,0,1-.59,1.29,3.71,3.71,0,0,1,.8,1c2,3.38-.87,5.77-8.07,10.51.77,2.83-2.42,4.69-6.66,7.15l-.49.28a3.43,3.43,0,0,1-2.16,1.8A4.78,4.78,0,0,1,135.11,275.56Z"/><path class="cls-18" d="M200.36,197.67a4.16,4.16,0,0,0-.36-3.32,4.08,4.08,0,0,0-2.7-2c-1.68-.37-3.74.16-7.33,2.13a4,4,0,0,0-2.41-1.54c-2.57-.56-6,1.07-14.77,7a4.15,4.15,0,0,0-2.81-2c-3.18-.64-7.07,2-16.57,9.28-3.58,2.73-8.82,6.72-11,7.72a3.42,3.42,0,0,0-4.09,4.95,4.19,4.19,0,0,0,.46.63l-.6.37c-1.26,0-2.32.66-4.12,1.87-.35.24-.89.6-1.23.81a3.43,3.43,0,0,0-2,5,3.51,3.51,0,0,0,2.22,1.64l.4.07.35.11a3.36,3.36,0,0,0,2.27-.19c.08.32,2.42-.73,4.93-2.35.07.19,4.44,2.93,4.56,3.13l1.85,2.85c-2,2,1.71,5.32,2.7,5.55s1.71,1.75,3.69.77a3.77,3.77,0,0,0,.82.28,5.16,5.16,0,0,0,3.45-.6,3.73,3.73,0,0,0,2.35,1.61,5.42,5.42,0,0,0,3.82-.82,3.68,3.68,0,0,0,2.09,1.17,3.92,3.92,0,0,0,.69.06c1.77,0,3.27-1.24,5.12-2.77.36-.3.89-.73,1.29-1a3.39,3.39,0,0,0,1.34-.44,3.42,3.42,0,0,0,1.69-3.37c3.32-2.68,4.94-4.56,3.69-7a3.51,3.51,0,0,0,.27-.46,3.38,3.38,0,0,0,.55-1l1.17-.94c1.76-1.4,3.38-2.68,4-4.1,2.39-1.52,3.31-2.56,3.7-3.91,0-.08,0-.15.06-.23,3.45-2.2,4.83-3.66,5.3-5.29a4.06,4.06,0,0,0,0-2.38c2.15-1.68,3.26-3.05,3.63-4.44a4.13,4.13,0,0,0-.39-3.17,3.86,3.86,0,0,0-.37-.54A7,7,0,0,0,200.36,197.67ZM135.42,224a3.29,3.29,0,0,1,1,.88A3.4,3.4,0,0,0,135.42,224Z"/><path class="cls-18" d="M130.45,219.07a3.77,3.77,0,0,0-2.46-1.8,4.62,4.62,0,0,0-2.33.09c0-.1-.09-.19-.14-.29a6.17,6.17,0,0,0,2.42-3.06,3.88,3.88,0,0,0-.34-3.09,3.7,3.7,0,0,0-2.41-1.77c-1.48-.34-3,.07-6.33,2l-.43-.12c-1.17-.26-2.36-.06-4.27.9-.57-.8-2.46-4.33-6.89-4.36-.46,0,.18-.89.16-1.33a5,5,0,0,0,1.05-1.9,4,4,0,0,0-.37-3.11,3.71,3.71,0,0,0-2.43-1.77h0a4.57,4.57,0,0,0-.52-1.29,3.75,3.75,0,0,0-2.47-1.8,4.19,4.19,0,0,0-1.52-.06,3.7,3.7,0,0,0-2.88-3.42c-1.62-.37-3.17.14-7,2.6a3.84,3.84,0,0,0-1.13.06,3.83,3.83,0,0,0-2.32-1.66c-1.4-.31-2.62.08-4.94,1.55a4.6,4.6,0,0,0-.22-.42,3.66,3.66,0,0,0-2.33-1.69c-1.88-.41-3.29.6-6.1,2.62-.58.41-1.45,1-2,1.39a3.39,3.39,0,0,0-1.16.41,3.42,3.42,0,0,0-1.25,4.68,3.35,3.35,0,0,0,.59.75,3.59,3.59,0,0,0-.19,3.76,3.57,3.57,0,0,0-.46,4.49,3.68,3.68,0,0,0,2.38,1.74c1.13.25,3.94-.14,4.28.56a7,7,0,0,0-2.7,5,6.27,6.27,0,0,0-2.36,3.13,3.91,3.91,0,0,0,.36,3.06,3.73,3.73,0,0,0,2.44,1.78c1.53.34,5-2,8.4-4a31.73,31.73,0,0,1,2,3.41,28,28,0,0,0-3,1.75,3.43,3.43,0,0,0-2.13,5,3.46,3.46,0,0,0,.73.87,3.81,3.81,0,0,0,1.93,1.22,3.82,3.82,0,0,0,.51,1.86A3.74,3.74,0,0,0,85,238.58c1.17.26,2.33.05,4.26-1l.14.26c-1.92,2-2.28,3.66-1.17,5.58a3.76,3.76,0,0,0,2.46,1.8,4.37,4.37,0,0,0,1,.12c1.85,0,4.35-1.19,10.55-5.23a3.91,3.91,0,0,0,1.37.58c2.61.55,5.38-1.33,13-6.87a90.25,90.25,0,0,1,8.31-5.66,3.42,3.42,0,0,0,4-3.43,5.49,5.49,0,0,0,1.91-2.75A3.8,3.8,0,0,0,130.45,219.07Z"/><path class="cls-16" d="M190.92,195.93c-4-2.08-9.28-1.5-13.47-.57-7.55,1.67-14.6,5.65-21.1,9.68a133.16,133.16,0,0,0-12.93,9l-1.49,1.21a6.5,6.5,0,0,1,1.46,1.35l1-.51c7.68-4,15.31-8.09,23.15-11.76A77.41,77.41,0,0,1,177.76,200a25.8,25.8,0,0,1,8.85-1.24c1,.07,2.65.12,3.45.94l-.06-.07a.52.52,0,0,1,.09.11l0,0c.69.87.55,2.45.48,3.46a25.15,25.15,0,0,1-1,5.06,35,35,0,0,1-4.11,9.16,23.36,23.36,0,0,1-7.36,7.64,12.55,12.55,0,0,0-4.9-3.57,28.78,28.78,0,0,0-11.05-2.7,62.59,62.59,0,0,0-17.2,1.44l-.46.1a9,9,0,0,1-1,3.71s0,1-.07,1h1.06c2.45,0,4.93-.92,7.39-.88,4.18.06,8.33-.29,12.35.12a27.67,27.67,0,0,1,8.11,1.72,15.08,15.08,0,0,1,1.69.73l-.7-.05c.5.28.45.56.45,1h0c0,.08,1.11.46,1.12.54.08.34.53.68.53,1l.15,0,.12,0a5.8,5.8,0,0,1-.5,2,13.43,13.43,0,0,1-3.56,5.22,9.26,9.26,0,0,1-6.3,2.68c-2.35-.09-4.5-1.66-6.38-2.93q-6.16-4.16-12.43-8.13c-1.11-.7-2.21-1.4-3.32-2.08l-1.7-1a11.4,11.4,0,0,1-1.93,1q.94,1.08,2,2.14c5.06,5.24,11.4,9.9,18.23,12a12.72,12.72,0,0,0,7.42.4,17.14,17.14,0,0,0,6-3.3c2.63-2.15,6.35-6,5.85-9.8l0,0c.15-.11.27-.23.43-.36,3.59-3,6.3-7.23,8.64-11.27s4.56-8.23,5.37-12.75C194,200.09,193.64,197.36,190.92,195.93Z"/><path class="cls-16" d="M123,225.13l-1.29.78c-1.16.71-2.32,1.44-3.47,2.17q-6.28,4-12.43,8.13c-1.87,1.27-4,2.84-6.38,2.93a9.24,9.24,0,0,1-6.28-2.68,13.37,13.37,0,0,1-3.54-5.22,8.64,8.64,0,0,1-.52-1.89,2.9,2.9,0,0,1,.12-1.42l.11-.18,0,0a4.3,4.3,0,0,1,1.33-1.12,16.41,16.41,0,0,1,2.28-1,28.81,28.81,0,0,1,7.6-1.75c4-.4,8.21-.53,12.41-.6l6.85-.08,1.36,0h.59a6.53,6.53,0,0,1-.49-2.44c-.8-.2-1.61-.39-2.43-.57A56.43,56.43,0,0,0,99.6,219c-3.75.51-10.53,2.36-13,6.1A24.21,24.21,0,0,1,79,217a34.56,34.56,0,0,1-4-9.22c-.51-1.92-1.8-6.19-.34-8l-.06.06.13-.14-.06.08c.91-.93,2.85-.93,4-1A26.37,26.37,0,0,1,87,200a77.29,77.29,0,0,1,10.25,4.29c7.48,3.5,14.76,7.38,22.07,11.2l3.22,1.67a10.15,10.15,0,0,1,1.13-1.27c-1-.87-2.07-1.72-3.13-2.55-3.6-2.8-7.4-5.37-11.2-7.76-6.32-4-13.08-7.85-20.33-9.84-5.34-1.47-18.58-3.28-18,5.67.32,4.49,2.59,8.88,4.72,12.75A50.88,50.88,0,0,0,84,225.81a20.06,20.06,0,0,0,1.76,1.58,6,6,0,0,0,.41,3c1.6,4.14,5.72,7.75,9.73,9.49,4.58,2,9.39.46,13.67-1.63a51,51,0,0,0,11.3-8c.91-.82,1.8-1.66,2.65-2.54.37-.38.74-.76,1.09-1.15A6.88,6.88,0,0,1,123,225.13Z"/><path class="cls-16" d="M151,239.6a15.06,15.06,0,0,0-7.8-10.54,17.63,17.63,0,0,0-1.81-.8,22.33,22.33,0,0,0-5.29-1.24l-1.27.24a17.7,17.7,0,0,1,5.82,1.65,13.26,13.26,0,0,1,3.48,2.43,13,13,0,0,1,2.14,2.73,67.52,67.52,0,0,1-15.44,1.75c-4.14,0-8.26-1.41-12.31-1.76a12.64,12.64,0,0,1,2.75-3.31,13.43,13.43,0,0,1,3.52-2.16,16,16,0,0,1,3.09-1,10,10,0,0,1-1.29-.27,21.07,21.07,0,0,0-2.6.69,15.19,15.19,0,0,0-7.44,5.07c-3.26,4.24-3.69,9.62-3.34,14.75.6,8.77,3.79,19.75,11.75,24.65a12.8,12.8,0,0,0,13.1.33c3.95-2.26,6.67-6.11,8.68-10.1C150.18,256,152.61,247.24,151,239.6Zm-8.21,27.76c-2.64,3.38-6.58,5.92-11,5.41-4.12-.47-7.35-3.34-9.6-6.66,7.23,2.11,15.34,2.21,22.06-.88A21.49,21.49,0,0,1,142.8,267.35Zm4.45-9.49c-10,2.51-19.14,5-28.78-.36l-.26-.12a44.09,44.09,0,0,1-1.14-4.94c3.39,1.47,7.36,1.69,11.29,1.86,6.25.27,13.72,0,19.93-2.29A42.91,42.91,0,0,1,147.26,257.87Zm1.4-12.82c-9.38,3-22.39,3.6-32.28.91q-.08-1.59-.09-3.16a22.22,22.22,0,0,1,.5-4.16c2.47,2,6.67,2.35,9.6,2.78,7.12,1.08,15.08.71,21.86-1.83a26.26,26.26,0,0,1,.41,4.57C148.66,244.45,148.66,244.76,148.66,245.05Z"/><path class="cls-19" d="M130.59,232.6a3.89,3.89,0,0,1-.86-.1,3.77,3.77,0,0,1-1.93-1.15,4,4,0,0,1-2.2.13,3.66,3.66,0,0,1-2.23-1.49,3.84,3.84,0,0,1-1-.09,3.73,3.73,0,0,1-2.45-1.77,3.78,3.78,0,0,1-.35-2.94,4.29,4.29,0,0,1,.26-.69,3.78,3.78,0,0,1-1.17-.1,3.71,3.71,0,0,1-2.28-1.69c-1.15-2-.61-3.51,1.25-5.17a3.43,3.43,0,0,1,3.05-3.32c1-.55,3.06-2,4.5-2.94,5.4-3.67,6.9-4.61,8.85-4.16a3.51,3.51,0,0,1,1,.38c2.55-1.46,3.67-1.7,4.92-1.4a3.61,3.61,0,0,1,2.77,3.13,3.79,3.79,0,0,1,3.57,1.81,3.74,3.74,0,0,1,.35,2.91,5.85,5.85,0,0,1-2.53,3.12,3.7,3.7,0,0,1,.31.45,4.34,4.34,0,0,1,.5,1.23,3.67,3.67,0,0,1,1.22,1.24,3.43,3.43,0,0,1-2.75,5.13c-1,.58-3.15,2-4.62,3.07C134.14,231.38,132.29,232.6,130.59,232.6Z"/><path class="cls-20" d="M124.3,212c-.66-1.15-1.19-1.62-1.1-2.41a3.67,3.67,0,0,1-2.63-1.92,2.44,2.44,0,0,1,3.37-3.31,33.33,33.33,0,0,0,2.19-2.53c2.13-2.64,4-4.92,6.44-4.72a3.63,3.63,0,0,1,2.9,2,5.13,5.13,0,0,1,.57,1.42l.43,0c1,0,2.56.47,3.79,2.59a4.35,4.35,0,0,1,.62,2.85,3.76,3.76,0,0,1,2.21,1.87,2.44,2.44,0,0,1-2.79,3.56l-.42.72C138.85,213.9,125.53,214.15,124.3,212Zm-.55-6.16-1.06.61,1.06-.61Z"/><path class="cls-16" d="M140.44,210.68l.06-.14a4.71,4.71,0,0,0,1-2c.38-1.59,0-3.06-.85-3.5a9.27,9.27,0,0,0-1.45-2.67l.39-.28a11.06,11.06,0,0,0,3.7-4.92c1.38-3.69,1-8-2.67-10.13-.44-.27-1.28-.81-1.38,0a25.09,25.09,0,0,0,.41,6.92,8,8,0,0,1-1,5.85,12,12,0,0,1-.75,1.18,9.07,9.07,0,0,0-5-2.22,9.29,9.29,0,0,0-6.31,1.85,8.65,8.65,0,0,1-1.65-5.79c.22-1.48.55-2.85.64-4.36,0-.77.5-3.7-.47-3.95-.53-.13-1.8,1.07-2.15,1.4a7.67,7.67,0,0,0-1.48,1.94,7.82,7.82,0,0,0-.33,6.2,11.3,11.3,0,0,0,3.25,5.34c.22.2.44.38.67.56a8.63,8.63,0,0,0-1.81,2.78,5.61,5.61,0,0,0-.33,3,5.34,5.34,0,0,0,.12.73,4.86,4.86,0,0,0,.87,1.88c-3.2,2-5.51,5.07-5.17,9.17.52,6.3,7.65,11.21,13.55,11.82A11.53,11.53,0,0,0,145,220,11.41,11.41,0,0,0,140.44,210.68Zm-8.16-7c1.86,0,5,.27,6.83,1.58a4.34,4.34,0,0,0-1.34,2.36,4.2,4.2,0,0,0,.21,2.84,8.15,8.15,0,0,1-1.31.18c-1.3.07-3.12.29-4.24.34-1.7.07-3.37.63-5.05.13a3.72,3.72,0,0,1-1-.46,4,4,0,0,0,.33-3,5.13,5.13,0,0,0-.61-1.5,13.38,13.38,0,0,1,1.61-1.17A10.12,10.12,0,0,1,132.27,203.71Zm-.71,23.95a11.89,11.89,0,0,1-6.59-1,6.9,6.9,0,0,1-3.73-6.75c.17-1.71,2-3.91,3.53-5a11.57,11.57,0,0,1,3.25-1.5,16.35,16.35,0,0,0,2.64,1.08,8.82,8.82,0,0,0,7.07-1.07c3.56.87,6.8,2.73,6.78,6.45C144.5,225.79,136.52,227.26,131.57,227.66Z"/><path class="cls-17" d="M226.15,98.67a4,4,0,0,1-.9-.1,3.66,3.66,0,0,1-2.38-1.75,3.78,3.78,0,0,1-.45-1.24,4,4,0,0,1-2.31-1.83,4.08,4.08,0,0,1-.39-3.13c.25-.93-3.28-1.89-4.67-2.2a4.05,4.05,0,0,1-3.23-4,4,4,0,0,1-3-4.38,5.14,5.14,0,0,1-2.6.15,3.86,3.86,0,0,1-2.52-1.84,4.16,4.16,0,0,1-.38-3.23c.63-2.23,3.19-4.4,8.88-7.81a3.06,3.06,0,0,1,.28-1.37,3.43,3.43,0,0,1,1.48-4.2,3.49,3.49,0,0,1,1.87-.46c1.07-.63,3-2.13,4.43-3.18,4.86-3.67,7.12-5.28,9.48-4.8a3.84,3.84,0,0,1,1.61.75c8.57-5.93,11.33-7.4,13.78-6.87A3.81,3.81,0,0,1,247.6,49l0,0a3.22,3.22,0,0,1,.93.1A3.81,3.81,0,0,1,251.06,51a4.51,4.51,0,0,1,.61,1.73c2.4-1.15,4-1.43,5.26-1.14a4,4,0,0,1,2.65,1.92,4.09,4.09,0,0,1,.49,1.32,4,4,0,0,1,.53.72,4.07,4.07,0,0,1,.48,2.77l0,0a4,4,0,0,1,.37,3.12A5.8,5.8,0,0,1,259.89,64a4,4,0,0,1,1.37,1.41,4.12,4.12,0,0,1,.39,3.16c-.54,2-2.52,3.88-7,6.77a3.26,3.26,0,0,1,.08,1,4,4,0,0,1,.28.42l.09.17a3.66,3.66,0,0,1,.67.84,3.79,3.79,0,0,1,.33,3.07c-.78,2.47-3.42,3.95-13.5,8.68l-.8.38-2.24,1.61c-4.47,3.24-6.86,4.91-8.74,5.37C228.6,98.19,227.27,98.67,226.15,98.67Z"/><path class="cls-18" d="M212.75,80.46a3.22,3.22,0,0,1-.52,0A2.25,2.25,0,0,0,212.75,80.46Z"/><path class="cls-18" d="M219.67,51.1a3.76,3.76,0,0,0-2.28-1.7l-.14,0a4.39,4.39,0,0,0-.49-1.19,3.3,3.3,0,0,0-.47-.63,3.57,3.57,0,0,0,0-4,3.66,3.66,0,0,0-2.36-1.73,4.1,4.1,0,0,0-2.18.1A3.63,3.63,0,0,0,209,38.52c-1.7-.4-3,.13-8.14,3.51l-.08-.1a5,5,0,0,0-.38-.82,3.82,3.82,0,0,0-2.52-1.83,4.36,4.36,0,0,0-1.57-.06,3.81,3.81,0,0,0-.5-1.58,3.75,3.75,0,0,0-2.46-1.79c-1.7-.38-3.49.21-7.58,2.78a5.4,5.4,0,0,0-2.39.53,3.72,3.72,0,0,0-2.13-1.35c-2.22-.48-13.82,6.09-13.62,5.76,1-1.61-.59-2.61-2-2.56s-3.43,1.62-4,2.35a3.43,3.43,0,0,0-1.43,4.2c-1.42,2.75-2.15,4.33-1.1,6.15l.12.19a3.46,3.46,0,0,0,.09,3.72,3.71,3.71,0,0,0,2.44,1.78c1.2.27,2.41,0,4.44-1a4.19,4.19,0,0,0,1.1-.08,4.27,4.27,0,0,0,.55,1.53,4.83,4.83,0,0,0-1.65,3.58,5.5,5.5,0,0,0-1.65,2.51,3.92,3.92,0,0,0,.36,3.06,3.72,3.72,0,0,0,2.43,1.78c1.57.35,3.45.32,6.65-2.6,1.21-1.1,1-.09,1.07-.07,1.81.37,4.81,1.05,5,2.4a3.5,3.5,0,0,0-.5,4.48,3.71,3.71,0,0,0,1.72,1.54,3.69,3.69,0,0,0,2.08,1.29,3.89,3.89,0,0,0,1.31.09,3.66,3.66,0,0,0,2,1.23c2.09.45,4.35-.23,7.84-2.62a6.67,6.67,0,0,1,1.78,2.67c-.37.93-2,2-1.34,3.11A3.61,3.61,0,0,0,200,83.55a3.32,3.32,0,0,0,.46.14,3.61,3.61,0,0,0,.71.09c.36.45,8.32-3.06,7.54-4.66,3.3-2,3.45-6.95,2.86-8.53,1.61-3.64,2.82-6.51,2.71-6.48.45-1.1,2.91-2.2,1.68-4.15a1.37,1.37,0,0,0-1.43-.8c3.82-2.29,5.09-3.5,5.55-5.15A3.77,3.77,0,0,0,219.67,51.1Z"/><path class="cls-18" d="M252.54,104.15a3.76,3.76,0,0,0-2.29-1.69,3.91,3.91,0,0,0-2.25.13,9.48,9.48,0,0,0-4,1.8,3.39,3.39,0,0,0-.42-2.79,3.66,3.66,0,0,0-1.08-1.17,5.23,5.23,0,0,0,1.95-2.71,3.65,3.65,0,0,0-2.63-4.59c-1.1-.26-2-.18-4.25,1l-.06-.11a3.67,3.67,0,0,0-2.26-1.68l-.48-.09c-.09-.4-7,1.78-14.71-2.21-.47-.79-3.05-1.37-3.95-1.59-1.24-.31-2-.05-3.75,1-1.17,0-2.07.54-3.34,1.36l-.69.45a3.41,3.41,0,0,0-.84,5.95,4.38,4.38,0,0,0-.18,3.19c-1.94,2-2.67,3.61-1.51,5.61a3.66,3.66,0,0,0,2.29,1.68,3.6,3.6,0,0,0,1.57,0,3.2,3.2,0,0,0,.05,2.45c-3,2.24-4.63,4-4.74,5.78-2.31,1.59-3.24,2.7-3.61,4a3.83,3.83,0,0,0,.36,3,3.7,3.7,0,0,0,2.37,1.74c1.36.31,2.71,0,5.55-1.7l.37.1a4.81,4.81,0,0,0,2.87-.36c-3.08,2.45-4.81,4.25-4.95,6.09a6.51,6.51,0,0,0-2.62,3.32,3.88,3.88,0,0,0,0,2.08,3.8,3.8,0,0,0,1,3.59,3.9,3.9,0,0,0,.52,1.8,3.79,3.79,0,0,0,2.51,1.82,5,5,0,0,0,3.11-.39,3.57,3.57,0,0,0-.46,2.36,3.51,3.51,0,0,0-.58,4.63,3.65,3.65,0,0,0,2.34,1.72,3.86,3.86,0,0,0,.89.11c1.35,0,3-.73,6.4-2.87a3.79,3.79,0,0,0,.81.17l.26,0a3.66,3.66,0,0,0,2.08,1.1c2,.31,3.45-1,4.84-2.24l.54-.48a3.43,3.43,0,0,0,2.61-4.79c6.78-3.66,9.17-5.08,9.81-7.31a3.72,3.72,0,0,0-.35-2.88,3.67,3.67,0,0,0-2.35-1.73,3.85,3.85,0,0,0-1.07-.11,3.48,3.48,0,0,0,.11-3.28c4.21-2.38,5.78-3.84,6.35-5.58l.67-.38a3.38,3.38,0,0,0,1.14-.41,3.42,3.42,0,0,0,1.43-4.31,3.6,3.6,0,0,0-.46-1.41,3.23,3.23,0,0,0-.45-.61C252.23,109.38,254.27,107.14,252.54,104.15Z"/><path class="cls-17" d="M28,95.28a4,4,0,0,1-.91-.1,3.74,3.74,0,0,1-1.54-.74,4.54,4.54,0,0,1-1-.09,3.88,3.88,0,0,1-1.58-.73,6.15,6.15,0,0,1-3.88.64,3.82,3.82,0,0,1-2.5-1.82,3.94,3.94,0,0,1-.35-3.13,4.56,4.56,0,0,1,.39-.92,3.81,3.81,0,0,1-.31-.46c-1.28-2.22-.37-3.62,0-5.52-.38-.18-3.2.1-4.59-.2A3.92,3.92,0,0,1,8.59,78.4l-.3-.06a3.83,3.83,0,0,1-3-4.36A4.17,4.17,0,0,1,.58,72.05C-1.37,68.16,2,65.8,4.5,64.12c.87-.58,1.85-1.2,2.89-1.84a2.75,2.75,0,0,1,0-.3,3.71,3.71,0,0,1-.27-.4,3.43,3.43,0,0,1,2.63-5.12c.48-.35,1.16-.89,1.62-1.26,2.46-2,4.09-3.27,6.19-2.88a3.7,3.7,0,0,1,1.81.91C27,48,29,46.78,31.24,47.27A3.72,3.72,0,0,1,33.64,49,4.36,4.36,0,0,1,34,50a3.65,3.65,0,0,1,2,1.64,4,4,0,0,1,.6,2c3.12-1.77,4.83-2.21,6.33-1.88a3.86,3.86,0,0,1,2.32,1.51A3.81,3.81,0,0,1,47.56,55a4,4,0,0,1,.25.5,3.85,3.85,0,0,1,1.61,1.52A3.78,3.78,0,0,1,50,59.65a4.72,4.72,0,0,1,1.23.09,4.12,4.12,0,0,1,2.23,6.73,5.16,5.16,0,0,1,2.79-.22,3.82,3.82,0,0,1,2.5,1.82,4,4,0,0,1,.37,3.1l0,.16a3.7,3.7,0,0,1,1.43,1.4c2,3.38-.86,5.8-8.07,10.5a3.8,3.8,0,0,1,0,1.64c-.52,1.94-2.19,3-6.91,5.68l-.12.07A3.44,3.44,0,0,1,43,92.48l0,0c-1,1.07-2.35,2.54-4.44,2.31a3.74,3.74,0,0,1-.61-.12c-.91.34-1.69-.83-2.5-1-1-.2-1.32.85-1.86,0A10.61,10.61,0,0,1,28,95.28Z"/><path class="cls-18" d="M63.09,101.8a3.94,3.94,0,0,0-.35-3.11,3.81,3.81,0,0,0-2.5-1.82,4.87,4.87,0,0,0-2.49.14q-.09-.2-.21-.4a3.74,3.74,0,0,0-2-1.64,4.74,4.74,0,0,0,.58-1.22,4,4,0,0,0-.35-3.18,3.75,3.75,0,0,0-2.45-1.79,5,5,0,0,0-2.83.26,3.79,3.79,0,0,0-2.15-1.33c-1.62-.36-2.2,1.79-5.89,4-3.45,1.62-6.92,1.07-14.67,6.5L26.68,99c-6.89,3.32-10.2,5.08-11.8,6.7a3.42,3.42,0,0,0-1.27,2.12,3.82,3.82,0,0,0,.37,2.94,3.78,3.78,0,0,0,.56.75,4.47,4.47,0,0,0-.4.92,4,4,0,0,0,.35,3.19,3.79,3.79,0,0,0,2.5,1.82,4.67,4.67,0,0,0,2.31-.1c-3.27,2.65-4.15,4.64-2.78,7a3.83,3.83,0,0,0,2.32,1.71,3.92,3.92,0,0,0,.91.11c1.4,0,3.12-.8,7-3.24a3.58,3.58,0,0,0,.29,1.73c-2.39,1.88-3.63,3.48-3.68,5.1a7,7,0,0,0-2.82,3.52,4,4,0,0,0,.36,3.1,3.74,3.74,0,0,0,2.44,1.79c1.48.33,3.08-.1,6.29-2,.06,0,1.37,1.52,2.75,1a5.22,5.22,0,0,0-.86,3c-1.89,1.72-2.41,3.31-1.26,5.31a3.61,3.61,0,0,0,.65.83,3.49,3.49,0,0,0,.26.55,3.69,3.69,0,0,0,2.39,1.75l.07,0,0,0a3.65,3.65,0,0,0,2.4,1.73c1.27.27,2.46-.1,4.09-1.07l.11.2a3.75,3.75,0,0,0,2.52,1.75,3.93,3.93,0,0,0,.62.05,5.75,5.75,0,0,0,3.7-1.88l.24-.21a3.43,3.43,0,0,0,2.37-2.07c1.69-1.33,2.94-2.95,1.79-5.12l.05-.2c6-3.18,7.81-4.5,8.4-6.5a3.68,3.68,0,0,0-2.65-4.68c-1.11-.26-2.11-.11-4.05.92a4.4,4.4,0,0,0-.57-1.5,3.76,3.76,0,0,0-1-1.12,3.4,3.4,0,0,0-.15-3.28,10.25,10.25,0,0,0,3.08-3.89,5.72,5.72,0,0,0,2.1-2.81,4,4,0,0,0,.11-.5c2.14-1.56,3.1-2.76,3.48-4.07a4,4,0,0,0-.24-2.91c2-2.06,2.48-3.85,1.32-5.87a3.83,3.83,0,0,0-.57-.76A6.26,6.26,0,0,0,63.09,101.8Z"/><path class="cls-16" d="M216.69,60.93a15.06,15.06,0,0,0-5.23,12,18,18,0,0,0,.21,2,22.38,22.38,0,0,0,1.57,5.2c.29.32.57.65.85,1a17.71,17.71,0,0,1-1.48-5.87A13.28,13.28,0,0,1,213,71a13,13,0,0,1,1.3-3.22,67.52,67.52,0,0,1,9.23,12.49c2,3.6,2.91,7.86,4.63,11.54a12.64,12.64,0,0,1-4.24-.73,13.44,13.44,0,0,1-3.63-2,16,16,0,0,1-2.39-2.18,10,10,0,0,1,.41,1.25,21,21,0,0,0,1.9,1.91A15.19,15.19,0,0,0,228.28,94c5.3.71,10.17-1.61,14.45-4.48,7.3-4.9,15.21-13.15,15.48-22.5a12.8,12.8,0,0,0-6.26-11.51c-3.93-2.29-8.63-2.72-13.08-2.47C231.28,53.48,222.51,55.73,216.69,60.93Zm28.14-6.77c4.25.59,8.42,2.73,10.19,6.83,1.65,3.81.78,8-1,11.64-1.78-7.31-5.75-14.39-11.79-18.66A21.57,21.57,0,0,1,244.83,54.16Zm-10.44.89c7.17,7.42,13.87,14.09,14.08,25.11,0,.1,0,.19,0,.29a44.13,44.13,0,0,1-3.71,3.46c-.42-3.68-2.22-7.22-4-10.71-2.89-5.55-6.88-11.87-11.95-16.12A43.14,43.14,0,0,1,234.39,55.05Zm-11.8,5.2c7.28,6.63,14.31,17.59,16.93,27.51q-1.34.86-2.69,1.65A22.22,22.22,0,0,1,233,91.05c.49-3.13-1.3-7-2.39-9.7-2.62-6.7-6.92-13.42-12.51-18a26.23,26.23,0,0,1,3.75-2.64Z"/><path class="cls-18" d="M109.54,41.12a4.1,4.1,0,0,0-2.72-2,5,5,0,0,0-1.54-.09,4,4,0,0,0-.48-1.33,3.94,3.94,0,0,0-2.59-1.88c-1.78-.4-3.88.25-8.11,2.79a7,7,0,0,0-1.72.4,3.77,3.77,0,0,0-2.09-1.25c-2.24-.49-3.45.47-9.95,4.55a24.34,24.34,0,0,0-1.23-2.14A4.77,4.77,0,0,0,76,38.44c-1.74-.12-3.3.21-8.09,3.31a3.78,3.78,0,0,0-2.05-1.32c-1.28-.29-2.4,0-4.62,1.3-1.62.1-3.46,1.32-7.7,4.27l-1.43,1a37.38,37.38,0,0,0-3.71,2.09,3.43,3.43,0,0,0-2.41,4,3.62,3.62,0,0,0,.48,1.55,3.4,3.4,0,0,0,.55.71,4.44,4.44,0,0,0-.58,1.22,3.84,3.84,0,0,0,.34,3,3.71,3.71,0,0,0,2.41,1.76,7.77,7.77,0,0,0,1.68.09,4.18,4.18,0,0,0-.66,2.09c-.21,3.2,1.63,4.82,2.61,9.13.62,2.71-2.13,6-2.23,6.3A4.23,4.23,0,0,0,51,82.36a4,4,0,0,0,2.64,1.91,4.47,4.47,0,0,0,1,.11,11.37,11.37,0,0,0,4.89-1.54c1.58.25,3.46-.29,6.23-1.84,3,.11,6.86-2.63,15.25-9.08l2.72-2.08C95,64.2,98.09,61.95,99.42,59.56c2.48-1.7,3.37-3.11,3.37-4.58h0c3-2,5.31-3.69,5.8-5.35a4.36,4.36,0,0,0,.08-3.41,6.79,6.79,0,0,0,1-1.7A4.34,4.34,0,0,0,109.54,41.12Z"/><path class="cls-16" d="M158.92,48.2c.17,4.46,3.34,8.79,6.24,12,5.22,5.7,12.2,9.82,18.93,13.43a133.14,133.14,0,0,0,14.26,6.7l1.8.69a6.5,6.5,0,0,1,.44-1.94l-.93-.59c-7.3-4.65-14.66-9.21-21.76-14.17a77.48,77.48,0,0,1-8.84-6.73,25.83,25.83,0,0,1-5.49-7c-.45-.93-1.22-2.35-.91-3.46a.59.59,0,0,0,0,.09.52.52,0,0,1,0-.13v0c.4-1,1.85-1.7,2.75-2.14a25,25,0,0,1,4.86-1.71,35,35,0,0,1,10-1,23.36,23.36,0,0,1,10.3,2.55,12.56,12.56,0,0,0-.64,6,28.78,28.78,0,0,0,3.18,10.92,62.6,62.6,0,0,0,9.85,14.18l.32.35a5.78,5.78,0,0,1,3-.62s-.26.2.24-.06l-.09-.16-.43-.74h0c-1.23-2.13-2.59-4.19-3.79-6.34-2-3.65-4.08-7.27-5.74-10.95a27.91,27.91,0,0,1-2.4-8,16.38,16.38,0,0,1-.15-1.89c0-.58.07-2.27,1.37-2.81a11.14,11.14,0,0,1,2-.53,13.48,13.48,0,0,1,6.31.49,9.29,9.29,0,0,1,5.47,4.13c1.09,2.08.82,4.73.66,7q-.52,7.41-.82,14.83c-.05,1.31-.1,2.61-.14,3.92,0,.66,0,1.32,0,2a11.37,11.37,0,0,1,1.82,1.18q.46-1.35.87-2.77c2-7,2.87-14.82,1.24-21.77a12.72,12.72,0,0,0-3.37-6.63A17.15,17.15,0,0,0,203.49,43c-3.17-1.2-8.38-2.5-11.41-.17l0,0-.52-.19c-4.43-1.58-9.41-1.85-14.08-1.85s-9.41.17-13.73,1.72C161,43.47,158.8,45.14,158.92,48.2Z"/><path class="cls-16" d="M218.19,92.47l1.32.72c1.2.65,2.41,1.29,3.61,1.92q6.58,3.45,13.26,6.7c2,1,4.48,2.08,5.73,4.06a9.24,9.24,0,0,1,.82,6.78,13.37,13.37,0,0,1-2.75,5.67,10.72,10.72,0,0,1-1.38,1.77c-.4.3-.84,1-1.3,1h-.21s0-.37,0-.37a4.8,4.8,0,0,1-1.63-.77,16.58,16.58,0,0,1-2-1.55,29.08,29.08,0,0,1-5.32-5.75c-2.36-3.3-4.56-6.86-6.72-10.47-1.17-2-2.33-3.95-3.49-5.9l-.69-1.17-.31-.51a6.53,6.53,0,0,1-1.87,1.65q.34,1.18.72,2.38a56.42,56.42,0,0,0,8.66,17.15c2.31,3,7.31,7.94,11.77,8.18a24.22,24.22,0,0,1-3.26,10.72,34.57,34.57,0,0,1-6,8c-1.41,1.4-4.47,4.66-6.74,4.28l.09,0-.19,0h.1c-1.26-.32-2.23-2-2.84-3a26.4,26.4,0,0,1-3.06-7.82,77.26,77.26,0,0,1-1.41-11c-.71-8.22-1-16.47-1.34-24.72-.05-1.21-.11-2.42-.16-3.62a10.11,10.11,0,0,1-1.67-.35c-.24,1.32-.45,2.65-.64,4-.63,4.52-.95,9.1-1.12,13.58-.29,7.46-.26,15.26,1.64,22.53,1.4,5.36,6.45,17.73,13.88,12.72,3.73-2.52,6.39-6.68,8.69-10.47a50.85,50.85,0,0,0,5.93-12.94,20.26,20.26,0,0,0,.49-2.32,6,6,0,0,0,2.39-1.86c2.78-3.46,3.85-8.83,3.35-13.17-.57-5-4.3-8.37-8.25-11a51,51,0,0,0-12.61-5.77c-1.17-.38-2.34-.73-3.53-1-.51-.14-1-.26-1.54-.37A6.9,6.9,0,0,1,218.19,92.47Z"/><path class="cls-19" d="M206.76,102.07a4,4,0,0,1-.84-.09,3.71,3.71,0,0,1-2.43-1.73,3.43,3.43,0,0,1-.25-3.26l-.16-.08a4.29,4.29,0,0,1-1.11-.09A3.84,3.84,0,0,1,199.45,95a3.5,3.5,0,0,1-.19-3.41,4.33,4.33,0,0,1-.81-.09,3.87,3.87,0,0,1-2.55-1.8,3.71,3.71,0,0,1,.47-4.41,3.66,3.66,0,0,1-1.56-1.43,3.45,3.45,0,0,1,1.31-4.77,3.62,3.62,0,0,1,1.37-.45c.94-.52,2.84-1.79,4.16-2.67,4.87-3.25,6.51-4.35,8.58-3.89a3.71,3.71,0,0,1,2.39,1.72,3.49,3.49,0,0,1,.52,2.1,4.23,4.23,0,0,1,1.35.07A3.85,3.85,0,0,1,217,77.8a3.48,3.48,0,0,1,.32,3.07,4.26,4.26,0,0,1,1.3.07,3.88,3.88,0,0,1,2.55,1.81,3.66,3.66,0,0,1,.37,2.87,4,4,0,0,1-.25.66,3.76,3.76,0,0,1,.76.92c1.83,3.11-1.43,5.46-2.66,6.35l-.31.22a3.48,3.48,0,0,1-1.77,2.7,3.61,3.61,0,0,1-1.4.45c-.75.45-2.06,1.36-2.91,2C210,101,208.43,102.07,206.76,102.07Z"/><path class="cls-20" d="M199.36,102.63a2.48,2.48,0,0,1-1.19-.3,3.12,3.12,0,0,1-1,.17h0a3.45,3.45,0,0,1-3-2,3.8,3.8,0,0,1-.53-2.54,2.59,2.59,0,0,1-.68.07,3.66,3.66,0,0,1-3.2-2.14,3.71,3.71,0,0,1-.39-3.2,3.47,3.47,0,0,1,.59-1,3,3,0,0,1-1.51-1.33A2.28,2.28,0,0,1,190.9,87c.38-.38.85-.9,1.17-1.27,1.51-1.69,2.95-3.29,4.83-3.1a3,3,0,0,1,2.26,1.51,3.66,3.66,0,0,1,.49,2.55,3.92,3.92,0,0,1,2.48,2.06,3.81,3.81,0,0,1,.43,3.19l0,.06a3.49,3.49,0,0,1,2.89,2,3.32,3.32,0,0,1,.28,3l-.05.12.06.11a2.29,2.29,0,0,1,.28.82c.51,1.41.21,2.44-.93,3a2.16,2.16,0,0,1-3-.8,3,3,0,0,1-2.35,2.29A2.76,2.76,0,0,1,199.36,102.63Z"/><path class="cls-16" d="M196.93,84.55l-.15,0a4.72,4.72,0,0,0-2.24.15c-1.57.47-2.65,1.53-2.61,2.48a9.29,9.29,0,0,0-1.59,2.59l-.43-.2a11.07,11.07,0,0,0-6.11-.74c-3.88.65-7.41,3.09-7.44,7.38,0,.52-.06,1.51.73,1.17a25.09,25.09,0,0,0,5.79-3.82,8,8,0,0,1,5.55-2.09,12.28,12.28,0,0,1,1.39.06,9.07,9.07,0,0,0,.6,5.48,9.29,9.29,0,0,0,4.76,4.54,8.66,8.66,0,0,1-4.19,4.32c-1.39.55-2.74,1-4.09,1.63-.69.35-3.46,1.42-3.19,2.38.15.53,1.83,1,2.28,1.16a7.67,7.67,0,0,0,2.42.32,7.82,7.82,0,0,0,5.54-2.81,11.29,11.29,0,0,0,3-5.48c.06-.29.11-.57.15-.86a8.61,8.61,0,0,0,3.31.18,5.61,5.61,0,0,0,2.81-1.24,5.43,5.43,0,0,0,.57-.46A4.84,4.84,0,0,0,205,99c3.29,1.79,7.14,2.24,10.53-.11,5.19-3.6,5.89-12.23,3.46-17.64A11.53,11.53,0,0,0,202.71,76,11.41,11.41,0,0,0,196.93,84.55Zm-2,10.56c-.94-1.61-2.24-4.43-2-6.7a4.34,4.34,0,0,0,2.71,0,4.2,4.2,0,0,0,2.36-1.6,8.23,8.23,0,0,1,.81,1c.71,1.1,1.81,2.56,2.41,3.51.91,1.44,2.22,2.6,2.63,4.31a3.73,3.73,0,0,1,.08,1.06,4,4,0,0,0-2.78,1.23,5.11,5.11,0,0,0-1,1.28,13.43,13.43,0,0,1-1.82-.81A10.12,10.12,0,0,1,195,95.11Zm21.09-11.36a11.89,11.89,0,0,1,2.47,6.18,6.9,6.9,0,0,1-4,6.6c-1.56.71-4.4.21-6.06-.58a11.58,11.58,0,0,1-2.92-2.07,16.45,16.45,0,0,0-.39-2.83,8.83,8.83,0,0,0-4.46-5.59c-1-3.52-1-7.25,2.2-9.1C208,73.48,213.25,79.65,216.07,83.75Z"/><path class="cls-16" d="M47.29,149.61c3.78-2.38,5.94-7.29,7.23-11.38,2.33-7.37,2.4-15.47,2.17-23.11a133,133,0,0,0-1.33-15.7c-.1-.64-.2-1.27-.3-1.9a6.48,6.48,0,0,1-1.9.59c0,.36,0,.73,0,1.1-.38,8.65-.65,17.3-1.39,25.93a77.57,77.57,0,0,1-1.41,11A25.82,25.82,0,0,1,47,144.44c-.58.86-1.43,2.23-2.54,2.52h.09l-.14,0h0c-1.1.17-2.4-.75-3.23-1.31a25,25,0,0,1-3.91-3.35,35,35,0,0,1-5.88-8.14A23.36,23.36,0,0,1,28.46,124,12.55,12.55,0,0,0,34,121.5a28.77,28.77,0,0,0,7.87-8.22,62.61,62.61,0,0,0,7.35-15.62l.14-.45a5.78,5.78,0,0,1-2.05-2.32s.31.13-.17-.18l-.09.16-.43.74h0c-1.23,2.13-2.34,4.34-3.6,6.45-2.14,3.59-4.25,7.16-6.61,10.44a28,28,0,0,1-5.72,6.07,16.39,16.39,0,0,1-1.56,1.07c-.5.28-2,1.08-3.12.22a11.09,11.09,0,0,1-1.46-1.47,13.47,13.47,0,0,1-2.73-5.71,9.29,9.29,0,0,1,.84-6.8c1.25-2,3.69-3.08,5.73-4.06q6.68-3.25,13.26-6.7c1.16-.61,2.31-1.22,3.46-1.84l1.74-1a11.38,11.38,0,0,1,.11-2.17q-1.4.28-2.83.63c-7.07,1.76-14.27,4.92-19.47,9.81a12.73,12.73,0,0,0-4.06,6.23,17.15,17.15,0,0,0-.12,6.81c.54,3.35,2,8.51,5.56,10a.3.3,0,0,0,0,0c0,.19.07.35.1.55.85,4.63,3.11,9.07,5.44,13.12s4.85,8.07,8.36,11C42.16,150.19,44.7,151.25,47.29,149.61Z"/><path class="cls-16" d="M56,76.15c0-.5,0-1,0-1.5,0-1.36-.09-2.73-.15-4.09q-.3-7.42-.83-14.83c-.16-2.26-.44-4.91.66-7a9.24,9.24,0,0,1,5.46-4.1,13.38,13.38,0,0,1,6.29-.46,8.72,8.72,0,0,1,1.9.49,2.9,2.9,0,0,1,1.17.82l.1.18v0a4.33,4.33,0,0,1,.31,1.71,16.57,16.57,0,0,1-.25,2.49,28.83,28.83,0,0,1-2.28,7.46c-1.67,3.7-3.64,7.37-5.69,11-1.11,2-2.25,4-3.36,6l-.66,1.18-.29.52a6.55,6.55,0,0,1,2.36.79q.86-.89,1.71-1.82A56.45,56.45,0,0,0,73,59c1.44-3.5,3.22-10.3,1.2-14.29a24.21,24.21,0,0,1,10.91-2.54,34.54,34.54,0,0,1,10,1.18c1.92.52,6.27,1.54,7.08,3.7a.29.29,0,0,0,0-.09c0,.06,0,.12.06.18a.44.44,0,0,0,0-.09c.35,1.26-.61,2.93-1.17,4a26.39,26.39,0,0,1-5.24,6.56,77.24,77.24,0,0,1-8.84,6.73C80.09,69,73.09,73.37,66.12,77.79l-3.05,2a10.06,10.06,0,0,1,.53,1.62c1.26-.45,2.52-.93,3.77-1.44,4.23-1.72,8.35-3.73,12.32-5.82C86.31,70.62,93,66.7,98.39,61.41,102.33,57.52,110.52,47,102.46,43c-4-2-9-2.19-13.41-2.29a50.88,50.88,0,0,0-14.17,1.34,20.2,20.2,0,0,0-2.25.73,6,6,0,0,0-2.8-1.14c-4.38-.68-9.57,1.08-13.08,3.68-4,3-5.1,7.91-5.42,12.66a51,51,0,0,0,1.31,13.81c.26,1.2.54,2.39.87,3.57.14.51.29,1,.45,1.52A6.92,6.92,0,0,1,56,76.15Z"/><path class="cls-16" d="M29.43,93.22a15.06,15.06,0,0,0,13-1.48,17.67,17.67,0,0,0,1.6-1.17,22.33,22.33,0,0,0,3.72-4c.13-.41.28-.82.42-1.22a17.7,17.7,0,0,1-4.34,4.21A13.26,13.26,0,0,1,40,91.4a13,13,0,0,1-3.43.48,67.56,67.56,0,0,1,6.2-14.24c2.09-3.57,5.35-6.45,7.68-9.78a12.62,12.62,0,0,1,1.49,4A13.42,13.42,0,0,1,52.07,76a16.14,16.14,0,0,1-.7,3.16,9.89,9.89,0,0,1,.88-1,21,21,0,0,0,.7-2.6,15.18,15.18,0,0,0-.67-9c-2-4.94-6.48-8-11.11-10.27-7.89-3.87-19-6.6-27.23-2.15A12.81,12.81,0,0,0,7.12,65.39c0,4.55,2,8.83,4.4,12.56C15.68,84.31,22,90.77,29.43,93.22ZM9.5,72.23c-1.61-4-1.84-8.66.82-12.24,2.47-3.33,6.56-4.69,10.57-5-5.44,5.2-9.59,12.18-10.27,19.54A21.43,21.43,0,0,1,9.5,72.23Zm6,8.6c2.84-9.92,5.26-19.06,14.7-24.75l.23-.17a44.34,44.34,0,0,1,4.85,1.48c-3,2.2-5.14,5.53-7.25,8.85-3.36,5.27-6.84,11.9-8,18.41A43,43,0,0,1,15.49,80.83Zm10.4,7.62C28,78.83,34,67.25,41.24,60q1.41.73,2.78,1.51a22.14,22.14,0,0,1,3.35,2.51c-3,1.14-5.37,4.61-7.21,6.92C35.67,76.6,32,83.68,30.82,90.82a26.19,26.19,0,0,1-4.16-1.93Z"/><path class="cls-19" d="M53.83,99.5a3.89,3.89,0,0,1-.86-.1,3.62,3.62,0,0,1-2-1.18,4,4,0,0,1-2,.08,3.66,3.66,0,0,1-2.21-1.47,4,4,0,0,1-1.09-.09A3.73,3.73,0,0,1,43.23,95,3.77,3.77,0,0,1,42.87,92a4.41,4.41,0,0,1,.22-.61,3.67,3.67,0,0,1-1.28-.09,3.59,3.59,0,0,1-2.28-1.69c-1.24-2.15-.06-4,1.24-5.17a3.43,3.43,0,0,1,3.06-3.31c1-.55,3.08-2,4.53-3,5.43-3.68,6.93-4.63,8.88-4.18a3.58,3.58,0,0,1,1,.37c2.58-1.48,3.71-1.72,5-1.42a3.6,3.6,0,0,1,2.29,1.7,3.71,3.71,0,0,1,.47,1.4,3.84,3.84,0,0,1,1.31.09,3.64,3.64,0,0,1,2.34,1.72,3.74,3.74,0,0,1,.35,2.91,5.66,5.66,0,0,1-2.37,3c-1.3.71-5.85,10-7.13,11.38C56.63,99.41,55.56,99.5,53.83,99.5Z"/><path class="cls-20" d="M65.6,104.23h0a3.52,3.52,0,0,1-3.07-2,4.65,4.65,0,0,1-.43-1,4.14,4.14,0,0,1-.58,0c-1,0-2.15-.72-3.71-2.54C57,97.75,62,88,62.22,87.83c.49-.54,1-1.19,1.41-1.66,2-2.42,3.69-4.5,6-4.32a3.44,3.44,0,0,1,2.73,1.84,4.22,4.22,0,0,1,.43,3.8,3.84,3.84,0,0,1-.19.4,6.08,6.08,0,0,1,1.24,1.56,4.38,4.38,0,0,1,.45,3.93,4.26,4.26,0,0,1-1.21,1.68,5.27,5.27,0,0,1,.51.74,2.38,2.38,0,0,1-2.7,3.49l-.42.27-.38.65C69,102.18,67.78,104.23,65.6,104.23Z"/><path class="cls-16" d="M59.77,98.51l.09.12a4.72,4.72,0,0,0,1.25,1.86c1.19,1.12,2.65,1.53,3.46,1a9.29,9.29,0,0,0,3,.08c0,.21,0,.38,0,.47a11.07,11.07,0,0,0,2.41,5.66c2.51,3,6.38,4.88,10.11,2.75.46-.25,1.34-.7.65-1.21a18.91,18.91,0,0,0-2.26-1.39,18.81,18.81,0,0,0-3.94-1.72A8,8,0,0,1,70,102.41a12.42,12.42,0,0,1-.65-1.24,9.06,9.06,0,0,0,4.44-3.26,9.29,9.29,0,0,0,1.56-6.39A8.66,8.66,0,0,1,81.23,93c1.17.93,2.2,1.9,3.46,2.73.65.43,3,2.28,3.65,1.57.38-.39,0-2.1-.14-2.56a7.69,7.69,0,0,0-.94-2.25,7.82,7.82,0,0,0-5.2-3.39,11.29,11.29,0,0,0-6.24.14c-.28.09-.55.19-.83.3a8.59,8.59,0,0,0-1.5-3,7.08,7.08,0,0,0-3.16-2.07,4.85,4.85,0,0,0-2.06-.18c-.1-3.75-1.63-7.31-5.36-9.06-5.71-2.7-13.53,1-17,5.82A11.53,11.53,0,0,0,49.44,97.8,11.41,11.41,0,0,0,59.77,98.51Zm10.12-3.59c-.93,1.62-2.72,4.16-4.78,5.12a4.34,4.34,0,0,0-1.37-2.33,4.2,4.2,0,0,0-2.57-1.24,8.34,8.34,0,0,1,.5-1.22c.59-1.16,1.31-2.85,1.83-3.84.79-1.51,1.14-3.23,2.42-4.44a3.72,3.72,0,0,1,.88-.59,4,4,0,0,0,2.45,1.79,5.1,5.1,0,0,0,1.61.22,13.4,13.4,0,0,1,.2,2A10.11,10.11,0,0,1,69.88,94.93ZM49.5,82.34a11.89,11.89,0,0,1,4.12-5.23,6.9,6.9,0,0,1,7.71.14c1.39,1,2.38,3.7,2.53,5.54a11.59,11.59,0,0,1-.33,3.56,16.42,16.42,0,0,0-2.25,1.75,8.83,8.83,0,0,0-2.61,6.66c-2.53,2.66-5.77,4.52-9,2.65C44.65,94.47,47.36,86.83,49.5,82.34Z"/></g><path class="cls-21" d="M118.8,105.83,156.73,134a4.66,4.66,0,0,1,0,7.47L118.8,169.73a4.66,4.66,0,0,1-7.44-3.74V109.57A4.66,4.66,0,0,1,118.8,105.83Z"/></g></g></svg>