<svg xmlns="http://www.w3.org/2000/svg" xmlns:xlink="http://www.w3.org/1999/xlink" viewBox="0 0 30 30"><defs><style>.cls-1{fill:none;}.cls-2{isolation:isolate;}.cls-3{clip-path:url(#clip-path);}.cls-4{opacity:0.7;}.cls-5{clip-path:url(#clip-path-2);}.cls-6{mix-blend-mode:soft-light;}.cls-7{fill:#fff;}.cls-8{clip-path:url(#clip-path-3);}.cls-9{clip-path:url(#clip-path-4);}.cls-10{fill:url(#radial-gradient);}.cls-11{fill:#999;}</style><clipPath id="clip-path"><rect class="cls-1" x="-879.11" y="-812.04" width="1920" height="530"/></clipPath><clipPath id="clip-path-2"><rect class="cls-1" x="-879.11" y="-1160.69" width="1920" height="1080"/></clipPath><clipPath id="clip-path-3"><polyline class="cls-1" points="-377.66 -191.25 -233.32 -107.92 -233.32 58.75 -377.66 142.09 -522 58.75 -522 -107.92 -377.66 -191.25"/></clipPath><clipPath id="clip-path-4"><polygon class="cls-1" points="-377.66 -189.82 -520.76 -107.2 -520.76 58.04 -377.66 140.66 -234.56 58.04 -234.56 -107.2 -377.66 -189.82 -377.66 -189.82"/></clipPath><radialGradient id="radial-gradient" cx="583.07" cy="347.74" r="1148.85" gradientUnits="userSpaceOnUse"><stop offset="0" stop-color="#fff8da"/><stop offset="0.4" stop-color="#ffe264"/><stop offset="1" stop-color="#fc9200"/></radialGradient></defs><title>plus</title><g class="cls-2"><g id="Layer_1" data-name="Layer 1"><g class="cls-3"><g class="cls-4"><g class="cls-5"><g class="cls-6"><rect class="cls-7" x="-920.16" y="-1250.5" width="2002.1" height="1261.89"/></g></g></g></g><g class="cls-8"><g class="cls-9"><rect class="cls-10" x="-593.04" y="-313.82" width="2352.22" height="1323.12"/></g></g><path class="cls-11" d="M16.75,16.79V28.25A1.75,1.75,0,0,1,15,30h0a1.75,1.75,0,0,1-1.75-1.75V16.79H1.75A1.75,1.75,0,0,1,0,15v0a1.75,1.75,0,0,1,1.75-1.75H13.25V1.75A1.75,1.75,0,0,1,15,0h0a1.75,1.75,0,0,1,1.75,1.75V13.25H28.25A1.75,1.75,0,0,1,30,15v0a1.75,1.75,0,0,1-1.75,1.75Z"/></g></g></svg>