<svg xmlns="http://www.w3.org/2000/svg" width="46.569" height="36.926" viewBox="0 0 46.569 36.926">
  <path id="Path_319" data-name="Path 319" d="M619.958,4678.943l-1.312-2.164q11.151-5.969,11.151-11.151a3.067,3.067,0,0,0-.919-2.2,13.617,13.617,0,0,0-3.279-2.2,14.576,14.576,0,0,1-5.149-3.9,8.376,8.376,0,0,1-1.541-5.149,9.817,9.817,0,0,1,2.951-7.215,9.661,9.661,0,0,1,7.084-2.951,9.052,9.052,0,0,1,7.51,3.672,15.172,15.172,0,0,1,2.853,9.577,21.987,21.987,0,0,1-1.869,8.92,23.781,23.781,0,0,1-5.542,7.739A38.907,38.907,0,0,1,619.958,4678.943Zm25.908,0-1.312-2.164q11.151-5.9,11.15-11.151,0-2.229-4.2-4.394a15.543,15.543,0,0,1-5.215-3.935,8.3,8.3,0,0,1-1.475-5.116,10.187,10.187,0,0,1,10.1-10.166,8.99,8.99,0,0,1,7.445,3.672,15.172,15.172,0,0,1,2.853,9.577,22.137,22.137,0,0,1-7.346,16.659,29.085,29.085,0,0,1-4.887,3.706A56.277,56.277,0,0,1,645.866,4678.943Z" transform="translate(-618.646 -4642.017)" fill="#ffc69b"/>
</svg>
