<svg xmlns="http://www.w3.org/2000/svg" xmlns:xlink="http://www.w3.org/1999/xlink" viewBox="0 0 25 25"><defs><style>.cls-1{fill:none;}.cls-2{isolation:isolate;}.cls-3{clip-path:url(#clip-path);}.cls-4{opacity:0.7;}.cls-5{clip-path:url(#clip-path-2);}.cls-6{mix-blend-mode:soft-light;}.cls-7{fill:#fff;}.cls-8{clip-path:url(#clip-path-3);}.cls-9{clip-path:url(#clip-path-4);}.cls-10{fill:url(#radial-gradient);}</style><clipPath id="clip-path"><rect class="cls-1" x="-736.62" y="-822.25" width="1920" height="530"/></clipPath><clipPath id="clip-path-2"><rect class="cls-1" x="-736.62" y="-1170.89" width="1920" height="1080"/></clipPath><clipPath id="clip-path-3"><polyline class="cls-1" points="-235.18 -201.45 -90.84 -118.12 -90.84 48.55 -235.18 131.88 -379.51 48.55 -379.51 -118.12 -235.18 -201.45"/></clipPath><clipPath id="clip-path-4"><polygon class="cls-1" points="-235.18 -200.02 -378.27 -117.4 -378.27 47.84 -235.18 130.45 -92.08 47.84 -92.08 -117.4 -235.18 -200.02 -235.18 -200.02"/></clipPath><radialGradient id="radial-gradient" cx="725.55" cy="337.54" r="1148.85" gradientUnits="userSpaceOnUse"><stop offset="0" stop-color="#fff8da"/><stop offset="0.4" stop-color="#ffe264"/><stop offset="1" stop-color="#fc9200"/></radialGradient></defs><title>Search icon</title><g class="cls-2"><g id="Layer_1" data-name="Layer 1"><g class="cls-3"><g class="cls-4"><g class="cls-5"><g class="cls-6"><rect class="cls-7" x="-777.67" y="-1260.7" width="2002.1" height="1261.89"/></g></g></g></g><g class="cls-8"><g class="cls-9"><rect class="cls-10" x="-450.56" y="-324.03" width="2352.22" height="1323.12"/></g></g><path class="cls-7" d="M10.83,3.09A7.75,7.75,0,1,1,5.36,5.36a7.7,7.7,0,0,1,5.48-2.27m0-3.09A10.83,10.83,0,1,0,18.5,3.17,10.8,10.8,0,0,0,10.83,0Z"/><path class="cls-7" d="M23.46,25a1.54,1.54,0,0,1-1.09-.45l-5.79-5.79a1.54,1.54,0,0,1,2.18-2.18l5.79,5.79A1.54,1.54,0,0,1,23.46,25Z"/></g></g></svg>