<?xml version="1.0" encoding="utf-8"?>
<!-- Generator: Adobe Illustrator 16.0.0, SVG Export Plug-In . SVG Version: 6.00 Build 0)  -->
<!DOCTYPE svg PUBLIC "-//W3C//DTD SVG 1.1//EN" "http://www.w3.org/Graphics/SVG/1.1/DTD/svg11.dtd">
<svg version="1.1" id="Layer_1" xmlns="http://www.w3.org/2000/svg" xmlns:xlink="http://www.w3.org/1999/xlink" x="0px" y="0px"
	 width="470px" height="493px" viewBox="0 0 470 493" enable-background="new 0 0 470 493" xml:space="preserve">
<g>
	<g>
		<path fill="#FF9026" d="M443.124,157.987c0.223-0.385,0.379-0.789,0.555-1.188c1.215-1.35,2.059-2.695,2.51-4.119
			c0.41-1.287,0.492-2.598,0.311-3.867c0.234-1.85,0.074-3.768-0.562-5.703c-0.855-2.613-2.613-5.281-5.203-8.037
			c1.887-1.818,3.059-3.562,3.613-5.412c0.691-2.307,0.426-4.693-0.742-6.719c-0.41-0.711-0.926-1.336-1.523-1.861
			c-0.182-0.926-0.516-1.818-1-2.654c-0.623-1.082-1.484-1.969-2.512-2.617c-0.104-0.219-0.215-0.438-0.338-0.648
			c-1.049-1.816-2.76-3.082-4.834-3.574c-0.188-0.672-0.463-1.324-0.82-1.945c-1.059-1.828-2.795-3.1-4.898-3.578
			c-1.271-0.289-2.633-0.281-4.289,0.117c-0.105-0.225-0.223-0.445-0.348-0.664c-0.531-0.922-1.238-1.701-2.074-2.309
			c-0.186-0.793-0.488-1.562-0.906-2.285c-1.055-1.828-2.793-3.098-4.893-3.576c-2.49-0.57-5.326,0.006-10.049,2.408
			c-0.1-1.262-0.477-2.49-1.125-3.609c-1.072-1.859-2.836-3.145-4.975-3.617c-1.002-0.223-2.041-0.27-3.211-0.104
			c-1.084-1.635-2.736-2.768-4.705-3.207c-0.662-0.146-1.342-0.219-2.08-0.199c-0.176-0.195-0.363-0.381-0.562-0.557
			c0.369-1.992,0.029-4.002-0.979-5.746c-1.049-1.818-2.773-3.082-4.859-3.559c-2.646-0.609-5.371-0.148-11.066,2.93
			c-0.586-0.305-1.213-0.535-1.881-0.684c-0.748-0.168-1.518-0.248-2.344-0.193c-0.111-0.254-0.24-0.502-0.381-0.746
			c-0.018-0.035-0.041-0.07-0.059-0.105c0.531-0.82,0.926-1.648,1.195-2.506c0.756-2.373,0.504-4.838-0.715-6.943
			c-1.049-1.818-2.777-3.086-4.869-3.564c-0.475-0.111-0.961-0.184-1.467-0.211c-0.051-0.096-0.104-0.193-0.162-0.289
			c-1.049-1.818-2.777-3.084-4.863-3.562c-0.621-0.145-1.248-0.244-1.945-0.221c-0.035-0.062-0.07-0.125-0.105-0.189
			c-1.055-1.82-2.783-3.084-4.873-3.557c-1.371-0.307-2.805-0.291-4.596,0.193c-0.498-0.227-1.02-0.402-1.57-0.525
			c-2.326-0.518-4.889-0.1-8.859,1.803c-0.768-0.523-1.631-0.908-2.572-1.137c-0.006-0.008-0.012-0.016-0.018-0.023
			c-1.09-1.889-2.883-3.188-5.051-3.66c-0.012,0-0.023-0.004-0.033-0.006c-0.281-0.26-0.582-0.498-0.898-0.711
			c-0.086-0.17-0.176-0.338-0.27-0.504c-0.977-1.689-2.516-2.908-4.383-3.48c-0.791-1.18-1.871-2.096-3.156-2.682
			c0.197-1.793-0.172-3.572-1.08-5.145c-1.049-1.818-2.777-3.082-4.863-3.562c-2.268-0.514-4.682-0.207-9.033,1.902
			c-0.738-0.572-1.584-1.008-2.516-1.283c-0.945-1.074-2.186-1.852-3.605-2.258c-1.113-1.551-2.752-2.617-4.68-3.033
			c-0.082-0.016-0.164-0.021-0.246-0.035c-0.098-1.945-0.621-3.824-1.629-5.568c-1.652-2.863-4.26-4.814-7.57-5.674
			c-1.703-2.215-4.119-3.695-7.072-4.312c-1.055-0.221-2.205-0.309-3.439-0.289c-0.1-0.193-0.203-0.385-0.311-0.574
			c-1.705-2.953-4.463-4.9-7.971-5.629c-0.199-0.043-0.4-0.078-0.605-0.111c-0.264-0.938-0.648-1.848-1.156-2.725
			c-1.654-2.865-4.328-4.756-7.729-5.465c-4.271-0.889-10.057,0.383-17.352,3.533c-7.332-3.176-13.15-4.455-17.443-3.553
			c-3.402,0.709-6.074,2.6-7.73,5.467c-0.506,0.873-0.893,1.783-1.156,2.719c-0.205,0.035-0.404,0.068-0.604,0.111
			c-3.51,0.73-6.264,2.678-7.969,5.631c-0.111,0.191-0.217,0.381-0.316,0.578c-1.236-0.021-2.379,0.068-3.436,0.285
			c-2.953,0.619-5.371,2.1-7.074,4.314c-3.309,0.861-5.92,2.812-7.572,5.676c-1.008,1.746-1.529,3.627-1.623,5.574
			c-0.09,0.016-0.182,0.021-0.264,0.039c-1.934,0.414-3.572,1.482-4.686,3.031c-1.422,0.408-2.662,1.188-3.611,2.262
			c-0.926,0.275-1.77,0.709-2.508,1.279c-4.354-2.105-6.779-2.418-9.035-1.9c-2.086,0.477-3.811,1.742-4.863,3.559
			c-0.908,1.574-1.275,3.355-1.078,5.146c-1.287,0.588-2.367,1.502-3.152,2.684c-1.869,0.574-3.41,1.791-4.385,3.482
			c-0.098,0.164-0.186,0.332-0.268,0.502c-0.322,0.213-0.627,0.453-0.904,0.715c-0.012,0-0.016,0.002-0.027,0.004
			c-2.168,0.473-3.965,1.773-5.055,3.656c-0.004,0.012-0.008,0.021-0.014,0.029c-0.943,0.227-1.811,0.613-2.572,1.133
			c-3.969-1.902-6.527-2.328-8.859-1.801c-0.551,0.121-1.078,0.301-1.57,0.527c-1.789-0.482-3.227-0.506-4.6-0.195
			c-2.092,0.475-3.82,1.736-4.869,3.559c-0.035,0.062-0.074,0.125-0.105,0.188c-0.639-0.035-1.32,0.074-1.945,0.219
			c-2.092,0.48-3.814,1.746-4.867,3.561c-0.055,0.1-0.107,0.195-0.16,0.293c-0.51,0.029-0.99,0.102-1.465,0.209
			c-2.092,0.482-3.82,1.746-4.875,3.568c-1.213,2.104-1.465,4.572-0.715,6.941c0.273,0.857,0.668,1.688,1.201,2.508
			c-0.021,0.035-0.041,0.068-0.064,0.105c-0.135,0.244-0.264,0.492-0.375,0.744c-0.832-0.045-1.598,0.023-2.344,0.193
			c-0.668,0.15-1.295,0.381-1.879,0.682c-5.697-3.076-8.422-3.539-11.064-2.926c-2.088,0.477-3.814,1.742-4.863,3.557
			c-1.008,1.746-1.348,3.754-0.979,5.746c-0.199,0.174-0.387,0.359-0.566,0.557c-0.715-0.027-1.408,0.051-2.078,0.199
			c-1.969,0.439-3.619,1.572-4.703,3.207c-1.166-0.168-2.207-0.121-3.215,0.104c-2.133,0.475-3.898,1.76-4.971,3.617
			c-0.646,1.123-1.025,2.346-1.125,3.609c-4.723-2.404-7.564-2.975-10.049-2.408c-2.098,0.482-3.838,1.752-4.893,3.578
			c-0.42,0.725-0.721,1.49-0.904,2.285c-0.836,0.609-1.539,1.387-2.074,2.307c-0.127,0.219-0.244,0.441-0.344,0.666
			c-1.664-0.395-3.029-0.404-4.295-0.115c-2.098,0.475-3.838,1.746-4.898,3.576c-0.354,0.621-0.631,1.27-0.82,1.943
			c-2.072,0.492-3.783,1.76-4.83,3.57c-0.127,0.215-0.238,0.434-0.338,0.654c-1.031,0.648-1.889,1.535-2.514,2.615
			c-0.48,0.832-0.814,1.727-1,2.646c-0.6,0.527-1.115,1.154-1.525,1.865c-1.172,2.029-1.436,4.416-0.744,6.723
			c0.559,1.861,1.734,3.611,3.637,5.439c-2.586,2.754-4.342,5.42-5.197,8.027c-0.627,1.91-0.799,3.801-0.58,5.627
			c-0.193,1.287-0.117,2.617,0.297,3.924c0.461,1.445,1.32,2.811,2.562,4.178c0.172,0.385,0.322,0.775,0.539,1.15
			c0.23,0.4,0.482,0.785,0.754,1.148c0.09,0.293,0.26,0.564,0.375,0.852c-0.48,0.473-0.922,0.988-1.268,1.59
			c-1.186,2.053-1.436,4.461-0.701,6.77c0.314,0.988,0.797,1.934,1.475,2.865c0.059,0.297,0.129,0.594,0.217,0.889
			c0.031,0.096,0.059,0.191,0.09,0.287c-0.229,0.693-0.365,1.412-0.41,2.145c-0.537,0.969-0.971,1.93-1.285,2.885
			c-1.145,3.471-0.881,6.883,0.648,9.957c-0.865,1.918-1.027,4.072-0.391,6.174c0.523,1.73,1.59,3.395,3.242,5.104
			c-0.801,1.055-1.375,2.113-1.721,3.221c-0.393,1.266-0.494,2.557-0.311,3.803c-0.363,0.652-0.645,1.312-0.852,1.99
			c-0.07,0.238-0.133,0.48-0.188,0.721c-0.852,1.1-1.441,2.207-1.809,3.359c-0.75,2.367-0.498,4.826,0.715,6.926
			c0.387,0.672,0.867,1.27,1.422,1.781c0.078,0.352,0.188,0.695,0.312,1.037c-0.879,0.615-1.664,1.357-2.215,2.314
			c-1.129,1.951-1.426,4.229-0.848,6.453c-0.691,1.779-0.77,3.75-0.199,5.664c0.086,0.287,0.211,0.566,0.324,0.85
			c-0.516,1.818-0.473,3.674,0.117,5.381c0.027,0.1,0.037,0.201,0.068,0.301c0.223,0.723,0.537,1.428,0.943,2.127
			c-0.059,0.854,0.012,1.717,0.211,2.576c-0.41,0.43-0.773,0.914-1.078,1.443c-1.201,2.076-1.465,4.516-0.742,6.869
			c0.188,0.615,0.438,1.215,0.754,1.801c-0.199,1.316-0.088,2.684,0.336,4.021c0.668,2.102,2.145,4.08,4.5,6.131
			c-1.422,1.443-2.35,2.863-2.895,4.357c-0.32,0.365-0.613,0.76-0.863,1.189c-1.227,2.133-1.488,4.633-0.727,7.041
			c0.551,1.738,1.625,3.395,3.328,5.082c-0.043,0.83,0.123,1.639,0.377,2.424c-0.678,0.984-1.166,1.973-1.467,2.992
			c-0.338,1.143-0.441,2.305-0.318,3.434c-1.141,1.391-1.9,2.764-2.324,4.178c-0.707,2.355-0.453,4.781,0.684,6.865
			c-0.193,1.797-0.018,3.656,0.594,5.535c0.357,1.094,0.873,2.205,1.537,3.328c-0.051,0.266-0.068,0.539-0.102,0.809
			c-0.488,0.754-0.887,1.518-1.139,2.311c-0.717,2.275-0.469,4.643,0.697,6.666c0.248,0.426,0.531,0.82,0.846,1.184
			c-0.363,1.598-0.271,3.217,0.252,4.715c-1.188,2.152-1.07,4.666,0.086,6.656c-1.484,1.547-2.5,3.078-3.008,4.684
			c-0.758,2.398-0.5,4.891,0.727,7.018c0.338,0.584,0.746,1.113,1.211,1.576c0.184,0.611,0.438,1.205,0.766,1.77
			c0.326,0.566,0.719,1.078,1.164,1.531c-0.529,2.188-0.223,4.418,0.885,6.332c0.975,1.688,2.533,2.898,4.42,3.445
			c1.055,1.32,2.523,2.24,4.236,2.633c2.096,0.48,4.334,0.25,8.107-1.453c0.117,0.26,0.246,0.516,0.393,0.764
			c1.049,1.818,2.777,3.082,4.863,3.559c0.406,0.092,0.82,0.156,1.248,0.188c1.076,1.332,2.572,2.256,4.312,2.641
			c0.861,0.189,1.746,0.252,2.717,0.162c-0.594,2.197-0.311,4.455,0.807,6.391c1.059,1.836,2.803,3.105,4.91,3.58
			c1.422,0.32,2.934,0.275,4.83-0.273c0.184,0.863,0.502,1.697,0.953,2.482c1.055,1.828,2.795,3.102,4.896,3.582
			c1.861,0.422,3.926,0.215,6.844-0.924c0.738,0.469,1.566,0.812,2.459,1.016c0.295,0.066,0.596,0.119,0.904,0.152
			c1.031,1.059,2.359,1.795,3.873,2.129c0.146,0.033,0.295,0.062,0.441,0.088c0.186,0.611,0.445,1.207,0.773,1.773
			c0.545,0.945,1.271,1.742,2.135,2.357c0.18,0.811,0.482,1.594,0.906,2.328c1.078,1.869,2.857,3.16,5.004,3.635
			c2.316,0.512,4.795,0.113,8.582-1.709c0.814,1.299,1.977,2.295,3.371,2.902c1.023,1.1,2.359,1.867,3.891,2.213
			c1,0.227,2.027,0.281,3.209,0.109c0.184,0.705,0.465,1.389,0.838,2.035c0.51,0.881,1.172,1.635,1.957,2.236
			c0.17,0.486,0.385,0.963,0.648,1.418c0.986,1.705,2.559,2.928,4.467,3.482c1.064,1.723,2.75,2.918,4.773,3.375
			c0.85,0.191,1.725,0.264,2.697,0.168c1.098,1.572,2.73,2.656,4.664,3.082c1.486,0.326,3.033,0.283,4.936-0.266
			c0.018,1.461,0.404,2.887,1.146,4.172c1.066,1.848,2.822,3.127,4.945,3.602c1.412,0.316,2.902,0.277,4.748-0.23
			c0.746,1.275,1.822,2.277,3.123,2.926c0.072,0.143,0.15,0.285,0.23,0.424c1.053,1.826,2.787,3.092,4.883,3.566
			c2.605,0.588,5.434,0.006,10.418-2.643c0.57,0.666,1.25,1.223,2.012,1.652c-0.768,1.066-1.297,2.133-1.625,3.236
			c-0.682,2.307-0.414,4.693,0.758,6.719c1.744,3.021,4.564,5.012,8.156,5.754c2.367,0.492,5.156,0.369,8.381-0.332
			c0.232,1.547,0.76,3.043,1.574,4.455c1.17,2.027,2.846,3.572,4.924,4.566c0.955,0.979,2.074,1.775,3.336,2.377
			c1.541,1.355,3.445,2.287,5.646,2.746c1.396,0.291,2.943,0.363,4.645,0.232c1.68,2.523,4.217,4.199,7.381,4.863
			c0.916,0.191,1.9,0.285,2.953,0.285c3.279,0,7.227-0.924,11.844-2.689c4.617,1.768,8.566,2.691,11.848,2.691
			c1.051,0,2.035-0.096,2.953-0.287c3.164-0.664,5.697-2.338,7.379-4.861c1.699,0.139,3.246,0.059,4.646-0.232
			c2.203-0.459,4.111-1.393,5.654-2.754c1.258-0.6,2.373-1.395,3.322-2.369c2.08-0.994,3.756-2.541,4.924-4.568
			c0.818-1.414,1.346-2.908,1.58-4.457c3.223,0.695,6.018,0.818,8.373,0.332c3.594-0.742,6.416-2.73,8.162-5.754
			c1.17-2.025,1.439-4.41,0.756-6.719c-0.328-1.105-0.855-2.168-1.623-3.238c0.762-0.43,1.436-0.984,2.01-1.65
			c4.984,2.648,7.816,3.232,10.418,2.645c2.098-0.475,3.828-1.74,4.883-3.566c0.08-0.143,0.156-0.283,0.23-0.428
			c1.301-0.646,2.379-1.646,3.119-2.922c1.842,0.51,3.34,0.549,4.752,0.229c2.125-0.475,3.879-1.752,4.945-3.602
			c0.744-1.285,1.129-2.711,1.148-4.17c1.898,0.547,3.445,0.594,4.93,0.262c1.934-0.422,3.57-1.508,4.668-3.078
			c0.967,0.09,1.846,0.023,2.699-0.17c2.02-0.457,3.707-1.654,4.771-3.375c1.904-0.557,3.48-1.779,4.465-3.486
			c0.264-0.457,0.48-0.928,0.646-1.418c0.785-0.6,1.451-1.354,1.957-2.238c0.373-0.643,0.654-1.324,0.836-2.029
			c1.178,0.17,2.215,0.121,3.211-0.107c1.531-0.348,2.871-1.113,3.891-2.215c1.395-0.609,2.559-1.604,3.371-2.9
			c3.783,1.822,6.262,2.219,8.582,1.705c2.148-0.475,3.922-1.766,5.004-3.637c0.422-0.732,0.727-1.514,0.906-2.322
			c0.863-0.613,1.59-1.412,2.135-2.359c0.328-0.566,0.586-1.164,0.773-1.775c0.146-0.025,0.295-0.055,0.439-0.088
			c1.516-0.334,2.848-1.068,3.879-2.131c0.305-0.033,0.604-0.086,0.902-0.15c0.891-0.203,1.717-0.547,2.455-1.014
			c2.912,1.137,4.982,1.346,6.844,0.922c2.104-0.479,3.842-1.754,4.898-3.582c0.451-0.781,0.771-1.617,0.955-2.48
			c1.898,0.539,3.41,0.592,4.828,0.27c2.109-0.469,3.85-1.742,4.91-3.576c1.119-1.936,1.4-4.195,0.805-6.393
			c0.977,0.098,1.859,0.029,2.717-0.16c1.74-0.385,3.236-1.311,4.312-2.645c0.428-0.031,0.842-0.094,1.248-0.184
			c2.086-0.477,3.814-1.742,4.867-3.562c0.143-0.248,0.271-0.502,0.389-0.762c3.773,1.703,6.006,1.938,8.109,1.457
			c1.711-0.396,3.182-1.316,4.236-2.637c1.887-0.547,3.445-1.758,4.418-3.445c1.109-1.916,1.418-4.154,0.883-6.344
			c0.445-0.449,0.834-0.961,1.156-1.525c0.328-0.564,0.586-1.158,0.762-1.766c0.469-0.467,0.879-0.994,1.213-1.58
			c1.23-2.125,1.488-4.617,0.732-7.02c-0.51-1.605-1.529-3.137-3.012-4.684c1.131-1.98,1.236-4.473,0.064-6.609
			c0.539-1.512,0.639-3.145,0.275-4.756c0.312-0.365,0.598-0.764,0.844-1.188c1.166-2.025,1.412-4.391,0.697-6.666
			c-0.258-0.814-0.67-1.598-1.178-2.375c-0.035-0.236-0.047-0.477-0.094-0.709c0.668-1.123,1.184-2.232,1.541-3.33
			c0.609-1.871,0.787-3.723,0.598-5.512c1.158-2.098,1.418-4.547,0.709-6.922c-0.426-1.416-1.184-2.789-2.326-4.18
			c0.123-1.127,0.018-2.291-0.322-3.434c-0.301-1.023-0.791-2.016-1.473-3.004c0.242-0.777,0.4-1.578,0.359-2.398
			c1.703-1.688,2.777-3.342,3.328-5.082c0.762-2.408,0.504-4.906-0.727-7.039c-0.229-0.395-0.504-0.75-0.791-1.09
			c-0.539-1.539-1.482-2.996-2.943-4.477c2.34-2.047,3.811-4.018,4.473-6.115c0.422-1.336,0.533-2.701,0.34-4.018
			c0.316-0.59,0.562-1.188,0.754-1.803c0.723-2.352,0.459-4.791-0.742-6.869c-0.305-0.531-0.668-1.014-1.078-1.445
			c0.199-0.857,0.27-1.723,0.207-2.572c0.41-0.697,0.723-1.404,0.945-2.129c0.02-0.068,0.025-0.139,0.047-0.205
			c0.629-1.752,0.695-3.658,0.154-5.527c0.105-0.266,0.225-0.529,0.305-0.799c0.574-1.914,0.498-3.883-0.197-5.664
			c0.578-2.223,0.281-4.498-0.846-6.451c-0.545-0.949-1.324-1.688-2.197-2.303c0.129-0.35,0.242-0.703,0.322-1.064
			c0.553-0.516,1.031-1.109,1.418-1.781c1.213-2.098,1.467-4.559,0.715-6.926c-0.365-1.154-0.955-2.262-1.811-3.357
			c-0.053-0.244-0.111-0.482-0.188-0.725c-0.205-0.676-0.486-1.336-0.844-1.988c0.18-1.246,0.076-2.537-0.312-3.801
			c-0.35-1.111-0.924-2.174-1.73-3.23c1.641-1.701,2.699-3.355,3.221-5.078c0.633-2.092,0.475-4.236-0.381-6.148
			c1.547-3.084,1.816-6.518,0.668-10.004c-0.324-0.984-0.773-1.977-1.336-2.98c-0.053-0.691-0.17-1.375-0.391-2.033
			c0.033-0.094,0.062-0.186,0.092-0.281c0.088-0.295,0.158-0.592,0.217-0.889c0.676-0.934,1.16-1.879,1.473-2.867
			c0.736-2.311,0.488-4.715-0.699-6.77c-0.344-0.594-0.779-1.105-1.25-1.574c0.117-0.297,0.293-0.578,0.387-0.881
			C442.636,158.774,442.89,158.39,443.124,157.987z M234.212,375.634c-2.164-0.492-4.525-0.154-8.213,1.543
			c-0.008-1.455-0.389-2.879-1.129-4.16c-1.062-1.842-2.814-3.117-4.93-3.588c-2.469-0.549-5.156-0.018-9.57,2.273
			c0.365-1.945,0.039-3.91-0.949-5.623c-1.062-1.838-2.809-3.113-4.92-3.59c-0.617-0.139-1.277-0.209-1.926-0.203
			c-1.025-1.102-2.367-1.869-3.902-2.215c-1.107-0.25-2.275-0.271-3.639-0.016c-0.141-0.689-0.367-1.359-0.68-2.002
			c0.059-1.561-0.316-3.096-1.109-4.471c-1.062-1.842-2.812-3.117-4.928-3.596c-1.176-0.268-2.422-0.283-3.893,0.018
			c-0.352-0.133-0.715-0.244-1.09-0.328c-2.754-0.619-5.738,0.072-11.238,3.137c-0.371-0.221-0.764-0.408-1.174-0.564
			c0.178-0.381,0.326-0.768,0.451-1.158c0.746-2.359,0.492-4.812-0.717-6.904c-1.066-1.848-2.822-3.127-4.945-3.604
			c-0.436-0.098-0.881-0.16-1.338-0.188c-0.172-0.953-0.506-1.875-1.004-2.734c-1.055-1.828-2.791-3.096-4.891-3.57
			c-0.613-0.141-1.219-0.211-1.904-0.209c-0.979-0.965-2.217-1.645-3.623-1.965c-0.051-0.012-0.102-0.023-0.152-0.033
			c-1.078-1.566-2.689-2.648-4.6-3.074c-1.717-0.383-3.547-0.238-5.994,0.668c0.082-1.604-0.293-3.184-1.105-4.594
			c-1.076-1.863-2.848-3.152-4.988-3.629c-1.33-0.295-2.73-0.285-4.414,0.129c-0.137-1.121-0.496-2.203-1.072-3.201
			c-1.045-1.812-2.766-3.07-4.844-3.545c-0.914-0.207-1.865-0.268-2.936-0.137c-0.875-0.938-1.98-1.633-3.236-2.031
			c-1.035-1.24-2.451-2.107-4.092-2.482c-0.02-0.004-0.035-0.008-0.053-0.012c-0.271-0.311-0.566-0.598-0.885-0.857
			c0.26-1.875-0.1-3.75-1.053-5.402c-0.424-0.736-0.979-1.361-1.605-1.902c0.15-1.238,0.045-2.514-0.352-3.766
			c-0.248-0.781-0.596-1.543-1.053-2.295c1.473-1.521,2.447-3.02,2.938-4.607c0.713-2.303,0.457-4.691-0.719-6.729
			c-0.463-0.803-1.059-1.496-1.76-2.064c0.057-1.242-0.156-2.471-0.633-3.619c1.697-1.721,2.74-3.389,3.268-5.168
			c0.188-0.635,0.305-1.277,0.352-1.916c0.432-0.717,0.76-1.441,0.994-2.184c0.746-2.363,0.49-4.82-0.717-6.914
			c-0.506-0.877-1.17-1.625-1.955-2.219c0.857-1.154,1.447-2.303,1.805-3.492c0.713-2.369,0.443-4.82-0.76-6.902
			c-0.725-1.254-1.779-2.23-3.043-2.883c-0.342-0.484-0.73-0.973-1.174-1.463c-0.021-0.236-0.035-0.473-0.076-0.705
			c0.098-0.148,0.203-0.291,0.295-0.449c0.182-0.312,0.34-0.637,0.48-0.969c1.436-0.648,2.625-1.719,3.428-3.107
			c1.225-2.119,1.494-4.617,0.766-7.033c-0.568-1.875-1.742-3.672-3.613-5.529c1.26-1.428,2.104-2.844,2.561-4.336
			c0.266-0.867,0.373-1.744,0.375-2.611c1.086-1.922,1.334-4.141,0.771-6.311c0.598-2.258,0.334-4.57-0.816-6.561
			c-0.859-1.494-2.168-2.619-3.754-3.254c0.094-0.238,0.18-0.48,0.254-0.725c0.33-1.07,0.449-2.158,0.367-3.223
			c1.131-1.357,1.877-2.701,2.301-4.104c0.535-1.762,0.527-3.568-0.004-5.238c0.455-0.73,0.797-1.475,1.041-2.242
			c0.736-2.328,0.486-4.746-0.709-6.814c-0.211-0.369-0.465-0.705-0.73-1.025c0.227-1.307,0.182-2.66-0.221-3.996
			c-0.283-0.953-0.725-1.871-1.33-2.787c0.023-0.201,0.041-0.404,0.053-0.609c1.201-0.654,2.193-1.615,2.889-2.82
			c1.191-2.061,1.459-4.49,0.75-6.836c-0.301-1.008-0.773-1.982-1.441-2.955c0.703-0.305,1.348-0.711,1.916-1.199
			c0.861,0.055,1.641-0.018,2.402-0.193c0.744-0.166,1.439-0.434,2.074-0.791c2.174,0.707,3.834,0.787,5.408,0.426
			c2.098-0.469,3.832-1.738,4.887-3.566c0.932-1.602,1.301-3.426,1.096-5.258c1.254-0.488,2.334-1.287,3.152-2.338
			c2.408,0.865,4.232,0.998,5.975,0.611c2.141-0.477,3.916-1.762,4.994-3.629c0.229-0.398,0.422-0.811,0.584-1.23
			c1.396,0.268,2.598,0.246,3.754-0.012c2.16-0.477,3.947-1.771,5.035-3.652c0.33-0.574,0.59-1.176,0.775-1.797
			c0.389-0.031,0.768-0.09,1.143-0.176c2.115-0.473,3.867-1.752,4.93-3.596c0.188-0.328,0.355-0.664,0.496-1.008
			c0.715,0,1.379-0.076,2.043-0.225c0.916-0.211,1.766-0.576,2.52-1.074c1.949,0.561,3.494,0.609,4.953,0.281
			c2.115-0.477,3.867-1.758,4.934-3.6c0.27-0.477,0.498-0.971,0.674-1.48c0.252-0.033,0.504-0.076,0.752-0.133
			c2.125-0.475,3.883-1.752,4.953-3.604c0.096-0.164,0.184-0.336,0.27-0.508c1.555,0.338,2.797,0.291,4.016,0.01
			c2.074-0.473,3.793-1.732,4.84-3.541c0.117-0.203,0.223-0.408,0.322-0.617c0.299-0.037,0.596-0.092,0.891-0.158
			c0.963-0.223,1.852-0.611,2.627-1.148c0.514-0.021,1.008-0.092,1.492-0.201c2.09-0.475,3.82-1.742,4.871-3.562
			c1.234-2.133,1.498-4.641,0.742-7.053c-0.105-0.338-0.234-0.672-0.375-1.006c0.32-0.596,0.535-1.223,0.699-1.867
			c1.539-0.701,3.07-1.402,4.574-2.094c2.102,0.668,3.785,0.781,5.361,0.434c2.145-0.473,3.914-1.762,4.99-3.625
			c0.363-0.629,0.625-1.293,0.809-1.977c0.092-0.043,0.182-0.086,0.273-0.129c0.314-0.035,0.627-0.072,0.93-0.141
			c1.453-0.32,2.736-1.014,3.744-2.016c3.27,1.432,5.463,1.697,7.514,1.232c0.783-0.178,1.516-0.463,2.18-0.848
			c0.889,0.049,1.68-0.033,2.461-0.209c0.48-0.109,0.934-0.271,1.371-0.461c0.428,0.182,0.869,0.342,1.336,0.449
			c0.785,0.178,1.576,0.268,2.461,0.209c0.668,0.385,1.4,0.674,2.182,0.85c2.057,0.467,4.246,0.197,7.512-1.23
			c1.012,0.996,2.293,1.691,3.746,2.012c0.309,0.07,0.623,0.107,0.939,0.143c0.09,0.041,0.176,0.082,0.266,0.123
			c0.184,0.686,0.445,1.352,0.809,1.982c1.076,1.863,2.848,3.15,4.99,3.625c1.582,0.352,3.266,0.236,5.373-0.436
			c1.516,0.695,3.012,1.385,4.562,2.094c0.164,0.645,0.381,1.273,0.703,1.869c-0.146,0.334-0.27,0.666-0.379,1.006
			c-0.752,2.414-0.492,4.918,0.742,7.053c1.049,1.822,2.783,3.088,4.871,3.562c0.484,0.109,0.977,0.178,1.492,0.201
			c0.779,0.535,1.664,0.924,2.631,1.145c0.293,0.068,0.586,0.121,0.889,0.16c0.098,0.209,0.207,0.414,0.324,0.617
			c1.043,1.809,2.76,3.066,4.836,3.543c1.217,0.279,2.459,0.33,4.018-0.012c0.084,0.172,0.176,0.344,0.271,0.51
			c1.066,1.85,2.824,3.127,4.949,3.602c0.246,0.057,0.498,0.1,0.756,0.135c0.176,0.508,0.398,1.004,0.674,1.479
			c1.066,1.844,2.818,3.121,4.934,3.6c1.457,0.328,3.006,0.281,4.951-0.281c0.75,0.5,1.604,0.863,2.52,1.074
			c0.662,0.148,1.324,0.213,2.045,0.227c0.141,0.342,0.305,0.68,0.492,1.008c1.066,1.842,2.816,3.117,4.934,3.594
			c0.371,0.084,0.75,0.143,1.143,0.176c0.186,0.619,0.445,1.221,0.773,1.795c1.088,1.881,2.873,3.178,5.037,3.654
			c1.152,0.252,2.357,0.277,3.752,0.01c0.162,0.422,0.357,0.834,0.586,1.232c1.078,1.865,2.85,3.154,4.992,3.629
			c1.74,0.383,3.568,0.254,5.975-0.611c0.82,1.049,1.9,1.85,3.154,2.338c-0.205,1.832,0.17,3.654,1.096,5.262
			c1.055,1.826,2.789,3.094,4.887,3.564c1.578,0.357,3.234,0.281,5.408-0.428c0.639,0.355,1.334,0.623,2.074,0.791
			c0.762,0.174,1.541,0.242,2.402,0.193c0.568,0.49,1.213,0.895,1.916,1.199c-0.668,0.973-1.143,1.949-1.445,2.957
			c-0.707,2.346-0.441,4.773,0.748,6.84c0.697,1.205,1.693,2.168,2.895,2.818c0.01,0.203,0.029,0.406,0.053,0.607
			c-0.609,0.914-1.047,1.836-1.332,2.787c-0.398,1.32-0.449,2.658-0.232,3.951c-0.275,0.328-0.529,0.674-0.75,1.053
			c-1.193,2.064-1.443,4.486-0.705,6.816c0.242,0.766,0.582,1.506,1.039,2.242c-0.527,1.666-0.539,3.475-0.006,5.236
			c0.428,1.402,1.172,2.746,2.303,4.104c-0.078,1.064,0.041,2.154,0.369,3.223c0.076,0.244,0.158,0.486,0.256,0.725
			c-1.59,0.635-2.895,1.76-3.76,3.252c-1.16,2.014-1.418,4.357-0.797,6.641c-0.533,2.125-0.287,4.291,0.752,6.178
			c-0.002,0.887,0.109,1.781,0.379,2.664c0.457,1.502,1.309,2.926,2.584,4.363c-1.869,1.855-3.041,3.648-3.607,5.52
			c-0.729,2.414-0.459,4.912,0.766,7.033c0.803,1.389,1.992,2.457,3.43,3.107c0.139,0.332,0.297,0.656,0.479,0.971
			c0.082,0.143,0.182,0.271,0.271,0.408c-0.049,0.26-0.062,0.523-0.086,0.787c-0.418,0.461-0.785,0.922-1.111,1.381
			c-1.289,0.648-2.367,1.635-3.1,2.908c-1.201,2.08-1.471,4.533-0.762,6.904c0.359,1.184,0.949,2.332,1.809,3.488
			c-0.789,0.598-1.449,1.342-1.955,2.219c-1.209,2.098-1.465,4.553-0.717,6.918c0.234,0.742,0.562,1.465,0.992,2.184
			c0.047,0.637,0.164,1.277,0.352,1.912c0.531,1.779,1.57,3.449,3.266,5.17c-0.473,1.148-0.688,2.375-0.629,3.619
			c-0.703,0.564-1.295,1.262-1.764,2.064c-1.172,2.035-1.428,4.426-0.717,6.73c0.494,1.596,1.477,3.1,2.961,4.629
			c-0.453,0.748-0.801,1.506-1.049,2.285c-0.393,1.242-0.502,2.504-0.357,3.732c-0.633,0.545-1.195,1.178-1.623,1.924
			c-0.955,1.652-1.312,3.531-1.053,5.412c-0.312,0.256-0.611,0.541-0.881,0.854c-0.018,0.002-0.029,0.006-0.047,0.01
			c-1.641,0.375-3.059,1.24-4.096,2.484c-1.254,0.396-2.355,1.092-3.23,2.029c-1.07-0.129-2.025-0.07-2.939,0.133
			c-2.076,0.479-3.797,1.736-4.842,3.547c-0.578,1-0.936,2.082-1.076,3.201c-1.678-0.412-3.076-0.424-4.406-0.127
			c-2.145,0.477-3.914,1.766-4.99,3.629c-0.816,1.408-1.186,2.988-1.104,4.592c-2.455-0.902-4.283-1.045-5.994-0.666
			c-1.914,0.426-3.523,1.508-4.6,3.074c-0.053,0.01-0.105,0.02-0.154,0.033c-1.404,0.32-2.646,1-3.625,1.967
			c-0.668-0.023-1.293,0.068-1.904,0.209c-2.098,0.473-3.834,1.74-4.893,3.57c-0.492,0.859-0.828,1.781-0.996,2.73
			c-0.463,0.029-0.902,0.094-1.34,0.191c-2.123,0.475-3.881,1.754-4.947,3.604c-1.207,2.094-1.463,4.545-0.715,6.906
			c0.127,0.391,0.275,0.775,0.447,1.156c-0.406,0.154-0.799,0.344-1.168,0.562c-5.496-3.062-8.479-3.756-11.238-3.135
			c-0.375,0.084-0.742,0.193-1.09,0.33c-1.477-0.301-2.719-0.285-3.895-0.021c-2.111,0.482-3.863,1.758-4.926,3.6
			c-0.795,1.371-1.17,2.91-1.111,4.471c-0.311,0.639-0.539,1.312-0.68,2c-1.359-0.262-2.529-0.238-3.639,0.014
			c-1.535,0.346-2.877,1.113-3.902,2.219c-0.656-0.035-1.312,0.062-1.926,0.201c-2.111,0.479-3.857,1.752-4.918,3.59
			c-0.984,1.713-1.312,3.676-0.949,5.623c-4.412-2.291-7.096-2.824-9.568-2.275c-2.115,0.475-3.867,1.748-4.932,3.594
			c-0.74,1.279-1.117,2.701-1.127,4.156c-3.686-1.695-6.041-2.029-8.213-1.541c-0.949,0.215-1.814,0.615-2.584,1.137
			C236.003,376.243,235.153,375.849,234.212,375.634z"/>
		<g>
			<path fill="#231F20" d="M433.767,337.835c-1.623-3.352-4.91-1.979-4.91-1.979l-0.076-2.984
				c-0.545-21.342-0.592-43.039-0.637-64.023c-0.037-18.916-0.082-38.482-0.488-57.711c-0.346-16.396,0.141-33.092,1.482-51.043
				l0.07-0.922c0.514-6.797,1.219-16.109-0.498-23.844l-0.299-1.324l1.229-0.578c1.021-0.484,1.771-1.633,1.818-2.791
				c0.029-0.697-0.197-1.678-1.436-2.393c-13.461-7.758-26.922-16.027-39.938-24.027c-19.189-11.791-39.031-23.982-59.211-34.74
				c-7.492-3.994-15.08-7.947-22.418-11.775c-21.385-11.158-43.504-22.691-64.598-35.861l-0.99-0.617l0.223-1.143
				c0.217-1.105-0.131-2.408-0.885-3.318c-0.428-0.523-1.178-1.148-2.301-1.148c-0.402,0-0.834,0.082-1.273,0.244
				c-0.316,0.117-0.627,0.248-0.932,0.375c-0.264,0.113-0.527,0.221-0.795,0.324l-0.812,0.316l-0.34-0.223l0.201,0.25l-2.057,0.873
				c-14.246,6.064-27.322,15.287-38.865,23.426c-14.072,9.92-29.865,19.1-49.699,28.889c-33.264,16.41-65.396,32.975-92.842,55.078
				l-2.016,1.623l-0.012-0.037c0,0-0.645,0.531-0.668,0.553l0.68-0.16l-0.07,2.217c-0.299,9.562-1.043,19.207-1.758,28.537
				c-0.523,6.818-1.066,13.871-1.43,20.832c-0.668,12.709-0.32,25.756,0.018,38.377c0.201,7.66,0.416,15.576,0.398,23.344
				c-0.047,20.121-0.422,40.564-0.787,60.338c-0.238,12.912-0.49,26.262-0.641,39.393l-0.014,0.977l-0.844,0.482
				c-0.658,0.371-1.123,1.271-1.154,2.244c-0.018,0.484,0.064,1.686,1.178,2.42l0.709,0.468c-0.029,0.167-0.057,0.671-0.059,2.001
				c-0.004,0.842,0.24,1.514,0.721,1.994c0.516,0.516,1.312,0.812,2.197,0.812c1.307,0,2.689-0.641,3.191-2.023
				c0.125-0.34,2.734,1.34,2.734,1.34c7.826,4.078,15.391,8.883,22.709,13.529c5.361,3.404,10.916,6.928,16.494,10.117
				c12.047,6.885,24.762,13.088,37.055,19.08c5.973,2.908,12.146,5.92,18.172,8.977c13.287,6.727,26.066,14.656,38.424,22.324
				c13.729,8.52,27.893,17.307,42.74,24.43c-13.75-7.857-26.969-16.883-39.809-25.645c-15.295-10.443-31.113-21.242-47.756-30.008
				c-6.123-3.219-12.4-6.385-18.48-9.441c-10.453-5.256-21.258-10.691-31.629-16.643c-4.936-2.834-9.807-5.873-14.52-8.811
				c-7.98-4.98-16.236-10.129-24.854-14.287l-0.963-0.471l0.006-1.074c0.129-14.973,0.375-30.193,0.615-44.91
				c0.305-18.973,0.623-38.59,0.691-57.883c0.035-9.389-0.188-18.945-0.398-28.188c-0.248-10.955-0.51-22.277-0.352-33.428
				c0.041-2.689,0.1-5.387,0.162-8.084c0.312-13.926,0.641-28.324-2.377-42.016l-0.328-1.492l1.443-0.482
				c12.648-4.23,24.385-11.557,35.738-18.645c2.648-1.654,5.287-3.299,7.924-4.902c17.449-10.602,35.227-19.318,48.762-25.732
				c14.51-6.875,31.295-15.07,46.816-25.352c3.369-2.23,6.689-4.52,10.008-6.801c12.064-8.312,24.545-16.906,38.799-22.25
				l1.021-0.383l0.773,0.773c17.602,17.676,41.537,29.475,64.682,40.883c5.953,2.934,11.578,5.703,17.117,8.584
				c18.385,9.555,36.289,20.578,53.6,31.234c15.256,9.393,31.029,19.107,47.039,27.752l0.873,0.473l0.018,0.99
				c0.188,11.494-0.422,22.822-1.863,34.627c-2.092,17.215-1.969,33.627-1.664,48.963c0.369,18.562,0.375,37.434,0.381,55.678
				c0.004,21.77,0.008,44.275,0.633,66.398l0.027,0.969l-0.82,0.516c-36.918,23.133-66.812,41.715-94.066,58.473
				c-8.201,5.039-16.543,10.404-24.613,15.596c-21.053,13.541-42.828,27.547-65.586,38.139l-0.773,0.359l-0.027-0.016l-1.6,0.748
				c1.162-0.033,2.344-0.121,3.527-0.264l0.445-0.055c0,0,1.475,0.637,1.541,0.664l-0.369-0.805l2.086-0.43
				c10.652-2.189,20.881-8.146,29.096-12.932c8.094-4.715,16.162-9.795,23.969-14.711c6.959-4.381,14.148-8.908,21.348-13.174
				c31.781-18.818,69.375-41.207,107.24-64.559l0.545-0.336l0.629,0.105c0.211,0.035,0.432,0.057,0.652,0.057
				c1.244,0,2.82-0.604,3.178-2.295l0.154-0.707l2.705-1.682C433.085,341.692,434.562,339.476,433.767,337.835z"/>
			<path fill="#231F20" d="M95.306,268.353c-0.354-7.594-0.727-15.451-0.65-23.289c0.152-17.273,0.568-34.84,0.979-51.824
				c0.328-13.764,0.668-27.996,0.865-41.988l0.02-1.25l1.195-0.354c5.402-1.604,10.857-4.404,16.131-7.115
				c3.135-1.607,6.377-3.271,9.527-4.641c11.436-4.955,21.785-10.051,31.658-15.574c25.096-14.051,50.672-30.592,78.176-50.566
				l1.049-0.758l1.006,0.805c32.422,25.857,71.533,43.422,109.355,60.414c11.98,5.379,24.357,10.941,36.25,16.648
				c-7.527-6.996-16.217-11.391-25.199-15.643c-14.209-6.717-29.42-14.059-44.32-22.188c-2.965-1.615-5.936-3.223-8.912-4.834
				c-22.863-12.369-46.506-25.162-66.82-42.166c-0.615-0.518-1.277-0.777-1.967-0.777c-1.188,0-2.451,0.822-3.066,1.998
				l-0.188,0.352l-0.32,0.232c-25.924,18.869-52.484,36.084-78.949,51.172c-9.195,5.244-18.777,9.797-28.045,14.205
				c-2.004,0.953-7.74,3.691-7.74,3.691c-6.486,3.082-13.844,6.578-18.148,12.072l-0.836,1.068l-1.23-0.586
				c-0.439-0.207-0.953-0.318-1.477-0.318c-0.883,0-1.684,0.303-2.199,0.824c-0.455,0.461-0.678,1.086-0.66,1.863
				c0.188,11.318,0.568,22.844,0.938,33.988c0.609,18.408,1.242,37.447,1.025,56.172c-0.105,9.432,0.211,19.18,0.521,28.607
				c0.523,15.949,1.062,32.438-0.402,48.365l-0.078,0.809l-0.17,0.115l0.176,0.16l-0.105,1.129
				c-0.012,0.152-0.023,0.305-0.064,0.385c0.027,0.033,0.141,0.096,0.229,0.127l0.973-0.715l-0.799-0.285l0.312-1.455
				C96.841,300.95,96.097,285.116,95.306,268.353z"/>
			<path fill="#231F20" d="M380.921,284.12c-0.053,2.279-0.135,4.594-0.217,6.936c-0.346,9.445-0.693,19.213,1.162,28.203
				l0.277,1.785c1.162-7.004,1.09-14.391,1.021-21.566c-0.037-3.523-0.072-7.168,0.037-10.711c0.41-12.93,1.164-26.059,1.895-38.756
				c0.219-3.879,0.441-7.76,0.658-11.635c0.305-5.582,0.654-11.139,1.002-16.688c1.424-22.84,2.9-46.465,1.266-69.973
				c-0.158-2.246-2.098-2.846-3.223-2.846c-0.615,0-1.207,0.154-1.67,0.428l-0.838,0.504l-0.17,1.018
				c-0.047,0.283-0.059,0.531-0.041,0.781c2.174,28.367,2.385,58.969,0.627,90.951C381.935,256.528,381.22,270.224,380.921,284.12z"
				/>
			<path fill="#231F20" d="M144.378,351.905c5.062,2.889,10.297,5.879,15.363,8.877c18.533,10.973,37.43,22.053,55.699,32.771
				l22.168,13.014c0.572,0.332,1.117,0.502,1.621,0.502c1.656,0,2.812-1.865,2.936-3.592l0.076-0.98l0.883-0.428
				c23.34-11.266,46.004-24.633,67.926-37.561c7.281-4.289,14.564-8.588,21.891-12.82c4.738-2.736,9.637-5.25,14.371-7.682
				c6.674-3.424,13.576-6.965,20.016-11.139c4.25-2.754,9.281-6.812,11.074-10.117c-0.211,0.17-0.416,0.342-0.629,0.518
				c-1.203,0.99-2.566,2.115-4.334,2.783c-2.906,1.094-5.814,2.473-8.625,3.807c-1.898,0.902-3.867,1.832-5.836,2.68
				c-7.646,3.295-17.701,7.701-27.621,12.604c-15.061,7.447-29.842,16.033-44.139,24.336c-16.246,9.441-33.047,19.201-50.42,27.385
				l-0.809,0.381l-0.768-0.449c-26.168-15.219-47.818-27.734-68.145-39.381c-5.15-2.953-10.402-6.072-15.486-9.084
				c-18.299-10.863-37.219-22.096-57.158-29.146l-0.293-0.102l0.805,0.666C109.937,332.251,127.444,342.243,144.378,351.905z"/>
		</g>
		<path fill="#FFDC02" d="M242.384,488.481c-0.197,0-0.4-0.008-0.607-0.025c-0.533-0.047-1.049-0.158-1.539-0.326
			c-1.201,0.33-2.311,0.371-3.467,0.131c-1.723-0.355-3.225-1.385-4.168-2.84c-4.725,2.652-7.117,3.193-9.418,2.67
			c-1.385-0.316-2.584-1.039-3.479-2.074c-1.121-0.242-2.129-0.74-2.963-1.447c-2.248,0.814-3.908,0.949-5.428,0.604
			c-1.867-0.422-3.412-1.551-4.352-3.176c-0.953-1.652-1.172-3.594-0.609-5.465c0.395-1.316,1.119-2.537,2.414-3.848
			c-2.707-4.762-0.221-8.791,7.379-14.258c-0.428-0.268-0.826-0.578-1.189-0.93c-3.346,1.529-5.578,1.855-7.615,1.408
			c-1.955-0.432-3.57-1.602-4.551-3.297c-0.953-1.65-1.184-3.596-0.648-5.479c0.051-0.18,0.107-0.355,0.172-0.533
			c-0.975-0.582-1.785-1.4-2.363-2.408c-0.93-1.607-1.158-3.502-0.643-5.332c-1.111,0.178-2.041,0.119-2.959-0.092
			c-1.82-0.418-3.328-1.525-4.246-3.115c-0.939-1.627-1.178-3.555-0.672-5.422c1.059-3.902,5.33-7.416,15.771-13.705
			c-0.041-0.586,0.021-1.154,0.174-1.713c-1.543-2.852-0.543-6.432,2.281-8.064c0.805-0.465,1.672-0.721,2.539-0.789
			c0.971-0.684,2.393-1.811,3.342-2.562c4.648-3.682,7.709-6.117,11.473-5.396c1.172,0.225,2.246,0.76,3.113,1.537
			c13.311-9.225,17.053-11.312,20.951-10.447c1.789,0.4,3.336,1.529,4.24,3.096c0.363,0.629,0.621,1.301,0.771,1.998
			c1.309,0.547,2.389,1.492,3.105,2.734c0.734,1.27,1.098,2.477,1.096,3.668c3.375-1.551,5.598-1.893,7.596-1.441
			c1.918,0.43,3.5,1.582,4.465,3.246c0.395,0.688,0.67,1.426,0.812,2.188c0.396,0.404,0.748,0.861,1.035,1.365
			c0.898,1.555,1.154,3.375,0.732,5.16c0.867,1.564,1.078,3.398,0.6,5.176c-0.348,1.291-1.004,2.502-2.191,3.818
			c1.188,0.605,2.166,1.531,2.846,2.707c2.311,4.004,1.014,7.496-3.85,11.721c0.516,0.01,1.008,0.07,1.484,0.178
			c1.871,0.426,3.418,1.555,4.357,3.182c0.943,1.631,1.172,3.553,0.65,5.416c-0.211,0.764-0.551,1.508-1.043,2.262
			c0.557,0.477,1.037,1.049,1.412,1.701c3.434,5.943-1.525,10.131-14.176,18.467c1.348,4.975-4.254,8.23-11.691,12.555
			c-0.273,0.158-0.561,0.324-0.861,0.5c-0.504,1.043-1.318,1.951-2.398,2.574c-0.449,0.26-0.918,0.455-1.396,0.588
			C247.39,486.442,245.405,488.481,242.384,488.481z"/>
		<path fill="#F1F1F2" d="M356.987,351.681c0.607-2.004,0.383-4.076-0.635-5.834c-1.014-1.76-2.695-2.979-4.734-3.43
			c-2.951-0.65-6.576,0.275-12.873,3.738c-1.016-1.379-2.496-2.33-4.238-2.713c-4.512-0.992-10.533,1.873-25.945,12.35
			c-1.07-1.832-2.822-3.074-4.938-3.498c-5.578-1.125-12.416,3.576-29.109,16.293c-6.289,4.791-15.494,11.805-19.402,13.566
			c-1.594-0.555-3.406-0.439-4.984,0.473c-2.875,1.658-3.861,5.336-2.199,8.215c0.232,0.402,0.508,0.765,0.803,1.108
			c-0.338,0.205-0.68,0.412-1.061,0.651c-2.211-0.072-4.066,1.154-7.238,3.283c-0.623,0.418-1.566,1.051-2.168,1.426
			c-0.443,0.133-0.879,0.316-1.297,0.559c-2.877,1.658-3.865,5.336-2.207,8.213c0.832,1.443,2.271,2.508,3.895,2.887
			c0.238,0.055,0.473,0.098,0.697,0.127c0.203,0.074,0.412,0.135,0.623,0.186c1.396,0.334,2.518,0.264,3.986-0.342
			c0.146,0.559,4.256-1.28,8.66-4.122c0.129,0.338,7.803,5.154,8,5.5c0.021,0.035,3.229,4.965,3.25,5
			c-3.514,3.502,2.996,9.34,4.75,9.75c1.834,0.43,3.006,3.077,6.475,1.358c0.455,0.217,0.938,0.381,1.439,0.49
			c1.816,0.393,3.619,0.109,6.064-1.049c0.932,1.443,2.42,2.469,4.125,2.836c1.992,0.43,3.955,0.012,6.709-1.443
			c0.951,1.064,2.238,1.791,3.678,2.051c0.412,0.074,0.82,0.111,1.219,0.111c3.107,0,5.75-2.18,8.996-4.859
			c0.637-0.521,1.555-1.281,2.262-1.818c0.809-0.088,1.609-0.34,2.355-0.773c2.15-1.24,3.24-3.607,2.965-5.922
			c5.836-4.712,8.674-8.015,6.475-12.36c0.168-0.248,0.326-0.515,0.469-0.814c0.42-0.512,0.748-1.084,0.975-1.691
			c0.711-0.578,1.475-1.186,2.061-1.65c3.088-2.453,5.928-4.703,7.104-7.197c4.199-2.676,5.811-4.494,6.496-6.871
			c0.039-0.135,0.074-0.271,0.102-0.408c6.057-3.867,8.477-6.424,9.301-9.287c0.402-1.41,0.383-2.854-0.051-4.184
			c3.768-2.959,5.725-5.365,6.381-7.795c0.521-1.926,0.275-3.906-0.689-5.574c-0.191-0.336-0.412-0.648-0.652-0.941
			C355.146,355.313,356.429,353.528,356.987,351.681z M242.927,397.841c0.656,0.363,1.271,0.871,1.789,1.543
			C244.218,398.742,243.606,398.224,242.927,397.841z"/>
		<path fill="#F1F1F2" d="M234.212,389.271c-0.932-1.617-2.469-2.74-4.326-3.164c-1.209-0.277-2.463-0.282-4.098,0.154
			c-0.078-0.169-0.156-0.338-0.25-0.511c2.422-1.869,3.688-3.521,4.242-5.373c0.559-1.855,0.344-3.781-0.605-5.424
			c-0.916-1.588-2.42-2.689-4.234-3.104c-2.605-0.59-5.311,0.129-11.117,3.564c-0.242-0.084-0.494-0.154-0.752-0.211
			c-2.051-0.459-4.141-0.109-7.5,1.586c-0.998-1.404-4.324-7.597-12.098-7.664c-0.809-0.007,0.318-1.562,0.275-2.334
			c0.953-1.131,1.523-2.207,1.846-3.336c0.535-1.875,0.307-3.814-0.643-5.457c-0.922-1.596-2.436-2.703-4.264-3.117
			c-0.016-0.002-0.031-0.006-0.047-0.01c-0.164-0.742-0.467-1.494-0.912-2.268c-0.939-1.625-2.479-2.744-4.34-3.154
			c-0.852-0.188-1.711-0.234-2.67-0.1c-0.053-1.025-0.348-2.027-0.871-2.934c-0.896-1.553-2.424-2.672-4.195-3.072
			c-2.844-0.646-5.559,0.254-12.338,4.566c-0.631-0.061-1.279-0.031-1.98,0.107c-0.863-1.41-2.473-2.555-4.078-2.91
			c-2.453-0.545-4.609,0.148-8.684,2.719c-0.109-0.246-0.238-0.494-0.381-0.742c-0.85-1.473-2.426-2.613-4.086-2.971
			c-3.307-0.721-5.781,1.062-10.715,4.604c-1.012,0.725-2.553,1.83-3.508,2.439c-0.697,0.113-1.387,0.354-2.033,0.729
			c-2.879,1.66-3.863,5.338-2.203,8.213c0.277,0.482,0.633,0.93,1.045,1.322c-1.297,2.309-1.545,4.346-0.338,6.607
			c-2.109,2.627-2.463,5.021-0.811,7.883c0.893,1.549,2.42,2.662,4.186,3.057c1.984,0.441,6.916-0.241,7.518,0.976
			c-3.262,2.812-4.742,6.216-4.742,8.724c-2.459,2.006-3.619,3.668-4.143,5.502c-0.525,1.842-0.301,3.746,0.635,5.367
			c0.928,1.605,2.449,2.717,4.287,3.133c2.684,0.602,8.791-3.54,14.756-7.101c0.084,0.022,2.121,3.177,3.564,5.989
			c-2.266,1.188-3.984,2.166-5.285,3.082c-0.527,0.133-1.045,0.34-1.539,0.625c-2.875,1.66-3.861,5.338-2.199,8.215
			c0.326,0.566,0.766,1.086,1.281,1.535c0.869,1.029,2.117,1.824,3.391,2.141c0.016,1.139,0.32,2.256,0.9,3.264
			c0.912,1.576,2.467,2.709,4.27,3.107c2.062,0.459,4.086,0.092,7.48-1.711c0.076,0.15,0.156,0.301,0.244,0.453
			c-3.363,3.473-4.002,6.42-2.051,9.795c0.93,1.615,2.465,2.74,4.32,3.162c0.566,0.131,1.139,0.205,1.75,0.205
			c3.244,0,7.633-2.092,18.525-9.182c0.717,0.482,1.531,0.832,2.402,1.018c4.588,0.959,9.441-2.344,22.793-12.072
			c4.701-3.426,11.549-8.416,14.6-9.934c1.328,0.227,2.744,0.004,4-0.723c1.955-1.129,3.035-3.189,3.008-5.295
			c1.971-1.725,2.914-3.182,3.361-4.838C235.335,392.642,235.106,390.817,234.212,389.271z"/>
		<g>
			<path fill="#231F20" d="M340.413,348.626c-6.941-3.66-16.301-2.63-23.66-1c-13.26,2.93-25.641,9.93-37.061,17
				c-7.779,4.81-15.49,10.05-22.709,15.8c-0.881,0.71-1.75,1.42-2.621,2.13c0.99,0.68,1.871,1.47,2.57,2.37
				c0.57-0.29,1.141-0.59,1.709-0.89c13.49-7.02,26.881-14.2,40.66-20.65c5.941-2.78,11.811-5.67,18-7.54
				c5.012-1.51,10.291-2.47,15.541-2.17c1.811,0.13,4.65,0.21,6.061,1.65c-0.031-0.04-0.061-0.09-0.102-0.13
				c0.061,0.06,0.121,0.12,0.16,0.19c-0.02-0.02-0.039-0.04-0.059-0.06c1.219,1.52,0.959,4.31,0.84,6.07
				c-0.211,3.01-0.852,6-1.67,8.89c-1.602,5.68-4.07,11.1-7.221,16.09c-3.221,5.11-7.631,10.28-12.92,13.42
				c-2.029-2.88-5.6-4.83-8.609-6.27c-6.191-2.98-12.611-4.36-19.41-4.75c-9.811-0.57-20.281,0.28-30.211,2.53
				c-0.27,0.06-0.539,0.12-0.811,0.18c-0.119,1.9-0.738,3.335-1.729,4.715c-0.041,0.061-0.08-0.024-0.131-0.024h0.32
				c0.5,0,1,0,1.51,0h0.029c4.311,0,8.65,0.194,12.971,0.254c7.34,0.11,14.631,0.403,21.689,1.113
				c4.891,0.54,9.721,1.521,14.25,3.48c0.932,0.41,1.92,0.901,2.961,1.501c0.01,0.011-0.1,0.01-0.09,0.021
				c0.881,0.5,1.941,1.1,1.941,1.82v0.01c0,0.14,0.809,0.8,0.83,0.95c0.139,0.59,0.354,1.19,0.363,1.8l-0.026,0.03
				c0.01,0.01,0.075,0.02,0.075,0.03c0,1.2-0.55,2.39-0.951,3.46c-1.291,3.48-3.537,6.67-6.287,9.16
				c-2.98,2.7-6.957,4.85-11.078,4.7c-4.119-0.16-7.919-2.91-11.208-5.14c-7.211-4.87-14.49-9.63-21.839-14.28
				c-1.941-1.23-3.88-2.45-5.839-3.65c-0.99-0.61-1.98-1.21-2.98-1.8c-1.031,0.67-2.18,1.25-3.391,1.74
				c1.1,1.26,2.25,2.51,3.451,3.75c8.889,9.21,20.02,17.38,32.02,21c4.34,1.31,8.6,1.99,13.039,0.7
				c3.861-1.13,7.371-3.26,10.461-5.79c4.619-3.77,11.16-10.55,10.279-17.21c0.031-0.02,0.051-0.03,0.07-0.05
				c0.26-0.2,0.48-0.41,0.75-0.63c6.301-5.35,11.07-12.69,15.18-19.79c4.01-6.9,8.01-14.46,9.43-22.39
				C345.802,355.926,345.183,351.136,340.413,348.626z"/>
			<path fill="#231F20" d="M221.042,399.906c-0.75,0.45-1.51,0.91-2.26,1.37c-2.039,1.25-4.07,2.53-6.09,3.81
				c-7.35,4.65-14.629,9.41-21.83,14.28c-3.289,2.23-7.09,4.98-11.209,5.14c-4.111,0.15-8.061-2.01-11.031-4.7
				c-2.75-2.49-4.93-5.68-6.219-9.16c-0.361-0.96-0.771-2.15-0.92-3.32c-0.111-0.88-0.08-1.74,0.219-2.5
				c0.01-0.01,0.111-0.18,0.189-0.32c0.012-0.02,0.021-0.03,0.031-0.04c0.57-0.78,1.4-1.43,2.33-1.97
				c1.311-0.77,2.82-1.34,4.01-1.81c4.289-1.71,8.779-2.58,13.35-3.08c7.09-0.7,14.41-0.93,21.791-1.05
				c4.01-0.06,8.029-0.08,12.029-0.14c0.801-0.01,1.59-0.02,2.381-0.03c0.35,0,0.689-0.01,1.039-0.02
				c-0.551-1.34-0.859-2.79-0.869-4.29c-1.4-0.35-2.82-0.68-4.262-1c-11.049-2.37-22.719-3.39-33.699-1.89
				c-6.59,0.89-18.49,4.14-22.779,10.72c-5.561-3.31-10.211-9.04-13.441-14.36c-3.08-5.03-5.459-10.5-6.959-16.2
				c-0.891-3.37-3.16-10.88-0.59-14.01c-0.041,0.03-0.08,0.07-0.111,0.11c0.07-0.09,0.15-0.17,0.221-0.25
				c-0.039,0.04-0.08,0.09-0.109,0.14c1.6-1.64,5-1.64,7.039-1.7c4.93-0.14,9.871,0.79,14.58,2.21c6.191,1.87,12.061,4.76,18,7.54
				c13.131,6.15,25.92,12.96,38.77,19.67c1.881,0.98,3.771,1.96,5.65,2.93c0.6-0.8,1.291-1.57,1.99-2.23
				c-1.789-1.53-3.629-3.02-5.5-4.48c-6.32-4.92-13-9.43-19.67-13.63c-11.1-6.99-22.98-13.79-35.709-17.28
				c-9.381-2.58-32.631-5.76-31.531,9.95c0.561,7.88,4.551,15.59,8.291,22.4c3.979,7.24,8.6,14.51,14.479,20.38
				c0.98,0.98,2,1.92,3.092,2.78c-0.211,1.6-0.012,3.35,0.729,5.26c2.811,7.27,10.041,13.61,17.08,16.66
				c8.051,3.49,16.5,0.81,24.01-2.87c7.271-3.57,13.852-8.72,19.852-14.11c1.6-1.44,3.16-2.92,4.66-4.46
				c0.658-0.66,1.299-1.33,1.92-2.02C222.872,401.687,221.882,400.856,221.042,399.906z"/>
		</g>
		<path fill="#231F20" d="M270.323,425.316c-1.66-7.96-6.4-14.76-13.691-18.51c-1.029-0.53-2.1-1-3.18-1.41
			c-2.98-1.12-6.109-1.8-9.289-2.17c-0.74,0.16-1.49,0.3-2.23,0.43c3.561,0.42,7.039,1.32,10.221,2.9
			c2.209,1.07,4.279,2.48,6.109,4.26c1.49,1.45,2.73,3.07,3.75,4.8c-9.07,2-17.75,3.15-27.109,3.07
			c-7.271-0.05-14.512-2.47-21.611-3.09c1.25-2.15,2.84-4.12,4.83-5.81c1.881-1.61,3.961-2.86,6.18-3.8
			c1.73-0.76,3.551-1.32,5.42-1.72c-0.76-0.11-1.52-0.27-2.26-0.48c-1.559,0.31-3.08,0.71-4.57,1.21
			c-5.068,1.68-9.658,4.49-13.068,8.91c-5.73,7.44-6.48,16.89-5.871,25.91c1.051,15.4,6.65,34.69,20.641,43.3
			c7.02,4.32,15.799,4.7,23,0.58c6.93-3.97,11.709-10.73,15.24-17.73C268.853,454.057,273.122,438.747,270.323,425.316z
			 M255.903,474.066c-4.631,5.94-11.551,10.4-19.34,9.5c-7.24-0.83-12.9-5.86-16.861-11.7c12.689,3.71,26.939,3.89,38.74-1.54
			C257.663,471.616,256.833,472.876,255.903,474.066z M263.722,457.406c-17.58,4.4-33.609,8.73-50.549-0.63
			c-0.15-0.08-0.301-0.14-0.461-0.21c-0.84-2.84-1.49-5.75-2-8.68c5.961,2.59,12.93,2.96,19.83,3.26
			c10.971,0.48,24.1-0.04,35.01-4.02C265.163,450.586,264.583,454.046,263.722,457.406z M266.183,434.896
			c-16.471,5.25-39.33,6.32-56.699,1.59c-0.092-1.86-0.141-3.71-0.15-5.55c0.07-2.45,0.35-4.91,0.879-7.3
			c4.33,3.49,11.721,4.12,16.861,4.88c12.5,1.9,26.49,1.25,38.389-3.21c0.49,2.65,0.701,5.36,0.721,8.03
			C266.192,433.846,266.183,434.376,266.183,434.896z"/>
		<g>
			<g>
				<path fill="#A78701" d="M234.444,413.022c-0.5,0-0.996-0.061-1.502-0.174c-1.256-0.281-2.496-1.033-3.381-2.023
					c-1.412,0.455-2.605,0.502-3.861,0.225c-1.6-0.35-3-1.293-3.914-2.619c-0.598,0.031-1.193-0.025-1.787-0.154
					c-1.811-0.389-3.379-1.521-4.295-3.109c-0.9-1.561-1.119-3.391-0.621-5.158c0.117-0.414,0.264-0.812,0.451-1.205
					c-0.711,0.051-1.365-0.02-2.051-0.182c-1.617-0.379-3.172-1.523-4.002-2.961c-2.016-3.492-1.078-6.156,2.189-9.074
					c0.055-2.02,1.125-3.963,3.002-5.049c0.75-0.434,1.553-0.688,2.361-0.773c1.729-0.959,5.383-3.438,7.91-5.156
					c9.492-6.439,12.113-8.088,15.539-7.309c0.58,0.135,1.148,0.361,1.68,0.668c4.479-2.568,6.453-2.979,8.639-2.465
					c1.617,0.379,3.193,1.537,4.025,2.975c0.453,0.789,0.732,1.645,0.832,2.529c0.762-0.068,1.449,0.002,2.162,0.164
					c1.629,0.371,3.275,1.572,4.113,3.02c0.893,1.547,1.113,3.361,0.619,5.111c-0.537,1.902-1.721,3.473-4.451,5.488
					c0.197,0.246,0.375,0.51,0.537,0.787c0.434,0.752,0.723,1.471,0.875,2.166c0.879,0.555,1.645,1.314,2.139,2.174
					c1.662,2.877,0.674,6.555-2.203,8.215c-0.826,0.479-1.723,0.736-2.619,0.795c-1.812,1.012-5.537,3.594-8.121,5.387
					C240.688,410.878,237.442,413.022,234.444,413.022z"/>
			</g>
		</g>
		<path fill="#806800" d="M223.407,376.898c-1.164-2.017-2.098-2.848-1.924-4.227c-1.271-0.206-3.209-0.938-4.613-3.373
			c-1.184-2.048-0.48-4.666,1.568-5.849c1.395-0.805,3.057-0.736,4.344,0.038c1.168-1.135,2.771-3.114,3.842-4.437
			c3.748-4.633,6.959-8.641,11.318-8.289c1.219,0.096,3.498,0.667,5.092,3.431c0.514,0.887,0.832,1.723,1.01,2.495
			c0.246-0.025,0.5-0.035,0.75-0.033c1.844,0.017,4.498,0.819,6.652,4.555c1.135,1.962,1.289,3.679,1.098,5
			c1.213,0.349,2.68,1.224,3.873,3.289c1.182,2.048,0.479,4.664-1.57,5.847c-1.051,0.607-2.252,0.715-3.328,0.406
			c-0.268,0.449-0.529,0.905-0.74,1.269C248.964,380.18,225.565,380.632,223.407,376.898z M222.442,366.083l-1.865,1.077l1.863-1.07
			C222.442,366.084,222.442,366.083,222.442,366.083z"/>
		<path fill="#231F20" d="M251.743,374.526c0.041-0.079,0.07-0.163,0.109-0.243c0.76-0.866,1.393-2.099,1.73-3.541
			c0.666-2.799-0.002-5.378-1.486-6.153c-0.586-1.704-1.447-3.291-2.541-4.698c0.305-0.211,0.547-0.386,0.678-0.487
			c2.926-2.229,5.205-5.185,6.494-8.639c2.42-6.478,1.814-13.982-4.688-17.794c-0.781-0.475-2.248-1.427-2.42,0.072
			c-0.189,1.541-0.154,3.112-0.123,4.661c0.051,2.538,0.221,5.034,0.846,7.5c0.904,3.567,0.055,7.098-1.703,10.278
			c-0.395,0.715-0.836,1.403-1.311,2.068c-2.457-2.137-5.529-3.565-8.857-3.895c-3.758-0.443-7.805,0.897-11.082,3.244
			c-1.922-2.909-3.426-6.637-2.893-10.177c0.391-2.601,0.959-5.006,1.119-7.654c0.082-1.36,0.877-6.504-0.822-6.936
			c-0.932-0.236-3.162,1.883-3.771,2.452c-1.047,0.979-1.92,2.146-2.604,3.402c-1.924,3.53-1.666,7.127-0.588,10.89
			c1.037,3.618,2.906,6.827,5.701,9.37c0.379,0.345,0.775,0.672,1.182,0.99c-1.381,1.46-2.49,3.114-3.172,4.877
			c-0.736,1.913-0.879,3.701-0.584,5.354c0.041,0.417,0.104,0.841,0.207,1.273c0.311,1.312,0.861,2.452,1.531,3.299
			c-5.611,3.44-9.676,8.901-9.084,16.104c0.91,11.06,13.43,19.69,23.791,20.76c12.16,1.25,22.18-8.28,22.318-20.05
			C259.802,384.037,256.632,378.287,251.743,374.526z M237.403,362.287c3.275-0.014,8.707,0.483,11.992,2.774
			c-1.027,0.833-1.918,2.321-2.346,4.137c-0.461,1.941-0.279,3.787,0.367,4.995c-0.787,0.174-1.582,0.275-2.295,0.313
			c-2.289,0.12-5.48,0.51-7.449,0.59c-2.99,0.12-5.91,1.1-8.871,0.22c-0.588-0.179-1.148-0.466-1.674-0.812
			c0.807-1.185,1.082-3.18,0.576-5.306c-0.236-0.998-0.611-1.896-1.072-2.643c0.945-0.812,2.016-1.544,2.83-2.049
			C231.813,363.046,235.462,362.296,237.403,362.287z M236.163,404.346c-3.951,0.34-7.961,0.19-11.57-1.67
			c-4.27-2.2-7.041-6.87-6.551-11.85c0.301-3,3.541-6.87,6.201-8.71c1.629-1.13,3.629-2.01,5.709-2.63
			c1.531,0.79,3.121,1.42,4.641,1.89c3.98,1.23,8.74,0.43,12.42-1.88c6.26,1.52,11.939,4.8,11.91,11.33
			C258.872,401.066,244.872,403.656,236.163,404.346z"/>
		<path fill="#FFDC02" d="M402.272,177.808c-0.545,0-1.066-0.064-1.582-0.184c-1.787-0.412-3.275-1.502-4.178-3.068
			c-0.396-0.684-0.662-1.416-0.797-2.172c-1.732-0.525-3.158-1.648-4.061-3.211c-0.953-1.646-1.191-3.6-0.68-5.498
			c0.441-1.631-5.766-3.324-8.197-3.859c-2.027-0.445-3.703-1.656-4.717-3.408c-0.645-1.121-0.967-2.379-0.953-3.664
			c-1.891-0.475-3.453-1.641-4.408-3.297c-0.771-1.336-1.076-2.857-0.891-4.389c-1.83,0.516-3.27,0.564-4.57,0.268
			c-1.904-0.436-3.48-1.584-4.432-3.236c-0.984-1.705-1.223-3.721-0.672-5.68c1.102-3.916,5.602-7.725,15.592-13.715
			c-0.029-0.822,0.139-1.615,0.486-2.4c-1.051-2.715,0-5.869,2.602-7.373c1.035-0.596,2.162-0.836,3.281-0.801
			c1.875-1.115,5.35-3.74,7.781-5.576c8.543-6.453,12.5-9.27,16.641-8.43c1.049,0.215,2.021,0.672,2.836,1.318
			c15.047-10.408,19.898-13.004,24.193-12.064c1.893,0.42,3.457,1.559,4.406,3.205c0.018,0.029,0.035,0.059,0.053,0.086
			c0.578-0.037,1.119,0.062,1.641,0.182c1.881,0.426,3.438,1.562,4.379,3.199c0.602,1.039,0.959,2.049,1.076,3.047
			c4.207-2.012,6.938-2.508,9.24-1.998c2.004,0.445,3.66,1.645,4.658,3.377c0.422,0.729,0.709,1.514,0.855,2.324
			c0.352,0.379,0.662,0.801,0.928,1.262c0.854,1.473,1.141,3.178,0.84,4.873c0.014,0.021,0.025,0.041,0.037,0.062
			c0.949,1.646,1.184,3.592,0.656,5.479c-0.408,1.469-1.242,2.877-2.777,4.441c0.99,0.605,1.814,1.449,2.408,2.482
			c0.961,1.662,1.203,3.635,0.686,5.551c-0.949,3.498-4.424,6.814-12.293,11.898c0.146,0.621,0.193,1.229,0.141,1.83
			c0.182,0.234,0.346,0.482,0.498,0.742c0.053,0.098,0.105,0.195,0.158,0.293c0.457,0.428,0.85,0.924,1.172,1.48
			c0.947,1.639,1.148,3.551,0.574,5.385c-1.361,4.344-6.002,6.93-23.707,15.252c-0.457,0.215-0.926,0.438-1.412,0.666
			c-1.377,0.979-2.754,1.975-3.934,2.83c-7.852,5.686-12.047,8.617-15.352,9.428C406.589,176.966,404.247,177.808,402.272,177.808z"
			/>
		<path fill="#F1F1F2" d="M378.743,145.826c-0.301,0.04-0.611,0.06-0.92,0.05C378.142,145.896,378.452,145.876,378.743,145.826z"/>
		<path fill="#F1F1F2" d="M390.903,94.256c-0.83-1.44-2.4-2.59-4.012-2.98c-0.09-0.01-0.17-0.03-0.25-0.05
			c-0.158-0.67-0.449-1.37-0.869-2.09c-0.23-0.39-0.5-0.76-0.83-1.1c1.439-2.35,1.471-4.56,0.051-7.01
			c-0.881-1.54-2.4-2.64-4.141-3.04c-1.199-0.27-2.359-0.26-3.82,0.17c-0.039-1.05-0.33-2.09-0.879-3.03
			c-0.83-1.44-2.371-2.58-3.99-2.96c-2.99-0.7-5.221,0.23-14.301,6.17c-0.041-0.06-0.096-0.11-0.139-0.168
			c-0.17-0.476-0.389-0.956-0.67-1.444c-0.957-1.652-2.527-2.793-4.426-3.211c-0.881-0.193-1.771-0.242-2.756-0.105
			c-0.084-0.969-0.381-1.91-0.877-2.77c-0.93-1.613-2.463-2.732-4.312-3.148c-2.992-0.668-6.137,0.371-13.312,4.883
			c-1.238-0.064-2.533,0.238-4.199,0.938c-0.924-1.188-2.248-2.033-3.748-2.363c-3.891-0.85-24.268,10.688-23.926,10.12
			c1.709-2.833-1.043-4.584-3.457-4.5c-2.426,0.092-6.029,2.849-6.994,4.13c-2.566,1.527-3.592,4.676-2.52,7.383
			c-2.49,4.822-3.779,7.6-1.93,10.807c0.066,0.115,0.137,0.229,0.207,0.336c-1.199,2.129-1.18,4.193,0.164,6.525
			c0.926,1.605,2.449,2.713,4.285,3.121c2.107,0.469,4.227,0.078,7.803-1.814c0.615,0.041,1.248-0.002,1.939-0.139
			c0.117,0.871,0.439,1.762,0.967,2.691c-2.068,2.197-3.041,4.215-2.906,6.293c-1.617,1.541-2.467,2.918-2.893,4.41
			c-0.527,1.846-0.301,3.758,0.633,5.377c0.924,1.602,2.445,2.713,4.275,3.127c2.754,0.623,6.051,0.565,11.676-4.56
			c2.127-1.938,1.746-0.152,1.875-0.125c3.172,0.658,8.455,1.853,8.807,4.216c-2.131,2.477-2.576,4.922-0.883,7.863
			c0.697,1.203,1.764,2.145,3.029,2.697c0.908,1.137,2.197,1.945,3.65,2.27c0.766,0.172,1.506,0.238,2.301,0.15
			c0.91,1.086,2.17,1.852,3.582,2.152c3.668,0.785,7.639-0.411,13.764-4.599c0.221-0.151,2.078,2.156,3.125,4.688
			c-0.654,1.633-3.465,3.54-2.352,5.466c0.82,1.42,2.236,2.477,3.826,2.867c1.559,0.385,2.688,0.352,4.799-0.648
			c0.264,0.098,0.533,0.18,0.809,0.238c0.434,0.096,0.846,0.146,1.248,0.154c0.637,0.791,14.605-5.375,13.236-8.188
			c5.799-3.561,6.051-12.203,5.02-14.975c2.832-6.393,4.955-11.441,4.76-11.375c0.799-1.94,5.109-3.87,2.949-7.29
			c-0.809-1.28-1.729-1.54-2.51-1.4c6.711-4.02,8.939-6.14,9.75-9.04C392.022,97.616,391.792,95.807,390.903,94.256z"/>
		<path fill="#F1F1F2" d="M448.626,187.431c-0.832-1.434-2.408-2.594-4.021-2.975c-1.211-0.287-2.375-0.281-3.959,0.229
			c-1.875,0.189-3.92,1.174-6.973,3.162c0.475-1.604,0.264-3.18-0.732-4.904c-0.475-0.822-1.125-1.523-1.893-2.059
			c2.014-1.672,2.953-3.086,3.416-4.762c0.486-1.746,0.264-3.557-0.627-5.098c-0.826-1.434-2.391-2.584-3.996-2.967
			c-1.932-0.463-3.562-0.311-7.463,1.766c-0.037-0.066-0.072-0.135-0.113-0.199c-0.826-1.434-2.352-2.561-3.961-2.943
			c-0.287-0.066-0.562-0.121-0.844-0.156c-0.164-0.703-12.254,3.125-25.836-3.875c-0.82-1.391-5.363-2.411-6.93-2.797
			c-2.18-0.545-3.488-0.09-6.58,1.773c-2.051-0.07-3.639,0.945-5.857,2.391c-0.436,0.285-0.871,0.574-1.219,0.787
			c-0.301,0.113-0.6,0.252-0.887,0.418c-2.883,1.654-3.875,5.33-2.223,8.209c0.414,0.722,0.982,1.332,1.641,1.822
			c-0.76,2.153-0.986,3.862-0.316,5.598c-3.402,3.535-4.691,6.334-2.658,9.854c0.838,1.451,2.385,2.586,4.02,2.957
			c0.943,0.215,1.822,0.238,2.766,0.045c-0.527,1.404-0.527,2.803,0.088,4.303c-5.254,3.932-8.133,6.984-8.316,10.148
			c-4.059,2.791-5.688,4.746-6.338,7.08c-0.498,1.789-0.275,3.641,0.633,5.213c0.891,1.539,2.408,2.652,4.166,3.055
			c2.396,0.543,4.764-0.051,9.742-2.984c0.213,0.066,0.426,0.121,0.646,0.168c1.592,0.322,3.176,0.127,5.041-0.633
			c-5.41,4.309-8.445,7.473-8.691,10.699c-2.707,2.098-4.055,3.846-4.605,5.83c-0.344,1.225-0.346,2.479-0.023,3.654
			c-0.404,1.691-0.158,3.422,0.703,4.912c0.297,0.516,0.656,0.982,1.066,1.391c0.043,1.104,0.352,2.18,0.914,3.158
			c0.955,1.648,2.52,2.781,4.412,3.191c1.629,0.355,3.258,0.203,5.455-0.688c-0.762,1.396-1.043,2.75-0.809,4.148
			c-2.367,2.594-2.789,5.07-1.02,8.137c0.879,1.521,2.373,2.623,4.105,3.023c0.518,0.121,1.027,0.188,1.57,0.188
			c2.369,0,5.264-1.287,11.234-5.035c0.457,0.152,0.934,0.254,1.426,0.305c0.156,0.016,0.312,0.025,0.461,0.031
			c0.967,1.02,2.242,1.699,3.656,1.926c3.516,0.551,6.051-1.723,8.502-3.926c0.27-0.238,0.621-0.555,0.955-0.846
			c0.721-0.109,1.436-0.354,2.104-0.74c2.701-1.559,3.732-4.891,2.479-7.672c11.9-6.434,16.107-8.922,17.221-12.844
			c0.486-1.73,0.27-3.527-0.615-5.064c-0.879-1.525-2.385-2.631-4.121-3.033c-0.613-0.143-1.219-0.215-1.871-0.186
			c1.018-1.92,1.102-3.77,0.191-5.762c7.389-4.184,10.143-6.739,11.15-9.793c0.457-0.27,0.859-0.499,1.178-0.668
			c0.688-0.115,1.365-0.354,2.004-0.725c2.668-1.539,3.709-4.816,2.52-7.576c-0.094-0.865-0.369-1.705-0.814-2.479
			c-0.217-0.379-0.486-0.736-0.797-1.066C448.081,196.614,451.661,192.69,448.626,187.431z"/>
		<path fill="#FFDC02" d="M54.233,171.86c-0.555,0-1.08-0.064-1.598-0.184c-1.016-0.23-1.934-0.68-2.703-1.307
			c-0.609,0.008-1.219-0.037-1.799-0.164c-1.037-0.223-1.979-0.658-2.775-1.279c-2.965,1.271-4.988,1.529-6.809,1.119
			c-1.883-0.426-3.441-1.562-4.387-3.199c-0.959-1.662-1.176-3.615-0.611-5.496c0.166-0.551,0.389-1.086,0.688-1.619
			c-0.197-0.252-0.377-0.52-0.539-0.803c-2.25-3.898-0.658-6.364,0.008-9.697c-0.672-0.32-5.619,0.179-8.068-0.36
			c-1.947-0.43-3.559-1.596-4.535-3.289c-0.598-1.033-0.908-2.188-0.922-3.367c-0.178-0.029-0.355-0.061-0.529-0.102
			c-1.891-0.422-3.453-1.561-4.402-3.205c-0.781-1.352-1.062-2.906-0.818-4.455c-2.691,1.139-6.936-0.638-8.311-3.388
			c-3.422-6.844,2.477-10.981,6.881-13.929c1.533-1.027,3.248-2.115,5.082-3.24c-0.014-0.178-0.018-0.355-0.012-0.529
			c-0.172-0.225-0.332-0.461-0.475-0.709c-1.662-2.877-0.676-6.555,2.201-8.215c0.766-0.443,1.594-0.699,2.42-0.779
			c0.852-0.615,2.043-1.568,2.848-2.213c4.326-3.463,7.182-5.744,10.877-5.057c1.205,0.227,2.305,0.785,3.188,1.594
			c13.309-9.23,16.963-11.316,20.832-10.453c1.781,0.398,3.316,1.523,4.219,3.082c0.32,0.555,0.557,1.104,0.717,1.641
			c1.494,0.508,2.727,1.514,3.518,2.883c0.707,1.225,1.051,2.396,1.049,3.555c5.479-3.113,8.475-3.883,11.119-3.295
			c1.676,0.375,3.098,1.309,4.066,2.656c1.697,0.494,3.098,1.584,3.975,3.107c0.166,0.285,0.309,0.58,0.432,0.883
			c1.178,0.596,2.152,1.51,2.824,2.676c0.922,1.596,1.254,3.08,1,4.549c0.752-0.041,1.467,0.008,2.168,0.154
			c2,0.422,3.652,1.609,4.656,3.348c1.697,2.943,1.443,5.602-0.744,8.48c1.973-0.629,3.496-0.707,4.898-0.391
			c1.887,0.426,3.447,1.564,4.393,3.203c0.947,1.641,1.178,3.576,0.652,5.449c-0.027,0.094-0.055,0.186-0.084,0.277
			c1.043,0.572,1.908,1.412,2.516,2.465c3.428,5.936-1.508,10.178-14.17,18.445c0.18,0.973,0.158,1.998-0.082,2.889
			c-0.922,3.414-3.838,5.229-12.129,9.975c-0.07,0.039-0.143,0.082-0.215,0.123c-0.508,1.039-1.318,1.943-2.396,2.566
			c-0.572,0.332-1.18,0.557-1.795,0.686c-0.012,0.012-0.023,0.025-0.035,0.039c-1.734,1.881-4.133,4.465-7.793,4.053
			c-0.369-0.041-0.729-0.111-1.078-0.211c-1.592,0.59-2.969-1.454-4.396-1.757c-1.701-0.354-2.314,1.489-3.264,0.065
			C59.726,171.599,56.325,171.86,54.233,171.86z"/>
		<path fill="#F1F1F2" d="M115.905,183.315c0.551-1.871,0.33-3.811-0.621-5.459c-0.947-1.641-2.508-2.777-4.391-3.199
			c-1.295-0.287-2.664-0.25-4.371,0.242c-0.109-0.232-0.232-0.467-0.369-0.703c-0.777-1.347-2.027-2.366-3.496-2.889
			c0.465-0.709,0.793-1.417,1.018-2.15c0.584-1.916,0.369-3.902-0.609-5.592c-0.93-1.613-2.461-2.73-4.311-3.15
			c-1.436-0.324-2.949-0.234-4.975,0.461c-0.941-1.174-2.25-1.988-3.775-2.33c-2.852-0.641-3.859,3.14-10.34,7.085
			c-6.053,2.844-12.154,1.874-25.76,11.411c-0.623,0.436-1.277,0.896-1.953,1.367c-12.102,5.83-17.91,8.916-20.727,11.775
			c-1.207,0.939-1.975,2.281-2.223,3.717c-0.48,1.771-0.25,3.598,0.656,5.166c0.279,0.484,0.609,0.922,0.988,1.312
			c-0.303,0.533-0.531,1.066-0.697,1.615c-0.584,1.92-0.367,3.91,0.611,5.605c0.947,1.643,2.508,2.775,4.393,3.193
			c1.227,0.27,2.498,0.24,4.049-0.18c-5.748,4.658-7.295,8.152-4.889,12.324c0.832,1.438,2.457,2.625,4.074,3.004
			c0.529,0.125,1.053,0.195,1.604,0.195c2.457,0,5.484-1.407,12.246-5.695c-0.088,0.994,0.078,1.997,0.514,3.033
			c-4.201,3.309-6.367,6.113-6.471,8.965c-3.004,2.311-4.369,4.152-4.955,6.188c-0.537,1.867-0.312,3.799,0.635,5.439
			c0.926,1.605,2.451,2.719,4.293,3.137c2.605,0.586,5.41-0.176,11.043-3.488c0.102,0.027,2.4,2.663,4.838,1.726
			c0.014,0.025-1.666,2.294-1.514,5.194c-3.312,3.018-4.234,5.807-2.207,9.318c0.311,0.541,0.699,1.031,1.148,1.455
			c0.121,0.328,0.273,0.65,0.453,0.959c0.896,1.555,2.428,2.672,4.199,3.068c0.043,0.008,0.086,0.018,0.131,0.027
			c0.014,0.025,0.027,0.049,0.043,0.076c0.9,1.559,2.436,2.668,4.209,3.047c2.23,0.473,4.324-0.174,7.176-1.883
			c0.061,0.117,0.125,0.236,0.195,0.355c0.898,1.557,2.652,2.775,4.43,3.07c0.377,0.061,0.742,0.09,1.094,0.09
			c2.725,0,4.719-1.744,6.504-3.305c0.143-0.125,0.287-0.254,0.426-0.377c0.537-0.133,1.064-0.342,1.566-0.631
			c1.227-0.709,2.107-1.781,2.588-3c2.965-2.328,5.166-5.178,3.145-8.996c0.033-0.117,0.064-0.234,0.094-0.348
			c10.582-5.584,13.709-7.904,14.746-11.424c0.523-1.787,0.311-3.645-0.605-5.229c-0.832-1.443-2.432-2.615-4.053-2.992
			c-1.949-0.455-3.707-0.189-7.119,1.621c-0.133-0.84-0.461-1.711-0.994-2.637c-0.445-0.77-1.037-1.434-1.734-1.961
			c0.885-1.91,0.83-3.73-0.27-5.756c2.871-2.592,4.721-4.742,5.412-6.83c2.084-1.699,3.189-3.223,3.693-4.943
			c0.086-0.291,0.152-0.584,0.199-0.879c3.762-2.736,5.453-4.848,6.115-7.15c0.5-1.742,0.354-3.537-0.416-5.105
			c3.578-3.619,4.361-6.762,2.314-10.309c-0.283-0.49-0.621-0.938-1.006-1.332C114.165,186.78,115.372,185.128,115.905,183.315z"/>
		<path fill="#231F20" d="M385.659,111.534c-6.062,5.417-9.582,12.923-9.186,21.11c0.057,1.157,0.186,2.318,0.369,3.459
			c0.521,3.142,1.496,6.192,2.766,9.131c0.51,0.562,1.006,1.141,1.488,1.717c-1.416-3.293-2.377-6.758-2.6-10.302
			c-0.178-2.448,0.01-4.946,0.635-7.421c0.512-2.016,1.293-3.899,2.281-5.647c6.268,6.854,11.604,13.797,16.215,21.942
			c3.592,6.321,5.115,13.802,8.129,20.261c-2.486-0.008-4.988-0.399-7.447-1.278c-2.334-0.823-4.457-2-6.381-3.451
			c-1.523-1.119-2.918-2.416-4.199-3.834c0.285,0.713,0.525,1.45,0.715,2.196c1.047,1.196,2.154,2.312,3.332,3.354
			c3.99,3.55,8.719,6.12,14.252,6.863c9.309,1.242,17.867-2.833,25.373-7.872c12.812-8.608,26.717-23.104,27.18-39.523
			c0.23-8.24-3.83-16.033-10.998-20.209c-6.902-4.018-15.148-4.776-22.975-4.334C411.284,98.437,395.89,102.395,385.659,111.534z
			 M435.089,99.646c7.459,1.04,14.781,4.803,17.896,12c2.9,6.685,1.375,14.102-1.703,20.451c-3.131-12.845-10.1-25.275-20.703-32.78
			C432.087,99.348,433.593,99.437,435.089,99.646z M416.751,101.205c12.6,13.025,24.365,24.742,24.729,44.093
			c0.006,0.169,0.029,0.329,0.049,0.503c-2.041,2.147-4.234,4.166-6.518,6.072c-0.736-6.457-3.902-12.678-7.092-18.803
			c-5.068-9.74-12.084-20.852-20.986-28.31C410.124,103.368,413.411,102.141,416.751,101.205z M396.026,110.33
			c12.781,11.639,25.137,30.899,29.727,48.308c-1.566,1.009-3.143,1.978-4.73,2.905c-2.158,1.164-4.428,2.152-6.764,2.889
			c0.857-5.495-2.291-12.21-4.203-17.042c-4.605-11.775-12.162-23.566-21.975-31.642c2.049-1.749,4.291-3.286,6.594-4.638
			C395.11,110.846,395.575,110.59,396.026,110.33z"/>
		<path fill="#F1F1F2" d="M197.479,76.743c-1.023-1.771-2.717-2.996-4.77-3.445c-0.84-0.182-1.727-0.24-2.703-0.152
			c-0.141-0.816-0.422-1.605-0.848-2.342c-0.979-1.693-2.594-2.867-4.547-3.303c-3.125-0.701-6.814,0.434-14.24,4.906
			c-0.906,0.08-1.893,0.307-3.02,0.707c-0.934-1.109-2.205-1.877-3.676-2.201c-3.928-0.859-6.055,0.82-17.471,7.987
			c0.061-0.164-1.232-2.131-2.166-3.75c-0.881-1.523-3.75-3-5.457-3.118c-3.055-0.21-5.803,0.367-14.213,5.811
			c-0.891-1.133-2.232-2.006-3.605-2.32c-2.254-0.514-4.215-0.018-8.107,2.289c-2.852,0.182-6.076,2.324-13.525,7.498
			c-0.76,0.529-1.623,1.129-2.504,1.734c-2.854,1.461-4.961,2.611-6.521,3.666c-0.467,0.133-0.924,0.324-1.363,0.578
			c-2.326,1.344-3.416,4.008-2.869,6.5c0.07,0.945,0.352,1.869,0.84,2.715c0.256,0.443,0.584,0.863,0.963,1.24
			c-0.471,0.697-0.793,1.402-1.018,2.146c-0.547,1.83-0.334,3.732,0.604,5.354c0.904,1.566,2.447,2.691,4.234,3.088
			c0.691,0.154,2.221,0.21,2.959,0.152c-0.75,0.833-1.041,2.542-1.166,3.667c-0.375,5.625,2.865,8.469,4.582,16.042
			c1.082,4.766-3.744,10.468-3.92,11.06c-0.607,2.035-0.379,4.133,0.648,5.91c0.994,1.723,2.641,2.916,4.633,3.361
			c0.545,0.121,1.111,0.186,1.719,0.186c2.156,0,4.812-0.803,8.586-2.705c2.773,0.439,6.072-0.514,10.949-3.227
			c5.217,0.189,12.045-4.623,26.779-15.951c1.467-1.127,3.098-2.381,4.781-3.658c19.91-9.896,26.836-13.848,29.178-18.045
			c4.359-2.984,6.641-5.467,7.426-8.037c0.002-0.004,0.004-0.01,0.004-0.014c5.137-3.574,7.809-6.488,8.676-9.393
			c0.617-2.061,0.396-4.182-0.615-5.984c0.701-1.018,1.178-2.002,1.455-2.986C198.755,80.644,198.509,78.526,197.479,76.743z"/>
		<g>
			<path fill="#231F20" d="M284.198,89.18c0.301,7.841,5.873,15.431,10.965,20.99c9.168,10.018,21.42,17.239,33.252,23.595
				c8.057,4.333,16.449,8.39,25.039,11.767c1.055,0.407,2.104,0.806,3.154,1.205c0.094-1.198,0.338-2.355,0.768-3.411
				c-0.537-0.349-1.082-0.692-1.625-1.035c-12.826-8.173-25.738-16.18-38.215-24.888c-5.377-3.755-10.814-7.394-15.529-11.818
				c-3.812-3.585-7.283-7.677-9.65-12.373c-0.791-1.634-2.143-4.133-1.6-6.074c-0.02,0.046-0.049,0.098-0.062,0.152
				c0.021-0.082,0.043-0.164,0.084-0.233c-0.008,0.026-0.016,0.055-0.021,0.081c0.705-1.816,3.252-2.986,4.836-3.762
				c2.711-1.324,5.621-2.264,8.535-2.999c5.719-1.454,11.646-2.025,17.543-1.793c6.035,0.234,12.719,1.469,18.082,4.48
				c-1.479,3.197-1.383,7.264-1.125,10.591c0.516,6.851,2.529,13.101,5.592,19.185c4.412,8.78,10.383,17.423,17.297,24.897
				c0.186,0.204,0.373,0.407,0.561,0.611c1.705-0.846,3.643-1.25,5.334-1.082c0.072,0.005-0.463,0.359,0.428-0.098l-0.16-0.277
				c-0.25-0.433-0.5-0.865-0.754-1.307l-0.016-0.025c-2.154-3.733-4.541-7.367-6.65-11.139c-3.574-6.411-7.158-12.76-10.072-19.229
				c-1.979-4.506-3.641-9.123-4.207-14.025c-0.111-1.011-0.273-2.308-0.256-3.317c0.02-1.012,0.117-3.985,2.408-4.935
				c0.842-0.349,2.4-0.74,3.527-0.93c3.66-0.622,7.547-0.269,11.078,0.868c3.828,1.231,7.68,3.603,9.611,7.245
				c1.92,3.648,1.439,8.314,1.152,12.279c-0.611,8.678-1.094,17.363-1.447,26.053c-0.094,2.296-0.182,4.586-0.24,6.883
				c-0.033,1.162-0.057,2.32-0.068,3.481c1.096,0.557,2.172,1.263,3.201,2.065c0.541-1.582,1.049-3.204,1.523-4.863
				c3.531-12.304,5.041-26.027,2.176-38.229c-1.035-4.413-2.576-8.443-5.914-11.644c-2.908-2.777-6.508-4.752-10.244-6.163
				c-5.574-2.116-14.717-4.39-20.045-0.298c-0.031-0.017-0.051-0.028-0.078-0.036c-0.303-0.125-0.594-0.21-0.92-0.335
				c-7.783-2.78-16.523-3.241-24.729-3.25c-7.98-0.023-16.527,0.293-24.105,3.028C287.825,80.862,283.987,83.794,284.198,89.18z"/>
			<path fill="#231F20" d="M388.294,166.917c0.764,0.425,1.543,0.853,2.316,1.272c2.102,1.141,4.227,2.26,6.344,3.368
				c7.703,4.041,15.465,7.965,23.281,11.766c3.576,1.734,7.859,3.65,10.057,7.139c2.186,3.484,2.291,7.985,1.445,11.901
				c-0.781,3.627-2.453,7.109-4.822,9.967c-0.652,0.793-1.477,1.742-2.416,2.457c-0.707,0.535-1.467,0.939-2.275,1.06
				c-0.014-0.003-0.211-0.005-0.371-0.004c-0.023,0.001-0.035-0.003-0.049-0.006c-0.961-0.104-1.939-0.498-2.871-1.033
				c-1.322-0.75-2.572-1.772-3.572-2.567c-3.627-2.861-6.625-6.314-9.344-10.022c-4.15-5.79-8.01-12.015-11.805-18.346
				c-2.057-3.442-4.084-6.913-6.135-10.348c-0.41-0.688-0.812-1.368-1.217-2.047c-0.176-0.303-0.354-0.592-0.537-0.891
				c-0.885,1.147-1.986,2.14-3.281,2.899c0.398,1.387,0.822,2.781,1.266,4.189c3.473,10.754,8.424,21.371,15.213,30.129
				c4.064,5.264,12.83,13.943,20.674,14.369c-0.088,6.47-2.725,13.361-5.717,18.819c-2.816,5.183-6.363,9.979-10.549,14.127
				c-2.475,2.456-7.844,8.177-11.838,7.516c0.045,0.021,0.1,0.034,0.15,0.041c-0.113-0.017-0.223-0.046-0.328-0.065
				c0.055,0.014,0.119,0.023,0.178,0.024c-2.221-0.565-3.922-3.51-4.994-5.246c-2.584-4.199-4.25-8.943-5.375-13.731
				c-1.477-6.297-1.908-12.824-2.471-19.359c-1.238-14.445-1.736-28.927-2.35-43.41c-0.092-2.119-0.188-4.246-0.287-6.358
				c-0.992-0.119-2.006-0.332-2.928-0.608c-0.43,2.314-0.799,4.653-1.129,7.003c-1.102,7.934-1.666,15.974-1.969,23.85
				c-0.504,13.108-0.453,26.797,2.889,39.565c2.457,9.414,11.328,31.139,24.383,22.332c6.545-4.426,11.227-11.736,15.254-18.38
				c4.281-7.066,8.268-14.702,10.41-22.729c0.357-1.34,0.662-2.692,0.861-4.067c1.492-0.618,2.908-1.665,4.191-3.261
				c4.891-6.069,6.768-15.501,5.889-23.122c-1.004-8.717-7.549-14.694-14.492-19.358c-6.727-4.512-14.477-7.635-22.145-10.137
				c-2.047-0.665-4.107-1.275-6.191-1.805c-0.902-0.241-1.803-0.461-2.709-0.653C388.921,164.441,388.696,165.715,388.294,166.917z"
				/>
		</g>
		<g>
			<g>
				<path fill="#A78701" d="M368.222,183.779c-0.482,0-0.969-0.052-1.469-0.159c-1.795-0.381-3.35-1.487-4.264-3.035
					c-1.254-2.127-1.154-4.064-0.432-5.732c-0.096-0.045-0.193-0.092-0.287-0.141c-0.658,0.034-1.299-0.021-1.955-0.158
					c-1.871-0.392-3.488-1.537-4.436-3.142c-1.301-2.207-1.125-4.238-0.326-5.982c-0.475-0.008-0.945-0.063-1.422-0.162
					c-1.887-0.393-3.516-1.545-4.471-3.163c-1.781-3.02-0.742-5.714,0.822-7.747c-1.137-0.551-2.094-1.42-2.734-2.505
					c-1.73-2.932-0.703-6.68,2.293-8.373c0.766-0.432,1.586-0.688,2.412-0.782c1.648-0.913,4.988-3.145,7.309-4.696
					c8.545-5.71,11.428-7.633,15.066-6.824c1.764,0.393,3.291,1.492,4.189,3.014c0.77,1.303,1.006,2.543,0.91,3.691
					c0.811-0.09,1.584-0.049,2.371,0.115c1.883,0.392,3.508,1.542,4.459,3.155c1.148,1.948,1.131,3.774,0.559,5.384
					c0.779-0.076,1.525-0.027,2.283,0.13c1.889,0.396,3.52,1.551,4.477,3.17c0.902,1.528,1.131,3.318,0.648,5.042
					c-0.111,0.405-0.256,0.792-0.436,1.166c0.523,0.46,0.977,1.003,1.334,1.612c3.223,5.458-2.516,9.595-4.678,11.152
					c-0.178,0.128-0.361,0.259-0.549,0.391c-0.186,1.908-1.279,3.702-3.105,4.734c-0.781,0.441-1.621,0.7-2.465,0.788
					c-1.312,0.784-3.617,2.392-5.105,3.431C373.964,181.823,371.161,183.779,368.222,183.779z"/>
			</g>
		</g>
		<path fill="#806800" d="M355.228,184.771c-0.738,0-1.43-0.176-2.084-0.525c-0.559,0.193-1.16,0.301-1.807,0.301
			c-0.012,0-0.018,0-0.029,0c-1.496-0.008-3.633-0.621-5.297-3.506c-1.016-1.758-1.113-3.311-0.93-4.465
			c-0.383,0.08-0.703,0.133-1.195,0.117c-1.572-0.004-3.824-0.658-5.615-3.76c-1.377-2.387-1.135-4.377-0.686-5.627
			c0.246-0.695,0.604-1.299,1.035-1.828c-1.088-0.43-2.02-1.238-2.648-2.334c-1.109-1.918-0.449-4.369,1.467-5.477
			c0.924-0.535,1.969-0.658,2.932-0.428c0.668-0.664,1.488-1.582,2.061-2.223c2.654-2.975,5.18-5.775,8.479-5.441
			c1.646,0.168,3.09,1.137,3.967,2.652c1.025,1.777,1.084,3.34,0.869,4.482c1.393,0.322,3.01,1.268,4.363,3.615
			c1.371,2.367,1.164,4.357,0.75,5.609c-0.012,0.035-0.023,0.072-0.039,0.107c1.486,0.068,3.496,0.762,5.084,3.514
			c1.393,2.404,0.902,4.383,0.49,5.348c-0.033,0.07-0.062,0.139-0.094,0.207c0.037,0.062,0.072,0.127,0.113,0.191
			c0.264,0.457,0.428,0.947,0.498,1.439c0.904,2.484,0.361,4.279-1.629,5.352c-1.932,1.037-3.686,0.568-5.221-1.398
			c-0.633,1.84-1.734,3.676-4.131,4.025C355.69,184.755,355.456,184.771,355.228,184.771z"/>
		<path fill="#231F20" d="M350.964,153.02c-0.088,0.004-0.178,0.02-0.266,0.026c-1.129-0.226-2.514-0.155-3.932,0.271
			c-2.756,0.823-4.656,2.691-4.586,4.364c-1.182,1.359-2.125,2.898-2.797,4.549c-0.336-0.157-0.607-0.279-0.762-0.344
			c-3.391-1.418-7.092-1.915-10.727-1.305c-6.82,1.145-13.018,5.42-13.068,12.957c-0.02,0.914-0.111,2.66,1.273,2.06
			c1.43-0.606,2.771-1.423,4.098-2.224c2.172-1.312,4.25-2.709,6.072-4.482c2.637-2.566,6.119-3.596,9.752-3.664
			c0.816-0.015,1.635,0.023,2.447,0.102c-0.623,3.196-0.324,6.57,1.055,9.617c1.496,3.477,4.68,6.312,8.352,7.976
			c-1.559,3.118-4.035,6.286-7.367,7.595c-2.447,0.961-4.814,1.671-7.188,2.856c-1.219,0.609-6.072,2.493-5.596,4.18
			c0.262,0.925,3.211,1.798,4.01,2.04c1.371,0.417,2.818,0.59,4.248,0.554c4.018-0.099,7.006-2.12,9.725-4.937
			c2.615-2.706,4.459-5.93,5.264-9.622c0.109-0.501,0.195-1.008,0.268-1.519c1.955,0.467,3.941,0.601,5.809,0.309
			c2.025-0.318,3.646-1.088,4.93-2.171c0.34-0.244,0.676-0.511,0.998-0.815c0.982-0.924,1.693-1.973,2.092-2.976
			c5.785,3.14,12.547,3.929,18.488-0.186c9.123-6.318,10.338-21.476,6.084-30.983c-4.998-11.155-18.26-15.067-28.523-9.304
			C355.171,141.285,351.776,146.905,350.964,153.02z M347.534,171.559c-1.65-2.831-3.936-7.783-3.594-11.773
			c1.234,0.475,2.969,0.5,4.756-0.037c1.912-0.572,3.418-1.651,4.143-2.816c0.543,0.596,1.029,1.232,1.418,1.831
			c1.248,1.924,3.182,4.491,4.236,6.157c1.598,2.53,3.906,4.568,4.625,7.572c0.139,0.599,0.172,1.229,0.135,1.856
			c-1.43-0.107-3.295,0.653-4.885,2.153c-0.746,0.703-1.336,1.478-1.752,2.251c-1.176-0.413-2.346-0.975-3.189-1.428
			C350.987,176.02,348.513,173.234,347.534,171.559z M384.579,151.603c2.27,3.251,4.145,6.799,4.338,10.855
			c0.23,4.798-2.428,9.531-6.986,11.597c-2.748,1.24-7.721,0.369-10.645-1.014c-1.793-0.848-3.555-2.139-5.131-3.631
			c-0.082-1.72-0.332-3.412-0.684-4.963c-0.926-4.062-3.998-7.784-7.838-9.815c-1.814-6.183-1.814-12.741,3.855-15.979
			C370.384,133.575,379.626,144.404,384.579,151.603z"/>
		<g>
			<path fill="#231F20" d="M88.161,267.277c6.641-4.182,10.426-12.802,12.695-19.991c4.092-12.948,4.221-27.17,3.809-40.595
				c-0.275-9.143-0.959-18.439-2.33-27.566c-0.174-1.117-0.354-2.226-0.533-3.336c-1.084,0.519-2.209,0.886-3.338,1.041
				c-0.033,0.641-0.059,1.283-0.084,1.926c-0.666,15.193-1.143,30.381-2.445,45.539c-0.564,6.533-0.996,13.062-2.471,19.357
				c-1.199,5.095-3.006,10.146-5.891,14.544c-1.02,1.502-2.508,3.922-4.461,4.423c0.051-0.006,0.109-0.007,0.164-0.021
				c-0.082,0.021-0.164,0.044-0.244,0.043c0.025-0.006,0.055-0.014,0.08-0.021c-1.926,0.297-4.213-1.324-5.676-2.308
				c-2.502-1.686-4.771-3.736-6.863-5.892c-4.119-4.225-7.578-9.074-10.326-14.297c-2.814-5.344-5.086-11.748-5.16-17.9
				c3.508-0.317,6.982-2.434,9.734-4.32c5.676-3.871,10.08-8.74,13.818-14.436c5.398-8.21,9.896-17.703,12.914-27.427
				c0.084-0.264,0.166-0.528,0.248-0.792c-1.584-1.054-2.902-2.529-3.604-4.078c-0.031-0.064,0.543,0.221-0.299-0.322l-0.16,0.277
				c-0.25,0.434-0.498,0.866-0.754,1.308l-0.014,0.025c-2.156,3.733-4.111,7.616-6.322,11.329
				c-3.766,6.301-7.471,12.578-11.615,18.338c-2.914,3.965-6.082,7.713-10.043,10.656c-0.82,0.6-1.861,1.391-2.746,1.879
				c-0.885,0.49-3.51,1.891-5.477,0.381c-0.723-0.555-1.842-1.708-2.568-2.59c-2.369-2.857-4.008-6.4-4.789-10.027
				c-0.848-3.932-0.719-8.452,1.471-11.945c2.199-3.488,6.48-5.404,10.057-7.139c7.822-3.809,15.584-7.734,23.287-11.773
				c2.035-1.066,4.062-2.135,6.08-3.232c1.023-0.553,2.039-1.111,3.049-1.682c-0.066-1.228,0.008-2.513,0.188-3.805
				c-1.639,0.322-3.299,0.693-4.973,1.113c-12.42,3.093-25.061,8.646-34.195,17.229c-3.305,3.104-6.023,6.454-7.127,10.943
				c-0.951,3.908-0.861,8.013-0.215,11.953c0.955,5.887,3.557,14.94,9.764,17.509c0.002,0.036,0.002,0.058,0.008,0.086
				c0.043,0.325,0.115,0.62,0.17,0.964c1.484,8.131,5.455,15.932,9.551,23.041c3.969,6.923,8.518,14.166,14.674,19.361
				C79.144,268.294,83.603,270.152,88.161,267.277z"/>
			<path fill="#231F20" d="M103.437,138.258c-0.016-0.874-0.033-1.763-0.057-2.642c-0.062-2.391-0.156-4.791-0.256-7.179
				c-0.352-8.691-0.834-17.375-1.451-26.045c-0.285-3.964-0.768-8.631,1.154-12.278c1.924-3.635,5.77-5.977,9.584-7.203
				c3.531-1.137,7.385-1.429,11.043-0.807c1.014,0.168,2.246,0.408,3.336,0.863c0.816,0.346,1.547,0.801,2.055,1.441
				c0.004,0.014,0.102,0.186,0.184,0.323c0.012,0.021,0.014,0.032,0.02,0.046c0.389,0.885,0.537,1.928,0.541,3.004
				c0.01,1.52-0.25,3.112-0.438,4.377c-0.666,4.57-2.156,8.894-4.01,13.102c-2.938,6.491-6.398,12.946-9.984,19.397
				c-1.953,3.502-3.945,6.994-5.895,10.487c-0.391,0.698-0.777,1.388-1.164,2.077c-0.174,0.303-0.336,0.602-0.502,0.91
				c1.436,0.194,2.846,0.65,4.15,1.392c1.002-1.038,1.998-2.103,2.996-3.19c7.576-8.384,14.295-17.98,18.486-28.238
				c2.525-6.153,5.66-18.083,2.107-25.089c5.646-3.159,12.932-4.322,19.156-4.46c5.896-0.152,11.822,0.521,17.508,2.073
				c3.365,0.914,11.004,2.704,12.428,6.494c-0.004-0.05-0.02-0.104-0.039-0.151c0.043,0.107,0.072,0.217,0.107,0.316
				c-0.016-0.055-0.039-0.113-0.068-0.165c0.621,2.206-1.078,5.15-2.047,6.947c-2.344,4.338-5.619,8.152-9.203,11.521
				c-4.715,4.428-10.152,8.064-15.531,11.82c-11.891,8.294-24.184,15.967-36.42,23.739c-1.789,1.14-3.582,2.286-5.361,3.43
				c0.393,0.918,0.715,1.902,0.936,2.838c2.221-0.785,4.43-1.633,6.629-2.523c7.422-3.013,14.668-6.543,21.641-10.22
				c11.604-6.118,23.432-13.006,32.82-22.284c6.924-6.835,21.303-25.38,7.148-32.283c-7.105-3.455-15.777-3.854-23.545-4.021
				c-8.26-0.174-16.865,0.192-24.889,2.35c-1.34,0.36-2.664,0.772-3.953,1.287c-1.281-0.982-2.896-1.685-4.92-1.999
				c-7.701-1.2-16.809,1.891-22.969,6.462c-7.047,5.227-8.951,13.885-9.52,22.229c-0.543,8.082,0.627,16.355,2.293,24.246
				c0.449,2.105,0.951,4.196,1.533,6.266c0.242,0.901,0.502,1.791,0.789,2.673C100.979,138.955,102.194,138.511,103.437,138.258z"/>
		</g>
		<path fill="#231F20" d="M56.79,168.232c7.723,2.543,15.982,1.836,22.875-2.601c0.975-0.628,1.916-1.319,2.811-2.05
			c2.461-2.021,4.615-4.391,6.525-6.96c0.232-0.722,0.484-1.44,0.742-2.147c-2.143,2.874-4.664,5.438-7.621,7.402
			c-2.031,1.378-4.289,2.466-6.744,3.16c-2.002,0.566-4.023,0.83-6.031,0.849c2.803-8.854,6.146-16.947,10.895-25.014
			c3.678-6.271,9.395-11.331,13.482-17.17c1.236,2.158,2.148,4.52,2.615,7.089c0.455,2.433,0.498,4.859,0.203,7.251
			c-0.209,1.879-0.635,3.735-1.221,5.554c0.475-0.604,0.992-1.18,1.545-1.717c0.512-1.505,0.924-3.021,1.236-4.562
			c1.08-5.23,0.941-10.611-1.182-15.773c-3.578-8.683-11.387-14.058-19.504-18.04c-13.861-6.791-33.367-11.585-47.818-3.775
			c-7.25,3.92-11.969,11.333-12.002,19.629c-0.027,7.986,3.438,15.506,7.734,22.062C32.634,152.588,43.759,163.941,56.79,168.232z
			 M21.78,131.369c-2.828-6.979-3.23-15.202,1.443-21.5c4.34-5.854,11.525-8.242,18.564-8.75
			c-9.559,9.135-16.84,21.385-18.037,34.32C23.022,134.119,22.347,132.769,21.78,131.369z M32.3,146.47
			c4.98-17.425,9.244-33.472,25.82-43.463c0.143-0.089,0.271-0.188,0.412-0.293c2.879,0.693,5.725,1.585,8.518,2.607
			c-5.225,3.868-9.029,9.719-12.738,15.543c-5.9,9.262-12.016,20.893-14.023,32.33C37.485,151.127,34.78,148.896,32.3,146.47z
			 M50.563,159.855c3.689-16.887,14.191-37.219,26.973-49.897c1.656,0.853,3.283,1.733,4.881,2.646
			c2.088,1.285,4.078,2.757,5.885,4.412c-5.189,2.005-9.43,8.089-12.658,12.16c-7.895,9.877-14.328,22.316-16.414,34.852
			c-2.541-0.899-4.992-2.072-7.314-3.391C51.468,160.39,51.015,160.117,50.563,159.855z"/>
		<g>
			<g>
				<path fill="#A78701" d="M99.638,179.263c-0.502,0-0.996-0.06-1.504-0.173c-1.35-0.302-2.557-1.036-3.439-2.067
					c-1.295,0.375-2.412,0.399-3.588,0.141c-1.58-0.346-2.969-1.272-3.883-2.574c-0.65,0.039-1.275-0.014-1.908-0.149
					c-1.812-0.389-3.379-1.523-4.295-3.111c-0.9-1.56-1.123-3.392-0.623-5.158c0.104-0.367,0.23-0.723,0.387-1.072
					c-0.787,0.086-1.498,0.013-2.246-0.163c-1.686-0.396-3.145-1.476-4.004-2.962c-2.184-3.783-0.098-6.943,2.184-9.082
					c0.059-2.016,1.131-3.956,3.004-5.038c0.752-0.434,1.559-0.687,2.369-0.773c1.736-0.962,5.414-3.459,7.961-5.188
					c9.533-6.471,12.17-8.13,15.6-7.346c0.596,0.137,1.162,0.359,1.686,0.654c4.527-2.6,6.512-3.016,8.711-2.499
					c1.697,0.398,3.164,1.484,4.027,2.979c0.443,0.767,0.719,1.602,0.826,2.461c0.807-0.087,1.541-0.022,2.297,0.151
					c1.736,0.396,3.236,1.498,4.115,3.021c0.895,1.548,1.113,3.364,0.619,5.113c-0.518,1.831-1.637,3.359-4.16,5.269
					c-2.275,1.245-10.275,17.495-12.525,19.995C104.565,179.117,102.677,179.263,99.638,179.263z"/>
			</g>
		</g>
		<path fill="#806800" d="M120.302,187.575c-0.006,0-0.008,0-0.014,0c-1.252-0.002-3.615-0.465-5.391-3.537
			c-0.346-0.602-0.59-1.179-0.754-1.728c-0.334,0.049-0.697,0.069-1.023,0.069c-1.807-0.016-3.768-1.259-6.518-4.464
			c-1.48-1.724,7.352-18.897,7.779-19.137c0.859-0.948,1.793-2.085,2.48-2.923c3.492-4.248,6.477-7.903,10.584-7.583
			c1.154,0.096,3.309,0.641,4.803,3.227c1.67,2.894,1.33,5.229,0.748,6.678c-0.098,0.244-0.207,0.477-0.328,0.701
			c0.746,0.655,1.486,1.542,2.174,2.735c1.729,2.992,1.389,5.402,0.799,6.896c-0.471,1.197-1.205,2.156-2.117,2.947
			c0.311,0.373,0.615,0.804,0.904,1.305c1.156,2.003,0.469,4.565-1.533,5.719c-1.012,0.584-2.166,0.694-3.209,0.41
			c-0.238,0.165-0.486,0.32-0.742,0.467c-0.246,0.41-0.482,0.816-0.676,1.15C126.243,183.983,124.146,187.575,120.302,187.575z"/>
		<path fill="#231F20" d="M110.065,177.537c0.047,0.074,0.105,0.144,0.156,0.217c0.369,1.09,1.121,2.254,2.199,3.269
			c2.092,1.976,4.66,2.687,6.074,1.79c1.768,0.343,3.572,0.391,5.338,0.146c0.031,0.37,0.061,0.666,0.082,0.832
			c0.469,3.646,1.887,7.1,4.234,9.943c4.4,5.333,11.201,8.562,17.754,4.838c0.803-0.44,2.359-1.234,1.148-2.133
			c-1.24-0.934-2.619-1.689-3.975-2.438c-2.223-1.225-4.471-2.324-6.918-3.018c-3.541-1-6.174-3.501-8.051-6.613
			c-0.42-0.699-0.795-1.426-1.135-2.17c3.08-1.058,5.852-3.004,7.801-5.722c2.264-3.034,3.127-7.208,2.732-11.221
			c3.479-0.209,7.461,0.352,10.26,2.583c2.057,1.639,3.855,3.335,6.068,4.797c1.137,0.75,5.195,4.012,6.418,2.756
			c0.67-0.689-0.049-3.68-0.238-4.492c-0.324-1.396-0.898-2.735-1.645-3.957c-2.096-3.43-5.34-5.007-9.139-5.953
			c-3.65-0.912-7.365-0.896-10.965,0.253c-0.488,0.155-0.971,0.335-1.449,0.527c-0.572-1.926-1.449-3.714-2.637-5.185
			c-1.287-1.595-2.764-2.613-4.344-3.184c-0.383-0.172-0.781-0.33-1.205-0.457c-1.291-0.388-2.557-0.48-3.623-0.324
			c-0.174-6.579-2.871-12.83-9.406-15.918c-10.033-4.742-23.766,1.785-29.873,10.223c-7.162,9.906-3.918,23.348,6.203,29.354
			C97.8,179.761,104.364,179.89,110.065,177.537z M127.835,171.236c-1.627,2.846-4.771,7.301-8.398,9
			c-0.207-1.307-1.053-2.821-2.41-4.1c-1.451-1.369-3.139-2.135-4.51-2.18c0.244-0.769,0.553-1.508,0.875-2.145
			c1.043-2.043,2.299-5,3.215-6.746c1.393-2.649,2.004-5.668,4.246-7.793c0.449-0.419,0.979-0.762,1.541-1.043
			c0.621,1.291,2.213,2.526,4.307,3.152c0.98,0.295,1.947,0.418,2.824,0.392c0.23,1.226,0.33,2.519,0.359,3.476
			C129.972,166.017,128.798,169.551,127.835,171.236z M92.03,149.134c1.682-3.591,3.816-6.99,7.232-9.186
			c4.039-2.6,9.469-2.662,13.537,0.252c2.447,1.76,4.18,6.502,4.443,9.725c0.162,1.977-0.074,4.148-0.578,6.26
			c-1.449,0.93-2.789,1.993-3.957,3.072c-3.055,2.834-4.742,7.355-4.582,11.696c-4.447,4.663-10.127,7.942-15.766,4.65
			C83.517,170.441,88.272,157.021,92.03,149.134z"/>
	</g>
</g>
</svg>
