<svg xmlns="http://www.w3.org/2000/svg" xmlns:xlink="http://www.w3.org/1999/xlink" viewBox="0 0 79.65 83.84"><defs><style>.cls-1{fill:none;}.cls-2{isolation:isolate;}.cls-3{clip-path:url(#clip-path);}.cls-4{fill:url(#radial-gradient);}.cls-5{opacity:0.7;}.cls-6{clip-path:url(#clip-path-2);}.cls-7{mix-blend-mode:soft-light;}.cls-8{fill:#fff;}.cls-9{fill:#fbefbd;}.cls-10{fill:#ffd97e;}.cls-11{fill:#ffda55;}.cls-12{fill:#ff8526;}.cls-13{fill:#231f20;}.cls-14{fill:#ffd102;}.cls-15{fill:#e6e6e7;}.cls-16{fill:#9c8001;}.cls-17{fill:#806800;}</style><clipPath id="clip-path"><rect class="cls-1" x="-321.18" y="133.64" width="1920" height="530"/></clipPath><radialGradient id="radial-gradient" cx="638.82" cy="324.99" r="937.75" gradientUnits="userSpaceOnUse"><stop offset="0" stop-color="#fff5d7"/><stop offset="0.4" stop-color="#ffdf64"/><stop offset="1" stop-color="#f98f00"/></radialGradient><clipPath id="clip-path-2"><rect class="cls-1" x="-321.18" y="-215.01" width="1920" height="1080"/></clipPath></defs><title>sticky header logo</title><g class="cls-2"><g id="Layer_1" data-name="Layer 1"><g class="cls-3"><rect class="cls-4" x="-321.18" y="-215.01" width="1920" height="1080"/><g class="cls-5"><g class="cls-6"><g class="cls-7"><rect class="cls-8" x="-362.23" y="-304.81" width="2002.1" height="1261.89"/><polygon class="cls-9" points="147.13 -9.98 169.93 29.51 147.13 69 101.54 69 78.74 29.51 101.54 -9.98 147.13 -9.98"/><polygon class="cls-8" points="147.13 74.34 169.93 113.83 147.13 153.31 101.54 153.31 78.74 113.83 101.54 74.34 147.13 74.34"/><polygon class="cls-9" points="73.63 -51.81 96.43 -12.32 73.63 27.16 28.04 27.16 5.24 -12.32 28.04 -51.81 73.63 -51.81"/><polygon class="cls-8" points="73.63 32.52 96.43 72.01 73.63 111.5 28.04 111.5 5.24 72.01 28.04 32.52 73.63 32.52"/><polygon class="cls-10" points="0.13 -9.98 22.93 29.51 0.13 69 -45.46 69 -68.26 29.51 -45.46 -9.98 0.13 -9.98"/><polygon class="cls-11" points="0.13 74.34 22.93 113.83 0.13 153.31 -45.46 153.31 -68.26 113.83 -45.46 74.34 0.13 74.34"/></g></g></g></g><path class="cls-12" d="M75.88,26.59a2.06,2.06,0,0,0,.1-.21,2,2,0,0,0,.43-.71,1.5,1.5,0,0,0,.05-.67,2.24,2.24,0,0,0-.1-1,3.86,3.86,0,0,0-.9-1.39,2.2,2.2,0,0,0,.63-.94A1.47,1.47,0,0,0,76,20.51a1.28,1.28,0,0,0-.26-.32,1.49,1.49,0,0,0-.17-.46,1.3,1.3,0,0,0-.44-.45L75,19.17a1.3,1.3,0,0,0-.84-.62,1.46,1.46,0,0,0-.14-.34,1.3,1.3,0,0,0-.85-.62,1.59,1.59,0,0,0-.74,0l-.06-.12a1.29,1.29,0,0,0-.36-.4,1.45,1.45,0,0,0-.16-.4,1.3,1.3,0,0,0-.85-.62,2.57,2.57,0,0,0-1.74.42,1.48,1.48,0,0,0-.19-.63,1.31,1.31,0,0,0-.86-.63,1.52,1.52,0,0,0-.56,0,1.31,1.31,0,0,0-.82-.56,1.47,1.47,0,0,0-.36,0l-.1-.1a1.45,1.45,0,0,0-.17-1,1.29,1.29,0,0,0-.84-.62c-.46-.11-.93,0-1.92.51a1.33,1.33,0,0,0-.33-.12,1.41,1.41,0,0,0-.41,0l-.07-.13v0a1.77,1.77,0,0,0,.21-.43,1.48,1.48,0,0,0-.12-1.2,1.29,1.29,0,0,0-.84-.62l-.25,0,0-.05a1.29,1.29,0,0,0-.84-.62,1.27,1.27,0,0,0-.34,0l0,0a1.29,1.29,0,0,0-.84-.62,1.6,1.6,0,0,0-.8,0,1.38,1.38,0,0,0-.27-.09A2.31,2.31,0,0,0,57,9.75a1.35,1.35,0,0,0-.45-.2h0a1.32,1.32,0,0,0-.87-.63h0l-.16-.12,0-.09a1.31,1.31,0,0,0-.76-.6,1.31,1.31,0,0,0-.55-.46A1.45,1.45,0,0,0,54,6.74a1.29,1.29,0,0,0-.84-.62,2.28,2.28,0,0,0-1.56.33,1.32,1.32,0,0,0-.44-.22,1.3,1.3,0,0,0-.62-.39,1.33,1.33,0,0,0-.81-.53h0a2.12,2.12,0,0,0-.28-1,2.07,2.07,0,0,0-1.31-1,2,2,0,0,0-1.23-.75,2.71,2.71,0,0,0-.6-.05l-.05-.1a2,2,0,0,0-1.38-1l-.1,0a2,2,0,0,0-.2-.47A2,2,0,0,0,43.15.05a5.37,5.37,0,0,0-3,.61,5.38,5.38,0,0,0-3-.62A2,2,0,0,0,35.78,1a2,2,0,0,0-.2.47l-.1,0a2,2,0,0,0-1.38,1l-.05.1a2.72,2.72,0,0,0-.6,0,2,2,0,0,0-1.23.75,2.08,2.08,0,0,0-1.31,1,2.11,2.11,0,0,0-.28,1h0a1.33,1.33,0,0,0-.81.53,1.31,1.31,0,0,0-.63.39,1.33,1.33,0,0,0-.43.22,2.28,2.28,0,0,0-1.57-.33,1.29,1.29,0,0,0-.84.62,1.45,1.45,0,0,0-.19.89,1.3,1.3,0,0,0-.55.46,1.31,1.31,0,0,0-.76.6l0,.09-.16.12h0a1.32,1.32,0,0,0-.88.63h0a1.35,1.35,0,0,0-.45.2,2.3,2.3,0,0,0-1.53-.31,1.34,1.34,0,0,0-.27.09,1.6,1.6,0,0,0-.8,0,1.29,1.29,0,0,0-.84.62l0,0a1.23,1.23,0,0,0-.34,0,1.3,1.3,0,0,0-.84.62l0,.05-.25,0a1.3,1.3,0,0,0-.84.62,1.48,1.48,0,0,0-.12,1.2,1.79,1.79,0,0,0,.21.43v0l-.06.13a1.45,1.45,0,0,0-.41,0,1.36,1.36,0,0,0-.33.12c-1-.53-1.46-.61-1.92-.51a1.29,1.29,0,0,0-.84.62,1.45,1.45,0,0,0-.17,1l-.1.1a1.41,1.41,0,0,0-.36,0,1.31,1.31,0,0,0-.81.56,1.51,1.51,0,0,0-.56,0,1.31,1.31,0,0,0-.86.63,1.48,1.48,0,0,0-.19.63,2.58,2.58,0,0,0-1.74-.42,1.3,1.3,0,0,0-.85.62,1.43,1.43,0,0,0-.16.4,1.3,1.3,0,0,0-.36.4l-.06.12a1.6,1.6,0,0,0-.74,0,1.3,1.3,0,0,0-.85.62,1.5,1.5,0,0,0-.14.34,1.3,1.3,0,0,0-.84.62l-.06.11a1.3,1.3,0,0,0-.44.45,1.52,1.52,0,0,0-.17.46,1.28,1.28,0,0,0-.26.32,1.46,1.46,0,0,0-.13,1.16,2.2,2.2,0,0,0,.63.94A3.86,3.86,0,0,0,3.9,24a2.25,2.25,0,0,0-.1,1,1.5,1.5,0,0,0,.05.68,2,2,0,0,0,.44.72,2.08,2.08,0,0,0,.09.2l.13.2c0,.05,0,.1.06.15a1.29,1.29,0,0,0-.22.28,1.44,1.44,0,0,0-.12,1.17,1.73,1.73,0,0,0,.26.5c0,.05,0,.1,0,.15l0,0a1.47,1.47,0,0,0-.07.37,2.92,2.92,0,0,0-.22.5,2.22,2.22,0,0,0,.11,1.72,1.51,1.51,0,0,0-.07,1.07,2.21,2.21,0,0,0,.56.88,1.82,1.82,0,0,0-.3.56,1.49,1.49,0,0,0-.05.66,1.77,1.77,0,0,0-.15.34l0,.12A1.87,1.87,0,0,0,4,35.9a1.48,1.48,0,0,0,.12,1.2,1.3,1.3,0,0,0,.25.31,1.42,1.42,0,0,0,.05.18,1.27,1.27,0,0,0-.38.4,1.47,1.47,0,0,0-.15,1.12,1.51,1.51,0,0,0,0,1s0,.1.06.15a1.55,1.55,0,0,0,0,.93v.05a1.77,1.77,0,0,0,.16.37,1.51,1.51,0,0,0,0,.45,1.3,1.3,0,0,0-.19.25,1.48,1.48,0,0,0-.13,1.19,1.69,1.69,0,0,0,.13.31,1.54,1.54,0,0,0,.06.7,2.43,2.43,0,0,0,.78,1.06,2.1,2.1,0,0,0-.5.75,1.32,1.32,0,0,0-.15.21A1.51,1.51,0,0,0,4,47.73a2.17,2.17,0,0,0,.58.88,1.17,1.17,0,0,0,.07.42,1.82,1.82,0,0,0-.25.52,1.51,1.51,0,0,0-.06.59,2.08,2.08,0,0,0-.4.72,1.54,1.54,0,0,0,.12,1.19,2.29,2.29,0,0,0,.1,1,2.92,2.92,0,0,0,.27.58s0,.09,0,.14a1.68,1.68,0,0,0-.2.4,1.43,1.43,0,0,0,.12,1.15,1.36,1.36,0,0,0,.15.21,1.47,1.47,0,0,0,0,.82,1.17,1.17,0,0,0,0,1.15,2.12,2.12,0,0,0-.52.81,1.5,1.5,0,0,0,.13,1.22,1.31,1.31,0,0,0,.21.27,1.42,1.42,0,0,0,.13.31,1.31,1.31,0,0,0,.2.27,1.48,1.48,0,0,0,.15,1.1,1.29,1.29,0,0,0,.77.6,1.3,1.3,0,0,0,.73.46,2.11,2.11,0,0,0,1.4-.25l.07.13a1.29,1.29,0,0,0,.84.62l.22,0a1.32,1.32,0,0,0,.75.46,1.51,1.51,0,0,0,.47,0,1.44,1.44,0,0,0,.14,1.11,1.3,1.3,0,0,0,.85.62,1.62,1.62,0,0,0,.84,0,1.48,1.48,0,0,0,.17.43,1.3,1.3,0,0,0,.85.62,2,2,0,0,0,1.19-.16,1.35,1.35,0,0,0,.43.18l.16,0a1.33,1.33,0,0,0,.67.37l.08,0a1.46,1.46,0,0,0,.13.31,1.29,1.29,0,0,0,.37.41,1.42,1.42,0,0,0,.16.4,1.31,1.31,0,0,0,.87.63,2.22,2.22,0,0,0,1.49-.3,1.3,1.3,0,0,0,.58.5,1.31,1.31,0,0,0,.67.38,1.48,1.48,0,0,0,.56,0,1.42,1.42,0,0,0,.15.35,1.32,1.32,0,0,0,.34.39,1.43,1.43,0,0,0,.11.25,1.3,1.3,0,0,0,.77.6,1.3,1.3,0,0,0,.83.58,1.44,1.44,0,0,0,.47,0,1.32,1.32,0,0,0,.81.53,1.68,1.68,0,0,0,.85,0,1.47,1.47,0,0,0,.2.72,1.3,1.3,0,0,0,.86.62,1.64,1.64,0,0,0,.82,0,1.29,1.29,0,0,0,.54.51l0,.07a1.29,1.29,0,0,0,.85.62,2.58,2.58,0,0,0,1.8-.46,1.3,1.3,0,0,0,.35.29,1.86,1.86,0,0,0-.28.56,1.47,1.47,0,0,0,.13,1.16,2.06,2.06,0,0,0,1.41,1,3.52,3.52,0,0,0,1.45-.06,2.19,2.19,0,0,0,.27.77,1.94,1.94,0,0,0,.85.79,2,2,0,0,0,.58.41,2.11,2.11,0,0,0,1,.48,2.87,2.87,0,0,0,.8,0,2,2,0,0,0,1.28.84,2.5,2.5,0,0,0,.51,0,6,6,0,0,0,2.05-.47,6,6,0,0,0,2.05.47,2.5,2.5,0,0,0,.51,0A2,2,0,0,0,44,79.19a2.82,2.82,0,0,0,.8,0,2.11,2.11,0,0,0,1-.48,2,2,0,0,0,.58-.41,1.94,1.94,0,0,0,.85-.79,2.19,2.19,0,0,0,.27-.77,3.55,3.55,0,0,0,1.45.06,2.06,2.06,0,0,0,1.41-1,1.47,1.47,0,0,0,.13-1.16,1.87,1.87,0,0,0-.28-.56,1.3,1.3,0,0,0,.35-.29,2.58,2.58,0,0,0,1.8.46,1.29,1.29,0,0,0,.85-.62l0-.07a1.28,1.28,0,0,0,.54-.51,1.63,1.63,0,0,0,.82,0,1.3,1.3,0,0,0,.86-.62,1.47,1.47,0,0,0,.2-.72,1.66,1.66,0,0,0,.85,0,1.32,1.32,0,0,0,.81-.53,1.47,1.47,0,0,0,.47,0,1.3,1.3,0,0,0,.83-.58,1.31,1.31,0,0,0,.77-.6,1.37,1.37,0,0,0,.11-.25,1.3,1.3,0,0,0,.34-.39A1.39,1.39,0,0,0,60,69a1.48,1.48,0,0,0,.56,0,4,4,0,0,0,1.26-.89,2.21,2.21,0,0,0,1.49.3,1.31,1.31,0,0,0,.87-.63,1.42,1.42,0,0,0,.16-.4,1.29,1.29,0,0,0,.37-.41,1.48,1.48,0,0,0,.13-.31l.08,0a1.33,1.33,0,0,0,.67-.37l.16,0a1.36,1.36,0,0,0,.43-.18,2,2,0,0,0,1.19.16,1.3,1.3,0,0,0,.85-.62,1.47,1.47,0,0,0,.17-.43,1.64,1.64,0,0,0,.84,0A1.29,1.29,0,0,0,70,64.6a1.44,1.44,0,0,0,.14-1.11,1.47,1.47,0,0,0,.47,0,1.32,1.32,0,0,0,.75-.46l.22,0a1.29,1.29,0,0,0,.84-.62l.07-.13a2.11,2.11,0,0,0,1.4.25,1.31,1.31,0,0,0,.73-.46,1.29,1.29,0,0,0,.77-.6,1.48,1.48,0,0,0,.15-1.1,1.27,1.27,0,0,0,.2-.26,1.37,1.37,0,0,0,.13-.31,1.28,1.28,0,0,0,.21-.27,1.5,1.5,0,0,0,.13-1.22,2.13,2.13,0,0,0-.52-.81,1.17,1.17,0,0,0,0-1.14,1.47,1.47,0,0,0,0-.82,1.39,1.39,0,0,0,.15-.21A1.43,1.43,0,0,0,76,54.13a1.69,1.69,0,0,0-.2-.41s0-.08,0-.12a2.87,2.87,0,0,0,.27-.58,2.28,2.28,0,0,0,.1-1,1.54,1.54,0,0,0,.12-1.2,2.08,2.08,0,0,0-.4-.72,1.51,1.51,0,0,0-.06-.59,1.82,1.82,0,0,0-.26-.52,1.19,1.19,0,0,0,.06-.42,2.17,2.17,0,0,0,.58-.88,1.5,1.5,0,0,0-.13-1.22,1.32,1.32,0,0,0-.14-.19,2.08,2.08,0,0,0-.51-.78,2.42,2.42,0,0,0,.77-1.06,1.55,1.55,0,0,0,.06-.7,1.77,1.77,0,0,0,.13-.31,1.48,1.48,0,0,0-.13-1.19A1.31,1.31,0,0,0,76.1,42a1.49,1.49,0,0,0,0-.45,1.72,1.72,0,0,0,.16-.37v0a1.54,1.54,0,0,0,0-1s0-.09.05-.14a1.5,1.5,0,0,0,0-1A1.47,1.47,0,0,0,76.2,38a1.27,1.27,0,0,0-.38-.4,1.43,1.43,0,0,0,.06-.18,1.32,1.32,0,0,0,.25-.31,1.48,1.48,0,0,0,.12-1.2,1.84,1.84,0,0,0-.31-.58l0-.13a1.81,1.81,0,0,0-.15-.34,1.5,1.5,0,0,0-.05-.66,1.82,1.82,0,0,0-.3-.56,2.2,2.2,0,0,0,.56-.88,1.51,1.51,0,0,0-.07-1.07A2.22,2.22,0,0,0,76,30a3,3,0,0,0-.23-.52,1.45,1.45,0,0,0-.07-.35l0,0c0-.05,0-.1,0-.15a1.73,1.73,0,0,0,.26-.5,1.44,1.44,0,0,0-.12-1.17,1.32,1.32,0,0,0-.22-.27c0-.05.05-.1.07-.15ZM39.69,64.29a2.16,2.16,0,0,0-1.42.27,1.45,1.45,0,0,0-.2-.72,1.3,1.3,0,0,0-.85-.62,2.4,2.4,0,0,0-1.66.39,1.41,1.41,0,0,0-.16-1,1.3,1.3,0,0,0-.85-.62,1.48,1.48,0,0,0-.33,0,1.31,1.31,0,0,0-.68-.38,1.52,1.52,0,0,0-.63,0,1.46,1.46,0,0,0-.12-.35,1.43,1.43,0,0,0-.19-.77,1.3,1.3,0,0,0-.85-.62,1.56,1.56,0,0,0-.67,0l-.19-.06a2.75,2.75,0,0,0-1.95.54l-.2-.1a1.69,1.69,0,0,0,.08-.2,1.47,1.47,0,0,0-.12-1.2,1.31,1.31,0,0,0-.86-.62l-.23,0a1.46,1.46,0,0,0-.17-.47,1.29,1.29,0,0,0-.85-.62,1.42,1.42,0,0,0-.33,0,1.3,1.3,0,0,0-.63-.34h0a1.3,1.3,0,0,0-.8-.53,1.77,1.77,0,0,0-1,.12,1.44,1.44,0,0,0-.19-.8,1.31,1.31,0,0,0-.86-.63,1.63,1.63,0,0,0-.76,0,1.46,1.46,0,0,0-.19-.55,1.29,1.29,0,0,0-.84-.61,1.46,1.46,0,0,0-.51,0,1.3,1.3,0,0,0-.56-.35,1.29,1.29,0,0,0-.71-.43h0L19,52.77a1.46,1.46,0,0,0-.18-.94,1.28,1.28,0,0,0-.28-.33,1.54,1.54,0,0,0-.06-.65,1.83,1.83,0,0,0-.18-.4,2,2,0,0,0,.51-.8,1.45,1.45,0,0,0-.12-1.17,1.29,1.29,0,0,0-.3-.36,1.46,1.46,0,0,0-.11-.63,2.14,2.14,0,0,0,.57-.9,1.58,1.58,0,0,0,.06-.33A1.76,1.76,0,0,0,19,45.9a1.48,1.48,0,0,0-.12-1.2,1.29,1.29,0,0,0-.34-.38,2,2,0,0,0,.31-.6,1.5,1.5,0,0,0-.13-1.2,1.28,1.28,0,0,0-.53-.5,2.69,2.69,0,0,0-.2-.25s0-.08,0-.12l.05-.08.08-.17a1.3,1.3,0,0,0,.59-.54,1.53,1.53,0,0,0,.13-1.22,2.31,2.31,0,0,0-.63-1,2,2,0,0,0,.44-.75,1.55,1.55,0,0,0,.06-.45,1.45,1.45,0,0,0,.13-1.09,1.49,1.49,0,0,0-.14-1.14,1.3,1.3,0,0,0-.65-.56l0-.13A1.5,1.5,0,0,0,18.2,34a2,2,0,0,0,.4-.71,1.52,1.52,0,0,0,0-.91,1.71,1.71,0,0,0,.18-.39,1.45,1.45,0,0,0-.12-1.18,1.26,1.26,0,0,0-.13-.18,1.5,1.5,0,0,0,0-.69,1.8,1.8,0,0,0-.23-.48s0-.07,0-.11a1.28,1.28,0,0,0,.5-.49,1.48,1.48,0,0,0,.13-1.18,1.82,1.82,0,0,0-.25-.51A1.31,1.31,0,0,0,19,27a1.42,1.42,0,0,0,.42,0,1.31,1.31,0,0,0,.36-.14,1.69,1.69,0,0,0,.94.07,1.29,1.29,0,0,0,.85-.62,1.47,1.47,0,0,0,.19-.91,1.27,1.27,0,0,0,.55-.4,1.79,1.79,0,0,0,1,.11,1.31,1.31,0,0,0,.87-.63,1.55,1.55,0,0,0,.1-.21,1.56,1.56,0,0,0,.65,0,1.32,1.32,0,0,0,.87-.63,1.47,1.47,0,0,0,.13-.31l.2,0a1.3,1.3,0,0,0,.85-.62,1.49,1.49,0,0,0,.09-.17,1.6,1.6,0,0,0,.35,0,1.33,1.33,0,0,0,.44-.19,1.67,1.67,0,0,0,.86,0,1.31,1.31,0,0,0,.85-.62,1.54,1.54,0,0,0,.12-.26l.13,0a1.31,1.31,0,0,0,.86-.62l0-.09a1.52,1.52,0,0,0,.7,0,1.29,1.29,0,0,0,.84-.61l.06-.11.15,0a1.32,1.32,0,0,0,.46-.2l.26,0A1.29,1.29,0,0,0,34,19a1.51,1.51,0,0,0,.13-1.22l-.06-.17a1.41,1.41,0,0,0,.12-.32l.79-.36a1.74,1.74,0,0,0,.93.08,1.31,1.31,0,0,0,.86-.63,1.41,1.41,0,0,0,.14-.34l0,0,.16,0a1.31,1.31,0,0,0,.65-.35,2,2,0,0,0,1.3.21,1.35,1.35,0,0,0,.38-.15,1.52,1.52,0,0,0,.43,0l.24-.08.23.08a1.45,1.45,0,0,0,.43,0,1.35,1.35,0,0,0,.38.15,2,2,0,0,0,1.3-.21,1.32,1.32,0,0,0,.65.35l.16,0,0,0a1.42,1.42,0,0,0,.14.34,1.31,1.31,0,0,0,.86.63,1.74,1.74,0,0,0,.93-.08l.79.36a1.4,1.4,0,0,0,.12.32l-.07.17A1.51,1.51,0,0,0,46.24,19a1.29,1.29,0,0,0,.84.62l.26,0a1.32,1.32,0,0,0,.46.2l.15,0L48,20a1.29,1.29,0,0,0,.84.61,1.52,1.52,0,0,0,.7,0l0,.09a1.3,1.3,0,0,0,.86.62l.13,0a1.46,1.46,0,0,0,.12.26,1.31,1.31,0,0,0,.85.62,1.67,1.67,0,0,0,.86,0,1.32,1.32,0,0,0,.44.19,1.75,1.75,0,0,0,.35,0l.09.17a1.3,1.3,0,0,0,.85.62l.2,0a1.49,1.49,0,0,0,.13.31,1.32,1.32,0,0,0,.87.63,1.58,1.58,0,0,0,.65,0,1.54,1.54,0,0,0,.1.21A1.31,1.31,0,0,0,57,25a1.8,1.8,0,0,0,1-.11,1.28,1.28,0,0,0,.55.4,1.48,1.48,0,0,0,.19.91,1.29,1.29,0,0,0,.85.62,1.69,1.69,0,0,0,.94-.07,1.35,1.35,0,0,0,.36.14,1.46,1.46,0,0,0,.42,0,1.3,1.3,0,0,0,.33.21,1.83,1.83,0,0,0-.25.51,1.49,1.49,0,0,0,.13,1.18,1.28,1.28,0,0,0,.5.49s0,.07,0,.11a1.8,1.8,0,0,0-.23.48,1.5,1.5,0,0,0,0,.68,1.31,1.31,0,0,0-.13.18A1.45,1.45,0,0,0,61.49,32a1.71,1.71,0,0,0,.18.39,1.53,1.53,0,0,0,0,.91,2,2,0,0,0,.4.71,1.52,1.52,0,0,0,.06.56l0,.13a1.31,1.31,0,0,0-.65.56,1.49,1.49,0,0,0-.14,1.15,1.46,1.46,0,0,0,.13,1.07,1.56,1.56,0,0,0,.07.46,2,2,0,0,0,.45.76,2.31,2.31,0,0,0-.62,1,1.53,1.53,0,0,0,.13,1.22,1.3,1.3,0,0,0,.59.54l.08.17,0,.07s0,.09,0,.14a2.58,2.58,0,0,0-.19.24,1.27,1.27,0,0,0-.54.5,1.51,1.51,0,0,0-.13,1.2,2,2,0,0,0,.31.6,1.28,1.28,0,0,0-.34.38,1.48,1.48,0,0,0-.12,1.2,1.78,1.78,0,0,0,.17.38,1.58,1.58,0,0,0,.06.33,2.15,2.15,0,0,0,.57.9,1.46,1.46,0,0,0-.11.63,1.29,1.29,0,0,0-.31.36,1.45,1.45,0,0,0-.12,1.17,2,2,0,0,0,.51.8,1.84,1.84,0,0,0-.18.4,1.54,1.54,0,0,0-.06.65,1.29,1.29,0,0,0-.28.33,1.46,1.46,0,0,0-.18.94l-.15.15h0a47.6,47.6,0,0,0-1.27.78,1.48,1.48,0,0,0-.51,0,1.29,1.29,0,0,0-.84.61,1.47,1.47,0,0,0-.19.55,1.62,1.62,0,0,0-.76,0,1.31,1.31,0,0,0-.86.63,1.43,1.43,0,0,0-.19.8,1.78,1.78,0,0,0-1-.12,1.3,1.3,0,0,0-.8.53h0a1.3,1.3,0,0,0-.63.34,1.26,1.26,0,0,0-.33,0,1.29,1.29,0,0,0-.85.62,1.47,1.47,0,0,0-.17.47l-.23,0a1.3,1.3,0,0,0-.86.62,1.48,1.48,0,0,0-.12,1.2,2,2,0,0,0,.08.2l-.2.1a2.74,2.74,0,0,0-1.95-.54l-.19.06a1.57,1.57,0,0,0-.67,0,1.31,1.31,0,0,0-.85.62,1.43,1.43,0,0,0-.19.77,1.46,1.46,0,0,0-.12.35,1.5,1.5,0,0,0-.63,0,1.3,1.3,0,0,0-.68.38,1.23,1.23,0,0,0-.33,0,1.3,1.3,0,0,0-.85.62,1.42,1.42,0,0,0-.16,1,2.4,2.4,0,0,0-1.66-.39,1.3,1.3,0,0,0-.85.62,1.45,1.45,0,0,0-.2.72,2.16,2.16,0,0,0-1.42-.27,1.31,1.31,0,0,0-.45.2A1.33,1.33,0,0,0,39.69,64.29Z"/><path class="cls-13" d="M74.26,57.74a.65.65,0,0,0-.85-.34v-.52c-.09-3.7-.1-7.46-.11-11.09,0-3.28,0-6.67-.08-10-.06-2.84,0-5.73.26-8.84v-.16a14.92,14.92,0,0,0-.09-4.13l-.05-.23.21-.1a.58.58,0,0,0,.32-.48.44.44,0,0,0-.25-.41c-2.33-1.34-4.66-2.78-6.92-4.16-3.32-2-6.76-4.15-10.26-6-1.3-.69-2.61-1.38-3.88-2C48.85,7.28,45,5.28,41.36,3l-.17-.11,0-.2a.72.72,0,0,0-.15-.57.51.51,0,0,0-.4-.2.64.64,0,0,0-.22,0L40.29,2l-.14.06L40,2.14,40,2.1l0,0-.36.15A37.58,37.58,0,0,0,32.9,6.35a63.26,63.26,0,0,1-8.61,5C18.53,14.2,13,17.07,8.21,20.9l-.35.28h0l-.12.1.12,0v.38c-.05,1.66-.18,3.33-.3,4.94-.09,1.18-.18,2.4-.25,3.61-.12,2.2-.06,4.46,0,6.65,0,1.33.07,2.7.07,4,0,3.49-.07,7-.14,10.45,0,2.24-.08,4.55-.11,6.82v.17L7,58.4a.47.47,0,0,0-.2.39.47.47,0,0,0,.2.42l.12.08a3.06,3.06,0,0,0,0,.35.47.47,0,0,0,.12.35.54.54,0,0,0,.38.14.57.57,0,0,0,.55-.35c0-.06.47.23.47.23,1.36.71,2.67,1.54,3.93,2.34.93.59,1.89,1.2,2.86,1.75,2.09,1.19,4.29,2.27,6.42,3.31,1,.5,2.1,1,3.15,1.55,2.3,1.17,4.52,2.54,6.66,3.87A79.22,79.22,0,0,0,39,77.06c-2.38-1.36-4.67-2.92-6.9-4.44a86,86,0,0,0-8.27-5.2c-1.06-.56-2.15-1.11-3.2-1.64-1.81-.91-3.68-1.85-5.48-2.88-.85-.49-1.7-1-2.52-1.53-1.38-.86-4-1.75-5.5-2.47l-1.36-.08v-.19c0-2.59,1.26-5.23,1.3-7.78.05-3.29.7-6.68.72-10,0-1.63.27-3.28.23-4.88,0-1.9.06-3.86.09-5.79,0-.47.09-.93.1-1.4a30.73,30.73,0,0,0-.37-7.28l0-.26.26-.08a30.09,30.09,0,0,0,6.2-3.23l1.37-.85a93.1,93.1,0,0,1,8.45-4.46A65.12,65.12,0,0,0,32.23,8.2C32.81,7.81,33.39,7.42,34,7a31.64,31.64,0,0,1,6.72-3.85l.18-.07.13.13c3,3.06,7.2,5.11,11.2,7.08,1,.51,2,1,3,1.49,3.18,1.66,6.29,3.56,9.29,5.41,2.64,1.63,5.38,3.31,8.15,4.81l.15.08v.17a43.18,43.18,0,0,1-.32,6,59.47,59.47,0,0,0-.29,8.48c.06,3.22.06,6.48.07,9.65,0,3.77,0,7.67.11,11.5v.17l-.14.09c-6.4,4-11.57,7.23-16.3,10.13-1.42.87-2.87,1.8-4.26,2.7A97.68,97.68,0,0,1,40.26,77.6l-.13.06h0l-.28.13.61,0h.08l.27.12-.06-.14.36-.07a17.51,17.51,0,0,0,5-2.24c1.4-.82,2.8-1.7,4.15-2.55s2.45-1.54,3.7-2.28c5.51-3.26,12-7.14,18.58-11.18l.09-.06.11,0h.11a.53.53,0,0,0,.55-.4l0-.12.47-.29C74.14,58.41,74.4,58,74.26,57.74Z"/><path class="cls-13" d="M15.63,45.7c-.06-1.32-.13-2.68-.11-4,0-3,.1-6,.17-9,.06-2.38.12-4.85.15-7.27V25.2l.21-.06a16.88,16.88,0,0,0,2.79-1.23c.54-.28,1.1-.57,1.65-.8A59.92,59.92,0,0,0,26,20.41a136.41,136.41,0,0,0,13.54-8.76l.18-.13.17.14c5.62,4.48,12.39,7.52,18.94,10.47C60.89,23.05,63,24,65.09,25a16.49,16.49,0,0,0-4.37-2.71c-2.46-1.16-5.1-2.44-7.68-3.84l-1.54-.84a68.45,68.45,0,0,1-11.58-7.3.52.52,0,0,0-.34-.13.64.64,0,0,0-.53.35l0,.06-.06,0A147.5,147.5,0,0,1,25.3,19.49c-1.59.91-3.25,1.7-4.86,2.46l-1.34.64A8.63,8.63,0,0,0,16,24.68l-.14.19-.21-.1a.61.61,0,0,0-.26-.06.53.53,0,0,0-.38.14.43.43,0,0,0-.11.32c0,2,.1,4,.16,5.89.11,3.19.22,6.49.18,9.73,0,1.63,0,3.32.09,5a68,68,0,0,1-.07,8.38v.14l0,0,0,0,0,.2a.21.21,0,0,1,0,.07l0,0,.17-.12-.14,0,.05-.25A32.23,32.23,0,0,0,15.63,45.7Z"/><path class="cls-13" d="M65.1,48.44c0,.39,0,.8,0,1.2a20.81,20.81,0,0,0,.2,4.89l0,.31a21.8,21.8,0,0,0,.18-3.74c0-.61,0-1.24,0-1.86.07-2.24.2-4.51.33-6.71l.11-2c.05-1,.11-1.93.17-2.89a92.21,92.21,0,0,0,.22-12.12.53.53,0,0,0-.56-.49.58.58,0,0,0-.29.07l-.15.09,0,.18a.57.57,0,0,0,0,.14,120.76,120.76,0,0,1,.11,15.76C65.28,43.66,65.16,46,65.1,48.44Z"/><path class="cls-13" d="M24.13,60.18c.88.5,1.78,1,2.66,1.54,3.21,1.9,6.48,3.82,9.65,5.68l3.84,2.25a.57.57,0,0,0,.28.09c.29,0,.49-.32.51-.62v-.17l.15-.07c4-2,8-4.27,11.77-6.51,1.26-.74,2.52-1.49,3.79-2.22.82-.47,1.67-.91,2.49-1.33a39.41,39.41,0,0,0,3.47-1.93,6.33,6.33,0,0,0,1.92-1.75l-.11.09a2.67,2.67,0,0,1-.75.48c-.5.19-1,.43-1.49.66l-1,.46c-1.32.57-3.07,1.33-4.78,2.18-2.61,1.29-5.17,2.78-7.65,4.22-2.81,1.64-5.72,3.33-8.73,4.74L40,68,39.86,68c-4.53-2.64-8.28-4.8-11.8-6.82-.89-.51-1.8-1.05-2.68-1.57a57.53,57.53,0,0,0-9.9-5l-.05,0,.14.12A58.48,58.48,0,0,0,24.13,60.18Z"/><path class="cls-14" d="M41.1,83.84H41a1.13,1.13,0,0,1-.27-.06,1.24,1.24,0,0,1-.6,0,1.13,1.13,0,0,1-.72-.49c-.82.46-1.23.55-1.63.46a1.12,1.12,0,0,1-.6-.36,1.17,1.17,0,0,1-.51-.25,1.62,1.62,0,0,1-.94.1,1.15,1.15,0,0,1-.75-.55,1.19,1.19,0,0,1-.11-.95,1.57,1.57,0,0,1,.42-.67c-.47-.82,0-1.52,1.28-2.47a1.25,1.25,0,0,1-.21-.16,2,2,0,0,1-1.32.24,1.19,1.19,0,0,1-.79-.57,1.22,1.22,0,0,1-.11-.95l0-.09a1.15,1.15,0,0,1-.41-.42,1.19,1.19,0,0,1-.11-.92,1.29,1.29,0,0,1-.51,0,1.13,1.13,0,0,1-.74-.54,1.22,1.22,0,0,1-.12-.94c.18-.68.92-1.28,2.73-2.37a.88.88,0,0,1,0-.3,1,1,0,0,1,.84-1.53c.17-.12.41-.31.58-.44.81-.64,1.34-1.06,2-.93a1.12,1.12,0,0,1,.54.27c2.31-1.6,3-2,3.63-1.81a1.14,1.14,0,0,1,.73.54,1.19,1.19,0,0,1,.13.35,1.11,1.11,0,0,1,.54.47,1.26,1.26,0,0,1,.19.64,2,2,0,0,1,1.32-.25,1.18,1.18,0,0,1,.77.56,1.21,1.21,0,0,1,.14.38,1.15,1.15,0,0,1,.18.24,1.21,1.21,0,0,1,.13.89,1.2,1.2,0,0,1,.1.9,1.58,1.58,0,0,1-.38.66A1.19,1.19,0,0,1,47,73c.4.69.18,1.3-.67,2l.26,0a1.16,1.16,0,0,1,.75.55,1.21,1.21,0,0,1,.11.94,1.39,1.39,0,0,1-.18.39,1.13,1.13,0,0,1,.24.29c.59,1-.26,1.75-2.46,3.2.23.86-.74,1.43-2,2.17l-.15.09a1,1,0,0,1-.66.55A1.45,1.45,0,0,1,41.1,83.84Z"/><path class="cls-15" d="M61,60.14a1.26,1.26,0,0,0-.11-1,1.24,1.24,0,0,0-.82-.59,3.34,3.34,0,0,0-2.23.65,1.23,1.23,0,0,0-.73-.47c-.78-.17-1.82.32-4.49,2.14a1.26,1.26,0,0,0-.86-.61c-1-.19-2.15.62-5,2.82a28.58,28.58,0,0,1-3.36,2.35,1,1,0,0,0-1.24,1.5,1.27,1.27,0,0,0,.14.19l-.18.11c-.38,0-.7.2-1.25.57l-.38.25a1,1,0,0,0-.61,1.52,1.07,1.07,0,0,0,.67.5l.12,0,.11,0a1,1,0,0,0,.69-.06c0,.1.74-.22,1.5-.71,0,.06,1.35.89,1.39,1l.56.87c-.61.61.52,1.62.82,1.69s.52.53,1.12.24a1.15,1.15,0,0,0,.25.08A1.57,1.57,0,0,0,48.07,73a1.13,1.13,0,0,0,.71.49,1.65,1.65,0,0,0,1.16-.25,1.12,1.12,0,0,0,.64.36l.21,0a2.68,2.68,0,0,0,1.56-.84l.39-.31a1,1,0,0,0,.41-.13,1,1,0,0,0,.51-1c1-.82,1.5-1.39,1.12-2.14l.08-.14a1,1,0,0,0,.17-.29l.36-.29a4.25,4.25,0,0,0,1.23-1.25c.73-.46,1-.78,1.13-1.19l0-.07c1-.67,1.47-1.11,1.61-1.61a1.23,1.23,0,0,0,0-.72,2.81,2.81,0,0,0,1.11-1.35,1.26,1.26,0,0,0-.12-1,1.17,1.17,0,0,0-.11-.16A2.14,2.14,0,0,0,61,60.14Zm-19.76,8a1,1,0,0,1,.31.27A1,1,0,0,0,41.2,68.13Z"/><path class="cls-15" d="M39.69,66.65a1.15,1.15,0,0,0-.75-.55,1.41,1.41,0,0,0-.71,0l0-.09a1.88,1.88,0,0,0,.73-.93,1.18,1.18,0,0,0-.1-.94,1.12,1.12,0,0,0-.73-.54c-.45-.1-.92,0-1.93.62l-.13,0a1.86,1.86,0,0,0-1.3.27,2.49,2.49,0,0,0-2.1-1.33c-.14,0,.06-.27,0-.4a1.54,1.54,0,0,0,.32-.58,1.21,1.21,0,0,0-.11-.95,1.13,1.13,0,0,0-.74-.54h0A1.39,1.39,0,0,0,32,60.3a1.14,1.14,0,0,0-.75-.55,1.27,1.27,0,0,0-.46,0,1.12,1.12,0,0,0-.88-1c-.49-.11-1,0-2.14.79a1.17,1.17,0,0,0-.34,0,1.17,1.17,0,0,0-.71-.5c-.42-.09-.8,0-1.5.47l-.07-.13a1.11,1.11,0,0,0-.71-.51c-.57-.12-1,.18-1.86.8L22,60a1,1,0,0,0-.35.13,1,1,0,0,0-.38,1.42,1,1,0,0,0,.18.23A1.09,1.09,0,0,0,21.35,63a1.09,1.09,0,0,0-.14,1.37,1.12,1.12,0,0,0,.73.53c.34.08,1.2,0,1.3.17a2.14,2.14,0,0,0-.82,1.51,1.91,1.91,0,0,0-.72,1,1.19,1.19,0,0,0,.11.93,1.14,1.14,0,0,0,.74.54c.46.1,1.52-.61,2.56-1.23a9.65,9.65,0,0,1,.62,1,8.51,8.51,0,0,0-.92.53,1,1,0,0,0-.65,1.53,1.05,1.05,0,0,0,.22.27,1.16,1.16,0,0,0,.59.37,1.16,1.16,0,0,0,.16.57,1.14,1.14,0,0,0,.74.54,1.79,1.79,0,0,0,1.3-.3l0,.08c-.58.6-.69,1.11-.36,1.7a1.15,1.15,0,0,0,.75.55,1.33,1.33,0,0,0,.3,0c.56,0,1.32-.36,3.21-1.59a1.19,1.19,0,0,0,.42.18c.79.17,1.64-.41,3.95-2.09A27.46,27.46,0,0,1,38,69.42a1,1,0,0,0,1.21-1,1.67,1.67,0,0,0,.58-.84A1.16,1.16,0,0,0,39.69,66.65Z"/><path class="cls-13" d="M58.09,59.61a6.28,6.28,0,0,0-4.1-.17,21.34,21.34,0,0,0-6.42,2.94,40.51,40.51,0,0,0-3.93,2.74l-.45.37a2,2,0,0,1,.45.41l.3-.15c2.34-1.22,4.66-2.46,7-3.58a23.55,23.55,0,0,1,3.12-1.31,7.85,7.85,0,0,1,2.69-.38,1.71,1.71,0,0,1,1,.29l0,0,0,0h0A1.64,1.64,0,0,1,58,61.82a7.65,7.65,0,0,1-.29,1.54,10.65,10.65,0,0,1-1.25,2.79,7.11,7.11,0,0,1-2.24,2.32,3.82,3.82,0,0,0-1.49-1.09,8.75,8.75,0,0,0-3.36-.82A19,19,0,0,0,44.1,67L44,67c0,.33-.13-.85-.3-.61,0,0,0-1.43,0-1.43H44c.75,0,1.5,1.46,2.25,1.47,1.27,0,2.53.78,3.76.91a9.33,9.33,0,0,1,2.47,1c.16.07.33.33.51.44l-.74.09c.15.09-.39.28-.39.4h0s.87.14.87.16.42.21.43.31h.28a1.73,1.73,0,0,1-.12.6,4,4,0,0,1-1.07,1.59,2.8,2.8,0,0,1-1.91.81,4,4,0,0,1-1.94-.89q-1.87-1.27-3.78-2.47l-1-.63-.52-.31a3.46,3.46,0,0,1-.59.3q.29.33.6.65A13.48,13.48,0,0,0,48.62,73a3.87,3.87,0,0,0,2.26.12,5.22,5.22,0,0,0,1.81-1c.8-.65,1.93-1.83,1.78-3h0l.13-.11a12.9,12.9,0,0,0,2.63-3.43,12.32,12.32,0,0,0,1.63-3.88A1.83,1.83,0,0,0,58.09,59.61Z"/><path class="cls-13" d="M37.41,68.49l-.39.24L36,69.39q-1.91,1.21-3.78,2.47a4,4,0,0,1-1.94.89,2.81,2.81,0,0,1-1.91-.81,4.07,4.07,0,0,1-1.08-1.59,2.63,2.63,0,0,1-.16-.58.88.88,0,0,1,0-.43l0-.06h0a1.31,1.31,0,0,1,.4-.34,5,5,0,0,1,.69-.31,8.77,8.77,0,0,1,2.31-.53c1.23-.12,2.5-.16,3.77-.18l2.08,0H37a2,2,0,0,1-.15-.74L36.14,67a17.17,17.17,0,0,0-5.84-.33c-1.14.15-3.2.72-3.95,1.86A7.37,7.37,0,0,1,24,66a10.51,10.51,0,0,1-1.21-2.81c-.15-.58-.55-1.88-.1-2.43l0,0,0,0,0,0a1.9,1.9,0,0,1,1.22-.29,8,8,0,0,1,2.53.38,23.52,23.52,0,0,1,3.12,1.31c2.27,1.07,4.49,2.25,6.72,3.41l1,.51a3.09,3.09,0,0,1,.34-.39c-.31-.26-.63-.52-1-.78-1.09-.85-2.25-1.63-3.41-2.36a23.67,23.67,0,0,0-6.19-3c-1.63-.45-5.65-1-5.46,1.72a9.93,9.93,0,0,0,1.44,3.88,15.48,15.48,0,0,0,2.51,3.53,6.1,6.1,0,0,0,.54.48,1.83,1.83,0,0,0,.13.91,5.7,5.7,0,0,0,3,2.89,4.93,4.93,0,0,0,4.16-.5A15.5,15.5,0,0,0,36.78,70c.28-.25.55-.51.81-.77l.33-.35A2.09,2.09,0,0,1,37.41,68.49Z"/><path class="cls-13" d="M45.94,72.89a4.58,4.58,0,0,0-2.37-3.21,5.36,5.36,0,0,0-.55-.24,6.79,6.79,0,0,0-1.61-.38l-.39.07a5.38,5.38,0,0,1,1.77.5,4,4,0,0,1,1.06.74,4,4,0,0,1,.65.83,20.54,20.54,0,0,1-4.7.53c-1.26,0-2.51-.43-3.74-.54a3.85,3.85,0,0,1,.84-1A4.09,4.09,0,0,1,38,69.55a4.86,4.86,0,0,1,.94-.3l-.39-.08a6.41,6.41,0,0,0-.79.21,4.62,4.62,0,0,0-2.26,1.54,6.45,6.45,0,0,0-1,4.49c.18,2.67,1.15,6,3.58,7.5a3.89,3.89,0,0,0,4,.1,7.08,7.08,0,0,0,2.64-3.07A11.32,11.32,0,0,0,45.94,72.89Zm-2.5,8.44A3.8,3.8,0,0,1,40.1,83a4.26,4.26,0,0,1-2.92-2,9.76,9.76,0,0,0,6.71-.27A6.54,6.54,0,0,1,43.45,81.34Zm1.35-2.89c-3,.76-5.82,1.51-8.76-.11l-.08,0a13.41,13.41,0,0,1-.35-1.5,9.74,9.74,0,0,0,3.44.56,16.3,16.3,0,0,0,6.06-.7A13.05,13.05,0,0,1,44.8,78.45Zm.43-3.9a18.9,18.9,0,0,1-9.82.28q0-.48,0-1a6.76,6.76,0,0,1,.15-1.26,6.34,6.34,0,0,0,2.92.85,13.62,13.62,0,0,0,6.65-.56,8,8,0,0,1,.12,1.39C45.23,74.37,45.23,74.46,45.23,74.55Z"/><path class="cls-16" d="M39.73,70.76a1.18,1.18,0,0,1-.26,0,1.15,1.15,0,0,1-.59-.35,1.22,1.22,0,0,1-.67,0,1.11,1.11,0,0,1-.68-.45,1.17,1.17,0,0,1-.31,0,1.13,1.13,0,0,1-.74-.54,1.15,1.15,0,0,1-.11-.89,1.31,1.31,0,0,1,.08-.21,1.15,1.15,0,0,1-.36,0,1.13,1.13,0,0,1-.69-.51c-.35-.6-.19-1.07.38-1.57a1,1,0,0,1,.93-1c.3-.17.93-.6,1.37-.89,1.64-1.12,2.1-1.4,2.69-1.27a1.07,1.07,0,0,1,.29.12c.78-.44,1.12-.52,1.5-.43a1.1,1.1,0,0,1,.84,1,1.15,1.15,0,0,1,1.09.55,1.14,1.14,0,0,1,.11.89,1.78,1.78,0,0,1-.77,1l.09.14a1.32,1.32,0,0,1,.15.38,1.12,1.12,0,0,1,.37.38,1,1,0,0,1-.84,1.56c-.31.18-1,.62-1.41.93C40.81,70.39,40.25,70.76,39.73,70.76Z"/><path class="cls-17" d="M37.82,64.51c-.2-.35-.36-.49-.33-.73a1.12,1.12,0,0,1-.8-.58.74.74,0,0,1,1-1,10.14,10.14,0,0,0,.67-.77c.65-.8,1.21-1.5,2-1.44a1.11,1.11,0,0,1,.88.59,1.56,1.56,0,0,1,.17.43h.13a1.34,1.34,0,0,1,1.15.79,1.32,1.32,0,0,1,.19.87,1.14,1.14,0,0,1,.67.57.74.74,0,0,1-.85,1.08l-.13.22C42.24,65.08,38.19,65.15,37.82,64.51Zm-.17-1.87-.32.19.32-.19Z"/><path class="cls-13" d="M42.73,64.1l0,0a1.43,1.43,0,0,0,.3-.61,1,1,0,0,0-.26-1.07,2.82,2.82,0,0,0-.44-.81l.12-.08A3.37,3.37,0,0,0,43.59,60a2.4,2.4,0,0,0-.81-3.08c-.14-.08-.39-.25-.42,0A7.63,7.63,0,0,0,42.48,59a2.42,2.42,0,0,1-.3,1.78,3.66,3.66,0,0,1-.23.36,2.76,2.76,0,0,0-1.53-.67,2.83,2.83,0,0,0-1.92.56,2.63,2.63,0,0,1-.5-1.76c.07-.45.17-.87.19-1.33,0-.24.15-1.13-.14-1.2s-.55.33-.65.42a2.33,2.33,0,0,0-.45.59,2.38,2.38,0,0,0-.1,1.89,3.44,3.44,0,0,0,1,1.62l.2.17a2.62,2.62,0,0,0-.55.84,1.71,1.71,0,0,0-.1.93,1.62,1.62,0,0,0,0,.22,1.48,1.48,0,0,0,.27.57,3,3,0,0,0-1.57,2.79c.16,1.92,2.33,3.41,4.12,3.6a3.51,3.51,0,0,0,3.87-3.47A3.47,3.47,0,0,0,42.73,64.1ZM40.24,62a4,4,0,0,1,2.08.48,1.32,1.32,0,0,0-.41.72A1.28,1.28,0,0,0,42,64a2.48,2.48,0,0,1-.4.05c-.4,0-.95.09-1.29.1a4.58,4.58,0,0,1-1.54,0,1.13,1.13,0,0,1-.29-.14,1.2,1.2,0,0,0,.1-.92,1.56,1.56,0,0,0-.19-.46,4.07,4.07,0,0,1,.49-.35A3.08,3.08,0,0,1,40.24,62ZM40,69.26A3.62,3.62,0,0,1,38,69a2.1,2.1,0,0,1-1.13-2.05A2.63,2.63,0,0,1,38,65.41,3.52,3.52,0,0,1,39,65a5,5,0,0,0,.8.33A2.68,2.68,0,0,0,41.91,65c1.08.26,2.07.83,2.06,2C44,68.69,41.54,69.14,40,69.26Z"/><path class="cls-14" d="M68.8,30a1.21,1.21,0,0,1-.27,0,1.11,1.11,0,0,1-.72-.53,1.15,1.15,0,0,1-.14-.38,1.21,1.21,0,0,1-.7-.56,1.24,1.24,0,0,1-.12-1c.08-.28-1-.58-1.42-.67a1.23,1.23,0,0,1-1-1.23,1.21,1.21,0,0,1-.92-1.33,1.56,1.56,0,0,1-.79,0,1.18,1.18,0,0,1-.77-.56,1.27,1.27,0,0,1-.12-1c.19-.68,1-1.34,2.7-2.38a.93.93,0,0,1,.08-.42,1,1,0,0,1,.45-1.28,1.06,1.06,0,0,1,.57-.14c.32-.19.93-.65,1.35-1,1.48-1.12,2.17-1.61,2.88-1.46a1.17,1.17,0,0,1,.49.23c2.61-1.8,3.45-2.25,4.19-2.09a1.16,1.16,0,0,1,.76.56h0a1,1,0,0,1,.28,0,1.16,1.16,0,0,1,.76.55,1.37,1.37,0,0,1,.19.53,2.48,2.48,0,0,1,1.6-.35,1.22,1.22,0,0,1,.81.58,1.24,1.24,0,0,1,.15.4,1.2,1.2,0,0,1,.16.22,1.24,1.24,0,0,1,.15.84h0a1.22,1.22,0,0,1,.11.95,1.76,1.76,0,0,1-.48.77,1.2,1.2,0,0,1,.42.43,1.25,1.25,0,0,1,.12,1c-.16.61-.77,1.18-2.13,2.06a1,1,0,0,1,0,.32l.09.13,0,.05a1.11,1.11,0,0,1,.2.26,1.15,1.15,0,0,1,.1.93c-.24.75-1,1.2-4.11,2.64l-.24.12-.68.49a9.87,9.87,0,0,1-2.66,1.63A3,3,0,0,1,68.8,30Z"/><path class="cls-15" d="M64.73,24.48h0Z"/><path class="cls-15" d="M66.83,15.55a1.14,1.14,0,0,0-.69-.52h0a1.33,1.33,0,0,0-.15-.36,1,1,0,0,0-.14-.19,1.09,1.09,0,0,0,0-1.21,1.11,1.11,0,0,0-.72-.53,1.25,1.25,0,0,0-.66,0,1.1,1.1,0,0,0-.84-1c-.52-.12-.9,0-2.48,1.07l0,0a1.53,1.53,0,0,0-.12-.25A1.16,1.16,0,0,0,60.2,12a1.33,1.33,0,0,0-.48,0,1.16,1.16,0,0,0-.15-.48,1.14,1.14,0,0,0-.75-.55c-.52-.12-1.06.06-2.31.85a1.64,1.64,0,0,0-.73.16,1.13,1.13,0,0,0-.65-.41c-.67-.15-4.2,1.85-4.14,1.75.3-.49-.18-.79-.6-.78a2.21,2.21,0,0,0-1.21.72,1,1,0,0,0-.44,1.28c-.43.84-.65,1.32-.33,1.87l0,.06a1.05,1.05,0,0,0,0,1.13,1.13,1.13,0,0,0,.74.54,1.89,1.89,0,0,0,1.35-.31,1.27,1.27,0,0,0,.34,0,1.3,1.3,0,0,0,.17.47,1.47,1.47,0,0,0-.5,1.09,1.67,1.67,0,0,0-.5.76,1.19,1.19,0,0,0,.11.93,1.13,1.13,0,0,0,.74.54c.48.11,1,.1,2-.79.37-.34.3,0,.32,0,.55.11,1.46.32,1.53.73a1.06,1.06,0,0,0-.15,1.36,1.13,1.13,0,0,0,.52.47,1.12,1.12,0,0,0,.63.39,1.18,1.18,0,0,0,.4,0,1.11,1.11,0,0,0,.62.37,3.1,3.1,0,0,0,2.38-.8,2,2,0,0,1,.54.81c-.11.28-.6.61-.41.95a1.1,1.1,0,0,0,1.49.38l.14,0,.22,0c.11.14,2.53-.93,2.29-1.42a2.48,2.48,0,0,0,.87-2.59c.49-1.11.86-2,.82-2,.14-.34.89-.67.51-1.26a.42.42,0,0,0-.43-.24c1.16-.7,1.55-1.06,1.69-1.57A1.15,1.15,0,0,0,66.83,15.55Z"/><path class="cls-15" d="M76.83,31.69a1.14,1.14,0,0,0-.7-.52,1.19,1.19,0,0,0-.69,0,2.89,2.89,0,0,0-1.21.55,1,1,0,0,0-.13-.85,1.11,1.11,0,0,0-.33-.36,1.59,1.59,0,0,0,.59-.82,1.11,1.11,0,0,0-.8-1.4c-.33-.08-.62-.05-1.29.31l0,0a1.12,1.12,0,0,0-.69-.51l-.15,0A8,8,0,0,1,67,27.39c-.14-.24-.93-.42-1.2-.48s-.6,0-1.14.31a1.76,1.76,0,0,0-1,.41l-.21.14-.15.07a1,1,0,0,0-.1,1.74,1.33,1.33,0,0,0-.05,1c-.59.61-.81,1.1-.46,1.71a1.11,1.11,0,0,0,.7.51,1.1,1.1,0,0,0,.48,0,1,1,0,0,0,0,.75c-.91.68-1.41,1.21-1.44,1.76-.7.48-1,.82-1.1,1.23a1.17,1.17,0,0,0,.11.9,1.12,1.12,0,0,0,.72.53c.42.09.83,0,1.69-.52l.11,0a1.46,1.46,0,0,0,.87-.11c-.94.75-1.46,1.29-1.51,1.85a2,2,0,0,0-.8,1,1.18,1.18,0,0,0,0,.63,1.16,1.16,0,0,0,.31,1.09,1.19,1.19,0,0,0,.16.55,1.15,1.15,0,0,0,.76.55,1.52,1.52,0,0,0,.94-.12,1.09,1.09,0,0,0-.14.72A1.07,1.07,0,0,0,64.33,45a1.11,1.11,0,0,0,.71.52,1.18,1.18,0,0,0,.27,0,4.18,4.18,0,0,0,1.95-.87l.25.05h.08a1.11,1.11,0,0,0,.63.33,1.81,1.81,0,0,0,1.47-.68l.17-.15a1,1,0,0,0,.79-1.46c2.06-1.11,2.79-1.55,3-2.22a1.13,1.13,0,0,0-.11-.88,1.12,1.12,0,0,0-.71-.53,1.17,1.17,0,0,0-.32,0,1.06,1.06,0,0,0,0-1c1.28-.72,1.76-1.17,1.93-1.7l.2-.12a1,1,0,0,0,.35-.13,1,1,0,0,0,.44-1.31,1.1,1.1,0,0,0-.14-.43,1,1,0,0,0-.14-.18C76.74,33.28,77.36,32.6,76.83,31.69Z"/><path class="cls-14" d="M8.51,29a1.22,1.22,0,0,1-.28,0,1.14,1.14,0,0,1-.47-.23,1.38,1.38,0,0,1-.31,0A1.18,1.18,0,0,1,7,28.48a1.87,1.87,0,0,1-1.18.19A1.16,1.16,0,0,1,5,28.12a1.2,1.2,0,0,1-.11-1A1.39,1.39,0,0,1,5,26.89L5,26.75c-.39-.68-.11-1.1,0-1.68-.12-.06-1,0-1.4-.06a1.19,1.19,0,0,1-.95-1.15l-.09,0a1.17,1.17,0,0,1-.9-1.33,1.27,1.27,0,0,1-1.44-.59c-.59-1.19.43-1.9,1.19-2.41l.88-.56a.84.84,0,0,1,0-.09l-.08-.12A1,1,0,0,1,3,17.17l.49-.38c.75-.6,1.24-1,1.88-.88a1.12,1.12,0,0,1,.55.28c2.31-1.6,2.94-2,3.61-1.81a1.13,1.13,0,0,1,.73.53,1.33,1.33,0,0,1,.12.28,1.11,1.11,0,0,1,.61.5,1.22,1.22,0,0,1,.18.62c.95-.54,1.47-.67,1.93-.57a1.17,1.17,0,0,1,.7.46,1.16,1.16,0,0,1,.69.54l.07.15a1.17,1.17,0,0,1,.49.46,1.15,1.15,0,0,1,.17.79,1.44,1.44,0,0,1,.38,0,1.25,1.25,0,0,1,.68,2,1.57,1.57,0,0,1,.85-.07,1.16,1.16,0,0,1,.76.55,1.22,1.22,0,0,1,.11.94v0a1.13,1.13,0,0,1,.44.43c.59,1-.26,1.76-2.45,3.2a1.16,1.16,0,0,1,0,.5c-.16.59-.66.91-2.1,1.73l0,0a1,1,0,0,1-.73.56h0a1.62,1.62,0,0,1-1.35.7l-.19,0c-.28.1-.51-.25-.76-.3s-.4.26-.57,0A3.23,3.23,0,0,1,8.51,29Z"/><path class="cls-15" d="M19.19,31a1.2,1.2,0,0,0-.11-.95,1.16,1.16,0,0,0-.76-.55,1.48,1.48,0,0,0-.76,0l-.06-.12a1.14,1.14,0,0,0-.61-.5,1.44,1.44,0,0,0,.18-.37,1.21,1.21,0,0,0-.11-1,1.14,1.14,0,0,0-.75-.55,1.52,1.52,0,0,0-.86.08,1.15,1.15,0,0,0-.65-.4c-.49-.11-.67.54-1.79,1.23-1,.49-2.11.32-4.46,2l-.34.24a15,15,0,0,0-3.59,2,1,1,0,0,0-.39.64,1.16,1.16,0,0,0,.11.89,1.15,1.15,0,0,0,.17.23,1.36,1.36,0,0,0-.12.28,1.21,1.21,0,0,0,.11,1,1.15,1.15,0,0,0,.76.55,1.42,1.42,0,0,0,.7,0c-1,.81-1.26,1.41-.85,2.13a1.17,1.17,0,0,0,.71.52,1.19,1.19,0,0,0,.28,0c.43,0,1-.24,2.12-1a1.09,1.09,0,0,0,.09.53c-.73.57-1.1,1.06-1.12,1.55a2.12,2.12,0,0,0-.86,1.07,1.2,1.2,0,0,0,.11.94,1.14,1.14,0,0,0,.74.54c.45.1.94,0,1.91-.6,0,0,.42.46.84.3a1.59,1.59,0,0,0-.26.9c-.57.52-.73,1-.38,1.61a1.1,1.1,0,0,0,.2.25,1.06,1.06,0,0,0,.08.17,1.12,1.12,0,0,0,.73.53h0a1.11,1.11,0,0,0,.73.53,1.67,1.67,0,0,0,1.24-.33l0,.06A1.14,1.14,0,0,0,13,46l.19,0a1.75,1.75,0,0,0,1.13-.57l.07-.07a1,1,0,0,0,.72-.63c.51-.4.89-.9.54-1.56l0-.06c1.83-1,2.37-1.37,2.55-2a1.12,1.12,0,0,0-.81-1.42,1.64,1.64,0,0,0-1.23.28,1.34,1.34,0,0,0-.17-.46,1.14,1.14,0,0,0-.3-.34,1,1,0,0,0,0-1A3.12,3.12,0,0,0,16.61,37a1.74,1.74,0,0,0,.64-.86,1.2,1.2,0,0,0,0-.15,2.45,2.45,0,0,0,1.06-1.24,1.23,1.23,0,0,0-.07-.88c.62-.63.76-1.17.4-1.79a1.16,1.16,0,0,0-.17-.23A1.9,1.9,0,0,0,19.19,31Z"/><path class="cls-13" d="M65.92,18.54a4.58,4.58,0,0,0-1.59,3.66,5.47,5.47,0,0,0,.06.6,6.81,6.81,0,0,0,.48,1.58l.26.3a5.39,5.39,0,0,1-.45-1.78,4,4,0,0,1,.11-1.29,4,4,0,0,1,.4-1A20.54,20.54,0,0,1,68,24.43c.62,1.1.89,2.39,1.41,3.51a3.85,3.85,0,0,1-1.29-.22,4.09,4.09,0,0,1-1.11-.6,4.87,4.87,0,0,1-.73-.66,3,3,0,0,1,.12.38,6.39,6.39,0,0,0,.58.58,4.62,4.62,0,0,0,2.47,1.19,6.45,6.45,0,0,0,4.4-1.36c2.22-1.49,4.63-4,4.71-6.85a3.9,3.9,0,0,0-1.91-3.5,7.08,7.08,0,0,0-4-.75A11.31,11.31,0,0,0,65.92,18.54Zm8.56-2.06a3.8,3.8,0,0,1,3.1,2.08,4.26,4.26,0,0,1-.3,3.54,9.76,9.76,0,0,0-3.59-5.68A6.56,6.56,0,0,1,74.49,16.48Zm-3.18.27C73.49,19,75.53,21,75.59,24.39c0,0,0,.06,0,.09a13.43,13.43,0,0,1-1.13,1.05,9.74,9.74,0,0,0-1.23-3.26,16.3,16.3,0,0,0-3.64-4.9A13.13,13.13,0,0,1,71.31,16.75Zm-3.59,1.58a18.9,18.9,0,0,1,5.15,8.37l-.82.5a6.76,6.76,0,0,1-1.17.5,6.34,6.34,0,0,0-.73-3,13.62,13.62,0,0,0-3.81-5.48,8,8,0,0,1,1.14-.8Z"/><path class="cls-15" d="M33.33,12.51a1.25,1.25,0,0,0-.83-.6,1.54,1.54,0,0,0-.47,0,1.22,1.22,0,0,0-.15-.41,1.2,1.2,0,0,0-.79-.57c-.54-.12-1.18.08-2.47.85a2.12,2.12,0,0,0-.52.12,1.15,1.15,0,0,0-.64-.38c-.68-.15-1,.14-3,1.38a7.4,7.4,0,0,0-.38-.65,1.45,1.45,0,0,0-.95-.54c-.53,0-1,.06-2.46,1a1.15,1.15,0,0,0-.62-.4c-.39-.09-.73,0-1.4.4-.49,0-1.05.4-2.34,1.3l-.43.3a11.37,11.37,0,0,0-1.13.64A1,1,0,0,0,14,16.16a1.1,1.1,0,0,0,.15.47,1,1,0,0,0,.17.21,1.35,1.35,0,0,0-.18.37,1.17,1.17,0,0,0,.1.93,1.13,1.13,0,0,0,.73.53,2.36,2.36,0,0,0,.51,0,1.27,1.27,0,0,0-.2.64c-.06,1,.5,1.47.79,2.78.19.83-.65,1.81-.68,1.92a1.29,1.29,0,0,0,.11,1,1.22,1.22,0,0,0,.8.58,1.36,1.36,0,0,0,.3,0,3.46,3.46,0,0,0,1.49-.47,3.07,3.07,0,0,0,1.9-.56c.9,0,2.09-.8,4.64-2.76l.83-.63c3.45-1.71,4.66-2.4,5.06-3.13.76-.52,1.3-.95,1.3-1.39h0c0-.62,1.34-1.12,1.49-1.63a1.32,1.32,0,0,0-.11-1,1.74,1.74,0,0,0,.25-.52A1.33,1.33,0,0,0,33.33,12.51Z"/><path class="cls-13" d="M48.35,14.67a6.28,6.28,0,0,0,1.9,3.64A21.35,21.35,0,0,0,56,22.39a40.51,40.51,0,0,0,4.34,2l.55.21A2,2,0,0,1,61,24l-.28-.18c-2.22-1.42-4.46-2.8-6.62-4.31a23.57,23.57,0,0,1-2.69-2,7.86,7.86,0,0,1-1.67-2.14,1.71,1.71,0,0,1-.28-1.05v0h0c.12-.31.56-.52.84-.65a7.61,7.61,0,0,1,1.48-.52,10.64,10.64,0,0,1,3-.31,7.11,7.11,0,0,1,3.13.78,3.82,3.82,0,0,0-.19,1.83,8.76,8.76,0,0,0,1,3.32,19,19,0,0,0,3,4.31l.1.11a1.76,1.76,0,0,1,.92-.19s-.08.06.07,0l0,0-.13-.23h0c-.37-.65-.79-1.28-1.15-1.93-.62-1.11-1.24-2.21-1.74-3.33A8.49,8.49,0,0,1,59.05,15a5,5,0,0,1,0-.57c0-.18,0-.69.42-.85a3.39,3.39,0,0,1,.61-.16,4.1,4.1,0,0,1,1.92.15,2.83,2.83,0,0,1,1.66,1.26,4,4,0,0,1,.2,2.13q-.16,2.25-.25,4.51c0,.4,0,.79,0,1.19,0,.2,0,.4,0,.6a3.46,3.46,0,0,1,.55.36q.14-.41.26-.84a13.48,13.48,0,0,0,.38-6.62,3.87,3.87,0,0,0-1-2,5.22,5.22,0,0,0-1.77-1.07c-1-.37-2.55-.76-3.47-.05h0L58.26,13A12.91,12.91,0,0,0,54,12.39a12.32,12.32,0,0,0-4.18.52C49,13.22,48.31,13.73,48.35,14.67Z"/><path class="cls-13" d="M66.38,28.13l.4.22,1.1.58q2,1.05,4,2a4,4,0,0,1,1.74,1.24,2.81,2.81,0,0,1,.25,2.06A4.07,4.07,0,0,1,73.07,36c-.11.14-.26-1.51-.42-1.38S72.4,33,72.26,33h-.06V34.8c-.17,0-.34.82-.5.72s-.45.14-.62,0A7.65,7.65,0,0,1,69.45,34c-.72-1-1.39-2-2-3.07-.36-.6-.71-1.14-1.06-1.74l-.21-.33L66,28.75a2,2,0,0,1-.57.51c.07.24.14.49.22.73a17.17,17.17,0,0,0,2.64,5.22c.7.91,2.22,2.42,3.58,2.49a7.37,7.37,0,0,1-1,3.26,10.52,10.52,0,0,1-1.83,2.45c-.43.43-1.36,1.42-2.05,1.3h0c-.38-.1-.68-.61-.87-.91a8,8,0,0,1-.93-2.38,23.5,23.5,0,0,1-.43-3.35c-.21-2.5-.3-5-.41-7.52,0-.37,0-.74,0-1.1a3.08,3.08,0,0,1-.51-.11c-.07.4-.14.81-.2,1.21-.19,1.37-.29,2.77-.34,4.13a23.67,23.67,0,0,0,.5,6.85c.43,1.63,2,5.39,4.22,3.87a9.93,9.93,0,0,0,2.64-3.18,15.47,15.47,0,0,0,1.8-3.94,6.16,6.16,0,0,0,.15-.7,1.83,1.83,0,0,0,.73-.56,5.7,5.7,0,0,0,1-4,4.93,4.93,0,0,0-2.51-3.35A15.5,15.5,0,0,0,68,27.91c-.35-.12-.71-.22-1.07-.31l-.47-.11A2.1,2.1,0,0,1,66.38,28.13Z"/><path class="cls-16" d="M62.9,31.05l-.25,0a1.13,1.13,0,0,1-.74-.53,1,1,0,0,1-.07-1l0,0a1.3,1.3,0,0,1-.34,0,1.17,1.17,0,0,1-.77-.54,1.06,1.06,0,0,1-.06-1l-.25,0a1.18,1.18,0,0,1-.77-.55A1.13,1.13,0,0,1,59.74,26a1.11,1.11,0,0,1-.47-.43,1,1,0,0,1,.4-1.45,1.1,1.1,0,0,1,.42-.14c.29-.16.86-.54,1.27-.81,1.48-1,2-1.32,2.61-1.18a1.13,1.13,0,0,1,.73.52,1.06,1.06,0,0,1,.16.64,1.29,1.29,0,0,1,.41,0,1.17,1.17,0,0,1,.77.55,1.06,1.06,0,0,1,.1.93,1.3,1.3,0,0,1,.4,0,1.18,1.18,0,0,1,.78.55,1.11,1.11,0,0,1,.11.87,1.2,1.2,0,0,1-.08.2,1.14,1.14,0,0,1,.23.28c.56.95-.44,1.66-.81,1.93l-.1.07a1.06,1.06,0,0,1-.54.82,1.1,1.1,0,0,1-.43.14c-.23.14-.63.41-.88.59C63.9,30.71,63.41,31.05,62.9,31.05Z"/><path class="cls-17" d="M60.65,31.22a.75.75,0,0,1-.36-.09,1,1,0,0,1-.31.05h0a1,1,0,0,1-.92-.61,1.16,1.16,0,0,1-.16-.77.79.79,0,0,1-.21,0,1.11,1.11,0,0,1-1-.65,1.13,1.13,0,0,1-.12-1,1.06,1.06,0,0,1,.18-.32.92.92,0,0,1-.46-.4.69.69,0,0,1,.76-1l.36-.39c.46-.52.9-1,1.47-.94a.9.9,0,0,1,.69.46,1.11,1.11,0,0,1,.15.78,1.19,1.19,0,0,1,.76.63,1.16,1.16,0,0,1,.13,1v0a1.06,1.06,0,0,1,.88.61,1,1,0,0,1,.08.93l0,0,0,0a.7.7,0,0,1,.09.25.67.67,0,0,1-.28.93.66.66,0,0,1-.9-.24.91.91,0,0,1-.72.7Z"/><path class="cls-13" d="M59.91,25.72h0a1.44,1.44,0,0,0-.68,0c-.48.14-.81.47-.79.76a2.83,2.83,0,0,0-.48.79l-.13-.06A3.37,3.37,0,0,0,55.92,27a2.4,2.4,0,0,0-2.26,2.24c0,.16,0,.46.22.36a7.63,7.63,0,0,0,1.76-1.16,2.42,2.42,0,0,1,1.69-.63l.42,0a2.76,2.76,0,0,0,.18,1.67,2.83,2.83,0,0,0,1.45,1.38,2.63,2.63,0,0,1-1.28,1.32c-.42.17-.83.29-1.25.49-.21.11-1.05.43-1,.72s.56.31.69.35a2.33,2.33,0,0,0,.74.1A2.38,2.38,0,0,0,59,33a3.44,3.44,0,0,0,.91-1.67c0-.09,0-.17,0-.26a2.62,2.62,0,0,0,1,.05,1.71,1.71,0,0,0,.85-.38l.17-.14a1.47,1.47,0,0,0,.36-.52,3,3,0,0,0,3.2,0c1.58-1.09,1.79-3.72,1.05-5.37a3.51,3.51,0,0,0-4.94-1.61A3.47,3.47,0,0,0,59.91,25.72Zm-.59,3.21a4,4,0,0,1-.62-2,1.32,1.32,0,0,0,.82,0,1.28,1.28,0,0,0,.72-.49,2.5,2.5,0,0,1,.25.32c.22.33.55.78.73,1.07A4.59,4.59,0,0,1,62,29.1a1.13,1.13,0,0,1,0,.32,1.2,1.2,0,0,0-.85.37,1.55,1.55,0,0,0-.3.39,4.08,4.08,0,0,1-.55-.25A3.08,3.08,0,0,1,59.32,28.94Zm6.42-3.46a3.62,3.62,0,0,1,.75,1.88,2.1,2.1,0,0,1-1.21,2,2.63,2.63,0,0,1-1.84-.18,3.52,3.52,0,0,1-.89-.63,5,5,0,0,0-.12-.86A2.68,2.68,0,0,0,61.07,26c-.31-1.07-.31-2.21.67-2.77C63.28,22.36,64.88,24.23,65.74,25.48Z"/><path class="cls-13" d="M14.39,45.52a6.28,6.28,0,0,0,2.2-3.46,21.34,21.34,0,0,0,.66-7,40.46,40.46,0,0,0-.4-4.78l-.09-.58a2,2,0,0,1-.58.18c0,.11,0,.22,0,.33-.12,2.63-.2,5.26-.42,7.89a23.6,23.6,0,0,1-.43,3.35,7.85,7.85,0,0,1-1,2.52c-.18.26-.43.68-.77.77h0a1.64,1.64,0,0,1-1-.4,7.6,7.6,0,0,1-1.19-1,10.65,10.65,0,0,1-1.79-2.48,7.11,7.11,0,0,1-.89-3.1A3.82,3.82,0,0,0,10.35,37a8.75,8.75,0,0,0,2.39-2.5A19,19,0,0,0,15,29.71l0-.14a1.76,1.76,0,0,1-.62-.71s.09,0-.05-.06l0,0-.13.23h0c-.37.65-.71,1.32-1.1,2-.65,1.09-1.29,2.18-2,3.18a8.51,8.51,0,0,1-1.74,1.85,5,5,0,0,1-.48.33c-.15.08-.61.33-.95.07A3.38,3.38,0,0,1,7.47,36a4.1,4.1,0,0,1-.83-1.74,2.83,2.83,0,0,1,.25-2.07A4,4,0,0,1,8.63,31q2-1,4-2l1.05-.56.53-.29a3.46,3.46,0,0,1,0-.66l-.86.19a13.47,13.47,0,0,0-5.92,3,3.87,3.87,0,0,0-1.23,1.9,5.22,5.22,0,0,0,0,2.07c.17,1,.62,2.59,1.69,3h0c0,.06,0,.11,0,.17a12.9,12.9,0,0,0,1.65,4,12.32,12.32,0,0,0,2.54,3.35A1.83,1.83,0,0,0,14.39,45.52Z"/><path class="cls-13" d="M17,23.17c0-.15,0-.31,0-.46,0-.41,0-.83,0-1.24q-.09-2.26-.25-4.51a4,4,0,0,1,.2-2.13,2.81,2.81,0,0,1,1.66-1.25,4.07,4.07,0,0,1,1.91-.14,2.65,2.65,0,0,1,.58.15.88.88,0,0,1,.36.25l0,.06h0a1.32,1.32,0,0,1,.09.52,5,5,0,0,1-.08.76,8.77,8.77,0,0,1-.69,2.27c-.51,1.12-1.11,2.24-1.73,3.36l-1,1.82-.2.36-.09.16a2,2,0,0,1,.72.24l.52-.55a17.17,17.17,0,0,0,3.2-4.89c.44-1.07,1-3.13.37-4.35a7.37,7.37,0,0,1,3.32-.77,10.51,10.51,0,0,1,3,.36c.58.16,1.91.47,2.15,1.12v0l0,.05v0a1.9,1.9,0,0,1-.35,1.2,8,8,0,0,1-1.59,2,23.5,23.5,0,0,1-2.69,2c-2.06,1.44-4.19,2.77-6.31,4.11l-.93.59a3.06,3.06,0,0,1,.16.49c.38-.14.77-.28,1.15-.44,1.29-.52,2.54-1.13,3.75-1.77a23.68,23.68,0,0,0,5.69-3.86c1.2-1.18,3.69-4.4,1.24-5.59a9.93,9.93,0,0,0-4.08-.7,15.48,15.48,0,0,0-4.31.41,6.15,6.15,0,0,0-.68.22,1.84,1.84,0,0,0-.85-.35,5.7,5.7,0,0,0-4,1.12,4.93,4.93,0,0,0-1.65,3.85,15.52,15.52,0,0,0,.4,4.2c.08.36.16.73.27,1.09,0,.16.09.31.14.46A2.11,2.11,0,0,1,17,23.17Z"/><path class="cls-13" d="M9,28.36a4.58,4.58,0,0,0,4-.45,5.38,5.38,0,0,0,.49-.36,6.79,6.79,0,0,0,1.13-1.21l.13-.37a5.38,5.38,0,0,1-1.32,1.28,4,4,0,0,1-1.17.55,4,4,0,0,1-1,.15A20.55,20.55,0,0,1,13,23.62c.64-1.09,1.63-2,2.34-3a3.84,3.84,0,0,1,.45,1.23,4.08,4.08,0,0,1,0,1.26,4.91,4.91,0,0,1-.21,1,3,3,0,0,1,.27-.3,6.4,6.4,0,0,0,.21-.79,4.62,4.62,0,0,0-.2-2.73,6.45,6.45,0,0,0-3.38-3.13c-2.4-1.18-5.78-2-8.28-.65a3.9,3.9,0,0,0-2.08,3.4A7.08,7.08,0,0,0,3.5,23.72,11.31,11.31,0,0,0,9,28.36ZM2.89,22a3.8,3.8,0,0,1,.25-3.72,4.26,4.26,0,0,1,3.22-1.52,9.76,9.76,0,0,0-3.12,5.95A6.52,6.52,0,0,1,2.89,22Zm1.82,2.62c.86-3,1.6-5.8,4.47-7.53L9.26,17a13.49,13.49,0,0,1,1.48.45,9.74,9.74,0,0,0-2.21,2.69,16.3,16.3,0,0,0-2.43,5.6A13.09,13.09,0,0,1,4.71,24.59Zm3.16,2.32a18.9,18.9,0,0,1,4.67-8.64l.85.46a6.74,6.74,0,0,1,1,.76,6.34,6.34,0,0,0-2.19,2.11,13.62,13.62,0,0,0-2.84,6A8,8,0,0,1,8.11,27Z"/><path class="cls-16" d="M16.38,30.27a1.18,1.18,0,0,1-.26,0,1.1,1.1,0,0,1-.6-.36,1.2,1.2,0,0,1-.62,0,1.11,1.11,0,0,1-.67-.45,1.21,1.21,0,0,1-.33,0,1.13,1.13,0,0,1-.74-.54A1.15,1.15,0,0,1,13,28a1.34,1.34,0,0,1,.07-.19,1.12,1.12,0,0,1-.39,0,1.09,1.09,0,0,1-.69-.51,1.22,1.22,0,0,1,.38-1.57,1,1,0,0,1,.93-1c.3-.17.94-.6,1.38-.9,1.65-1.12,2.11-1.41,2.7-1.27a1.09,1.09,0,0,1,.29.11c.78-.45,1.13-.52,1.51-.43a1.1,1.1,0,0,1,.7.52,1.13,1.13,0,0,1,.14.43,1.17,1.17,0,0,1,.4,0,1.11,1.11,0,0,1,.71.52,1.14,1.14,0,0,1,.11.89,1.72,1.72,0,0,1-.72.91c-.39.22-1.78,3-2.17,3.46C17.23,30.25,16.9,30.27,16.38,30.27Z"/><path class="cls-17" d="M20,31.71h0A1.07,1.07,0,0,1,19,31.1a1.41,1.41,0,0,1-.13-.3h-.18c-.31,0-.65-.22-1.13-.77-.26-.3,1.27-3.27,1.35-3.32s.31-.36.43-.51c.6-.74,1.12-1.37,1.83-1.31a1,1,0,0,1,.83.56,1.28,1.28,0,0,1,.13,1.16l-.06.12a1.85,1.85,0,0,1,.38.47,1.33,1.33,0,0,1,.14,1.19,1.3,1.3,0,0,1-.37.51,1.6,1.6,0,0,1,.16.23.73.73,0,0,1-.82,1.06l-.13.08-.12.2C21,31.09,20.62,31.71,20,31.71Z"/><path class="cls-13" d="M18.18,30l0,0a1.44,1.44,0,0,0,.38.57,1,1,0,0,0,1.05.31,2.83,2.83,0,0,0,.92,0v.14a3.37,3.37,0,0,0,.73,1.72,2.4,2.4,0,0,0,3.08.84c.14-.08.41-.21.2-.37a5.75,5.75,0,0,0-.69-.42,5.72,5.72,0,0,0-1.2-.52,2.42,2.42,0,0,1-1.39-1.15,3.78,3.78,0,0,1-.2-.38,2.76,2.76,0,0,0,1.35-1,2.83,2.83,0,0,0,.47-1.94,2.63,2.63,0,0,1,1.78.45c.36.28.67.58,1.05.83.2.13.9.69,1.11.48s0-.64,0-.78a2.34,2.34,0,0,0-.28-.69,2.38,2.38,0,0,0-1.58-1,3.44,3.44,0,0,0-1.9,0l-.25.09a2.61,2.61,0,0,0-.46-.9,1.7,1.7,0,0,0-.75-.55l-.21-.08a1.48,1.48,0,0,0-.63-.06,3,3,0,0,0-1.63-2.76c-1.74-.82-4.12.31-5.17,1.77A3.51,3.51,0,0,0,15,29.75,3.47,3.47,0,0,0,18.18,30Zm3.08-1.09a4,4,0,0,1-1.45,1.56,1.32,1.32,0,0,0-.42-.71,1.28,1.28,0,0,0-.78-.38,2.54,2.54,0,0,1,.15-.37c.18-.35.4-.87.56-1.17a4.59,4.59,0,0,1,.74-1.35,1.13,1.13,0,0,1,.27-.18,1.2,1.2,0,0,0,.75.55,1.55,1.55,0,0,0,.49.07,4.08,4.08,0,0,1,.06.6A3.08,3.08,0,0,1,21.26,28.88Zm-6.2-3.83a3.62,3.62,0,0,1,1.25-1.59,2.1,2.1,0,0,1,2.35,0,2.63,2.63,0,0,1,.77,1.68,3.53,3.53,0,0,1-.1,1.08,5,5,0,0,0-.69.53,2.69,2.69,0,0,0-.79,2c-.77.81-1.75,1.38-2.73.81C13.58,28.74,14.41,26.42,15.06,25.05Z"/></g></g></svg>