<svg xmlns="http://www.w3.org/2000/svg" xmlns:xlink="http://www.w3.org/1999/xlink" viewBox="0 0 21.56 16.77"><defs><style>.cls-1{fill:none;}.cls-2{isolation:isolate;}.cls-3{clip-path:url(#clip-path);}.cls-4{opacity:0.7;}.cls-5{clip-path:url(#clip-path-2);}.cls-6{mix-blend-mode:soft-light;}.cls-7{fill:#fff;}.cls-8{clip-path:url(#clip-path-3);}.cls-9{clip-path:url(#clip-path-4);}.cls-10{fill:url(#radial-gradient);}.cls-11{fill:#089c39;}</style><clipPath id="clip-path"><rect class="cls-1" x="-798.68" y="-821.85" width="1920" height="530"/></clipPath><clipPath id="clip-path-2"><rect class="cls-1" x="-798.68" y="-1170.5" width="1920" height="1080"/></clipPath><clipPath id="clip-path-3"><polyline class="cls-1" points="-297.24 -201.06 -152.9 -117.72 -152.9 48.95 -297.24 132.28 -441.57 48.95 -441.57 -117.72 -297.24 -201.06"/></clipPath><clipPath id="clip-path-4"><polygon class="cls-1" points="-297.24 -199.62 -440.33 -117 -440.33 48.23 -297.24 130.85 -154.13 48.23 -154.13 -117 -297.24 -199.62 -297.24 -199.62"/></clipPath><radialGradient id="radial-gradient" cx="663.5" cy="337.93" r="1148.85" gradientUnits="userSpaceOnUse"><stop offset="0" stop-color="#fff8da"/><stop offset="0.4" stop-color="#ffe264"/><stop offset="1" stop-color="#fc9200"/></radialGradient></defs><title>tick</title><g class="cls-2"><g id="Layer_1" data-name="Layer 1"><g class="cls-3"><g class="cls-4"><g class="cls-5"><g class="cls-6"><rect class="cls-7" x="-839.73" y="-1260.3" width="2002.1" height="1261.89"/></g></g></g></g><g class="cls-8"><g class="cls-9"><rect class="cls-10" x="-512.62" y="-323.63" width="2352.22" height="1323.12"/></g></g><path class="cls-11" d="M6.8,16.77a2,2,0,0,1-1.41-.59l-4.8-4.8A2,2,0,1,1,3.41,8.56L6.8,11.94,18.15.59A2,2,0,0,1,21,3.41L8.21,16.18A2,2,0,0,1,6.8,16.77Z"/></g></g></svg>