<svg xmlns="http://www.w3.org/2000/svg" xmlns:xlink="http://www.w3.org/1999/xlink" viewBox="0 0 1920 530"><defs><style>.cls-1{fill:none;}.cls-2{isolation:isolate;}.cls-3{clip-path:url(#clip-path);}.cls-4{fill:url(#radial-gradient);}.cls-5{opacity:0.7;}.cls-6{clip-path:url(#clip-path-2);}.cls-7{mix-blend-mode:soft-light;}.cls-8{fill:#fff;}.cls-9{fill:#ffd97e;}.cls-10{fill:#ffda55;}.cls-11{fill:#fbefbd;}.cls-12{fill:#ffb508;}.cls-13{fill:#fff8ec;}.cls-14{clip-path:url(#clip-path-3);}.cls-15{clip-path:url(#clip-path-4);}.cls-16{fill:url(#radial-gradient-2);}</style><clipPath id="clip-path"><rect class="cls-1" width="1920" height="530"/></clipPath><radialGradient id="radial-gradient" cx="960" cy="191.35" r="937.75" gradientUnits="userSpaceOnUse"><stop offset="0" stop-color="#fff5d7"/><stop offset="0.4" stop-color="#ffdf64"/><stop offset="1" stop-color="#f98f00"/></radialGradient><clipPath id="clip-path-2"><rect class="cls-1" y="-348.65" width="1920" height="1080"/></clipPath><clipPath id="clip-path-3"><polyline class="cls-1" points="501.45 620.79 645.79 704.13 645.79 870.8 501.45 954.13 357.11 870.8 357.11 704.13 501.45 620.79"/></clipPath><clipPath id="clip-path-4"><polygon class="cls-1" points="501.45 622.23 358.35 704.84 358.35 870.08 501.45 952.7 644.55 870.08 644.55 704.84 501.45 622.23 501.45 622.23"/></clipPath><radialGradient id="radial-gradient-2" cx="1462.18" cy="1159.78" r="1148.85" gradientUnits="userSpaceOnUse"><stop offset="0" stop-color="#fff8da"/><stop offset="0.4" stop-color="#ffe264"/><stop offset="1" stop-color="#fc9200"/></radialGradient></defs><title>wide bg desktop</title><g class="cls-2"><g id="Layer_1" data-name="Layer 1"><g class="cls-3"><rect class="cls-4" y="-348.65" width="1920" height="1080"/><g class="cls-5"><g class="cls-6"><g class="cls-7"><rect class="cls-8" x="-41.05" y="-438.45" width="2002.1" height="1261.89"/><polygon class="cls-9" points="1864.75 -16.8 1887.55 22.68 1864.75 62.17 1819.15 62.17 1796.35 22.68 1819.15 -16.8 1864.75 -16.8"/><polygon class="cls-10" points="1864.75 67.53 1887.55 107.02 1864.75 146.51 1819.15 146.51 1796.35 107.02 1819.15 67.53 1864.75 67.53"/><polygon class="cls-9" points="1938.25 25.03 1961.05 64.52 1938.25 104.01 1892.65 104.01 1869.85 64.52 1892.65 25.03 1938.25 25.03"/><polygon class="cls-9" points="1938.25 -59.3 1961.05 -19.82 1938.25 19.67 1892.65 19.67 1869.85 -19.82 1892.65 -59.3 1938.25 -59.3"/><polygon class="cls-9" points="1791.25 25.03 1814.05 64.52 1791.25 104.01 1745.65 104.01 1722.85 64.52 1745.65 25.03 1791.25 25.03"/><polygon class="cls-11" points="1791.25 -59.3 1814.05 -19.82 1791.25 19.67 1745.65 19.67 1722.85 -19.82 1745.65 -59.3 1791.25 -59.3"/><polygon class="cls-11" points="1864.75 320.53 1887.55 360.02 1864.75 399.51 1819.15 399.51 1796.35 360.02 1819.15 320.53 1864.75 320.53"/><polygon class="cls-10" points="1864.75 404.86 1887.55 444.35 1864.75 483.84 1819.15 483.84 1796.35 444.35 1819.15 404.86 1864.75 404.86"/><polygon class="cls-12" points="1864.75 236.2 1887.55 275.69 1864.75 315.17 1819.15 315.17 1796.35 275.69 1819.15 236.2 1864.75 236.2"/><polygon class="cls-12" points="1938.25 362.36 1961.05 401.85 1938.25 441.34 1892.65 441.34 1869.85 401.85 1892.65 362.36 1938.25 362.36"/><polygon class="cls-12" points="1938.25 278.03 1961.05 317.52 1938.25 357.01 1892.65 357.01 1869.85 317.52 1892.65 278.03 1938.25 278.03"/><polygon class="cls-11" points="1791.25 362.36 1814.05 401.85 1791.25 441.34 1745.65 441.34 1722.85 401.85 1745.65 362.36 1791.25 362.36"/><polygon class="cls-11" points="1791.25 278.03 1814.05 317.52 1791.25 357.01 1745.65 357.01 1722.85 317.52 1745.65 278.03 1791.25 278.03"/><polygon class="cls-9" points="1864.75 489.2 1887.55 528.68 1864.75 568.17 1819.15 568.17 1796.35 528.68 1819.15 489.2 1864.75 489.2"/><polygon class="cls-12" points="1938.25 446.7 1961.05 486.19 1938.25 525.67 1892.65 525.67 1869.85 486.19 1892.65 446.7 1938.25 446.7"/><polygon class="cls-11" points="1791.25 446.7 1814.05 486.19 1791.25 525.67 1745.65 525.67 1722.85 486.19 1745.65 446.7 1791.25 446.7"/><polygon class="cls-9" points="1864.75 151.86 1887.55 191.35 1864.75 230.84 1819.15 230.84 1796.35 191.35 1819.15 151.86 1864.75 151.86"/><polygon class="cls-12" points="1938.25 193.7 1961.05 233.19 1938.25 272.67 1892.65 272.67 1869.85 233.19 1892.65 193.7 1938.25 193.7"/><polygon class="cls-9" points="1938.25 109.36 1961.05 148.85 1938.25 188.34 1892.65 188.34 1869.85 148.85 1892.65 109.36 1938.25 109.36"/><polygon class="cls-9" points="1791.25 193.7 1814.05 233.19 1791.25 272.67 1745.65 272.67 1722.85 233.19 1745.65 193.7 1791.25 193.7"/><polygon class="cls-10" points="1791.25 109.36 1814.05 148.85 1791.25 188.34 1745.65 188.34 1722.85 148.85 1745.65 109.36 1791.25 109.36"/><polygon class="cls-11" points="1717.75 -16.8 1740.55 22.68 1717.75 62.17 1672.15 62.17 1649.36 22.68 1672.15 -16.8 1717.75 -16.8"/><polygon class="cls-9" points="1717.75 67.53 1740.55 107.02 1717.75 146.51 1672.15 146.51 1649.36 107.02 1672.15 67.53 1717.75 67.53"/><polygon class="cls-11" points="1644.25 25.03 1667.05 64.52 1644.25 104.01 1598.65 104.01 1575.86 64.52 1598.65 25.03 1644.25 25.03"/><polygon class="cls-9" points="1644.25 -59.3 1667.05 -19.82 1644.25 19.67 1598.65 19.67 1575.86 -19.82 1598.65 -59.3 1644.25 -59.3"/><polygon class="cls-11" points="1717.75 320.53 1740.55 360.02 1717.75 399.51 1672.15 399.51 1649.36 360.02 1672.15 320.53 1717.75 320.53"/><polygon class="cls-9" points="1717.75 404.86 1740.55 444.35 1717.75 483.84 1672.15 483.84 1649.36 444.35 1672.15 404.86 1717.75 404.86"/><polygon class="cls-11" points="1717.75 236.2 1740.55 275.69 1717.75 315.17 1672.15 315.17 1649.36 275.69 1672.15 236.2 1717.75 236.2"/><polygon class="cls-11" points="1644.25 362.36 1667.05 401.85 1644.25 441.34 1598.65 441.34 1575.86 401.85 1598.65 362.36 1644.25 362.36"/><polygon class="cls-8" points="1644.25 278.03 1667.05 317.52 1644.25 357.01 1598.65 357.01 1575.86 317.52 1598.65 278.03 1644.25 278.03"/><polygon class="cls-9" points="1717.75 489.2 1740.55 528.68 1717.75 568.17 1672.15 568.17 1649.36 528.68 1672.15 489.2 1717.75 489.2"/><polygon class="cls-9" points="1644.25 446.7 1667.05 486.19 1644.25 525.67 1598.65 525.67 1575.86 486.19 1598.65 446.7 1644.25 446.7"/><polygon class="cls-9" points="1717.75 151.86 1740.55 191.35 1717.75 230.84 1672.15 230.84 1649.36 191.35 1672.15 151.86 1717.75 151.86"/><polygon class="cls-11" points="1644.25 193.7 1667.05 233.19 1644.25 272.67 1598.65 272.67 1575.86 233.19 1598.65 193.7 1644.25 193.7"/><polygon class="cls-11" points="1644.25 109.36 1667.05 148.85 1644.25 188.34 1598.65 188.34 1575.86 148.85 1598.65 109.36 1644.25 109.36"/><polygon class="cls-11" points="1570.75 -16.8 1593.55 22.68 1570.75 62.17 1525.15 62.17 1502.36 22.68 1525.15 -16.8 1570.75 -16.8"/><polygon class="cls-13" points="1570.75 67.53 1593.55 107.02 1570.75 146.51 1525.15 146.51 1502.36 107.02 1525.15 67.53 1570.75 67.53"/><polygon class="cls-8" points="1497.25 25.03 1520.05 64.52 1497.25 104.01 1451.65 104.01 1428.86 64.52 1451.65 25.03 1497.25 25.03"/><polygon class="cls-8" points="1497.25 -59.3 1520.05 -19.82 1497.25 19.67 1451.65 19.67 1428.86 -19.82 1451.65 -59.3 1497.25 -59.3"/><polygon class="cls-11" points="1570.75 320.53 1593.55 360.02 1570.75 399.51 1525.15 399.51 1502.36 360.02 1525.15 320.53 1570.75 320.53"/><polygon class="cls-13" points="1570.75 404.86 1593.55 444.35 1570.75 483.84 1525.15 483.84 1502.36 444.35 1525.15 404.86 1570.75 404.86"/><polygon class="cls-8" points="1570.75 236.2 1593.55 275.69 1570.75 315.17 1525.15 315.17 1502.36 275.69 1525.15 236.2 1570.75 236.2"/><polygon class="cls-13" points="1497.25 362.36 1520.05 401.85 1497.25 441.34 1451.65 441.34 1428.86 401.85 1451.65 362.36 1497.25 362.36"/><polygon class="cls-13" points="1497.25 278.03 1520.05 317.52 1497.25 357.01 1451.65 357.01 1428.86 317.52 1451.65 278.03 1497.25 278.03"/><polygon class="cls-13" points="1570.75 489.2 1593.55 528.68 1570.75 568.17 1525.15 568.17 1502.36 528.68 1525.15 489.2 1570.75 489.2"/><polygon class="cls-11" points="1497.25 446.7 1520.05 486.19 1497.25 525.67 1451.65 525.67 1428.86 486.19 1451.65 446.7 1497.25 446.7"/><polygon class="cls-11" points="1570.75 151.86 1593.55 191.35 1570.75 230.84 1525.15 230.84 1502.36 191.35 1525.15 151.86 1570.75 151.86"/><polygon class="cls-8" points="1497.25 193.7 1520.05 233.19 1497.25 272.67 1451.65 272.67 1428.86 233.19 1451.65 193.7 1497.25 193.7"/><polygon class="cls-8" points="1497.25 109.36 1520.05 148.85 1497.25 188.34 1451.65 188.34 1428.86 148.85 1451.65 109.36 1497.25 109.36"/><polygon class="cls-13" points="1423.78 -16.8 1446.58 22.68 1423.78 62.17 1378.18 62.17 1355.38 22.68 1378.18 -16.8 1423.78 -16.8"/><polygon class="cls-13" points="1423.78 67.53 1446.58 107.02 1423.78 146.51 1378.18 146.51 1355.38 107.02 1378.18 67.53 1423.78 67.53"/><polygon class="cls-8" points="1350.28 25.03 1373.08 64.52 1350.28 104.01 1304.68 104.01 1281.88 64.52 1304.68 25.03 1350.28 25.03"/><polygon class="cls-8" points="1350.28 -59.3 1373.08 -19.82 1350.28 19.67 1304.68 19.67 1281.88 -19.82 1304.68 -59.3 1350.28 -59.3"/><polygon class="cls-8" points="1423.78 320.53 1446.58 360.02 1423.78 399.51 1378.18 399.51 1355.38 360.02 1378.18 320.53 1423.78 320.53"/><polygon class="cls-8" points="1423.78 404.86 1446.58 444.35 1423.78 483.84 1378.18 483.84 1355.38 444.35 1378.18 404.86 1423.78 404.86"/><polygon class="cls-8" points="1423.78 236.2 1446.58 275.69 1423.78 315.17 1378.18 315.17 1355.38 275.69 1378.18 236.2 1423.78 236.2"/><polygon class="cls-8" points="1350.28 362.36 1373.08 401.85 1350.28 441.34 1304.68 441.34 1281.88 401.85 1304.68 362.36 1350.28 362.36"/><polygon class="cls-8" points="1350.28 278.03 1373.08 317.52 1350.28 357.01 1304.68 357.01 1281.88 317.52 1304.68 278.03 1350.28 278.03"/><polygon class="cls-11" points="1423.78 489.2 1446.58 528.68 1423.78 568.17 1378.18 568.17 1355.38 528.68 1378.18 489.2 1423.78 489.2"/><polygon class="cls-13" points="1350.28 446.7 1373.08 486.19 1350.28 525.67 1304.68 525.67 1281.88 486.19 1304.68 446.7 1350.28 446.7"/><polygon class="cls-8" points="1423.78 151.86 1446.58 191.35 1423.78 230.84 1378.18 230.84 1355.38 191.35 1378.18 151.86 1423.78 151.86"/><polygon class="cls-8" points="1350.28 193.7 1373.08 233.19 1350.28 272.67 1304.68 272.67 1281.88 233.19 1304.68 193.7 1350.28 193.7"/><polygon class="cls-8" points="1350.28 109.36 1373.08 148.85 1350.28 188.34 1304.68 188.34 1281.88 148.85 1304.68 109.36 1350.28 109.36"/><polygon class="cls-8" points="1276.78 -16.8 1299.58 22.68 1276.78 62.17 1231.18 62.17 1208.38 22.68 1231.18 -16.8 1276.78 -16.8"/><polygon class="cls-8" points="1276.78 67.53 1299.58 107.02 1276.78 146.51 1231.18 146.51 1208.38 107.02 1231.18 67.53 1276.78 67.53"/><polygon class="cls-8" points="1203.28 25.03 1226.08 64.52 1203.28 104.01 1157.68 104.01 1134.88 64.52 1157.68 25.03 1203.28 25.03"/><polygon class="cls-8" points="1203.28 -59.3 1226.08 -19.82 1203.28 19.67 1157.68 19.67 1134.88 -19.82 1157.68 -59.3 1203.28 -59.3"/><polygon class="cls-8" points="1276.78 320.53 1299.58 360.02 1276.78 399.51 1231.18 399.51 1208.38 360.02 1231.18 320.53 1276.78 320.53"/><polygon class="cls-8" points="1276.78 404.86 1299.58 444.35 1276.78 483.84 1231.18 483.84 1208.38 444.35 1231.18 404.86 1276.78 404.86"/><polygon class="cls-8" points="1276.78 236.2 1299.58 275.69 1276.78 315.17 1231.18 315.17 1208.38 275.69 1231.18 236.2 1276.78 236.2"/><polygon class="cls-8" points="1203.28 362.36 1226.08 401.85 1203.28 441.34 1157.68 441.34 1134.88 401.85 1157.68 362.36 1203.28 362.36"/><polygon class="cls-8" points="1203.28 278.03 1226.08 317.52 1203.28 357.01 1157.68 357.01 1134.88 317.52 1157.68 278.03 1203.28 278.03"/><polygon class="cls-13" points="1276.78 489.2 1299.58 528.68 1276.78 568.17 1231.18 568.17 1208.38 528.68 1231.18 489.2 1276.78 489.2"/><polygon class="cls-8" points="1203.28 446.7 1226.08 486.19 1203.28 525.67 1157.68 525.67 1134.88 486.19 1157.68 446.7 1203.28 446.7"/><polygon class="cls-8" points="1276.78 151.86 1299.58 191.35 1276.78 230.84 1231.18 230.84 1208.38 191.35 1231.18 151.86 1276.78 151.86"/><polygon class="cls-8" points="1203.28 193.7 1226.08 233.19 1203.28 272.67 1157.68 272.67 1134.88 233.19 1157.68 193.7 1203.28 193.7"/><polygon class="cls-8" points="1203.28 109.36 1226.08 148.85 1203.28 188.34 1157.68 188.34 1134.88 148.85 1157.68 109.36 1203.28 109.36"/><polygon class="cls-8" points="1129.78 -16.8 1152.58 22.68 1129.78 62.17 1084.19 62.17 1061.39 22.68 1084.19 -16.8 1129.78 -16.8"/><polygon class="cls-8" points="1129.78 67.53 1152.58 107.02 1129.78 146.51 1084.19 146.51 1061.39 107.02 1084.19 67.53 1129.78 67.53"/><polygon class="cls-8" points="1056.28 25.03 1079.08 64.52 1056.28 104.01 1010.69 104.01 987.89 64.52 1010.69 25.03 1056.28 25.03"/><polygon class="cls-8" points="1056.28 -59.3 1079.08 -19.82 1056.28 19.67 1010.69 19.67 987.89 -19.82 1010.69 -59.3 1056.28 -59.3"/><polygon class="cls-8" points="1129.78 320.53 1152.58 360.02 1129.78 399.51 1084.19 399.51 1061.39 360.02 1084.19 320.53 1129.78 320.53"/><polygon class="cls-8" points="1129.78 404.86 1152.58 444.35 1129.78 483.84 1084.19 483.84 1061.39 444.35 1084.19 404.86 1129.78 404.86"/><polygon class="cls-8" points="1129.78 236.2 1152.58 275.69 1129.78 315.17 1084.19 315.17 1061.39 275.69 1084.19 236.2 1129.78 236.2"/><polygon class="cls-8" points="1056.28 362.36 1079.08 401.85 1056.28 441.34 1010.69 441.34 987.89 401.85 1010.69 362.36 1056.28 362.36"/><polygon class="cls-8" points="1056.28 278.03 1079.08 317.52 1056.28 357.01 1010.69 357.01 987.89 317.52 1010.69 278.03 1056.28 278.03"/><polygon class="cls-8" points="1129.78 489.2 1152.58 528.68 1129.78 568.17 1084.19 568.17 1061.39 528.68 1084.19 489.2 1129.78 489.2"/><polygon class="cls-8" points="1056.28 446.7 1079.08 486.19 1056.28 525.67 1010.69 525.67 987.89 486.19 1010.69 446.7 1056.28 446.7"/><polygon class="cls-8" points="1129.78 151.86 1152.58 191.35 1129.78 230.84 1084.19 230.84 1061.39 191.35 1084.19 151.86 1129.78 151.86"/><polygon class="cls-8" points="1056.28 193.7 1079.08 233.19 1056.28 272.67 1010.69 272.67 987.89 233.19 1010.69 193.7 1056.28 193.7"/><polygon class="cls-8" points="1056.28 109.36 1079.08 148.85 1056.28 188.34 1010.69 188.34 987.89 148.85 1010.69 109.36 1056.28 109.36"/><polygon class="cls-8" points="982.78 -16.8 1005.58 22.68 982.78 62.17 937.19 62.17 914.39 22.68 937.19 -16.8 982.78 -16.8"/><polygon class="cls-8" points="982.78 67.53 1005.58 107.02 982.78 146.51 937.19 146.51 914.39 107.02 937.19 67.53 982.78 67.53"/><polygon class="cls-8" points="909.28 25.03 932.08 64.52 909.28 104.01 863.69 104.01 840.89 64.52 863.69 25.03 909.28 25.03"/><polygon class="cls-8" points="909.28 -59.3 932.08 -19.82 909.28 19.67 863.69 19.67 840.89 -19.82 863.69 -59.3 909.28 -59.3"/><polygon class="cls-8" points="982.78 320.53 1005.58 360.02 982.78 399.51 937.19 399.51 914.39 360.02 937.19 320.53 982.78 320.53"/><polygon class="cls-8" points="982.78 404.86 1005.58 444.35 982.78 483.84 937.19 483.84 914.39 444.35 937.19 404.86 982.78 404.86"/><polygon class="cls-8" points="982.78 236.2 1005.58 275.69 982.78 315.17 937.19 315.17 914.39 275.69 937.19 236.2 982.78 236.2"/><polygon class="cls-8" points="909.28 362.36 932.08 401.85 909.28 441.34 863.69 441.34 840.89 401.85 863.69 362.36 909.28 362.36"/><polygon class="cls-8" points="909.28 278.03 932.08 317.52 909.28 357.01 863.69 357.01 840.89 317.52 863.69 278.03 909.28 278.03"/><polygon class="cls-8" points="982.78 489.2 1005.58 528.68 982.78 568.17 937.19 568.17 914.39 528.68 937.19 489.2 982.78 489.2"/><polygon class="cls-8" points="909.28 446.7 932.08 486.19 909.28 525.67 863.69 525.67 840.89 486.19 863.69 446.7 909.28 446.7"/><polygon class="cls-8" points="982.78 151.86 1005.58 191.35 982.78 230.84 937.19 230.84 914.39 191.35 937.19 151.86 982.78 151.86"/><polygon class="cls-8" points="909.28 193.7 932.08 233.19 909.28 272.67 863.69 272.67 840.89 233.19 863.69 193.7 909.28 193.7"/><polygon class="cls-8" points="909.28 109.36 932.08 148.85 909.28 188.34 863.69 188.34 840.89 148.85 863.69 109.36 909.28 109.36"/><polygon class="cls-8" points="835.81 -16.8 858.61 22.68 835.81 62.17 790.22 62.17 767.42 22.68 790.22 -16.8 835.81 -16.8"/><polygon class="cls-8" points="835.81 67.53 858.61 107.02 835.81 146.51 790.22 146.51 767.42 107.02 790.22 67.53 835.81 67.53"/><polygon class="cls-8" points="762.31 25.03 785.11 64.52 762.31 104.01 716.72 104.01 693.92 64.52 716.72 25.03 762.31 25.03"/><polygon class="cls-8" points="762.31 -59.3 785.11 -19.82 762.31 19.67 716.72 19.67 693.92 -19.82 716.72 -59.3 762.31 -59.3"/><polygon class="cls-8" points="835.81 320.53 858.61 360.02 835.81 399.51 790.22 399.51 767.42 360.02 790.22 320.53 835.81 320.53"/><polygon class="cls-8" points="835.81 404.86 858.61 444.35 835.81 483.84 790.22 483.84 767.42 444.35 790.22 404.86 835.81 404.86"/><polygon class="cls-8" points="835.81 236.2 858.61 275.69 835.81 315.17 790.22 315.17 767.42 275.69 790.22 236.2 835.81 236.2"/><polygon class="cls-13" points="762.31 362.36 785.11 401.85 762.31 441.34 716.72 441.34 693.92 401.85 716.72 362.36 762.31 362.36"/><polygon class="cls-8" points="762.31 278.03 785.11 317.52 762.31 357.01 716.72 357.01 693.92 317.52 716.72 278.03 762.31 278.03"/><polygon class="cls-8" points="835.81 489.2 858.61 528.68 835.81 568.17 790.22 568.17 767.42 528.68 790.22 489.2 835.81 489.2"/><polygon class="cls-13" points="762.31 446.7 785.11 486.19 762.31 525.67 716.72 525.67 693.92 486.19 716.72 446.7 762.31 446.7"/><polygon class="cls-8" points="835.81 151.86 858.61 191.35 835.81 230.84 790.22 230.84 767.42 191.35 790.22 151.86 835.81 151.86"/><polygon class="cls-8" points="762.31 193.7 785.11 233.19 762.31 272.67 716.72 272.67 693.92 233.19 716.72 193.7 762.31 193.7"/><polygon class="cls-8" points="762.31 109.36 785.11 148.85 762.31 188.34 716.72 188.34 693.92 148.85 716.72 109.36 762.31 109.36"/><polygon class="cls-8" points="688.81 -16.8 711.61 22.68 688.81 62.17 643.22 62.17 620.42 22.68 643.22 -16.8 688.81 -16.8"/><polygon class="cls-8" points="688.81 67.53 711.61 107.02 688.81 146.51 643.22 146.51 620.42 107.02 643.22 67.53 688.81 67.53"/><polygon class="cls-8" points="615.31 25.03 638.11 64.52 615.31 104.01 569.72 104.01 546.92 64.52 569.72 25.03 615.31 25.03"/><polygon class="cls-8" points="615.31 -59.3 638.11 -19.82 615.31 19.67 569.72 19.67 546.92 -19.82 569.72 -59.3 615.31 -59.3"/><polygon class="cls-13" points="688.81 320.53 711.61 360.02 688.81 399.51 643.22 399.51 620.42 360.02 643.22 320.53 688.81 320.53"/><polygon class="cls-13" points="688.81 404.86 711.61 444.35 688.81 483.84 643.22 483.84 620.42 444.35 643.22 404.86 688.81 404.86"/><polygon class="cls-13" points="688.81 236.2 711.61 275.69 688.81 315.17 643.22 315.17 620.42 275.69 643.22 236.2 688.81 236.2"/><polygon class="cls-13" points="615.31 362.36 638.11 401.85 615.31 441.34 569.72 441.34 546.92 401.85 569.72 362.36 615.31 362.36"/><polygon class="cls-13" points="615.31 278.03 638.11 317.52 615.31 357.01 569.72 357.01 546.92 317.52 569.72 278.03 615.31 278.03"/><polygon class="cls-13" points="688.81 489.2 711.61 528.68 688.81 568.17 643.22 568.17 620.42 528.68 643.22 489.2 688.81 489.2"/><polygon class="cls-8" points="615.31 446.7 638.11 486.19 615.31 525.67 569.72 525.67 546.92 486.19 569.72 446.7 615.31 446.7"/><polygon class="cls-8" points="688.81 151.86 711.61 191.35 688.81 230.84 643.22 230.84 620.42 191.35 643.22 151.86 688.81 151.86"/><polygon class="cls-13" points="615.31 193.7 638.11 233.19 615.31 272.67 569.72 272.67 546.92 233.19 569.72 193.7 615.31 193.7"/><polygon class="cls-8" points="615.31 109.36 638.11 148.85 615.31 188.34 569.72 188.34 546.92 148.85 569.72 109.36 615.31 109.36"/><polygon class="cls-11" points="541.82 -16.8 564.62 22.68 541.82 62.17 496.22 62.17 473.42 22.68 496.22 -16.8 541.82 -16.8"/><polygon class="cls-8" points="541.82 67.53 564.62 107.02 541.82 146.51 496.22 146.51 473.42 107.02 496.22 67.53 541.82 67.53"/><polygon class="cls-11" points="468.32 25.03 491.12 64.52 468.32 104.01 422.72 104.01 399.92 64.52 422.72 25.03 468.32 25.03"/><polygon class="cls-8" points="468.32 -59.3 491.12 -19.82 468.32 19.67 422.72 19.67 399.92 -19.82 422.72 -59.3 468.32 -59.3"/><polygon class="cls-8" points="541.82 320.53 564.62 360.02 541.82 399.51 496.22 399.51 473.42 360.02 496.22 320.53 541.82 320.53"/><polygon class="cls-8" points="541.82 404.86 564.62 444.35 541.82 483.84 496.22 483.84 473.42 444.35 496.22 404.86 541.82 404.86"/><polygon class="cls-8" points="541.82 236.2 564.62 275.69 541.82 315.17 496.22 315.17 473.42 275.69 496.22 236.2 541.82 236.2"/><polygon class="cls-9" points="468.32 362.36 491.12 401.85 468.32 441.34 422.72 441.34 399.92 401.85 422.72 362.36 468.32 362.36"/><polygon class="cls-11" points="468.32 278.03 491.12 317.52 468.32 357.01 422.72 357.01 399.92 317.52 422.72 278.03 468.32 278.03"/><polygon class="cls-8" points="541.82 489.2 564.62 528.68 541.82 568.17 496.22 568.17 473.42 528.68 496.22 489.2 541.82 489.2"/><polygon class="cls-9" points="468.32 446.7 491.12 486.19 468.32 525.67 422.72 525.67 399.92 486.19 422.72 446.7 468.32 446.7"/><polygon class="cls-8" points="541.82 151.86 564.62 191.35 541.82 230.84 496.22 230.84 473.42 191.35 496.22 151.86 541.82 151.86"/><polygon class="cls-8" points="468.32 193.7 491.12 233.19 468.32 272.67 422.72 272.67 399.92 233.19 422.72 193.7 468.32 193.7"/><polygon class="cls-8" points="468.32 109.36 491.12 148.85 468.32 188.34 422.72 188.34 399.92 148.85 422.72 109.36 468.32 109.36"/><polygon class="cls-9" points="394.82 -16.8 417.62 22.68 394.82 62.17 349.22 62.17 326.42 22.68 349.22 -16.8 394.82 -16.8"/><polygon class="cls-11" points="394.82 67.53 417.62 107.02 394.82 146.51 349.22 146.51 326.42 107.02 349.22 67.53 394.82 67.53"/><polygon class="cls-11" points="321.32 25.03 344.12 64.52 321.32 104.01 275.72 104.01 252.92 64.52 275.72 25.03 321.32 25.03"/><polygon class="cls-10" points="321.32 -59.3 344.12 -19.82 321.32 19.67 275.72 19.67 252.92 -19.82 275.72 -59.3 321.32 -59.3"/><polygon class="cls-11" points="394.82 320.53 417.62 360.02 394.82 399.51 349.22 399.51 326.42 360.02 349.22 320.53 394.82 320.53"/><polygon class="cls-10" points="394.82 404.86 417.62 444.35 394.82 483.84 349.22 483.84 326.42 444.35 349.22 404.86 394.82 404.86"/><polygon class="cls-11" points="394.82 236.2 417.62 275.69 394.82 315.17 349.22 315.17 326.42 275.69 349.22 236.2 394.82 236.2"/><polygon class="cls-11" points="321.32 362.36 344.12 401.85 321.32 441.34 275.72 441.34 252.92 401.85 275.72 362.36 321.32 362.36"/><polygon class="cls-9" points="321.32 278.03 344.12 317.52 321.32 357.01 275.72 357.01 252.92 317.52 275.72 278.03 321.32 278.03"/><polygon class="cls-9" points="394.82 489.2 417.62 528.68 394.82 568.17 349.22 568.17 326.42 528.68 349.22 489.2 394.82 489.2"/><polygon class="cls-11" points="321.32 446.7 344.12 486.19 321.32 525.67 275.72 525.67 252.92 486.19 275.72 446.7 321.32 446.7"/><polygon class="cls-9" points="394.82 151.86 417.62 191.35 394.82 230.84 349.22 230.84 326.42 191.35 349.22 151.86 394.82 151.86"/><polygon class="cls-11" points="321.32 193.7 344.12 233.19 321.32 272.67 275.72 272.67 252.92 233.19 275.72 193.7 321.32 193.7"/><polygon class="cls-11" points="321.32 109.36 344.12 148.85 321.32 188.34 275.72 188.34 252.92 148.85 275.72 109.36 321.32 109.36"/><polygon class="cls-11" points="247.85 -16.8 270.65 22.68 247.85 62.17 202.25 62.17 179.45 22.68 202.25 -16.8 247.85 -16.8"/><polygon class="cls-9" points="247.85 67.53 270.65 107.02 247.85 146.51 202.25 146.51 179.45 107.02 202.25 67.53 247.85 67.53"/><polygon class="cls-9" points="174.35 25.03 197.15 64.52 174.35 104.01 128.75 104.01 105.95 64.52 128.75 25.03 174.35 25.03"/><polygon class="cls-11" points="174.35 -59.3 197.15 -19.82 174.35 19.67 128.75 19.67 105.95 -19.82 128.75 -59.3 174.35 -59.3"/><polygon class="cls-9" points="247.85 320.53 270.65 360.02 247.85 399.51 202.25 399.51 179.45 360.02 202.25 320.53 247.85 320.53"/><polygon class="cls-10" points="247.85 404.86 270.65 444.35 247.85 483.84 202.25 483.84 179.45 444.35 202.25 404.86 247.85 404.86"/><polygon class="cls-9" points="247.85 236.2 270.65 275.69 247.85 315.17 202.25 315.17 179.45 275.69 202.25 236.2 247.85 236.2"/><polygon class="cls-13" points="174.35 362.36 197.15 401.85 174.35 441.34 128.75 441.34 105.95 401.85 128.75 362.36 174.35 362.36"/><polygon class="cls-9" points="174.35 278.03 197.15 317.52 174.35 357.01 128.75 357.01 105.95 317.52 128.75 278.03 174.35 278.03"/><polygon class="cls-11" points="247.85 489.2 270.65 528.68 247.85 568.17 202.25 568.17 179.45 528.68 202.25 489.2 247.85 489.2"/><polygon class="cls-9" points="174.35 446.7 197.15 486.19 174.35 525.67 128.75 525.67 105.95 486.19 128.75 446.7 174.35 446.7"/><polygon class="cls-11" points="247.85 151.86 270.65 191.35 247.85 230.84 202.25 230.84 179.45 191.35 202.25 151.86 247.85 151.86"/><polygon class="cls-9" points="174.35 193.7 197.15 233.19 174.35 272.67 128.75 272.67 105.95 233.19 128.75 193.7 174.35 193.7"/><polygon class="cls-9" points="174.35 109.36 197.15 148.85 174.35 188.34 128.75 188.34 105.95 148.85 128.75 109.36 174.35 109.36"/><polygon class="cls-12" points="100.85 -16.8 123.65 22.68 100.85 62.17 55.25 62.17 32.45 22.68 55.25 -16.8 100.85 -16.8"/><polygon class="cls-12" points="100.85 67.53 123.65 107.02 100.85 146.51 55.25 146.51 32.45 107.02 55.25 67.53 100.85 67.53"/><polygon class="cls-12" points="27.35 25.03 50.15 64.52 27.35 104.01 -18.25 104.01 -41.05 64.52 -18.25 25.03 27.35 25.03"/><polygon class="cls-9" points="27.35 -59.3 50.15 -19.82 27.35 19.67 -18.25 19.67 -41.05 -19.82 -18.25 -59.3 27.35 -59.3"/><polygon class="cls-12" points="100.85 320.53 123.65 360.02 100.85 399.51 55.25 399.51 32.45 360.02 55.25 320.53 100.85 320.53"/><polygon class="cls-12" points="100.85 404.86 123.65 444.35 100.85 483.84 55.25 483.84 32.45 444.35 55.25 404.86 100.85 404.86"/><polygon class="cls-9" points="100.85 236.2 123.65 275.69 100.85 315.17 55.25 315.17 32.45 275.69 55.25 236.2 100.85 236.2"/><polygon class="cls-12" points="27.35 362.36 50.15 401.85 27.35 441.34 -18.25 441.34 -41.05 401.85 -18.25 362.36 27.35 362.36"/><polygon class="cls-9" points="27.35 278.03 50.15 317.52 27.35 357.01 -18.25 357.01 -41.05 317.52 -18.25 278.03 27.35 278.03"/><polygon class="cls-12" points="100.85 489.2 123.65 528.68 100.85 568.17 55.25 568.17 32.45 528.68 55.25 489.2 100.85 489.2"/><polygon class="cls-12" points="27.35 446.7 50.15 486.19 27.35 525.67 -18.25 525.67 -41.05 486.19 -18.25 446.7 27.35 446.7"/><polygon class="cls-9" points="100.85 151.86 123.65 191.35 100.85 230.84 55.25 230.84 32.45 191.35 55.25 151.86 100.85 151.86"/><polygon class="cls-9" points="27.35 193.7 50.15 233.19 27.35 272.67 -18.25 272.67 -41.05 233.19 -18.25 193.7 27.35 193.7"/><polygon class="cls-12" points="27.35 109.36 50.15 148.85 27.35 188.34 -18.25 188.34 -41.05 148.85 -18.25 109.36 27.35 109.36"/></g></g></g></g><g class="cls-14"><g class="cls-15"><rect class="cls-16" x="286.07" y="498.22" width="2352.22" height="1323.12"/></g></g></g></g></svg>