<svg xmlns="http://www.w3.org/2000/svg" xmlns:xlink="http://www.w3.org/1999/xlink" viewBox="0 0 30 30"><defs><style>.cls-1{fill:none;}.cls-2{isolation:isolate;}.cls-3{clip-path:url(#clip-path);}.cls-4{opacity:0.7;}.cls-5{clip-path:url(#clip-path-2);}.cls-6{mix-blend-mode:soft-light;}.cls-7{fill:#fff;}.cls-8{clip-path:url(#clip-path-3);}.cls-9{clip-path:url(#clip-path-4);}.cls-10{fill:url(#radial-gradient);}.cls-11{fill:#e22d27;}.cls-12{fill:#eeefef;fill-rule:evenodd;}</style><clipPath id="clip-path"><rect class="cls-1" x="-920.83" y="-731.41" width="1920" height="530"/></clipPath><clipPath id="clip-path-2"><rect class="cls-1" x="-920.83" y="-1080.06" width="1920" height="1080"/></clipPath><clipPath id="clip-path-3"><polyline class="cls-1" points="-419.38 -110.62 -275.05 -27.29 -275.05 139.38 -419.38 222.72 -563.72 139.38 -563.72 -27.29 -419.38 -110.62"/></clipPath><clipPath id="clip-path-4"><polygon class="cls-1" points="-419.38 -109.19 -562.48 -26.57 -562.48 138.67 -419.38 221.28 -276.29 138.67 -276.29 -26.57 -419.38 -109.19 -419.38 -109.19"/></clipPath><radialGradient id="radial-gradient" cx="541.34" cy="428.37" r="1148.85" gradientUnits="userSpaceOnUse"><stop offset="0" stop-color="#fff8da"/><stop offset="0.4" stop-color="#ffe264"/><stop offset="1" stop-color="#fc9200"/></radialGradient></defs><title>youtube</title><g class="cls-2"><g id="Layer_1" data-name="Layer 1"><g class="cls-3"><g class="cls-4"><g class="cls-5"><g class="cls-6"><rect class="cls-7" x="-961.88" y="-1169.87" width="2002.1" height="1261.89"/><polygon class="cls-7" points="61.95 -73.57 84.75 -34.08 61.95 5.41 16.35 5.41 -6.45 -34.08 16.35 -73.57 61.95 -73.57"/><polygon class="cls-7" points="61.95 10.77 84.75 50.26 61.95 89.74 16.35 89.74 -6.45 50.26 16.35 10.77 61.95 10.77"/><polygon class="cls-7" points="-11.55 -31.73 11.25 7.75 -11.55 47.24 -57.15 47.24 -79.95 7.75 -57.15 -31.73 -11.55 -31.73"/></g></g></g></g><g class="cls-8"><g class="cls-9"><rect class="cls-10" x="-634.77" y="-233.19" width="2352.22" height="1323.12"/></g></g><circle class="cls-11" cx="15" cy="15" r="15"/><path class="cls-12" d="M24,11.41a2.68,2.68,0,0,0-2.68-2.68H8.71A2.68,2.68,0,0,0,6,11.41v7.19a2.68,2.68,0,0,0,2.68,2.68H21.29A2.68,2.68,0,0,0,24,18.59ZM13.21,18V11.28l5.12,3.38Zm0,0"/></g></g></svg>